# https://github.com/mikedh/trimesh
v -0.01765444 0.01386622 0.19782554
v -0.01765444 0.01420879 0.19889184
v -0.01765444 0.01388499 0.19739683
v -0.00037050 0.02022722 0.19584549
v -0.00037050 0.02024365 0.19592451
v -0.00037050 0.02209493 0.20232701
v -0.01765444 0.01467806 0.19982046
v -0.01765444 0.01403516 0.19584549
v -0.00037050 0.02529537 0.19584549
v -0.00037050 0.02226152 0.20265402
v -0.01765444 0.01484466 0.20007628
v -0.01765444 0.02113761 0.19584549
v -0.00110476 0.02540565 0.19584549
v -0.00037050 0.03587280 0.19642519
v -0.00037050 0.02357549 0.20324076
v -0.01765444 0.01697516 0.20156503
v -0.01765444 0.01650588 0.20135302
v -0.01765444 0.01595918 0.20108155
v -0.01765444 0.01502532 0.20028672
v -0.01614193 0.02265336 0.19584549
v -0.01765444 0.03176431 0.19659965
v -0.00320435 0.02553470 0.19584549
v -0.00523795 0.02563560 0.19584549
v -0.00102524 0.03587280 0.19642441
v -0.00037050 0.03678084 0.19654802
v -0.00037050 0.02372565 0.20329317
v -0.01765444 0.01938253 0.20256092
v -0.01479352 0.02327046 0.19584549
v -0.01742435 0.03177369 0.19658870
v -0.01332500 0.03382442 0.19658478
v -0.00512629 0.03587280 0.19645023
v -0.01765444 0.03298677 0.19672013
v -0.01742435 0.03302900 0.19670526
v -0.00722588 0.02564968 0.19584549
v -0.00307577 0.03587280 0.19642363
v -0.00102524 0.03720553 0.19660513
v -0.00037050 0.03720788 0.19660591
v -0.00037050 0.02570364 0.20359045
v -0.01765444 0.02122677 0.20306160
v -0.01765444 0.02051817 0.20294348
v -0.01032027 0.02494342 0.19584549
v -0.01522833 0.03378218 0.19666928
v -0.01332500 0.03501637 0.19670526
v -0.00717512 0.03587280 0.19653002
v -0.00512629 0.03713749 0.19663407
v -0.00307577 0.03718911 0.19660669
v -0.00887035 0.02537750 0.19584549
v -0.01765444 0.03350062 0.19782554
v -0.01444669 0.03488498 0.19677332
v -0.00102524 0.03783201 0.19782554
v -0.00037050 0.03783671 0.19782554
v -0.01765444 0.02334789 0.20323293
v -0.01765444 0.02136521 0.20307881
v -0.00037050 0.02767459 0.20373831
v -0.00834419 0.03693101 0.19677176
v -0.00717512 0.03702017 0.19670761
v -0.00512629 0.03763961 0.19782554
v -0.00307577 0.03778509 0.19782554
v -0.01765444 0.03351001 0.19803677
v -0.01474108 0.03500933 0.19782554
v -0.01332500 0.03549972 0.19782554
v -0.00877223 0.03704364 0.19782554
v -0.00307577 0.03749414 0.19944025
v -0.00102524 0.03752699 0.19945511
v -0.00037050 0.03762788 0.19893487
v -0.00037050 0.02972297 0.20383297
v -0.01537383 0.02562621 0.20333073
v -0.01765444 0.02357549 0.20323293
v -0.00717512 0.03735805 0.19782554
v -0.00881960 0.03706006 0.19906083
v -0.00717512 0.03723603 0.19925562
v -0.00512629 0.03740263 0.19938862
v -0.01765444 0.03331760 0.19935498
v -0.01477322 0.03502810 0.19910385
v -0.00223661 0.03487794 0.20297477
v -0.00102524 0.03492252 0.20301232
v -0.00037050 0.03493425 0.20302484
v -0.00037050 0.03752699 0.19945824
v -0.00037050 0.03177369 0.20383767
v -0.01765444 0.02539627 0.20322824
v -0.01332500 0.02767459 0.20339252
v -0.01332500 0.03533313 0.19937453
v -0.00717512 0.03419045 0.20236143
v -0.00512629 0.03447905 0.20265714
v -0.00360362 0.03469257 0.20283082
v -0.01742435 0.03337861 0.19940270
v -0.01765444 0.03179716 0.20046978
v -0.01701154 0.03112375 0.20126462
v -0.01537383 0.03021101 0.20269001
v -0.01419122 0.03063336 0.20292235
v -0.01343497 0.03169392 0.20238021
v -0.01127447 0.03235559 0.20269705
v -0.01003604 0.03268174 0.20289497
v -0.00867241 0.03293984 0.20302327
v -0.00717512 0.03316509 0.20311950
v -0.00512629 0.03345369 0.20321729
v -0.00298272 0.03393470 0.20323685
v -0.00102524 0.03382442 0.20341756
v -0.00037050 0.03382442 0.20344963
v -0.00512629 0.03177369 0.20356072
v -0.01127447 0.02972297 0.20338470
v -0.00922395 0.02972297 0.20349736
v -0.01742435 0.02562621 0.20323450
v -0.01765444 0.02561917 0.20321416
v -0.01537383 0.02767459 0.20325328
v -0.01765444 0.02970889 0.20198513
v -0.01765444 0.02908945 0.20237395
v -0.01765444 0.02832219 0.20284803
v -0.01654290 0.02877973 0.20297946
v -0.01537383 0.02918565 0.20305535
v -0.01282590 0.03095950 0.20302718
v -0.01127447 0.03133023 0.20312263
v -0.00930178 0.03190744 0.20320086
v -0.00717512 0.03177369 0.20342382
v -0.01343497 0.02985906 0.20316174
v -0.01765444 0.02725694 0.20306160
v -0.01730592 0.02759012 0.20306239
v -0.01765444 0.02740710 0.20304596
f 1 2 7
f 1 7 11
f 1 11 19
f 1 19 18
f 1 18 17
f 1 17 16
f 1 16 27
f 1 27 40
f 1 40 39
f 1 39 53
f 1 53 52
f 1 52 68
f 1 68 80
f 1 80 104
f 1 104 116
f 1 116 118
f 1 118 108
f 1 108 107
f 1 107 106
f 1 106 87
f 1 87 73
f 1 73 59
f 1 59 48
f 1 48 32
f 1 32 21
f 1 21 12
f 1 12 8
f 1 8 3
f 1 3 4
f 1 4 5
f 1 5 6
f 1 6 2
f 2 6 7
f 3 8 4
f 4 8 12
f 4 12 20
f 4 20 28
f 4 28 41
f 4 41 47
f 4 47 34
f 4 34 23
f 4 23 22
f 4 22 13
f 4 13 9
f 4 9 14
f 4 14 25
f 4 25 37
f 4 37 51
f 4 51 65
f 4 65 78
f 4 78 77
f 4 77 99
f 4 99 79
f 4 79 66
f 4 66 54
f 4 54 38
f 4 38 26
f 4 26 15
f 4 15 10
f 4 10 6
f 4 6 5
f 6 10 7
f 7 10 11
f 9 13 14
f 10 15 16
f 10 16 17
f 10 17 18
f 10 18 19
f 10 19 11
f 12 21 20
f 13 22 14
f 14 22 23
f 14 23 24
f 14 24 25
f 15 26 27
f 15 27 16
f 20 21 29
f 20 29 30
f 20 30 31
f 20 31 28
f 21 32 33
f 21 33 29
f 23 34 24
f 24 35 36
f 24 36 37
f 24 37 25
f 24 34 35
f 26 38 39
f 26 39 40
f 26 40 27
f 28 31 41
f 29 33 42
f 29 42 30
f 30 42 43
f 30 43 44
f 30 44 31
f 31 44 45
f 31 45 46
f 31 46 35
f 31 35 47
f 31 47 41
f 32 48 49
f 32 49 33
f 33 49 43
f 33 43 42
f 34 47 35
f 35 46 36
f 36 46 50
f 36 50 51
f 36 51 37
f 38 52 53
f 38 53 39
f 38 54 52
f 43 55 56
f 43 56 44
f 43 49 55
f 44 56 45
f 45 56 57
f 45 57 58
f 45 58 46
f 46 58 50
f 48 59 60
f 48 60 49
f 49 60 61
f 49 61 62
f 49 62 55
f 50 58 63
f 50 63 64
f 50 64 51
f 51 64 65
f 52 54 66
f 52 66 67
f 52 67 68
f 55 62 69
f 55 69 57
f 55 57 56
f 57 69 70
f 57 70 71
f 57 71 72
f 57 72 58
f 58 72 63
f 59 73 74
f 59 74 60
f 60 74 61
f 61 74 70
f 61 70 62
f 62 70 69
f 63 72 75
f 63 75 76
f 63 76 77
f 63 77 64
f 64 78 65
f 64 77 78
f 66 79 67
f 67 80 68
f 67 79 81
f 67 81 80
f 70 74 82
f 70 82 83
f 70 83 84
f 70 84 85
f 70 85 75
f 70 75 71
f 71 75 72
f 73 86 74
f 73 87 88
f 73 88 89
f 73 89 90
f 73 90 86
f 74 86 91
f 74 91 92
f 74 92 93
f 74 93 82
f 75 85 94
f 75 94 95
f 75 95 96
f 75 96 97
f 75 97 98
f 75 98 99
f 75 99 76
f 76 99 77
f 79 100 101
f 79 101 102
f 79 102 81
f 79 99 98
f 79 98 100
f 80 81 103
f 80 103 104
f 81 102 101
f 81 101 105
f 81 105 103
f 82 93 83
f 83 93 84
f 84 93 94
f 84 94 85
f 86 90 91
f 87 106 88
f 88 106 89
f 89 106 107
f 89 107 108
f 89 108 90
f 90 108 109
f 90 109 110
f 90 110 111
f 90 111 94
f 90 94 93
f 90 93 92
f 90 92 91
f 94 111 112
f 94 112 113
f 94 113 95
f 95 113 114
f 95 114 96
f 96 98 97
f 96 114 98
f 98 114 100
f 100 114 101
f 101 114 112
f 101 112 115
f 101 115 105
f 103 105 104
f 104 105 116
f 105 117 118
f 105 118 116
f 105 115 110
f 105 110 117
f 108 118 109
f 109 118 117
f 109 117 110
f 110 115 111
f 111 115 112
f 112 114 113

