# https://github.com/mikedh/trimesh
v -0.01936453 -0.02195117 0.18126803
v -0.01936453 -0.02195117 0.18127881
v -0.01936453 -0.01735784 0.17223957
v -0.01445240 -0.02882844 0.18019937
v -0.01640306 -0.02665471 0.18242773
v -0.01936453 -0.02179348 0.18348680
v -0.01640306 -0.02665471 0.18246487
v -0.01936453 -0.01408707 0.17223957
v -0.01096646 -0.02714473 0.17223957
v -0.01269234 -0.02910821 0.17781766
v -0.01323127 -0.02965080 0.17952847
v -0.01240316 -0.03082245 0.18022453
v -0.01456019 -0.02894374 0.18142497
v -0.01936453 -0.02169514 0.18369766
v -0.01452732 -0.02889627 0.18294169
v -0.01535806 -0.02763136 0.18338616
v -0.01618880 -0.02631729 0.18383184
v -0.01936453 -0.01624893 0.18447758
v -0.01742439 -0.01397007 0.17223957
v -0.00993724 -0.02782127 0.17223957
v -0.01171307 -0.03047485 0.17885756
v -0.01034735 -0.03078175 0.17828969
v -0.01112814 -0.03099031 0.17947455
v -0.01127536 -0.03119717 0.18142497
v -0.01241893 -0.03082923 0.18142497
v -0.01344290 -0.02996787 0.18142497
v -0.01936453 -0.02118138 0.18447758
v -0.01235584 -0.03078175 0.18253436
v -0.01425523 -0.02860971 0.18430866
v -0.01604684 -0.02605956 0.18447758
v -0.01671853 -0.01756301 0.18447758
v -0.01413693 -0.01625232 0.17665436
v -0.01476130 -0.01449062 0.17223957
v -0.01575897 -0.01413115 0.17223957
v -0.01596271 -0.01420406 0.17271640
v -0.00930367 -0.02819769 0.17223957
v -0.00922612 -0.03077667 0.17829448
v -0.00922612 -0.03112934 0.17937392
v -0.00717556 -0.02858937 0.17223957
v -0.00922612 -0.03129043 0.18142497
v -0.01127536 -0.03091909 0.18288299
v -0.01127536 -0.03049011 0.18390731
v -0.01133188 -0.03015778 0.18447758
v -0.01305119 -0.02934220 0.18447758
v -0.01416059 -0.02856902 0.18447758
v -0.01505311 -0.02739229 0.18447758
v -0.00593734 -0.02518634 0.18447758
v -0.01379386 -0.01600307 0.17527541
v -0.01330882 -0.01538080 0.17223957
v -0.00818769 -0.03075462 0.17833761
v -0.00795766 -0.03088179 0.17937392
v -0.00593734 -0.02847407 0.17223957
v -0.00788142 -0.03092079 0.18142497
v -0.00808779 -0.03080719 0.18261223
v -0.00922612 -0.03093775 0.18294169
v -0.00922612 -0.03054946 0.18396601
v -0.01055240 -0.03025442 0.18447758
v -0.00593734 -0.02905904 0.18447758
v -0.00593734 -0.02482009 0.17527541
v -0.01010023 -0.01827854 0.17223957
v -0.01112682 -0.01724424 0.17223957
v -0.01213107 -0.01625741 0.17223957
v -0.01218102 -0.01630150 0.17250913
v -0.01245705 -0.01653209 0.17387610
v -0.01321287 -0.01576230 0.17320640
v -0.00693239 -0.03033073 0.17937392
v -0.00593734 -0.02937442 0.17737678
v -0.00593734 -0.02476583 0.17223957
v -0.00685746 -0.03032734 0.18142497
v -0.00593734 -0.02946598 0.18286022
v -0.00593734 -0.02932864 0.18345086
v -0.00632379 -0.02928116 0.18447758
v -0.00719133 -0.02968302 0.18447758
v -0.00855968 -0.03013743 0.18447758
v -0.00922612 -0.03031038 0.18447758
v -0.00593734 -0.02475057 0.17331062
v -0.00593734 -0.02970845 0.17937392
v -0.00593734 -0.02971014 0.18142497
f 1 2 6
f 1 6 14
f 1 14 27
f 1 27 18
f 1 18 8
f 1 8 3
f 1 3 4
f 1 4 5
f 1 5 7
f 1 7 2
f 2 7 6
f 3 8 19
f 3 19 34
f 3 34 33
f 3 33 49
f 3 49 62
f 3 62 61
f 3 61 60
f 3 60 68
f 3 68 52
f 3 52 39
f 3 39 36
f 3 36 20
f 3 20 9
f 3 9 4
f 4 9 10
f 4 10 11
f 4 11 12
f 4 12 13
f 4 13 5
f 5 13 7
f 6 7 14
f 7 13 15
f 7 15 16
f 7 16 17
f 7 17 14
f 8 18 19
f 9 20 12
f 9 12 10
f 10 12 11
f 12 21 22
f 12 22 23
f 12 23 24
f 12 24 25
f 12 25 26
f 12 26 13
f 12 20 21
f 13 26 15
f 14 17 27
f 15 26 28
f 15 28 29
f 15 29 16
f 16 29 17
f 17 29 30
f 17 30 27
f 18 31 32
f 18 32 33
f 18 33 34
f 18 34 35
f 18 35 19
f 18 27 30
f 18 30 46
f 18 46 45
f 18 45 44
f 18 44 43
f 18 43 57
f 18 57 75
f 18 75 74
f 18 74 73
f 18 73 72
f 18 72 58
f 18 58 47
f 18 47 31
f 19 35 34
f 20 36 21
f 21 36 22
f 22 37 38
f 22 38 23
f 22 36 39
f 22 39 37
f 23 38 24
f 24 38 40
f 24 40 41
f 24 41 28
f 24 28 25
f 25 28 26
f 28 41 42
f 28 42 43
f 28 43 44
f 28 44 29
f 29 45 46
f 29 46 30
f 29 44 45
f 31 47 32
f 32 48 33
f 32 47 48
f 33 48 49
f 37 50 38
f 37 39 50
f 38 50 51
f 38 51 40
f 39 52 50
f 40 51 53
f 40 53 54
f 40 54 55
f 40 55 41
f 41 55 56
f 41 56 42
f 42 56 57
f 42 57 43
f 47 58 71
f 47 71 70
f 47 70 78
f 47 78 77
f 47 77 67
f 47 67 52
f 47 52 68
f 47 68 76
f 47 76 59
f 47 59 60
f 47 60 61
f 47 61 62
f 47 62 63
f 47 63 64
f 47 64 48
f 48 64 65
f 48 65 49
f 49 65 64
f 49 64 63
f 49 63 62
f 50 52 51
f 51 66 53
f 51 52 66
f 52 67 66
f 53 66 69
f 53 69 54
f 54 56 55
f 54 69 70
f 54 70 71
f 54 71 58
f 54 58 72
f 54 72 73
f 54 73 74
f 54 74 56
f 56 75 57
f 56 74 75
f 59 76 60
f 60 76 68
f 66 67 77
f 66 77 69
f 69 77 78
f 69 78 70

