# https://github.com/mikedh/trimesh
v -0.01936453 -0.02117859 0.18447878
v -0.01936453 -0.01952826 0.19584549
v -0.01936453 -0.01624746 0.18447878
v -0.01604684 -0.02605916 0.18447878
v -0.01931589 -0.01957701 0.19584549
v -0.01936453 -0.01186524 0.19584549
v -0.01505311 -0.02739171 0.18447878
v -0.01416059 -0.02856897 0.18447878
v -0.01936453 -0.01549272 0.18566040
v -0.01671853 -0.01756376 0.18447878
v -0.01543561 -0.02298962 0.19584549
v -0.00593734 -0.02192431 0.19584549
v -0.00593734 -0.02192792 0.19577429
v -0.00593734 -0.02209765 0.19450922
v -0.01936453 -0.01187066 0.19580766
v -0.01305119 -0.02934177 0.18447878
v -0.01337192 -0.02447384 0.19584549
v -0.01936453 -0.01512076 0.18624453
v -0.01936453 -0.01460977 0.18705120
v -0.01936453 -0.01435879 0.18749514
v -0.01906746 -0.01469102 0.18720585
v -0.01843258 -0.01433713 0.18857329
v -0.00593734 -0.02518705 0.18447878
v -0.00593734 -0.02659543 0.19584549
v -0.00593734 -0.02225835 0.19361020
v -0.01936453 -0.01275902 0.19167421
v -0.01133188 -0.03015791 0.18447878
v -0.01111105 -0.02584069 0.19584549
v -0.01936453 -0.01411503 0.18794910
v -0.01936453 -0.01338557 0.18947675
v -0.00593734 -0.02263933 0.19212705
v -0.00593734 -0.02906010 0.18447878
v -0.00717556 -0.02668752 0.19584549
v -0.00922612 -0.03031138 0.18447878
v -0.00855968 -0.03013624 0.18447878
v -0.00719133 -0.02968303 0.18447878
v -0.00632379 -0.02928038 0.18447878
v -0.01055240 -0.03025360 0.18447878
v -0.00922612 -0.02637876 0.19584549
f 1 2 6
f 1 6 15
f 1 15 26
f 1 26 30
f 1 30 29
f 1 29 20
f 1 20 19
f 1 19 18
f 1 18 9
f 1 9 3
f 1 3 10
f 1 10 23
f 1 23 32
f 1 32 37
f 1 37 36
f 1 36 35
f 1 35 34
f 1 34 38
f 1 38 27
f 1 27 16
f 1 16 8
f 1 8 7
f 1 7 4
f 1 4 2
f 2 5 11
f 2 11 17
f 2 17 28
f 2 28 39
f 2 39 33
f 2 33 24
f 2 24 12
f 2 12 6
f 2 4 7
f 2 7 8
f 2 8 5
f 3 9 10
f 5 8 11
f 6 12 13
f 6 13 14
f 6 14 15
f 8 16 17
f 8 17 11
f 9 18 10
f 10 18 19
f 10 19 20
f 10 20 21
f 10 21 22
f 10 22 23
f 12 24 32
f 12 32 23
f 12 23 31
f 12 31 25
f 12 25 14
f 12 14 13
f 14 25 15
f 15 25 26
f 16 27 28
f 16 28 17
f 20 29 21
f 21 29 22
f 22 29 30
f 22 30 26
f 22 26 31
f 22 31 23
f 24 33 34
f 24 34 35
f 24 35 36
f 24 36 37
f 24 37 32
f 25 31 26
f 27 38 33
f 27 33 39
f 27 39 28
f 33 38 34

