# https://github.com/mikedh/trimesh
v 0.02169663 0.00102513 0.19584242
v 0.02166544 0.00307582 0.19584242
v 0.02169403 0.00091633 0.19584242
v 0.02151467 0.00102513 0.18757249
v 0.02154067 0.00512415 0.19584242
v 0.02147438 0.00307582 0.18757249
v 0.02161345 -0.00113555 0.19584242
v 0.02130022 -0.00102438 0.18757249
v 0.02143019 0.00102513 0.18552420
v 0.02141459 0.00307582 0.18552420
v 0.02152507 -0.00198350 0.19584242
v 0.01966648 0.01009713 0.19584242
v 0.02116765 0.00512415 0.18552420
v 0.02074134 0.00706958 0.18552420
v 0.02046970 0.00809493 0.18552420
v 0.02047620 0.00811858 0.18757249
v 0.02119494 -0.00102438 0.18552420
v 0.02128332 0.00102513 0.18347284
v 0.02128852 0.00307582 0.18347284
v 0.02106497 0.00512415 0.18347284
v 0.01733480 -0.00198350 0.19584242
v 0.02097009 -0.00198350 0.18552420
v 0.01485235 0.01009713 0.19584242
v 0.01998231 0.00922435 0.18757249
v 0.01953261 0.01009713 0.18757249
v 0.02069845 0.00689455 0.18347284
v 0.01992252 0.00922435 0.18552420
v 0.02041771 0.00791872 0.18347284
v 0.02082452 -0.00198350 0.18347284
v 0.02103898 -0.00102438 0.18347284
v 0.02084792 -0.00102438 0.18142455
v 0.02107537 0.00102513 0.18142455
v 0.02107797 0.00307582 0.18142455
v 0.02085572 0.00512415 0.18142455
v 0.02059057 0.00648891 0.18142455
v 0.00841878 0.01009713 0.16447626
v 0.01323291 -0.00198350 0.16447626
v 0.01943643 0.01009713 0.18552420
v 0.01976396 0.00922435 0.18347284
v 0.02028774 0.00751426 0.18142455
v 0.01946372 0.00922435 0.18142455
v 0.02065816 -0.00198350 0.18142455
v 0.02053859 -0.00198350 0.18007336
v 0.02049700 -0.00198350 0.17970178
v 0.02044371 -0.00168784 0.17880814
v 0.02062437 -0.00101255 0.17944382
v 0.02054509 -0.00032071 0.17808648
v 0.02080893 0.00102513 0.17937626
v 0.02078813 0.00307582 0.17937626
v 0.02051909 0.00418159 0.17825846
v 0.02060227 0.00496922 0.17953595
v 0.02051649 0.00621099 0.18032210
v 0.01317832 0.01009713 0.16447626
v 0.01691109 -0.00198350 0.16447626
v 0.01924147 0.01009713 0.18347284
v 0.02009538 0.00700572 0.17953595
v 0.01883077 0.00876549 0.17732797
v 0.01898803 0.00932606 0.17944382
v 0.01871769 0.01009713 0.18043572
v 0.01891785 0.01009713 0.18142455
v 0.02038912 -0.00198350 0.17895862
v 0.02014607 -0.00198350 0.17734947
v 0.01982115 -0.00198350 0.17527661
v 0.02033583 -0.00101255 0.17737096
v 0.01998621 -0.00102438 0.17527661
v 0.02039952 0.00102513 0.17685812
v 0.02058018 0.00102513 0.17788381
v 0.02056068 0.00307582 0.17801278
v 0.02036443 0.00307582 0.17698710
v 0.02000960 0.00307582 0.17527661
v 0.01953391 0.00307582 0.17322525
v 0.02015257 0.00496922 0.17747537
v 0.01951052 0.00717484 0.17732797
v 0.01344606 0.00957559 0.16447626
v 0.01710345 0.01009713 0.17523976
v 0.01784169 0.00916522 0.17517220
v 0.01860982 0.00844263 0.17578331
v 0.01839276 0.00803580 0.17441676
v 0.01645229 0.00827233 0.17004073
v 0.01693319 -0.00163699 0.16447626
v 0.01712294 -0.00198350 0.16502595
v 0.01831478 0.01007821 0.17880507
v 0.01862671 0.01009713 0.17999965
v 0.01943123 -0.00198350 0.17322525
v 0.02010708 0.00102513 0.17527661
v 0.01957290 -0.00102438 0.17322525
v 0.01967038 0.00102513 0.17322525
v 0.01916089 0.00102513 0.17117696
v 0.01897633 0.00307582 0.17117696
v 0.01846035 0.00412245 0.17012057
v 0.01956250 0.00512415 0.17527661
v 0.01656797 0.00434479 0.16568926
v 0.01634572 0.00352759 0.16447626
v 0.01756355 0.01009713 0.17654796
v 0.01808733 0.00979083 0.17732797
v 0.01697088 -0.00102438 0.16447626
v 0.01718273 -0.00102438 0.16502595
v 0.01790147 -0.00102438 0.16707731
v 0.01782609 -0.00198350 0.16707731
v 0.01830178 0.01009713 0.17881122
v 0.01895684 -0.00198350 0.17109098
v 0.01909981 -0.00102438 0.17117696
v 0.01865011 -0.00102438 0.16948182
v 0.01867220 0.00102513 0.16945112
v 0.01856173 0.00307582 0.16980427
v 0.01820431 0.00307582 0.16877859
v 0.01757524 0.00307582 0.16707731
v 0.01676423 0.00302260 0.16501366
v 0.01663685 0.00269974 0.16447626
v 0.01783519 0.01009713 0.17732797
v 0.01713204 0.00102513 0.16502595
v 0.01691109 0.00102513 0.16447626
v 0.01788458 0.00102513 0.16707731
v 0.01834078 0.00102513 0.16842851
v 0.01834078 -0.00102438 0.16845614
v 0.01859812 -0.00198350 0.16963844
v 0.01683571 0.00160580 0.16447626
f 1 2 5
f 1 5 12
f 1 12 23
f 1 23 21
f 1 21 11
f 1 11 7
f 1 7 3
f 1 3 4
f 1 4 2
f 2 4 6
f 2 6 5
f 3 7 4
f 4 8 9
f 4 9 10
f 4 10 6
f 4 7 11
f 4 11 8
f 5 6 10
f 5 10 13
f 5 13 14
f 5 14 15
f 5 15 16
f 5 16 12
f 8 17 9
f 8 11 17
f 9 17 18
f 9 18 19
f 9 19 10
f 10 19 20
f 10 20 13
f 11 21 37
f 11 37 54
f 11 54 81
f 11 81 99
f 11 99 116
f 11 116 101
f 11 101 84
f 11 84 63
f 11 63 62
f 11 62 61
f 11 61 44
f 11 44 43
f 11 43 42
f 11 42 29
f 11 29 22
f 11 22 17
f 12 16 15
f 12 15 24
f 12 24 25
f 12 25 38
f 12 38 55
f 12 55 60
f 12 60 59
f 12 59 83
f 12 83 100
f 12 100 110
f 12 110 94
f 12 94 75
f 12 75 53
f 12 53 36
f 12 36 23
f 13 20 26
f 13 26 14
f 14 26 15
f 15 27 24
f 15 26 28
f 15 28 27
f 17 22 29
f 17 29 30
f 17 30 18
f 18 30 31
f 18 31 32
f 18 32 19
f 19 32 33
f 19 33 34
f 19 34 20
f 20 34 35
f 20 35 26
f 21 23 36
f 21 36 37
f 24 27 25
f 25 27 38
f 26 35 28
f 27 28 39
f 27 39 38
f 28 35 40
f 28 40 41
f 28 41 39
f 29 42 30
f 30 42 43
f 30 43 31
f 31 43 44
f 31 44 45
f 31 45 46
f 31 46 32
f 32 46 47
f 32 47 48
f 32 48 33
f 33 48 49
f 33 49 50
f 33 50 34
f 34 51 52
f 34 52 35
f 34 50 51
f 35 52 40
f 36 53 74
f 36 74 93
f 36 93 109
f 36 109 117
f 36 117 112
f 36 112 96
f 36 96 80
f 36 80 54
f 36 54 37
f 38 39 55
f 39 41 55
f 40 52 56
f 40 56 57
f 40 57 41
f 41 57 58
f 41 58 59
f 41 59 60
f 41 60 55
f 44 61 45
f 45 61 62
f 45 62 63
f 45 63 64
f 45 64 47
f 45 47 46
f 47 64 65
f 47 65 66
f 47 66 67
f 47 67 48
f 48 67 49
f 49 67 68
f 49 68 50
f 50 68 69
f 50 69 70
f 50 70 71
f 50 71 72
f 50 72 52
f 50 52 51
f 52 72 73
f 52 73 56
f 53 75 76
f 53 76 77
f 53 77 78
f 53 78 79
f 53 79 74
f 54 80 81
f 56 73 57
f 57 73 77
f 57 77 82
f 57 82 83
f 57 83 58
f 58 83 59
f 63 65 64
f 63 84 65
f 65 85 66
f 65 84 86
f 65 86 85
f 66 68 67
f 66 85 68
f 68 85 69
f 69 85 70
f 70 85 87
f 70 87 71
f 71 87 88
f 71 88 89
f 71 89 90
f 71 90 91
f 71 91 72
f 72 91 73
f 73 91 90
f 73 90 78
f 73 78 77
f 74 92 93
f 74 79 92
f 75 94 76
f 76 94 95
f 76 95 77
f 77 95 82
f 78 90 92
f 78 92 79
f 80 96 97
f 80 97 81
f 81 97 98
f 81 98 99
f 82 100 83
f 82 95 100
f 84 101 86
f 85 86 87
f 86 101 102
f 86 102 87
f 87 102 88
f 88 102 103
f 88 103 104
f 88 104 89
f 89 104 105
f 89 105 90
f 90 105 106
f 90 106 107
f 90 107 108
f 90 108 92
f 92 108 93
f 93 108 109
f 94 110 95
f 95 110 100
f 96 111 97
f 96 112 111
f 97 111 113
f 97 113 98
f 98 113 114
f 98 114 104
f 98 104 115
f 98 115 99
f 99 115 103
f 99 103 116
f 101 116 102
f 102 116 103
f 103 115 104
f 104 114 105
f 105 114 113
f 105 113 106
f 106 113 111
f 106 111 107
f 107 111 117
f 107 117 109
f 107 109 108
f 111 112 117

