# https://github.com/mikedh/trimesh
v -0.00593603 -0.02967169 0.18164823
v 0.00307515 -0.02853331 0.19584411
v -0.00593603 -0.02946664 0.18286145
v -0.00593603 -0.02536210 0.18164823
v 0.00234953 -0.02679863 0.18164823
v 0.00777480 -0.02823869 0.19584411
v 0.00593544 -0.02872893 0.19584411
v 0.00512334 -0.02878785 0.19584411
v -0.00593603 -0.02659593 0.19584411
v -0.00593603 -0.02264105 0.19212664
v -0.00557111 -0.02515469 0.18164823
v 0.00337468 -0.02620115 0.18164823
v 0.01073634 -0.02091344 0.18164823
v 0.01215805 -0.02033718 0.18509749
v 0.00871768 -0.02716513 0.19584411
v 0.00355819 -0.02607859 0.18164823
v 0.00490396 -0.02517001 0.18164823
v -0.00593603 -0.02192691 0.19584411
v -0.00593603 -0.02226041 0.19360946
v 0.00867549 -0.01763499 0.18164823
v 0.01186063 -0.01954526 0.18164823
v 0.01197031 -0.02007203 0.18347570
v 0.01266007 -0.01904678 0.18347570
v 0.01278874 -0.01958297 0.18567838
v 0.01231625 -0.02051866 0.18646357
v 0.01344475 -0.02133651 0.19584411
v -0.00593603 -0.02193045 0.19577462
v 0.01050009 -0.01763499 0.19584411
v -0.00593603 -0.02209896 0.19450999
v 0.01278241 -0.01763499 0.18164823
v 0.01197875 -0.01936849 0.18164823
v 0.01245335 -0.01872506 0.18184835
v 0.01418725 -0.01763499 0.18782687
v 0.01428428 -0.01826075 0.18962377
v 0.01320640 -0.01947573 0.18757534
v 0.01434545 -0.01844105 0.19067717
v 0.01561317 -0.01763499 0.19584411
v 0.01323171 -0.01763499 0.18347570
v 0.01242804 -0.01867557 0.18164823
v 0.01224031 -0.01897018 0.18164823
v 0.01369577 -0.01763499 0.18554081
f 1 2 3
f 1 3 9
f 1 9 18
f 1 18 27
f 1 27 29
f 1 29 19
f 1 19 10
f 1 10 4
f 1 4 11
f 1 11 20
f 1 20 30
f 1 30 39
f 1 39 40
f 1 40 31
f 1 31 21
f 1 21 13
f 1 13 17
f 1 17 16
f 1 16 12
f 1 12 5
f 1 5 6
f 1 6 7
f 1 7 8
f 1 8 2
f 2 9 3
f 2 8 7
f 2 7 6
f 2 6 15
f 2 15 26
f 2 26 37
f 2 37 28
f 2 28 18
f 2 18 9
f 4 10 11
f 5 12 6
f 6 13 14
f 6 14 15
f 6 12 16
f 6 16 17
f 6 17 13
f 10 19 20
f 10 20 11
f 13 21 22
f 13 22 14
f 14 23 24
f 14 24 25
f 14 25 15
f 14 22 23
f 15 25 26
f 18 28 20
f 18 20 27
f 19 29 20
f 20 28 37
f 20 37 33
f 20 33 41
f 20 41 38
f 20 38 30
f 20 29 27
f 21 31 23
f 21 23 22
f 23 32 33
f 23 33 34
f 23 34 24
f 23 31 32
f 24 35 25
f 24 34 35
f 25 35 26
f 26 35 34
f 26 34 36
f 26 36 37
f 30 38 39
f 31 40 32
f 32 40 39
f 32 39 41
f 32 41 33
f 33 37 34
f 34 37 36
f 38 41 39

