# https://github.com/mikedh/trimesh
v 0.01966776 0.01009866 0.19584549
v 0.01951237 0.01140964 0.19584549
v 0.01485076 0.01009866 0.19584549
v 0.01953242 0.01009866 0.18757405
v 0.01943217 0.01200582 0.19584549
v -0.00593603 0.01981241 0.19584549
v -0.00593603 0.01308259 0.17937147
v -0.00593603 0.01283925 0.17858508
v -0.00593603 0.01265827 0.17736819
v -0.00593603 0.01009866 0.14208394
v 0.01943468 0.01009866 0.18552484
v 0.01849985 0.01342935 0.19584549
v 0.01923919 0.01009866 0.18346989
v 0.01892591 0.01101117 0.18552484
v 0.01826677 0.01203624 0.18552484
v -0.00593603 0.02563276 0.19584549
v -0.00593603 0.01009866 0.13720487
v 0.01653746 0.01449243 0.18757405
v 0.01487833 0.01685889 0.19584549
v 0.01645225 0.01440574 0.18626530
v 0.01882065 0.01079825 0.18346989
v 0.01891839 0.01009866 0.18142068
v 0.01810387 0.01182331 0.18346989
v 0.01707881 0.01309476 0.18346989
v 0.01710387 0.01348258 0.18555928
v -0.00523428 0.02563428 0.19584549
v -0.00512400 0.01974093 0.15683020
v -0.00593603 0.01934095 0.15477524
v -0.00593603 0.01029789 0.13728523
v -0.00579818 0.01009866 0.13722209
v 0.00906134 0.02140476 0.19584549
v 0.01516905 0.01563764 0.18777494
v 0.01434951 0.01640111 0.18859578
v 0.01631441 0.01426886 0.18489917
v 0.01512895 0.01497454 0.18346989
v 0.01552745 0.01502473 0.18555928
v 0.01865023 0.01052298 0.18142068
v 0.01871790 0.01009866 0.18043339
v 0.01851489 0.01033439 0.18016361
v 0.01786076 0.01154804 0.18142068
v 0.01615401 0.01411982 0.18346989
v 0.01683571 0.01281188 0.18142068
v -0.00320171 0.02553390 0.19584549
v -0.00307390 0.01997058 0.16092861
v -0.00512400 0.01935463 0.15477524
v -0.00110148 0.02540463 0.19584549
v -0.00012906 0.02525711 0.19584549
v 0.00102632 0.02507004 0.19584549
v -0.00593603 0.01892119 0.15280640
v -0.00593603 0.01032983 0.13730245
v -0.00513152 0.01009866 0.13742874
v 0.00717414 0.02260016 0.19584549
v 0.01416154 0.01630682 0.18722964
v 0.01357759 0.01599961 0.18346989
v 0.01483572 0.01473881 0.18142068
v 0.01862516 0.01009866 0.17999714
v 0.01659511 0.01252595 0.17976180
v 0.01830186 0.01009866 0.17880894
v 0.01745475 0.01130774 0.17927963
v 0.01586078 0.01383694 0.18142068
v 0.00201127 0.01638591 0.15177319
v 0.00060026 0.01662012 0.15067683
v -0.00107141 0.01667335 0.14872521
v -0.00178819 0.01650758 0.14735333
v -0.00307390 0.01717676 0.14862763
v -0.00587838 0.01859268 0.15140582
v -0.00593603 0.01861701 0.15146322
v 0.00317918 0.02427159 0.19584549
v -0.00593603 0.01036785 0.13732541
v -0.00521673 0.01112372 0.13811755
v -0.00467789 0.01009866 0.13759520
v 0.00580573 0.02321459 0.19584549
v 0.00361276 0.01615930 0.15477524
v 0.00231453 0.01652126 0.15313932
v 0.01042724 0.01449091 0.16758136
v 0.00526438 0.01504603 0.15475803
v 0.01638207 0.01228262 0.17839566
v 0.01828933 0.01009866 0.17876877
v 0.01228186 0.01228414 0.16610616
v 0.01135455 0.01338676 0.16684089
v 0.00302881 0.01599200 0.15256532
v 0.00324936 0.01515705 0.15053333
v 0.00162531 0.01620036 0.15067683
v 0.00015415 0.01646803 0.14947142
v 0.00521425 0.02346097 0.19584549
v -0.00107141 0.01584752 0.14663008
v -0.00266037 0.01619428 0.14598719
v -0.00402627 0.01642393 0.14550502
v -0.00323430 0.01663229 0.14663008
v -0.00042229 0.01620492 0.14810528
v -0.00593603 0.01859724 0.15138860
v -0.00593603 0.01261416 0.13911058
v -0.00512400 0.01250314 0.13920816
v -0.00407389 0.01231303 0.13939184
v -0.00326437 0.01121041 0.13899004
v -0.00178569 0.01048343 0.13924260
v -0.00315660 0.01009866 0.13835863
v 0.00626938 0.01446506 0.15542962
v 0.00474057 0.01487569 0.15272604
v 0.01783570 0.01009866 0.17732226
v 0.01706127 0.01103551 0.17732226
v 0.01208637 0.01206209 0.16502702
v 0.00804380 0.01212901 0.15418976
v 0.00604131 0.01423845 0.15406348
v 0.00437967 0.01459433 0.15111882
v 0.00404634 0.01430080 0.14975268
v 0.00265788 0.01477683 0.14862763
v 0.00091354 0.01580342 0.14872521
v 0.00099624 0.01482246 0.14663008
v 0.00029199 0.01451524 0.14525246
v -0.00109647 0.01479813 0.14455217
v -0.00182829 0.01445441 0.14334101
v -0.00323430 0.01573954 0.14470141
v -0.00430195 0.01429168 0.14153863
v -0.00504130 0.01495021 0.14232502
v -0.00593603 0.01519507 0.14238816
v -0.00512400 0.01603003 0.14429387
v -0.00593603 0.01611519 0.14412740
v -0.00593603 0.01655472 0.14514914
v -0.00593603 0.01302023 0.13952960
v -0.00504130 0.01365748 0.14052838
v -0.00326437 0.01287271 0.14043080
v -0.00157767 0.01261568 0.14111961
v -0.00270798 0.01185069 0.13975347
v -0.00099873 0.01130014 0.14040210
v 0.00050001 0.01074958 0.14105646
v -0.00107893 0.01009866 0.13947220
v -0.00158519 0.01009866 0.13916224
v 0.01710387 0.01009866 0.17523288
v 0.01232447 0.01029181 0.16188146
v 0.01250492 0.01056860 0.16297781
v 0.01046233 0.01055948 0.15723774
v 0.00856510 0.01075111 0.15272604
v 0.00774556 0.01177617 0.15272604
v 0.00672301 0.01291986 0.15272604
v 0.00576563 0.01394492 0.15272604
v 0.00638467 0.01255485 0.15124510
v 0.00603881 0.01216703 0.14987896
v 0.00466037 0.01292594 0.14862763
v 0.00427692 0.01250010 0.14731889
v 0.00368294 0.01395100 0.14862763
v 0.00223182 0.01448635 0.14734759
v 0.00166040 0.01408940 0.14598145
v -0.00046239 0.01410917 0.14388632
v -0.00101878 0.01336243 0.14248000
v -0.00307390 0.01403009 0.14190600
v -0.00307390 0.01470383 0.14293347
v -0.00566786 0.01447570 0.14128033
v -0.00593603 0.01466429 0.14149271
v -0.00593603 0.01372135 0.14031600
v 0.00056517 0.01274344 0.14298513
v -0.00021177 0.01211684 0.14161899
v 0.00070552 0.01009866 0.14080390
v -0.00055261 0.01009866 0.13985105
v 0.00121679 0.01146439 0.14230206
v 0.00166291 0.01009866 0.14153863
v 0.01244727 0.01009866 0.16208237
v 0.01022173 0.01012147 0.15587160
v 0.00830445 0.01040587 0.15147470
v 0.00650998 0.01070244 0.14862763
v 0.00568543 0.01172750 0.14862763
v 0.00502127 0.01115109 0.14674488
v 0.00384835 0.01199974 0.14595275
v 0.00303883 0.01329551 0.14664730
v 0.00619169 0.01030397 0.14753701
v 0.00247994 0.01272215 0.14499990
v 0.00193107 0.01217920 0.14363376
v 0.00111153 0.01341566 0.14444311
v -0.00593603 0.01450916 0.14123441
v 0.00181579 0.01009866 0.14167639
v 0.00252505 0.01081346 0.14299087
v 0.01022423 0.01009866 0.15586586
v 0.00834455 0.01009866 0.15137712
v 0.00623680 0.01009866 0.14745091
v 0.00439722 0.01063400 0.14513192
v 0.00318670 0.01140660 0.14437997
v 0.00494358 0.01009866 0.14548780
v 0.00360775 0.01009866 0.14360506
v 0.00454007 0.01009866 0.14488510
v 0.00380324 0.01009866 0.14384614
f 1 2 5
f 1 5 12
f 1 12 19
f 1 19 31
f 1 31 52
f 1 52 72
f 1 72 85
f 1 85 68
f 1 68 48
f 1 48 47
f 1 47 46
f 1 46 43
f 1 43 26
f 1 26 16
f 1 16 6
f 1 6 3
f 1 3 10
f 1 10 17
f 1 17 30
f 1 30 51
f 1 51 71
f 1 71 97
f 1 97 128
f 1 128 127
f 1 127 154
f 1 154 153
f 1 153 156
f 1 156 170
f 1 170 178
f 1 178 180
f 1 180 179
f 1 179 177
f 1 177 174
f 1 174 173
f 1 173 172
f 1 172 157
f 1 157 129
f 1 129 100
f 1 100 78
f 1 78 58
f 1 58 56
f 1 56 38
f 1 38 22
f 1 22 13
f 1 13 11
f 1 11 4
f 1 4 2
f 2 4 5
f 3 6 7
f 3 7 8
f 3 8 9
f 3 9 10
f 4 11 5
f 5 11 13
f 5 13 14
f 5 14 15
f 5 15 12
f 6 16 28
f 6 28 49
f 6 49 67
f 6 67 91
f 6 91 119
f 6 119 118
f 6 118 116
f 6 116 149
f 6 149 169
f 6 169 150
f 6 150 120
f 6 120 92
f 6 92 69
f 6 69 50
f 6 50 29
f 6 29 17
f 6 17 10
f 6 10 9
f 6 9 8
f 6 8 7
f 12 18 19
f 12 15 20
f 12 20 18
f 13 21 14
f 13 22 21
f 14 21 15
f 15 21 23
f 15 23 24
f 15 24 25
f 15 25 20
f 16 26 27
f 16 27 28
f 17 29 30
f 18 20 19
f 19 20 32
f 19 32 33
f 19 33 31
f 20 25 24
f 20 24 34
f 20 34 35
f 20 35 36
f 20 36 32
f 21 22 37
f 21 37 23
f 22 38 39
f 22 39 37
f 23 37 40
f 23 40 24
f 24 41 34
f 24 40 42
f 24 42 41
f 26 43 27
f 27 44 45
f 27 45 28
f 27 43 46
f 27 46 47
f 27 47 48
f 27 48 44
f 28 45 49
f 29 50 51
f 29 51 30
f 31 33 53
f 31 53 35
f 31 35 54
f 31 54 52
f 32 36 33
f 33 36 35
f 33 35 53
f 34 41 35
f 35 41 55
f 35 55 54
f 37 39 40
f 38 56 39
f 39 57 42
f 39 42 40
f 39 56 58
f 39 58 59
f 39 59 57
f 41 42 60
f 41 60 55
f 42 57 60
f 44 61 62
f 44 62 45
f 44 48 61
f 45 62 63
f 45 63 64
f 45 64 65
f 45 65 66
f 45 66 67
f 45 67 49
f 48 68 61
f 50 69 51
f 51 69 70
f 51 70 71
f 52 54 73
f 52 73 74
f 52 74 72
f 54 55 73
f 55 60 75
f 55 75 76
f 55 76 73
f 57 59 77
f 57 77 60
f 58 78 77
f 58 77 59
f 60 77 79
f 60 79 80
f 60 80 75
f 61 74 73
f 61 73 81
f 61 81 82
f 61 82 83
f 61 83 84
f 61 84 62
f 61 68 85
f 61 85 74
f 62 84 63
f 63 84 64
f 64 86 87
f 64 87 88
f 64 88 89
f 64 89 65
f 64 84 90
f 64 90 86
f 65 89 66
f 66 91 67
f 66 89 88
f 66 88 91
f 69 92 93
f 69 93 70
f 70 93 94
f 70 94 71
f 71 94 95
f 71 95 96
f 71 96 97
f 72 74 85
f 73 76 81
f 75 80 98
f 75 98 76
f 76 98 99
f 76 99 81
f 77 78 100
f 77 100 101
f 77 101 79
f 79 102 103
f 79 103 104
f 79 104 98
f 79 98 80
f 79 101 100
f 79 100 102
f 81 99 105
f 81 105 82
f 82 105 106
f 82 106 107
f 82 107 83
f 83 107 108
f 83 108 84
f 84 108 90
f 86 90 109
f 86 109 110
f 86 110 111
f 86 111 87
f 87 111 112
f 87 112 113
f 87 113 88
f 88 113 114
f 88 114 115
f 88 115 116
f 88 116 117
f 88 117 118
f 88 118 119
f 88 119 91
f 90 108 109
f 92 120 93
f 93 120 121
f 93 121 94
f 94 121 114
f 94 114 122
f 94 122 123
f 94 123 124
f 94 124 95
f 95 124 96
f 96 124 125
f 96 125 126
f 96 126 127
f 96 127 128
f 96 128 97
f 98 104 99
f 99 104 105
f 100 129 130
f 100 130 131
f 100 131 102
f 102 131 132
f 102 132 103
f 103 132 133
f 103 133 134
f 103 134 135
f 103 135 104
f 104 135 136
f 104 136 105
f 105 136 106
f 106 136 137
f 106 137 138
f 106 138 139
f 106 139 140
f 106 140 141
f 106 141 142
f 106 142 107
f 107 142 108
f 108 142 109
f 109 142 110
f 110 143 144
f 110 144 111
f 110 142 143
f 111 144 112
f 112 145 146
f 112 146 147
f 112 147 113
f 112 144 145
f 113 147 114
f 114 148 115
f 114 147 146
f 114 146 122
f 114 121 148
f 115 148 149
f 115 149 116
f 116 118 117
f 120 150 121
f 121 150 148
f 122 146 123
f 123 146 145
f 123 145 151
f 123 151 152
f 123 152 125
f 123 125 124
f 125 152 126
f 126 153 154
f 126 154 127
f 126 152 155
f 126 155 156
f 126 156 153
f 129 157 130
f 130 157 158
f 130 158 132
f 130 132 131
f 132 158 133
f 133 159 134
f 133 158 159
f 134 159 137
f 134 137 135
f 135 137 136
f 137 159 138
f 138 160 161
f 138 161 140
f 138 140 139
f 138 159 160
f 140 162 163
f 140 163 164
f 140 164 141
f 140 161 165
f 140 165 162
f 141 164 142
f 142 164 166
f 142 166 143
f 143 166 167
f 143 167 168
f 143 168 144
f 144 168 151
f 144 151 145
f 148 169 149
f 148 150 169
f 151 167 152
f 151 168 167
f 152 167 155
f 155 170 156
f 155 167 171
f 155 171 170
f 157 172 158
f 158 172 173
f 158 173 159
f 159 173 174
f 159 174 165
f 159 165 160
f 160 165 161
f 162 165 175
f 162 175 163
f 163 175 176
f 163 176 167
f 163 167 166
f 163 166 164
f 165 174 177
f 165 177 175
f 167 176 171
f 170 171 178
f 171 176 178
f 175 177 179
f 175 179 180
f 175 180 176
f 176 180 178

