# https://github.com/mikedh/trimesh
v 0.03378602 -0.00772364 0.19782562
v 0.03348846 -0.00922737 0.19782562
v 0.03271612 -0.01216557 0.19698965
v 0.03289667 -0.01079749 0.19673195
v 0.03305047 -0.00922737 0.19665490
v 0.03317752 -0.00772364 0.19662391
v 0.03371581 -0.00772364 0.19822236
v 0.03284986 -0.01244843 0.19891753
v 0.03284986 -0.01244843 0.19835608
v 0.03302038 -0.01140072 0.19773441
v 0.03093742 -0.01685861 0.19782562
v 0.03082374 -0.01658731 0.19674789
v 0.03101766 -0.01537508 0.19666818
v 0.03141553 -0.01332585 0.19661682
v 0.03177328 -0.00922737 0.19646628
v 0.03177328 -0.00772364 0.19642820
v 0.03340487 -0.00772364 0.19940371
v 0.03323770 -0.00922737 0.19931781
v 0.03300032 -0.01127661 0.19909819
v 0.03087389 -0.00877134 0.20313373
v 0.03072010 -0.01013943 0.20285655
v 0.02891130 -0.01488731 0.20322317
v 0.03092739 -0.01682398 0.19905745
v 0.02886115 -0.02078391 0.19902911
v 0.02885446 -0.02077237 0.19782562
v 0.02874078 -0.02058187 0.19676826
v 0.02897148 -0.01947644 0.19668767
v 0.02971038 -0.01733196 0.19662922
v 0.02972375 -0.01537508 0.19649816
v 0.02972375 -0.01332585 0.19644237
v 0.01687159 -0.01640836 0.19584637
v 0.01962658 -0.00772364 0.19584637
v 0.03097085 -0.00772364 0.20326391
v 0.02951311 -0.01127661 0.20370669
v 0.02918211 -0.01332585 0.20349593
v 0.02732985 -0.01742720 0.20359423
v 0.02694201 -0.01901464 0.20328871
v 0.02815234 -0.02179987 0.19782562
v 0.02473201 -0.02270904 0.20310628
v 0.02707575 -0.02313043 0.19922040
v 0.02465845 -0.02671227 0.19891310
v 0.02712590 -0.02322568 0.19782562
v 0.02634020 -0.02425030 0.19782562
v 0.02437426 -0.02643519 0.19718624
v 0.02685843 -0.02287067 0.19669741
v 0.02759398 -0.02136982 0.19665136
v 0.02767423 -0.01947644 0.19652472
v 0.02562470 -0.02152568 0.19647867
v 0.01344791 -0.02133807 0.19584637
v 0.01581841 -0.00772364 0.19584637
v 0.03074350 -0.00772364 0.20343748
v 0.02991098 -0.00936303 0.20375363
v 0.02977056 -0.00772364 0.20412911
v 0.02767423 -0.01332585 0.20440364
v 0.02783805 -0.01549342 0.20378108
v 0.02562470 -0.01742720 0.20450370
v 0.02577181 -0.01960921 0.20378728
v 0.02513990 -0.02152568 0.20341534
v 0.02465845 -0.02671227 0.19855356
v 0.02350162 -0.02346524 0.20350655
v 0.02276941 -0.02483043 0.20317889
v 0.02263233 -0.02878171 0.19894410
v 0.02520677 -0.02569919 0.19785219
v 0.02263233 -0.02878171 0.19850840
v 0.02229798 -0.02846710 0.19714197
v 0.02300679 -0.02710191 0.19668855
v 0.02494933 -0.02506710 0.19668058
v 0.02562805 -0.02356048 0.19660177
v 0.02364539 -0.02569919 0.19660000
v 0.02357183 -0.02357491 0.19647336
v 0.00777745 -0.02823909 0.19584637
v 0.00872030 -0.02716541 0.19584637
v 0.01607920 -0.00772364 0.19770342
v -0.00037050 -0.02241176 0.19584637
v -0.00037050 -0.02239155 0.19785131
v -0.00037050 -0.02248680 0.19935500
v 0.02917877 -0.00772364 0.20439566
v 0.02767423 -0.01127661 0.20464982
v 0.02562470 -0.01537508 0.20472421
v 0.02357183 -0.01947644 0.20468702
v 0.02357183 -0.02152568 0.20428763
v 0.02152231 -0.02357491 0.20440452
v 0.02145878 -0.02555777 0.20355083
v 0.02073326 -0.02685369 0.20317446
v 0.02050925 -0.03075590 0.19886086
v 0.02050925 -0.03075590 0.19882012
v 0.02003448 -0.03035760 0.19745369
v 0.01866702 -0.03087135 0.19673814
v 0.02093052 -0.02899240 0.19670183
v 0.02157915 -0.02773977 0.19661594
v 0.01488894 -0.03296677 0.19671600
v 0.01332755 -0.03322364 0.19667350
v 0.00922516 -0.03499291 0.19672309
v 0.00593856 -0.02872975 0.19584637
v 0.01939923 -0.02969376 0.19664604
v 0.01742326 -0.03125233 0.19668235
v 0.01646369 -0.00772364 0.19996339
v -0.00037050 -0.02262534 0.20037872
v -0.00037050 -0.02670072 0.19584637
v 0.02767423 -0.00772364 0.20484376
v 0.02767423 -0.00922737 0.20478708
v 0.02562470 -0.01332585 0.20480391
v 0.02357183 -0.01742720 0.20480923
v 0.02152231 -0.02152568 0.20476495
v 0.01947278 -0.02357491 0.20476495
v 0.01947278 -0.02562415 0.20439390
v 0.01929224 -0.02759257 0.20342685
v 0.01848981 -0.02872975 0.20298761
v 0.01674788 -0.03299274 0.19909376
v 0.01939923 -0.03111380 0.19801248
v 0.01674788 -0.03299274 0.19825601
v 0.01625640 -0.03266660 0.19688958
v 0.01044217 -0.03488612 0.19677534
v 0.00102706 -0.03656592 0.19699850
v 0.00717563 -0.03515743 0.19667616
v 0.00512611 -0.02878748 0.19584637
v 0.00512611 -0.03529885 0.19666553
v 0.00307658 -0.03542008 0.19666110
v 0.01656734 -0.00772364 0.20030876
v -0.00037050 -0.02365284 0.20166545
v 0.01707888 -0.00772364 0.20116333
v -0.00037050 -0.03557882 0.19666110
v 0.00109727 -0.02777441 0.19584637
v 0.02712924 -0.00772364 0.20486679
v 0.02152231 -0.01947644 0.20484465
v 0.01947278 -0.02152568 0.20483225
v 0.01742326 -0.02357491 0.20480834
v 0.01537708 -0.02562415 0.20477557
v 0.01742326 -0.02562415 0.20472864
v 0.01537708 -0.02767339 0.20461706
v 0.01742326 -0.02767339 0.20416365
v 0.01742326 -0.02907899 0.20331084
v 0.01469167 -0.03093485 0.20317269
v 0.01266555 -0.03499291 0.19905834
v 0.01266555 -0.03499291 0.19838619
v 0.01180963 -0.03456575 0.19701887
v 0.01118775 -0.03517475 0.19775212
v 0.00620604 -0.03690938 0.19880152
v 0.00512611 -0.03699886 0.19852700
v 0.00512611 -0.03632636 0.19750239
v 0.00307658 -0.03644470 0.19715614
v 0.00102706 -0.03720089 0.19802399
v -0.00037050 -0.03660344 0.19696928
v 0.00307658 -0.03712874 0.19818162
v 0.00102706 -0.03554130 0.19666110
v 0.00307658 -0.02853349 0.19584637
v -0.00037050 -0.02530378 0.20269094
v 0.01999102 -0.00772364 0.20335335
v 0.01850987 -0.00772364 0.20232963
v 0.01753693 -0.00772364 0.20159638
v 0.02562470 -0.00772364 0.20489247
v 0.01332755 -0.02562415 0.20474370
v 0.01127803 -0.02767339 0.20470384
v 0.01332755 -0.02767339 0.20472864
v 0.01127803 -0.02972262 0.20455772
v 0.01332755 -0.02972262 0.20432217
v 0.01537708 -0.02980633 0.20368987
v 0.01332755 -0.03126099 0.20345342
v 0.01046223 -0.03287441 0.20304783
v 0.01127803 -0.03522670 0.19931604
v 0.00620604 -0.03690938 0.19887148
v 0.00512611 -0.03699886 0.19901140
v 0.00102706 -0.03720089 0.19928682
v -0.00037050 -0.03720667 0.19799388
v -0.00037050 -0.03680548 0.19729605
v 0.00307658 -0.03712874 0.19919914
v -0.00037050 -0.02632840 0.20307617
v 0.02152231 -0.00772364 0.20419199
v 0.02108097 -0.00772364 0.20396262
v 0.02507638 -0.00772364 0.20486325
v 0.01127803 -0.02562415 0.20464274
v 0.00922516 -0.02767339 0.20459049
v 0.00717563 -0.02972262 0.20445677
v 0.00922516 -0.02972262 0.20456747
v 0.00717563 -0.03177475 0.20422829
v 0.00922516 -0.03177475 0.20404144
v 0.01119778 -0.03186711 0.20359423
v 0.00922516 -0.03308510 0.20325771
v 0.00386229 -0.03480819 0.20287780
v 0.00249817 -0.03490055 0.20300621
v 0.00102706 -0.03492076 0.20302392
v -0.00037050 -0.03720667 0.19929213
v -0.00037050 -0.03177475 0.20359068
v 0.00512611 -0.02767339 0.20410786
v 0.02357183 -0.00772364 0.20474370
v 0.02302685 -0.00772364 0.20463566
v 0.00717563 -0.02767339 0.20439832
v 0.00512611 -0.02972262 0.20424423
v 0.00512611 -0.03177475 0.20419730
v 0.00102706 -0.03382398 0.20347025
v 0.00314011 -0.03400293 0.20341711
v 0.00512611 -0.03363638 0.20353666
v 0.00717563 -0.03338527 0.20347644
v -0.00037050 -0.03489190 0.20299381
v -0.00037050 -0.03393655 0.20334007
v 0.00307658 -0.03177475 0.20397502
v -0.00037050 -0.03485437 0.20300886
f 1 2 3
f 1 3 4
f 1 4 5
f 1 5 6
f 1 6 16
f 1 16 32
f 1 32 50
f 1 50 73
f 1 73 97
f 1 97 119
f 1 119 121
f 1 121 150
f 1 150 149
f 1 149 148
f 1 148 169
f 1 169 168
f 1 168 186
f 1 186 185
f 1 185 170
f 1 170 151
f 1 151 124
f 1 124 100
f 1 100 77
f 1 77 53
f 1 53 51
f 1 51 33
f 1 33 17
f 1 17 7
f 1 7 8
f 1 8 2
f 2 8 9
f 2 9 10
f 2 10 3
f 3 10 9
f 3 9 11
f 3 11 12
f 3 12 4
f 4 12 13
f 4 13 5
f 5 13 14
f 5 14 15
f 5 15 6
f 6 15 16
f 7 17 18
f 7 18 19
f 7 19 8
f 8 19 20
f 8 20 21
f 8 21 22
f 8 22 23
f 8 23 11
f 8 11 9
f 11 23 24
f 11 24 25
f 11 25 26
f 11 26 12
f 12 26 27
f 12 27 13
f 13 27 28
f 13 28 29
f 13 29 14
f 14 29 15
f 15 29 30
f 15 30 16
f 16 30 31
f 16 31 32
f 17 33 18
f 18 33 20
f 18 20 19
f 20 33 34
f 20 34 35
f 20 35 21
f 21 35 22
f 22 35 36
f 22 36 37
f 22 37 23
f 23 37 24
f 24 38 25
f 24 37 39
f 24 39 40
f 24 40 41
f 24 41 38
f 25 38 26
f 26 38 42
f 26 42 43
f 26 43 44
f 26 44 45
f 26 45 46
f 26 46 27
f 27 46 47
f 27 47 28
f 28 47 29
f 29 47 48
f 29 48 31
f 29 31 30
f 31 48 49
f 31 49 72
f 31 72 71
f 31 71 94
f 31 94 116
f 31 116 146
f 31 146 123
f 31 123 99
f 31 99 74
f 31 74 50
f 31 50 32
f 33 51 34
f 34 52 53
f 34 53 54
f 34 54 35
f 34 51 52
f 35 54 55
f 35 55 36
f 36 56 57
f 36 57 37
f 36 55 54
f 36 54 56
f 37 57 58
f 37 58 39
f 38 41 59
f 38 59 42
f 39 60 61
f 39 61 41
f 39 41 40
f 39 58 60
f 41 61 62
f 41 62 64
f 41 64 59
f 42 59 43
f 43 59 63
f 43 63 44
f 44 63 59
f 44 59 64
f 44 64 65
f 44 65 66
f 44 66 67
f 44 67 45
f 45 67 68
f 45 68 46
f 46 68 47
f 47 68 48
f 48 68 69
f 48 69 70
f 48 70 71
f 48 71 72
f 48 72 49
f 50 74 75
f 50 75 76
f 50 76 73
f 51 53 52
f 53 77 78
f 53 78 54
f 54 78 56
f 56 79 80
f 56 80 81
f 56 81 57
f 56 78 79
f 57 81 58
f 58 81 60
f 60 81 82
f 60 82 83
f 60 83 61
f 61 83 84
f 61 84 62
f 62 84 85
f 62 85 86
f 62 86 64
f 64 86 65
f 65 86 87
f 65 87 88
f 65 88 89
f 65 89 66
f 66 69 67
f 66 89 90
f 66 90 69
f 67 69 68
f 69 90 71
f 69 71 70
f 71 91 92
f 71 92 93
f 71 93 94
f 71 90 95
f 71 95 96
f 71 96 91
f 73 76 98
f 73 98 97
f 74 99 122
f 74 122 143
f 74 143 165
f 74 165 164
f 74 164 182
f 74 182 194
f 74 194 197
f 74 197 195
f 74 195 183
f 74 183 167
f 74 167 147
f 74 147 120
f 74 120 98
f 74 98 76
f 74 76 75
f 77 100 101
f 77 101 78
f 78 101 79
f 79 102 103
f 79 103 80
f 79 101 102
f 80 103 104
f 80 104 82
f 80 82 81
f 82 104 105
f 82 105 106
f 82 106 83
f 83 106 107
f 83 107 84
f 84 107 108
f 84 108 85
f 85 108 109
f 85 109 111
f 85 111 86
f 86 110 87
f 86 111 110
f 87 110 112
f 87 112 88
f 88 95 89
f 88 112 91
f 88 91 96
f 88 96 95
f 89 95 90
f 91 113 93
f 91 93 92
f 91 112 113
f 93 113 114
f 93 114 115
f 93 115 94
f 94 115 117
f 94 117 118
f 94 118 116
f 97 98 119
f 98 120 121
f 98 121 119
f 99 123 122
f 100 124 103
f 100 103 102
f 100 102 101
f 103 124 125
f 103 125 104
f 104 125 105
f 105 125 126
f 105 126 127
f 105 127 128
f 105 128 129
f 105 129 106
f 106 129 130
f 106 130 131
f 106 131 107
f 107 131 132
f 107 132 108
f 108 132 133
f 108 133 109
f 109 133 134
f 109 134 135
f 109 135 111
f 110 111 112
f 111 135 112
f 112 135 136
f 112 136 113
f 113 136 137
f 113 137 138
f 113 138 139
f 113 139 140
f 113 140 141
f 113 141 114
f 114 142 143
f 114 143 115
f 114 141 144
f 114 144 142
f 115 143 117
f 116 118 145
f 116 145 122
f 116 122 146
f 117 143 118
f 118 143 145
f 120 147 148
f 120 148 149
f 120 149 150
f 120 150 121
f 122 145 143
f 122 123 146
f 124 151 125
f 125 151 126
f 126 151 127
f 127 151 152
f 127 152 128
f 128 152 153
f 128 153 154
f 128 154 129
f 129 154 130
f 130 154 155
f 130 155 156
f 130 156 131
f 131 156 157
f 131 157 132
f 132 157 133
f 133 157 158
f 133 158 159
f 133 159 134
f 134 159 160
f 134 160 161
f 134 161 138
f 134 138 135
f 135 138 137
f 135 137 136
f 138 161 162
f 138 162 139
f 139 162 166
f 139 166 144
f 139 144 140
f 140 144 141
f 142 163 182
f 142 182 164
f 142 164 165
f 142 165 143
f 142 144 166
f 142 166 163
f 147 167 168
f 147 168 169
f 147 169 148
f 151 170 153
f 151 153 152
f 153 171 172
f 153 172 173
f 153 173 174
f 153 174 154
f 153 170 171
f 154 174 155
f 155 174 175
f 155 175 176
f 155 176 156
f 156 158 157
f 156 176 177
f 156 177 158
f 158 177 178
f 158 178 159
f 159 178 160
f 160 178 179
f 160 179 161
f 161 179 162
f 162 179 180
f 162 180 166
f 163 166 180
f 163 180 181
f 163 181 182
f 167 183 184
f 167 184 185
f 167 185 186
f 167 186 168
f 170 185 172
f 170 172 171
f 172 185 187
f 172 187 173
f 173 187 188
f 173 188 189
f 173 189 174
f 174 189 175
f 175 189 190
f 175 190 191
f 175 191 192
f 175 192 193
f 175 193 176
f 176 178 177
f 176 193 178
f 178 193 179
f 179 193 180
f 180 193 192
f 180 192 191
f 180 191 181
f 181 191 190
f 181 190 194
f 181 194 182
f 183 195 196
f 183 196 188
f 183 188 184
f 184 188 187
f 184 187 185
f 188 196 189
f 189 196 195
f 189 195 190
f 190 195 197
f 190 197 194

