# https://github.com/mikedh/trimesh
v -0.00037050 0.02022580 0.19584650
v 0.01340554 0.01237320 0.19584650
v 0.01340554 0.00332407 0.20205029
v 0.01340554 0.00178516 0.20329185
v 0.01340554 0.00105521 0.20397436
v 0.00813434 0.00811390 0.20397436
v 0.00813165 0.00811390 0.20505835
v 0.00399452 0.01418302 0.20397436
v 0.00181134 0.01799833 0.20343638
v -0.00037050 0.02024462 0.19592478
v -0.00037050 0.02529030 0.19584650
v 0.01340554 0.01793812 0.19584650
v 0.01340554 0.00236836 0.20552606
v 0.01002491 0.00584880 0.20518079
v 0.00929538 0.00732751 0.20531931
v 0.00776756 0.00922764 0.20523600
v 0.00590127 0.01185395 0.20516774
v 0.00408217 0.01431847 0.20501518
v -0.00037050 0.02225762 0.20265350
v -0.00037050 0.02209207 0.20232731
v -0.00037050 0.03587458 0.19642563
v 0.00512589 0.03587458 0.19643164
v 0.00717423 0.03587458 0.19644168
v -0.00012912 0.02525644 0.19584650
v 0.01122370 0.01970280 0.19584650
v 0.01332463 0.03382394 0.19640455
v 0.01340554 0.03374117 0.19640455
v 0.01340554 0.00512637 0.20585326
v 0.01332463 0.00512637 0.20585426
v 0.01127494 0.00717700 0.20579806
v 0.00922391 0.00922764 0.20568063
v 0.00707444 0.01121431 0.20540863
v 0.00518118 0.01351327 0.20522195
v -0.00011024 0.02222752 0.20311721
v 0.00395137 0.01537577 0.20507841
v 0.00260829 0.01947704 0.20481444
v -0.00037050 0.02372505 0.20329285
v -0.00037050 0.02357454 0.20324066
v -0.00037050 0.03677761 0.19654807
v -0.00037050 0.03720655 0.19660629
v 0.00102518 0.03721031 0.19660929
v 0.00307621 0.03719526 0.19661331
v 0.00512589 0.03715387 0.19661933
v 0.00717423 0.03710119 0.19663640
v 0.01332463 0.03522740 0.19660528
v 0.00102518 0.02506831 0.19584650
v 0.00906344 0.02140350 0.19584650
v 0.00317869 0.02427063 0.19584650
v 0.01340554 0.03517473 0.19660328
v 0.01340554 0.03382394 0.19641157
v 0.00717423 0.02260002 0.19584650
v 0.00580552 0.02321333 0.19584650
v 0.00521354 0.02345790 0.19584650
v 0.01340554 0.02365356 0.20607909
v 0.01332463 0.02357454 0.20608310
v 0.01127494 0.01127827 0.20590847
v 0.01127494 0.00922764 0.20588036
v 0.00922391 0.01127827 0.20583218
v 0.00717423 0.01332514 0.20564349
v 0.00512589 0.01537577 0.20533636
v 0.00373426 0.01742641 0.20511756
v 0.00363313 0.01947704 0.20507440
v 0.00309104 0.02162174 0.20491482
v -0.00037050 0.03177331 0.20383685
v -0.00037050 0.02972268 0.20383284
v -0.00037050 0.02767205 0.20373849
v -0.00037050 0.02570043 0.20359095
v -0.00037050 0.03783491 0.19782576
v 0.00102518 0.03784243 0.19782576
v 0.00307621 0.03778223 0.19782576
v 0.00884904 0.03701465 0.19670063
v 0.01340554 0.03947165 0.20244373
v 0.01340554 0.03521612 0.19661030
v 0.01340554 0.02570419 0.20609917
v 0.01332463 0.02562141 0.20609817
v 0.01127494 0.02562141 0.20607909
v 0.01127494 0.02357454 0.20605801
v 0.01127494 0.02767205 0.20609114
v 0.00512589 0.01742641 0.20532934
v 0.01127494 0.02972268 0.20609515
v 0.01127494 0.03177331 0.20607709
v 0.01127494 0.03382394 0.20599578
v 0.01127494 0.03587458 0.20576192
v -0.00037050 0.03382394 0.20344943
v -0.00037050 0.03762796 0.19893484
v 0.01332463 0.03948294 0.20397436
v 0.01340554 0.03949423 0.20389205
v 0.01021504 0.03687544 0.19686323
v 0.01340554 0.02767205 0.20609817
v 0.01332463 0.02767205 0.20609817
v 0.01332463 0.02972268 0.20608210
v 0.01340554 0.02972268 0.20608110
v 0.01332463 0.03177331 0.20604296
v 0.01332463 0.03382394 0.20595263
v 0.01332463 0.03587458 0.20578802
v 0.01332463 0.03792145 0.20535944
v 0.01227956 0.03895993 0.20500916
v 0.01146778 0.03781986 0.20524302
v -0.00037050 0.03493392 0.20302487
v -0.00037050 0.03752637 0.19945776
v 0.01340554 0.03948670 0.20397938
v 0.01340554 0.03177331 0.20603894
v 0.01340554 0.03382394 0.20594560
v 0.01340554 0.03587458 0.20577798
v 0.01340554 0.03596112 0.20576092
v 0.01340554 0.03792145 0.20535142
v 0.01340554 0.03800046 0.20533336
v 0.01340554 0.03897122 0.20501518
v 0.01332463 0.03897122 0.20501518
v 0.01340554 0.03899756 0.20497604
f 1 2 3
f 1 3 4
f 1 4 5
f 1 5 6
f 1 6 7
f 1 7 8
f 1 8 9
f 1 9 10
f 1 10 20
f 1 20 19
f 1 19 38
f 1 38 37
f 1 37 67
f 1 67 66
f 1 66 65
f 1 65 64
f 1 64 84
f 1 84 99
f 1 99 100
f 1 100 85
f 1 85 68
f 1 68 40
f 1 40 39
f 1 39 21
f 1 21 11
f 1 11 24
f 1 24 46
f 1 46 48
f 1 48 53
f 1 53 52
f 1 52 51
f 1 51 47
f 1 47 25
f 1 25 12
f 1 12 2
f 2 12 27
f 2 27 50
f 2 50 49
f 2 49 73
f 2 73 72
f 2 72 87
f 2 87 101
f 2 101 110
f 2 110 108
f 2 108 107
f 2 107 106
f 2 106 105
f 2 105 104
f 2 104 103
f 2 103 102
f 2 102 92
f 2 92 89
f 2 89 74
f 2 74 54
f 2 54 28
f 2 28 13
f 2 13 5
f 2 5 4
f 2 4 3
f 5 13 14
f 5 14 7
f 5 7 6
f 7 14 15
f 7 15 16
f 7 16 17
f 7 17 18
f 7 18 8
f 8 18 9
f 9 19 20
f 9 20 10
f 9 18 19
f 11 21 22
f 11 22 23
f 11 23 24
f 12 25 26
f 12 26 27
f 13 28 29
f 13 29 30
f 13 30 31
f 13 31 15
f 13 15 14
f 15 31 16
f 16 31 32
f 16 32 17
f 17 33 18
f 17 32 33
f 18 34 19
f 18 33 35
f 18 35 36
f 18 36 37
f 18 37 34
f 19 34 38
f 21 39 22
f 22 39 40
f 22 40 41
f 22 41 42
f 22 42 23
f 23 42 43
f 23 43 44
f 23 44 45
f 23 45 26
f 23 26 46
f 23 46 24
f 25 47 26
f 26 48 46
f 26 45 49
f 26 49 50
f 26 50 27
f 26 47 51
f 26 51 52
f 26 52 53
f 26 53 48
f 28 54 55
f 28 55 29
f 29 56 57
f 29 57 58
f 29 58 30
f 29 55 56
f 30 58 31
f 31 58 59
f 31 59 32
f 32 59 33
f 33 59 60
f 33 60 35
f 34 37 38
f 35 60 61
f 35 61 36
f 36 61 62
f 36 62 63
f 36 63 64
f 36 64 65
f 36 65 66
f 36 66 67
f 36 67 37
f 40 68 69
f 40 69 41
f 41 69 42
f 42 69 43
f 43 69 70
f 43 70 44
f 44 71 45
f 44 70 72
f 44 72 71
f 45 73 49
f 45 71 73
f 54 74 55
f 55 74 75
f 55 75 76
f 55 76 77
f 55 77 56
f 56 58 57
f 56 77 58
f 58 77 76
f 58 76 78
f 58 78 59
f 59 79 60
f 59 78 80
f 59 80 79
f 60 79 61
f 61 79 81
f 61 81 62
f 62 81 63
f 63 81 82
f 63 82 64
f 64 82 83
f 64 83 84
f 68 85 86
f 68 86 87
f 68 87 72
f 68 72 69
f 69 72 70
f 71 72 88
f 71 88 73
f 72 73 88
f 74 89 90
f 74 90 80
f 74 80 78
f 74 78 75
f 75 78 76
f 79 80 81
f 80 90 89
f 80 89 91
f 80 91 81
f 81 91 92
f 81 92 93
f 81 93 82
f 82 94 95
f 82 95 83
f 82 93 94
f 83 95 96
f 83 96 97
f 83 97 98
f 83 98 84
f 84 98 99
f 85 100 86
f 86 97 101
f 86 101 87
f 86 100 97
f 89 92 91
f 92 102 93
f 93 102 94
f 94 103 95
f 94 102 103
f 95 104 105
f 95 105 106
f 95 106 96
f 95 103 104
f 96 106 107
f 96 107 108
f 96 108 109
f 96 109 97
f 97 109 110
f 97 110 101
f 97 100 99
f 97 99 98
f 108 110 109

