# https://github.com/mikedh/trimesh
v 0.01340554 0.00105658 0.20397435
v 0.01340554 0.00236991 0.20552662
v 0.01340554 0.00178569 0.20329159
v 0.01581674 -0.00772075 0.19584650
v 0.01375480 -0.00102324 0.20397435
v 0.01410407 -0.00249548 0.20524448
v 0.01388946 -0.00102324 0.20542622
v 0.01340554 0.00512743 0.20585294
v 0.01340554 0.00332336 0.20205057
v 0.01962922 -0.00772075 0.19584650
v 0.01607764 -0.00772075 0.19770300
v 0.01407041 -0.00265906 0.20397435
v 0.01340554 0.01237177 0.19584650
v 0.01646478 -0.00772075 0.19996313
v 0.01656577 -0.00772075 0.20030853
v 0.01708336 -0.00772075 0.20116299
v 0.01619967 -0.00414532 0.20506074
v 0.01546116 -0.00313578 0.20538003
v 0.01537700 -0.00102324 0.20592423
v 0.01537700 0.00102854 0.20601761
v 0.01340554 0.02365424 0.20607886
v 0.03177361 -0.00717392 0.19641479
v 0.03177361 -0.00772075 0.19642885
v 0.02091267 -0.00474356 0.19584650
v 0.01340554 0.01793355 0.19584650
v 0.01753783 -0.00772075 0.20159573
v 0.01851409 -0.00772075 0.20232970
v 0.01999322 -0.00772075 0.20335384
v 0.02108310 -0.00772075 0.20396230
v 0.02152704 -0.00772075 0.20419223
v 0.02302931 -0.00772075 0.20463502
v 0.02357636 -0.00772075 0.20474346
v 0.01742632 -0.00307035 0.20559490
v 0.01742632 -0.00102324 0.20596037
v 0.01742632 0.00102854 0.20598949
v 0.01537700 0.02767368 0.20610296
v 0.01340554 0.02570135 0.20609894
v 0.03322538 -0.00717392 0.19661259
v 0.02138187 -0.00320122 0.19584650
v 0.02141343 -0.00307035 0.19584650
v 0.02161541 -0.00113541 0.19584650
v 0.02169537 0.00091637 0.19584650
v 0.03177361 -0.00512214 0.19641077
v 0.03397021 -0.00096248 0.19663769
v 0.03358938 -0.00307035 0.19660857
v 0.03317910 -0.00772075 0.19662363
v 0.01488045 0.01685391 0.19584650
v 0.01340554 0.03374023 0.19640475
v 0.01947563 0.02972079 0.19641278
v 0.02507863 -0.00772075 0.20486294
v 0.02562357 -0.00772075 0.20489206
v 0.01947563 -0.00102324 0.20585797
v 0.02712794 -0.00772075 0.20486696
v 0.02767499 -0.00772075 0.20484387
v 0.01947563 0.00102854 0.20588407
v 0.01742632 0.02972079 0.20605175
v 0.01340554 0.02972079 0.20608187
v 0.01340554 0.02767368 0.20609793
v 0.03486231 -0.00023805 0.19678730
v 0.02169747 0.00102854 0.19584650
v 0.03177361 0.00717922 0.19638869
v 0.03398493 0.00099582 0.19663669
v 0.03378505 -0.00772075 0.19782550
v 0.01850147 0.01343272 0.19584650
v 0.02152704 0.02767368 0.19639772
v 0.01340554 0.03382436 0.19641077
v 0.01742632 0.03177257 0.19644792
v 0.02142605 0.02963666 0.19658749
v 0.02767499 -0.00717392 0.20486495
v 0.02767499 -0.00512214 0.20491716
v 0.02767499 -0.00307035 0.20495331
v 0.02917725 -0.00772075 0.20439605
v 0.02972430 -0.00512214 0.20446935
v 0.02972430 -0.00307035 0.20457779
v 0.02767499 -0.00102324 0.20496134
v 0.01947563 0.02972079 0.20587904
v 0.01947563 0.03177257 0.20586901
v 0.01340554 0.03382436 0.20594532
v 0.01340554 0.03177257 0.20603970
v 0.03486231 0.00029476 0.19678730
v 0.03489808 0.00099582 0.19776926
v 0.03489387 -0.00096248 0.19782650
v 0.03487283 -0.00229451 0.19851026
v 0.03474869 -0.00160279 0.19714374
v 0.02166591 0.00307565 0.19584650
v 0.02154388 0.00512743 0.19584650
v 0.03177361 0.00922633 0.19640275
v 0.03363146 0.00307565 0.19660356
v 0.03349049 0.00512743 0.19660155
v 0.03333690 0.00717922 0.19659954
v 0.03371772 -0.00772075 0.19822310
v 0.03389236 -0.00717392 0.19782550
v 0.03487283 -0.00229451 0.19887674
v 0.02767499 0.01947122 0.19639571
v 0.01943355 0.01200722 0.19584650
v 0.02348589 0.02755683 0.19659452
v 0.02357636 0.02562190 0.19641881
v 0.01340554 0.03517508 0.19660356
v 0.01537911 0.03385240 0.19655837
v 0.01931783 0.03166040 0.19662966
v 0.01742632 0.03313264 0.19665576
v 0.02274106 0.02889821 0.19668488
v 0.02067702 0.03090325 0.19670296
v 0.02972430 -0.00102324 0.20460389
v 0.02977059 -0.00772075 0.20412897
v 0.02972430 -0.00717392 0.20425448
v 0.03117186 -0.00512214 0.20350846
v 0.03125392 -0.00307035 0.20358779
v 0.03128969 -0.00102324 0.20360586
v 0.02972430 0.00102854 0.20459687
v 0.02767499 0.00717922 0.20490612
v 0.02167643 0.03167442 0.20544027
v 0.02273896 0.03338970 0.20515612
v 0.02165118 0.03397392 0.20529770
v 0.01947563 0.03382436 0.20555674
v 0.01340554 0.03587147 0.20577864
v 0.02767499 0.00922633 0.20486696
v 0.03316857 0.00922633 0.19660958
v 0.03300025 0.01127811 0.19666681
v 0.03286980 0.01257274 0.19674211
v 0.03477604 0.00165950 0.19704936
v 0.03487914 0.00263632 0.19841588
v 0.03490018 0.00102854 0.19890586
v 0.03489387 -0.00102324 0.19889983
v 0.03425635 -0.00512214 0.19782550
v 0.02972430 0.01537700 0.19639772
v 0.03177361 0.01127811 0.19646399
v 0.03340422 -0.00772075 0.19940387
v 0.03102037 -0.00717392 0.20333175
v 0.03096988 -0.00772075 0.20326448
v 0.02770444 0.02153703 0.19655937
v 0.02925721 0.01947122 0.19660255
v 0.02562357 0.02357479 0.19645997
v 0.02472726 0.02679501 0.19671501
v 0.02549522 0.02544897 0.19664472
v 0.01340554 0.03521714 0.19661058
v 0.01469740 0.03500682 0.19668388
v 0.01852882 0.03285688 0.19675517
v 0.02102839 0.03755402 0.20073727
v 0.01911163 0.03922723 0.20071316
v 0.03128758 0.00102854 0.20360787
v 0.03074475 -0.00772075 0.20343718
v 0.02972430 0.00307565 0.20455670
v 0.03292661 0.01272230 0.19900526
v 0.02296830 0.03587147 0.20354762
v 0.02241705 0.03475444 0.20496134
v 0.02972430 0.00512743 0.20446935
v 0.02972430 0.00717922 0.20431271
v 0.03104562 0.00717922 0.20335986
v 0.03089834 0.00881971 0.20316307
v 0.02104943 0.03514703 0.20509688
v 0.01928627 0.03584810 0.20515512
v 0.01520658 0.03789520 0.20517019
v 0.01340554 0.03596027 0.20576157
v 0.03121394 0.01537700 0.19660456
v 0.03294765 0.01282045 0.19782550
v 0.03331586 0.01127811 0.19782550
v 0.03371141 0.00922633 0.19782550
v 0.03408593 0.00717922 0.19782550
v 0.03094673 0.01693337 0.19667384
v 0.03061219 0.01829811 0.19736262
v 0.03105404 0.01754095 0.19795803
v 0.03442257 0.00512743 0.19782550
v 0.03468978 0.00322521 0.19776926
v 0.03487914 0.00263632 0.19888477
v 0.02984843 0.01754095 0.19655737
v 0.02889531 0.02086400 0.19667685
v 0.02697435 0.02357479 0.19667083
v 0.02669030 0.02464975 0.19676822
v 0.01340554 0.03947026 0.20244316
v 0.01542119 0.03974134 0.20183470
v 0.01613234 0.03916647 0.20078747
v 0.01742632 0.03932538 0.20067501
v 0.02044768 0.03890474 0.20192406
v 0.02163645 0.03775967 0.20185378
v 0.02268005 0.03703056 0.20249035
v 0.01742632 0.04002644 0.20192406
v 0.01942303 0.03941885 0.20192406
v 0.03124129 0.00307565 0.20357875
v 0.03311387 0.01127811 0.19918800
v 0.03075737 0.01846636 0.19886068
v 0.02268005 0.03703056 0.20310182
v 0.02152704 0.03748391 0.20346529
v 0.02165118 0.03584810 0.20456976
v 0.01984173 0.03651645 0.20485189
v 0.01847622 0.03690904 0.20500451
v 0.03116555 0.00512743 0.20350244
v 0.01441126 0.03896550 0.20501053
v 0.01340554 0.03792325 0.20535092
v 0.03075737 0.01846636 0.19873015
v 0.01340554 0.03949363 0.20389202
v 0.01908639 0.03929266 0.20329761
v 0.01340554 0.03948896 0.20397937
v 0.01520658 0.03961982 0.20409584
v 0.01742632 0.03964787 0.20361891
v 0.01946511 0.03791390 0.20407476
v 0.01742632 0.03815226 0.20464406
v 0.01340554 0.03897017 0.20501555
v 0.01340554 0.03799803 0.20533385
v 0.01340554 0.03899822 0.20497640
f 1 2 8
f 1 8 21
f 1 21 37
f 1 37 58
f 1 58 57
f 1 57 79
f 1 79 78
f 1 78 116
f 1 116 154
f 1 154 189
f 1 189 199
f 1 199 198
f 1 198 200
f 1 200 193
f 1 193 191
f 1 191 170
f 1 170 136
f 1 136 98
f 1 98 66
f 1 66 48
f 1 48 25
f 1 25 13
f 1 13 9
f 1 9 3
f 1 3 4
f 1 4 5
f 1 5 6
f 1 6 7
f 1 7 2
f 2 7 8
f 3 9 4
f 4 10 23
f 4 23 46
f 4 46 63
f 4 63 91
f 4 91 128
f 4 128 130
f 4 130 142
f 4 142 105
f 4 105 72
f 4 72 54
f 4 54 53
f 4 53 51
f 4 51 50
f 4 50 32
f 4 32 31
f 4 31 30
f 4 30 29
f 4 29 28
f 4 28 27
f 4 27 26
f 4 26 16
f 4 16 15
f 4 15 14
f 4 14 11
f 4 11 6
f 4 6 12
f 4 12 5
f 4 9 13
f 4 13 25
f 4 25 47
f 4 47 64
f 4 64 95
f 4 95 86
f 4 86 85
f 4 85 60
f 4 60 42
f 4 42 41
f 4 41 40
f 4 40 39
f 4 39 24
f 4 24 10
f 5 12 6
f 6 11 14
f 6 14 15
f 6 15 16
f 6 16 17
f 6 17 18
f 6 18 19
f 6 19 7
f 7 19 8
f 8 19 20
f 8 20 21
f 10 22 23
f 10 24 22
f 16 26 17
f 17 26 27
f 17 27 28
f 17 28 29
f 17 29 30
f 17 30 31
f 17 31 32
f 17 32 18
f 18 32 33
f 18 33 19
f 19 33 34
f 19 34 20
f 20 34 35
f 20 35 36
f 20 36 37
f 20 37 21
f 22 38 23
f 22 24 39
f 22 39 40
f 22 40 41
f 22 41 42
f 22 42 43
f 22 43 44
f 22 44 45
f 22 45 38
f 23 38 46
f 25 48 49
f 25 49 47
f 32 50 33
f 33 50 51
f 33 51 34
f 34 52 35
f 34 51 53
f 34 53 54
f 34 54 52
f 35 52 55
f 35 55 56
f 35 56 36
f 36 56 57
f 36 57 58
f 36 58 37
f 38 45 44
f 38 44 59
f 38 59 46
f 42 60 61
f 42 61 43
f 43 61 44
f 44 62 59
f 44 61 62
f 46 59 63
f 47 49 65
f 47 65 64
f 48 66 67
f 48 67 49
f 49 67 68
f 49 68 65
f 52 54 69
f 52 69 70
f 52 70 71
f 52 71 55
f 54 72 73
f 54 73 74
f 54 74 69
f 55 71 75
f 55 75 76
f 55 76 56
f 56 76 77
f 56 77 78
f 56 78 79
f 56 79 57
f 59 62 80
f 59 80 81
f 59 81 82
f 59 82 83
f 59 83 84
f 59 84 63
f 60 85 61
f 61 85 86
f 61 86 87
f 61 87 88
f 61 88 62
f 62 88 89
f 62 89 90
f 62 90 80
f 63 84 92
f 63 92 83
f 63 83 93
f 63 93 91
f 64 94 95
f 64 65 94
f 65 68 96
f 65 96 97
f 65 97 94
f 66 98 99
f 66 99 67
f 67 100 68
f 67 99 101
f 67 101 100
f 68 102 96
f 68 100 103
f 68 103 102
f 69 74 70
f 70 74 71
f 71 74 104
f 71 104 75
f 72 105 106
f 72 106 73
f 73 107 108
f 73 108 74
f 73 106 107
f 74 108 109
f 74 109 104
f 75 104 110
f 75 110 111
f 75 111 77
f 75 77 76
f 77 112 113
f 77 113 114
f 77 114 115
f 77 115 116
f 77 116 78
f 77 111 117
f 77 117 112
f 80 90 118
f 80 118 119
f 80 119 120
f 80 120 121
f 80 121 122
f 80 122 81
f 81 122 123
f 81 123 82
f 82 123 124
f 82 124 83
f 83 125 84
f 83 124 93
f 83 92 125
f 84 125 92
f 86 95 87
f 87 118 90
f 87 90 89
f 87 89 88
f 87 95 126
f 87 126 127
f 87 127 118
f 91 93 128
f 93 124 108
f 93 108 107
f 93 107 129
f 93 129 130
f 93 130 128
f 94 131 132
f 94 132 126
f 94 126 95
f 94 97 133
f 94 133 131
f 96 134 135
f 96 135 133
f 96 133 97
f 96 102 134
f 98 136 137
f 98 137 99
f 99 137 101
f 100 101 138
f 100 138 103
f 101 137 138
f 102 103 139
f 102 139 134
f 103 138 140
f 103 140 139
f 104 109 141
f 104 141 110
f 105 142 106
f 106 142 129
f 106 129 107
f 108 124 109
f 109 124 123
f 109 123 141
f 110 141 143
f 110 143 117
f 110 117 111
f 112 117 113
f 113 144 145
f 113 145 146
f 113 146 114
f 113 117 147
f 113 147 148
f 113 148 149
f 113 149 150
f 113 150 144
f 114 146 151
f 114 151 152
f 114 152 153
f 114 153 154
f 114 154 115
f 115 154 116
f 117 143 147
f 118 127 119
f 119 127 155
f 119 155 120
f 120 156 157
f 120 157 158
f 120 158 159
f 120 159 121
f 120 155 160
f 120 160 161
f 120 161 162
f 120 162 156
f 121 159 163
f 121 163 164
f 121 164 122
f 122 165 123
f 122 164 163
f 122 163 159
f 122 159 165
f 123 165 141
f 126 155 127
f 126 132 166
f 126 166 155
f 129 142 130
f 131 167 132
f 131 133 135
f 131 135 168
f 131 168 167
f 132 167 160
f 132 160 155
f 132 155 166
f 134 169 135
f 134 139 169
f 135 169 168
f 136 170 171
f 136 171 172
f 136 172 173
f 136 173 140
f 136 140 137
f 137 140 138
f 139 140 174
f 139 174 175
f 139 175 176
f 139 176 169
f 140 173 177
f 140 177 178
f 140 178 174
f 141 165 179
f 141 179 143
f 143 179 147
f 144 180 165
f 144 165 158
f 144 158 157
f 144 157 156
f 144 156 181
f 144 181 182
f 144 182 145
f 144 150 180
f 145 182 146
f 146 182 183
f 146 183 184
f 146 184 185
f 146 185 186
f 146 186 151
f 147 179 187
f 147 187 148
f 148 187 149
f 149 187 165
f 149 165 150
f 150 165 180
f 151 186 152
f 152 186 153
f 153 186 188
f 153 188 189
f 153 189 154
f 156 162 190
f 156 190 181
f 158 165 159
f 160 167 161
f 161 190 162
f 161 167 176
f 161 176 190
f 165 187 179
f 167 168 169
f 167 169 176
f 170 191 177
f 170 177 171
f 171 177 173
f 171 173 172
f 174 176 175
f 174 178 192
f 174 192 182
f 174 182 176
f 176 182 181
f 176 181 190
f 177 191 193
f 177 193 194
f 177 194 195
f 177 195 192
f 177 192 178
f 182 192 183
f 183 192 184
f 184 192 196
f 184 196 185
f 185 196 197
f 185 197 188
f 185 188 186
f 188 197 195
f 188 195 194
f 188 194 198
f 188 198 199
f 188 199 189
f 192 195 197
f 192 197 196
f 193 200 194
f 194 200 198

