# https://github.com/mikedh/trimesh
v 0.01422651 0.05780002 0.06058599
v 0.01345935 0.05938184 0.06057202
v 0.01187507 0.05938184 0.06059996
v 0.01029078 0.05938184 0.06060927
v 0.00554041 0.05938184 0.06060927
v -0.00712390 0.05938184 0.06059996
v -0.01130203 0.05938184 0.06059065
v -0.01130203 0.05837428 0.06052546
v -0.01130203 0.05780002 0.06046493
v 0.01422651 0.05650013 0.06029265
v 0.01422651 0.05938184 0.06053943
v 0.00870899 0.06096597 0.06043699
v 0.00554041 0.06096597 0.06052080
v 0.00395862 0.06096597 0.06054408
v 0.00237433 0.06096597 0.06055805
v -0.00079175 0.06096597 0.06056271
v -0.00237354 0.06096597 0.06054874
v -0.00395782 0.06096597 0.06052546
v -0.00554211 0.06096597 0.06049286
v -0.00712390 0.06096597 0.06045096
v -0.01130203 0.06003929 0.06047424
v -0.01130203 0.05684907 0.06017159
v 0.01422651 0.05570864 0.05992015
v 0.01029078 0.06096597 0.06036715
v 0.01422651 0.06060662 0.06024609
v 0.01345935 0.06070253 0.06026937
v 0.00870899 0.06193193 0.06017159
v 0.00712470 0.06202553 0.06020418
v 0.00554041 0.06210179 0.06023212
v 0.00395862 0.06215609 0.06025074
v 0.00237433 0.06219307 0.06026005
v 0.00079254 0.06222427 0.06026005
v -0.00079175 0.06221964 0.06026005
v -0.00237354 0.06217227 0.06025074
v -0.00395782 0.06211334 0.06023212
v -0.00554211 0.06204632 0.06021349
v -0.00870819 0.06096597 0.06039508
v -0.00712390 0.06196082 0.06018555
v -0.01130203 0.06093131 0.06028799
v -0.01130203 0.05634414 0.05984565
v -0.01130203 0.05605643 0.05962681
v 0.01422651 0.05520832 0.05951040
v 0.01029078 0.06182563 0.06012037
v 0.01345935 0.06149401 0.05995740
v 0.01219242 0.06164076 0.06003656
v 0.01113790 0.06176439 0.06008777
v 0.01422651 0.06139696 0.05988290
v 0.00554041 0.06289328 0.05982703
v 0.00395862 0.06294758 0.05986893
v 0.00237433 0.06298571 0.05990152
v 0.00079254 0.06301691 0.05992481
v -0.00079175 0.06301229 0.05992015
v -0.00237354 0.06296376 0.05988756
v -0.00395782 0.06290483 0.05985031
v -0.00870819 0.06186838 0.06014365
v -0.00989266 0.06180137 0.06011106
v -0.01036745 0.06110693 0.06028334
v -0.01130203 0.06138425 0.06015762
v -0.01130203 0.05545097 0.05912394
v 0.01422651 0.05469877 0.05908203
v 0.00712470 0.06281701 0.05975718
v 0.01422651 0.06181754 0.05949644
v 0.01422651 0.06225662 0.05909134
v 0.01345935 0.06234559 0.05916584
v 0.00870899 0.06360273 0.05885388
v 0.00870899 0.06272458 0.05964543
v 0.00554041 0.06378760 0.05903547
v 0.00395862 0.06383844 0.05907738
v 0.00237433 0.06386732 0.05910997
v 0.00079254 0.06388466 0.05913325
v -0.00079175 0.06388235 0.05912859
v -0.00237354 0.06385346 0.05909600
v -0.00395782 0.06381418 0.05905875
v -0.00554211 0.06375525 0.05899356
v -0.00554211 0.06283781 0.05978512
v -0.01094718 0.06172857 0.06007381
v -0.01130203 0.06168582 0.06005518
v -0.01130203 0.05511935 0.05883525
v 0.01422651 0.05394887 0.05818338
v 0.00712470 0.06370903 0.05896563
v 0.01125285 0.06337510 0.05855588
v 0.01029078 0.06346754 0.05868160
v 0.01422651 0.06288519 0.05764326
v 0.00712470 0.06422898 0.05770845
v 0.00554041 0.06438728 0.05770845
v 0.00395862 0.06449589 0.05770845
v 0.00237433 0.06456407 0.05770845
v 0.00079254 0.06460451 0.05770845
v -0.00079175 0.06460220 0.05770845
v -0.00237354 0.06453749 0.05770845
v -0.00712390 0.06367321 0.05890510
v -0.00395782 0.06444505 0.05770845
v -0.00554211 0.06432720 0.05770845
v -0.00712390 0.06275231 0.05969665
v -0.00870819 0.06265987 0.05958025
v -0.00870819 0.06356806 0.05878869
v -0.01130203 0.06256975 0.05924965
v -0.01130203 0.05470108 0.05808094
v -0.01130203 0.05452198 0.05770845
v 0.01422651 0.05366926 0.05743839
v 0.01230987 0.06326533 0.05799713
v 0.01029078 0.06372983 0.05770845
v 0.00870899 0.06400945 0.05770845
v 0.01267970 0.06334390 0.05690758
v 0.01267970 0.06334390 0.05694017
v 0.01330942 0.06310819 0.05756410
v 0.01422651 0.06058352 0.01806542
v 0.00800430 0.06177017 0.01870798
v 0.00773942 0.06173666 0.01765102
v 0.00717718 0.06183141 0.01815854
v 0.00554041 0.06199780 0.01812595
v 0.00395862 0.06210410 0.01812595
v 0.00237433 0.06216187 0.01812595
v 0.00079254 0.06221502 0.01812595
v -0.00079175 0.06221271 0.01812595
v -0.00237354 0.06215725 0.01812595
v -0.00395782 0.06209254 0.01812595
v -0.00554211 0.06198739 0.01812595
v -0.00712390 0.06417237 0.05770845
v -0.01029248 0.06343634 0.05863038
v -0.01130203 0.06289443 0.05895166
v -0.01130203 0.05424583 0.05672133
v -0.01130203 0.05408984 0.05615327
v 0.01422651 0.05332839 0.05617190
v 0.01182009 0.06343634 0.05756410
v 0.00860404 0.06164538 0.01815854
v 0.01345935 0.06076261 0.01812595
v 0.01187507 0.06109076 0.01812595
v 0.01029078 0.06137731 0.01812595
v 0.01422651 0.06050956 0.01724127
v 0.00870899 0.06148593 0.01654749
v 0.00717718 0.06168698 0.01648231
v 0.00668490 0.06179674 0.01696655
v 0.00560788 0.06186029 0.01648231
v 0.00395862 0.06198624 0.01654749
v 0.00237433 0.06204632 0.01654749
v 0.00079254 0.06210063 0.01654749
v -0.00079175 0.06209370 0.01654749
v -0.00237354 0.06203015 0.01654749
v -0.00395782 0.06195736 0.01654749
v -0.00555211 0.06184296 0.01651024
v -0.00663912 0.06179328 0.01701311
v -0.00714889 0.06182794 0.01821442
v -0.00870819 0.06395861 0.05770845
v -0.01116459 0.06335777 0.05852794
v -0.00797102 0.06176439 0.01879644
v -0.01130203 0.06319716 0.05865832
v 0.01422651 0.05317241 0.05531050
v -0.01130203 0.05390035 0.05499853
v 0.01422651 0.05303606 0.05454222
v 0.01345935 0.06061471 0.01654749
v 0.01187507 0.06093939 0.01654749
v 0.01029078 0.06123057 0.01654749
v 0.01422651 0.06044255 0.01654749
v 0.00870899 0.06118320 0.01495972
v 0.00618262 0.06174013 0.01590959
v 0.00512560 0.06179906 0.01558831
v 0.00395862 0.06183488 0.01545328
v 0.00237433 0.06186492 0.01534153
v 0.00079254 0.06189149 0.01522978
v -0.00079175 0.06188687 0.01524841
v -0.00237354 0.06185220 0.01538344
v -0.00395782 0.06181523 0.01552312
v -0.00502984 0.06178288 0.01564884
v -0.00608687 0.06173319 0.01595615
v -0.00769365 0.06173089 0.01774414
v -0.00714889 0.06166849 0.01651024
v -0.01029248 0.06368707 0.05770845
v -0.01029248 0.06137847 0.01812595
v -0.01130203 0.06349642 0.05653508
v -0.01130203 0.06337510 0.05831841
v -0.01130203 0.06334275 0.05846741
v -0.00858325 0.06163845 0.01821442
v -0.01130203 0.05389457 0.05496128
v -0.01130203 0.05382293 0.05448635
v -0.01130203 0.05377787 0.05413247
v 0.01422651 0.05294363 0.05372738
v 0.01422651 0.06033278 0.01580250
v 0.01422651 0.06025536 0.01539741
v 0.01187507 0.06062858 0.01495972
v 0.01029078 0.06092553 0.01495972
v 0.01023830 0.06040904 0.01331608
v 0.00870899 0.06067364 0.01337661
v 0.00712470 0.06139811 0.01495972
v 0.00560788 0.06159108 0.01502025
v 0.00395862 0.06162227 0.01466172
v 0.00237433 0.06165347 0.01454997
v 0.00079254 0.06168236 0.01444288
v -0.00079175 0.06167889 0.01445685
v -0.00237354 0.06164191 0.01459188
v -0.00395782 0.06160494 0.01473622
v -0.00555211 0.06157259 0.01505750
v -0.00712390 0.06135883 0.01495972
v -0.00870819 0.06114045 0.01495972
v -0.01029248 0.06091166 0.01495972
v -0.01029248 0.06122248 0.01654749
v -0.00870819 0.06145820 0.01654749
v -0.01130203 0.06351260 0.05763395
v -0.01130203 0.06103992 0.01654749
v -0.01130203 0.06119475 0.01812595
v -0.01130203 0.05372010 0.05356441
v 0.01422651 0.05285812 0.05295911
v 0.01337689 0.06032700 0.01498766
v 0.01422651 0.06004854 0.01463844
v 0.01385168 0.06008782 0.01447548
v 0.01279465 0.06020106 0.01409367
v 0.01187507 0.06029581 0.01383757
v 0.01047569 0.06026461 0.01304136
v 0.01004089 0.06033740 0.01304136
v 0.00909132 0.06048761 0.01304136
v 0.00712470 0.06088278 0.01337661
v 0.00554041 0.06106765 0.01337661
v 0.00395862 0.06119013 0.01337661
v 0.00079254 0.06131261 0.01337661
v -0.00079175 0.06130452 0.01337661
v -0.00395782 0.06115662 0.01337661
v -0.00554211 0.06103761 0.01337661
v -0.00712390 0.06085043 0.01337661
v -0.00870819 0.06063898 0.01337661
v -0.01024250 0.06039980 0.01329745
v -0.01130203 0.06033047 0.01363736
v -0.01130203 0.06072795 0.01495972
v -0.01130203 0.06092669 0.01597012
v -0.01130203 0.05367619 0.05295911
v 0.01422651 0.05282808 0.05214427
v 0.01422651 0.05988677 0.01412626
v 0.01422651 0.05964297 0.01343248
v 0.01337689 0.05984864 0.01349301
v 0.01187507 0.05999423 0.01304602
v 0.01186007 0.05999538 0.01304136
v 0.00767695 0.06067017 0.01304136
v 0.00601020 0.06086313 0.01304136
v 0.00554041 0.06091166 0.01304136
v 0.00437343 0.06100063 0.01304136
v 0.00395862 0.06102837 0.01304136
v 0.00276166 0.06107574 0.01304136
v 0.00116737 0.06113582 0.01304136
v 0.00079254 0.06114738 0.01304136
v -0.00079175 0.06114045 0.01304136
v -0.00237354 0.06106881 0.01304136
v -0.00395782 0.06099601 0.01304136
v -0.00554211 0.06088278 0.01304136
v -0.00712390 0.06070484 0.01304136
v -0.00870819 0.06050494 0.01304136
v -0.01005259 0.06033163 0.01304136
v -0.01046240 0.06027616 0.01304136
v -0.01106963 0.06017217 0.01304136
v -0.01130203 0.06020568 0.01326486
v -0.01130203 0.05361841 0.05137599
v 0.01422651 0.05280497 0.05150637
v 0.01422651 0.05946503 0.01304136
v -0.01130203 0.06012711 0.01304136
v -0.01130203 0.05361957 0.05054253
v 0.01422651 0.05280151 0.05137599
v 0.01422651 0.05486169 0.01304136
v -0.01130203 0.05554572 0.01304136
v -0.01130203 0.05362073 0.04978822
v 0.01422651 0.05280729 0.05055650
v 0.01422651 0.05297829 0.04503888
v -0.01130203 0.05375592 0.04522047
v 0.01422651 0.05281421 0.04978822
v -0.01130203 0.05363459 0.04895942
v 0.01422651 0.05289625 0.04662199
v -0.01130203 0.05369237 0.04662199
v 0.01422651 0.05282924 0.04897338
v -0.01130203 0.05364961 0.04820976
v 0.01422651 0.05284426 0.04820976
f 1 2 3
f 1 3 4
f 1 4 5
f 1 5 6
f 1 6 7
f 1 7 8
f 1 8 9
f 1 9 10
f 1 10 23
f 1 23 42
f 1 42 60
f 1 60 79
f 1 79 100
f 1 100 124
f 1 124 148
f 1 148 150
f 1 150 177
f 1 177 202
f 1 202 225
f 1 225 250
f 1 250 254
f 1 254 258
f 1 258 261
f 1 261 265
f 1 265 267
f 1 267 263
f 1 263 259
f 1 259 255
f 1 255 251
f 1 251 227
f 1 227 226
f 1 226 204
f 1 204 179
f 1 179 178
f 1 178 154
f 1 154 130
f 1 130 107
f 1 107 83
f 1 83 63
f 1 63 62
f 1 62 47
f 1 47 25
f 1 25 11
f 1 11 2
f 2 11 12
f 2 12 13
f 2 13 3
f 3 13 14
f 3 14 15
f 3 15 4
f 4 15 16
f 4 16 5
f 5 16 6
f 6 16 7
f 7 16 17
f 7 17 18
f 7 18 19
f 7 19 20
f 7 20 21
f 7 21 39
f 7 39 58
f 7 58 77
f 7 77 97
f 7 97 121
f 7 121 147
f 7 147 172
f 7 172 171
f 7 171 198
f 7 198 170
f 7 170 200
f 7 200 199
f 7 199 223
f 7 223 222
f 7 222 221
f 7 221 248
f 7 248 252
f 7 252 256
f 7 256 260
f 7 260 264
f 7 264 266
f 7 266 262
f 7 262 257
f 7 257 253
f 7 253 249
f 7 249 224
f 7 224 201
f 7 201 176
f 7 176 175
f 7 175 174
f 7 174 149
f 7 149 123
f 7 123 122
f 7 122 99
f 7 99 98
f 7 98 78
f 7 78 59
f 7 59 41
f 7 41 40
f 7 40 22
f 7 22 9
f 7 9 8
f 9 22 10
f 10 22 23
f 11 24 12
f 11 25 26
f 11 26 24
f 12 24 27
f 12 27 28
f 12 28 29
f 12 29 13
f 13 29 30
f 13 30 14
f 14 30 31
f 14 31 15
f 15 31 32
f 15 32 16
f 16 32 33
f 16 33 17
f 17 33 34
f 17 34 18
f 18 34 19
f 19 34 35
f 19 35 36
f 19 36 20
f 20 37 21
f 20 36 38
f 20 38 37
f 21 37 39
f 22 40 23
f 23 40 41
f 23 41 42
f 24 26 43
f 24 43 27
f 25 44 45
f 25 45 46
f 25 46 26
f 25 47 44
f 26 46 43
f 27 43 48
f 27 48 28
f 28 48 49
f 28 49 29
f 29 49 50
f 29 50 30
f 30 50 51
f 30 51 31
f 31 51 32
f 32 51 33
f 33 51 52
f 33 52 34
f 34 52 35
f 35 52 36
f 36 52 53
f 36 53 54
f 36 54 38
f 37 38 55
f 37 55 56
f 37 56 57
f 37 57 39
f 38 54 55
f 39 57 56
f 39 56 58
f 41 59 42
f 42 59 60
f 43 46 61
f 43 61 48
f 44 47 62
f 44 62 63
f 44 63 64
f 44 64 65
f 44 65 66
f 44 66 45
f 45 66 46
f 46 66 61
f 48 61 67
f 48 67 49
f 49 67 68
f 49 68 50
f 50 68 69
f 50 69 51
f 51 69 70
f 51 70 71
f 51 71 52
f 52 71 72
f 52 72 73
f 52 73 53
f 53 73 54
f 54 73 74
f 54 74 75
f 54 75 56
f 54 56 55
f 56 76 58
f 56 75 76
f 58 76 77
f 59 78 60
f 60 78 79
f 61 66 80
f 61 80 67
f 63 81 82
f 63 82 64
f 63 83 81
f 64 82 65
f 65 82 84
f 65 84 85
f 65 85 80
f 65 80 66
f 67 80 85
f 67 85 86
f 67 86 68
f 68 86 87
f 68 87 69
f 69 87 88
f 69 88 70
f 70 88 89
f 70 89 71
f 71 89 72
f 72 89 73
f 73 89 90
f 73 90 74
f 74 91 75
f 74 90 92
f 74 92 93
f 74 93 91
f 75 91 94
f 75 94 76
f 76 94 95
f 76 95 96
f 76 96 77
f 77 96 97
f 78 98 79
f 79 98 99
f 79 99 100
f 81 101 102
f 81 102 103
f 81 103 82
f 81 83 101
f 82 103 84
f 83 104 105
f 83 105 106
f 83 106 101
f 83 107 104
f 84 103 108
f 84 108 109
f 84 109 110
f 84 110 111
f 84 111 85
f 85 111 86
f 86 111 112
f 86 112 87
f 87 112 113
f 87 113 114
f 87 114 88
f 88 114 115
f 88 115 89
f 89 115 116
f 89 116 117
f 89 117 90
f 90 117 92
f 91 96 95
f 91 95 94
f 91 93 96
f 92 117 118
f 92 118 93
f 93 119 96
f 93 118 119
f 96 120 121
f 96 121 97
f 96 119 120
f 99 122 100
f 100 122 123
f 100 123 124
f 101 106 105
f 101 105 125
f 101 125 102
f 102 125 105
f 102 105 103
f 103 105 104
f 103 104 126
f 103 126 108
f 104 107 127
f 104 127 128
f 104 128 129
f 104 129 126
f 107 130 127
f 108 126 109
f 109 131 132
f 109 132 133
f 109 133 110
f 109 126 129
f 109 129 131
f 110 133 111
f 111 133 134
f 111 134 135
f 111 135 112
f 112 135 136
f 112 136 113
f 113 136 137
f 113 137 114
f 114 137 115
f 115 137 138
f 115 138 116
f 116 138 139
f 116 139 117
f 117 139 140
f 117 140 118
f 118 140 141
f 118 141 142
f 118 142 143
f 118 143 119
f 119 144 145
f 119 145 120
f 119 143 146
f 119 146 144
f 120 145 147
f 120 147 121
f 123 148 124
f 123 149 150
f 123 150 148
f 127 130 151
f 127 151 128
f 128 151 152
f 128 152 153
f 128 153 129
f 129 153 131
f 130 154 151
f 131 153 155
f 131 155 156
f 131 156 132
f 132 156 133
f 133 156 134
f 134 156 157
f 134 157 135
f 135 157 158
f 135 158 136
f 136 158 137
f 137 158 159
f 137 159 160
f 137 160 138
f 138 160 161
f 138 161 162
f 138 162 163
f 138 163 139
f 139 163 140
f 140 163 164
f 140 164 141
f 141 164 165
f 141 165 142
f 142 166 143
f 142 165 167
f 142 167 166
f 143 166 146
f 144 168 145
f 144 146 169
f 144 169 170
f 144 170 168
f 145 168 171
f 145 171 172
f 145 172 147
f 146 166 173
f 146 173 169
f 149 174 150
f 150 174 175
f 150 175 176
f 150 176 177
f 151 154 178
f 151 178 152
f 152 178 179
f 152 179 180
f 152 180 181
f 152 181 153
f 153 181 155
f 155 181 182
f 155 182 183
f 155 183 184
f 155 184 156
f 156 184 157
f 157 184 185
f 157 185 186
f 157 186 158
f 158 186 187
f 158 187 159
f 159 187 188
f 159 188 160
f 160 188 189
f 160 189 161
f 161 189 162
f 162 189 190
f 162 190 163
f 163 190 191
f 163 191 164
f 164 191 192
f 164 192 165
f 165 192 193
f 165 193 194
f 165 194 195
f 165 195 196
f 165 196 197
f 165 197 167
f 166 167 197
f 166 197 196
f 166 196 169
f 166 169 173
f 168 170 198
f 168 198 171
f 169 196 199
f 169 199 200
f 169 200 170
f 176 201 202
f 176 202 177
f 179 203 180
f 179 204 205
f 179 205 203
f 180 203 206
f 180 206 181
f 181 206 207
f 181 207 182
f 182 207 208
f 182 208 209
f 182 209 183
f 183 209 210
f 183 210 211
f 183 211 184
f 184 211 212
f 184 212 185
f 185 212 186
f 186 212 213
f 186 213 187
f 187 213 188
f 188 213 214
f 188 214 215
f 188 215 189
f 189 215 216
f 189 216 190
f 190 216 191
f 191 216 217
f 191 217 192
f 192 217 193
f 193 217 218
f 193 218 219
f 193 219 194
f 194 219 220
f 194 220 195
f 195 220 221
f 195 221 222
f 195 222 223
f 195 223 199
f 195 199 196
f 201 224 202
f 202 224 225
f 203 205 206
f 204 226 205
f 205 226 206
f 206 226 227
f 206 227 228
f 206 228 229
f 206 229 207
f 207 229 230
f 207 230 208
f 208 230 251
f 208 251 255
f 208 255 256
f 208 256 252
f 208 252 247
f 208 247 246
f 208 246 245
f 208 245 244
f 208 244 243
f 208 243 242
f 208 242 241
f 208 241 240
f 208 240 239
f 208 239 238
f 208 238 237
f 208 237 236
f 208 236 235
f 208 235 234
f 208 234 233
f 208 233 232
f 208 232 231
f 208 231 210
f 208 210 209
f 210 231 211
f 211 231 212
f 212 231 232
f 212 232 233
f 212 233 213
f 213 233 234
f 213 234 235
f 213 235 236
f 213 236 214
f 214 236 237
f 214 237 238
f 214 238 239
f 214 239 215
f 215 239 240
f 215 240 241
f 215 241 216
f 216 241 242
f 216 242 217
f 217 242 243
f 217 243 218
f 218 243 244
f 218 244 245
f 218 245 219
f 219 245 246
f 219 246 220
f 220 246 247
f 220 247 221
f 221 247 248
f 224 249 225
f 225 249 250
f 227 251 229
f 227 229 228
f 229 251 230
f 247 252 248
f 249 253 254
f 249 254 250
f 253 257 254
f 254 257 258
f 255 259 256
f 256 259 260
f 257 261 258
f 257 262 261
f 259 263 260
f 260 263 264
f 261 262 265
f 262 266 267
f 262 267 265
f 263 267 264
f 264 267 266

