# https://github.com/mikedh/trimesh
v -0.02612282 -0.05304430 0.06062155
v -0.02612282 -0.05462942 0.06061668
v -0.02612282 -0.05149348 0.06028014
v -0.04828028 -0.03373617 0.06060204
v -0.04829704 -0.03404977 0.06065569
v -0.04829704 -0.03563244 0.06074837
v -0.04671057 -0.03721756 0.06074837
v -0.03563045 -0.04829628 0.06072398
v -0.02771208 -0.05304430 0.06065082
v -0.02613120 -0.05462942 0.06061668
v -0.02612282 -0.05488912 0.06056790
v -0.02612282 -0.05133913 0.06020210
v -0.04688374 -0.03373617 0.06026550
v -0.04988072 -0.03373617 0.06071910
v -0.04308795 -0.03373372 0.04884751
v -0.04354602 -0.04196558 0.06075324
v -0.04988072 -0.03404977 0.06071910
v -0.04829704 -0.03721756 0.06069471
v -0.04512970 -0.04038291 0.06074349
v -0.04195955 -0.04355071 0.06074349
v -0.04038146 -0.04513338 0.06072886
v -0.03721412 -0.04829628 0.06068008
v -0.03404957 -0.04987895 0.06068008
v -0.03563045 -0.04987895 0.06061668
v -0.02771208 -0.05462942 0.06050937
v -0.02612282 -0.05626599 0.06028501
v -0.04632513 -0.03373617 0.06000700
v -0.02612282 -0.05011170 0.05940220
v -0.04835570 -0.03373372 0.04884751
v -0.05146159 -0.03373617 0.06052400
v -0.04311309 -0.03373372 0.04818419
v -0.04592852 -0.03373617 0.05976313
v -0.04523583 -0.03373617 0.05922174
v -0.04478894 -0.03373617 0.05877790
v -0.04409067 -0.03373617 0.05800727
v -0.04379181 -0.03373617 0.05750977
v -0.04329185 -0.03373617 0.05612459
v -0.04326951 -0.03373617 0.05598802
v -0.04304327 -0.03373617 0.05454431
v -0.04303489 -0.03373617 0.05442725
v -0.04297344 -0.03373617 0.05295916
v -0.04336168 -0.03373617 0.01092573
v -0.04512970 -0.04196558 0.06055815
v -0.04354602 -0.04355071 0.06056302
v -0.04988072 -0.03563244 0.06062643
v -0.04994496 -0.03726901 0.06036305
v -0.04671057 -0.04038291 0.06051913
v -0.04195955 -0.04513338 0.06055327
v -0.04038146 -0.04671115 0.06051425
v -0.03727836 -0.04995245 0.06036305
v -0.03555224 -0.05146652 0.06028014
v -0.03404957 -0.05146163 0.06046548
v -0.03087943 -0.05304430 0.06049474
v -0.02933765 -0.05471762 0.06030452
v -0.02771208 -0.05580050 0.06023136
v -0.02612282 -0.05630764 0.06027038
v -0.02612282 -0.04994020 0.05926076
v -0.05175208 -0.03373372 0.02604567
v -0.05465687 -0.03373617 0.05770975
v -0.05422394 -0.03373617 0.05896811
v -0.05348658 -0.03373617 0.05977289
v -0.05270451 -0.03373617 0.06022161
v -0.05146159 -0.03404977 0.06049474
v -0.04321644 -0.03373372 0.04662342
v -0.02612282 -0.04982750 0.05913882
v -0.02665071 -0.04894552 0.05864133
v -0.02612282 -0.04871767 0.05770487
v -0.02612282 -0.04823748 0.05611971
v -0.02612282 -0.04799738 0.05443213
v -0.02612282 -0.04798513 0.05429557
v -0.02612282 -0.04790429 0.05295916
v -0.02612282 -0.04788714 0.05137400
v -0.02612282 -0.04788714 0.05131547
v -0.02612282 -0.04820563 0.01092573
v -0.04978016 -0.03373617 0.01092573
v -0.04693123 -0.03373372 0.01810526
v -0.04436719 -0.03373372 0.03553709
v -0.04414932 -0.03373372 0.03712224
v -0.04395381 -0.03373372 0.03871715
v -0.04379181 -0.03373372 0.04028768
v -0.04363261 -0.03373372 0.04187771
v -0.04351530 -0.03373372 0.04306779
v -0.04347899 -0.03373372 0.04345311
v -0.04333933 -0.03373372 0.04503826
v -0.04660443 -0.04184063 0.06022648
v -0.04503193 -0.04344781 0.06024599
v -0.04344547 -0.04504028 0.06024599
v -0.05145322 -0.03555159 0.06028501
v -0.05091974 -0.03677412 0.06020698
v -0.04945896 -0.03849399 0.06022648
v -0.04790322 -0.04038291 0.06022161
v -0.04183666 -0.04660581 0.06022648
v -0.04038146 -0.04792388 0.06022161
v -0.03894862 -0.04844327 0.06039232
v -0.03851569 -0.04947226 0.06022648
v -0.03678957 -0.05094223 0.06020698
v -0.03250220 -0.05312760 0.06028014
v -0.03497128 -0.05233136 0.06012406
v -0.03404957 -0.05261311 0.06019722
v -0.03199945 -0.05396303 0.06014357
v -0.03087943 -0.05423988 0.06022648
v -0.02883769 -0.05556040 0.06014845
v -0.02660044 -0.05684418 0.06001188
v -0.02612282 -0.05777027 0.05938757
v -0.05195317 -0.03373372 0.02469463
v -0.05389716 -0.03492930 0.05682694
v -0.05389995 -0.03493420 0.05770975
v -0.05386085 -0.03487785 0.05853890
v -0.05412339 -0.03404977 0.05887057
v -0.05200066 -0.03373372 0.02436785
v -0.05217941 -0.03373372 0.02288024
v -0.05231907 -0.03373372 0.02129508
v -0.05242799 -0.03373372 0.01971481
v -0.05240286 -0.03373372 0.01812965
v -0.05240007 -0.03373617 0.01810526
v -0.05197273 -0.03602689 0.05983629
v -0.05233583 -0.03497095 0.06012894
v -0.05260117 -0.03404977 0.06020698
v -0.05339440 -0.03404977 0.05966070
v -0.02612282 -0.05400223 0.01092573
v -0.05028012 -0.03373617 0.01159394
v -0.05239727 -0.03373372 0.01810526
v -0.04914893 -0.03471126 0.01092573
v -0.04755129 -0.04122570 0.06010943
v -0.04600951 -0.04285247 0.06012894
v -0.04444260 -0.04445229 0.06013381
v -0.04284496 -0.04601292 0.06012406
v -0.05051474 -0.03783005 0.05998261
v -0.04904838 -0.03954993 0.06006553
v -0.04122498 -0.04755149 0.06010943
v -0.03957147 -0.04907047 0.06007529
v -0.03784815 -0.05052819 0.06000212
v -0.03602706 -0.05199571 0.05988994
v -0.03305523 -0.05371314 0.06003139
v -0.02989347 -0.05530561 0.06003627
v -0.02771208 -0.05659429 0.05981678
v -0.02614796 -0.05779722 0.05935831
v -0.02612282 -0.05779967 0.05936319
v -0.05067674 -0.03959893 0.05690985
v -0.05258162 -0.03688682 0.05770975
v -0.05337485 -0.03572554 0.05770975
v -0.05197552 -0.03439276 0.01810526
v -0.05067395 -0.03642868 0.01888077
v -0.05245872 -0.03671042 0.05877790
v -0.05064043 -0.03954748 0.05804141
v -0.05210959 -0.03373617 0.01599823
v -0.05221014 -0.03373617 0.01654450
v -0.05226879 -0.03373617 0.01699809
v -0.05150070 -0.03727146 0.05938269
v -0.02638258 -0.05389933 0.01092573
v -0.02612282 -0.05458287 0.01178416
v -0.05017398 -0.03407427 0.01176952
v -0.05063484 -0.03373617 0.01210606
v -0.04909865 -0.03485826 0.01098914
v -0.05081360 -0.03373617 0.01238407
v -0.05128283 -0.03373617 0.01338394
v -0.05144763 -0.03373617 0.01379852
v -0.05183307 -0.03373617 0.01490081
v -0.05192245 -0.03373617 0.01520321
v -0.04900648 -0.03491215 0.01092573
v -0.04869645 -0.04038291 0.05974850
v -0.04706529 -0.04228163 0.05971923
v -0.04549838 -0.04390840 0.05975338
v -0.04390074 -0.04550577 0.05975338
v -0.05102588 -0.03849399 0.05892910
v -0.04951482 -0.04038291 0.05895836
v -0.04228076 -0.04706395 0.05971923
v -0.04038146 -0.04871522 0.05975338
v -0.04038146 -0.04951881 0.05895836
v -0.03851290 -0.05106963 0.05894861
v -0.03731746 -0.05153267 0.05941684
v -0.03678119 -0.05251756 0.05883155
v -0.03404957 -0.05420313 0.05893885
v -0.03404957 -0.05340444 0.05972899
v -0.03200504 -0.05560451 0.05873888
v -0.03087943 -0.05590340 0.05904128
v -0.03087943 -0.05503366 0.05983141
v -0.02771208 -0.05748607 0.05902664
v -0.02612282 -0.05784377 0.05932417
v -0.04922155 -0.04132859 0.05770975
v -0.05067674 -0.03959893 0.05698789
v -0.04925786 -0.03823430 0.01812965
v -0.04864896 -0.03902563 0.01812965
v -0.04785573 -0.04002277 0.01810526
v -0.04719098 -0.04081655 0.01812965
v -0.05202021 -0.03767816 0.05770975
v -0.05186659 -0.03426046 0.01654450
v -0.05062646 -0.03636253 0.01782725
v -0.05107615 -0.03575494 0.01826622
v -0.05014885 -0.03706077 0.01826622
v -0.04916289 -0.04126000 0.05859743
v -0.05112084 -0.03893254 0.05759269
v -0.05012371 -0.04022856 0.05759269
v -0.05107615 -0.03543889 0.01654450
v -0.05089739 -0.03517430 0.01495934
v -0.02674568 -0.05373273 0.01092573
v -0.02683785 -0.05379889 0.01105742
v -0.02612282 -0.05460247 0.01181342
v -0.04932768 -0.03548544 0.01194023
v -0.04909865 -0.03644338 0.01256454
v -0.04778870 -0.03652423 0.01092573
v -0.04757364 -0.03680842 0.01092573
v -0.04870204 -0.03591664 0.01151102
v -0.05052032 -0.03462061 0.01292547
v -0.05108732 -0.03407427 0.01342296
v -0.05074657 -0.03495380 0.01397898
v -0.05173811 -0.03393462 0.01501299
v -0.04812108 -0.04177204 0.05915833
v -0.04763508 -0.04290147 0.05866084
v -0.04657371 -0.04340371 0.05920711
v -0.04608492 -0.04451354 0.05869986
v -0.04500121 -0.04500843 0.05922662
v -0.04450125 -0.04608396 0.05869498
v -0.04289244 -0.04763479 0.05866572
v -0.04176683 -0.04811988 0.05915833
v -0.04124732 -0.04915621 0.05859256
v -0.03956589 -0.05065069 0.05819749
v -0.03496011 -0.05391158 0.05860719
v -0.03299658 -0.05526886 0.05770975
v -0.03220334 -0.05571230 0.05770975
v -0.03087943 -0.05642524 0.05770975
v -0.02993537 -0.05692503 0.05770975
v -0.02889914 -0.05719943 0.05874863
v -0.02612282 -0.05876250 0.05770975
v -0.04773005 -0.04300927 0.05770975
v -0.04639775 -0.04171324 0.01812965
v -0.04916848 -0.03811670 0.01684202
v -0.04864059 -0.03870714 0.01640793
v -0.04774122 -0.03987822 0.01654450
v -0.04705412 -0.04066955 0.01654450
v -0.05053150 -0.03623268 0.01654450
v -0.04966006 -0.03737191 0.01640793
v -0.05034995 -0.03596564 0.01495934
v -0.02695236 -0.05363229 0.01092573
v -0.02771487 -0.05356614 0.01139396
v -0.02994933 -0.05217456 0.01111107
v -0.02942144 -0.05231666 0.01092573
v -0.02771487 -0.05408798 0.01218898
v -0.02858072 -0.05387483 0.01252552
v -0.02612282 -0.05529826 0.01310105
v -0.04723567 -0.03767326 0.01134031
v -0.04763229 -0.03817305 0.01239383
v -0.04787249 -0.03848664 0.01337906
v -0.04866293 -0.03746746 0.01337906
v -0.04927461 -0.03667367 0.01337906
v -0.05009857 -0.03554424 0.01342296
v -0.04653182 -0.03810445 0.01092573
v -0.04955672 -0.03705097 0.01495934
v -0.04699547 -0.04380060 0.05770975
v -0.04620503 -0.04463359 0.05770975
v -0.04541179 -0.04542493 0.05770975
v -0.04462415 -0.04620156 0.05770975
v -0.04378902 -0.04698800 0.05770975
v -0.04299579 -0.04772544 0.05770975
v -0.04211317 -0.04851677 0.05770975
v -0.04131994 -0.04921501 0.05770975
v -0.04023343 -0.05012885 0.05768536
v -0.03960778 -0.05068499 0.05714397
v -0.03894583 -0.05117743 0.05768536
v -0.03778111 -0.05208636 0.05770975
v -0.03698788 -0.05266210 0.05770975
v -0.03584551 -0.05345589 0.05770975
v -0.03505507 -0.05397038 0.05770975
v -0.03404957 -0.05461227 0.05770975
v -0.03357754 -0.05245386 0.01810526
v -0.03246589 -0.05313004 0.01812965
v -0.03145201 -0.05372294 0.01810526
v -0.03067274 -0.05416148 0.01810526
v -0.02931531 -0.05488421 0.01810526
v -0.02914493 -0.05731948 0.05770975
v -0.02839918 -0.05535216 0.01810526
v -0.02771208 -0.05801771 0.05770975
v -0.02671495 -0.05849300 0.05770975
v -0.02612282 -0.05642034 0.01813941
v -0.04568272 -0.04250213 0.01812965
v -0.04626368 -0.04156134 0.01654450
v -0.04907910 -0.03800155 0.01578850
v -0.04761553 -0.03972632 0.01537392
v -0.02926224 -0.05302470 0.01181342
v -0.03181231 -0.05095203 0.01092573
v -0.03021467 -0.05187322 0.01092573
v -0.03060850 -0.05253471 0.01216459
v -0.03166428 -0.05224806 0.01260356
v -0.03103584 -0.05197367 0.01170124
v -0.02651385 -0.05523211 0.01337906
v -0.02771487 -0.05465392 0.01337906
v -0.02891310 -0.05404878 0.01337906
v -0.02970354 -0.05362739 0.01337906
v -0.02612282 -0.05540606 0.01337906
v -0.04599834 -0.03875124 0.01092573
v -0.04573020 -0.03937598 0.01122326
v -0.04669102 -0.03877574 0.01181342
v -0.04614637 -0.03984637 0.01228165
v -0.04723847 -0.03927553 0.01337906
v -0.04745353 -0.03953278 0.01431553
v -0.04895621 -0.03784230 0.01495934
v -0.04488670 -0.04332776 0.01812965
v -0.04411301 -0.04411665 0.01812965
v -0.04331978 -0.04488838 0.01812965
v -0.04248465 -0.04567482 0.01812965
v -0.04169142 -0.04640001 0.01812965
v -0.04081160 -0.04719135 0.01812965
v -0.04129480 -0.04919051 0.05677816
v -0.03960778 -0.05068499 0.05690010
v -0.03642927 -0.05067274 0.01887589
v -0.03438474 -0.05193447 0.01810526
v -0.03422553 -0.05185607 0.01654450
v -0.03343509 -0.05236321 0.01654450
v -0.03246589 -0.05293895 0.01654450
v -0.03130118 -0.05362249 0.01654450
v -0.03051074 -0.05406838 0.01654450
v -0.02929855 -0.05470782 0.01654450
v -0.02818970 -0.05526641 0.01654450
v -0.02758918 -0.05574170 0.01810526
v -0.02613399 -0.05641299 0.01810526
v -0.02612282 -0.05622924 0.01654450
v -0.04554307 -0.04235023 0.01654450
v -0.04474984 -0.04318811 0.01654450
v -0.04609889 -0.04137270 0.01522760
v -0.04810152 -0.03892518 0.01489106
v -0.03217262 -0.05073889 0.01092573
v -0.03460818 -0.05051349 0.01293035
v -0.03355240 -0.05086138 0.01229628
v -0.03245472 -0.05118968 0.01177928
v -0.03103584 -0.05284095 0.01322786
v -0.03202180 -0.05245386 0.01365708
v -0.03251617 -0.05198346 0.01322786
v -0.03406912 -0.05108678 0.01342296
v -0.02612282 -0.05552120 0.01368146
v -0.02687695 -0.05539871 0.01425212
v -0.03003033 -0.05380623 0.01428138
v -0.04517997 -0.03968222 0.01092573
v -0.04418843 -0.04101745 0.01117448
v -0.04517159 -0.04042946 0.01172563
v -0.04461297 -0.04147559 0.01222800
v -0.04412139 -0.04253397 0.01300838
v -0.04644803 -0.04017711 0.01337906
v -0.04591734 -0.04117670 0.01417408
v -0.04409905 -0.04412645 0.01810526
v -0.04331978 -0.04488593 0.01810526
v -0.04233662 -0.04553272 0.01654450
v -0.04154338 -0.04626771 0.01654450
v -0.04168863 -0.04640001 0.01810526
v -0.04080881 -0.04719135 0.01810526
v -0.04079763 -0.04720114 0.01810526
v -0.04002116 -0.04785773 0.01812965
v -0.03903520 -0.04865152 0.01810526
v -0.03824477 -0.04926646 0.01812965
v -0.03706050 -0.05015335 0.01826134
v -0.03635944 -0.05062619 0.01781750
v -0.03596561 -0.05090793 0.01810526
v -0.03543773 -0.05106718 0.01654450
v -0.03331219 -0.05228481 0.01562755
v -0.03029567 -0.05395323 0.01533978
v -0.02715626 -0.05553346 0.01530564
v -0.02739926 -0.05564615 0.01654450
v -0.02613120 -0.05622679 0.01654450
v -0.02612282 -0.05591565 0.01501299
v -0.04453477 -0.04296517 0.01495934
v -0.04396498 -0.04397700 0.01654450
v -0.04544531 -0.04192883 0.01480326
v -0.03297144 -0.05048899 0.01124276
v -0.03466684 -0.04915131 0.01092573
v -0.03642368 -0.04908516 0.01258405
v -0.03496011 -0.05075359 0.01398386
v -0.03547962 -0.04931301 0.01195486
v -0.03484839 -0.04909007 0.01099402
v -0.03308037 -0.05214516 0.01456915
v -0.02612282 -0.05588380 0.01486179
v -0.02625968 -0.05582255 0.01484716
v -0.02769811 -0.05515126 0.01484716
v -0.02942144 -0.05428397 0.01487155
v -0.03084870 -0.05350979 0.01487155
v -0.04441746 -0.04051766 0.01092573
v -0.04371919 -0.04126490 0.01092573
v -0.04283379 -0.04221058 0.01092573
v -0.04262710 -0.04263442 0.01113546
v -0.04362981 -0.04205623 0.01168173
v -0.04306561 -0.04306807 0.01219386
v -0.04252096 -0.04412155 0.01305228
v -0.04438115 -0.04280592 0.01406678
v -0.04484759 -0.04199009 0.01347661
v -0.04317454 -0.04474384 0.01654450
v -0.04135625 -0.04609867 0.01523248
v -0.04066357 -0.04705905 0.01654450
v -0.04001836 -0.04785773 0.01810526
v -0.03987313 -0.04773769 0.01654450
v -0.03813025 -0.04918071 0.01683714
v -0.03824477 -0.04926401 0.01810526
v -0.03622816 -0.05053309 0.01654450
v -0.03517797 -0.05090058 0.01495934
v -0.03392108 -0.05174092 0.01504714
v -0.03251617 -0.05259840 0.01504714
v -0.04373036 -0.04375650 0.01495934
v -0.03490983 -0.04898227 0.01092573
v -0.03814980 -0.04761274 0.01241822
v -0.03764984 -0.04721585 0.01136470
v -0.03590696 -0.04868582 0.01153053
v -0.03666388 -0.04926401 0.01337906
v -0.03745712 -0.04864907 0.01337906
v -0.03845424 -0.04786018 0.01337906
v -0.03597120 -0.05034445 0.01495934
v -0.03705492 -0.04955555 0.01495934
v -0.03673651 -0.04757599 0.01092573
v -0.04219697 -0.04284267 0.01092573
v -0.04100991 -0.04419504 0.01116960
v -0.04146518 -0.04462379 0.01222312
v -0.04095963 -0.04573362 0.01337906
v -0.04198190 -0.04484184 0.01349612
v -0.04278072 -0.04437144 0.01410580
v -0.04293992 -0.04452089 0.01495934
v -0.03971672 -0.04761029 0.01541294
v -0.04191486 -0.04542982 0.01480814
v -0.04116353 -0.04591737 0.01417896
v -0.04044012 -0.04676750 0.01479839
v -0.03800177 -0.04908271 0.01577874
v -0.03871400 -0.04863682 0.01640305
v -0.03737053 -0.04966580 0.01640305
v -0.03983682 -0.04613297 0.01229628
v -0.03875310 -0.04667440 0.01182805
v -0.03924468 -0.04721829 0.01337906
v -0.03935082 -0.04572382 0.01123789
v -0.03868886 -0.04600312 0.01092573
v -0.03811349 -0.04646861 0.01092573
v -0.03784536 -0.04896022 0.01495934
v -0.03951003 -0.04744124 0.01435942
v -0.04125849 -0.04372711 0.01092573
v -0.04050995 -0.04442044 0.01092573
v -0.03967761 -0.04515788 0.01092573
v -0.04042336 -0.04517258 0.01173538
v -0.04016919 -0.04642941 0.01337906
v -0.03891231 -0.04810028 0.01491545
f 1 2 11
f 1 11 26
f 1 26 56
f 1 56 104
f 1 104 138
f 1 138 179
f 1 179 224
f 1 224 274
f 1 274 316
f 1 316 358
f 1 358 369
f 1 369 329
f 1 329 289
f 1 289 240
f 1 240 198
f 1 198 151
f 1 151 120
f 1 120 74
f 1 74 73
f 1 73 72
f 1 72 71
f 1 71 70
f 1 70 69
f 1 69 68
f 1 68 67
f 1 67 65
f 1 65 57
f 1 57 28
f 1 28 12
f 1 12 3
f 1 3 4
f 1 4 5
f 1 5 6
f 1 6 7
f 1 7 8
f 1 8 9
f 1 9 2
f 2 9 10
f 2 10 11
f 3 12 13
f 3 13 4
f 4 14 5
f 4 13 15
f 4 15 14
f 5 14 6
f 6 16 7
f 6 14 17
f 6 17 18
f 6 18 19
f 6 19 16
f 7 16 8
f 8 16 20
f 8 20 21
f 8 21 22
f 8 22 23
f 8 23 10
f 8 10 9
f 10 23 24
f 10 24 25
f 10 25 11
f 11 25 26
f 12 27 13
f 12 28 27
f 13 27 15
f 14 15 29
f 14 29 30
f 14 30 17
f 15 31 64
f 15 64 84
f 15 84 83
f 15 83 82
f 15 82 81
f 15 81 80
f 15 80 79
f 15 79 78
f 15 78 77
f 15 77 76
f 15 76 122
f 15 122 114
f 15 114 113
f 15 113 112
f 15 112 111
f 15 111 110
f 15 110 105
f 15 105 58
f 15 58 29
f 15 27 32
f 15 32 33
f 15 33 34
f 15 34 35
f 15 35 36
f 15 36 37
f 15 37 38
f 15 38 39
f 15 39 40
f 15 40 41
f 15 41 42
f 15 42 31
f 16 19 43
f 16 43 44
f 16 44 20
f 17 30 45
f 17 45 18
f 18 45 46
f 18 46 47
f 18 47 43
f 18 43 19
f 20 44 48
f 20 48 21
f 21 48 22
f 22 24 23
f 22 48 49
f 22 49 24
f 24 49 50
f 24 50 51
f 24 51 52
f 24 52 53
f 24 53 25
f 25 53 54
f 25 54 55
f 25 55 26
f 26 55 56
f 27 28 32
f 28 57 32
f 29 58 59
f 29 59 60
f 29 60 61
f 29 61 62
f 29 62 30
f 30 63 45
f 30 62 63
f 31 42 64
f 32 57 33
f 33 57 65
f 33 65 66
f 33 66 34
f 34 66 35
f 35 67 36
f 35 66 67
f 36 67 37
f 37 68 69
f 37 69 38
f 37 67 68
f 38 69 39
f 39 69 70
f 39 70 71
f 39 71 40
f 40 71 41
f 41 71 72
f 41 72 73
f 41 73 42
f 42 74 120
f 42 120 150
f 42 150 196
f 42 196 234
f 42 234 237
f 42 237 281
f 42 281 280
f 42 280 321
f 42 321 363
f 42 363 395
f 42 395 404
f 42 404 424
f 42 424 423
f 42 423 429
f 42 429 428
f 42 428 427
f 42 427 405
f 42 405 376
f 42 376 375
f 42 375 374
f 42 374 332
f 42 332 290
f 42 290 247
f 42 247 202
f 42 202 201
f 42 201 160
f 42 160 123
f 42 123 75
f 42 75 122
f 42 122 76
f 42 76 77
f 42 77 78
f 42 78 79
f 42 79 80
f 42 80 81
f 42 81 82
f 42 82 83
f 42 83 84
f 42 84 64
f 42 73 74
f 43 47 85
f 43 85 86
f 43 86 44
f 44 86 87
f 44 87 48
f 45 63 88
f 45 88 46
f 46 88 89
f 46 89 90
f 46 90 91
f 46 91 47
f 47 91 85
f 48 87 92
f 48 92 49
f 49 92 93
f 49 93 94
f 49 94 50
f 50 94 95
f 50 95 96
f 50 96 51
f 51 97 52
f 51 96 98
f 51 98 99
f 51 99 100
f 51 100 101
f 51 101 97
f 52 97 53
f 53 97 101
f 53 101 54
f 54 101 102
f 54 102 55
f 55 102 103
f 55 103 56
f 56 103 104
f 58 105 59
f 59 106 107
f 59 107 108
f 59 108 109
f 59 109 60
f 59 105 110
f 59 110 111
f 59 111 112
f 59 112 113
f 59 113 114
f 59 114 115
f 59 115 106
f 60 109 61
f 61 116 117
f 61 117 118
f 61 118 62
f 61 109 119
f 61 119 116
f 62 118 63
f 63 118 88
f 65 67 66
f 75 121 122
f 75 123 121
f 85 91 124
f 85 124 125
f 85 125 86
f 86 125 126
f 86 126 87
f 87 126 127
f 87 127 92
f 88 118 117
f 88 117 89
f 89 117 128
f 89 128 129
f 89 129 90
f 90 129 124
f 90 124 91
f 92 127 130
f 92 130 93
f 93 130 131
f 93 131 95
f 93 95 94
f 95 131 96
f 96 131 132
f 96 132 133
f 96 133 98
f 98 133 134
f 98 134 100
f 98 100 99
f 100 102 101
f 100 134 102
f 102 134 135
f 102 135 103
f 103 135 136
f 103 136 137
f 103 137 104
f 104 137 138
f 106 139 140
f 106 140 141
f 106 141 107
f 106 115 142
f 106 142 143
f 106 143 139
f 107 141 108
f 108 144 109
f 108 141 140
f 108 140 145
f 108 145 144
f 109 144 116
f 109 116 119
f 114 122 146
f 114 146 147
f 114 147 148
f 114 148 115
f 115 148 142
f 116 128 117
f 116 144 149
f 116 149 128
f 120 151 150
f 121 152 153
f 121 153 122
f 121 123 154
f 121 154 152
f 122 153 155
f 122 155 156
f 122 156 157
f 122 157 158
f 122 158 159
f 122 159 146
f 123 160 154
f 124 129 161
f 124 161 162
f 124 162 125
f 125 162 163
f 125 163 126
f 126 163 164
f 126 164 127
f 127 164 130
f 128 149 165
f 128 165 166
f 128 166 129
f 129 166 161
f 130 164 167
f 130 167 131
f 131 167 168
f 131 168 169
f 131 169 170
f 131 170 132
f 132 170 171
f 132 171 133
f 133 171 172
f 133 172 173
f 133 173 174
f 133 174 134
f 134 174 173
f 134 173 175
f 134 175 176
f 134 176 177
f 134 177 135
f 135 177 176
f 135 176 178
f 135 178 136
f 136 178 137
f 137 179 138
f 137 178 179
f 139 180 181
f 139 181 140
f 139 143 182
f 139 182 183
f 139 183 184
f 139 184 185
f 139 185 180
f 140 186 145
f 140 181 186
f 142 148 187
f 142 187 188
f 142 188 189
f 142 189 143
f 143 189 188
f 143 188 190
f 143 190 182
f 144 145 191
f 144 191 165
f 144 165 149
f 145 186 192
f 145 192 181
f 145 181 193
f 145 193 180
f 145 180 191
f 146 194 187
f 146 187 147
f 146 159 195
f 146 195 194
f 147 187 148
f 150 151 197
f 150 197 196
f 151 198 197
f 152 154 199
f 152 199 153
f 153 199 200
f 153 200 155
f 154 160 201
f 154 201 202
f 154 202 203
f 154 203 200
f 154 200 199
f 155 200 204
f 155 204 156
f 156 205 157
f 156 204 205
f 157 205 206
f 157 206 158
f 158 206 207
f 158 207 159
f 159 207 195
f 161 166 191
f 161 191 208
f 161 208 162
f 162 208 209
f 162 209 210
f 162 210 163
f 163 210 211
f 163 211 212
f 163 212 164
f 164 212 213
f 164 213 214
f 164 214 167
f 165 191 166
f 167 214 215
f 167 215 168
f 168 215 216
f 168 216 169
f 169 216 170
f 170 216 172
f 170 172 171
f 172 216 217
f 172 217 218
f 172 218 173
f 173 218 175
f 175 218 219
f 175 219 220
f 175 220 221
f 175 221 222
f 175 222 223
f 175 223 176
f 176 223 178
f 178 223 224
f 178 224 179
f 180 225 191
f 180 193 181
f 180 185 226
f 180 226 225
f 181 192 186
f 182 188 227
f 182 227 183
f 182 190 188
f 183 227 228
f 183 228 229
f 183 229 184
f 184 229 185
f 185 229 230
f 185 230 226
f 187 194 188
f 188 194 231
f 188 231 232
f 188 232 227
f 191 209 208
f 191 225 209
f 194 195 231
f 195 206 233
f 195 233 231
f 195 207 206
f 196 197 234
f 197 235 236
f 197 236 237
f 197 237 234
f 197 198 238
f 197 238 239
f 197 239 235
f 198 240 238
f 200 203 241
f 200 241 242
f 200 242 243
f 200 243 244
f 200 244 245
f 200 245 246
f 200 246 204
f 202 247 241
f 202 241 203
f 204 246 206
f 204 206 205
f 206 246 245
f 206 245 248
f 206 248 233
f 209 211 210
f 209 225 249
f 209 249 250
f 209 250 211
f 211 213 212
f 211 250 251
f 211 251 213
f 213 251 252
f 213 252 214
f 214 252 253
f 214 253 254
f 214 254 216
f 214 216 215
f 216 254 255
f 216 255 256
f 216 256 217
f 217 256 257
f 217 257 258
f 217 258 259
f 217 259 260
f 217 260 218
f 218 260 261
f 218 261 262
f 218 262 263
f 218 263 264
f 218 264 219
f 219 264 265
f 219 265 266
f 219 266 267
f 219 267 268
f 219 268 220
f 220 268 221
f 221 268 269
f 221 269 222
f 222 270 223
f 222 269 271
f 222 271 270
f 223 270 272
f 223 272 273
f 223 273 224
f 224 273 274
f 225 226 275
f 225 275 249
f 226 230 276
f 226 276 275
f 227 232 277
f 227 277 228
f 228 277 229
f 229 277 278
f 229 278 230
f 230 278 276
f 231 233 277
f 231 277 232
f 233 248 277
f 235 239 279
f 235 279 236
f 236 280 281
f 236 281 237
f 236 279 282
f 236 282 283
f 236 283 284
f 236 284 280
f 238 240 239
f 239 283 282
f 239 282 279
f 239 240 285
f 239 285 286
f 239 286 287
f 239 287 288
f 239 288 283
f 240 289 285
f 241 247 290
f 241 290 291
f 241 291 292
f 241 292 242
f 242 292 293
f 242 293 294
f 242 294 243
f 243 294 295
f 243 295 244
f 244 295 245
f 245 295 248
f 248 295 296
f 248 296 277
f 249 275 250
f 250 275 297
f 250 297 298
f 250 298 251
f 251 298 252
f 252 298 299
f 252 299 300
f 252 300 253
f 253 300 254
f 254 300 301
f 254 301 302
f 254 302 255
f 255 302 303
f 255 303 304
f 255 304 256
f 256 304 258
f 256 258 257
f 258 304 260
f 258 260 259
f 260 304 305
f 260 305 261
f 261 305 262
f 262 305 263
f 263 305 265
f 263 265 264
f 265 305 306
f 265 306 307
f 265 307 308
f 265 308 266
f 266 308 309
f 266 309 267
f 267 309 310
f 267 310 311
f 267 311 268
f 268 311 269
f 269 311 312
f 269 312 271
f 270 271 272
f 271 312 313
f 271 313 314
f 271 314 272
f 272 314 273
f 273 314 274
f 274 314 315
f 274 315 316
f 275 276 317
f 275 317 318
f 275 318 297
f 276 278 319
f 276 319 317
f 277 296 320
f 277 320 278
f 278 320 295
f 278 295 319
f 280 284 321
f 283 322 323
f 283 323 324
f 283 324 284
f 283 288 325
f 283 325 326
f 283 326 327
f 283 327 328
f 283 328 322
f 284 324 321
f 285 289 329
f 285 329 330
f 285 330 286
f 286 330 287
f 287 330 331
f 287 331 288
f 288 331 325
f 290 332 291
f 291 333 334
f 291 334 293
f 291 293 292
f 291 332 333
f 293 334 335
f 293 335 336
f 293 336 337
f 293 337 294
f 294 337 295
f 295 338 319
f 295 320 296
f 295 337 338
f 297 318 298
f 298 318 339
f 298 339 340
f 298 340 299
f 299 340 300
f 300 340 341
f 300 341 342
f 300 342 343
f 300 343 301
f 301 343 344
f 301 344 302
f 302 344 345
f 302 345 346
f 302 346 304
f 302 304 303
f 304 346 347
f 304 347 348
f 304 348 305
f 305 348 349
f 305 349 350
f 305 350 351
f 305 351 306
f 306 351 350
f 306 350 307
f 307 350 352
f 307 352 353
f 307 353 308
f 308 353 309
f 309 353 310
f 310 353 354
f 310 354 311
f 311 354 312
f 312 354 355
f 312 355 313
f 313 355 356
f 313 356 314
f 314 356 315
f 315 356 357
f 315 357 316
f 316 357 358
f 317 319 359
f 317 359 318
f 318 360 339
f 318 359 360
f 319 338 361
f 319 361 359
f 321 324 362
f 321 362 363
f 322 364 323
f 322 328 365
f 322 365 364
f 323 364 366
f 323 366 367
f 323 367 362
f 323 362 324
f 325 331 326
f 326 331 368
f 326 368 327
f 327 368 365
f 327 365 328
f 329 369 330
f 330 369 370
f 330 370 355
f 330 355 371
f 330 371 372
f 330 372 331
f 331 372 354
f 331 354 373
f 331 373 368
f 332 374 333
f 333 374 375
f 333 375 376
f 333 376 377
f 333 377 378
f 333 378 335
f 333 335 334
f 335 378 379
f 335 379 336
f 336 379 380
f 336 380 381
f 336 381 382
f 336 382 337
f 337 382 338
f 338 382 381
f 338 381 361
f 339 360 340
f 340 360 383
f 340 383 341
f 341 383 384
f 341 384 342
f 342 385 344
f 342 344 343
f 342 384 385
f 344 385 345
f 345 386 346
f 345 385 387
f 345 387 386
f 346 386 347
f 347 386 387
f 347 387 388
f 347 388 389
f 347 389 348
f 348 389 350
f 348 350 349
f 350 388 390
f 350 390 352
f 350 389 388
f 352 390 391
f 352 391 353
f 353 391 392
f 353 392 368
f 353 368 393
f 353 393 354
f 354 393 373
f 354 372 371
f 354 371 355
f 355 370 358
f 355 358 357
f 355 357 356
f 358 370 369
f 359 394 360
f 359 361 381
f 359 381 394
f 360 394 383
f 362 367 363
f 363 367 395
f 364 396 397
f 364 397 398
f 364 398 367
f 364 367 366
f 364 365 399
f 364 399 400
f 364 400 401
f 364 401 396
f 365 368 391
f 365 391 402
f 365 402 403
f 365 403 399
f 367 398 397
f 367 397 404
f 367 404 395
f 368 373 393
f 368 392 391
f 376 405 377
f 377 406 407
f 377 407 379
f 377 379 378
f 377 405 406
f 379 407 380
f 380 408 409
f 380 409 410
f 380 410 381
f 380 407 408
f 381 410 394
f 383 394 411
f 383 411 384
f 384 412 385
f 384 411 413
f 384 413 414
f 384 414 415
f 384 415 412
f 385 412 387
f 387 412 416
f 387 416 417
f 387 417 388
f 388 417 416
f 388 416 418
f 388 418 390
f 390 418 416
f 390 416 402
f 390 402 391
f 394 410 411
f 396 419 420
f 396 420 397
f 396 401 421
f 396 421 419
f 397 422 423
f 397 423 424
f 397 424 404
f 397 420 422
f 399 403 425
f 399 425 426
f 399 426 400
f 400 426 401
f 401 426 421
f 402 416 403
f 403 416 425
f 405 427 406
f 406 427 428
f 406 428 429
f 406 429 422
f 406 422 430
f 406 430 407
f 407 430 419
f 407 419 408
f 408 419 431
f 408 431 414
f 408 414 409
f 409 414 410
f 410 414 411
f 411 414 413
f 412 415 426
f 412 426 432
f 412 432 416
f 414 426 415
f 414 431 426
f 416 432 425
f 419 421 431
f 419 430 422
f 419 422 420
f 421 426 431
f 422 429 423
f 425 432 426

