# https://github.com/mikedh/trimesh
v -0.03941971 0.00006307 0.00449915
v -0.02462137 -0.03131320 0.00449915
v -0.05146232 0.00006307 0.00449915
v -0.05487944 0.00006307 0.01092440
v -0.04510688 -0.03131320 0.01092440
v -0.04138663 -0.03131320 0.00449915
v -0.05146576 -0.00033926 0.00449915
v -0.05202724 0.00006307 0.00477340
v -0.05980533 0.00006307 0.01092440
v -0.05126253 -0.03131320 0.01092440
v -0.04148653 -0.03131320 0.00453500
v -0.04156920 -0.03106750 0.00449915
v -0.05146921 -0.00079381 0.00449915
v -0.05203069 -0.00079381 0.00477214
v -0.05257839 0.00006307 0.00506148
v -0.05918529 0.00006307 0.01012557
v -0.05925418 -0.00079381 0.01020545
v -0.05980533 -0.00079381 0.01092440
v -0.05196180 -0.03011233 0.01092440
v -0.05102484 -0.03131320 0.01060801
v -0.04191711 -0.03131320 0.00471364
v -0.04170009 -0.03087708 0.00449915
v -0.05141065 -0.00237553 0.00449915
v -0.05200313 -0.00237553 0.00478598
v -0.05304687 -0.00079381 0.00530427
v -0.05304687 0.00006307 0.00530679
v -0.05860314 0.00006307 0.00940033
v -0.05979500 -0.00116237 0.01092440
v -0.05859970 -0.00079381 0.00940222
v -0.05858936 -0.00161999 0.00941291
v -0.05857558 -0.00267344 0.00942864
v -0.05908540 -0.00224039 0.01005575
v -0.05231660 -0.02947350 0.01092440
v -0.05094906 -0.03131320 0.01050738
v -0.04307108 -0.03131320 0.00521936
v -0.04242348 -0.03087708 0.00479981
v -0.04177588 -0.03076651 0.00449915
v -0.05130731 -0.00396031 0.00449915
v -0.05195146 -0.00396031 0.00481176
v -0.05304687 -0.00237553 0.00533572
v -0.05423873 -0.00079381 0.00598737
v -0.05423873 0.00006307 0.00598863
v -0.05837579 0.00006307 0.00919528
v -0.05779709 -0.00079381 0.00867195
v -0.05971577 -0.00292222 0.01092440
v -0.05916807 -0.00396031 0.01025326
v -0.05794865 -0.00224039 0.00884492
v -0.05775575 -0.00396031 0.00873044
v -0.05854803 -0.00396031 0.00946135
v -0.05105240 -0.03073273 0.01024382
v -0.05280574 -0.02854290 0.01092440
v -0.05247161 -0.02890224 0.01072941
v -0.05068382 -0.03010926 0.00940159
v -0.05036002 -0.03116578 0.00974125
v -0.05030835 -0.03131320 0.00978717
v -0.04356367 -0.03131320 0.00544077
v -0.04354645 -0.03087708 0.00529232
v -0.04357400 -0.02941515 0.00487466
v -0.04271283 -0.03002326 0.00468093
v -0.04294362 -0.02902202 0.00449915
v -0.05115574 -0.00554510 0.00449915
v -0.05187223 -0.00554510 0.00484888
v -0.05304687 -0.00396031 0.00539171
v -0.05421117 -0.00237553 0.00600498
v -0.05466587 0.00006307 0.00626853
v -0.05503101 -0.00079381 0.00650692
v -0.05692558 0.00006307 0.00789136
v -0.05692902 -0.00079381 0.00789136
v -0.05965721 -0.00396031 0.01092440
v -0.05910951 -0.00554510 0.01032182
v -0.05690147 -0.00237553 0.00791148
v -0.05769375 -0.00554510 0.00877573
v -0.05686702 -0.00396031 0.00793916
v -0.05681191 -0.00554510 0.00798382
v -0.05848602 -0.00554510 0.00953054
v -0.05363247 -0.02694890 0.01092440
v -0.05271274 -0.02761844 0.01020294
v -0.05231315 -0.02702875 0.00935882
v -0.05201347 -0.02808528 0.00967395
v -0.05147610 -0.02761844 0.00894619
v -0.05034280 -0.02771058 0.00807943
v -0.04981576 -0.02930151 0.00837191
v -0.04894426 -0.02983591 0.00793476
v -0.04863079 -0.03087708 0.00816749
v -0.04985021 -0.03073273 0.00904306
v -0.04960564 -0.03131320 0.00912735
v -0.05017745 -0.03131320 0.00965382
v -0.04463496 -0.03131320 0.00594523
v -0.04510344 -0.03076651 0.00599114
v -0.04512755 -0.02929537 0.00553386
v -0.04504143 -0.02766451 0.00501996
v -0.04411826 -0.02816513 0.00475515
v -0.04306419 -0.02896674 0.00453438
v -0.04318820 -0.02865040 0.00449915
v -0.05100762 -0.00693332 0.00449915
v -0.05099729 -0.00712681 0.00450418
v -0.05178957 -0.00712681 0.00489165
v -0.05304687 -0.00554510 0.00547347
v -0.05410095 -0.00554510 0.00607983
v -0.05416639 -0.00396031 0.00603580
v -0.05495867 -0.00396031 0.00655221
v -0.05500345 -0.00237553 0.00652454
v -0.05502756 0.00006307 0.00650755
v -0.05613675 -0.00079381 0.00729884
v -0.05562694 0.00006307 0.00693528
v -0.05656389 0.00006307 0.00761900
v -0.05610919 -0.00237553 0.00731645
v -0.05961243 -0.00461143 0.01092440
v -0.05903373 -0.00712681 0.01041114
v -0.05953320 -0.00554510 0.01092440
v -0.05841024 -0.00712681 0.00961922
v -0.05761796 -0.00712681 0.00883800
v -0.05607475 -0.00396031 0.00734413
v -0.05601963 -0.00554510 0.00738753
v -0.05594385 -0.00712681 0.00743722
v -0.05673613 -0.00712681 0.00804609
v -0.05373236 -0.02673698 0.01092440
v -0.05140720 -0.02619951 0.00831153
v -0.05060459 -0.02677384 0.00788066
v -0.05338445 -0.02623022 0.01021552
v -0.05384259 -0.02376398 0.00940788
v -0.04924394 -0.02877939 0.00771964
v -0.04783852 -0.03087708 0.00760705
v -0.04770417 -0.03131320 0.00769637
v -0.04810720 -0.03131320 0.00798130
v -0.04852745 -0.03131320 0.00829958
v -0.04486231 -0.03131320 0.00605404
v -0.04597150 -0.03016454 0.00621947
v -0.04624363 -0.02929537 0.00607480
v -0.04678100 -0.02771672 0.00586345
v -0.04445584 -0.02710861 0.00461237
v -0.04671211 -0.02612580 0.00538164
v -0.04553058 -0.02612580 0.00483252
v -0.04400459 -0.02739424 0.00449915
v -0.04373590 -0.02781193 0.00449915
v -0.05098695 -0.00712681 0.00449915
v -0.05077338 -0.00871160 0.00449915
v -0.05167933 -0.00871160 0.00494826
v -0.05304687 -0.00712681 0.00556531
v -0.05402516 -0.00712681 0.00612952
v -0.05489322 -0.00554510 0.00659561
v -0.05613330 0.00006307 0.00729947
v -0.05893039 -0.00871160 0.01053316
v -0.05937819 -0.00712681 0.01092440
v -0.05946087 -0.00634363 0.01092440
v -0.05831379 -0.00871160 0.00974125
v -0.05752151 -0.00871160 0.00892606
v -0.05584051 -0.00871160 0.00751144
v -0.05481399 -0.00712681 0.00664593
v -0.05471065 -0.00871160 0.00671953
v -0.05663278 -0.00871160 0.00813478
v -0.05389771 -0.02637764 0.01092440
v -0.05305721 -0.02439359 0.00899714
v -0.05189635 -0.02454408 0.00810522
v -0.05213747 -0.02348756 0.00791778
v -0.05110752 -0.02454408 0.00751836
v -0.04999833 -0.02619951 0.00729129
v -0.04955052 -0.02771058 0.00751710
v -0.05403205 -0.02577260 0.01075017
v -0.05421806 -0.02439359 0.01021552
v -0.05506890 -0.02371791 0.01092440
v -0.05548226 -0.02273202 0.01092440
v -0.05553393 -0.02245868 0.01085081
v -0.05574061 -0.02137759 0.01058789
v -0.05508612 -0.02137759 0.00979597
v -0.05530313 -0.02025657 0.00954248
v -0.05548571 -0.01920004 0.00935001
v -0.05429385 -0.02137759 0.00901035
v -0.05336034 -0.02137759 0.00821844
v -0.05295386 -0.02295930 0.00840273
v -0.04836900 -0.02930151 0.00734413
v -0.04703590 -0.02929537 0.00651384
v -0.04658465 -0.03076651 0.00680130
v -0.04661910 -0.03131320 0.00704158
v -0.04548924 -0.03131320 0.00638049
v -0.04735626 -0.02824806 0.00633080
v -0.04557880 -0.03131320 0.00642830
v -0.04561325 -0.03122106 0.00641320
v -0.04765939 -0.02719153 0.00616097
v -0.04471074 -0.02622715 0.00449915
v -0.04665354 -0.02457480 0.00496524
v -0.04793841 -0.02612580 0.00600498
v -0.04839311 -0.02457787 0.00583263
v -0.04580960 -0.02512456 0.00471238
v -0.04480031 -0.02607051 0.00449915
v -0.04476930 -0.02612580 0.00449915
v -0.05052536 -0.01029331 0.00449915
v -0.05069071 -0.01118705 0.00465326
v -0.05155533 -0.01029331 0.00501745
v -0.05304687 -0.00871160 0.00568922
v -0.05391837 -0.00871160 0.00619620
v -0.05880293 -0.01029331 0.01069985
v -0.05917840 -0.00872388 0.01092440
v -0.05926107 -0.00812191 0.01092440
v -0.05739062 -0.01029331 0.00904306
v -0.05724249 -0.01187809 0.00917955
v -0.05818289 -0.01029331 0.00990794
v -0.05570616 -0.01029331 0.00760956
v -0.05447986 -0.01017967 0.00673211
v -0.05384948 -0.00957463 0.00624023
v -0.05376336 -0.01062808 0.00629432
v -0.05649844 -0.01029331 0.00825178
v -0.05236138 -0.02243104 0.00774857
v -0.05155188 -0.02295930 0.00733784
v -0.05029113 -0.02295930 0.00648365
v -0.04981231 -0.02457787 0.00666669
v -0.04898559 -0.02512763 0.00630690
v -0.04873068 -0.02612580 0.00645723
v -0.04823121 -0.02771672 0.00667990
v -0.05561660 -0.02237883 0.01092440
v -0.05594385 -0.01975595 0.01012431
v -0.05626420 -0.02060976 0.01092440
v -0.05682568 -0.01899734 0.01092440
v -0.05652255 -0.01829401 0.01026710
v -0.05666379 -0.01662630 0.00981421
v -0.05689458 -0.01504459 0.00953997
v -0.05700481 -0.01425220 0.00941417
v -0.05563727 -0.01820802 0.00920660
v -0.05455564 -0.01831551 0.00831090
v -0.05381159 -0.01891748 0.00785173
v -0.05471754 -0.01975595 0.00885939
v -0.05365313 -0.01979280 0.00797690
v -0.05256806 -0.02137759 0.00759573
v -0.04611962 -0.03131320 0.00674532
v -0.04608517 -0.02406803 0.00459099
v -0.04829666 -0.02295930 0.00538164
v -0.04714614 -0.02295930 0.00482434
v -0.04924050 -0.02407111 0.00615720
v -0.04949885 -0.02295930 0.00601316
v -0.04548924 -0.02482357 0.00449915
v -0.05031524 -0.01150340 0.00449915
v -0.05058048 -0.01224051 0.00470798
v -0.05131764 -0.01177981 0.00503695
v -0.05285397 -0.01187809 0.00588862
v -0.05316055 -0.01017967 0.00589302
v -0.05868926 -0.01157404 0.01085899
v -0.05894416 -0.01029331 0.01092440
v -0.05898894 -0.01000461 0.01092440
v -0.05634688 -0.01187809 0.00838827
v -0.05711159 -0.01319568 0.00930787
v -0.05555460 -0.01187809 0.00772530
v -0.05463142 -0.01187809 0.00705667
v -0.05364625 -0.01187809 0.00637043
v -0.05135209 -0.02134073 0.00674028
v -0.05053915 -0.02184442 0.00632766
v -0.05689458 -0.01878235 0.01092440
v -0.05705992 -0.01825716 0.01092440
v -0.05712538 -0.01782103 0.01083571
v -0.05730450 -0.01662630 0.01060613
v -0.05751462 -0.01504459 0.01033188
v -0.05622976 -0.01353966 0.00860213
v -0.05533759 -0.01388057 0.00789576
v -0.05519635 -0.01504459 0.00801275
v -0.05610230 -0.01504459 0.00880467
v -0.05587151 -0.01662630 0.00899211
v -0.05849636 -0.01271655 0.01092440
v -0.05853080 -0.01255685 0.01092440
v -0.05496900 -0.01662630 0.00820020
v -0.05398038 -0.01786096 0.00772153
v -0.05318810 -0.01831551 0.00725040
v -0.05286086 -0.01979280 0.00737558
v -0.05173445 -0.01979280 0.00658366
v -0.04628841 -0.02323571 0.00449915
v -0.04578893 -0.02424310 0.00449915
v -0.04995699 -0.02134073 0.00588233
v -0.04821054 -0.02138373 0.00499229
v -0.04739071 -0.02191813 0.00471427
v -0.04642275 -0.02295930 0.00449915
v -0.05021879 -0.01196102 0.00449915
v -0.05045303 -0.01346288 0.00477277
v -0.05146232 -0.01346288 0.00530301
v -0.05268173 -0.01346288 0.00598548
v -0.05864103 -0.01203473 0.01092440
v -0.05874437 -0.01148497 0.01092440
v -0.05545470 -0.01282712 0.00780392
v -0.05473821 -0.01339531 0.00737306
v -0.05347401 -0.01346288 0.00648617
v -0.05074927 -0.02078790 0.00619871
v -0.05721493 -0.01771968 0.01092440
v -0.05751806 -0.01662938 0.01092440
v -0.05768686 -0.01601819 0.01092440
v -0.05793832 -0.01504459 0.01092440
v -0.05821734 -0.01389900 0.01092440
v -0.05440408 -0.01504459 0.00741143
v -0.05417673 -0.01662630 0.00757497
v -0.05294353 -0.01665395 0.00670191
v -0.05202036 -0.01820802 0.00639433
v -0.05094217 -0.01979280 0.00608738
v -0.04988121 -0.01979280 0.00550933
v -0.04762494 -0.02086161 0.00460734
v -0.04863424 -0.01979280 0.00487781
v -0.04729426 -0.02107353 0.00449915
v -0.04705313 -0.02161100 0.00449915
v -0.04989843 -0.01346288 0.00449915
v -0.05024634 -0.01504459 0.00487026
v -0.05146232 -0.01504459 0.00551373
v -0.05248883 -0.01504459 0.00609933
v -0.05328111 -0.01504459 0.00662015
v -0.05234760 -0.01614104 0.00618802
v -0.05218570 -0.01719756 0.00629055
v -0.05122808 -0.01820802 0.00592698
v -0.04988121 -0.01820802 0.00521244
v -0.04784196 -0.01979280 0.00450607
v -0.04780062 -0.01985730 0.00449915
v -0.04841033 -0.01820802 0.00449915
v -0.04785574 -0.01971602 0.00449915
v -0.04892359 -0.01820802 0.00474132
v -0.04950230 -0.01497088 0.00449915
v -0.05157944 -0.01665395 0.00584207
v -0.04948163 -0.01504459 0.00449915
v -0.04942651 -0.01521965 0.00449915
v -0.04925428 -0.01630996 0.00458532
v -0.04981920 -0.01675223 0.00493316
v -0.04902693 -0.01643281 0.00449915
f 1 2 6
f 1 6 12
f 1 12 22
f 1 22 37
f 1 37 60
f 1 60 94
f 1 94 135
f 1 135 134
f 1 134 180
f 1 180 186
f 1 186 185
f 1 185 230
f 1 230 264
f 1 264 263
f 1 263 268
f 1 268 293
f 1 293 292
f 1 292 304
f 1 304 306
f 1 306 305
f 1 305 314
f 1 314 311
f 1 311 310
f 1 310 308
f 1 308 294
f 1 294 269
f 1 269 231
f 1 231 187
f 1 187 137
f 1 137 136
f 1 136 95
f 1 95 61
f 1 61 38
f 1 38 23
f 1 23 13
f 1 13 7
f 1 7 3
f 1 3 8
f 1 8 15
f 1 15 26
f 1 26 42
f 1 42 65
f 1 65 103
f 1 103 105
f 1 105 142
f 1 142 106
f 1 106 67
f 1 67 43
f 1 43 27
f 1 27 16
f 1 16 9
f 1 9 4
f 1 4 2
f 2 4 5
f 2 5 10
f 2 10 20
f 2 20 34
f 2 34 55
f 2 55 87
f 2 87 86
f 2 86 126
f 2 126 125
f 2 125 124
f 2 124 174
f 2 174 224
f 2 224 177
f 2 177 175
f 2 175 127
f 2 127 88
f 2 88 56
f 2 56 35
f 2 35 21
f 2 21 11
f 2 11 6
f 3 7 8
f 4 9 18
f 4 18 28
f 4 28 45
f 4 45 69
f 4 69 108
f 4 108 110
f 4 110 145
f 4 145 144
f 4 144 194
f 4 194 193
f 4 193 238
f 4 238 237
f 4 237 274
f 4 274 273
f 4 273 257
f 4 257 256
f 4 256 283
f 4 283 282
f 4 282 281
f 4 281 280
f 4 280 279
f 4 279 247
f 4 247 246
f 4 246 213
f 4 213 212
f 4 212 210
f 4 210 162
f 4 162 161
f 4 161 152
f 4 152 117
f 4 117 76
f 4 76 51
f 4 51 33
f 4 33 19
f 4 19 10
f 4 10 5
f 6 11 12
f 7 13 8
f 8 13 14
f 8 14 15
f 9 16 17
f 9 17 18
f 10 19 20
f 11 21 12
f 12 21 22
f 13 23 24
f 13 24 14
f 14 24 25
f 14 25 26
f 14 26 15
f 16 27 17
f 17 28 18
f 17 27 29
f 17 29 30
f 17 30 31
f 17 31 32
f 17 32 28
f 19 33 34
f 19 34 20
f 21 35 36
f 21 36 22
f 22 36 37
f 23 38 24
f 24 38 39
f 24 39 40
f 24 40 25
f 25 40 41
f 25 41 42
f 25 42 26
f 27 43 44
f 27 44 29
f 28 32 46
f 28 46 45
f 29 44 47
f 29 47 30
f 30 47 31
f 31 47 48
f 31 48 49
f 31 49 32
f 32 49 46
f 33 50 34
f 33 51 52
f 33 52 50
f 34 50 53
f 34 53 54
f 34 54 55
f 35 56 57
f 35 57 36
f 36 57 58
f 36 58 59
f 36 59 37
f 37 59 60
f 38 61 39
f 39 61 62
f 39 62 63
f 39 63 40
f 40 63 64
f 40 64 41
f 41 65 42
f 41 64 102
f 41 102 66
f 41 66 65
f 43 67 68
f 43 68 44
f 44 68 47
f 45 46 69
f 46 70 69
f 46 49 70
f 47 68 71
f 47 71 48
f 48 72 49
f 48 71 73
f 48 73 74
f 48 74 72
f 49 72 75
f 49 75 70
f 50 52 53
f 51 76 52
f 52 76 77
f 52 77 78
f 52 78 79
f 52 79 53
f 53 79 78
f 53 78 80
f 53 80 81
f 53 81 82
f 53 82 83
f 53 83 84
f 53 84 85
f 53 85 86
f 53 86 87
f 53 87 54
f 54 87 55
f 56 88 57
f 57 88 89
f 57 89 90
f 57 90 58
f 58 90 91
f 58 91 92
f 58 92 59
f 59 92 93
f 59 93 60
f 60 93 94
f 61 95 96
f 61 96 62
f 62 96 97
f 62 97 98
f 62 98 63
f 63 98 99
f 63 99 100
f 63 100 64
f 64 100 101
f 64 101 102
f 65 66 103
f 66 104 105
f 66 105 103
f 66 102 107
f 66 107 104
f 67 106 68
f 68 106 104
f 68 104 107
f 68 107 71
f 69 70 108
f 70 109 110
f 70 110 108
f 70 75 111
f 70 111 109
f 71 107 113
f 71 113 73
f 72 112 75
f 72 74 116
f 72 116 112
f 73 113 114
f 73 114 74
f 74 114 115
f 74 115 116
f 75 112 111
f 76 117 78
f 76 78 77
f 78 118 119
f 78 119 81
f 78 81 80
f 78 117 120
f 78 120 121
f 78 121 118
f 81 119 83
f 81 83 82
f 83 119 122
f 83 122 123
f 83 123 124
f 83 124 125
f 83 125 84
f 84 125 126
f 84 126 86
f 84 86 85
f 88 127 89
f 89 127 128
f 89 128 90
f 90 128 129
f 90 129 130
f 90 130 91
f 91 131 92
f 91 130 132
f 91 132 133
f 91 133 131
f 92 134 135
f 92 135 94
f 92 94 93
f 92 131 134
f 95 136 96
f 96 136 137
f 96 137 97
f 97 137 138
f 97 138 139
f 97 139 98
f 98 139 99
f 99 140 141
f 99 141 100
f 99 139 140
f 100 141 101
f 101 141 114
f 101 114 113
f 101 113 102
f 102 113 107
f 104 106 142
f 104 142 105
f 109 143 144
f 109 144 145
f 109 145 110
f 109 111 146
f 109 146 143
f 111 112 147
f 111 147 146
f 112 116 147
f 114 141 115
f 115 148 116
f 115 141 149
f 115 149 150
f 115 150 148
f 116 148 151
f 116 151 147
f 117 152 120
f 118 121 153
f 118 153 154
f 118 154 119
f 119 154 155
f 119 155 156
f 119 156 157
f 119 157 158
f 119 158 122
f 120 152 159
f 120 159 121
f 121 159 160
f 121 160 161
f 121 161 162
f 121 162 163
f 121 163 164
f 121 164 165
f 121 165 166
f 121 166 167
f 121 167 168
f 121 168 169
f 121 169 170
f 121 170 155
f 121 155 154
f 121 154 153
f 122 158 171
f 122 171 123
f 123 171 172
f 123 172 173
f 123 173 124
f 124 173 174
f 127 175 128
f 128 173 172
f 128 172 176
f 128 176 129
f 128 175 177
f 128 177 178
f 128 178 173
f 129 176 130
f 130 176 179
f 130 179 132
f 131 133 180
f 131 180 134
f 132 181 133
f 132 179 182
f 132 182 183
f 132 183 181
f 133 184 185
f 133 185 186
f 133 186 180
f 133 181 184
f 137 187 138
f 138 187 188
f 138 188 189
f 138 189 190
f 138 190 139
f 139 190 140
f 140 190 191
f 140 191 149
f 140 149 141
f 143 192 193
f 143 193 194
f 143 194 144
f 143 146 192
f 146 147 195
f 146 195 196
f 146 196 197
f 146 197 192
f 147 151 195
f 148 198 151
f 148 150 199
f 148 199 198
f 149 191 150
f 150 191 200
f 150 200 201
f 150 201 199
f 151 198 202
f 151 202 195
f 152 161 159
f 155 203 204
f 155 204 156
f 155 170 203
f 156 205 157
f 156 204 205
f 157 206 207
f 157 207 208
f 157 208 158
f 157 205 206
f 158 208 209
f 158 209 171
f 159 161 160
f 162 210 163
f 163 210 164
f 164 211 166
f 164 166 165
f 164 210 212
f 164 212 213
f 164 213 211
f 166 211 167
f 167 211 214
f 167 214 215
f 167 215 216
f 167 216 217
f 167 217 218
f 167 218 219
f 167 219 220
f 167 220 221
f 167 221 168
f 168 221 169
f 169 222 223
f 169 223 203
f 169 203 170
f 169 221 222
f 171 209 172
f 172 209 176
f 173 178 177
f 173 177 224
f 173 224 174
f 176 209 179
f 179 209 208
f 179 208 207
f 179 207 182
f 181 225 184
f 181 183 226
f 181 226 227
f 181 227 225
f 182 207 228
f 182 228 183
f 183 228 229
f 183 229 226
f 184 230 185
f 184 225 230
f 187 231 188
f 188 231 232
f 188 232 233
f 188 233 189
f 189 233 234
f 189 234 235
f 189 235 190
f 190 235 191
f 191 235 200
f 192 236 237
f 192 237 238
f 192 238 193
f 192 197 236
f 195 202 196
f 196 202 239
f 196 239 240
f 196 240 197
f 197 240 217
f 197 217 236
f 198 241 202
f 198 199 242
f 198 242 241
f 199 201 243
f 199 243 242
f 200 235 201
f 201 235 234
f 201 234 243
f 202 241 239
f 203 244 204
f 203 223 244
f 204 244 245
f 204 245 205
f 205 245 228
f 205 228 207
f 205 207 206
f 211 213 246
f 211 246 214
f 214 246 247
f 214 247 248
f 214 248 249
f 214 249 215
f 215 249 216
f 216 249 250
f 216 250 217
f 217 240 239
f 217 239 251
f 217 251 252
f 217 252 253
f 217 253 254
f 217 254 255
f 217 255 218
f 217 250 256
f 217 256 257
f 217 257 236
f 218 255 258
f 218 258 219
f 219 258 220
f 220 258 259
f 220 259 260
f 220 260 261
f 220 261 223
f 220 223 222
f 220 222 221
f 223 261 262
f 223 262 244
f 225 227 263
f 225 263 264
f 225 264 230
f 226 229 265
f 226 265 266
f 226 266 227
f 227 267 268
f 227 268 263
f 227 266 267
f 228 245 229
f 229 245 265
f 231 269 232
f 232 269 270
f 232 270 233
f 233 271 234
f 233 270 271
f 234 272 243
f 234 271 272
f 236 257 273
f 236 273 274
f 236 274 237
f 239 241 275
f 239 275 252
f 239 252 251
f 241 242 276
f 241 276 275
f 242 243 277
f 242 277 276
f 243 272 277
f 244 262 245
f 245 262 278
f 245 278 265
f 247 279 248
f 248 279 249
f 249 279 280
f 249 280 281
f 249 281 282
f 249 282 250
f 250 282 283
f 250 283 256
f 252 275 276
f 252 276 284
f 252 284 253
f 253 284 285
f 253 285 258
f 253 258 254
f 254 258 255
f 258 285 259
f 259 285 260
f 260 286 287
f 260 287 261
f 260 285 286
f 261 287 262
f 262 287 288
f 262 288 278
f 265 289 266
f 265 278 288
f 265 288 289
f 266 290 267
f 266 289 291
f 266 291 290
f 267 292 293
f 267 293 268
f 267 290 292
f 269 294 270
f 270 294 295
f 270 295 271
f 271 295 296
f 271 296 272
f 272 297 277
f 272 296 297
f 276 277 284
f 277 297 298
f 277 298 284
f 284 298 286
f 284 286 285
f 286 298 299
f 286 299 300
f 286 300 287
f 287 300 301
f 287 301 288
f 288 301 289
f 289 301 302
f 289 302 291
f 290 291 303
f 290 303 304
f 290 304 292
f 291 305 306
f 291 306 303
f 291 302 307
f 291 307 305
f 294 308 295
f 295 309 296
f 295 308 310
f 295 310 311
f 295 311 312
f 295 312 313
f 295 313 309
f 296 309 299
f 296 299 297
f 297 299 298
f 299 309 301
f 299 301 300
f 301 309 302
f 302 313 307
f 302 309 313
f 303 306 304
f 305 307 312
f 305 312 314
f 307 313 312
f 311 314 312

