# https://github.com/mikedh/trimesh
v 0.06443663 0.00079058 0.05213236
v 0.06571805 0.00079058 0.05189000
v 0.06571805 0.00237492 0.05187861
v 0.06443663 0.00218914 0.05211122
v 0.06443663 0.00065984 0.05213073
v 0.06571805 -0.00079204 0.05187699
v 0.06571805 0.00006292 0.05188512
v 0.06730304 -0.00079204 0.05157932
v 0.06730304 0.00006292 0.05158420
v 0.06730304 0.00079058 0.05158746
v 0.06730304 0.00237492 0.05157607
v 0.06730304 0.00395754 0.05154679
v 0.06571805 0.00395754 0.05184120
v 0.06443663 0.00237492 0.05210634
v 0.06443663 0.00006292 0.05212097
v 0.06444121 -0.00079204 0.05210959
v 0.06571805 -0.00237466 0.05184446
v 0.06730304 -0.00237466 0.05155492
v 0.06888651 -0.00237466 0.05113527
v 0.06888651 -0.00079204 0.05115316
v 0.06888499 0.00079058 0.05115804
v 0.06888499 0.00237492 0.05114828
v 0.06888499 0.00395754 0.05112551
v 0.06888499 0.00554016 0.05106858
v 0.06730304 0.00554016 0.05148010
v 0.06443663 0.00395754 0.05204452
v 0.06571805 0.00554016 0.05176638
v 0.06443663 0.00006292 0.04822857
v 0.06444121 -0.00868965 0.04979334
v 0.06444121 -0.00834560 0.05096448
v 0.06444121 -0.00712423 0.05153866
v 0.06444121 -0.00554161 0.05181030
v 0.06444121 -0.00390223 0.05196808
v 0.06444121 -0.00237466 0.05205428
v 0.06571805 -0.00395900 0.05178427
v 0.06730304 -0.00395900 0.05150775
v 0.06888651 -0.00395900 0.05109786
v 0.07002453 -0.00395900 0.05072049
v 0.07005809 -0.00237466 0.05073675
v 0.07007335 -0.00079204 0.05074489
v 0.07007793 0.00079058 0.05074651
v 0.07007487 0.00237492 0.05074326
v 0.07005504 0.00395754 0.05073350
v 0.06999860 0.00554016 0.05071073
v 0.06986588 0.00662735 0.05065705
v 0.06730304 0.00712450 0.05124425
v 0.06443663 0.00409172 0.05203802
v 0.06571805 0.00712450 0.05152564
v 0.06443663 0.00543350 0.05194693
v 0.06443663 0.00395754 0.04813910
v 0.06444121 -0.00554161 0.04805615
v 0.06444121 -0.00584782 0.04808217
v 0.06444121 -0.00712423 0.04821718
v 0.06444121 -0.00826131 0.04870028
v 0.06571805 -0.00877910 0.04979334
v 0.07707996 -0.00819422 0.03551521
v 0.06730304 -0.00878942 0.04979334
v 0.06571805 -0.00834388 0.05093032
v 0.06571805 -0.00712423 0.05145896
v 0.06571805 -0.00554161 0.05169156
v 0.06730304 -0.00554161 0.05142805
v 0.06888651 -0.00554161 0.05103116
v 0.06995131 -0.00554161 0.05069284
v 0.07081627 -0.00395900 0.05040168
v 0.07085135 -0.00237466 0.05041469
v 0.07086508 -0.00079204 0.05041794
v 0.07086813 0.00079058 0.05041794
v 0.07086508 0.00237492 0.05041794
v 0.07084525 0.00395754 0.05041306
v 0.07079033 0.00554016 0.05039192
v 0.07042269 0.00714342 0.05027968
v 0.06947688 0.00768358 0.05050903
v 0.06892312 0.00714342 0.05082296
v 0.07215565 0.00718471 0.04943549
v 0.06842123 0.00804655 0.05068633
v 0.06443663 0.00712450 0.05165252
v 0.06443663 0.00584636 0.05188349
v 0.06730304 0.00819449 0.05081971
v 0.06571805 0.00831318 0.05095634
v 0.06443663 0.00554016 0.04810495
v 0.07469255 0.00006292 0.03551521
v 0.07469255 0.00003540 0.03551521
v 0.07469713 -0.00079204 0.03551521
v 0.07469865 -0.00083504 0.03551521
v 0.07476273 -0.00237466 0.03551521
v 0.07476578 -0.00241078 0.03551521
v 0.07492138 -0.00395900 0.03551521
v 0.07492596 -0.00398480 0.03551521
v 0.07523258 -0.00554161 0.03551521
v 0.07572074 -0.00682663 0.03551521
v 0.07628212 -0.00760418 0.03551521
v 0.07629128 -0.00761622 0.03551521
v 0.07046845 -0.00881695 0.04820905
v 0.07847884 -0.00816326 0.03551521
v 0.07838426 -0.00831636 0.03712715
v 0.07046845 -0.00842301 0.04954447
v 0.06894143 -0.00849010 0.04991696
v 0.06730304 -0.00823379 0.05081646
v 0.06730304 -0.00712423 0.05121497
v 0.06894143 -0.00714144 0.05080832
v 0.06982622 -0.00662364 0.05064241
v 0.07074304 -0.00554161 0.05037077
v 0.07205192 -0.00554161 0.04974779
v 0.07205192 -0.00395900 0.04980798
v 0.07205192 -0.00237466 0.04983075
v 0.07205192 -0.00079204 0.04983563
v 0.07205192 0.00079058 0.04983400
v 0.07205192 0.00237492 0.04983075
v 0.07205192 0.00395754 0.04981611
v 0.07205192 0.00554016 0.04976894
v 0.07275060 0.00775411 0.04894264
v 0.07169800 0.00814976 0.04923542
v 0.07299467 0.00669960 0.04910041
v 0.07046845 0.00836135 0.04951682
v 0.06443663 0.00735157 0.05154354
v 0.06892312 0.00843188 0.04990557
v 0.06730304 0.00870712 0.04979171
v 0.06443663 0.00834415 0.05101327
v 0.06443663 0.00712450 0.04825784
v 0.07989298 0.00006292 0.03551521
v 0.06443663 0.00800526 0.04860919
v 0.06443663 0.00823405 0.04871166
v 0.07573905 0.00684410 0.03766881
v 0.07606093 0.00736533 0.03766881
v 0.07623941 0.00763541 0.03766881
v 0.07650790 0.00784872 0.03766881
v 0.07702962 0.00825297 0.03766881
v 0.07792203 0.00832522 0.03766881
v 0.07838426 0.00836135 0.03766881
v 0.07521733 -0.00866385 0.04504210
v 0.07363233 -0.00871545 0.04662638
v 0.07218464 -0.00850386 0.04835056
v 0.07914548 -0.00788630 0.03551521
v 0.07921718 -0.00795683 0.03607964
v 0.07848647 -0.00816326 0.03554774
v 0.07926447 -0.00800155 0.03712715
v 0.07838426 -0.00835764 0.03871144
v 0.07174377 -0.00819078 0.04925494
v 0.06845022 -0.00807380 0.05068796
v 0.06950434 -0.00767815 0.05052855
v 0.07039981 -0.00714144 0.05029270
v 0.07218464 -0.00722573 0.04943549
v 0.07300078 -0.00676470 0.04909879
v 0.07311214 -0.00554161 0.04916873
v 0.07315485 -0.00395900 0.04919801
v 0.07316858 -0.00237466 0.04920777
v 0.07317011 -0.00079204 0.04920940
v 0.07316858 0.00079058 0.04920777
v 0.07316553 0.00237492 0.04920452
v 0.07315180 0.00395754 0.04919638
v 0.07310604 0.00554016 0.04917036
v 0.07356674 0.00718471 0.04855388
v 0.07477493 0.00712450 0.04769505
v 0.07454916 0.00800526 0.04751450
v 0.07363233 0.00821857 0.04784144
v 0.07215565 0.00844392 0.04833267
v 0.07389624 0.00554016 0.04864334
v 0.07495951 0.00554016 0.04785283
v 0.07046845 0.00875356 0.04820905
v 0.06571805 0.00871572 0.04979171
v 0.06443663 0.00842156 0.05078880
v 0.07897615 0.00814116 0.03766881
v 0.07928278 0.00802590 0.03766881
v 0.07966110 0.00712450 0.03766881
v 0.07995705 0.00554016 0.03766881
v 0.07989908 0.00006292 0.03554286
v 0.07989755 -0.00234713 0.03551521
v 0.06443663 0.00858670 0.04956562
v 0.06443663 0.00866239 0.04979171
v 0.07521733 0.00854714 0.04504210
v 0.07838426 0.00836479 0.03870982
v 0.07680079 -0.00852795 0.04346106
v 0.07674130 -0.00823551 0.04494287
v 0.07514715 -0.00828711 0.04657108
v 0.07363233 -0.00827851 0.04788536
v 0.07943685 -0.00726529 0.03551521
v 0.07945974 -0.00722917 0.03554774
v 0.07965347 -0.00712423 0.03712715
v 0.07928278 -0.00802564 0.03871144
v 0.07852460 -0.00823035 0.04038845
v 0.07821645 -0.00827163 0.04187840
v 0.07924159 -0.00798779 0.03992650
v 0.07457356 -0.00804284 0.04753890
v 0.07279636 -0.00781921 0.04897517
v 0.07479934 -0.00712423 0.04772270
v 0.07390387 -0.00554161 0.04865961
v 0.07357131 -0.00722573 0.04859617
v 0.07394658 -0.00395900 0.04868401
v 0.07396032 -0.00237466 0.04868889
v 0.07396184 -0.00079204 0.04869052
v 0.07395574 0.00237492 0.04868564
v 0.07394201 0.00395754 0.04867425
v 0.07575125 0.00554016 0.04718593
v 0.07556666 0.00712450 0.04700213
v 0.07613720 0.00801730 0.04597738
v 0.07513342 0.00820653 0.04655319
v 0.07363233 0.00860906 0.04662638
v 0.07499308 0.00395754 0.04788373
v 0.07578481 0.00395754 0.04721846
v 0.07927820 0.00802246 0.03870982
v 0.07964432 0.00712450 0.03870982
v 0.07993569 0.00554016 0.03870982
v 0.07996772 0.00395754 0.03870982
v 0.07996772 0.00500000 0.03766881
v 0.07995552 0.00006292 0.03627320
v 0.07990365 -0.00237466 0.03554286
v 0.07989755 -0.00237466 0.03551521
v 0.07679926 0.00843532 0.04346106
v 0.07671841 0.00815492 0.04491034
v 0.07812797 0.00823061 0.04187840
v 0.07849104 0.00821169 0.04028435
v 0.07789458 -0.00815294 0.04346106
v 0.07766117 -0.00798435 0.04434917
v 0.07617534 -0.00806004 0.04600666
v 0.07945821 -0.00721885 0.03551521
v 0.07985789 -0.00554161 0.03554286
v 0.07998298 -0.00554161 0.03712715
v 0.07965499 -0.00712423 0.03871144
v 0.07914548 -0.00786738 0.04098052
v 0.07943838 -0.00725325 0.04038845
v 0.07559107 -0.00712423 0.04702978
v 0.07577108 -0.00554161 0.04720219
v 0.07497935 -0.00554161 0.04786747
v 0.07501291 -0.00395900 0.04789186
v 0.07501901 -0.00237466 0.04789674
v 0.07501901 -0.00079204 0.04789837
v 0.07501443 0.00079058 0.04789674
v 0.07500833 0.00237492 0.04789512
v 0.07656129 0.00554016 0.04639541
v 0.07636755 0.00712450 0.04621161
v 0.07762151 0.00794505 0.04429549
v 0.07715928 0.00712450 0.04530723
v 0.07580007 0.00237492 0.04723147
v 0.07659180 0.00395754 0.04642632
v 0.07922023 0.00796397 0.03975083
v 0.07972517 0.00554016 0.04029573
v 0.07940634 0.00720019 0.04028435
v 0.07977399 0.00395754 0.04029573
v 0.08000129 0.00237492 0.03766881
v 0.07998755 0.00395754 0.03766881
v 0.07979077 0.00237492 0.04029573
v 0.07980907 0.00006292 0.04029573
v 0.07981518 -0.00079204 0.04029573
v 0.07990823 0.00006292 0.03944015
v 0.07999061 0.00006292 0.03871144
v 0.08002112 0.00006292 0.03712715
v 0.08002112 -0.00237466 0.03712715
v 0.07989755 -0.00395900 0.03554286
v 0.07989298 -0.00393147 0.03551521
v 0.07781830 0.00809127 0.04346106
v 0.07902497 -0.00725325 0.04198575
v 0.07843460 -0.00712423 0.04346106
v 0.07780915 -0.00712423 0.04456225
v 0.07719132 -0.00712423 0.04535277
v 0.07639959 -0.00712423 0.04623763
v 0.07985331 -0.00554161 0.03551521
v 0.08001502 -0.00395900 0.03712715
v 0.07998298 -0.00395900 0.03871144
v 0.07994636 -0.00554161 0.03871144
v 0.07931329 -0.00681115 0.04153031
v 0.07975873 -0.00554161 0.04029573
v 0.07656587 -0.00554161 0.04641005
v 0.07660095 -0.00395900 0.04644421
v 0.07580464 -0.00395900 0.04723635
v 0.07581074 -0.00237466 0.04724286
v 0.07581074 -0.00079204 0.04724286
v 0.07580922 0.00006292 0.04723961
v 0.07580617 0.00079058 0.04723798
v 0.07735455 0.00554016 0.04553820
v 0.07894412 0.00720019 0.04195647
v 0.07909056 0.00777819 0.04080811
v 0.07777711 0.00712450 0.04451671
v 0.07834460 0.00712450 0.04346106
v 0.07659638 0.00237492 0.04644095
v 0.07738353 0.00395754 0.04557073
v 0.07929499 0.00672196 0.04147826
v 0.07937736 0.00554016 0.04174176
v 0.07940481 0.00395754 0.04183122
v 0.07941397 0.00237492 0.04186376
v 0.08000434 0.00183305 0.03766881
v 0.07981365 -0.00237466 0.04029573
v 0.07999366 -0.00237466 0.03871144
v 0.07999366 -0.00079204 0.03871144
v 0.07943075 -0.00079204 0.04187840
v 0.08000891 0.00006292 0.03785749
v 0.08001044 0.00054287 0.03766881
v 0.07914701 -0.00554161 0.04258596
v 0.07870461 -0.00554161 0.04346106
v 0.07794186 -0.00554161 0.04474931
v 0.07735760 -0.00554161 0.04553983
v 0.07979535 -0.00395900 0.04029573
v 0.07939719 -0.00554161 0.04179381
v 0.07739269 -0.00395900 0.04557724
v 0.07739879 -0.00237466 0.04558700
v 0.07660706 -0.00237466 0.04645071
v 0.07660400 -0.00079204 0.04645071
v 0.07623788 0.00006292 0.04681182
v 0.07793729 0.00554016 0.04474768
v 0.07868478 0.00554016 0.04346106
v 0.07913175 0.00554016 0.04253391
v 0.07702962 0.00006292 0.04598063
v 0.07795864 0.00395754 0.04478022
v 0.07739269 0.00079058 0.04557887
v 0.07796322 0.00237492 0.04478510
v 0.07916074 0.00395754 0.04262337
v 0.07917141 0.00237492 0.04265590
v 0.07940176 0.00006292 0.04195972
v 0.07941855 -0.00395900 0.04185237
v 0.07917904 0.00036912 0.04267542
v 0.07918209 -0.00079204 0.04268193
v 0.07918057 -0.00196696 0.04268030
v 0.07937736 -0.00244519 0.04203292
v 0.07916684 -0.00395900 0.04264452
v 0.07875038 -0.00395900 0.04346106
v 0.07796627 -0.00395900 0.04478672
v 0.07797390 -0.00237466 0.04479648
v 0.07739573 -0.00079204 0.04558375
v 0.07873512 0.00395754 0.04346106
v 0.07876258 -0.00079204 0.04347244
v 0.07875038 0.00237492 0.04346106
v 0.07797085 -0.00079204 0.04479323
v 0.07917447 0.00142363 0.04266729
v 0.07917447 -0.00302147 0.04266566
v 0.07884191 0.00085423 0.04330653
v 0.07884648 -0.00244519 0.04330816
f 1 2 3
f 1 3 4
f 1 4 14
f 1 14 26
f 1 26 47
f 1 47 49
f 1 49 77
f 1 77 76
f 1 76 115
f 1 115 118
f 1 118 161
f 1 161 169
f 1 169 168
f 1 168 122
f 1 122 121
f 1 121 119
f 1 119 80
f 1 80 50
f 1 50 28
f 1 28 15
f 1 15 5
f 1 5 6
f 1 6 7
f 1 7 2
f 2 7 8
f 2 8 9
f 2 9 10
f 2 10 11
f 2 11 3
f 3 11 12
f 3 12 13
f 3 13 4
f 4 13 14
f 5 15 16
f 5 16 6
f 6 16 17
f 6 17 18
f 6 18 8
f 6 8 7
f 8 18 19
f 8 19 20
f 8 20 9
f 9 20 10
f 10 21 22
f 10 22 11
f 10 20 21
f 11 22 23
f 11 23 12
f 12 23 24
f 12 24 25
f 12 25 13
f 13 26 14
f 13 25 27
f 13 27 26
f 15 28 29
f 15 29 30
f 15 30 31
f 15 31 32
f 15 32 33
f 15 33 34
f 15 34 16
f 16 34 17
f 17 34 35
f 17 35 36
f 17 36 18
f 18 36 37
f 18 37 19
f 19 37 38
f 19 38 39
f 19 39 20
f 20 39 40
f 20 40 21
f 21 41 42
f 21 42 22
f 21 40 41
f 22 42 43
f 22 43 23
f 23 43 44
f 23 44 24
f 24 44 45
f 24 45 25
f 25 45 46
f 25 46 27
f 26 27 47
f 27 46 48
f 27 48 49
f 27 49 47
f 28 50 51
f 28 51 52
f 28 52 53
f 28 53 54
f 28 54 29
f 29 55 30
f 29 54 56
f 29 56 55
f 30 55 57
f 30 57 58
f 30 58 31
f 31 59 32
f 31 58 59
f 32 59 60
f 32 60 33
f 33 35 34
f 33 60 35
f 35 60 61
f 35 61 36
f 36 61 62
f 36 62 37
f 37 62 63
f 37 63 38
f 38 63 64
f 38 64 39
f 39 64 65
f 39 65 40
f 40 65 66
f 40 66 41
f 41 67 68
f 41 68 42
f 41 66 67
f 42 68 69
f 42 69 43
f 43 69 70
f 43 70 44
f 44 70 45
f 45 71 72
f 45 72 73
f 45 73 46
f 45 70 74
f 45 74 71
f 46 73 75
f 46 75 48
f 48 76 77
f 48 77 49
f 48 75 78
f 48 78 79
f 48 79 76
f 50 80 51
f 51 81 82
f 51 82 83
f 51 83 84
f 51 84 85
f 51 85 52
f 51 80 81
f 52 85 86
f 52 86 53
f 53 86 87
f 53 87 88
f 53 88 89
f 53 89 90
f 53 90 54
f 54 91 92
f 54 92 56
f 54 90 91
f 55 93 57
f 55 56 93
f 56 94 95
f 56 95 93
f 56 92 91
f 56 91 90
f 56 90 89
f 56 89 88
f 56 88 87
f 56 87 86
f 56 86 85
f 56 85 84
f 56 84 83
f 56 83 82
f 56 82 81
f 56 81 120
f 56 120 167
f 56 167 207
f 56 207 249
f 56 249 256
f 56 256 215
f 56 215 176
f 56 176 133
f 56 133 94
f 57 93 96
f 57 96 97
f 57 97 98
f 57 98 58
f 58 98 59
f 59 99 60
f 59 98 99
f 60 99 61
f 61 99 100
f 61 100 62
f 62 100 101
f 62 101 63
f 63 101 102
f 63 102 64
f 64 102 103
f 64 103 104
f 64 104 65
f 65 104 105
f 65 105 66
f 66 105 106
f 66 106 67
f 67 106 68
f 68 106 107
f 68 107 108
f 68 108 109
f 68 109 69
f 69 110 70
f 69 109 110
f 70 110 74
f 71 74 111
f 71 111 72
f 72 111 112
f 72 112 75
f 72 75 73
f 74 110 113
f 74 113 111
f 75 112 114
f 75 114 78
f 76 79 115
f 78 114 116
f 78 116 117
f 78 117 79
f 79 118 115
f 79 117 118
f 80 119 81
f 81 119 121
f 81 121 122
f 81 122 123
f 81 123 124
f 81 124 125
f 81 125 126
f 81 126 127
f 81 127 128
f 81 128 129
f 81 129 120
f 93 95 130
f 93 130 131
f 93 131 132
f 93 132 96
f 94 133 134
f 94 134 135
f 94 135 95
f 95 135 134
f 95 134 136
f 95 136 137
f 95 137 130
f 96 132 138
f 96 138 139
f 96 139 98
f 96 98 97
f 98 139 99
f 99 139 100
f 100 139 140
f 100 140 101
f 101 140 141
f 101 141 142
f 101 142 102
f 102 142 103
f 103 142 143
f 103 143 144
f 103 144 104
f 104 144 145
f 104 145 105
f 105 145 146
f 105 146 106
f 106 146 147
f 106 147 107
f 107 148 108
f 107 147 148
f 108 148 149
f 108 149 109
f 109 149 150
f 109 150 110
f 110 150 151
f 110 151 113
f 111 113 152
f 111 152 153
f 111 153 154
f 111 154 112
f 112 154 155
f 112 155 156
f 112 156 114
f 113 151 157
f 113 157 158
f 113 158 153
f 113 153 152
f 114 156 159
f 114 159 117
f 114 117 116
f 117 159 160
f 117 160 161
f 117 161 118
f 120 129 162
f 120 162 163
f 120 163 164
f 120 164 165
f 120 165 166
f 120 166 167
f 122 168 127
f 122 127 126
f 122 126 125
f 122 125 124
f 122 124 123
f 127 168 169
f 127 169 128
f 128 169 129
f 129 169 160
f 129 160 159
f 129 159 170
f 129 170 171
f 129 171 162
f 130 137 172
f 130 172 173
f 130 173 174
f 130 174 131
f 131 174 175
f 131 175 132
f 132 175 138
f 133 176 134
f 134 176 177
f 134 177 178
f 134 178 136
f 136 179 137
f 136 178 179
f 137 180 181
f 137 181 172
f 137 179 182
f 137 182 180
f 138 175 183
f 138 183 184
f 138 184 140
f 138 140 139
f 140 184 141
f 141 184 142
f 142 184 143
f 143 185 186
f 143 186 144
f 143 184 187
f 143 187 185
f 144 186 145
f 145 186 188
f 145 188 146
f 146 188 189
f 146 189 190
f 146 190 147
f 147 190 148
f 148 191 149
f 148 190 191
f 149 191 150
f 150 192 151
f 150 191 192
f 151 192 157
f 153 158 193
f 153 193 194
f 153 194 154
f 154 195 196
f 154 196 155
f 154 194 195
f 155 196 197
f 155 197 156
f 156 197 159
f 157 192 158
f 158 192 198
f 158 198 199
f 158 199 193
f 159 197 170
f 160 169 161
f 162 171 163
f 163 171 200
f 163 200 164
f 164 200 201
f 164 201 165
f 165 201 202
f 165 202 203
f 165 203 204
f 165 204 166
f 166 204 205
f 166 205 206
f 166 206 167
f 167 206 207
f 170 208 171
f 170 197 196
f 170 196 209
f 170 209 208
f 171 208 210
f 171 210 211
f 171 211 200
f 172 181 212
f 172 212 173
f 173 212 213
f 173 213 214
f 173 214 174
f 174 214 183
f 174 183 175
f 176 215 177
f 177 215 216
f 177 216 178
f 178 216 217
f 178 217 218
f 178 218 179
f 179 218 182
f 180 182 181
f 181 182 219
f 181 219 212
f 182 218 220
f 182 220 219
f 183 214 221
f 183 221 185
f 183 185 184
f 184 185 187
f 185 221 222
f 185 222 223
f 185 223 186
f 186 223 188
f 188 223 224
f 188 224 189
f 189 224 225
f 189 225 190
f 190 225 226
f 190 226 191
f 191 227 228
f 191 228 192
f 191 226 227
f 192 228 198
f 193 229 194
f 193 199 229
f 194 229 230
f 194 230 195
f 195 231 209
f 195 209 196
f 195 230 232
f 195 232 231
f 198 228 233
f 198 233 199
f 199 234 229
f 199 233 234
f 200 211 235
f 200 235 201
f 201 236 202
f 201 235 237
f 201 237 236
f 202 236 238
f 202 238 203
f 203 239 240
f 203 240 204
f 203 238 241
f 203 241 242
f 203 242 243
f 203 243 244
f 203 244 245
f 203 245 239
f 204 240 246
f 204 246 205
f 205 246 206
f 206 247 257
f 206 257 248
f 206 248 249
f 206 249 207
f 206 246 247
f 208 209 250
f 208 250 210
f 209 231 250
f 210 250 235
f 210 235 211
f 212 219 213
f 213 219 251
f 213 251 252
f 213 252 253
f 213 253 254
f 213 254 214
f 214 254 255
f 214 255 221
f 215 256 216
f 216 256 248
f 216 248 217
f 217 248 257
f 217 257 258
f 217 258 259
f 217 259 218
f 218 259 220
f 219 220 260
f 219 260 251
f 220 259 261
f 220 261 260
f 221 255 222
f 222 255 262
f 222 262 263
f 222 263 264
f 222 264 223
f 223 264 224
f 224 264 265
f 224 265 225
f 225 265 226
f 226 265 266
f 226 266 227
f 227 266 228
f 228 266 267
f 228 267 268
f 228 268 233
f 229 269 230
f 229 234 269
f 230 269 232
f 231 270 271
f 231 271 250
f 231 232 272
f 231 272 273
f 231 273 270
f 232 269 272
f 233 274 234
f 233 268 274
f 234 275 269
f 234 274 275
f 235 250 271
f 235 271 237
f 236 237 276
f 236 276 277
f 236 277 278
f 236 278 238
f 237 271 276
f 238 278 279
f 238 279 241
f 239 280 246
f 239 246 240
f 239 245 280
f 241 279 242
f 242 279 243
f 243 281 282
f 243 282 283
f 243 283 245
f 243 245 244
f 243 279 284
f 243 284 281
f 245 285 280
f 245 283 285
f 246 280 286
f 246 286 285
f 246 285 247
f 247 285 282
f 247 282 257
f 248 256 249
f 251 260 252
f 252 260 287
f 252 287 288
f 252 288 253
f 253 288 289
f 253 289 290
f 253 290 254
f 254 290 255
f 255 290 262
f 257 282 258
f 258 282 281
f 258 281 291
f 258 291 261
f 258 261 259
f 260 261 292
f 260 292 287
f 261 291 292
f 262 290 293
f 262 293 263
f 263 293 294
f 263 294 295
f 263 295 265
f 263 265 264
f 265 295 266
f 266 295 296
f 266 296 297
f 266 297 267
f 267 297 274
f 267 274 268
f 269 298 272
f 269 275 298
f 270 273 276
f 270 276 271
f 272 298 299
f 272 299 273
f 273 299 300
f 273 300 276
f 274 301 275
f 274 297 296
f 274 296 301
f 275 302 298
f 275 301 303
f 275 303 304
f 275 304 302
f 276 300 277
f 277 300 305
f 277 305 278
f 278 305 306
f 278 306 279
f 279 306 307
f 279 307 284
f 280 285 286
f 281 308 291
f 281 284 308
f 282 285 283
f 284 307 309
f 284 309 310
f 284 310 311
f 284 311 312
f 284 312 308
f 287 292 308
f 287 308 313
f 287 313 288
f 288 313 314
f 288 314 315
f 288 315 289
f 289 315 293
f 289 293 290
f 291 308 292
f 293 315 316
f 293 316 294
f 294 316 321
f 294 321 317
f 294 317 296
f 294 296 295
f 296 317 301
f 298 302 318
f 298 318 299
f 299 318 305
f 299 305 300
f 301 317 303
f 302 304 319
f 302 319 320
f 302 320 318
f 303 317 321
f 303 321 304
f 304 321 319
f 305 318 306
f 306 318 320
f 306 320 322
f 306 322 307
f 307 322 309
f 308 312 311
f 308 311 323
f 308 323 313
f 309 322 320
f 309 320 324
f 309 324 310
f 310 319 325
f 310 325 311
f 310 324 319
f 311 325 314
f 311 314 323
f 313 323 314
f 314 325 319
f 314 319 316
f 314 316 315
f 316 319 321
f 319 324 320

