# https://github.com/mikedh/trimesh
v 0.04335945 -0.03373392 0.01091674
v 0.05368748 -0.01118131 0.01091674
v 0.04971405 -0.03373392 0.01091674
v 0.04292814 -0.03373392 0.05137274
v 0.05332266 -0.01117689 0.04979057
v 0.05369287 -0.01117689 0.01092494
v 0.05483943 -0.01117689 0.01091674
v 0.05031788 -0.03282422 0.01091674
v 0.05049939 -0.03297216 0.01124055
v 0.05027296 -0.03373392 0.01160945
v 0.04293353 -0.03373392 0.05279095
v 0.05332626 -0.01117689 0.05137274
v 0.05881825 -0.01117689 0.01091674
v 0.05087319 -0.03197635 0.01091674
v 0.05220126 -0.02998693 0.01108069
v 0.05119847 -0.03245107 0.01177750
v 0.05087140 -0.03356611 0.01229806
v 0.05064496 -0.03373392 0.01213001
v 0.04831590 -0.03373392 0.05279095
v 0.05340713 -0.01117689 0.05279095
v 0.05870682 -0.01187904 0.01091674
v 0.05936637 -0.01117689 0.01178980
v 0.05212758 -0.02987653 0.01091674
v 0.05381507 -0.02687143 0.01103561
v 0.05359762 -0.02770826 0.01138401
v 0.05303872 -0.02927374 0.01180620
v 0.05253732 -0.03059855 0.01213821
v 0.05224619 -0.03165398 0.01260138
v 0.05199819 -0.03102469 0.01168323
v 0.05093969 -0.03373392 0.01265876
v 0.04932947 -0.03219715 0.05279095
v 0.05209344 -0.03373392 0.02347572
v 0.05784601 -0.01117689 0.05279095
v 0.05864931 -0.01220362 0.01091674
v 0.05923877 -0.01187904 0.01178980
v 0.06003130 -0.01117689 0.01309735
v 0.05375936 -0.02678752 0.01091674
v 0.05534622 -0.02357045 0.01112578
v 0.05513955 -0.02454198 0.01147419
v 0.05463096 -0.02611849 0.01179800
v 0.05408824 -0.02770826 0.01217510
v 0.05387078 -0.02856276 0.01253170
v 0.05417629 -0.02587562 0.01091674
v 0.05362278 -0.02967560 0.01337607
v 0.05283744 -0.03102469 0.01322851
v 0.05245825 -0.03200505 0.01365889
v 0.05198381 -0.03250406 0.01322851
v 0.05127754 -0.03373392 0.01337197
v 0.05070067 -0.03009071 0.05279095
v 0.05230011 -0.03331882 0.02398399
v 0.05216352 -0.03373392 0.02287729
v 0.05236480 -0.03342259 0.02287729
v 0.05779928 -0.01170902 0.05279095
v 0.06120122 -0.01117689 0.02197553
v 0.05855587 -0.01264742 0.01091674
v 0.05859900 -0.01271146 0.01098642
v 0.05890451 -0.01332970 0.01174471
v 0.05879668 -0.01504753 0.01222838
v 0.06030985 -0.01117689 0.01380235
v 0.06027211 -0.01157212 0.01389663
v 0.05998098 -0.01201152 0.01337197
v 0.05866549 -0.01615816 0.01244972
v 0.05661857 -0.02142427 0.01181849
v 0.05591950 -0.02300962 0.01170782
v 0.05560860 -0.02454198 0.01226527
v 0.05543607 -0.02536556 0.01256039
v 0.05523659 -0.02343797 0.01091674
v 0.05560500 -0.02257243 0.01091674
v 0.05524019 -0.02651815 0.01337607
v 0.05464893 -0.02770826 0.01337607
v 0.05403791 -0.02888292 0.01337607
v 0.05540552 -0.02688247 0.01422044
v 0.05379530 -0.03000459 0.01430242
v 0.05351855 -0.03085247 0.01488036
v 0.05262179 -0.03250406 0.01502382
v 0.05213657 -0.03306048 0.01454425
v 0.05183465 -0.03373392 0.01491315
v 0.05107267 -0.02939960 0.05279095
v 0.05294527 -0.03245990 0.02287729
v 0.05353113 -0.03114172 0.02445946
v 0.05399119 -0.03034904 0.02445946
v 0.05456627 -0.02929362 0.02445946
v 0.05221924 -0.03373392 0.02234853
v 0.05232706 -0.03373392 0.02129512
v 0.05244567 -0.03354845 0.02129512
v 0.05745243 -0.01352842 0.05279095
v 0.06127311 -0.01117689 0.02129512
v 0.05852711 -0.01277549 0.01091674
v 0.05847320 -0.01376689 0.01118726
v 0.05756386 -0.01663951 0.01091674
v 0.05832224 -0.01504753 0.01143730
v 0.06064052 -0.01117689 0.01488856
v 0.06016428 -0.01262755 0.01419994
v 0.05966469 -0.01346218 0.01337607
v 0.05818926 -0.01666380 0.01187178
v 0.05853610 -0.01721359 0.01271615
v 0.05685759 -0.01979696 0.01124465
v 0.05713075 -0.02092526 0.01236364
v 0.05693127 -0.02198068 0.01278173
v 0.05609022 -0.02454198 0.01337607
v 0.05558883 -0.02572768 0.01337607
v 0.05603271 -0.02139335 0.01091674
v 0.05699417 -0.01896675 0.01101921
v 0.05711638 -0.02245541 0.01383924
v 0.05691151 -0.02350642 0.01453195
v 0.05584042 -0.02626423 0.01483117
v 0.05555468 -0.02718717 0.01527385
v 0.05515752 -0.02771268 0.01483117
v 0.05428951 -0.02940181 0.01488036
v 0.05396064 -0.03030709 0.01535583
v 0.05230370 -0.03332765 0.01559767
v 0.05192990 -0.03373392 0.01521647
v 0.05234863 -0.02701716 0.05279095
v 0.05362458 -0.03130290 0.02287729
v 0.05309982 -0.03245990 0.02129512
v 0.05407925 -0.03051023 0.02287729
v 0.05520425 -0.02808363 0.02445946
v 0.05511259 -0.02790919 0.02604573
v 0.05473520 -0.02929362 0.02287729
v 0.05235222 -0.03373392 0.02096311
v 0.05243848 -0.03373392 0.01971295
v 0.05249958 -0.03363456 0.01971295
v 0.05320765 -0.03245990 0.01971295
v 0.05743626 -0.01359466 0.05279095
v 0.05979049 -0.01663068 0.02129512
v 0.05987854 -0.01663068 0.01971295
v 0.06013014 -0.01566136 0.01971295
v 0.06128748 -0.01117689 0.01964736
v 0.05966648 -0.01663068 0.02287729
v 0.05721522 -0.01797315 0.01091674
v 0.06099815 -0.01117689 0.01654041
v 0.06046081 -0.01201152 0.01481888
v 0.05888114 -0.01666380 0.01329819
v 0.05930167 -0.01504753 0.01337607
v 0.06027571 -0.01346218 0.01536403
v 0.06006904 -0.01346218 0.01456885
v 0.05940411 -0.01663068 0.01495824
v 0.05756565 -0.01834851 0.01164634
v 0.05872479 -0.01782963 0.01377366
v 0.05839952 -0.01829993 0.01329819
v 0.05792328 -0.01979696 0.01337607
v 0.05732843 -0.01979696 0.01203573
v 0.05733203 -0.02142427 0.01333508
v 0.05672640 -0.02297208 0.01333508
v 0.05693666 -0.01888726 0.01091674
v 0.05838873 -0.01983008 0.01488446
v 0.05785139 -0.02138011 0.01495824
v 0.05724756 -0.02297208 0.01501972
v 0.05704808 -0.02385308 0.01558947
v 0.05665272 -0.02444482 0.01501972
v 0.05626095 -0.02612512 0.01654041
v 0.05567509 -0.02742785 0.01654041
v 0.05527792 -0.02821831 0.01654041
v 0.05472441 -0.02929362 0.01654041
v 0.05407565 -0.03052127 0.01654041
v 0.05364255 -0.03131395 0.01654041
v 0.05297941 -0.03245990 0.01654041
v 0.05238457 -0.03345571 0.01654041
v 0.05221025 -0.03373392 0.01654041
v 0.05384563 -0.02369189 0.05279095
v 0.05552233 -0.02711652 0.02604573
v 0.05370186 -0.03142434 0.02129512
v 0.05414035 -0.03063167 0.02129512
v 0.05560860 -0.02729316 0.02445946
v 0.05528512 -0.02823377 0.02287729
v 0.05485920 -0.02929362 0.02129512
v 0.05534801 -0.02835742 0.02129512
v 0.05243489 -0.03373392 0.01951210
v 0.05248161 -0.03360586 0.01813078
v 0.05375038 -0.03151267 0.01971295
v 0.05317171 -0.03245990 0.01813078
v 0.05373600 -0.03148175 0.01813078
v 0.05601295 -0.01804380 0.05279095
v 0.05871940 -0.01940394 0.02445946
v 0.05908242 -0.01821382 0.02445946
v 0.05935019 -0.01821382 0.02129512
v 0.05923517 -0.01821382 0.02287729
v 0.05943286 -0.01821382 0.01971295
v 0.05986057 -0.01663068 0.01813078
v 0.06012295 -0.01563707 0.01813078
v 0.06032243 -0.01484660 0.01813078
v 0.06066209 -0.01346218 0.01813078
v 0.06103589 -0.01187904 0.01813078
v 0.06119763 -0.01117689 0.01813078
v 0.06085797 -0.01187904 0.01654041
v 0.06017866 -0.01427694 0.01572883
v 0.05986776 -0.01490180 0.01510580
v 0.05890091 -0.01829993 0.01488446
v 0.05970422 -0.01663068 0.01654041
v 0.05925315 -0.01821382 0.01654041
v 0.05869784 -0.01932666 0.01536403
v 0.05854868 -0.01888505 0.01431062
v 0.05817847 -0.02138011 0.01654041
v 0.05756565 -0.02295883 0.01654041
v 0.05712895 -0.02404738 0.01654041
v 0.05680188 -0.02483785 0.01654041
v 0.05690791 -0.02469875 0.01693390
v 0.05630767 -0.02612512 0.01693390
v 0.05643886 -0.02612512 0.01813078
v 0.05569665 -0.02747201 0.01693390
v 0.05530129 -0.02826247 0.01693390
v 0.05518627 -0.02848548 0.01693390
v 0.05476934 -0.02929362 0.01693390
v 0.05409902 -0.03056322 0.01693390
v 0.05377374 -0.03115938 0.01693390
v 0.05366591 -0.03135590 0.01693390
v 0.05352574 -0.03159878 0.01693390
v 0.05302794 -0.03245990 0.01693390
v 0.05240973 -0.03349325 0.01693390
v 0.05225877 -0.03373392 0.01693390
v 0.05412598 -0.02306261 0.05279095
v 0.05612976 -0.02612512 0.02445946
v 0.05595005 -0.02612512 0.02604573
v 0.05418528 -0.03071999 0.01971295
v 0.05568048 -0.02744110 0.02287729
v 0.05627532 -0.02612512 0.02287729
v 0.05574338 -0.02756695 0.02129512
v 0.05494366 -0.02929362 0.01971295
v 0.05538755 -0.02843691 0.01971295
v 0.05240074 -0.03373392 0.01813078
v 0.05236480 -0.03373392 0.01781926
v 0.05416731 -0.03068908 0.01813078
v 0.05595724 -0.01821382 0.05279095
v 0.05846062 -0.02019661 0.02445946
v 0.05853610 -0.02042404 0.02287729
v 0.05879308 -0.01963136 0.02287729
v 0.05893506 -0.01979696 0.01971295
v 0.05857564 -0.02054989 0.02184847
v 0.05880746 -0.01993165 0.02131151
v 0.05863134 -0.02070887 0.01843409
v 0.05940950 -0.01821382 0.01813078
v 0.05974376 -0.01663068 0.01693390
v 0.06011217 -0.01518884 0.01693390
v 0.06025953 -0.01459489 0.01693390
v 0.06053629 -0.01346218 0.01693390
v 0.06049315 -0.01346218 0.01654041
v 0.06090290 -0.01187904 0.01693390
v 0.06023617 -0.01451099 0.01654041
v 0.06004028 -0.01530366 0.01654041
v 0.05879848 -0.01963136 0.01654041
v 0.05929268 -0.01821382 0.01693390
v 0.05858462 -0.02057639 0.01738068
v 0.05853250 -0.02042404 0.01654041
v 0.05761238 -0.02295883 0.01693390
v 0.05855766 -0.02049469 0.01693390
v 0.05775435 -0.02295883 0.01813078
v 0.05722600 -0.02427260 0.01813078
v 0.05689353 -0.02506307 0.01813078
v 0.05647840 -0.02612512 0.01971295
v 0.05576135 -0.02760228 0.01813078
v 0.05536599 -0.02839495 0.01813078
v 0.05490592 -0.02929362 0.01813078
v 0.05416012 -0.02298312 0.05279095
v 0.05706605 -0.02389503 0.02445946
v 0.05701753 -0.02377580 0.02533662
v 0.05714333 -0.02407829 0.02287729
v 0.05639753 -0.02612512 0.02129512
v 0.05578112 -0.02764423 0.01971295
v 0.05557265 -0.01933107 0.05279095
v 0.05804369 -0.02138011 0.02445946
v 0.05819644 -0.02138011 0.02287729
v 0.05860439 -0.02063159 0.02079095
v 0.05863314 -0.02071108 0.01971295
v 0.05835279 -0.02124763 0.02131151
v 0.05834201 -0.02150155 0.01971295
v 0.05778670 -0.02295883 0.01971295
v 0.05837795 -0.02129399 0.01799551
v 0.05884520 -0.01994711 0.01799551
v 0.05724397 -0.02431676 0.01971295
v 0.05690971 -0.02510723 0.01971295
v 0.05421403 -0.02284843 0.05279095
v 0.05743986 -0.02295883 0.02445946
v 0.05759441 -0.02295883 0.02287729
v 0.05686837 -0.02500787 0.02129512
v 0.05719904 -0.02421740 0.02129512
v 0.05770942 -0.02295883 0.02129512
f 1 2 7
f 1 7 13
f 1 13 21
f 1 21 34
f 1 34 55
f 1 55 88
f 1 88 90
f 1 90 130
f 1 130 145
f 1 145 102
f 1 102 68
f 1 68 67
f 1 67 43
f 1 43 37
f 1 37 23
f 1 23 14
f 1 14 8
f 1 8 3
f 1 3 10
f 1 10 18
f 1 18 30
f 1 30 48
f 1 48 77
f 1 77 112
f 1 112 159
f 1 159 210
f 1 210 221
f 1 221 220
f 1 220 168
f 1 168 121
f 1 121 120
f 1 120 84
f 1 84 83
f 1 83 51
f 1 51 32
f 1 32 19
f 1 19 11
f 1 11 4
f 1 4 2
f 2 4 5
f 2 5 6
f 2 6 7
f 3 8 9
f 3 9 10
f 4 11 12
f 4 12 5
f 5 12 20
f 5 20 33
f 5 33 54
f 5 54 87
f 5 87 128
f 5 128 184
f 5 184 131
f 5 131 92
f 5 92 59
f 5 59 36
f 5 36 22
f 5 22 13
f 5 13 7
f 5 7 6
f 8 14 9
f 9 15 16
f 9 16 17
f 9 17 18
f 9 18 10
f 9 14 15
f 11 19 31
f 11 31 49
f 11 49 78
f 11 78 113
f 11 113 160
f 11 160 211
f 11 211 253
f 11 253 271
f 11 271 259
f 11 259 223
f 11 223 173
f 11 173 124
f 11 124 86
f 11 86 53
f 11 53 33
f 11 33 20
f 11 20 12
f 13 22 21
f 14 23 15
f 15 24 25
f 15 25 26
f 15 26 27
f 15 27 28
f 15 28 29
f 15 29 16
f 15 23 24
f 16 29 28
f 16 28 17
f 17 28 30
f 17 30 18
f 19 32 31
f 21 22 34
f 22 35 34
f 22 36 35
f 23 37 24
f 24 38 39
f 24 39 40
f 24 40 41
f 24 41 42
f 24 42 25
f 24 37 43
f 24 43 38
f 25 42 26
f 26 42 27
f 27 42 28
f 28 42 44
f 28 44 45
f 28 45 46
f 28 46 47
f 28 47 48
f 28 48 30
f 31 32 50
f 31 50 49
f 32 51 52
f 32 52 50
f 33 53 54
f 34 35 56
f 34 56 55
f 35 57 56
f 35 36 58
f 35 58 57
f 36 59 60
f 36 60 61
f 36 61 62
f 36 62 58
f 38 63 64
f 38 64 65
f 38 65 66
f 38 66 39
f 38 43 67
f 38 67 68
f 38 68 63
f 39 66 40
f 40 66 41
f 41 66 42
f 42 66 69
f 42 69 70
f 42 70 71
f 42 71 44
f 44 71 72
f 44 72 73
f 44 73 45
f 45 73 46
f 46 73 74
f 46 74 75
f 46 75 76
f 46 76 48
f 46 48 47
f 48 76 77
f 49 50 79
f 49 79 80
f 49 80 81
f 49 81 82
f 49 82 78
f 50 52 79
f 51 83 52
f 52 83 84
f 52 84 85
f 52 85 79
f 53 86 54
f 54 86 87
f 55 56 88
f 56 57 58
f 56 58 89
f 56 89 90
f 56 90 88
f 58 62 91
f 58 91 89
f 59 92 60
f 60 92 93
f 60 93 61
f 61 93 94
f 61 94 62
f 62 95 91
f 62 94 96
f 62 96 95
f 63 68 97
f 63 97 98
f 63 98 64
f 64 98 65
f 65 98 66
f 66 98 99
f 66 99 100
f 66 100 101
f 66 101 72
f 66 72 69
f 68 102 103
f 68 103 97
f 69 72 70
f 70 72 71
f 72 101 100
f 72 100 104
f 72 104 105
f 72 105 106
f 72 106 107
f 72 107 108
f 72 108 109
f 72 109 73
f 73 109 110
f 73 110 74
f 74 110 75
f 75 110 111
f 75 111 76
f 76 111 77
f 77 111 112
f 78 82 113
f 79 114 80
f 79 85 115
f 79 115 114
f 80 114 81
f 81 114 116
f 81 116 82
f 82 117 118
f 82 118 113
f 82 116 119
f 82 119 117
f 84 120 85
f 85 120 121
f 85 121 122
f 85 122 123
f 85 123 115
f 86 124 87
f 87 125 126
f 87 126 127
f 87 127 128
f 87 124 129
f 87 129 125
f 89 91 90
f 90 91 95
f 90 95 130
f 92 131 132
f 92 132 93
f 93 133 134
f 93 134 94
f 93 132 135
f 93 135 136
f 93 136 137
f 93 137 133
f 94 134 96
f 95 96 138
f 95 138 130
f 96 133 139
f 96 139 140
f 96 140 141
f 96 141 98
f 96 98 142
f 96 142 138
f 96 134 133
f 97 103 142
f 97 142 98
f 98 141 99
f 99 141 143
f 99 143 104
f 99 104 144
f 99 144 100
f 100 144 104
f 102 145 103
f 103 138 142
f 103 145 130
f 103 130 138
f 104 143 146
f 104 146 147
f 104 147 105
f 105 147 148
f 105 148 149
f 105 149 150
f 105 150 106
f 106 150 149
f 106 149 107
f 107 110 108
f 107 149 151
f 107 151 152
f 107 152 153
f 107 153 154
f 107 154 110
f 108 110 109
f 110 154 155
f 110 155 156
f 110 156 111
f 111 156 157
f 111 157 158
f 111 158 159
f 111 159 112
f 113 118 161
f 113 161 160
f 114 115 162
f 114 162 116
f 115 123 162
f 116 162 163
f 116 163 119
f 117 164 161
f 117 161 118
f 117 119 165
f 117 165 164
f 119 163 166
f 119 166 167
f 119 167 165
f 121 168 122
f 122 168 169
f 122 169 123
f 123 170 162
f 123 169 171
f 123 171 172
f 123 172 170
f 124 173 174
f 124 174 175
f 124 175 129
f 125 176 126
f 125 129 177
f 125 177 176
f 126 178 179
f 126 179 180
f 126 180 127
f 126 176 178
f 127 180 128
f 128 180 181
f 128 181 182
f 128 182 183
f 128 183 184
f 129 175 177
f 131 185 132
f 131 184 185
f 132 185 135
f 133 137 139
f 135 186 136
f 135 185 186
f 136 186 187
f 136 187 137
f 137 188 139
f 137 187 186
f 137 186 189
f 137 189 190
f 137 190 191
f 137 191 188
f 139 192 141
f 139 141 140
f 139 188 192
f 141 192 143
f 143 192 146
f 146 191 147
f 146 192 191
f 147 191 193
f 147 193 149
f 147 149 148
f 149 193 194
f 149 194 195
f 149 195 196
f 149 196 151
f 151 196 197
f 151 197 198
f 151 198 152
f 152 198 199
f 152 199 200
f 152 200 201
f 152 201 153
f 153 201 154
f 154 201 202
f 154 202 203
f 154 203 204
f 154 204 155
f 155 204 205
f 155 205 156
f 156 205 206
f 156 206 207
f 156 207 208
f 156 208 157
f 157 208 158
f 158 208 209
f 158 209 159
f 159 209 210
f 160 161 211
f 161 164 212
f 161 212 213
f 161 213 211
f 162 170 163
f 163 170 214
f 163 214 166
f 164 165 215
f 164 215 216
f 164 216 212
f 165 167 217
f 165 217 215
f 166 214 218
f 166 218 167
f 167 218 219
f 167 219 217
f 168 220 169
f 169 220 221
f 169 221 209
f 169 209 171
f 170 172 214
f 171 209 208
f 171 208 207
f 171 207 206
f 171 206 172
f 172 222 214
f 172 206 205
f 172 205 204
f 172 204 222
f 173 223 224
f 173 224 174
f 174 224 225
f 174 225 226
f 174 226 177
f 174 177 175
f 176 227 178
f 176 177 226
f 176 226 228
f 176 228 229
f 176 229 227
f 178 227 230
f 178 230 231
f 178 231 179
f 179 231 241
f 179 241 232
f 179 232 180
f 180 232 189
f 180 189 233
f 180 233 181
f 181 233 234
f 181 234 182
f 182 234 235
f 182 235 183
f 183 235 236
f 183 236 237
f 183 237 184
f 184 237 185
f 185 236 186
f 185 237 236
f 186 236 238
f 186 238 239
f 186 239 189
f 188 191 192
f 189 239 233
f 189 232 241
f 189 241 190
f 190 240 191
f 190 241 242
f 190 242 240
f 191 240 243
f 191 243 193
f 193 244 194
f 193 243 245
f 193 245 242
f 193 242 246
f 193 246 244
f 194 244 195
f 195 197 196
f 195 244 246
f 195 246 247
f 195 247 197
f 197 247 248
f 197 248 198
f 198 248 199
f 199 248 249
f 199 249 250
f 199 250 200
f 200 250 251
f 200 251 201
f 201 251 252
f 201 252 202
f 202 252 203
f 203 252 204
f 204 252 222
f 209 221 210
f 211 213 253
f 212 254 255
f 212 255 213
f 212 216 256
f 212 256 254
f 213 255 253
f 214 222 218
f 215 217 257
f 215 257 216
f 216 257 256
f 217 219 258
f 217 258 249
f 217 249 257
f 218 222 252
f 218 252 219
f 219 252 251
f 219 251 250
f 219 250 258
f 223 259 224
f 224 260 225
f 224 259 260
f 225 261 228
f 225 228 226
f 225 260 261
f 227 229 262
f 227 262 263
f 227 263 230
f 228 261 264
f 228 264 262
f 228 262 229
f 230 263 265
f 230 265 266
f 230 266 246
f 230 246 267
f 230 267 242
f 230 242 268
f 230 268 231
f 231 268 241
f 233 239 234
f 234 239 238
f 234 238 236
f 234 236 235
f 240 242 245
f 240 245 243
f 241 268 242
f 242 267 246
f 246 266 269
f 246 269 247
f 247 269 248
f 248 269 270
f 248 270 249
f 249 270 257
f 249 258 250
f 253 255 271
f 254 272 255
f 254 256 273
f 254 273 272
f 255 272 271
f 256 257 274
f 256 274 275
f 256 275 276
f 256 276 273
f 257 270 269
f 257 269 274
f 259 271 272
f 259 272 260
f 260 272 273
f 260 273 261
f 261 273 276
f 261 276 264
f 262 264 263
f 263 264 265
f 264 276 265
f 265 276 266
f 266 276 269
f 269 276 275
f 269 275 274

