# https://github.com/mikedh/trimesh
v -0.02570192 0.02941419 0.00431823
v -0.03850400 0.00006595 0.00431823
v -0.04238069 0.02941419 0.00431823
v -0.04658461 0.02941419 0.01093615
v -0.05489228 0.00006595 0.01093615
v -0.05108571 0.00006595 0.00431823
v -0.04273797 0.02885677 0.00431823
v -0.04303181 0.02929351 0.00455146
v -0.04299175 0.02941419 0.00456701
v -0.05244138 0.02941419 0.01093615
v -0.05981076 0.00006595 0.01093615
v -0.05123597 0.00006595 0.00439015
v -0.05108237 0.00061475 0.00431823
v -0.04346924 0.02770456 0.00431823
v -0.04359946 0.02770456 0.00437071
v -0.04416376 0.02822751 0.00473416
v -0.04382318 0.02929351 0.00487475
v -0.04378645 0.02941419 0.00489353
v -0.05185704 0.02941419 0.01017491
v -0.05252486 0.02898319 0.01066793
v -0.05266510 0.02907801 0.01093615
v -0.05981076 0.00034466 0.01093615
v -0.05967386 0.00006595 0.01075604
v -0.05123263 0.00079290 0.00439144
v -0.05202733 0.00006595 0.00477368
v -0.05107903 0.00079290 0.00431823
v -0.04351598 0.02762985 0.00431823
v -0.04359278 0.02750630 0.00431823
v -0.04449100 0.02717299 0.00459876
v -0.04506198 0.02770456 0.00498294
v -0.04512877 0.02929351 0.00545394
v -0.04513210 0.02941419 0.00549151
v -0.05184702 0.02941419 0.01016260
v -0.05207408 0.02815280 0.00961256
v -0.05296228 0.02754365 0.01029994
v -0.05378036 0.02698048 0.01093615
v -0.05980742 0.00081301 0.01093615
v -0.05911957 0.00087335 0.01004987
v -0.05918301 0.00006595 0.01012567
v -0.05119590 0.00237611 0.00441023
v -0.05100557 0.00237611 0.00431823
v -0.05202399 0.00079290 0.00477498
v -0.05257828 0.00006595 0.00506198
v -0.05304575 0.00079290 0.00530881
v -0.04408029 0.02671613 0.00431823
v -0.04442088 0.02612710 0.00431823
v -0.04479151 0.02612710 0.00447242
v -0.04558288 0.02612710 0.00480607
v -0.04671150 0.02612710 0.00531659
v -0.04682168 0.02778788 0.00581998
v -0.04634086 0.02929351 0.00603507
v -0.04630078 0.02941419 0.00605386
v -0.05179360 0.02941419 0.01010364
v -0.05234121 0.02709541 0.00932361
v -0.05093879 0.02941419 0.00916748
v -0.05097218 0.02929351 0.00913703
v -0.05336297 0.02612710 0.00997018
v -0.05388721 0.02675061 0.01093615
v -0.05966718 0.00395932 0.01093615
v -0.05917299 0.00395932 0.01025719
v -0.05920639 0.00237611 0.01022738
v -0.05854191 0.00395932 0.00946550
v -0.05858531 0.00145377 0.00941820
v -0.05860201 0.00039925 0.00939942
v -0.05860201 0.00006595 0.00940006
v -0.05114581 0.00395932 0.00443420
v -0.05198726 0.00237611 0.00479376
v -0.05090540 0.00395932 0.00431823
v -0.05304575 0.00006595 0.00530687
v -0.05369020 0.00006595 0.00567421
v -0.05423781 0.00079290 0.00598907
v -0.05304575 0.00237611 0.00534769
v -0.04457448 0.02585413 0.00431823
v -0.04524897 0.02464158 0.00431823
v -0.04584333 0.02519039 0.00469594
v -0.04667143 0.02461572 0.00493435
v -0.04829756 0.02296068 0.00532501
v -0.04842779 0.02464733 0.00579342
v -0.04802710 0.02612710 0.00596575
v -0.04771990 0.02731091 0.00612901
v -0.04742606 0.02836830 0.00628968
v -0.04713222 0.02929351 0.00645488
v -0.04709215 0.02941419 0.00647691
v -0.05137621 0.02754078 0.00868288
v -0.05165669 0.02612710 0.00831684
v -0.05256827 0.02612710 0.00910853
v -0.05387385 0.02383418 0.00937544
v -0.05364345 0.02489156 0.00963783
v -0.04990367 0.02941419 0.00832202
v -0.04986360 0.02937971 0.00827149
v -0.05038116 0.02798327 0.00804214
v -0.05402411 0.02612710 0.01076187
v -0.05527961 0.02349512 0.01093615
v -0.05956367 0.00554252 0.01093615
v -0.05911957 0.00554252 0.01031096
v -0.05849516 0.00554252 0.00951927
v -0.05770379 0.00554252 0.00876516
v -0.05775054 0.00395932 0.00872694
v -0.05837495 0.00006595 0.00919534
v -0.05777725 0.00237611 0.00870361
v -0.05795422 0.00087335 0.00882088
v -0.05692578 0.00079290 0.00789184
v -0.05692578 0.00006595 0.00789184
v -0.05076515 0.00554252 0.00431823
v -0.05193718 0.00395932 0.00481903
v -0.05423781 0.00006595 0.00598842
v -0.05420442 0.00237611 0.00600980
v -0.05466521 0.00006595 0.00626830
v -0.05502918 0.00079290 0.00650801
v -0.05416769 0.00395932 0.00603701
v -0.05304575 0.00395932 0.00540081
v -0.04526233 0.02461572 0.00431823
v -0.04611380 0.02413587 0.00457803
v -0.04718565 0.02296068 0.00480413
v -0.04822744 0.02141770 0.00496286
v -0.04999049 0.02141195 0.00584524
v -0.04958312 0.02296068 0.00597611
v -0.04929929 0.02418760 0.00612836
v -0.04904218 0.02524211 0.00627348
v -0.04881846 0.02612710 0.00640370
v -0.04826751 0.02778788 0.00660583
v -0.04841109 0.02937971 0.00727054
v -0.04840108 0.02941419 0.00727702
v -0.05067500 0.02692588 0.00782705
v -0.05202399 0.02454389 0.00800586
v -0.05308916 0.02443470 0.00889797
v -0.05428122 0.02443470 0.01018139
v -0.05405082 0.02296068 0.00920247
v -0.05534305 0.02035457 0.00950113
v -0.05515272 0.02137747 0.00972659
v -0.05557345 0.02254405 0.01079945
v -0.04981017 0.02941419 0.00824622
v -0.04932267 0.02890561 0.00767481
v -0.05563689 0.02261875 0.01093615
v -0.05941341 0.00712860 0.01093615
v -0.05904611 0.00712860 0.01040036
v -0.05841835 0.00712860 0.00960868
v -0.05762699 0.00712860 0.00882217
v -0.05675215 0.00712860 0.00803048
v -0.05682227 0.00554252 0.00797347
v -0.05687236 0.00395932 0.00793525
v -0.05689907 0.00237611 0.00791192
v -0.05613442 0.00079290 0.00729969
v -0.05613442 0.00006595 0.00729905
v -0.05656182 0.00006595 0.00761909
v -0.05061489 0.00712860 0.00431823
v -0.05107235 0.00554252 0.00446789
v -0.05186372 0.00554252 0.00485401
v -0.05499578 0.00237611 0.00652939
v -0.05495906 0.00395932 0.00655206
v -0.05502918 0.00006595 0.00650736
v -0.05562687 0.00006595 0.00693495
v -0.05610770 0.00237611 0.00732107
v -0.05608099 0.00395932 0.00734375
v -0.05411093 0.00554252 0.00607653
v -0.05490229 0.00554252 0.00658640
v -0.05304575 0.00554252 0.00547531
v -0.04573648 0.02368189 0.00431823
v -0.04639428 0.02296068 0.00445299
v -0.04741604 0.02197225 0.00470371
v -0.04866821 0.01979139 0.00485725
v -0.04988030 0.01979139 0.00545782
v -0.04765312 0.02091487 0.00459617
v -0.05079855 0.02090912 0.00617371
v -0.05058818 0.02196651 0.00629486
v -0.05037448 0.02296068 0.00642378
v -0.04985024 0.02464733 0.00658510
v -0.04988030 0.02612710 0.00705999
v -0.04986360 0.02755802 0.00752839
v -0.04845116 0.02941419 0.00730941
v -0.05086533 0.02612710 0.00769424
v -0.05222100 0.02367327 0.00785362
v -0.05299567 0.02306987 0.00830842
v -0.05436136 0.02137747 0.00891611
v -0.05346982 0.02137747 0.00812442
v -0.05552002 0.01929718 0.00931001
v -0.05649170 0.01820819 0.01003626
v -0.05617783 0.01968221 0.01024682
v -0.05580385 0.02137747 0.01051827
v -0.05663194 0.01994655 0.01093615
v -0.05608767 0.02141195 0.01093615
v -0.05921974 0.00874629 0.01093615
v -0.05895595 0.00871181 0.01051763
v -0.05832152 0.00871181 0.00972594
v -0.05753016 0.00871181 0.00889927
v -0.05666533 0.00871181 0.00810693
v -0.05587397 0.00871181 0.00749081
v -0.05596079 0.00712860 0.00742732
v -0.05603090 0.00554252 0.00737809
v -0.05178692 0.00712860 0.00489094
v -0.05042457 0.00871181 0.00431823
v -0.05404081 0.00712860 0.00612188
v -0.05304575 0.00712860 0.00555694
v -0.05483217 0.00712860 0.00663564
v -0.04608374 0.02296068 0.00431823
v -0.04681835 0.02141770 0.00432665
v -0.04890862 0.01847541 0.00474777
v -0.04972002 0.01805015 0.00507429
v -0.04787684 0.01979139 0.00449056
v -0.05127270 0.01820819 0.00590549
v -0.05100223 0.01979139 0.00605645
v -0.04723573 0.02041778 0.00431823
v -0.04749284 0.01979139 0.00431823
v -0.05179360 0.01979139 0.00653457
v -0.05137955 0.02141195 0.00666673
v -0.05160327 0.02306987 0.00726147
v -0.05123263 0.02454389 0.00744222
v -0.05243136 0.02261588 0.00770202
v -0.05369688 0.02016493 0.00793784
v -0.05570034 0.01820819 0.00913314
v -0.05672877 0.01662498 0.00974343
v -0.05713280 0.01820819 0.01082795
v -0.05705267 0.01873401 0.01093615
v -0.05697921 0.01896387 0.01093615
v -0.05694581 0.01906157 0.01093615
v -0.05899268 0.01029502 0.01093615
v -0.05882907 0.01029502 0.01067959
v -0.05819464 0.01029502 0.00988790
v -0.05740327 0.01029502 0.00900811
v -0.05654513 0.01029502 0.00821642
v -0.05575376 0.01029502 0.00758151
v -0.05473868 0.00871181 0.00669913
v -0.05169008 0.00871181 0.00493953
v -0.05030436 0.00946463 0.00431823
v -0.05077517 0.01029502 0.00461301
v -0.05394731 0.00871181 0.00618019
v -0.05304575 0.00871181 0.00566384
v -0.04679831 0.02141770 0.00431823
v -0.04834765 0.01805015 0.00441671
v -0.04908893 0.01741802 0.00466354
v -0.05001052 0.01662498 0.00498164
v -0.04762307 0.01944659 0.00431823
v -0.05159659 0.01670830 0.00582257
v -0.05238127 0.01623420 0.00617177
v -0.05221432 0.01729159 0.00627154
v -0.05206406 0.01820819 0.00636353
v -0.05304575 0.01820819 0.00701917
v -0.05311921 0.01969945 0.00741113
v -0.05267512 0.02137747 0.00752774
v -0.05387385 0.01911041 0.00780308
v -0.05506924 0.01662498 0.00811600
v -0.05481548 0.01820819 0.00834146
v -0.05593741 0.01662498 0.00890769
v -0.05689573 0.01531186 0.00954648
v -0.05735653 0.01662498 0.01053512
v -0.05762699 0.01665946 0.01093615
v -0.05720293 0.01820819 0.01093615
v -0.05870886 0.01187823 0.01093615
v -0.05867547 0.01187823 0.01088108
v -0.05804438 0.01187823 0.01008939
v -0.05700592 0.01425735 0.00941237
v -0.05708940 0.01346144 0.00932297
v -0.05724967 0.01187823 0.00915258
v -0.05639820 0.01187823 0.00836089
v -0.05548997 0.01299883 0.00777652
v -0.05560350 0.01187823 0.00769100
v -0.05463183 0.01187823 0.00699909
v -0.05449158 0.01025767 0.00670172
v -0.05378369 0.01076050 0.00628126
v -0.05387051 0.00970599 0.00622684
v -0.05156654 0.01029502 0.00500367
v -0.05016746 0.01029502 0.00431823
v -0.05069503 0.01121161 0.00465188
v -0.05012071 0.01056511 0.00431823
v -0.05317264 0.01025767 0.00587375
v -0.04832762 0.01748411 0.00431823
v -0.04812059 0.01807314 0.00431823
v -0.04853464 0.01686634 0.00431823
v -0.04861478 0.01662498 0.00431823
v -0.04921582 0.01662498 0.00460200
v -0.04946959 0.01504177 0.00448150
v -0.05026095 0.01504177 0.00486114
v -0.05146303 0.01504177 0.00547920
v -0.05254155 0.01504177 0.00607329
v -0.05333292 0.01504177 0.00656891
v -0.05296228 0.01670830 0.00663823
v -0.05427454 0.01662498 0.00750960
v -0.05402411 0.01820819 0.00769359
v -0.05527293 0.01504177 0.00794756
v -0.05630471 0.01488661 0.00887335
v -0.05856194 0.01264254 0.01093615
v -0.05744000 0.01488661 0.01012697
v -0.05853857 0.01274597 0.01093615
v -0.05802769 0.01498718 0.01093615
v -0.05863540 0.01228337 0.01093615
v -0.05537978 0.01405334 0.00786334
v -0.05448157 0.01504177 0.00736059
v -0.05476205 0.01350166 0.00732885
v -0.05351657 0.01346144 0.00645164
v -0.05368019 0.01187823 0.00634669
v -0.05288882 0.01187823 0.00587375
v -0.05131945 0.01179490 0.00502116
v -0.05059152 0.01226613 0.00470242
v -0.04999049 0.01179490 0.00436747
v -0.04988697 0.01180065 0.00431823
v -0.04911898 0.01504177 0.00431823
v -0.04921247 0.01469984 0.00431823
v -0.04967661 0.01346144 0.00438108
v -0.05046798 0.01346144 0.00476267
v -0.05146303 0.01346144 0.00527189
v -0.05272520 0.01346144 0.00596510
v -0.04956976 0.01333788 0.00431823
v -0.04953971 0.01346144 0.00431823
f 1 2 6
f 1 6 13
f 1 13 26
f 1 26 41
f 1 41 68
f 1 68 104
f 1 104 146
f 1 146 191
f 1 191 224
f 1 224 262
f 1 262 264
f 1 264 295
f 1 295 302
f 1 302 303
f 1 303 297
f 1 297 296
f 1 296 269
f 1 269 268
f 1 268 266
f 1 266 267
f 1 267 232
f 1 232 203
f 1 203 202
f 1 202 228
f 1 228 195
f 1 195 158
f 1 158 112
f 1 112 74
f 1 74 73
f 1 73 46
f 1 46 45
f 1 45 28
f 1 28 27
f 1 27 14
f 1 14 7
f 1 7 3
f 1 3 9
f 1 9 18
f 1 18 32
f 1 32 52
f 1 52 83
f 1 83 123
f 1 123 170
f 1 170 132
f 1 132 89
f 1 89 55
f 1 55 53
f 1 53 33
f 1 33 19
f 1 19 10
f 1 10 4
f 1 4 5
f 1 5 2
f 2 5 11
f 2 11 23
f 2 23 39
f 2 39 65
f 2 65 99
f 2 99 103
f 2 103 145
f 2 145 144
f 2 144 152
f 2 152 151
f 2 151 108
f 2 108 106
f 2 106 70
f 2 70 69
f 2 69 43
f 2 43 25
f 2 25 12
f 2 12 6
f 3 7 8
f 3 8 9
f 4 10 21
f 4 21 36
f 4 36 58
f 4 58 93
f 4 93 134
f 4 134 181
f 4 181 180
f 4 180 215
f 4 215 214
f 4 214 213
f 4 213 247
f 4 247 246
f 4 246 284
f 4 284 283
f 4 283 281
f 4 281 285
f 4 285 248
f 4 248 216
f 4 216 182
f 4 182 135
f 4 135 94
f 4 94 59
f 4 59 37
f 4 37 22
f 4 22 11
f 4 11 5
f 6 12 13
f 7 14 15
f 7 15 16
f 7 16 8
f 8 16 17
f 8 17 9
f 9 17 18
f 10 19 20
f 10 20 21
f 11 22 23
f 12 24 13
f 12 25 42
f 12 42 24
f 13 24 26
f 14 27 15
f 15 28 29
f 15 29 16
f 15 27 28
f 16 29 30
f 16 30 17
f 17 30 31
f 17 31 18
f 18 31 32
f 19 33 20
f 20 33 34
f 20 34 35
f 20 35 36
f 20 36 21
f 22 37 23
f 23 37 38
f 23 38 39
f 24 40 41
f 24 41 26
f 24 42 67
f 24 67 40
f 25 43 44
f 25 44 42
f 28 45 29
f 29 46 47
f 29 47 48
f 29 48 30
f 29 45 46
f 30 48 49
f 30 49 50
f 30 50 31
f 31 50 51
f 31 51 32
f 32 51 52
f 33 53 34
f 34 54 35
f 34 53 55
f 34 55 56
f 34 56 54
f 35 54 36
f 36 54 57
f 36 57 58
f 37 59 60
f 37 60 61
f 37 61 38
f 38 61 60
f 38 60 62
f 38 62 63
f 38 63 64
f 38 64 39
f 39 64 65
f 40 66 41
f 40 67 66
f 41 66 68
f 42 44 67
f 43 69 44
f 44 69 70
f 44 70 71
f 44 71 72
f 44 72 67
f 46 73 47
f 47 73 74
f 47 74 75
f 47 75 48
f 48 75 49
f 49 75 76
f 49 76 77
f 49 77 78
f 49 78 79
f 49 79 80
f 49 80 50
f 50 80 81
f 50 81 51
f 51 81 52
f 52 81 82
f 52 82 83
f 54 56 84
f 54 84 85
f 54 85 86
f 54 86 87
f 54 87 88
f 54 88 57
f 55 89 90
f 55 90 56
f 56 90 91
f 56 91 84
f 57 88 92
f 57 92 58
f 58 92 93
f 59 94 95
f 59 95 60
f 60 95 96
f 60 96 62
f 62 96 97
f 62 97 98
f 62 98 63
f 63 98 64
f 64 99 65
f 64 98 100
f 64 100 101
f 64 101 102
f 64 102 103
f 64 103 99
f 66 104 68
f 66 67 105
f 66 105 104
f 67 72 105
f 70 106 71
f 71 107 72
f 71 106 108
f 71 108 109
f 71 109 107
f 72 107 110
f 72 110 111
f 72 111 105
f 74 112 75
f 75 112 113
f 75 113 76
f 76 113 114
f 76 114 77
f 77 115 116
f 77 116 117
f 77 117 78
f 77 114 115
f 78 117 118
f 78 118 79
f 79 118 119
f 79 119 80
f 80 119 120
f 80 120 81
f 81 120 121
f 81 121 122
f 81 122 123
f 81 123 82
f 82 123 83
f 84 91 124
f 84 124 85
f 85 125 86
f 85 124 125
f 86 125 126
f 86 126 87
f 87 127 88
f 87 126 128
f 87 128 129
f 87 129 130
f 87 130 131
f 87 131 127
f 88 127 92
f 89 132 90
f 90 132 91
f 91 132 133
f 91 133 124
f 92 127 93
f 93 127 131
f 93 131 134
f 94 135 136
f 94 136 95
f 95 136 96
f 96 137 138
f 96 138 97
f 96 136 137
f 97 138 139
f 97 139 140
f 97 140 141
f 97 141 98
f 98 141 142
f 98 142 100
f 100 142 101
f 101 142 102
f 102 142 143
f 102 143 144
f 102 144 145
f 102 145 103
f 104 105 147
f 104 147 146
f 105 148 147
f 105 111 148
f 107 109 149
f 107 149 150
f 107 150 110
f 108 151 109
f 109 151 152
f 109 152 143
f 109 143 153
f 109 153 154
f 109 154 149
f 110 155 111
f 110 150 156
f 110 156 155
f 111 155 157
f 111 157 148
f 112 158 113
f 113 159 114
f 113 158 159
f 114 159 160
f 114 160 115
f 115 161 162
f 115 162 116
f 115 160 163
f 115 163 161
f 116 162 164
f 116 164 165
f 116 165 117
f 117 165 166
f 117 166 118
f 118 166 167
f 118 167 119
f 119 167 120
f 120 167 168
f 120 168 121
f 121 168 169
f 121 169 122
f 122 169 133
f 122 133 123
f 123 133 170
f 124 171 125
f 124 133 169
f 124 169 168
f 124 168 171
f 125 172 126
f 125 171 172
f 126 173 128
f 126 172 173
f 128 174 129
f 128 173 175
f 128 175 174
f 129 174 176
f 129 176 177
f 129 177 178
f 129 178 179
f 129 179 130
f 130 179 131
f 131 179 180
f 131 180 181
f 131 181 134
f 132 170 133
f 135 182 183
f 135 183 136
f 136 183 137
f 137 183 184
f 137 184 185
f 137 185 138
f 138 185 186
f 138 186 139
f 139 186 187
f 139 187 188
f 139 188 140
f 140 188 189
f 140 189 141
f 141 189 154
f 141 154 142
f 142 154 153
f 142 153 143
f 143 152 144
f 146 147 148
f 146 148 190
f 146 190 191
f 148 157 190
f 149 154 150
f 150 154 189
f 150 189 156
f 155 156 192
f 155 192 193
f 155 193 157
f 156 194 192
f 156 189 188
f 156 188 194
f 157 193 190
f 158 195 159
f 159 195 196
f 159 196 160
f 160 196 163
f 161 197 198
f 161 198 162
f 161 163 199
f 161 199 197
f 162 198 200
f 162 200 201
f 162 201 164
f 163 196 202
f 163 202 203
f 163 203 199
f 164 201 204
f 164 204 165
f 165 204 205
f 165 205 206
f 165 206 166
f 166 206 207
f 166 207 167
f 167 207 168
f 168 207 171
f 171 207 172
f 172 207 206
f 172 206 208
f 172 208 209
f 172 209 175
f 172 175 173
f 174 175 209
f 174 209 176
f 176 210 211
f 176 211 177
f 176 209 210
f 177 211 212
f 177 212 213
f 177 213 214
f 177 214 178
f 178 214 215
f 178 215 179
f 179 215 180
f 182 216 217
f 182 217 183
f 183 217 218
f 183 218 184
f 184 218 219
f 184 219 185
f 185 219 220
f 185 220 186
f 186 220 221
f 186 221 187
f 187 221 222
f 187 222 194
f 187 194 188
f 190 223 191
f 190 193 223
f 191 223 225
f 191 225 224
f 192 226 227
f 192 227 193
f 192 194 226
f 193 227 223
f 194 222 226
f 195 228 196
f 196 228 202
f 197 199 229
f 197 229 230
f 197 230 231
f 197 231 198
f 198 231 200
f 199 203 232
f 199 232 229
f 200 233 234
f 200 234 235
f 200 235 201
f 200 231 233
f 201 235 236
f 201 236 204
f 204 236 237
f 204 237 238
f 204 238 239
f 204 239 205
f 205 239 206
f 206 239 208
f 208 239 209
f 209 239 238
f 209 238 240
f 209 240 241
f 209 241 242
f 209 242 210
f 210 243 211
f 210 242 241
f 210 241 243
f 211 244 245
f 211 245 212
f 211 243 244
f 212 245 246
f 212 246 247
f 212 247 213
f 216 248 249
f 216 249 217
f 217 249 250
f 217 250 218
f 218 250 251
f 218 251 252
f 218 252 253
f 218 253 219
f 219 253 254
f 219 254 220
f 220 254 255
f 220 255 256
f 220 256 221
f 221 256 257
f 221 257 258
f 221 258 222
f 222 258 259
f 222 259 260
f 222 260 226
f 223 261 225
f 223 227 261
f 224 225 262
f 225 261 263
f 225 263 264
f 225 264 262
f 226 260 265
f 226 265 227
f 227 265 261
f 229 266 230
f 229 232 267
f 229 267 266
f 230 266 268
f 230 268 269
f 230 269 270
f 230 270 231
f 231 270 271
f 231 271 272
f 231 272 273
f 231 273 233
f 233 273 234
f 234 273 274
f 234 274 275
f 234 275 276
f 234 276 235
f 235 276 236
f 236 276 237
f 237 276 277
f 237 277 278
f 237 278 238
f 238 278 240
f 240 278 241
f 241 278 277
f 241 277 279
f 241 279 243
f 243 280 251
f 243 251 244
f 243 279 280
f 244 251 250
f 244 250 281
f 244 281 282
f 244 282 245
f 245 282 283
f 245 283 284
f 245 284 246
f 248 285 249
f 249 285 281
f 249 281 250
f 251 280 252
f 252 280 253
f 253 280 254
f 254 280 279
f 254 279 286
f 254 286 255
f 255 286 287
f 255 287 288
f 255 288 256
f 256 288 257
f 257 288 289
f 257 289 290
f 257 290 258
f 258 290 259
f 259 290 291
f 259 291 265
f 259 265 260
f 261 292 263
f 261 265 291
f 261 291 292
f 263 292 293
f 263 293 294
f 263 294 295
f 263 295 264
f 269 296 271
f 269 271 270
f 271 296 297
f 271 297 298
f 271 298 272
f 272 298 299
f 272 299 300
f 272 300 273
f 273 300 301
f 273 301 274
f 274 301 289
f 274 289 275
f 275 289 287
f 275 287 277
f 275 277 276
f 277 287 279
f 279 287 286
f 281 283 282
f 287 289 288
f 289 301 290
f 290 301 291
f 291 301 300
f 291 300 292
f 292 300 299
f 292 299 293
f 293 299 298
f 293 298 295
f 293 295 294
f 295 298 302
f 297 303 298
f 298 303 302

