# https://github.com/mikedh/trimesh
v 0.05484465 -0.01117468 0.01091673
v 0.05882039 -0.01117468 0.01091673
v 0.05369720 -0.01117468 0.01092647
v 0.05373881 -0.01095114 0.01091673
v 0.05896918 -0.01028900 0.01091673
v 0.05952273 -0.01028900 0.01179781
v 0.05936386 -0.01117468 0.01179781
v 0.05491527 0.01773319 0.01806267
v 0.05476648 0.00006475 0.01091673
v 0.05332522 -0.01117468 0.04979100
v 0.05157126 0.01773319 0.04979587
v 0.05158891 0.01773319 0.04933830
v 0.05163935 0.01773319 0.04819436
v 0.05167340 0.01773319 0.04768324
v 0.05174779 0.01773319 0.04662693
v 0.05188271 0.01773319 0.04504489
v 0.05215760 0.01773319 0.04191003
v 0.05245770 0.01773319 0.03869728
v 0.05260901 0.01773319 0.03712011
v 0.05276032 0.01773319 0.03563543
v 0.05294316 0.01773319 0.03395604
v 0.05299612 0.01773319 0.03347900
v 0.05312095 0.01773319 0.03237401
v 0.05330001 0.01773319 0.03083578
v 0.05349923 0.01773319 0.02921480
v 0.05917723 -0.00872702 0.01091673
v 0.05982788 -0.00712260 0.01157875
v 0.05980771 -0.00878361 0.01190003
v 0.06015194 -0.00936370 0.01263507
v 0.06008133 -0.01028900 0.01281031
v 0.06002837 -0.01117468 0.01310238
v 0.05959335 0.01773319 0.01806267
v 0.05977618 0.00006475 0.01091673
v 0.05332775 -0.01117468 0.05049197
v 0.05155991 0.01773319 0.05137790
v 0.05156243 0.01773319 0.05090086
v 0.05937647 -0.00712260 0.01091673
v 0.05990354 -0.00554082 0.01143759
v 0.06037765 -0.00554082 0.01223104
v 0.06029569 -0.00712260 0.01236734
v 0.06022255 -0.00830823 0.01249390
v 0.06443913 -0.00712260 0.02059392
v 0.06443913 -0.00834785 0.02138251
v 0.06021246 -0.01117468 0.01355995
v 0.05960217 0.01773319 0.01815029
v 0.06443535 0.00882540 0.02288179
v 0.06443535 0.00849999 0.02132896
v 0.06443535 0.00734549 0.02060366
v 0.06001954 0.01629572 0.01806267
v 0.06002080 0.00006475 0.01123801
v 0.06002206 -0.00079264 0.01123314
v 0.05977870 -0.00076151 0.01091673
v 0.05333153 -0.01117468 0.05137304
v 0.05161539 0.01773319 0.05248290
v 0.05953408 -0.00554082 0.01091673
v 0.05995397 -0.00395903 0.01134997
v 0.06044069 -0.00395903 0.01213855
v 0.06106990 -0.00395903 0.01338471
v 0.06443913 -0.00670381 0.02053551
v 0.06443913 -0.00842708 0.02161129
v 0.06063866 -0.01117468 0.01489373
v 0.06030703 -0.01117468 0.01380821
v 0.06191852 0.01773319 0.05677630
v 0.06443535 0.00866128 0.04979100
v 0.06443913 0.00006192 0.05211294
v 0.06443913 0.00006475 0.02048683
v 0.06195382 0.01773319 0.05770605
v 0.06443535 0.00712477 0.02053551
v 0.06050627 0.00006475 0.01202659
v 0.06050627 -0.00079264 0.01202659
v 0.06048105 -0.00237442 0.01207527
v 0.05999306 -0.00237442 0.01128182
v 0.05971692 -0.00237442 0.01091673
v 0.05342232 -0.01117468 0.05295994
v 0.05164313 0.01773319 0.05295021
v 0.05964000 -0.00395903 0.01091673
v 0.06115313 -0.00237442 0.01338471
v 0.06443913 -0.00554082 0.02037974
v 0.06443913 -0.00860534 0.02287692
v 0.06099929 -0.01117468 0.01654878
v 0.06443535 0.00842076 0.05078890
v 0.06224132 0.01662396 0.05770605
v 0.06262590 0.01503935 0.05770605
v 0.06299914 0.01345756 0.05770605
v 0.06326015 0.01228608 0.05770605
v 0.06443913 -0.00079264 0.05210321
v 0.06443535 0.00834436 0.05100795
v 0.06443535 0.00735114 0.05153854
v 0.06443535 0.00712477 0.05164563
v 0.06443535 0.00584576 0.05187929
v 0.06441139 0.00006475 0.05770605
v 0.06443913 -0.00490131 0.02038461
v 0.06443535 0.00554016 0.02041868
v 0.06184538 0.01773319 0.05836320
v 0.06182521 0.01765679 0.05861146
v 0.06121239 0.00006475 0.01338471
v 0.06121239 -0.00079264 0.01338471
v 0.05355219 -0.01117468 0.05396271
v 0.05183858 0.01773319 0.05454198
v 0.05178184 0.01773319 0.05408927
v 0.06128552 -0.01117468 0.01965444
v 0.06119600 -0.01117468 0.01813082
v 0.06443913 -0.00868741 0.04979100
v 0.06342155 0.01149661 0.05770605
v 0.06336733 0.01121930 0.05854818
v 0.06443913 -0.00237442 0.05204966
v 0.06363591 0.01029117 0.05770605
v 0.06385405 0.00882540 0.05770605
v 0.06387045 0.00870938 0.05770605
v 0.06403311 0.00712477 0.05770605
v 0.06414533 0.00554016 0.05770605
v 0.06423738 0.00395837 0.05770605
v 0.06432313 0.00237942 0.05770605
v 0.06440383 0.00079481 0.05770605
v 0.06380992 0.00079481 0.05907390
v 0.06381370 0.00006475 0.05907390
v 0.06443913 -0.00834219 0.05095928
v 0.06443913 -0.00712260 0.05153367
v 0.06443913 -0.00554082 0.05180627
v 0.06443913 -0.00389961 0.05196204
v 0.06170415 0.01773319 0.05870881
v 0.06195887 0.01662396 0.05880130
v 0.05831097 -0.01117468 0.05396271
v 0.05938151 0.00006475 0.06061213
v 0.05818992 0.00006475 0.06028112
v 0.05740057 0.00006475 0.05982841
v 0.05648009 0.00006475 0.05903982
v 0.05343997 0.01773319 0.05891813
v 0.05266953 0.01773319 0.05772065
v 0.05237195 0.01773319 0.05699048
v 0.05221686 0.01773319 0.05653778
v 0.05208824 0.01773319 0.05592443
v 0.06127039 -0.01117468 0.02129976
v 0.06215557 0.01503935 0.05903009
v 0.06233715 0.01345756 0.05917612
v 0.06344173 0.01029117 0.05866014
v 0.06353756 0.00882540 0.05879644
v 0.06354513 0.00870938 0.05880617
v 0.06362078 0.00712477 0.05888892
v 0.06368005 0.00554016 0.05895221
v 0.06372796 0.00395837 0.05900088
v 0.06377335 0.00237942 0.05903982
v 0.06289700 0.00237942 0.05983328
v 0.06292979 0.00079481 0.05986248
v 0.06293735 0.00006475 0.05986735
v 0.06341273 0.00006475 0.05943898
v 0.06100560 0.01773319 0.05940491
v 0.06113673 0.01662396 0.05959475
v 0.06257294 0.00006475 0.06004259
v 0.06214548 0.00006475 0.06024704
v 0.06096525 0.00006475 0.06057318
v 0.05938151 0.00882540 0.06064620
v 0.05779903 0.01662396 0.06063646
v 0.05621655 0.01773319 0.06053911
v 0.05514097 0.01773319 0.06022270
v 0.05434911 0.01773319 0.05971158
v 0.06133344 0.01503935 0.05981867
v 0.06151627 0.01345756 0.05996471
v 0.06261203 0.01029117 0.05945359
v 0.06270408 0.00870938 0.05959475
v 0.06277469 0.00712477 0.05968238
v 0.06282134 0.00554016 0.05974079
v 0.06285917 0.00395837 0.05978947
v 0.06198282 0.00712477 0.06019836
v 0.06202948 0.00554016 0.06021297
v 0.06206857 0.00395837 0.06022270
v 0.06210640 0.00237942 0.06023244
v 0.06213918 0.00079481 0.06024217
v 0.06030830 0.01773319 0.06002312
v 0.06022886 0.01767377 0.06011074
v 0.06096525 0.00237942 0.06055858
v 0.05938151 0.01029117 0.06064620
v 0.05779903 0.01773319 0.06062186
v 0.06164615 0.01219553 0.06003772
v 0.06176468 0.01113724 0.06008640
v 0.06181890 0.01029117 0.06011561
v 0.06191221 0.00870938 0.06016429
v 0.06096525 0.00882540 0.06043202
v 0.06096525 0.00712477 0.06048556
v 0.06096525 0.00554016 0.06051964
v 0.06096525 0.00395837 0.06054398
v 0.06014690 0.01773319 0.06013021
v 0.06034612 0.01662396 0.06016429
v 0.05938151 0.01187578 0.06062186
v 0.05938151 0.01345756 0.06057805
v 0.05938151 0.01503935 0.06050503
v 0.05938151 0.01662396 0.06040768
v 0.05945086 0.01773319 0.06031032
v 0.06054157 0.01503935 0.06023244
v 0.06072315 0.01345756 0.06027625
v 0.06096525 0.01029117 0.06036387
f 1 2 7
f 1 7 31
f 1 31 44
f 1 44 62
f 1 62 61
f 1 61 80
f 1 80 102
f 1 102 101
f 1 101 133
f 1 133 123
f 1 123 98
f 1 98 74
f 1 74 53
f 1 53 34
f 1 34 10
f 1 10 3
f 1 3 4
f 1 4 9
f 1 9 33
f 1 33 52
f 1 52 73
f 1 73 76
f 1 76 55
f 1 55 37
f 1 37 26
f 1 26 5
f 1 5 2
f 2 5 6
f 2 6 7
f 3 8 9
f 3 9 4
f 3 10 11
f 3 11 12
f 3 12 13
f 3 13 14
f 3 14 15
f 3 15 16
f 3 16 17
f 3 17 18
f 3 18 19
f 3 19 20
f 3 20 21
f 3 21 22
f 3 22 23
f 3 23 24
f 3 24 25
f 3 25 8
f 5 26 27
f 5 27 28
f 5 28 6
f 6 28 29
f 6 29 7
f 7 29 30
f 7 30 31
f 8 32 33
f 8 33 9
f 8 25 24
f 8 24 23
f 8 23 22
f 8 22 21
f 8 21 20
f 8 20 19
f 8 19 18
f 8 18 17
f 8 17 16
f 8 16 15
f 8 15 14
f 8 14 13
f 8 13 12
f 8 12 11
f 8 11 36
f 8 36 35
f 8 35 54
f 8 54 75
f 8 75 100
f 8 100 99
f 8 99 132
f 8 132 131
f 8 131 130
f 8 130 129
f 8 129 128
f 8 128 156
f 8 156 155
f 8 155 154
f 8 154 173
f 8 173 188
f 8 188 182
f 8 182 169
f 8 169 147
f 8 147 121
f 8 121 94
f 8 94 67
f 8 67 63
f 8 63 45
f 8 45 32
f 10 34 35
f 10 35 36
f 10 36 11
f 26 37 27
f 27 38 39
f 27 39 40
f 27 40 41
f 27 41 28
f 27 37 38
f 28 41 29
f 29 41 42
f 29 42 30
f 30 42 31
f 31 42 43
f 31 43 44
f 32 45 46
f 32 46 47
f 32 47 48
f 32 48 49
f 32 49 50
f 32 50 33
f 33 50 51
f 33 51 52
f 34 53 35
f 35 53 54
f 37 55 38
f 38 56 57
f 38 57 39
f 38 55 56
f 39 57 58
f 39 58 42
f 39 42 40
f 40 42 41
f 42 59 78
f 42 78 92
f 42 92 66
f 42 66 65
f 42 65 86
f 42 86 106
f 42 106 120
f 42 120 119
f 42 119 118
f 42 118 117
f 42 117 103
f 42 103 79
f 42 79 60
f 42 60 43
f 42 58 59
f 43 60 61
f 43 61 62
f 43 62 44
f 45 63 46
f 46 64 65
f 46 65 66
f 46 66 47
f 46 63 67
f 46 67 64
f 47 66 48
f 48 66 68
f 48 68 50
f 48 50 49
f 50 68 69
f 50 69 51
f 51 69 70
f 51 70 71
f 51 71 72
f 51 72 73
f 51 73 52
f 53 74 54
f 54 74 75
f 55 76 56
f 56 76 72
f 56 72 57
f 57 72 71
f 57 71 77
f 57 77 58
f 58 77 78
f 58 78 59
f 60 79 80
f 60 80 61
f 64 81 65
f 64 67 82
f 64 82 83
f 64 83 84
f 64 84 85
f 64 85 81
f 65 81 87
f 65 87 88
f 65 88 89
f 65 89 90
f 65 90 91
f 65 91 86
f 66 92 93
f 66 93 68
f 67 94 95
f 67 95 82
f 68 93 96
f 68 96 69
f 69 96 97
f 69 97 70
f 70 97 71
f 71 97 77
f 72 76 73
f 74 98 99
f 74 99 100
f 74 100 75
f 77 97 78
f 78 97 96
f 78 96 93
f 78 93 92
f 79 101 102
f 79 102 80
f 79 103 101
f 81 85 104
f 81 104 87
f 82 95 83
f 83 95 105
f 83 105 84
f 84 105 85
f 85 105 104
f 86 91 106
f 87 104 107
f 87 107 108
f 87 108 109
f 87 109 110
f 87 110 111
f 87 111 112
f 87 112 113
f 87 113 114
f 87 114 91
f 87 91 88
f 88 91 89
f 89 91 90
f 91 114 115
f 91 115 116
f 91 116 117
f 91 117 118
f 91 118 119
f 91 119 120
f 91 120 106
f 94 121 95
f 95 121 122
f 95 122 105
f 98 123 124
f 98 124 125
f 98 125 126
f 98 126 127
f 98 127 128
f 98 128 129
f 98 129 130
f 98 130 131
f 98 131 132
f 98 132 99
f 101 103 133
f 103 117 123
f 103 123 133
f 104 105 107
f 105 122 134
f 105 134 135
f 105 135 136
f 105 136 109
f 105 109 108
f 105 108 107
f 109 136 110
f 110 136 137
f 110 137 138
f 110 138 111
f 111 138 139
f 111 139 112
f 112 139 113
f 113 139 140
f 113 140 114
f 114 140 141
f 114 141 142
f 114 142 115
f 115 142 143
f 115 143 144
f 115 144 145
f 115 145 146
f 115 146 116
f 116 146 117
f 117 146 123
f 121 147 122
f 122 147 148
f 122 148 134
f 123 146 145
f 123 145 149
f 123 149 150
f 123 150 151
f 123 151 124
f 124 151 152
f 124 152 153
f 124 153 154
f 124 154 125
f 125 154 155
f 125 155 126
f 126 156 127
f 126 155 156
f 127 156 128
f 134 148 157
f 134 157 158
f 134 158 135
f 135 158 136
f 136 158 159
f 136 159 137
f 137 159 138
f 138 159 160
f 138 160 161
f 138 161 139
f 139 161 140
f 140 161 162
f 140 162 141
f 141 162 163
f 141 163 142
f 142 163 143
f 143 163 164
f 143 164 144
f 144 149 145
f 144 164 165
f 144 165 166
f 144 166 167
f 144 167 168
f 144 168 149
f 147 169 170
f 147 170 148
f 148 170 157
f 149 168 150
f 150 168 171
f 150 171 151
f 151 171 172
f 151 172 152
f 152 172 153
f 153 172 173
f 153 173 154
f 157 170 158
f 158 170 174
f 158 174 159
f 159 174 175
f 159 175 160
f 160 175 161
f 161 175 176
f 161 176 177
f 161 177 162
f 162 177 164
f 162 164 163
f 164 177 178
f 164 178 179
f 164 179 180
f 164 180 165
f 165 180 181
f 165 181 166
f 166 181 167
f 167 181 168
f 168 181 171
f 169 182 170
f 170 182 183
f 170 183 174
f 171 181 172
f 172 181 184
f 172 184 173
f 173 184 185
f 173 185 186
f 173 186 187
f 173 187 188
f 174 183 189
f 174 189 175
f 175 189 190
f 175 190 176
f 176 190 191
f 176 191 177
f 177 191 178
f 178 185 179
f 178 191 190
f 178 190 185
f 179 185 184
f 179 184 180
f 180 184 181
f 182 188 183
f 183 188 189
f 185 190 186
f 186 190 189
f 186 189 187
f 187 189 188

