# https://github.com/mikedh/trimesh
v -0.04978695 -0.03372933 0.01092990
v -0.04990768 -0.03355806 0.01092990
v -0.05879813 -0.01117807 0.01092503
v -0.04336943 -0.03372933 0.01092990
v -0.05029069 -0.03372933 0.01159771
v -0.05051759 -0.03299592 0.01122238
v -0.05074240 -0.03225812 0.01092990
v -0.05373780 -0.01117807 0.01092503
v -0.05100884 -0.03181017 0.01092990
v -0.05196845 -0.03010620 0.01092990
v -0.05232024 -0.02946941 0.01092990
v -0.05281149 -0.02853837 0.01092990
v -0.05362956 -0.02694419 0.01092990
v -0.05373155 -0.02673339 0.01092990
v -0.05389600 -0.02637327 0.01092990
v -0.05506793 -0.02371192 0.01092990
v -0.05547800 -0.02272379 0.01092990
v -0.05561122 -0.02238124 0.01092990
v -0.05626276 -0.02060700 0.01092990
v -0.05682478 -0.01899965 0.01092990
v -0.05689348 -0.01878445 0.01092990
v -0.05705584 -0.01826184 0.01092990
v -0.05721196 -0.01772167 0.01092990
v -0.05751587 -0.01663692 0.01092990
v -0.05768448 -0.01602209 0.01092990
v -0.05793635 -0.01504714 0.01092990
v -0.05821528 -0.01390530 0.01092990
v -0.05849214 -0.01271955 0.01092990
v -0.05852752 -0.01255706 0.01092990
v -0.05863785 -0.01203445 0.01092990
v -0.05871903 -0.01161284 0.01092990
v -0.05893967 -0.01117807 0.01115413
v -0.05949546 -0.01029534 0.01179269
v -0.05894592 -0.01029534 0.01092503
v -0.05488059 0.00006023 0.01092503
v -0.05445802 0.00006023 0.04979446
v -0.04298226 -0.03372933 0.05295802
v -0.05064457 -0.03372933 0.01210954
v -0.05087562 -0.03355367 0.01228015
v -0.05120451 -0.03246014 0.01177320
v -0.05199551 -0.03101528 0.01169521
v -0.05219118 -0.02995249 0.01110051
v -0.05357752 -0.02770834 0.01138324
v -0.05379608 -0.02682122 0.01106639
v -0.05532188 -0.02350990 0.01114926
v -0.05657916 -0.02141068 0.01183657
v -0.05681438 -0.01979015 0.01129062
v -0.05696425 -0.01888107 0.01106152
v -0.05814867 -0.01665010 0.01187556
v -0.05830063 -0.01504714 0.01144660
v -0.05848589 -0.01346174 0.01115901
v -0.05857748 -0.01263171 0.01101765
v -0.05908747 -0.01201249 0.01165133
v -0.05928730 -0.01117807 0.01171958
v -0.05956831 -0.01117807 0.01222165
v -0.06007414 -0.01029534 0.01283097
v -0.06014491 -0.00932478 0.01264574
v -0.05979521 -0.00876265 0.01189993
v -0.05898963 -0.01000549 0.01092503
v -0.05980353 0.00006023 0.01092503
v -0.05995549 0.01112726 0.05436676
v -0.05445386 0.00006023 0.05052076
v -0.05444970 0.00006023 0.05137380
v -0.05450174 0.00006023 0.05295802
v -0.04304470 -0.03372933 0.05442525
v -0.05081942 -0.03372933 0.01238739
v -0.05224738 -0.03164329 0.01261649
v -0.05254921 -0.03058928 0.01215341
v -0.05388767 -0.02859546 0.01250437
v -0.05410207 -0.02770834 0.01217291
v -0.05544053 -0.02537197 0.01255800
v -0.05509499 -0.02453316 0.01148560
v -0.05561538 -0.02453316 0.01227527
v -0.05590264 -0.02297412 0.01172445
v -0.05712245 -0.02091442 0.01238739
v -0.05730980 -0.01979015 0.01208517
v -0.05752420 -0.01829259 0.01167571
v -0.05866491 -0.01612749 0.01245563
v -0.05879397 -0.01504714 0.01223628
v -0.05896673 -0.01346174 0.01195356
v -0.06002002 -0.01117807 0.01311857
v -0.06424355 -0.00747149 0.02058146
v -0.06424355 -0.00712894 0.02044984
v -0.06021985 -0.00826639 0.01249950
v -0.05982227 -0.00712894 0.01159284
v -0.05926232 -0.00812146 0.01092503
v -0.05917906 -0.00872751 0.01092503
v -0.05980561 -0.00079614 0.01092503
v -0.06003459 -0.00079614 0.01122725
v -0.06003251 0.00006023 0.01123213
v -0.06303415 0.01112726 0.05600947
v -0.06220776 0.01112726 0.05494195
v -0.06096506 0.01112726 0.05440575
v -0.05995549 0.01112726 0.06051353
v -0.05460790 0.00006023 0.05398167
v -0.04305095 -0.03372933 0.05454224
v -0.05129194 -0.03372933 0.01338666
v -0.05199551 -0.03250845 0.01324043
v -0.05246803 -0.03201658 0.01367426
v -0.05286145 -0.03101528 0.01324043
v -0.05363788 -0.02971973 0.01338179
v -0.05406253 -0.02892923 0.01338179
v -0.05466826 -0.02770834 0.01338179
v -0.05523237 -0.02651381 0.01338179
v -0.05560290 -0.02572330 0.01338179
v -0.05612121 -0.02453316 0.01338179
v -0.05673944 -0.02299168 0.01333792
v -0.05692678 -0.02197281 0.01277735
v -0.05793219 -0.01979015 0.01338179
v -0.05851920 -0.01718149 0.01276272
v -0.06424355 -0.00835861 0.02131263
v -0.06424563 -0.00824004 0.04870257
v -0.06424563 -0.00815220 0.04865869
v -0.06424563 -0.00712455 0.04815662
v -0.05871486 -0.01784024 0.01381562
v -0.06424563 -0.00554355 0.04787390
v -0.06424355 -0.00554794 0.02025486
v -0.06042176 -0.00396254 0.01214366
v -0.06036140 -0.00554794 0.01224603
v -0.06028438 -0.00712894 0.01238251
v -0.05990137 -0.00554794 0.01145635
v -0.05937681 -0.00712894 0.01092503
v -0.05979312 -0.00116504 0.01092503
v -0.05971611 -0.00292611 0.01092503
v -0.06000128 -0.00237715 0.01128087
v -0.06049462 -0.00079614 0.01201692
v -0.06028438 0.00006023 0.01165621
v -0.06331933 0.01112726 0.05655054
v -0.06049462 0.00006023 0.01202180
v -0.06028021 0.01112726 0.06045503
v -0.06096506 0.00870305 0.06042579
v -0.06096506 0.00712205 0.06047453
v -0.05995549 0.00971314 0.06055252
v -0.04828613 -0.03372933 0.06060127
v -0.04689563 -0.03372933 0.06026980
v -0.04633360 -0.03372933 0.06000658
v -0.04621287 -0.03361076 0.05991396
v -0.04593602 -0.03372933 0.05976285
v -0.04524702 -0.03372933 0.05922178
v -0.04479739 -0.03372933 0.05877820
v -0.04409798 -0.03372933 0.05800802
v -0.04380032 -0.03372933 0.05750595
v -0.04329865 -0.03372933 0.05612646
v -0.05497426 0.00006023 0.05612646
v -0.05466618 0.00006023 0.05454224
v -0.05145846 -0.03372933 0.01380100
v -0.05215788 -0.03307497 0.01452730
v -0.05380857 -0.03003154 0.01426408
v -0.05539890 -0.02686514 0.01424946
v -0.05692262 -0.02354503 0.01447856
v -0.05713078 -0.02248664 0.01383512
v -0.05735143 -0.02141068 0.01333792
v -0.05838597 -0.01830576 0.01332329
v -0.05855458 -0.01889864 0.01429332
v -0.06424355 -0.00854745 0.02288223
v -0.06424563 -0.00859576 0.04979446
v -0.06424563 -0.00856941 0.04971159
v -0.05840887 -0.01982528 0.01487827
v -0.05788639 -0.02137994 0.01496601
v -0.05705792 -0.02387880 0.01553145
v -0.05715368 -0.02409399 0.01655510
v -0.05724526 -0.02432675 0.01813445
v -0.05691429 -0.02512165 0.01813445
v -0.05945174 -0.02453755 0.05771068
v -0.05997839 -0.02327275 0.05771068
v -0.06424563 -0.00396254 0.04783003
v -0.06424563 -0.00237715 0.04783490
v -0.06424563 0.00006023 0.04785927
v -0.06424355 0.00006023 0.02044009
v -0.06113991 0.00006023 0.01337692
v -0.06113991 -0.00079614 0.01337692
v -0.06046131 -0.00237715 0.01207542
v -0.05995965 -0.00396254 0.01134911
v -0.05953292 -0.00554794 0.01092503
v -0.05946007 -0.00634722 0.01092503
v -0.05965574 -0.00396254 0.01092503
v -0.06341508 0.01112726 0.05674065
v -0.06423106 0.00864596 0.04979446
v -0.06100044 0.01112726 0.06030392
v -0.06181850 0.00999421 0.06011869
v -0.06188928 0.00870305 0.06015281
v -0.06195797 0.00712205 0.06018206
v -0.06096506 0.00553666 0.06049891
v -0.06199752 0.00553666 0.06019668
v -0.05995549 0.00812775 0.06057202
v -0.04988686 -0.03245575 0.06071826
v -0.04988686 -0.03372933 0.06071826
v -0.05184355 -0.03372933 0.01490751
v -0.05193307 -0.03372933 0.01520486
v -0.05230775 -0.03332090 0.01558507
v -0.05263039 -0.03250845 0.01501963
v -0.05353380 -0.03084839 0.01485877
v -0.05396261 -0.03030822 0.01531697
v -0.05430815 -0.02941670 0.01485877
v -0.05516785 -0.02770834 0.01485390
v -0.05554461 -0.02718573 0.01530723
v -0.05584436 -0.02625031 0.01485390
v -0.05666867 -0.02445850 0.01499038
v -0.05727024 -0.02299168 0.01499038
v -0.06029687 -0.02248225 0.05771068
v -0.06072151 -0.02137554 0.05771068
v -0.06126064 -0.01979015 0.05771068
v -0.06162700 -0.01855609 0.05771068
v -0.06185181 -0.01776558 0.05771068
v -0.06215156 -0.01662814 0.05771068
v -0.06424563 -0.00830152 0.05082298
v -0.06254081 -0.01504714 0.05771068
v -0.06291966 -0.01346174 0.05771068
v -0.06339218 -0.01136252 0.05744258
v -0.05627525 -0.02611855 0.01655510
v -0.05681646 -0.02489328 0.01655510
v -0.05646883 -0.02611855 0.01813445
v -0.05885225 -0.02591654 0.05771068
v -0.06024275 -0.02234171 0.05861246
v -0.06424563 0.00006023 0.05214885
v -0.05960994 -0.00461690 0.01092503
v -0.06341716 0.01112726 0.05770580
v -0.06423106 0.00833416 0.05096922
v -0.06174357 0.01112726 0.06007970
v -0.06274897 0.00712205 0.05964099
v -0.06278852 0.00553666 0.05969948
v -0.06281350 0.00395565 0.05973848
v -0.06284056 0.00237465 0.05977260
v -0.06096506 0.00395565 0.06051353
v -0.06286138 0.00078486 0.05979697
v -0.06204748 0.00237465 0.06021131
v -0.06096506 0.00078486 0.06053790
v -0.05995549 0.00654674 0.06058177
v -0.05305295 -0.02770834 0.06072313
v -0.05147095 -0.03087474 0.06071826
v -0.05305295 -0.02928935 0.06068414
v -0.05147095 -0.03245575 0.06065002
v -0.05147095 -0.03372933 0.06052328
v -0.05212041 -0.03372933 0.01600428
v -0.05239726 -0.03345266 0.01655510
v -0.05299467 -0.03245575 0.01655510
v -0.05364412 -0.03132708 0.01655510
v -0.05409167 -0.03052780 0.01655510
v -0.05475569 -0.02928935 0.01655023
v -0.05529690 -0.02823534 0.01655510
v -0.05566742 -0.02744484 0.01655510
v -0.06179561 -0.01758113 0.05857347
v -0.06424563 -0.00827078 0.05090097
v -0.06341716 -0.01118246 0.05753032
v -0.06332765 -0.01117807 0.05842723
v -0.06324231 -0.01188513 0.05786666
v -0.06335679 -0.01117807 0.05814939
v -0.05537601 -0.02840223 0.01783223
v -0.05569656 -0.02780496 0.01826606
v -0.05542388 -0.02850324 0.01888512
v -0.05849005 -0.02670704 0.05771068
v -0.05874401 -0.02567499 0.05873920
v -0.05899171 -0.02453755 0.05903167
v -0.06042592 -0.02137554 0.05885619
v -0.06424563 -0.00051508 0.05214885
v -0.06422482 0.00078486 0.05770580
v -0.06355247 0.01028845 0.05770580
v -0.06334431 0.01110970 0.05851010
v -0.06334222 0.01112726 0.05849548
v -0.06417486 0.00237465 0.05770580
v -0.06410616 0.00395565 0.05770580
v -0.06402706 0.00553666 0.05770580
v -0.06392715 0.00712205 0.05770580
v -0.06377519 0.00870305 0.05770580
v -0.06205789 0.01112726 0.05978235
v -0.06268028 0.00870305 0.05954837
v -0.06358785 0.00712205 0.05885132
v -0.06363365 0.00553666 0.05890981
v -0.06366695 0.00395565 0.05894881
v -0.06370026 0.00237465 0.05898293
v -0.06372523 0.00078486 0.05900730
v -0.06286970 -0.00079175 0.05980185
v -0.06207038 0.00078486 0.06021618
v -0.06096506 -0.00079175 0.06054278
v -0.06207870 -0.00079175 0.06022106
v -0.05938097 -0.01029095 0.06066464
v -0.05938097 -0.00712455 0.06065489
v -0.05938097 -0.00554355 0.06065002
v -0.05462663 -0.02611855 0.06068414
v -0.05937681 -0.01188074 0.06065976
v -0.05462663 -0.02770834 0.06058177
v -0.05475153 -0.02939914 0.06033804
v -0.05429983 -0.03087474 0.06024056
v -0.05271574 -0.03372933 0.06022106
v -0.05221824 -0.03372933 0.01655510
v -0.05227444 -0.03372933 0.01700356
v -0.05240766 -0.03372933 0.01813445
v -0.05317993 -0.03245575 0.01813445
v -0.05373572 -0.03148519 0.01813445
v -0.05418117 -0.03069468 0.01813445
v -0.05503671 -0.02913125 0.01826606
v -0.06069653 -0.01979015 0.05914866
v -0.06191634 -0.01662814 0.05874895
v -0.06333806 -0.01108145 0.05849548
v -0.06424563 -0.00720799 0.05139330
v -0.06349626 -0.01044905 0.05786666
v -0.06374397 -0.00870555 0.05771068
v -0.06390633 -0.00712455 0.05771068
v -0.06401874 -0.00554355 0.05771068
v -0.06409576 -0.00396254 0.05771068
v -0.06415820 -0.00237715 0.05771068
v -0.06421857 -0.00079175 0.05771068
v -0.06422274 0.00006023 0.05771068
v -0.05689556 -0.02987344 0.05771068
v -0.05731396 -0.02908294 0.05771068
v -0.05800921 -0.02770834 0.05771068
v -0.05719114 -0.02885018 0.05876357
v -0.05747632 -0.02770834 0.05908042
v -0.05695800 -0.02682562 0.06006507
v -0.05821528 -0.02453755 0.05982135
v -0.05845883 -0.02341768 0.06002608
v -0.05990969 -0.01979015 0.05993834
v -0.06424563 -0.00079614 0.05214398
v -0.06372523 0.00006023 0.05900730
v -0.06424563 -0.00262308 0.05203674
v -0.06424563 -0.00407233 0.05190025
v -0.06424563 -0.00554355 0.05172477
v -0.06424563 -0.00565334 0.05170527
v -0.06424563 -0.00712455 0.05142742
v -0.06341091 0.01028845 0.05860272
v -0.06297170 0.01112726 0.05889519
v -0.06332349 0.01112726 0.05852472
v -0.06351499 0.00870305 0.05875870
v -0.06285097 -0.00237715 0.05977260
v -0.06195589 -0.00712455 0.06018206
v -0.06199752 -0.00554355 0.06019668
v -0.06203083 -0.00396254 0.06020643
v -0.06205997 -0.00237715 0.06021618
v -0.06372315 -0.00079175 0.05900730
v -0.06096506 -0.00237715 0.06054278
v -0.06096506 -0.00396254 0.06053790
v -0.05779481 -0.01820914 0.06065002
v -0.05621280 -0.02295216 0.06063539
v -0.05621280 -0.02453755 0.06053790
v -0.06096506 -0.00554355 0.06052328
v -0.06096506 -0.00712455 0.06049403
v -0.05937681 -0.01346174 0.06061102
v -0.05593387 -0.02770834 0.06026493
v -0.05562371 -0.02894680 0.06018206
v -0.05398342 -0.03198145 0.06015281
v -0.05369408 -0.03303545 0.06001145
v -0.05349217 -0.03372933 0.05977260
v -0.05465370 -0.03372933 0.05771068
v -0.05519074 -0.03286417 0.05771068
v -0.05565702 -0.03206928 0.05771068
v -0.05633769 -0.03087474 0.05771068
v -0.06211201 -0.01504714 0.05899268
v -0.06008871 -0.01874932 0.06005045
v -0.06230143 -0.01346174 0.05916816
v -0.06340883 -0.01002745 0.05860759
v -0.06349418 -0.00870555 0.05872945
v -0.06357328 -0.00712455 0.05883669
v -0.06362324 -0.00554355 0.05890006
v -0.06366071 -0.00396254 0.05894393
v -0.06369401 -0.00237715 0.05898293
v -0.05555502 -0.03190679 0.05870996
v -0.05585268 -0.03087474 0.05903655
v -0.05536143 -0.03000080 0.06006020
v -0.05672695 -0.02770834 0.05987009
v -0.05716200 -0.02577161 0.06015769
v -0.05863576 -0.02236806 0.06010894
v -0.06281975 -0.00396254 0.05973848
v -0.06189344 -0.00870555 0.06015769
v -0.05779481 -0.01979015 0.06057202
v -0.05779481 -0.02137554 0.06044041
v -0.05911661 -0.01979015 0.06026005
v -0.05742220 -0.02453755 0.06022593
v -0.05634186 -0.02622835 0.06032342
v -0.06096506 -0.00870555 0.06044041
v -0.06096506 -0.01029095 0.06037217
v -0.06102334 -0.01117807 0.06030880
v -0.06070694 -0.01346174 0.06026493
v -0.05937681 -0.01504714 0.06051840
v -0.05398759 -0.03372933 0.05922666
v -0.05422073 -0.03372933 0.05896831
v -0.06128562 -0.01504714 0.05978723
v -0.06149794 -0.01346174 0.05995783
v -0.06165198 -0.01217937 0.06004070
v -0.05881894 -0.02137554 0.06017719
v -0.06022193 -0.01769532 0.06011382
v -0.06268444 -0.00870555 0.05952400
v -0.06274689 -0.00712455 0.05963124
v -0.06278852 -0.00554355 0.05968973
v -0.06180810 -0.01029095 0.06011382
v -0.05937681 -0.01662814 0.06041604
v -0.05948713 -0.01821793 0.06027955
v -0.06169569 -0.01118246 0.06010407
v -0.06106081 -0.01174020 0.06026493
v -0.06176022 -0.01112098 0.06008457
f 1 2 3
f 1 3 8
f 1 8 4
f 1 4 37
f 1 37 65
f 1 65 96
f 1 96 143
f 1 143 142
f 1 142 141
f 1 141 140
f 1 140 139
f 1 139 138
f 1 138 136
f 1 136 135
f 1 135 134
f 1 134 187
f 1 187 233
f 1 233 284
f 1 284 342
f 1 342 374
f 1 374 375
f 1 375 343
f 1 343 287
f 1 287 286
f 1 286 285
f 1 285 234
f 1 234 189
f 1 189 188
f 1 188 146
f 1 146 97
f 1 97 66
f 1 66 38
f 1 38 5
f 1 5 2
f 2 5 6
f 2 6 7
f 2 7 3
f 3 7 9
f 3 9 10
f 3 10 11
f 3 11 12
f 3 12 13
f 3 13 14
f 3 14 15
f 3 15 16
f 3 16 17
f 3 17 18
f 3 18 19
f 3 19 20
f 3 20 21
f 3 21 22
f 3 22 23
f 3 23 24
f 3 24 25
f 3 25 26
f 3 26 27
f 3 27 28
f 3 28 29
f 3 29 30
f 3 30 31
f 3 31 32
f 3 32 33
f 3 33 34
f 3 34 59
f 3 59 87
f 3 87 86
f 3 86 122
f 3 122 175
f 3 175 174
f 3 174 216
f 3 216 176
f 3 176 124
f 3 124 123
f 3 123 88
f 3 88 60
f 3 60 35
f 3 35 8
f 4 8 35
f 4 35 36
f 4 36 37
f 5 38 6
f 6 9 7
f 6 38 39
f 6 39 40
f 6 40 41
f 6 41 9
f 9 41 42
f 9 42 10
f 10 42 11
f 11 42 12
f 12 42 43
f 12 43 44
f 12 44 13
f 13 44 14
f 14 44 15
f 15 44 45
f 15 45 16
f 16 45 17
f 17 45 18
f 18 45 46
f 18 46 47
f 18 47 19
f 19 47 48
f 19 48 20
f 20 48 21
f 21 48 22
f 22 48 23
f 23 48 49
f 23 49 24
f 24 49 50
f 24 50 25
f 25 50 26
f 26 50 51
f 26 51 27
f 27 51 52
f 27 52 28
f 28 52 29
f 29 52 30
f 30 52 31
f 31 52 53
f 31 53 32
f 32 53 54
f 32 54 33
f 33 54 55
f 33 55 56
f 33 56 57
f 33 57 58
f 33 58 34
f 34 58 59
f 35 60 61
f 35 61 36
f 36 62 37
f 36 61 62
f 37 62 63
f 37 63 64
f 37 64 65
f 38 66 39
f 39 66 67
f 39 67 40
f 40 67 41
f 41 67 68
f 41 68 42
f 42 68 69
f 42 69 43
f 43 69 70
f 43 70 44
f 44 70 71
f 44 71 72
f 44 72 45
f 45 72 71
f 45 71 73
f 45 73 74
f 45 74 46
f 46 74 75
f 46 75 47
f 47 75 76
f 47 76 48
f 48 76 77
f 48 77 49
f 49 77 78
f 49 78 50
f 50 78 79
f 50 79 51
f 51 79 80
f 51 80 52
f 52 80 53
f 53 80 55
f 53 55 54
f 55 80 56
f 56 80 79
f 56 79 81
f 56 81 82
f 56 82 83
f 56 83 57
f 57 84 58
f 57 83 84
f 58 85 86
f 58 86 87
f 58 87 59
f 58 84 85
f 60 88 89
f 60 89 90
f 60 90 91
f 60 91 92
f 60 92 93
f 60 93 61
f 61 93 92
f 61 92 91
f 61 91 128
f 61 128 177
f 61 177 217
f 61 217 259
f 61 259 322
f 61 322 321
f 61 321 265
f 61 265 219
f 61 219 179
f 61 179 130
f 61 130 94
f 61 94 63
f 61 63 62
f 63 94 64
f 64 94 95
f 64 95 96
f 64 96 65
f 66 97 98
f 66 98 67
f 67 98 99
f 67 99 100
f 67 100 69
f 67 69 68
f 69 100 101
f 69 101 102
f 69 102 103
f 69 103 71
f 69 71 70
f 71 103 104
f 71 104 105
f 71 105 106
f 71 106 107
f 71 107 108
f 71 108 73
f 73 108 75
f 73 75 74
f 75 108 109
f 75 109 110
f 75 110 76
f 76 110 78
f 76 78 77
f 78 110 82
f 78 82 79
f 79 82 81
f 82 111 112
f 82 112 113
f 82 113 114
f 82 114 83
f 82 110 115
f 82 115 111
f 83 114 116
f 83 116 117
f 83 117 118
f 83 118 119
f 83 119 120
f 83 120 84
f 84 120 85
f 85 120 121
f 85 121 122
f 85 122 86
f 88 123 89
f 89 123 124
f 89 124 125
f 89 125 126
f 89 126 127
f 89 127 90
f 90 127 91
f 91 127 129
f 91 129 128
f 94 130 131
f 94 131 132
f 94 132 133
f 94 133 134
f 94 134 135
f 94 135 136
f 94 136 137
f 94 137 138
f 94 138 139
f 94 139 140
f 94 140 141
f 94 141 142
f 94 142 143
f 94 143 144
f 94 144 145
f 94 145 95
f 95 145 96
f 96 145 143
f 97 146 98
f 98 146 147
f 98 147 99
f 99 147 148
f 99 148 100
f 100 148 101
f 101 148 102
f 102 148 149
f 102 149 103
f 103 149 104
f 104 149 105
f 105 149 150
f 105 150 106
f 106 150 151
f 106 151 107
f 107 151 108
f 108 151 152
f 108 152 109
f 109 153 110
f 109 152 154
f 109 154 153
f 110 153 115
f 111 155 156
f 111 156 157
f 111 157 112
f 111 115 154
f 111 154 158
f 111 158 159
f 111 159 160
f 111 160 161
f 111 161 162
f 111 162 163
f 111 163 164
f 111 164 165
f 111 165 155
f 112 157 156
f 112 156 206
f 112 206 243
f 112 243 295
f 112 295 319
f 112 319 318
f 112 318 317
f 112 317 316
f 112 316 315
f 112 315 313
f 112 313 255
f 112 255 215
f 112 215 168
f 112 168 167
f 112 167 166
f 112 166 116
f 112 116 114
f 112 114 113
f 115 153 154
f 116 166 117
f 117 166 167
f 117 167 168
f 117 168 169
f 117 169 170
f 117 170 171
f 117 171 126
f 117 126 172
f 117 172 118
f 118 172 125
f 118 125 173
f 118 173 119
f 119 173 121
f 119 121 120
f 121 173 174
f 121 174 175
f 121 175 122
f 124 176 173
f 124 173 125
f 125 172 126
f 126 171 170
f 126 170 129
f 126 129 127
f 128 129 177
f 129 170 178
f 129 178 177
f 130 179 131
f 131 179 180
f 131 180 181
f 131 181 182
f 131 182 132
f 132 183 133
f 132 182 184
f 132 184 183
f 133 183 185
f 133 185 186
f 133 186 134
f 134 186 187
f 136 138 137
f 143 145 144
f 146 188 147
f 147 188 189
f 147 189 190
f 147 190 191
f 147 191 192
f 147 192 148
f 148 192 193
f 148 193 194
f 148 194 195
f 148 195 149
f 149 195 196
f 149 196 197
f 149 197 150
f 150 197 198
f 150 198 160
f 150 160 199
f 150 199 159
f 150 159 151
f 151 159 154
f 151 154 152
f 154 159 158
f 155 165 200
f 155 200 201
f 155 201 202
f 155 202 203
f 155 203 204
f 155 204 205
f 155 205 156
f 156 205 207
f 156 207 208
f 156 208 209
f 156 209 206
f 159 199 160
f 160 198 196
f 160 196 210
f 160 210 211
f 160 211 161
f 161 211 163
f 161 163 162
f 163 211 210
f 163 210 212
f 163 212 213
f 163 213 164
f 164 213 214
f 164 214 165
f 165 214 200
f 168 215 178
f 168 178 169
f 169 178 170
f 173 176 216
f 173 216 174
f 177 178 217
f 178 215 218
f 178 218 217
f 179 219 180
f 180 219 220
f 180 220 181
f 181 220 221
f 181 221 182
f 182 221 222
f 182 222 223
f 182 223 184
f 183 224 185
f 183 184 226
f 183 226 224
f 184 223 225
f 184 225 226
f 185 224 227
f 185 227 228
f 185 228 229
f 185 229 186
f 186 229 187
f 187 229 230
f 187 230 231
f 187 231 232
f 187 232 233
f 189 234 190
f 190 234 235
f 190 235 236
f 190 236 237
f 190 237 193
f 190 193 191
f 191 193 192
f 193 196 194
f 193 237 238
f 193 238 239
f 193 239 240
f 193 240 196
f 194 196 195
f 196 198 197
f 196 240 241
f 196 241 210
f 200 214 201
f 201 214 202
f 202 214 242
f 202 242 203
f 203 242 204
f 204 242 205
f 205 242 207
f 206 209 244
f 206 244 243
f 207 242 208
f 208 242 245
f 208 245 246
f 208 246 209
f 209 246 247
f 209 247 244
f 210 241 212
f 212 241 248
f 212 248 249
f 212 249 250
f 212 250 213
f 213 251 252
f 213 252 214
f 213 250 251
f 214 252 253
f 214 253 254
f 214 254 242
f 215 255 256
f 215 256 218
f 217 218 257
f 217 257 258
f 217 258 259
f 218 256 260
f 218 260 261
f 218 261 262
f 218 262 263
f 218 263 264
f 218 264 257
f 219 265 266
f 219 266 220
f 220 266 267
f 220 267 268
f 220 268 221
f 221 268 269
f 221 269 270
f 221 270 222
f 222 270 223
f 223 270 271
f 223 271 225
f 224 226 227
f 225 272 275
f 225 275 273
f 225 273 226
f 225 271 272
f 226 273 227
f 227 274 228
f 227 273 275
f 227 275 274
f 228 274 276
f 228 276 277
f 228 277 278
f 228 278 229
f 229 279 231
f 229 231 230
f 229 278 277
f 229 277 276
f 229 276 280
f 229 280 279
f 231 279 281
f 231 281 232
f 232 281 233
f 233 281 282
f 233 282 283
f 233 283 284
f 234 285 235
f 235 285 286
f 235 286 287
f 235 287 288
f 235 288 236
f 236 288 237
f 237 288 289
f 237 289 290
f 237 290 238
f 238 290 291
f 238 291 239
f 239 291 248
f 239 248 240
f 240 248 241
f 242 254 292
f 242 292 293
f 242 293 294
f 242 294 245
f 243 244 296
f 243 296 297
f 243 297 298
f 243 298 299
f 243 299 300
f 243 300 301
f 243 301 302
f 243 302 303
f 243 303 295
f 244 247 294
f 244 294 296
f 245 294 247
f 245 247 246
f 248 291 250
f 248 250 249
f 250 291 290
f 250 290 304
f 250 304 305
f 250 305 306
f 250 306 251
f 251 306 252
f 252 306 307
f 252 307 308
f 252 308 309
f 252 309 253
f 253 309 310
f 253 310 254
f 254 310 311
f 254 311 312
f 254 312 292
f 255 313 256
f 256 303 314
f 256 314 271
f 256 271 270
f 256 270 269
f 256 269 268
f 256 268 260
f 256 313 315
f 256 315 316
f 256 316 317
f 256 317 318
f 256 318 319
f 256 319 295
f 256 295 303
f 257 264 258
f 258 320 321
f 258 321 322
f 258 322 259
f 258 264 320
f 260 268 267
f 260 267 261
f 261 267 262
f 262 267 263
f 263 267 323
f 263 323 320
f 263 320 264
f 265 321 323
f 265 323 266
f 266 323 267
f 271 314 272
f 272 324 325
f 272 325 326
f 272 326 327
f 272 327 328
f 272 328 275
f 272 314 329
f 272 329 324
f 274 330 276
f 274 275 330
f 275 328 331
f 275 331 330
f 276 330 331
f 276 331 280
f 279 280 332
f 279 332 333
f 279 333 334
f 279 334 281
f 280 331 335
f 280 335 336
f 280 336 337
f 280 337 332
f 281 334 338
f 281 338 282
f 282 338 339
f 282 339 283
f 283 339 340
f 283 340 284
f 284 340 341
f 284 341 342
f 287 343 344
f 287 344 288
f 288 344 345
f 288 345 289
f 289 345 346
f 289 346 290
f 290 346 304
f 292 347 293
f 292 312 348
f 292 348 347
f 293 347 294
f 294 347 349
f 294 349 350
f 294 350 298
f 294 298 297
f 294 297 296
f 298 350 351
f 298 351 299
f 299 351 352
f 299 352 300
f 300 352 353
f 300 353 301
f 301 353 302
f 302 353 354
f 302 354 355
f 302 355 329
f 302 329 303
f 303 329 314
f 304 346 356
f 304 356 307
f 304 307 305
f 305 307 306
f 307 356 357
f 307 357 358
f 307 358 359
f 307 359 308
f 308 359 309
f 309 311 310
f 309 359 358
f 309 358 339
f 309 339 360
f 309 360 311
f 311 360 361
f 311 361 348
f 311 348 312
f 320 323 321
f 324 362 325
f 324 329 355
f 324 355 362
f 325 362 363
f 325 363 336
f 325 336 335
f 325 335 326
f 326 335 327
f 327 335 328
f 328 335 331
f 332 337 364
f 332 364 333
f 333 364 334
f 334 364 365
f 334 365 366
f 334 366 367
f 334 367 368
f 334 368 338
f 336 369 337
f 336 363 369
f 337 369 370
f 337 370 371
f 337 371 372
f 337 372 373
f 337 373 364
f 338 368 360
f 338 360 339
f 339 358 340
f 340 358 341
f 341 358 357
f 341 357 356
f 341 356 374
f 341 374 342
f 343 375 356
f 343 356 344
f 344 356 345
f 345 356 346
f 347 348 376
f 347 376 377
f 347 377 349
f 348 378 377
f 348 377 376
f 348 361 379
f 348 379 366
f 348 366 380
f 348 380 378
f 349 377 378
f 349 378 350
f 350 378 351
f 351 381 352
f 351 378 381
f 352 381 382
f 352 382 353
f 353 382 383
f 353 383 354
f 354 383 362
f 354 362 355
f 356 375 374
f 360 368 367
f 360 367 379
f 360 379 361
f 362 383 363
f 363 383 382
f 363 382 384
f 363 384 370
f 363 370 369
f 364 373 385
f 364 385 366
f 364 366 365
f 366 379 367
f 366 385 386
f 366 386 380
f 370 384 387
f 370 387 371
f 371 388 372
f 371 387 388
f 372 386 385
f 372 385 373
f 372 388 387
f 372 387 380
f 372 380 386
f 378 380 387
f 378 387 389
f 378 389 381
f 381 389 382
f 382 389 384
f 384 389 387

