# https://github.com/mikedh/trimesh
v -0.05981111 0.00006307 0.01093615
v -0.05489489 0.00006307 0.01093615
v -0.06003254 0.00006307 0.01122820
v -0.05981111 0.00034330 0.01093615
v -0.04397765 0.03335127 0.01093615
v -0.04348400 0.03335127 0.05137603
v -0.05445813 0.00006307 0.04978920
v -0.06003051 0.00079296 0.01122820
v -0.06049572 0.00006307 0.01201675
v -0.05980908 0.00060072 0.01093615
v -0.05011073 0.03335127 0.01093615
v -0.04347791 0.03335127 0.05295313
v -0.05445203 0.00006307 0.05051934
v -0.06049572 0.00079296 0.01202162
v -0.06046525 0.00237656 0.01208003
v -0.05999800 0.00237656 0.01128661
v -0.05966687 0.00396017 0.01093615
v -0.05973797 0.00237656 0.01093615
v -0.05980705 0.00081252 0.01093615
v -0.06114174 0.00006307 0.01337967
v -0.06114174 0.00079296 0.01337967
v -0.05042155 0.03295049 0.01093615
v -0.05046828 0.03335127 0.01132068
v -0.05450078 0.00006307 0.05295800
v -0.05445000 0.00006307 0.05137116
v -0.04354698 0.03335127 0.05453996
v -0.06423164 0.00554377 0.02028677
v -0.06043071 0.00396017 0.01213844
v -0.05996347 0.00396017 0.01134502
v -0.05956327 0.00554377 0.01093615
v -0.06423164 0.00006307 0.02042793
v -0.06423164 0.00462815 0.02030138
v -0.05097208 0.03206745 0.01093615
v -0.05054953 0.03305475 0.01116492
v -0.05074252 0.03335127 0.01169062
v -0.05466534 0.00006307 0.05453996
v -0.04373591 0.03335127 0.05612679
v -0.06423164 0.00626714 0.02035492
v -0.06037789 0.00554377 0.01222606
v -0.05991268 0.00554377 0.01143264
v -0.05941294 0.00712411 0.01093615
v -0.06423164 0.00006307 0.02498399
v -0.05218895 0.02996250 0.01093615
v -0.05223161 0.03003418 0.01103836
v -0.05199596 0.03087160 0.01137909
v -0.05143120 0.03239655 0.01184152
v -0.05230474 0.03174160 0.01251811
v -0.05104928 0.03335127 0.01213357
v -0.05480754 0.00006307 0.05527010
v -0.05497412 0.00006307 0.05612193
v -0.04392686 0.03335127 0.05689587
v -0.06423164 0.00712411 0.02046201
v -0.06029867 0.00712411 0.01235748
v -0.05983752 0.00712411 0.01156406
v -0.05921994 0.00874681 0.01093615
v -0.06334184 0.01113850 0.05849731
v -0.06341904 0.01113850 0.05770876
v -0.06423164 0.00244499 0.02494505
v -0.05995738 0.00006307 0.06057576
v -0.05266838 0.02907294 0.01093615
v -0.05357849 0.02798463 0.01137423
v -0.05393197 0.02867542 0.01243049
v -0.05369022 0.02981587 0.01337967
v -0.05246523 0.03202835 0.01337967
v -0.05200611 0.03282015 0.01337967
v -0.05167092 0.03335127 0.01336994
v -0.04405485 0.03335127 0.05734369
v -0.05529510 0.00006307 0.05719766
v -0.06423164 0.00842097 0.02128463
v -0.05856377 0.01733931 0.01264953
v -0.05869988 0.01628683 0.01239155
v -0.06008942 0.01029457 0.01280530
v -0.06016256 0.00942457 0.01261059
v -0.06022960 0.00837209 0.01247917
v -0.05982533 0.00882175 0.01189019
v -0.05899242 0.01029457 0.01093615
v -0.06332356 0.01113850 0.05852651
v -0.06194417 0.01663223 0.05878449
v -0.06181823 0.01765212 0.05859953
v -0.06297211 0.01346503 0.05770876
v -0.06324840 0.01213884 0.05770876
v -0.06339466 0.01140570 0.05679365
v -0.06423164 0.00869468 0.02288120
v -0.06423164 0.00866861 0.02297855
v -0.06423164 0.00817658 0.02394720
v -0.06423164 0.00808535 0.02400074
v -0.06423164 0.00712411 0.02441935
v -0.06423164 0.00554377 0.02471628
v -0.06423164 0.00396017 0.02485257
v -0.05938043 0.00006307 0.06059524
v -0.05938043 0.00554377 0.06062444
v -0.05938043 0.00712411 0.06062931
v -0.05995738 0.00497028 0.06058550
v -0.06100156 0.01113850 0.06030318
v -0.06167195 0.01113850 0.06010361
v -0.06174306 0.01113850 0.06007927
v -0.06205794 0.01113850 0.05978235
v -0.06297211 0.01113850 0.05889645
v -0.05377961 0.02697451 0.01093615
v -0.05384664 0.02693215 0.01098969
v -0.05410465 0.02755777 0.01186099
v -0.05546981 0.02544630 0.01249864
v -0.05523619 0.02650204 0.01309735
v -0.05490302 0.02755451 0.01352570
v -0.05411886 0.02902407 0.01337967
v -0.05383649 0.03007980 0.01417796
v -0.05219301 0.03313296 0.01439700
v -0.05210159 0.03335127 0.01453329
v -0.04419096 0.03335127 0.05767955
v -0.04445708 0.03335127 0.05827827
v -0.05571968 0.00006307 0.05798621
v -0.06423164 0.00846007 0.02137224
v -0.05765569 0.02295686 0.01654360
v -0.05854549 0.02045438 0.01602277
v -0.05795229 0.02137651 0.01496164
v -0.05845407 0.01987112 0.01482048
v -0.05857799 0.01897505 0.01420229
v -0.05874051 0.01792257 0.01370580
v -0.05845204 0.01835268 0.01325312
v -0.05802949 0.01979291 0.01337967
v -0.05697311 0.02209337 0.01266901
v -0.05716610 0.02103764 0.01231367
v -0.05730221 0.01964303 0.01178797
v -0.05700765 0.01901415 0.01099456
v -0.05705234 0.01874044 0.01093615
v -0.05822045 0.01673650 0.01183665
v -0.05833828 0.01504863 0.01137423
v -0.05884005 0.01504863 0.01216278
v -0.05924432 0.01188143 0.01179771
v -0.05938246 0.01113199 0.01179284
v -0.05953686 0.01029457 0.01179284
v -0.05871004 0.01188143 0.01093615
v -0.06232813 0.01346503 0.05916416
v -0.06213920 0.01504863 0.05900840
v -0.05990252 0.01979291 0.05993811
v -0.06071919 0.01979291 0.05914469
v -0.06045712 0.02137651 0.05888185
v -0.06026413 0.02241270 0.05863847
v -0.06131441 0.01979291 0.05770876
v -0.06165570 0.01864269 0.05770876
v -0.06187307 0.01785089 0.05770876
v -0.06219405 0.01663223 0.05770876
v -0.06258816 0.01504863 0.05770876
v -0.06078622 0.02137651 0.05770876
v -0.06033523 0.02258865 0.05770876
v -0.06002645 0.02338045 0.05770876
v -0.05953483 0.02454046 0.05770876
v -0.05653634 0.02612406 0.01813043
v -0.05693858 0.02517585 0.01813043
v -0.05875676 0.00006307 0.06042487
v -0.04747588 0.03335127 0.06028371
v -0.04828239 0.03335127 0.06047355
v -0.04899747 0.03335127 0.06061471
v -0.04988524 0.03335127 0.06066338
v -0.05779790 0.01663223 0.06064391
v -0.05938043 0.00871097 0.06062931
v -0.05995738 0.00655062 0.06058063
v -0.05937840 0.01113850 0.06062444
v -0.05995738 0.00813422 0.06057090
v -0.05995738 0.00971782 0.06055143
v -0.06028038 0.01113850 0.06045894
v -0.05937840 0.01346503 0.06059037
v -0.06087155 0.01188143 0.06030318
v -0.06070497 0.01346503 0.06027398
v -0.06052010 0.01504863 0.06022530
v -0.06166180 0.01188143 0.06004520
v -0.05382227 0.02688979 0.01093615
v -0.05388524 0.02674642 0.01093615
v -0.05535808 0.02359551 0.01109678
v -0.05515696 0.02454046 0.01140830
v -0.05566280 0.02454046 0.01219685
v -0.05558967 0.02603608 0.01352570
v -0.05542511 0.02692889 0.01415362
v -0.05515696 0.02794878 0.01496164
v -0.05434436 0.02944441 0.01481074
v -0.05397666 0.03035025 0.01523422
v -0.05357443 0.03087486 0.01481074
v -0.05267854 0.03254644 0.01493730
v -0.05236366 0.03335127 0.01542406
v -0.05231896 0.03335127 0.01526829
v -0.04448349 0.03335127 0.05831721
v -0.05651196 0.00006307 0.05899380
v -0.05727174 0.02438731 0.01813043
v -0.05786088 0.02295686 0.01813043
v -0.05719861 0.02420810 0.01695735
v -0.05717017 0.02414293 0.01654360
v -0.05707062 0.02390832 0.01550194
v -0.05729815 0.02300573 0.01496650
v -0.05715188 0.02250719 0.01372527
v -0.05739973 0.02149056 0.01326772
v -0.05597159 0.02302528 0.01169062
v -0.05666026 0.02149056 0.01178797
v -0.05683294 0.02006988 0.01125254
v -0.05662979 0.01994932 0.01093615
v -0.05694264 0.01906628 0.01093615
v -0.05720267 0.01821257 0.01093615
v -0.05762319 0.01666481 0.01093615
v -0.05802542 0.01499324 0.01093615
v -0.05847642 0.01375177 0.01116005
v -0.05859221 0.01269604 0.01099456
v -0.05892132 0.01331840 0.01172956
v -0.05863284 0.01228873 0.01093615
v -0.06149522 0.01346503 0.05995272
v -0.06131035 0.01504863 0.05980182
v -0.05961608 0.02137651 0.05967526
v -0.06007520 0.01870134 0.06004520
v -0.05864300 0.02235405 0.06011334
v -0.05842969 0.02340978 0.06002086
v -0.05904117 0.02454046 0.05903274
v -0.05877505 0.02574608 0.05875042
v -0.05889084 0.02601327 0.05770876
v -0.05853940 0.02680507 0.05770876
v -0.05546371 0.02858092 0.01848577
v -0.05575828 0.02785429 0.01802822
v -0.05541292 0.02847991 0.01742950
v -0.05632710 0.02612406 0.01654360
v -0.05695077 0.02479462 0.01695735
v -0.05822858 0.00006307 0.06027884
v -0.04715897 0.03335127 0.06018636
v -0.05057798 0.03335127 0.06064878
v -0.05462877 0.02612406 0.06061471
v -0.05779790 0.01821257 0.06061957
v -0.05937840 0.01188143 0.06061957
v -0.05937840 0.01504863 0.06052222
v -0.06032914 0.01663223 0.06015715
v -0.05937840 0.01663223 0.06041513
v -0.05911024 0.01979291 0.06026424
v -0.06021538 0.01764560 0.06010848
v -0.05527681 0.02349124 0.01093615
v -0.05563233 0.02261798 0.01093615
v -0.05692639 0.02356619 0.01444567
v -0.05598174 0.02612406 0.01496164
v -0.05553075 0.02715698 0.01496164
v -0.05533370 0.02831699 0.01654360
v -0.05482582 0.02929126 0.01654360
v -0.05412293 0.03061093 0.01654360
v -0.05369632 0.03139947 0.01654360
v -0.05310921 0.03245846 0.01654360
v -0.05259931 0.03335127 0.01654360
v -0.04533875 0.03335127 0.05908628
v -0.05693655 0.00006307 0.05935887
v -0.05683497 0.02493473 0.01654360
v -0.05608738 0.02141562 0.01093615
v -0.05855971 0.01264716 0.01093615
v -0.05882583 0.02137651 0.06018149
v -0.05737332 0.02454046 0.06021070
v -0.05712954 0.02565810 0.06014255
v -0.05689795 0.02671383 0.06004520
v -0.05667042 0.02770766 0.05988457
v -0.05816560 0.02454046 0.05982616
v -0.05753787 0.02770766 0.05909115
v -0.05723924 0.02898171 0.05880397
v -0.05697921 0.03003418 0.05809817
v -0.05812700 0.02770766 0.05770876
v -0.05701171 0.03009609 0.05690561
v -0.05384664 0.03167969 0.01883623
v -0.05510008 0.02918373 0.01802822
v -0.05416153 0.03097913 0.01823752
v -0.05378976 0.03157542 0.01778484
v -0.05372679 0.03146138 0.01695735
v -0.05537027 0.02839519 0.01695735
v -0.05570343 0.02752844 0.01654360
v -0.05743832 0.00006307 0.05978722
v -0.04642154 0.03335127 0.05982129
v -0.04679940 0.03335127 0.06002573
v -0.05146777 0.03335127 0.06052709
v -0.05146777 0.03245846 0.06061471
v -0.05305233 0.02929126 0.06061957
v -0.05779790 0.01979291 0.06055143
v -0.05462877 0.02770766 0.06052709
v -0.05779790 0.02137651 0.06042974
v -0.05274964 0.03335127 0.01760473
v -0.04587710 0.03335127 0.05946109
v -0.05588017 0.02770766 0.06024477
v -0.05561201 0.02890351 0.06016689
v -0.05533979 0.02995924 0.06005493
v -0.05629663 0.02947047 0.05942702
v -0.05563233 0.03202835 0.05877963
v -0.05596143 0.03087486 0.05908142
v -0.05530119 0.03305150 0.05770876
v -0.05576641 0.03225970 0.05770876
v -0.05663385 0.03072497 0.05762601
v -0.05701171 0.03009609 0.05704190
v -0.05731237 0.02942160 0.05762601
v -0.05282684 0.03335127 0.01816451
v -0.05342816 0.03230857 0.01823752
v -0.05220317 0.03335127 0.06038593
v -0.05305233 0.03087486 0.06050275
v -0.05473847 0.02937598 0.06031291
v -0.05428951 0.03087486 0.06023503
v -0.05399292 0.03196969 0.06015229
v -0.05369022 0.03302869 0.06002086
v -0.05507976 0.03087486 0.05987483
v -0.05498225 0.03335127 0.05807869
v -0.05511227 0.03335127 0.05770876
v -0.05358864 0.03335127 0.05993324
v -0.05442359 0.03335127 0.05915443
v -0.05282480 0.03335127 0.06023503
v -0.05311937 0.03248127 0.06029344
v -0.05334487 0.03335127 0.06007440
f 1 2 7
f 1 7 13
f 1 13 25
f 1 25 24
f 1 24 36
f 1 36 49
f 1 49 50
f 1 50 68
f 1 68 111
f 1 111 182
f 1 182 241
f 1 241 263
f 1 263 218
f 1 218 150
f 1 150 90
f 1 90 59
f 1 59 42
f 1 42 31
f 1 31 20
f 1 20 9
f 1 9 3
f 1 3 4
f 1 4 10
f 1 10 19
f 1 19 18
f 1 18 17
f 1 17 30
f 1 30 41
f 1 41 55
f 1 55 76
f 1 76 132
f 1 132 202
f 1 202 244
f 1 244 198
f 1 198 197
f 1 197 196
f 1 196 125
f 1 125 195
f 1 195 194
f 1 194 243
f 1 243 230
f 1 230 229
f 1 229 168
f 1 168 167
f 1 167 99
f 1 99 60
f 1 60 43
f 1 43 33
f 1 33 22
f 1 22 11
f 1 11 5
f 1 5 2
f 2 5 6
f 2 6 7
f 3 8 4
f 3 9 8
f 4 8 10
f 5 11 23
f 5 23 35
f 5 35 48
f 5 48 66
f 5 66 108
f 5 108 180
f 5 180 179
f 5 179 239
f 5 239 272
f 5 272 285
f 5 285 295
f 5 295 294
f 5 294 297
f 5 297 296
f 5 296 300
f 5 300 298
f 5 298 287
f 5 287 266
f 5 266 220
f 5 220 154
f 5 154 153
f 5 153 152
f 5 152 151
f 5 151 219
f 5 219 265
f 5 265 264
f 5 264 273
f 5 273 240
f 5 240 181
f 5 181 110
f 5 110 109
f 5 109 67
f 5 67 51
f 5 51 37
f 5 37 26
f 5 26 12
f 5 12 6
f 6 12 13
f 6 13 7
f 8 9 14
f 8 14 15
f 8 15 16
f 8 16 17
f 8 17 18
f 8 18 19
f 8 19 10
f 9 20 21
f 9 21 14
f 11 22 23
f 12 24 25
f 12 25 13
f 12 26 24
f 14 21 15
f 15 21 27
f 15 27 28
f 15 28 29
f 15 29 16
f 16 29 17
f 17 29 30
f 20 31 32
f 20 32 27
f 20 27 21
f 22 33 34
f 22 34 23
f 23 34 35
f 24 26 36
f 26 37 36
f 27 32 31
f 27 31 42
f 27 42 58
f 27 58 89
f 27 89 88
f 27 88 87
f 27 87 86
f 27 86 85
f 27 85 84
f 27 84 83
f 27 83 112
f 27 112 69
f 27 69 52
f 27 52 38
f 27 38 28
f 28 39 40
f 28 40 29
f 28 38 39
f 29 40 30
f 30 40 41
f 33 43 44
f 33 44 45
f 33 45 46
f 33 46 34
f 34 46 35
f 35 46 47
f 35 47 48
f 36 37 49
f 37 50 49
f 37 51 50
f 38 52 39
f 39 53 54
f 39 54 40
f 39 52 53
f 40 54 41
f 41 54 55
f 42 56 57
f 42 57 58
f 42 59 56
f 43 60 44
f 44 60 61
f 44 61 62
f 44 62 47
f 44 47 45
f 45 47 46
f 47 62 63
f 47 63 64
f 47 64 65
f 47 65 66
f 47 66 48
f 50 51 67
f 50 67 68
f 52 69 70
f 52 70 71
f 52 71 72
f 52 72 73
f 52 73 74
f 52 74 53
f 53 74 54
f 54 74 75
f 54 75 55
f 55 75 76
f 56 77 78
f 56 78 79
f 56 79 80
f 56 80 81
f 56 81 57
f 56 59 77
f 57 81 82
f 57 82 83
f 57 83 84
f 57 84 85
f 57 85 86
f 57 86 87
f 57 87 88
f 57 88 89
f 57 89 58
f 59 90 91
f 59 91 92
f 59 92 93
f 59 93 94
f 59 94 95
f 59 95 96
f 59 96 97
f 59 97 98
f 59 98 77
f 60 99 100
f 60 100 61
f 61 100 62
f 62 100 101
f 62 101 102
f 62 102 103
f 62 103 104
f 62 104 105
f 62 105 63
f 63 105 106
f 63 106 64
f 64 106 107
f 64 107 65
f 65 107 66
f 66 107 108
f 67 109 68
f 68 109 110
f 68 110 111
f 69 112 113
f 69 113 114
f 69 114 115
f 69 115 116
f 69 116 117
f 69 117 118
f 69 118 70
f 70 118 119
f 70 119 120
f 70 120 121
f 70 121 122
f 70 122 123
f 70 123 124
f 70 124 125
f 70 125 126
f 70 126 71
f 71 126 127
f 71 127 128
f 71 128 72
f 72 128 73
f 73 128 129
f 73 129 130
f 73 130 131
f 73 131 75
f 73 75 74
f 75 131 76
f 76 131 132
f 77 98 133
f 77 133 134
f 77 134 78
f 78 134 135
f 78 135 136
f 78 136 79
f 79 136 137
f 79 137 138
f 79 138 139
f 79 139 140
f 79 140 141
f 79 141 142
f 79 142 143
f 79 143 80
f 80 143 83
f 80 83 81
f 81 83 82
f 83 143 142
f 83 142 141
f 83 141 140
f 83 140 139
f 83 139 144
f 83 144 145
f 83 145 146
f 83 146 147
f 83 147 148
f 83 148 149
f 83 149 112
f 90 150 151
f 90 151 152
f 90 152 153
f 90 153 154
f 90 154 91
f 91 154 92
f 92 154 155
f 92 155 156
f 92 156 93
f 93 157 94
f 93 156 158
f 93 158 157
f 94 157 159
f 94 159 160
f 94 160 161
f 94 161 162
f 94 162 163
f 94 163 164
f 94 164 95
f 95 164 96
f 96 164 165
f 96 165 166
f 96 166 97
f 97 166 133
f 97 133 98
f 99 167 100
f 100 167 168
f 100 168 169
f 100 169 170
f 100 170 102
f 100 102 101
f 102 121 103
f 102 170 171
f 102 171 121
f 103 121 172
f 103 172 173
f 103 173 104
f 104 173 105
f 105 173 106
f 106 173 174
f 106 174 175
f 106 175 176
f 106 176 177
f 106 177 178
f 106 178 107
f 107 178 179
f 107 179 180
f 107 180 108
f 110 181 111
f 111 181 182
f 112 149 183
f 112 183 184
f 112 184 185
f 112 185 113
f 113 185 186
f 113 186 187
f 113 187 114
f 114 187 115
f 115 187 188
f 115 188 189
f 115 189 190
f 115 190 116
f 116 190 117
f 117 190 120
f 117 120 119
f 117 119 118
f 120 190 121
f 121 190 189
f 121 189 173
f 121 173 172
f 121 171 191
f 121 191 192
f 121 192 122
f 122 192 193
f 122 193 123
f 123 193 124
f 124 193 194
f 124 194 195
f 124 195 125
f 125 196 126
f 126 196 197
f 126 197 127
f 127 197 198
f 127 198 199
f 127 199 128
f 128 199 200
f 128 200 201
f 128 201 129
f 129 201 200
f 129 200 132
f 129 132 130
f 130 132 131
f 132 200 202
f 133 166 203
f 133 203 204
f 133 204 134
f 134 204 135
f 135 205 137
f 135 137 136
f 135 204 206
f 135 206 207
f 135 207 208
f 135 208 205
f 137 209 138
f 137 205 209
f 138 209 210
f 138 210 211
f 138 211 147
f 138 147 146
f 138 146 145
f 138 145 144
f 138 144 139
f 147 211 148
f 148 211 212
f 148 212 213
f 148 213 214
f 148 214 215
f 148 215 216
f 148 216 217
f 148 217 149
f 149 217 185
f 149 185 183
f 150 218 151
f 151 218 219
f 154 220 155
f 155 220 221
f 155 221 222
f 155 222 223
f 155 223 158
f 155 158 156
f 157 158 159
f 158 223 159
f 159 223 160
f 160 223 162
f 160 162 161
f 162 223 222
f 162 222 224
f 162 224 163
f 163 224 164
f 164 224 165
f 165 225 166
f 165 224 226
f 165 226 227
f 165 227 225
f 166 225 228
f 166 228 203
f 168 229 169
f 169 229 230
f 169 230 192
f 169 192 191
f 169 191 171
f 169 171 170
f 173 189 231
f 173 231 187
f 173 187 232
f 173 232 233
f 173 233 174
f 174 176 175
f 174 233 234
f 174 234 176
f 176 179 177
f 176 234 235
f 176 235 236
f 176 236 237
f 176 237 179
f 177 179 178
f 179 237 238
f 179 238 239
f 181 240 182
f 182 240 241
f 183 185 184
f 185 217 186
f 186 217 242
f 186 242 187
f 187 233 232
f 187 231 188
f 187 242 216
f 187 216 233
f 188 231 189
f 192 230 193
f 193 230 243
f 193 243 194
f 198 244 199
f 199 244 200
f 200 244 202
f 203 228 206
f 203 206 204
f 205 208 209
f 206 228 227
f 206 227 245
f 206 245 207
f 207 245 246
f 207 246 247
f 207 247 208
f 208 247 248
f 208 248 249
f 208 249 250
f 208 250 209
f 209 250 249
f 209 249 251
f 209 251 210
f 210 251 252
f 210 252 253
f 210 253 212
f 210 212 211
f 212 253 254
f 212 254 255
f 212 255 213
f 213 256 257
f 213 257 215
f 213 215 214
f 213 255 256
f 215 257 258
f 215 258 259
f 215 259 260
f 215 260 237
f 215 237 236
f 215 236 235
f 215 235 261
f 215 261 262
f 215 262 216
f 216 262 233
f 216 242 217
f 218 263 264
f 218 264 265
f 218 265 219
f 220 266 267
f 220 267 268
f 220 268 221
f 221 269 222
f 221 268 270
f 221 270 269
f 222 269 224
f 224 227 226
f 224 269 227
f 225 227 228
f 227 269 271
f 227 271 245
f 233 262 234
f 234 262 261
f 234 261 235
f 237 260 238
f 238 260 259
f 238 259 239
f 239 259 272
f 240 273 263
f 240 263 241
f 245 271 246
f 246 271 274
f 246 274 247
f 247 274 275
f 247 275 248
f 248 276 249
f 248 275 276
f 249 277 252
f 249 252 251
f 249 276 277
f 252 278 253
f 252 277 279
f 252 279 278
f 253 278 280
f 253 280 281
f 253 281 282
f 253 282 283
f 253 283 284
f 253 284 254
f 254 284 283
f 254 283 255
f 255 283 281
f 255 281 280
f 255 280 285
f 255 285 256
f 256 285 286
f 256 286 259
f 256 259 258
f 256 258 257
f 259 286 285
f 259 285 272
f 263 273 264
f 266 287 288
f 266 288 267
f 267 288 270
f 267 270 268
f 269 270 271
f 270 288 289
f 270 289 274
f 270 274 271
f 274 289 275
f 275 290 291
f 275 291 276
f 275 289 290
f 276 291 292
f 276 292 293
f 276 293 277
f 277 293 279
f 278 294 295
f 278 295 280
f 278 279 292
f 278 292 296
f 278 296 297
f 278 297 294
f 279 293 292
f 280 295 285
f 281 283 282
f 287 298 299
f 287 299 288
f 288 299 290
f 288 290 289
f 290 299 291
f 291 299 298
f 291 298 300
f 291 300 292
f 292 300 296

