# https://github.com/mikedh/trimesh
v 0.03646174 0.03497560 0.00798192
v 0.03646174 0.04516338 0.01812270
v 0.03646174 0.04462222 0.00798192
v 0.04707195 0.01773779 0.00798192
v 0.05046967 0.00006307 0.00798291
v 0.03646174 0.05078354 0.01812270
v 0.05790731 0.00006307 0.01805719
v 0.05491384 0.01773779 0.01812270
v 0.03646174 0.04465201 0.00800177
v 0.03709113 0.04411084 0.00798192
v 0.05440213 0.01773779 0.00798192
v 0.05703741 0.00006307 0.00798291
v 0.03731372 0.05017287 0.01812270
v 0.03646430 0.05069914 0.01711517
v 0.03646174 0.05069914 0.01711220
v 0.06258942 0.00006307 0.01805719
v 0.05959850 0.01774275 0.01812270
v 0.03646174 0.04524778 0.00842265
v 0.03752353 0.04392715 0.00810402
v 0.03773844 0.04355975 0.00798192
v 0.03712440 0.04504919 0.00866585
v 0.05457611 0.01718669 0.00798291
v 0.05474241 0.01663064 0.00798291
v 0.05519783 0.01504686 0.00798291
v 0.05523877 0.01488302 0.00798291
v 0.05547415 0.01388013 0.00798291
v 0.05573256 0.01257935 0.00798291
v 0.05599865 0.01112963 0.00798291
v 0.05633893 0.00920328 0.00798291
v 0.05642081 0.00871177 0.00798291
v 0.05661781 0.00733652 0.00798291
v 0.05664596 0.00712799 0.00798291
v 0.05681738 0.00554422 0.00798291
v 0.05693252 0.00396045 0.00798291
v 0.05700416 0.00237667 0.00798291
v 0.05703997 0.00078297 0.00798291
v 0.05703997 0.00064396 0.00798291
v 0.05407976 0.01879529 0.00798192
v 0.05858020 0.00006307 0.00940338
v 0.03839342 0.04937850 0.01812270
v 0.03646174 0.05056013 0.01613246
v 0.03708346 0.05016791 0.01656823
v 0.06222611 0.00006307 0.01653945
v 0.06259709 0.00079786 0.01805719
v 0.06001810 0.01629799 0.01805719
v 0.05946034 0.01821441 0.01812270
v 0.06255871 0.00237667 0.01805719
v 0.06250499 0.00396045 0.01805719
v 0.06241800 0.00554918 0.01805719
v 0.06224402 0.00712799 0.01805719
v 0.06223122 0.00719750 0.01805719
v 0.06027907 0.01531000 0.01805719
v 0.03646174 0.04627053 0.00916614
v 0.03672271 0.04614642 0.00922669
v 0.03839087 0.04467187 0.00916018
v 0.03879256 0.04353989 0.00861324
v 0.03831155 0.04304341 0.00798192
v 0.05499827 0.01663064 0.00818740
v 0.05521830 0.01504686 0.00799879
v 0.05709882 0.01310562 0.00931801
v 0.05634917 0.01187931 0.00840776
v 0.05607797 0.01504686 0.00879092
v 0.05649245 0.01029554 0.00827177
v 0.05662549 0.00871177 0.00814868
v 0.05673551 0.00712799 0.00805339
v 0.05767193 0.00554422 0.00877504
v 0.05773589 0.00396045 0.00872441
v 0.05776659 0.00237667 0.00869364
v 0.05794569 0.00066878 0.00882467
v 0.05472962 0.01977832 0.00882566
v 0.05457099 0.01836832 0.00828765
v 0.05472706 0.01773779 0.00825192
v 0.05374971 0.01979818 0.00798192
v 0.05855974 0.00237667 0.00944804
v 0.05860067 0.00006307 0.00942323
v 0.03918401 0.04876287 0.01812270
v 0.03825782 0.04928418 0.01653945
v 0.03811710 0.04916998 0.01548427
v 0.03646174 0.05051544 0.01594089
v 0.06190373 0.00006307 0.01523711
v 0.06223122 0.00079786 0.01653945
v 0.06015370 0.01576179 0.01769388
v 0.05930171 0.01821441 0.01653945
v 0.05861091 0.02065213 0.01717672
v 0.05896398 0.01979818 0.01812270
v 0.06219029 0.00237667 0.01653945
v 0.06188582 0.00237667 0.01530957
v 0.06183977 0.00396045 0.01546045
v 0.06179116 0.00511228 0.01562820
v 0.06173999 0.00616979 0.01581581
v 0.06137156 0.00712799 0.01495520
v 0.06114385 0.00871177 0.01495520
v 0.06086497 0.01029554 0.01495520
v 0.06055539 0.01187931 0.01495520
v 0.06020231 0.01437661 0.01563317
v 0.06056307 0.01346309 0.01653945
v 0.06027651 0.01468443 0.01653945
v 0.03646174 0.04655353 0.00940933
v 0.03777938 0.04572937 0.00958900
v 0.03944498 0.04420518 0.00952944
v 0.04001041 0.04314767 0.00912445
v 0.03919680 0.04236820 0.00806828
v 0.03890513 0.04250721 0.00798192
v 0.05564301 0.01821441 0.00919294
v 0.05586561 0.01663064 0.00897952
v 0.05698368 0.01415816 0.00943812
v 0.05858532 0.01265382 0.01100351
v 0.05811967 0.01202826 0.01028881
v 0.05815037 0.01029554 0.00992550
v 0.05721395 0.01187931 0.00919989
v 0.05735723 0.01029554 0.00906290
v 0.05748772 0.00871177 0.00894081
v 0.05758750 0.00712799 0.00884552
v 0.05846251 0.00554422 0.00955426
v 0.05852904 0.00396045 0.00948279
v 0.05548950 0.01923716 0.00934382
v 0.05432281 0.02138196 0.00897356
v 0.05532320 0.02028970 0.00951753
v 0.05364737 0.02007621 0.00798192
v 0.05917123 0.00396045 0.01027392
v 0.05920193 0.00237667 0.01024017
v 0.05910215 0.00066878 0.01005951
v 0.05910470 0.00006307 0.01005753
v 0.04015113 0.04796850 0.01812270
v 0.04002065 0.04786424 0.01653945
v 0.03905097 0.04865364 0.01653945
v 0.03730605 0.04962178 0.01495619
v 0.03646174 0.05024735 0.01495619
v 0.03978526 0.04767061 0.01495619
v 0.03870556 0.04853449 0.01495619
v 0.03789451 0.04899621 0.01442811
v 0.06167091 0.00006307 0.01444498
v 0.06190629 0.00079786 0.01523115
v 0.06008206 0.01547383 0.01653945
v 0.05976736 0.01663064 0.01653945
v 0.05944243 0.01773779 0.01653945
v 0.05870813 0.01937617 0.01527185
v 0.05853671 0.02042871 0.01612155
v 0.05878745 0.01986273 0.01660595
v 0.05864928 0.02075639 0.01812270
v 0.05830644 0.02125784 0.01660595
v 0.05766426 0.02296573 0.01653945
v 0.05784079 0.02296573 0.01812270
v 0.05836273 0.02155076 0.01812270
v 0.06167091 0.00079786 0.01443903
v 0.06164532 0.00237667 0.01451744
v 0.06160183 0.00396045 0.01466832
v 0.06156856 0.00560380 0.01504255
v 0.06078566 0.00712799 0.01337194
v 0.06050677 0.00881106 0.01323396
v 0.06040699 0.01029554 0.01359628
v 0.06025604 0.01187931 0.01396157
v 0.06017417 0.01267865 0.01415712
v 0.06028163 0.01330918 0.01504553
v 0.06005648 0.01373615 0.01457799
v 0.05989785 0.01495750 0.01504553
v 0.05944243 0.01663064 0.01495520
v 0.03646174 0.04703511 0.00986892
v 0.03669712 0.04771530 0.01076031
v 0.03840366 0.04624075 0.01064517
v 0.03892560 0.04523785 0.01008631
v 0.04055026 0.04370373 0.01004363
v 0.04106453 0.04264126 0.00950066
v 0.04003856 0.04475131 0.01058461
v 0.04157367 0.04158872 0.00912643
v 0.04040187 0.04197597 0.00859735
v 0.03934264 0.04209017 0.00798192
v 0.05665875 0.01663064 0.00981135
v 0.05686855 0.01504686 0.00956617
v 0.05751074 0.01504686 0.01035730
v 0.05907912 0.01202826 0.01163483
v 0.06015882 0.00940188 0.01261654
v 0.05949616 0.01029554 0.01179067
v 0.05868255 0.01160129 0.01087248
v 0.05849322 0.01346309 0.01114248
v 0.05897422 0.01346309 0.01193460
v 0.05880280 0.01029554 0.01071763
v 0.05893328 0.00871177 0.01055682
v 0.05827830 0.00871177 0.00976470
v 0.05837808 0.00712799 0.00964757
v 0.05903306 0.00712799 0.01043870
v 0.05911238 0.00554422 0.01034638
v 0.05653594 0.01833356 0.01025804
v 0.05657944 0.01773779 0.01010120
v 0.05401579 0.02296573 0.00924654
v 0.05339919 0.02138196 0.00818243
v 0.05385716 0.02379982 0.00939742
v 0.05511340 0.02138196 0.00974981
v 0.05579141 0.02138196 0.01054094
v 0.05597819 0.01977832 0.01011013
v 0.05313822 0.02138196 0.00798192
v 0.05996181 0.00396045 0.01133009
v 0.05999251 0.00237667 0.01127549
v 0.06002321 0.00079786 0.01123281
v 0.06002321 0.00006307 0.01123082
v 0.04094428 0.04729825 0.01812270
v 0.04081123 0.04717910 0.01653945
v 0.03646174 0.04995442 0.01419980
v 0.04057585 0.04696064 0.01495619
v 0.03962152 0.04753160 0.01410649
v 0.03759516 0.04877280 0.01337095
v 0.03680202 0.04937850 0.01337095
v 0.06121293 0.00006307 0.01337194
v 0.05921984 0.01773779 0.01543563
v 0.05891537 0.01834846 0.01482814
v 0.05857509 0.01896409 0.01421667
v 0.05843949 0.01986273 0.01482814
v 0.05794313 0.02138196 0.01495619
v 0.05708603 0.02395373 0.01540883
v 0.05718581 0.02419700 0.01653945
v 0.05727280 0.02441049 0.01812270
v 0.06121293 0.00079786 0.01337194
v 0.06116432 0.00237667 0.01337194
v 0.06108245 0.00396045 0.01337194
v 0.06094940 0.00554422 0.01337194
v 0.06030466 0.00712799 0.01235449
v 0.06023302 0.00834934 0.01247460
v 0.06007439 0.01029554 0.01280614
v 0.05992599 0.01187931 0.01317043
v 0.05977760 0.01330918 0.01352679
v 0.05932218 0.01504686 0.01337194
v 0.05875419 0.01773779 0.01373227
v 0.05882583 0.01773779 0.01394965
v 0.03646174 0.04780963 0.01067197
v 0.03646174 0.04806780 0.01098167
v 0.03775379 0.04729825 0.01124968
v 0.03946033 0.04580384 0.01113354
v 0.04164020 0.04320228 0.01055583
v 0.04269687 0.04268594 0.01107001
v 0.04213399 0.04213485 0.01004065
v 0.04262779 0.04103266 0.00952349
v 0.04109523 0.04425979 0.01108689
v 0.04311646 0.03997516 0.00914827
v 0.04196513 0.04037731 0.00860927
v 0.04079332 0.04077449 0.00806927
v 0.04050677 0.04091847 0.00798192
v 0.05713720 0.01788673 0.01082086
v 0.05715766 0.01773779 0.01079505
v 0.05730862 0.01663064 0.01060248
v 0.05980574 0.00881106 0.01188398
v 0.05830133 0.01504686 0.01143729
v 0.05879768 0.01504686 0.01222941
v 0.05982365 0.00712799 0.01156336
v 0.05990552 0.00554422 0.01142935
v 0.05294121 0.02187844 0.00798192
v 0.05230414 0.02344235 0.00798192
v 0.05296424 0.02299055 0.00837203
v 0.05205852 0.02400834 0.00798192
v 0.05193571 0.02454950 0.00808019
v 0.05306658 0.02441545 0.00896960
v 0.05252161 0.02612831 0.00917706
v 0.05230669 0.02703687 0.00936367
v 0.05360898 0.02485732 0.00965352
v 0.05426908 0.02441545 0.01019153
v 0.05556626 0.02254869 0.01081292
v 0.05685576 0.01979818 0.01123281
v 0.05698624 0.01894424 0.01102634
v 0.06044537 0.00396045 0.01212122
v 0.06048375 0.00237667 0.01206762
v 0.06050677 0.00079786 0.01202493
v 0.06050677 0.00006307 0.01202295
v 0.04180138 0.04650388 0.01812270
v 0.04167602 0.04638473 0.01653945
v 0.03646174 0.04961682 0.01335804
v 0.04144063 0.04616627 0.01495619
v 0.04125386 0.04599251 0.01400723
v 0.04097498 0.04573433 0.01295305
v 0.03931194 0.04726350 0.01305231
v 0.03879000 0.04790395 0.01349602
v 0.03651547 0.04915509 0.01247757
v 0.03646174 0.04921963 0.01252919
v 0.05873116 0.01790659 0.01379679
v 0.05840367 0.01834846 0.01330940
v 0.05797639 0.01979818 0.01337095
v 0.05738537 0.02145146 0.01329451
v 0.05715511 0.02257351 0.01377098
v 0.05695810 0.02363101 0.01435167
v 0.05731117 0.02305013 0.01490954
v 0.05672783 0.02450978 0.01490954
v 0.05602424 0.02612831 0.01495619
v 0.05635684 0.02612831 0.01653945
v 0.05685576 0.02499137 0.01653945
v 0.05695043 0.02520486 0.01812270
v 0.06038141 0.00554422 0.01222147
v 0.05866719 0.01612422 0.01245077
v 0.05852136 0.01718173 0.01274261
v 0.05889234 0.01664553 0.01331040
v 0.03646174 0.04855435 0.01160405
v 0.03713463 0.04823660 0.01186412
v 0.03825782 0.04770040 0.01230486
v 0.04050677 0.04524282 0.01163880
v 0.03991831 0.04621096 0.01218872
v 0.04211352 0.04368884 0.01160703
v 0.04311903 0.04311292 0.01212618
v 0.04368190 0.04210506 0.01161894
v 0.04424733 0.04106245 0.01111369
v 0.04319066 0.04163340 0.01057866
v 0.04367934 0.04052129 0.01007043
v 0.04417058 0.03938931 0.00956220
v 0.04153274 0.04467683 0.01214206
v 0.04462856 0.03833181 0.00919591
v 0.04350024 0.03873892 0.00864500
v 0.04235658 0.03913611 0.00809310
v 0.04201374 0.03932974 0.00798192
v 0.04093404 0.04048157 0.00798192
v 0.05726257 0.01773779 0.01094792
v 0.05815805 0.01664553 0.01187008
v 0.05166962 0.02484739 0.00798192
v 0.05082531 0.02665458 0.00798192
v 0.05141889 0.02621768 0.00829758
v 0.05149564 0.02762272 0.00892790
v 0.05092253 0.02929089 0.00919889
v 0.05204828 0.02809438 0.00963268
v 0.05407208 0.02583539 0.01070969
v 0.05535902 0.02360619 0.01108987
v 0.05663316 0.02145146 0.01180258
v 0.05714487 0.02097484 0.01233761
v 0.05733421 0.01979818 0.01202493
v 0.05754144 0.01833356 0.01164972
v 0.04259197 0.04575916 0.01812270
v 0.04246660 0.04564000 0.01653945
v 0.04223377 0.04542155 0.01495619
v 0.04286573 0.04443852 0.01395462
v 0.04191907 0.04508891 0.01345234
v 0.04258685 0.04417042 0.01290143
v 0.03646174 0.04916998 0.01244482
v 0.05695043 0.02202738 0.01271779
v 0.05678668 0.02305013 0.01329451
v 0.05620333 0.02454950 0.01337095
v 0.05543322 0.02694750 0.01413031
v 0.05554579 0.02718582 0.01495619
v 0.05653594 0.02612831 0.01812270
v 0.05570954 0.02753335 0.01653945
v 0.05540507 0.02846674 0.01756186
v 0.04417570 0.04257176 0.01290441
v 0.04466182 0.04151922 0.01216986
v 0.04521957 0.04047164 0.01167751
v 0.04577734 0.03940421 0.01118417
v 0.04472066 0.04000991 0.01061737
v 0.04520166 0.03886801 0.01012602
v 0.04568522 0.03770624 0.00963466
v 0.04610739 0.03665370 0.00926540
v 0.04514794 0.03719487 0.00888125
v 0.04398892 0.03720976 0.00806828
v 0.04298086 0.03823251 0.00798192
v 0.04252800 0.03875382 0.00798192
v 0.05046711 0.02736455 0.00798192
v 0.05037757 0.02771209 0.00805240
v 0.04983516 0.02933558 0.00834225
v 0.04985563 0.03073565 0.00902121
v 0.05068715 0.03011505 0.00940040
v 0.05180011 0.02941502 0.01017962
v 0.05250370 0.02896322 0.01068785
v 0.05382390 0.02688793 0.01102038
v 0.05515178 0.02454950 0.01140354
v 0.05565581 0.02454950 0.01219666
v 0.05595260 0.02303027 0.01168644
v 0.04340558 0.04496976 0.01812270
v 0.04328277 0.04484564 0.01653945
v 0.04306018 0.04462718 0.01495619
v 0.04385076 0.04384275 0.01495619
v 0.04443923 0.04285475 0.01395958
v 0.04352071 0.04351010 0.01342852
v 0.05546904 0.02543324 0.01250338
v 0.05560720 0.02602901 0.01350992
v 0.05521063 0.02649074 0.01307514
v 0.05488058 0.02756811 0.01350992
v 0.05406440 0.02921642 0.01350992
v 0.05385205 0.03011009 0.01413031
v 0.05517225 0.02797522 0.01495619
v 0.05533599 0.02832772 0.01653945
v 0.05572745 0.02787096 0.01812270
v 0.05483708 0.02929089 0.01653945
v 0.05413093 0.03062146 0.01653945
v 0.05422303 0.03078034 0.01812270
v 0.05508526 0.02916181 0.01810285
v 0.04507630 0.04190150 0.01347617
v 0.04571849 0.04093336 0.01299672
v 0.04617902 0.03988083 0.01224033
v 0.04672655 0.03881340 0.01176188
v 0.04727407 0.03770624 0.01128244
v 0.04621996 0.03835167 0.01068983
v 0.04669329 0.03717997 0.01021932
v 0.04716406 0.03596856 0.00974683
v 0.04756574 0.03491105 0.00936466
v 0.04666770 0.03551676 0.00902518
v 0.04521957 0.03577493 0.00811096
v 0.04411685 0.03690691 0.00798192
v 0.04479998 0.03607282 0.00798192
v 0.04363585 0.03747290 0.00798192
v 0.05016521 0.02793054 0.00798192
v 0.04910854 0.02980227 0.00798192
v 0.04888339 0.03018456 0.00798192
v 0.04931578 0.03205629 0.00921676
v 0.04899852 0.03310883 0.00950066
v 0.05036989 0.03116759 0.00972301
v 0.05085601 0.03198679 0.01078016
v 0.05221715 0.03001576 0.01105215
v 0.05361666 0.02771209 0.01131718
v 0.05391345 0.02864050 0.01245673
v 0.05413348 0.02771209 0.01210732
v 0.04419873 0.04419028 0.01812270
v 0.04407336 0.04406616 0.01653945
v 0.04462088 0.04304837 0.01495619
v 0.04541147 0.04219443 0.01495619
v 0.04597946 0.04122629 0.01405090
v 0.05361155 0.02969801 0.01307514
v 0.05226576 0.03168889 0.01256195
v 0.05244741 0.03200168 0.01337095
v 0.05218900 0.03314855 0.01437748
v 0.05352711 0.03111298 0.01495619
v 0.05396718 0.03032357 0.01495619
v 0.05450703 0.02929089 0.01495619
v 0.05508526 0.02916181 0.01812270
v 0.05369598 0.03141583 0.01653945
v 0.05378297 0.03157471 0.01812270
v 0.04750434 0.03957797 0.01417995
v 0.04729966 0.03933967 0.01337095
v 0.04767832 0.03821265 0.01233761
v 0.04820794 0.03709060 0.01190284
v 0.04874011 0.03593877 0.01146905
v 0.04768600 0.03665370 0.01080300
v 0.04815165 0.03542740 0.01035333
v 0.04866847 0.03404718 0.00984510
v 0.04788044 0.03404718 0.00912048
v 0.04671632 0.03410179 0.00827574
v 0.04598458 0.03455359 0.00798192
v 0.04559312 0.03506497 0.00798192
v 0.04820538 0.03128178 0.00798192
v 0.04867103 0.03087963 0.00814273
v 0.04829748 0.03245844 0.00861522
v 0.04941045 0.03404718 0.01063722
v 0.05053620 0.03303932 0.01118318
v 0.05196897 0.03087963 0.01142042
v 0.04496628 0.04340088 0.01812270
v 0.04483580 0.04327179 0.01653945
v 0.04562894 0.04243274 0.01653945
v 0.04614321 0.04140006 0.01495619
v 0.04704637 0.04033759 0.01480729
v 0.05089439 0.03360035 0.01223835
v 0.05054899 0.03465288 0.01283592
v 0.05197664 0.03279605 0.01337095
v 0.05181802 0.03397271 0.01492641
v 0.05234508 0.03339182 0.01543265
v 0.05269303 0.03255277 0.01492641
v 0.05115536 0.03409683 0.01336499
v 0.05079205 0.03501532 0.01388910
v 0.05096603 0.03527349 0.01495619
v 0.05309472 0.03245844 0.01653945
v 0.05326615 0.03245844 0.01812270
v 0.04767832 0.03978650 0.01523711
v 0.04833075 0.03882829 0.01486288
v 0.04898573 0.03786015 0.01448965
v 0.04795208 0.03855026 0.01337095
v 0.04874011 0.03753744 0.01337095
v 0.04912645 0.03647001 0.01252423
v 0.04912645 0.03488127 0.01095785
v 0.04724081 0.03286059 0.00801468
v 0.04714103 0.03293506 0.00798192
v 0.04777043 0.03196692 0.00798192
v 0.04728942 0.03272158 0.00798192
v 0.05022150 0.03409683 0.01174203
v 0.04575686 0.04257176 0.01812270
v 0.04648605 0.04178235 0.01812270
v 0.04636068 0.04163837 0.01653945
v 0.04715382 0.04076953 0.01653945
v 0.05016009 0.03557634 0.01336499
v 0.05058737 0.03629624 0.01625555
v 0.05193059 0.03434010 0.01653945
v 0.05244486 0.03355070 0.01653945
v 0.04933369 0.03674803 0.01337095
v 0.05042874 0.03606786 0.01495619
v 0.05252673 0.03368475 0.01812270
v 0.04783183 0.03997516 0.01653945
v 0.04914947 0.03807860 0.01554582
v 0.04956140 0.03728423 0.01499391
v 0.04937718 0.03549690 0.01191376
v 0.04727663 0.04090358 0.01812270
v 0.05067435 0.03642036 0.01731072
v 0.05104790 0.03571039 0.01668536
v 0.04924670 0.03820272 0.01653945
v 0.05011148 0.03705585 0.01668536
v 0.05202270 0.03447415 0.01812270
v 0.04794185 0.04010921 0.01812270
v 0.04862242 0.03899709 0.01653945
v 0.05070506 0.03646008 0.01812270
v 0.05126282 0.03562599 0.01812270
v 0.04934136 0.03833677 0.01812270
v 0.05013195 0.03725445 0.01812270
v 0.04873244 0.03912618 0.01812270
f 1 2 6
f 1 6 15
f 1 15 41
f 1 41 79
f 1 79 128
f 1 128 198
f 1 198 264
f 1 264 271
f 1 271 326
f 1 326 288
f 1 288 225
f 1 225 224
f 1 224 158
f 1 158 98
f 1 98 53
f 1 53 18
f 1 18 9
f 1 9 3
f 1 3 10
f 1 10 20
f 1 20 57
f 1 57 103
f 1 103 167
f 1 167 236
f 1 236 305
f 1 305 304
f 1 304 346
f 1 346 345
f 1 345 390
f 1 390 388
f 1 388 389
f 1 389 428
f 1 428 427
f 1 427 459
f 1 459 461
f 1 461 460
f 1 460 429
f 1 429 393
f 1 393 392
f 1 392 391
f 1 391 347
f 1 347 309
f 1 309 308
f 1 308 248
f 1 248 246
f 1 246 245
f 1 245 191
f 1 191 119
f 1 119 73
f 1 73 38
f 1 38 11
f 1 11 4
f 1 4 5
f 1 5 2
f 2 5 7
f 2 7 8
f 2 8 17
f 2 17 46
f 2 46 85
f 2 85 140
f 2 140 144
f 2 144 143
f 2 143 211
f 2 211 283
f 2 283 332
f 2 332 372
f 2 372 414
f 2 414 375
f 2 375 416
f 2 416 450
f 2 450 473
f 2 473 483
f 2 483 487
f 2 487 486
f 2 486 489
f 2 489 488
f 2 488 490
f 2 490 484
f 2 484 478
f 2 478 464
f 2 464 463
f 2 463 435
f 2 435 402
f 2 402 358
f 2 358 320
f 2 320 262
f 2 262 196
f 2 196 124
f 2 124 76
f 2 76 40
f 2 40 13
f 2 13 6
f 3 9 10
f 4 11 12
f 4 12 5
f 5 12 39
f 5 39 75
f 5 75 123
f 5 123 195
f 5 195 261
f 5 261 203
f 5 203 132
f 5 132 80
f 5 80 43
f 5 43 16
f 5 16 7
f 6 13 14
f 6 14 15
f 7 16 8
f 8 16 17
f 9 18 10
f 10 19 20
f 10 18 21
f 10 21 19
f 11 22 23
f 11 23 24
f 11 24 25
f 11 25 26
f 11 26 27
f 11 27 28
f 11 28 29
f 11 29 30
f 11 30 31
f 11 31 32
f 11 32 33
f 11 33 34
f 11 34 35
f 11 35 36
f 11 36 37
f 11 37 12
f 11 38 22
f 12 37 39
f 13 40 14
f 14 41 15
f 14 40 42
f 14 42 41
f 16 43 44
f 16 44 17
f 17 45 46
f 17 44 47
f 17 47 48
f 17 48 49
f 17 49 50
f 17 50 51
f 17 51 52
f 17 52 45
f 18 53 54
f 18 54 21
f 19 55 56
f 19 56 20
f 19 21 55
f 20 56 57
f 21 54 55
f 22 38 58
f 22 58 23
f 23 59 24
f 23 58 59
f 24 59 25
f 25 59 26
f 26 60 61
f 26 61 27
f 26 59 62
f 26 62 60
f 27 61 63
f 27 63 28
f 28 63 64
f 28 64 29
f 29 64 30
f 30 64 65
f 30 65 31
f 31 65 32
f 32 65 33
f 33 65 66
f 33 66 67
f 33 67 34
f 34 67 35
f 35 68 39
f 35 39 69
f 35 69 36
f 35 67 68
f 36 69 39
f 36 39 37
f 38 70 71
f 38 71 72
f 38 72 58
f 38 73 70
f 39 68 74
f 39 74 75
f 40 76 77
f 40 77 42
f 41 42 77
f 41 77 78
f 41 78 79
f 43 80 81
f 43 81 44
f 44 81 47
f 45 52 82
f 45 82 46
f 46 83 84
f 46 84 85
f 46 82 83
f 47 81 86
f 47 86 48
f 48 86 87
f 48 87 88
f 48 88 49
f 49 88 89
f 49 89 90
f 49 90 50
f 50 90 91
f 50 91 92
f 50 92 93
f 50 93 51
f 51 93 94
f 51 94 95
f 51 95 96
f 51 96 97
f 51 97 82
f 51 82 52
f 53 98 54
f 54 98 99
f 54 99 55
f 55 100 101
f 55 101 56
f 55 99 100
f 56 101 102
f 56 102 103
f 56 103 57
f 58 72 104
f 58 104 105
f 58 105 59
f 59 105 62
f 60 62 106
f 60 106 107
f 60 107 108
f 60 108 109
f 60 109 110
f 60 110 61
f 61 110 111
f 61 111 63
f 62 105 106
f 63 111 64
f 64 111 112
f 64 112 65
f 65 112 113
f 65 113 66
f 66 113 114
f 66 114 115
f 66 115 67
f 67 115 74
f 67 74 68
f 70 116 71
f 70 73 117
f 70 117 118
f 70 118 116
f 71 116 104
f 71 104 72
f 73 119 117
f 74 115 120
f 74 120 121
f 74 121 122
f 74 122 75
f 75 122 123
f 76 124 125
f 76 125 126
f 76 126 77
f 77 126 78
f 78 127 128
f 78 128 79
f 78 126 125
f 78 125 129
f 78 129 130
f 78 130 131
f 78 131 127
f 80 132 133
f 80 133 81
f 81 133 87
f 81 87 86
f 82 97 134
f 82 134 135
f 82 135 136
f 82 136 83
f 83 137 138
f 83 138 139
f 83 139 84
f 83 136 137
f 84 140 85
f 84 139 138
f 84 138 141
f 84 141 142
f 84 142 143
f 84 143 144
f 84 144 140
f 87 133 145
f 87 145 146
f 87 146 147
f 87 147 88
f 88 147 89
f 89 148 90
f 89 147 148
f 90 148 91
f 91 148 149
f 91 149 150
f 91 150 92
f 92 150 151
f 92 151 152
f 92 152 93
f 93 152 153
f 93 153 94
f 94 153 154
f 94 154 95
f 95 97 96
f 95 154 155
f 95 155 156
f 95 156 157
f 95 157 135
f 95 135 134
f 95 134 97
f 98 158 99
f 99 158 159
f 99 159 160
f 99 160 161
f 99 161 100
f 100 162 163
f 100 163 101
f 100 161 164
f 100 164 162
f 101 163 165
f 101 165 166
f 101 166 102
f 102 166 167
f 102 167 103
f 104 116 168
f 104 168 169
f 104 169 105
f 105 169 106
f 106 169 170
f 106 170 107
f 107 171 172
f 107 172 173
f 107 173 174
f 107 174 108
f 107 170 175
f 107 175 176
f 107 176 171
f 108 174 109
f 109 174 177
f 109 177 178
f 109 178 179
f 109 179 110
f 110 179 111
f 111 179 112
f 112 179 180
f 112 180 113
f 113 180 114
f 114 180 181
f 114 181 182
f 114 182 115
f 115 182 120
f 116 183 184
f 116 184 168
f 116 118 183
f 117 185 118
f 117 119 186
f 117 186 185
f 118 185 187
f 118 187 188
f 118 188 189
f 118 189 190
f 118 190 183
f 119 191 186
f 120 192 193
f 120 193 194
f 120 194 121
f 120 182 192
f 121 194 122
f 122 194 123
f 123 194 195
f 124 196 125
f 125 196 197
f 125 197 129
f 127 131 128
f 128 131 198
f 129 197 199
f 129 199 200
f 129 200 130
f 130 200 131
f 131 201 202
f 131 202 198
f 131 200 201
f 132 203 145
f 132 145 133
f 135 157 204
f 135 204 137
f 135 137 136
f 137 204 205
f 137 205 206
f 137 206 207
f 137 207 138
f 138 207 208
f 138 208 209
f 138 209 142
f 138 142 141
f 142 209 210
f 142 210 143
f 143 210 211
f 145 203 212
f 145 212 213
f 145 213 146
f 146 213 214
f 146 214 147
f 147 214 215
f 147 215 149
f 147 149 148
f 149 215 216
f 149 216 217
f 149 217 150
f 150 217 172
f 150 172 151
f 151 172 218
f 151 218 219
f 151 219 152
f 152 219 153
f 153 220 221
f 153 221 155
f 153 155 154
f 153 219 220
f 155 221 157
f 155 157 156
f 157 222 223
f 157 223 206
f 157 206 205
f 157 205 204
f 157 221 222
f 158 224 159
f 159 224 225
f 159 225 226
f 159 226 160
f 160 226 227
f 160 227 161
f 161 227 164
f 162 228 163
f 162 164 228
f 163 228 229
f 163 229 230
f 163 230 231
f 163 231 165
f 164 227 232
f 164 232 228
f 165 231 233
f 165 233 234
f 165 234 235
f 165 235 166
f 166 235 167
f 167 235 236
f 168 184 237
f 168 237 238
f 168 238 239
f 168 239 169
f 169 239 170
f 170 239 175
f 171 176 172
f 172 176 218
f 172 217 240
f 172 240 173
f 173 240 177
f 173 177 174
f 175 239 241
f 175 241 242
f 175 242 176
f 176 242 218
f 177 240 178
f 178 240 243
f 178 243 181
f 178 181 179
f 179 181 180
f 181 244 182
f 181 243 244
f 182 244 192
f 183 190 237
f 183 237 184
f 185 186 187
f 186 191 245
f 186 245 246
f 186 246 247
f 186 247 187
f 187 246 248
f 187 248 249
f 187 249 250
f 187 250 251
f 187 251 252
f 187 252 253
f 187 253 254
f 187 254 255
f 187 255 188
f 187 247 246
f 188 255 189
f 189 255 256
f 189 256 257
f 189 257 190
f 190 257 237
f 192 244 258
f 192 258 259
f 192 259 193
f 193 259 194
f 194 260 261
f 194 261 195
f 194 259 260
f 196 262 263
f 196 263 197
f 197 263 265
f 197 265 199
f 198 202 264
f 199 265 200
f 200 265 266
f 200 266 267
f 200 267 268
f 200 268 269
f 200 269 201
f 201 270 202
f 201 269 270
f 202 271 264
f 202 270 271
f 203 261 212
f 206 223 272
f 206 272 273
f 206 273 274
f 206 274 275
f 206 275 276
f 206 276 277
f 206 277 208
f 206 208 207
f 208 277 278
f 208 278 209
f 209 278 277
f 209 277 279
f 209 279 280
f 209 280 281
f 209 281 282
f 209 282 210
f 210 282 283
f 210 283 211
f 212 261 260
f 212 260 259
f 212 259 213
f 213 259 258
f 213 258 214
f 214 258 284
f 214 284 215
f 215 284 216
f 216 243 217
f 216 284 244
f 216 244 243
f 217 243 240
f 218 242 219
f 219 242 285
f 219 285 220
f 220 285 221
f 221 285 286
f 221 286 287
f 221 287 222
f 222 272 223
f 222 287 286
f 222 286 272
f 225 288 226
f 226 288 289
f 226 289 290
f 226 290 227
f 227 291 232
f 227 290 292
f 227 292 291
f 228 232 229
f 229 232 293
f 229 293 294
f 229 294 295
f 229 295 296
f 229 296 297
f 229 297 230
f 230 297 231
f 231 297 298
f 231 298 299
f 231 299 233
f 232 291 300
f 232 300 293
f 233 299 301
f 233 301 302
f 233 302 303
f 233 303 234
f 234 303 304
f 234 304 235
f 235 304 305
f 235 305 236
f 237 257 306
f 237 306 241
f 237 241 238
f 238 241 239
f 241 285 242
f 241 306 307
f 241 307 285
f 244 284 258
f 248 308 249
f 249 308 309
f 249 309 310
f 249 310 251
f 249 251 250
f 251 310 252
f 252 310 309
f 252 309 311
f 252 311 312
f 252 312 313
f 252 313 253
f 253 313 314
f 253 314 254
f 254 315 255
f 254 314 315
f 255 316 256
f 255 315 316
f 256 316 317
f 256 317 318
f 256 318 257
f 257 307 306
f 257 318 319
f 257 319 285
f 257 285 307
f 262 320 321
f 262 321 263
f 263 321 322
f 263 322 265
f 265 322 266
f 266 322 323
f 266 323 324
f 266 324 267
f 267 324 325
f 267 325 300
f 267 300 292
f 267 292 268
f 268 292 290
f 268 290 269
f 269 290 270
f 270 290 289
f 270 289 288
f 270 288 326
f 270 326 271
f 272 286 273
f 273 286 274
f 274 317 327
f 274 327 275
f 274 286 317
f 275 327 276
f 276 327 328
f 276 328 277
f 277 329 330
f 277 330 279
f 277 328 329
f 279 330 280
f 280 330 331
f 280 331 281
f 281 332 283
f 281 283 282
f 281 331 333
f 281 333 334
f 281 334 332
f 285 319 318
f 285 318 286
f 286 318 317
f 291 292 300
f 293 300 294
f 294 335 336
f 294 336 295
f 294 300 325
f 294 325 335
f 295 336 296
f 296 336 337
f 296 337 338
f 296 338 339
f 296 339 297
f 297 339 298
f 298 339 299
f 299 340 341
f 299 341 301
f 299 339 340
f 301 341 342
f 301 342 343
f 301 343 344
f 301 344 302
f 302 344 345
f 302 345 346
f 302 346 303
f 303 346 304
f 309 347 311
f 311 347 348
f 311 348 312
f 312 349 350
f 312 350 351
f 312 351 313
f 312 348 349
f 313 351 352
f 313 352 353
f 313 353 354
f 313 354 314
f 314 354 315
f 315 354 355
f 315 355 356
f 315 356 357
f 315 357 316
f 316 357 317
f 317 357 356
f 317 356 327
f 320 358 321
f 321 358 359
f 321 359 360
f 321 360 322
f 322 360 323
f 323 360 361
f 323 361 362
f 323 362 363
f 323 363 325
f 323 325 324
f 325 363 335
f 327 356 364
f 327 364 328
f 328 364 329
f 329 364 365
f 329 365 330
f 330 365 366
f 330 366 367
f 330 367 368
f 330 368 369
f 330 369 370
f 330 370 331
f 331 370 371
f 331 371 333
f 332 334 372
f 333 371 334
f 334 371 373
f 334 373 374
f 334 374 375
f 334 375 376
f 334 376 372
f 335 363 362
f 335 362 377
f 335 377 378
f 335 378 336
f 336 378 379
f 336 379 337
f 337 379 338
f 338 380 381
f 338 381 382
f 338 382 339
f 338 379 380
f 339 382 340
f 340 382 341
f 341 382 383
f 341 383 384
f 341 384 342
f 342 384 385
f 342 385 386
f 342 386 387
f 342 387 343
f 343 388 344
f 343 387 389
f 343 389 388
f 344 388 390
f 344 390 345
f 347 391 348
f 348 391 349
f 349 391 392
f 349 392 393
f 349 393 350
f 350 394 351
f 350 393 394
f 351 394 395
f 351 395 396
f 351 396 397
f 351 397 352
f 352 397 353
f 353 397 398
f 353 398 399
f 353 399 354
f 354 364 355
f 354 399 400
f 354 400 401
f 354 401 364
f 355 364 356
f 358 402 359
f 359 402 403
f 359 403 360
f 360 403 361
f 361 403 404
f 361 404 362
f 362 404 405
f 362 405 406
f 362 406 377
f 364 401 400
f 364 400 366
f 364 366 365
f 366 400 367
f 367 400 368
f 368 407 369
f 368 400 407
f 369 407 408
f 369 408 409
f 369 409 410
f 369 410 411
f 369 411 412
f 369 412 413
f 369 413 370
f 370 413 371
f 371 413 373
f 372 376 414
f 373 413 412
f 373 412 374
f 374 412 415
f 374 415 375
f 375 415 416
f 375 414 376
f 377 406 378
f 378 406 417
f 378 417 418
f 378 418 419
f 378 419 379
f 379 419 380
f 380 419 381
f 381 419 420
f 381 420 421
f 381 421 422
f 381 422 382
f 382 422 383
f 383 422 384
f 384 422 423
f 384 423 424
f 384 424 385
f 385 424 395
f 385 395 425
f 385 425 386
f 386 425 426
f 386 426 427
f 386 427 428
f 386 428 387
f 387 428 389
f 393 429 430
f 393 430 394
f 394 430 431
f 394 431 395
f 395 397 396
f 395 431 425
f 395 424 432
f 395 432 397
f 397 432 433
f 397 433 398
f 398 400 399
f 398 433 434
f 398 434 408
f 398 408 400
f 400 408 407
f 402 435 403
f 403 435 436
f 403 436 404
f 404 436 437
f 404 437 405
f 405 438 406
f 405 437 465
f 405 465 438
f 406 438 439
f 406 439 417
f 408 434 433
f 408 433 440
f 408 440 441
f 408 441 442
f 408 442 409
f 409 442 410
f 410 443 444
f 410 444 445
f 410 445 411
f 410 442 446
f 410 446 447
f 410 447 448
f 410 448 443
f 411 445 444
f 411 444 415
f 411 415 412
f 415 444 449
f 415 449 416
f 416 449 450
f 417 439 451
f 417 451 452
f 417 452 453
f 417 453 454
f 417 454 418
f 418 454 419
f 419 455 456
f 419 456 420
f 419 454 455
f 420 456 421
f 421 456 457
f 421 457 422
f 422 457 423
f 423 457 424
f 424 457 432
f 425 431 458
f 425 458 426
f 426 458 427
f 427 458 459
f 429 460 431
f 429 431 430
f 431 461 458
f 431 460 461
f 432 457 433
f 433 457 462
f 433 462 440
f 435 463 436
f 436 463 437
f 437 463 464
f 437 464 465
f 438 465 466
f 438 466 451
f 438 451 439
f 440 462 456
f 440 456 441
f 441 456 467
f 441 467 447
f 441 447 446
f 441 446 442
f 443 448 444
f 444 448 468
f 444 468 469
f 444 469 470
f 444 470 449
f 447 467 471
f 447 471 453
f 447 453 472
f 447 472 448
f 448 472 468
f 449 470 450
f 450 470 473
f 451 466 474
f 451 474 475
f 451 475 452
f 452 475 453
f 453 475 476
f 453 476 472
f 453 471 455
f 453 455 454
f 455 471 456
f 456 471 467
f 456 462 477
f 456 477 457
f 457 477 462
f 458 461 459
f 464 478 466
f 464 466 465
f 466 478 474
f 468 479 480
f 468 480 469
f 468 472 475
f 468 475 481
f 468 481 482
f 468 482 479
f 469 480 479
f 469 479 470
f 470 479 483
f 470 483 473
f 472 476 475
f 474 484 485
f 474 485 475
f 474 478 484
f 475 485 481
f 479 486 487
f 479 487 483
f 479 482 481
f 479 481 488
f 479 488 489
f 479 489 486
f 481 485 490
f 481 490 488
f 484 490 485

