# https://github.com/mikedh/trimesh
v 0.05469422 -0.03373639 0.05771100
v 0.05443096 -0.03373639 0.05854929
v 0.05387085 -0.03489391 0.05855416
v 0.05391285 -0.03495780 0.05771100
v 0.05390445 -0.03494552 0.05681909
v 0.05240054 -0.03373393 0.01812589
v 0.05242014 -0.03373393 0.01895931
v 0.05422932 -0.03373639 0.05896844
v 0.05413410 -0.03404850 0.05887584
v 0.05063056 -0.03953874 0.05808628
v 0.05203366 -0.03770047 0.05771100
v 0.05259658 -0.03690913 0.05771100
v 0.05338914 -0.03574915 0.05771100
v 0.05246495 -0.03671989 0.05877836
v 0.05068097 -0.03960509 0.05690195
v 0.05117948 -0.03557957 0.01812589
v 0.05197204 -0.03440485 0.01812589
v 0.05236413 -0.03373393 0.01781884
v 0.04698139 -0.03373393 0.01895931
v 0.04987720 -0.03373639 0.06064990
v 0.05019087 -0.03373639 0.06063528
v 0.05146234 -0.03373639 0.06046470
v 0.05178721 -0.03373639 0.06040134
v 0.05265819 -0.03373639 0.06020152
v 0.05288504 -0.03373639 0.06012841
v 0.05343955 -0.03373639 0.05976775
v 0.05196084 -0.03596050 0.05983598
v 0.04915185 -0.04124921 0.05859316
v 0.04922187 -0.04133523 0.05771100
v 0.05012085 -0.04023178 0.05761840
v 0.05068097 -0.03960509 0.05703353
v 0.05113467 -0.03892680 0.05761840
v 0.05149594 -0.03726547 0.05937784
v 0.05103105 -0.03848198 0.05891970
v 0.04854132 -0.04212657 0.05771100
v 0.04920226 -0.04131311 0.05676548
v 0.04786358 -0.04002042 0.01812589
v 0.04865334 -0.03902265 0.01812589
v 0.04925547 -0.03823376 0.01812589
v 0.05000603 -0.03721632 0.01812589
v 0.05062776 -0.03637091 0.01812589
v 0.05053814 -0.03624066 0.01654190
v 0.05108706 -0.03544932 0.01654190
v 0.05187962 -0.03425248 0.01654190
v 0.05220730 -0.03373393 0.01654190
v 0.04335183 -0.03373393 0.01091752
v 0.04393995 -0.03373639 0.05800343
v 0.04424802 -0.03373639 0.05852980
v 0.04517781 -0.03373639 0.05925600
v 0.04538225 -0.03373639 0.05940708
v 0.04590597 -0.03373639 0.05976775
v 0.04616082 -0.03373639 0.05994320
v 0.04688617 -0.03373639 0.06026975
v 0.04705141 -0.03373639 0.06031361
v 0.04827806 -0.03373639 0.06057680
v 0.04860574 -0.03373639 0.06063041
v 0.04829487 -0.03563118 0.06068890
v 0.04987720 -0.03404850 0.06064990
v 0.04987720 -0.03563118 0.06057680
v 0.05146234 -0.03404850 0.06043546
v 0.05144273 -0.03551076 0.06025513
v 0.05254897 -0.03404850 0.06018202
v 0.05229131 -0.03490374 0.06010891
v 0.05090502 -0.03675184 0.06020152
v 0.05049894 -0.03780860 0.05997732
v 0.04763673 -0.04290808 0.05867601
v 0.04774876 -0.04303342 0.05771100
v 0.04949912 -0.04038169 0.05895382
v 0.04905103 -0.03955103 0.06006992
v 0.04869536 -0.04038169 0.05974338
v 0.04812123 -0.04176531 0.05916340
v 0.04717463 -0.04081177 0.01812589
v 0.04775996 -0.03989509 0.01654190
v 0.04855253 -0.03889485 0.01654190
v 0.04916025 -0.03810597 0.01654190
v 0.04981839 -0.03721632 0.01654190
v 0.04909864 -0.03802487 0.01571823
v 0.05090782 -0.03518882 0.01495791
v 0.05192443 -0.03373393 0.01522110
v 0.04970637 -0.03373393 0.01091752
v 0.02608619 -0.04819434 0.01091752
v 0.04292334 -0.03373639 0.05137504
v 0.04292334 -0.03373639 0.05162360
v 0.04292894 -0.03373639 0.05295903
v 0.04306617 -0.03373639 0.05454302
v 0.04307457 -0.03373639 0.05460150
v 0.04333782 -0.03373639 0.05612701
v 0.04339103 -0.03373639 0.05633171
v 0.04376631 -0.03373639 0.05756965
v 0.04382233 -0.03373639 0.05771587
v 0.02608339 -0.04878908 0.05764277
v 0.02608339 -0.04880137 0.05767688
v 0.02608339 -0.04909382 0.05836896
v 0.02608339 -0.04997118 0.05924625
v 0.02608339 -0.05005965 0.05931935
v 0.02608339 -0.05087311 0.05996270
v 0.02608339 -0.05032261 0.05952893
v 0.02608339 -0.05152682 0.06025513
v 0.02608339 -0.05163496 0.06028437
v 0.02608339 -0.05304561 0.06061091
v 0.04670974 -0.03721387 0.06070839
v 0.04670974 -0.03879901 0.06068890
v 0.04829487 -0.03721387 0.06064990
v 0.04993321 -0.03725319 0.06034773
v 0.04944311 -0.03849427 0.06023076
v 0.04609921 -0.04453500 0.05872962
v 0.04623364 -0.04467754 0.05771100
v 0.04702620 -0.04382476 0.05771100
v 0.04708502 -0.04228140 0.05973363
v 0.04659211 -0.04342172 0.05923163
v 0.04754711 -0.04122709 0.06010891
v 0.04638206 -0.04167438 0.01812589
v 0.04705421 -0.04068643 0.01654190
v 0.04763393 -0.03974517 0.01535757
v 0.04827806 -0.03877689 0.01501152
v 0.04892220 -0.03779140 0.01466549
v 0.04947112 -0.03724336 0.01509925
v 0.05035050 -0.03598016 0.01495791
v 0.05173679 -0.03393545 0.01503102
v 0.05074539 -0.03495289 0.01396853
v 0.05182922 -0.03373393 0.01491892
v 0.05026368 -0.03373393 0.01161448
v 0.04951593 -0.03405341 0.01091752
v 0.02608339 -0.04795596 0.05294441
v 0.02608619 -0.04792401 0.05137504
v 0.02608619 -0.05404585 0.01091752
v 0.02608619 -0.04792401 0.05139454
v 0.02608339 -0.04795596 0.05298340
v 0.02608339 -0.04811078 0.05454302
v 0.02608339 -0.04837129 0.05612701
v 0.02608339 -0.04838357 0.05617575
v 0.02608339 -0.04878170 0.05761840
v 0.02608339 -0.05462829 0.06061579
v 0.02771613 -0.05304561 0.06064990
v 0.03721573 -0.04670996 0.06069865
v 0.04038320 -0.04513220 0.06068890
v 0.04354507 -0.04354951 0.06053781
v 0.04512740 -0.04196437 0.06052806
v 0.04670974 -0.04038169 0.06049882
v 0.04843210 -0.03893172 0.06038672
v 0.04790559 -0.04038169 0.06022101
v 0.04453368 -0.04611031 0.05873937
v 0.04546627 -0.04546888 0.05771100
v 0.04553349 -0.04393535 0.05978237
v 0.04503498 -0.04503881 0.05926087
v 0.04408278 -0.04408526 0.01812589
v 0.04485014 -0.04329147 0.01812589
v 0.04563711 -0.04246572 0.01812589
v 0.04602919 -0.04287859 0.06013816
v 0.04551668 -0.04234038 0.01654190
v 0.04626164 -0.04154658 0.01654190
v 0.04609921 -0.04137210 0.01525034
v 0.04677695 -0.04045542 0.01477758
v 0.04745189 -0.03953382 0.01430482
v 0.04867295 -0.03746208 0.01337392
v 0.04926947 -0.03667074 0.01337392
v 0.05107585 -0.03407799 0.01341779
v 0.05127190 -0.03373393 0.01337392
v 0.04910144 -0.03644464 0.01256487
v 0.05052694 -0.03462849 0.01291579
v 0.04908744 -0.03484230 0.01100038
v 0.04915745 -0.03463340 0.01091752
v 0.05063896 -0.03373393 0.01213598
v 0.05016286 -0.03407799 0.01178019
v 0.02608339 -0.05277773 0.05294441
v 0.02680314 -0.05376568 0.01091752
v 0.02688155 -0.05381729 0.01102962
v 0.02608619 -0.05451770 0.01157061
v 0.02608339 -0.05828763 0.05597592
v 0.02608339 -0.05742011 0.05506939
v 0.02613380 -0.05462829 0.06061579
v 0.02608339 -0.05467744 0.06061091
v 0.03563340 -0.04829510 0.06068890
v 0.03880087 -0.04670996 0.06067427
v 0.04195993 -0.04513220 0.06053294
v 0.04346665 -0.04506093 0.06025513
v 0.04505459 -0.04346350 0.06025513
v 0.04661732 -0.04183903 0.06022588
v 0.04291493 -0.04765368 0.05870038
v 0.04467651 -0.04624548 0.05771100
v 0.04393995 -0.04554261 0.05979212
v 0.04231281 -0.04709826 0.05975800
v 0.04249205 -0.04566795 0.01812589
v 0.04329021 -0.04487906 0.01812589
v 0.04447767 -0.04448585 0.06014790
v 0.04316699 -0.04475373 0.01654190
v 0.04395956 -0.04395747 0.01654190
v 0.04472692 -0.04316613 0.01654190
v 0.04451407 -0.04294249 0.01495791
v 0.04436004 -0.04278521 0.01411474
v 0.04590876 -0.04116566 0.01419273
v 0.04645488 -0.04017279 0.01337392
v 0.04724465 -0.03928561 0.01337392
v 0.04788038 -0.03849427 0.01337392
v 0.05093303 -0.03373393 0.01266235
v 0.04764233 -0.03818953 0.01238454
v 0.04724745 -0.03768081 0.01133180
v 0.04769274 -0.03665845 0.01091752
v 0.04870655 -0.03589906 0.01151213
v 0.04932829 -0.03547635 0.01194102
v 0.04896421 -0.03491357 0.01091752
v 0.04905383 -0.03478578 0.01091752
v 0.02899040 -0.05258358 0.01091752
v 0.02997621 -0.05218791 0.01109298
v 0.02771613 -0.05359856 0.01134154
v 0.02771613 -0.05412449 0.01213598
v 0.02608619 -0.05470693 0.01184355
v 0.02608619 -0.05464058 0.01174607
v 0.02608339 -0.05847686 0.05624885
v 0.02929846 -0.05304561 0.06061091
v 0.03721573 -0.04829510 0.06064990
v 0.02771613 -0.05462829 0.06052319
v 0.02608339 -0.05631419 0.06028437
v 0.04038320 -0.04670996 0.06050857
v 0.04185351 -0.04662640 0.06024050
v 0.04288413 -0.04604642 0.06013816
v 0.04127939 -0.04917983 0.05863215
v 0.04304096 -0.04776427 0.05771100
v 0.04383353 -0.04703191 0.05771100
v 0.04169948 -0.04641259 0.01812589
v 0.04125699 -0.04757749 0.06012354
v 0.04064366 -0.04863179 0.05968489
v 0.03959343 -0.04908890 0.06008454
v 0.04157345 -0.04629217 0.01654190
v 0.04236322 -0.04554015 0.01654190
v 0.04294294 -0.04453009 0.01495791
v 0.04373551 -0.04373383 0.01495791
v 0.04482494 -0.04198403 0.01350064
v 0.04278050 -0.04437034 0.01410987
v 0.04252846 -0.04411721 0.01305225
v 0.04411079 -0.04252470 0.01305713
v 0.04571833 -0.04096413 0.01337392
v 0.04615242 -0.03984594 0.01228219
v 0.04670133 -0.03878672 0.01180456
v 0.04573233 -0.03938883 0.01122457
v 0.04629245 -0.03842054 0.01091752
v 0.02986138 -0.05210435 0.01091752
v 0.03102923 -0.05198394 0.01168759
v 0.03060354 -0.05254426 0.01215060
v 0.02861792 -0.05389593 0.01248689
v 0.03198143 -0.05086328 0.01091752
v 0.02657909 -0.05526480 0.01337392
v 0.02608619 -0.05548599 0.01337392
v 0.02608339 -0.05883813 0.05771100
v 0.02608619 -0.05589395 0.01464111
v 0.02608619 -0.05595047 0.01482632
v 0.03563340 -0.04987779 0.06057680
v 0.03880087 -0.04829510 0.06045495
v 0.02939648 -0.05474380 0.06030874
v 0.03404826 -0.05146047 0.06045983
v 0.02771613 -0.05585217 0.06024538
v 0.02893159 -0.05559904 0.06016740
v 0.02608339 -0.05698757 0.06007967
v 0.04022637 -0.04817960 0.06020152
v 0.03960464 -0.05067896 0.05851517
v 0.04136621 -0.04925602 0.05771100
v 0.04215878 -0.04855561 0.05771100
v 0.04012555 -0.04966152 0.05910003
v 0.04080329 -0.04720394 0.01812589
v 0.03880087 -0.05018990 0.05965565
v 0.03880087 -0.04939856 0.06018689
v 0.03682085 -0.05095912 0.06019664
v 0.03787667 -0.05055608 0.06002606
v 0.04065766 -0.04708352 0.01654190
v 0.04134661 -0.04608574 0.01495791
v 0.04213637 -0.04531897 0.01495791
v 0.04118697 -0.04593828 0.01412449
v 0.04185912 -0.04503389 0.01358837
v 0.04091251 -0.04569498 0.01307175
v 0.04147263 -0.04464313 0.01220908
v 0.04305497 -0.04306045 0.01219446
v 0.04460929 -0.04146794 0.01223833
v 0.04516941 -0.04043084 0.01173145
v 0.04418640 -0.04101574 0.01118558
v 0.04479973 -0.04007449 0.01091752
v 0.04557270 -0.03923400 0.01091752
v 0.03298124 -0.05048972 0.01123919
v 0.03246033 -0.05118276 0.01178019
v 0.03165376 -0.05224198 0.01260874
v 0.02974376 -0.05364034 0.01337392
v 0.02895119 -0.05407779 0.01337392
v 0.02771613 -0.05471185 0.01337392
v 0.03477642 -0.04904712 0.01091752
v 0.03483803 -0.04908399 0.01100525
v 0.02691796 -0.05541964 0.01417810
v 0.02677793 -0.05852110 0.05771100
v 0.02608339 -0.05867839 0.05838358
v 0.02608619 -0.05630437 0.01654190
v 0.02608619 -0.05647394 0.01806741
v 0.02608619 -0.05647885 0.01812589
v 0.02763211 -0.05577353 0.01812589
v 0.02720922 -0.05555971 0.01523085
v 0.03558579 -0.05147521 0.06027462
v 0.03729415 -0.04996626 0.06034286
v 0.03088360 -0.05430635 0.06022588
v 0.03404826 -0.05265977 0.06021126
v 0.02663790 -0.05687207 0.06003093
v 0.02998741 -0.05534836 0.06006017
v 0.03204864 -0.05400653 0.06014790
v 0.02608339 -0.05787967 0.05935835
v 0.03880087 -0.05098615 0.05886609
v 0.03679565 -0.05251969 0.05886122
v 0.03496686 -0.05391559 0.05863215
v 0.03702249 -0.05267206 0.05771100
v 0.03781506 -0.05211173 0.05771100
v 0.03880087 -0.05135971 0.05771100
v 0.03964105 -0.05070845 0.05771100
v 0.03964384 -0.05071090 0.05686296
v 0.04001633 -0.04784045 0.01812589
v 0.03987069 -0.04772740 0.01654190
v 0.03502567 -0.05236486 0.06013816
v 0.03608149 -0.05201343 0.05991884
v 0.03733616 -0.05154894 0.05944607
v 0.03971946 -0.04760944 0.01544042
v 0.04029918 -0.04695572 0.01493354
v 0.04038320 -0.04633395 0.01351039
v 0.03949261 -0.04742758 0.01438768
v 0.03923776 -0.04721622 0.01337392
v 0.03645117 -0.04910611 0.01255512
v 0.03815953 -0.04762173 0.01241378
v 0.03986229 -0.04614226 0.01228219
v 0.04044482 -0.04519118 0.01171683
v 0.04103294 -0.04420815 0.01115634
v 0.04262927 -0.04264021 0.01113685
v 0.04362068 -0.04205284 0.01168759
v 0.04404917 -0.04088058 0.01091752
v 0.03354976 -0.05085591 0.01229681
v 0.03460558 -0.05050939 0.01296452
v 0.03406787 -0.05105743 0.01344703
v 0.03250234 -0.05196673 0.01323746
v 0.03199823 -0.05245087 0.01366635
v 0.03004622 -0.05380992 0.01425608
v 0.03664721 -0.04768562 0.01091752
v 0.03563340 -0.04879645 0.01137566
v 0.02942729 -0.05431127 0.01485069
v 0.02772733 -0.05518371 0.01480683
v 0.02771613 -0.05807628 0.05771100
v 0.02891758 -0.05721858 0.05877836
v 0.02771613 -0.05751595 0.05906592
v 0.02608339 -0.05800747 0.05924137
v 0.02746408 -0.05568505 0.01654190
v 0.02825664 -0.05529429 0.01654190
v 0.02842748 -0.05537786 0.01812589
v 0.02918084 -0.05735129 0.05771100
v 0.03032348 -0.05396229 0.01530883
v 0.02771613 -0.05664351 0.05986035
v 0.03310447 -0.05373865 0.06004555
v 0.03088360 -0.05509769 0.05987984
v 0.03552418 -0.05296942 0.05927549
v 0.03299804 -0.05526726 0.05771100
v 0.03404826 -0.05461846 0.05771100
v 0.03506488 -0.05397703 0.05771100
v 0.03585465 -0.05346340 0.05771100
v 0.03404826 -0.05420559 0.05896844
v 0.03200104 -0.05560149 0.05877836
v 0.03635035 -0.05061998 0.01812589
v 0.03721853 -0.04998101 0.01812589
v 0.03821274 -0.04924127 0.01812589
v 0.03900531 -0.04863425 0.01812589
v 0.03811192 -0.04916509 0.01683433
v 0.03870565 -0.04862933 0.01640544
v 0.03800270 -0.04908153 0.01578159
v 0.03404826 -0.05345111 0.05975800
v 0.03783466 -0.04894636 0.01495791
v 0.03890169 -0.04808866 0.01493354
v 0.03666962 -0.04927568 0.01337392
v 0.03746218 -0.04864162 0.01337392
v 0.03493045 -0.05072811 0.01402214
v 0.03766943 -0.04723097 0.01135617
v 0.03937219 -0.04574413 0.01122457
v 0.04010874 -0.04482991 0.01091752
v 0.04091251 -0.04409018 0.01091752
v 0.04251445 -0.04252470 0.01091752
v 0.03305406 -0.05212401 0.01457776
v 0.03250234 -0.05260816 0.01504564
v 0.03086399 -0.05351992 0.01485069
v 0.03840038 -0.04627006 0.01091752
v 0.03088360 -0.05590623 0.05908541
v 0.02997061 -0.05694088 0.05771100
v 0.02929846 -0.05474380 0.01654190
v 0.03052792 -0.05408025 0.01654190
v 0.02929846 -0.05490600 0.01812589
v 0.03088360 -0.05644690 0.05771100
v 0.03331451 -0.05228622 0.01563537
v 0.03131769 -0.05363051 0.01654190
v 0.03220548 -0.05571700 0.05771100
v 0.03145492 -0.05371162 0.01812589
v 0.03246593 -0.05308739 0.01812589
v 0.03352736 -0.05242384 0.01812589
v 0.03431992 -0.05192495 0.01812589
v 0.03555779 -0.05113361 0.01812589
v 0.03544016 -0.05105743 0.01654190
v 0.03622993 -0.05053396 0.01654190
v 0.03737257 -0.04965906 0.01640544
v 0.03596107 -0.05035456 0.01495791
v 0.03704210 -0.04956321 0.01495791
v 0.03517130 -0.05088294 0.01495791
v 0.03923216 -0.04558439 0.01091752
v 0.03392504 -0.05171360 0.01504564
v 0.03066795 -0.05415643 0.01812589
v 0.03420790 -0.05185122 0.01654190
v 0.03341533 -0.05235011 0.01654190
v 0.03246593 -0.05293502 0.01654190
f 1 2 3
f 1 3 4
f 1 4 5
f 1 5 6
f 1 6 7
f 1 7 2
f 2 7 8
f 2 8 9
f 2 9 3
f 3 10 11
f 3 11 12
f 3 12 13
f 3 13 4
f 3 9 14
f 3 14 10
f 4 13 5
f 5 13 12
f 5 12 15
f 5 15 16
f 5 16 17
f 5 17 6
f 6 17 18
f 6 18 45
f 6 45 79
f 6 79 121
f 6 121 158
f 6 158 195
f 6 195 163
f 6 163 122
f 6 122 80
f 6 80 46
f 6 46 19
f 6 19 7
f 7 19 20
f 7 20 21
f 7 21 22
f 7 22 23
f 7 23 24
f 7 24 25
f 7 25 26
f 7 26 8
f 8 26 9
f 9 26 27
f 9 27 14
f 10 14 28
f 10 28 29
f 10 29 30
f 10 30 31
f 10 31 32
f 10 32 11
f 11 32 31
f 11 31 12
f 12 31 15
f 14 27 33
f 14 33 34
f 14 34 28
f 15 31 29
f 15 29 35
f 15 35 36
f 15 36 37
f 15 37 38
f 15 38 39
f 15 39 40
f 15 40 41
f 15 41 16
f 16 41 42
f 16 42 43
f 16 43 17
f 17 43 44
f 17 44 18
f 18 44 45
f 19 46 47
f 19 47 48
f 19 48 49
f 19 49 50
f 19 50 51
f 19 51 52
f 19 52 53
f 19 53 54
f 19 54 55
f 19 55 56
f 19 56 20
f 20 57 58
f 20 58 21
f 20 56 57
f 21 58 59
f 21 59 22
f 22 59 60
f 22 60 23
f 23 60 61
f 23 61 24
f 24 61 62
f 24 62 25
f 25 62 63
f 25 63 26
f 26 63 27
f 27 63 64
f 27 64 65
f 27 65 33
f 28 66 67
f 28 67 35
f 28 35 29
f 28 34 68
f 28 68 69
f 28 69 70
f 28 70 71
f 28 71 66
f 29 31 30
f 33 65 34
f 34 65 69
f 34 69 68
f 35 67 36
f 36 67 72
f 36 72 37
f 37 72 73
f 37 73 74
f 37 74 38
f 38 74 75
f 38 75 39
f 39 75 76
f 39 76 42
f 39 42 40
f 40 42 41
f 42 76 77
f 42 77 78
f 42 78 43
f 43 78 44
f 44 78 79
f 44 79 45
f 46 80 123
f 46 123 162
f 46 162 202
f 46 202 201
f 46 201 198
f 46 198 236
f 46 236 276
f 46 276 275
f 46 275 326
f 46 326 373
f 46 373 372
f 46 372 371
f 46 371 398
f 46 398 377
f 46 377 333
f 46 333 283
f 46 283 241
f 46 241 237
f 46 237 203
f 46 203 166
f 46 166 126
f 46 126 81
f 46 81 82
f 46 82 83
f 46 83 84
f 46 84 85
f 46 85 86
f 46 86 87
f 46 87 88
f 46 88 89
f 46 89 90
f 46 90 47
f 47 90 91
f 47 91 92
f 47 92 93
f 47 93 48
f 48 93 94
f 48 94 49
f 49 94 50
f 50 95 51
f 50 94 95
f 51 95 52
f 52 96 53
f 52 95 97
f 52 97 96
f 53 96 98
f 53 98 54
f 54 98 99
f 54 99 55
f 55 99 100
f 55 100 56
f 56 100 101
f 56 101 57
f 57 101 102
f 57 102 103
f 57 103 58
f 58 103 59
f 59 104 61
f 59 61 60
f 59 103 104
f 61 64 62
f 61 104 64
f 62 64 63
f 64 104 105
f 64 105 69
f 64 69 65
f 66 106 107
f 66 107 108
f 66 108 67
f 66 71 109
f 66 109 110
f 66 110 106
f 67 108 72
f 69 111 109
f 69 109 70
f 69 105 111
f 70 109 71
f 72 112 113
f 72 113 73
f 72 108 112
f 73 113 114
f 73 114 77
f 73 77 74
f 74 77 75
f 75 77 76
f 77 114 115
f 77 115 116
f 77 116 117
f 77 117 118
f 77 118 78
f 78 119 79
f 78 118 120
f 78 120 119
f 79 119 121
f 80 122 123
f 81 124 125
f 81 125 82
f 81 126 165
f 81 165 124
f 82 125 127
f 82 127 83
f 83 127 84
f 84 128 85
f 84 127 128
f 85 128 129
f 85 129 86
f 86 129 87
f 87 130 88
f 87 129 130
f 88 131 89
f 88 130 131
f 89 131 132
f 89 132 91
f 89 91 90
f 91 132 131
f 91 131 130
f 91 130 129
f 91 129 128
f 91 128 124
f 91 124 165
f 91 165 170
f 91 170 169
f 91 169 209
f 91 209 244
f 91 244 287
f 91 287 340
f 91 340 300
f 91 300 253
f 91 253 213
f 91 213 172
f 91 172 133
f 91 133 100
f 91 100 99
f 91 99 98
f 91 98 96
f 91 96 97
f 91 97 95
f 91 95 94
f 91 94 93
f 91 93 92
f 100 133 134
f 100 134 101
f 101 135 136
f 101 136 102
f 101 134 135
f 102 136 137
f 102 137 138
f 102 138 139
f 102 139 103
f 103 139 104
f 104 139 140
f 104 140 105
f 105 141 111
f 105 140 141
f 106 142 143
f 106 143 107
f 106 110 144
f 106 144 145
f 106 145 142
f 107 143 146
f 107 146 147
f 107 147 148
f 107 148 112
f 107 112 108
f 109 111 149
f 109 149 144
f 109 144 110
f 111 141 149
f 112 148 150
f 112 150 151
f 112 151 113
f 113 151 114
f 114 151 152
f 114 152 153
f 114 153 154
f 114 154 115
f 115 154 116
f 116 154 155
f 116 155 156
f 116 156 120
f 116 120 118
f 116 118 117
f 119 120 121
f 120 157 158
f 120 158 121
f 120 156 159
f 120 159 160
f 120 160 157
f 122 161 162
f 122 162 123
f 122 163 164
f 122 164 161
f 124 128 127
f 124 127 125
f 126 166 167
f 126 167 168
f 126 168 169
f 126 169 170
f 126 170 165
f 133 171 134
f 133 172 171
f 134 171 173
f 134 173 135
f 135 173 136
f 136 173 174
f 136 174 175
f 136 175 137
f 137 175 176
f 137 176 177
f 137 177 138
f 138 177 139
f 139 177 178
f 139 178 141
f 139 141 140
f 141 178 149
f 142 179 180
f 142 180 143
f 142 145 181
f 142 181 182
f 142 182 179
f 143 180 183
f 143 183 184
f 143 184 146
f 144 181 145
f 144 149 185
f 144 185 181
f 146 184 186
f 146 186 187
f 146 187 188
f 146 188 147
f 147 188 150
f 147 150 148
f 149 178 177
f 149 177 185
f 150 188 152
f 150 152 151
f 152 189 190
f 152 190 191
f 152 191 153
f 152 188 189
f 153 191 154
f 154 191 192
f 154 192 193
f 154 193 194
f 154 194 155
f 155 194 159
f 155 159 156
f 157 160 158
f 158 160 195
f 159 196 197
f 159 197 198
f 159 198 199
f 159 199 161
f 159 161 200
f 159 200 164
f 159 164 163
f 159 163 160
f 159 194 196
f 160 163 195
f 161 164 200
f 161 199 198
f 161 198 201
f 161 201 202
f 161 202 162
f 166 203 167
f 167 204 205
f 167 205 206
f 167 206 207
f 167 207 208
f 167 208 168
f 167 203 204
f 168 208 169
f 169 208 209
f 171 210 211
f 171 211 173
f 171 172 212
f 171 212 210
f 172 213 212
f 173 211 174
f 174 211 175
f 175 211 214
f 175 214 215
f 175 215 176
f 176 215 216
f 176 216 185
f 176 185 177
f 179 217 218
f 179 218 219
f 179 219 180
f 179 182 217
f 180 219 220
f 180 220 183
f 181 185 216
f 181 216 221
f 181 221 182
f 182 222 217
f 182 221 223
f 182 223 222
f 183 220 224
f 183 224 225
f 183 225 186
f 183 186 184
f 186 225 226
f 186 226 227
f 186 227 187
f 187 227 189
f 187 189 188
f 189 227 190
f 190 228 191
f 190 227 229
f 190 229 230
f 190 230 231
f 190 231 228
f 191 228 232
f 191 232 192
f 192 232 231
f 192 231 233
f 192 233 193
f 193 233 196
f 193 196 194
f 196 233 234
f 196 234 197
f 197 235 236
f 197 236 198
f 197 234 235
f 203 237 204
f 204 238 239
f 204 239 240
f 204 240 205
f 204 237 241
f 204 241 238
f 205 240 206
f 206 240 242
f 206 242 243
f 206 243 207
f 207 243 209
f 207 209 208
f 209 243 245
f 209 245 246
f 209 246 244
f 210 212 247
f 210 247 211
f 211 247 248
f 211 248 214
f 212 249 250
f 212 250 247
f 212 213 251
f 212 251 252
f 212 252 249
f 213 253 251
f 214 248 215
f 215 254 221
f 215 221 216
f 215 248 254
f 217 255 256
f 217 256 257
f 217 257 218
f 217 222 258
f 217 258 255
f 218 257 220
f 218 220 219
f 220 259 224
f 220 257 256
f 220 256 259
f 221 254 223
f 222 223 260
f 222 260 258
f 223 254 261
f 223 261 262
f 223 262 263
f 223 263 260
f 224 259 264
f 224 264 265
f 224 265 225
f 225 265 266
f 225 266 226
f 226 266 267
f 226 267 229
f 226 229 227
f 228 231 232
f 229 267 268
f 229 268 230
f 230 269 270
f 230 270 271
f 230 271 231
f 230 268 269
f 231 271 272
f 231 272 233
f 233 272 273
f 233 273 235
f 233 235 234
f 235 274 275
f 235 275 276
f 235 276 236
f 235 273 274
f 238 241 277
f 238 277 278
f 238 278 279
f 238 279 239
f 239 279 240
f 240 279 280
f 240 280 281
f 240 281 282
f 240 282 242
f 241 283 284
f 241 284 277
f 242 282 285
f 242 285 243
f 243 285 245
f 244 286 287
f 244 246 288
f 244 288 289
f 244 289 290
f 244 290 291
f 244 291 286
f 245 285 246
f 246 285 292
f 246 292 288
f 247 250 293
f 247 293 294
f 247 294 248
f 248 294 262
f 248 262 261
f 248 261 254
f 249 252 295
f 249 295 296
f 249 296 250
f 250 296 293
f 251 253 252
f 252 253 297
f 252 297 298
f 252 298 299
f 252 299 295
f 253 300 297
f 255 258 301
f 255 301 302
f 255 302 303
f 255 303 304
f 255 304 305
f 255 305 306
f 255 306 307
f 255 307 256
f 256 307 308
f 256 308 259
f 258 260 301
f 259 309 310
f 259 310 264
f 259 308 309
f 260 263 301
f 262 293 311
f 262 311 263
f 262 294 293
f 263 312 313
f 263 313 301
f 263 311 312
f 264 310 314
f 264 314 265
f 265 315 267
f 265 267 266
f 265 314 315
f 267 316 269
f 267 269 268
f 267 315 317
f 267 317 318
f 267 318 316
f 269 318 319
f 269 319 320
f 269 320 321
f 269 321 270
f 269 316 318
f 270 321 322
f 270 322 323
f 270 323 324
f 270 324 271
f 271 324 325
f 271 325 272
f 272 325 274
f 272 274 273
f 274 324 275
f 274 325 324
f 275 324 326
f 277 284 319
f 277 319 327
f 277 327 278
f 278 327 279
f 279 327 328
f 279 328 329
f 279 329 330
f 279 330 331
f 279 331 332
f 279 332 280
f 280 332 281
f 281 332 285
f 281 285 282
f 283 333 284
f 284 334 319
f 284 333 334
f 285 332 335
f 285 335 336
f 285 336 292
f 286 337 287
f 286 291 337
f 287 338 339
f 287 339 340
f 287 337 338
f 288 292 341
f 288 341 289
f 289 291 290
f 289 341 291
f 291 341 342
f 291 342 343
f 291 343 344
f 291 344 337
f 292 345 342
f 292 342 341
f 292 336 345
f 293 296 311
f 295 299 296
f 296 299 311
f 297 300 346
f 297 346 298
f 298 347 299
f 298 346 339
f 298 339 348
f 298 348 347
f 299 347 311
f 300 340 339
f 300 339 346
f 301 313 302
f 302 313 312
f 302 312 349
f 302 349 303
f 303 350 351
f 303 351 352
f 303 352 353
f 303 353 304
f 303 349 354
f 303 354 355
f 303 355 350
f 304 353 356
f 304 356 305
f 305 308 306
f 305 356 308
f 306 308 307
f 308 356 357
f 308 357 358
f 308 358 359
f 308 359 309
f 309 359 360
f 309 360 310
f 310 361 362
f 310 362 314
f 310 360 361
f 311 347 312
f 312 347 363
f 312 363 354
f 312 354 349
f 314 362 364
f 314 364 365
f 314 365 317
f 314 317 315
f 317 365 364
f 317 364 366
f 317 366 367
f 317 367 318
f 318 367 319
f 319 367 366
f 319 366 368
f 319 368 328
f 319 328 327
f 319 334 333
f 319 333 369
f 319 369 320
f 320 369 321
f 321 369 370
f 321 370 322
f 322 370 323
f 323 370 371
f 323 371 372
f 323 372 324
f 324 372 373
f 324 373 326
f 328 368 329
f 329 368 331
f 329 331 330
f 331 368 374
f 331 374 375
f 331 375 376
f 331 376 332
f 332 376 345
f 332 345 335
f 333 377 369
f 335 345 336
f 337 344 338
f 338 355 378
f 338 378 348
f 338 348 339
f 338 344 379
f 338 379 355
f 342 345 380
f 342 380 343
f 343 380 381
f 343 381 382
f 343 382 383
f 343 383 379
f 343 379 344
f 345 376 375
f 345 375 384
f 345 384 385
f 345 385 381
f 345 381 380
f 347 348 378
f 347 378 355
f 347 355 354
f 347 354 363
f 350 355 386
f 350 386 387
f 350 387 388
f 350 388 351
f 351 388 389
f 351 389 390
f 351 390 352
f 352 390 391
f 352 391 356
f 352 356 353
f 355 379 383
f 355 383 386
f 356 391 392
f 356 392 393
f 356 393 357
f 357 393 358
f 358 393 360
f 358 360 359
f 360 393 394
f 360 394 362
f 360 362 361
f 362 394 393
f 362 393 395
f 362 395 396
f 362 396 364
f 364 396 366
f 366 396 395
f 366 395 368
f 368 395 397
f 368 397 374
f 369 377 370
f 370 377 398
f 370 398 371
f 374 397 399
f 374 399 384
f 374 384 375
f 381 385 387
f 381 387 400
f 381 400 382
f 382 400 383
f 383 400 386
f 384 399 397
f 384 397 395
f 384 395 393
f 384 393 392
f 384 392 401
f 384 401 402
f 384 402 403
f 384 403 385
f 385 403 387
f 386 400 387
f 387 403 402
f 387 402 388
f 388 402 389
f 389 402 401
f 389 401 390
f 390 401 391
f 391 401 392

