# https://github.com/mikedh/trimesh
v 0.05335489 0.00943465 -0.00784062
v 0.05333982 0.00927812 -0.00307495
v 0.05315910 0.00924651 0.01847542
v 0.05255941 0.00926432 0.08093620
v 0.05267760 -0.00990698 0.06599560
v 0.05255685 -0.00876791 0.08047619
v 0.05282181 0.00941048 0.05178507
v 0.05300847 -0.00997896 0.03001330
v 0.05317258 -0.00999170 0.01106058
v 0.05327151 -0.01003686 -0.00756136
v 0.05246352 -0.00999444 0.08296189
v 0.05242261 0.00941131 0.08376190
v 0.05290319 -0.01027214 0.03018099
v 0.05203642 -0.00122582 0.08549019
v 0.05202167 0.00933385 0.08563098
v 0.05303739 -0.01031158 0.00933248
v 0.05131732 -0.00901425 0.08722896
v 0.05134009 0.00942612 0.08735919
v 0.05087786 -0.00998756 0.08766622
v 0.00574175 -0.01973202 0.01201244
v 0.01282812 -0.02104621 0.01178809
v 0.01437502 -0.02111940 0.01196500
v 0.01278519 -0.02004275 0.00933002
v 0.00682213 -0.01828554 0.00841264
v 0.00425144 -0.01893288 0.01136431
v 0.01073315 -0.01839923 0.00709810
v -0.00056371 -0.01721358 0.01246039
v 0.00187850 -0.01695086 0.00959366
v 0.00474300 -0.01697716 0.00752196
v 0.01274843 -0.01888202 0.00737116
v 0.00717694 -0.01678151 0.00594269
v 0.00952670 -0.01682282 0.00541876
v 0.01202087 -0.01765916 0.00578607
v 0.00474966 -0.01553289 0.00559429
v 0.00271513 -0.01550187 0.00693833
v 0.00871284 -0.01388549 0.00257492
v 0.05068636 0.00946291 0.08826256
v 0.04885149 0.00926724 0.08959064
v 0.04806239 -0.00986185 0.08980076
v 0.05205598 -0.00988339 0.08535102
v 0.05277553 -0.01007052 0.05650178
v 0.00806999 0.03161204 0.03261133
v 0.00614575 0.03167632 0.03278153
v 0.00833303 0.02977892 0.02718133
v 0.00562141 0.02783974 0.02124205
v 0.00798364 0.02822994 0.02262108
v 0.00778050 0.02655010 0.01823874
v 0.00535100 0.02657527 0.01793984
v 0.00292677 0.02774474 0.02212607
v 0.00279424 0.02666153 0.01941778
v 0.00782788 0.02407536 0.01318728
v 0.00544596 0.02418633 0.01317291
v 0.01386302 0.03965807 0.06266857
v 0.00122979 0.02568796 0.01896074
v 0.00346572 0.02346783 0.01275974
v 0.00586650 0.02229329 0.01009232
v 0.00802527 0.02156714 0.00905731
v 0.00843728 0.01952529 0.00622544
v 0.00617802 0.01929669 0.00634761
v 0.00279551 0.02104445 0.01008748
v 0.00920387 0.01547317 0.00265017
v 0.00630347 0.00454055 -0.00172402
v 0.00694284 0.00997496 0.00041217
v 0.00881321 0.01095808 0.00036302
v 0.00759134 0.01277686 0.00158931
v 0.00682844 0.01601331 0.00337791
v 0.00868507 0.01746445 0.00413169
v 0.00419011 0.01333868 0.00305586
v 0.00748250 0.00318450 -0.00245530
v 0.00618820 0.00306581 -0.00213933
v 0.00449655 0.01583989 0.00432852
v 0.00181255 0.00998101 0.00296349
v 0.00211548 0.01553084 0.00563880
v 0.00179692 0.01348125 0.00465774
v 0.00454441 0.01893968 0.00676180
v -0.00067849 0.01217439 0.00577817
v 0.00267828 0.01838325 0.00749895
v -0.00060172 0.00966142 0.00455263
v 0.00010829 0.00672100 0.00328857
v 0.00010001 0.01522565 0.00715531
v 0.00654161 0.00124310 -0.00251794
v -0.00357206 0.00986512 0.00728093
v -0.00266642 0.00696943 0.00557308
v 0.00536415 -0.00041905 -0.00198395
v 0.00536522 0.00143422 -0.00179660
v 0.00144047 0.01902206 0.00913806
v -0.00303409 0.01229750 0.00817446
v -0.00099070 0.00451709 0.00389146
v -0.00520749 0.00739564 0.00817298
v -0.00070222 0.01573383 0.00839405
v -0.00254073 0.01485263 0.00973438
v -0.00702177 0.00735518 0.01027571
v -0.00663424 0.00978083 0.01080904
v -0.00589339 0.01168431 0.01138850
v -0.00488230 0.00463675 0.00756347
v -0.00238988 0.00177398 0.00506727
v -0.00226953 -0.00071301 0.00497501
v -0.00695988 0.00481221 0.00989355
v 0.00629002 -0.00229284 -0.00230097
v -0.00182770 -0.00451191 0.00502757
v -0.00393915 -0.00075258 0.00687291
v -0.00068766 -0.00721811 0.00446794
v -0.00323135 -0.00454453 0.00646071
v -0.00861081 0.00454638 0.01218012
v 0.00536859 -0.00279441 -0.00147406
v -0.01011620 0.00717226 0.01490334
v -0.00897048 0.00962009 0.01429602
v -0.00659735 0.00227327 0.00976014
v -0.00323896 -0.00718476 0.00694738
v -0.01071303 0.00461774 0.01563824
v -0.00017252 0.01893975 0.01087373
v -0.00881884 0.00227398 0.01284403
v -0.01065585 0.00228016 0.01588620
v -0.00502357 -0.00769541 0.00955897
v -0.00146081 -0.00986237 0.00608079
v 0.00125977 -0.00991275 0.00393055
v -0.00447927 -0.01014222 0.00966360
v 0.00423430 -0.01209642 0.00317168
v 0.00109838 -0.01284236 0.00574766
v -0.00102453 -0.01242793 0.00728811
v 0.00639269 -0.01038992 0.00090138
v 0.00284282 -0.01353014 0.00502133
v 0.00422614 0.02144120 0.00966555
v 0.00545819 -0.01416345 0.00396324
v -0.01213970 0.00219499 0.01882355
v -0.00788291 -0.01210058 0.01690267
v -0.00791929 -0.01057662 0.01591257
v -0.00640660 -0.01031157 0.01279003
v -0.00486184 -0.01267969 0.01222033
v -0.00309966 -0.01262018 0.00971507
v -0.00231138 -0.01579399 0.01237107
v -0.00056037 -0.01538401 0.00958087
v -0.00190516 0.02150460 0.01662559
v -0.00940902 0.01085710 0.01659886
v -0.01028919 0.00972284 0.01693633
v -0.01234372 0.00724468 0.01970435
v -0.00565763 0.01299489 0.01240726
v -0.00054800 0.02180316 0.01465132
v -0.00096297 0.02292183 0.01716590
v 0.00073645 0.02658362 0.02172024
v 0.00130314 0.02403197 0.01576374
v 0.00105711 0.02175098 0.01257748
v 0.00287195 0.02511638 0.01605674
v 0.00778721 -0.00534313 -0.00184801
v 0.00772482 -0.00300130 -0.00241305
v 0.00764599 0.00013639 -0.00271324
v 0.00632961 -0.00462012 -0.00172314
v 0.00769375 0.00519258 -0.00194590
v 0.00803692 -0.01132057 0.00093925
v 0.00654766 -0.01208033 0.00190393
v 0.00562116 -0.00911495 0.00068558
v 0.00826484 -0.01499939 0.00361225
v 0.03898402 -0.02740345 0.08922450
v -0.03778968 -0.02541709 0.08686903
v -0.03958719 -0.02205822 0.08693429
v 0.01917123 0.04321955 0.08891742
v 0.01556636 0.04496784 0.08794969
v 0.01222237 0.04549129 0.08899834
v 0.01068942 0.04630212 0.08794218
v 0.02317207 0.04122302 0.08896094
v 0.02279271 0.04193053 0.08773720
v 0.00557778 0.04675249 0.08897577
v 0.00731896 0.04695557 0.08782654
v 0.02643499 0.03976244 0.08781232
v 0.02721846 0.03880522 0.08898582
v 0.02913087 0.03743292 0.08901024
v -0.00087450 0.04715258 0.08868816
v 0.03056519 0.03683384 0.08779743
v -0.03349273 0.02517448 0.09414695
v -0.03778936 -0.01385413 0.09489891
v -0.03815134 -0.01067379 0.09515006
v -0.03966244 -0.00080902 0.09472707
v -0.03963416 -0.00611251 0.09412723
v -0.03966970 0.00575515 0.09430666
v -0.03860868 0.01218469 0.09420947
v -0.03918602 -0.00428392 0.09506722
v -0.03819769 0.01068817 0.09505180
v -0.03795290 0.01316396 0.09478900
v -0.03895856 0.00558592 0.09513603
v -0.03672547 0.01713076 0.09472860
v -0.03839346 0.00003972 0.09549218
v -0.03651949 0.01431835 0.09530664
v -0.03512902 0.01997255 0.09503044
v -0.03546724 0.02115728 0.09422165
v -0.03331256 0.02471499 0.09477856
v -0.03333334 0.02265915 0.09525653
v -0.03111165 0.02627150 0.09528011
v -0.03052424 0.02857230 0.09480715
v -0.02756884 0.03078492 0.09521887
v -0.02801329 0.03154215 0.09475234
v -0.03213481 0.02736511 0.09402234
v -0.02985119 0.03010658 0.09417321
v -0.02613472 0.03393182 0.09405692
v -0.01970569 0.03837973 0.09417421
v -0.01622292 0.04023242 0.09408402
v -0.02286406 0.03629328 0.09425613
v -0.01083888 0.04211796 0.09418890
v -0.01446211 0.04041502 0.09473850
v -0.01996291 0.03765621 0.09483834
v -0.02465170 0.03451391 0.09477174
v -0.00476618 0.04404405 0.09341656
v -0.00646221 0.04303779 0.09428200
v -0.00311784 0.04337551 0.09420342
v -0.00884435 0.04155927 0.09482843
v -0.02058619 0.03649234 0.09518568
v -0.00614958 0.04197852 0.09468405
v -0.01502272 0.03888939 0.09527168
v -0.02381403 0.03381397 0.09531882
v -0.01852798 0.03631102 0.09543769
v -0.03021981 0.02606511 0.09548816
v -0.02284387 0.03259976 0.09552079
v -0.01321456 0.03834791 0.09532208
v -0.03461523 0.01780187 0.09542631
v -0.02900926 0.02537790 0.09559246
v -0.00661510 0.04034596 0.09481539
v -0.03757433 0.00775997 0.09552104
v -0.03715789 0.00314302 0.09571760
v 0.00188933 0.04364835 0.09372139
v -0.03810413 -0.00604988 0.09546270
v 0.03328568 -0.02909311 0.09185426
v 0.02791494 -0.03450071 0.09179399
v 0.03517725 -0.02625543 0.09201128
v 0.03097717 -0.03133173 0.09198563
v 0.03715421 -0.02335362 0.09192092
v 0.03903216 -0.02036770 0.09172134
v 0.04088549 -0.01683303 0.09165946
v 0.04234164 -0.01274778 0.09171510
v 0.03130269 -0.02960511 0.09247642
v 0.03901055 -0.01821059 0.09221206
v 0.02727953 -0.03349513 0.09257196
v 0.04098210 -0.01175008 0.09236706
v 0.01738863 -0.03994397 0.09289324
v 0.01576043 -0.04105945 0.09273967
v 0.04392721 -0.00544106 0.09181860
v 0.00552986 -0.04811740 0.08719305
v 0.03942121 0.02639708 0.08899136
v 0.03833898 0.02863140 0.08789737
v 0.03779845 0.02845790 0.08925948
v 0.03639655 0.03113703 0.08784619
v 0.03417074 0.03310743 0.08887266
v 0.03630589 0.03006117 0.08941591
v 0.03368115 0.03403208 0.08783223
v 0.03216510 0.03455267 0.08931766
v -0.02565176 0.00425322 0.09695132
v -0.04298065 -0.01187876 0.08777411
v -0.04357785 -0.00807517 0.08783234
v -0.04246222 -0.01406802 0.08770781
v -0.04407302 -0.00392959 0.08772661
v -0.04101194 -0.01830749 0.08771482
v -0.04101342 -0.01862912 0.08684244
v -0.04436382 -0.00001284 0.08721374
v -0.04416701 0.00193243 0.08766953
v -0.04387090 0.00598387 0.08688947
v -0.04092787 0.01750135 0.08771834
v -0.04179576 0.01535253 0.08754638
v -0.03971010 0.02033780 0.08780821
v -0.04240746 0.01322854 0.08705554
v -0.04252379 0.01260865 0.08769858
v -0.04302588 0.01104620 0.08696998
v -0.04358209 0.00792431 0.08757204
v -0.03734610 0.02532319 0.08764252
v -0.03547846 0.02834324 0.08765619
v -0.03120354 0.03367204 0.08784832
v -0.01482157 0.04426571 0.08900750
v -0.01682785 0.04412901 0.08771466
v -0.01798205 0.04281058 0.08917694
v -0.02113619 0.04120324 0.08901665
v -0.02415140 0.03917684 0.08925042
v -0.02759461 0.03730370 0.08791698
v -0.02937214 0.03557491 0.08793364
v -0.00949428 0.04584698 0.08893520
v -0.00545148 0.04645977 0.08911563
v -0.01007551 0.04612262 0.08772065
v 0.01584919 -0.04527637 0.08890598
v 0.02476710 0.03988383 0.08930626
v 0.03930651 0.02557297 0.08949881
v 0.01544088 0.04451831 0.08905241
v 0.02736867 -0.03943107 0.08891266
v 0.04884993 -0.00715957 0.08964338
v 0.04976440 -0.00922319 0.08915278
v 0.04979655 0.00784876 0.08915954
v 0.05067629 -0.00598128 0.08823922
v 0.01980592 -0.03989358 0.09188481
v 0.02273529 -0.03824627 0.09185140
v 0.02505819 -0.03665745 0.09184607
v -0.02655418 -0.04876886 0.09404806
v -0.02748144 -0.04813041 0.09297146
v -0.02904599 -0.04663453 0.09419174
v -0.02463768 -0.05013711 0.09231918
v -0.02324481 -0.05081929 0.09389022
v -0.02072479 -0.05163212 0.09375026
v -0.02494267 -0.04888979 0.09486854
v -0.01652689 -0.04912864 0.09658008
v -0.02757297 -0.04780619 0.09248519
v -0.02899959 -0.04643900 0.09309004
v -0.00159222 0.04434617 0.09352278
v -0.02782144 -0.04071359 0.09716171
v -0.02928305 -0.04349421 0.09622763
v -0.02506783 -0.03726181 0.09737436
v -0.02958978 -0.04555881 0.09490125
v -0.02168049 -0.03409387 0.09738434
v 0.02653221 -0.04034990 0.08792101
v 0.02128713 -0.04335473 0.08769760
v 0.02275159 -0.04258333 0.08705094
v 0.02671817 -0.04026850 0.08706479
v 0.02988786 -0.03800675 0.08756255
v 0.03096276 -0.03642350 0.08913449
v 0.03518886 -0.03232438 0.08917225
v 0.03720330 -0.03081195 0.08741004
v 0.03878583 -0.02854939 0.08776197
v 0.02368112 -0.04159471 0.08890277
v -0.03904201 -0.01010783 0.09437609
v 0.01518307 0.04503276 0.08749459
v 0.00991291 0.04638945 0.08745652
v 0.01981075 0.04339146 0.08773865
v 0.00271973 0.04738189 0.08769986
v -0.00191000 0.04736688 0.08772162
v -0.02586177 0.03886620 0.08778253
v -0.02754897 0.03723988 0.08706521
v -0.02892155 0.03601259 0.08706142
v -0.03031822 0.03469883 0.08711041
v -0.03282855 0.03189424 0.08757994
v -0.02423836 0.04006072 0.08767741
v -0.02266796 0.04110302 0.08774850
v -0.02002215 0.04259427 0.08773890
v -0.01286147 0.04529883 0.08736499
v -0.04426962 -0.00014589 0.08684608
v -0.04378392 -0.00802951 0.08688786
v -0.04300536 -0.01245587 0.08691346
v -0.04230986 -0.01480205 0.08690001
v -0.00786386 0.04645199 0.08729214
v -0.00628208 0.04693284 0.08784066
v -0.01418424 0.04500298 0.08797683
v 0.03290260 -0.03547381 0.08742411
v 0.03517167 -0.03323620 0.08726542
v 0.01954631 -0.04421221 0.08703103
v -0.03820028 0.02363924 0.08692025
v -0.04178128 0.01517243 0.08698392
v -0.03601674 0.02749899 0.08703629
v -0.04097234 0.01776886 0.08698541
v 0.01575591 -0.04572179 0.08714563
v 0.01076312 -0.04718434 0.08745415
v 0.00691704 -0.04788540 0.08685320
v 0.00922225 -0.04731813 0.08835606
v 0.01152348 -0.04666359 0.08874233
v 0.01532180 -0.04581588 0.08792637
v 0.01858389 -0.04413337 0.08898360
v 0.03461235 0.02697836 0.09173041
v 0.03190698 0.02975596 0.09185003
v 0.03764523 0.02239719 0.09172917
v 0.02825824 0.03349174 0.09176917
v 0.02110590 0.03859726 0.09176144
v 0.00797441 0.04318330 0.09287476
v 0.00314373 0.04429024 0.09299268
v 0.00148583 0.04475358 0.09261880
v 0.01315786 0.04138563 0.09265906
v 0.01748521 0.03951226 0.09260565
v 0.02355127 0.03592079 0.09257652
v 0.00910610 0.04186569 0.09326075
v 0.01350877 0.04024977 0.09309609
v 0.03436576 0.02554174 0.09229313
v 0.04073262 0.01644157 0.09176357
v 0.04031087 0.01473119 0.09223705
v 0.04280836 0.01100386 0.09171305
v -0.01973857 0.00338464 0.09722443
v -0.03442435 0.02977276 0.08700486
v -0.03882234 0.02263264 0.08752323
v -0.03972540 0.02070353 0.08700801
v -0.03140538 0.03339096 0.08699594
v -0.01294417 -0.03780752 0.09735415
v -0.01377132 -0.04487007 0.09733067
v -0.01167449 -0.01236703 0.09700024
v 0.01984197 -0.03728227 0.09318530
v 0.02383367 -0.03482725 0.09300002
v 0.02987716 -0.02868401 0.09292532
v 0.03449826 -0.01991306 0.09302180
v 0.03380142 -0.02555239 0.09266193
v 0.03750943 -0.01381000 0.09288650
v 0.03922290 -0.00462093 0.09288491
v 0.04197082 -0.00546466 0.09247197
v 0.03715463 -0.01923772 0.09261777
v 0.03822336 0.00981060 0.09287686
v 0.03563085 0.01420442 0.09297453
v 0.04110880 0.00570075 0.09259894
v 0.03835255 0.01564424 0.09264943
v 0.03276634 0.02170798 0.09298306
v 0.02856556 0.02591575 0.09307797
v 0.02880557 0.02869988 0.09292745
v 0.02485990 0.03298287 0.09297354
v 0.02183060 0.03295187 0.09321429
v 0.02141353 0.03578545 0.09305729
v 0.01781854 0.03801305 0.09306174
v 0.03461173 0.02307272 0.09267162
v -0.02307282 -0.03557194 0.09739001
v 0.00102894 0.04296377 0.09398177
v 0.04265358 0.00361116 0.09229803
v 0.04199538 0.00945879 0.09219917
v -0.01454992 -0.04731733 0.09723236
v 0.03110938 0.02868200 0.09252571
v 0.02850763 0.03136346 0.09257410
v -0.01849522 -0.00271095 0.09730503
v -0.02391298 -0.00199825 0.09718569
v -0.02755619 0.00376457 0.09679478
v 0.03770178 0.02043012 0.09222093
v 0.04399242 0.00341101 0.09185476
v 0.04383417 -0.00893424 0.09156308
v 0.02234945 -0.03735197 0.09262364
v -0.02543212 -0.04714877 0.09571848
v -0.01908834 -0.05010956 0.09580811
v -0.02834819 -0.04530787 0.09571831
v -0.01697115 -0.05025042 0.09586492
v -0.01940994 -0.05129394 0.09479568
v -0.01803177 -0.05104333 0.09472985
v -0.01505810 -0.04884046 0.09652410
v -0.02300103 -0.05097582 0.09242673
v -0.02611491 -0.04926945 0.09232321
v 0.05057045 0.00924410 -0.00814087
v 0.05047188 -0.00953985 -0.00830788
v 0.05071988 -0.01031360 -0.00829226
f 1 42 53
f 53 42 316
f 316 42 43
f 297 398 299
f 40 11 12
f 12 11 4
f 154 295 155
f 155 126 154
f 154 126 295
f 295 126 129
f 251 253 327
f 232 398 233
f 371 299 398
f 375 371 398
f 172 179 174
f 174 179 177
f 1 239 237
f 1 168 242
f 242 239 1
f 11 40 310
f 6 4 11
f 6 3 4
f 9 13 16
f 127 329 125
f 127 330 329
f 125 329 328
f 328 327 125
f 251 327 328
f 328 248 251
f 328 329 245
f 316 43 317
f 43 332 317
f 125 327 110
f 110 327 253
f 253 106 110
f 137 133 138
f 319 54 139
f 146 418 419
f 183 186 185
f 138 133 369
f 22 23 419
f 22 235 291
f 291 235 412
f 235 342 412
f 303 336 304
f 374 375 398
f 378 371 376
f 371 375 376
f 297 217 181
f 186 183 182
f 249 300 247
f 245 329 247
f 329 330 247
f 170 312 245
f 245 247 170
f 171 312 170
f 155 295 288
f 288 300 155
f 155 300 250
f 250 300 249
f 250 126 155
f 249 247 250
f 250 247 330
f 250 127 126
f 330 127 250
f 410 300 292
f 292 408 410
f 401 386 365
f 370 372 401
f 401 301 370
f 378 380 379
f 370 371 379
f 379 371 378
f 210 244 214
f 1 237 7
f 7 3 1
f 4 3 7
f 12 4 7
f 7 237 12
f 11 310 309
f 309 16 13
f 1 3 2
f 2 3 9
f 5 6 11
f 419 23 30
f 30 33 419
f 295 129 294
f 117 109 115
f 246 328 245
f 248 328 246
f 245 312 246
f 246 173 248
f 312 173 246
f 1 53 313
f 313 315 1
f 163 53 316
f 163 314 53
f 167 317 332
f 316 317 167
f 273 271 332
f 104 110 106
f 104 92 98
f 106 92 104
f 107 339 134
f 134 137 107
f 133 137 366
f 366 369 133
f 366 134 339
f 137 134 366
f 93 106 107
f 93 92 106
f 54 324 140
f 45 43 42
f 323 54 319
f 323 324 54
f 138 139 141
f 141 139 54
f 44 42 1
f 44 45 42
f 36 149 419
f 419 149 144
f 147 144 121
f 121 144 149
f 148 69 70
f 419 144 145
f 177 182 178
f 319 139 320
f 262 366 339
f 136 106 253
f 21 22 291
f 23 22 21
f 291 415 21
f 21 415 23
f 343 342 235
f 343 22 419
f 235 22 343
f 346 342 341
f 346 347 274
f 303 347 346
f 341 336 346
f 336 303 346
f 414 233 398
f 414 347 233
f 274 347 414
f 409 408 292
f 292 412 409
f 302 303 304
f 304 305 302
f 311 347 303
f 311 302 278
f 303 302 311
f 233 347 311
f 232 233 311
f 311 283 232
f 373 398 232
f 373 374 398
f 232 283 284
f 284 311 278
f 283 311 284
f 153 40 19
f 153 310 40
f 308 309 153
f 153 309 310
f 362 363 38
f 364 397 38
f 38 363 364
f 364 363 397
f 297 181 219
f 171 297 219
f 297 299 402
f 365 244 402
f 402 401 365
f 299 401 402
f 186 182 213
f 213 210 186
f 252 253 251
f 252 260 253
f 174 260 252
f 172 174 252
f 251 248 252
f 252 248 172
f 298 247 300
f 298 170 247
f 300 410 298
f 298 297 171
f 171 170 298
f 298 410 408
f 292 300 286
f 300 288 286
f 234 279 405
f 405 281 38
f 405 279 281
f 38 397 405
f 397 396 405
f 405 380 234
f 396 380 405
f 382 401 372
f 382 372 370
f 370 379 382
f 394 401 299
f 301 401 394
f 299 371 394
f 394 371 370
f 370 301 394
f 384 380 396
f 384 379 380
f 384 382 379
f 384 396 397
f 185 186 187
f 186 210 187
f 12 237 15
f 237 18 15
f 15 18 14
f 15 40 12
f 15 14 40
f 236 18 237
f 239 242 240
f 240 242 168
f 164 168 1
f 357 392 358
f 201 202 296
f 296 202 203
f 360 357 356
f 392 357 360
f 11 309 41
f 41 309 13
f 41 5 11
f 41 13 9
f 6 5 41
f 3 6 41
f 287 294 416
f 416 286 287
f 287 286 288
f 287 288 295
f 295 294 287
f 128 127 125
f 126 127 128
f 128 129 126
f 128 117 129
f 98 101 103
f 53 314 159
f 159 313 53
f 314 163 159
f 272 167 332
f 272 271 201
f 332 271 272
f 201 296 272
f 272 296 167
f 331 273 332
f 271 273 333
f 333 326 265
f 333 273 326
f 76 72 78
f 78 72 70
f 82 78 83
f 76 78 82
f 91 137 138
f 265 140 325
f 325 140 324
f 324 267 325
f 43 45 49
f 49 332 43
f 49 331 332
f 273 331 49
f 326 273 49
f 265 326 49
f 318 323 319
f 319 320 318
f 47 45 46
f 45 44 46
f 1 47 46
f 46 44 1
f 131 132 416
f 131 294 129
f 416 294 131
f 289 416 27
f 416 132 27
f 149 36 150
f 150 121 149
f 124 150 152
f 152 150 36
f 419 33 152
f 152 36 419
f 65 66 64
f 51 47 1
f 1 52 51
f 261 262 339
f 339 337 261
f 261 337 367
f 367 169 261
f 261 169 262
f 369 366 322
f 366 262 322
f 254 256 367
f 255 254 340
f 340 254 367
f 340 257 255
f 345 346 274
f 342 346 345
f 411 409 412
f 412 413 411
f 274 414 411
f 413 345 411
f 411 345 274
f 344 412 342
f 344 413 412
f 342 345 344
f 344 345 413
f 16 309 10
f 10 419 1
f 9 16 10
f 10 305 304
f 304 336 10
f 1 2 10
f 10 2 9
f 10 336 341
f 341 342 10
f 10 343 419
f 342 343 10
f 306 302 305
f 305 10 306
f 278 302 306
f 306 307 278
f 407 373 232
f 374 373 407
f 232 284 407
f 375 374 230
f 230 228 375
f 374 407 230
f 377 376 375
f 375 228 377
f 222 153 224
f 224 377 222
f 222 377 228
f 225 226 224
f 171 219 176
f 176 312 171
f 176 219 181
f 176 173 312
f 176 179 172
f 176 181 179
f 172 248 176
f 248 173 176
f 244 210 403
f 210 213 403
f 403 217 297
f 403 402 244
f 297 402 403
f 216 213 182
f 217 403 216
f 216 403 213
f 179 181 216
f 216 181 217
f 177 179 216
f 216 182 177
f 260 258 259
f 253 260 259
f 255 257 259
f 259 258 255
f 259 136 253
f 259 257 106
f 106 136 259
f 175 258 260
f 175 260 174
f 175 178 255
f 255 258 175
f 175 174 177
f 177 178 175
f 290 416 289
f 290 286 416
f 289 415 290
f 290 415 291
f 292 286 290
f 291 412 290
f 290 412 292
f 18 282 17
f 40 14 17
f 14 18 17
f 19 40 17
f 386 401 383
f 401 382 383
f 393 386 385
f 386 383 385
f 385 383 382
f 382 384 385
f 397 363 385
f 385 384 397
f 211 210 214
f 214 244 211
f 211 244 365
f 365 209 211
f 212 209 365
f 198 195 199
f 238 236 237
f 238 237 239
f 239 240 238
f 238 240 241
f 18 236 37
f 38 281 37
f 281 282 37
f 37 282 18
f 350 362 38
f 166 240 168
f 160 164 161
f 1 315 161
f 161 164 1
f 352 357 358
f 218 296 203
f 349 400 399
f 9 3 8
f 8 41 9
f 3 41 8
f 125 110 113
f 113 128 125
f 108 103 109
f 108 104 98
f 98 103 108
f 162 159 163
f 162 296 355
f 167 296 162
f 162 163 316
f 316 167 162
f 79 78 70
f 83 78 79
f 92 93 89
f 93 82 89
f 89 82 83
f 83 95 89
f 98 92 89
f 89 95 98
f 137 91 94
f 107 137 94
f 94 93 107
f 87 82 93
f 93 94 87
f 87 94 91
f 76 82 87
f 87 91 90
f 48 49 45
f 48 45 47
f 47 51 48
f 48 51 52
f 130 117 115
f 115 120 130
f 129 117 130
f 130 120 132
f 130 131 129
f 132 131 130
f 147 121 151
f 151 116 147
f 119 120 115
f 115 116 119
f 132 120 119
f 119 35 132
f 61 64 66
f 417 61 66
f 64 61 417
f 148 64 417
f 69 148 417
f 418 146 417
f 1 419 417
f 419 418 417
f 56 52 1
f 65 64 63
f 63 64 148
f 63 66 65
f 63 68 66
f 70 72 62
f 72 68 62
f 62 148 70
f 62 63 148
f 68 63 62
f 74 72 76
f 74 68 72
f 66 68 71
f 369 322 321
f 321 320 139
f 321 139 138
f 138 369 321
f 262 169 191
f 191 322 262
f 191 169 185
f 255 178 180
f 180 254 255
f 180 182 183
f 180 178 182
f 180 183 185
f 367 337 368
f 368 340 367
f 106 257 338
f 257 340 338
f 409 411 293
f 293 414 398
f 293 411 414
f 293 398 297
f 297 298 293
f 408 409 293
f 293 298 408
f 334 306 10
f 308 307 334
f 307 306 334
f 278 307 285
f 285 284 278
f 285 407 284
f 228 230 223
f 223 307 308
f 224 226 229
f 229 377 224
f 226 227 229
f 234 380 231
f 231 229 227
f 231 380 378
f 280 279 234
f 226 225 280
f 19 17 280
f 280 17 282
f 281 279 280
f 280 282 281
f 280 225 224
f 280 153 19
f 224 153 280
f 197 198 202
f 197 202 201
f 201 271 197
f 197 195 198
f 209 212 207
f 198 199 207
f 265 325 266
f 266 325 267
f 208 211 209
f 210 211 208
f 194 266 267
f 194 199 195
f 195 266 194
f 236 238 276
f 276 37 236
f 38 37 276
f 276 350 38
f 361 399 393
f 363 362 404
f 362 350 404
f 350 361 404
f 404 361 393
f 393 385 404
f 404 385 363
f 243 166 358
f 240 166 243
f 243 349 241
f 241 240 243
f 156 161 315
f 160 161 156
f 356 357 156
f 156 357 160
f 313 159 157
f 315 313 157
f 157 156 315
f 277 156 157
f 165 164 160
f 358 166 165
f 168 164 165
f 165 166 168
f 359 360 356
f 355 296 354
f 296 218 354
f 354 162 355
f 395 218 203
f 203 206 395
f 392 360 395
f 360 359 395
f 395 359 218
f 206 212 215
f 215 390 206
f 215 387 390
f 386 387 215
f 365 386 215
f 215 212 365
f 388 386 393
f 388 387 386
f 390 387 388
f 393 399 388
f 117 128 114
f 128 113 114
f 109 117 114
f 159 162 158
f 158 157 159
f 277 157 158
f 162 354 158
f 147 116 102
f 102 116 115
f 115 109 102
f 81 84 70
f 70 69 81
f 69 417 81
f 81 417 146
f 97 103 101
f 97 101 98
f 98 95 97
f 83 79 85
f 85 88 83
f 85 84 88
f 70 84 85
f 85 79 70
f 143 48 52
f 143 141 54
f 28 27 132
f 132 35 28
f 289 27 28
f 28 415 289
f 35 119 122
f 67 417 66
f 58 417 67
f 1 417 57
f 57 56 1
f 57 417 58
f 58 56 57
f 59 56 58
f 59 67 66
f 58 67 59
f 90 91 111
f 111 86 90
f 111 91 138
f 56 59 123
f 90 86 80
f 80 86 77
f 76 87 80
f 80 87 90
f 68 74 73
f 73 71 68
f 73 74 76
f 76 80 73
f 77 71 73
f 73 80 77
f 263 321 322
f 263 270 321
f 256 254 184
f 254 180 184
f 184 180 185
f 367 256 184
f 185 169 184
f 184 169 367
f 340 368 135
f 107 106 135
f 135 368 337
f 106 338 135
f 135 338 340
f 135 339 107
f 135 337 339
f 335 10 309
f 335 334 10
f 335 309 308
f 308 334 335
f 220 222 228
f 228 223 220
f 220 223 308
f 308 153 220
f 153 222 220
f 307 223 221
f 221 223 230
f 221 285 307
f 221 230 407
f 407 285 221
f 376 377 381
f 377 229 381
f 229 231 381
f 378 376 381
f 381 231 378
f 39 227 226
f 226 280 39
f 39 231 227
f 39 280 234
f 271 333 264
f 264 197 271
f 195 197 264
f 264 266 195
f 264 333 265
f 265 266 264
f 204 212 206
f 204 207 212
f 203 202 204
f 204 206 203
f 202 198 204
f 198 207 204
f 185 187 188
f 188 191 185
f 199 194 196
f 269 318 320
f 320 321 269
f 321 270 269
f 209 207 205
f 205 208 209
f 205 207 199
f 199 196 200
f 200 205 199
f 208 205 200
f 189 187 210
f 210 208 189
f 189 188 187
f 190 188 189
f 189 200 190
f 208 200 189
f 349 399 348
f 399 361 348
f 241 349 348
f 348 238 241
f 348 361 350
f 348 276 238
f 350 276 348
f 351 243 358
f 349 243 351
f 358 400 351
f 351 400 349
f 275 165 160
f 160 357 275
f 357 352 275
f 275 352 358
f 358 165 275
f 353 359 356
f 218 359 353
f 353 354 218
f 356 156 353
f 353 156 277
f 277 158 353
f 353 158 354
f 389 399 400
f 389 388 399
f 389 400 358
f 390 388 389
f 112 114 113
f 110 104 112
f 112 113 110
f 104 108 112
f 112 108 109
f 109 114 112
f 147 102 105
f 105 102 84
f 96 97 95
f 83 88 96
f 96 95 83
f 88 84 96
f 84 97 96
f 84 102 100
f 100 97 84
f 103 97 100
f 109 103 100
f 100 102 109
f 49 48 50
f 48 143 50
f 50 143 54
f 54 140 50
f 50 140 265
f 265 49 50
f 23 415 20
f 20 24 23
f 415 24 20
f 415 28 25
f 25 24 415
f 118 150 124
f 124 122 118
f 121 150 118
f 118 151 121
f 116 151 118
f 118 119 116
f 118 122 119
f 138 141 142
f 142 111 138
f 86 111 142
f 77 86 60
f 86 142 60
f 234 231 406
f 406 39 234
f 231 39 406
f 191 188 192
f 192 188 190
f 322 191 192
f 192 263 322
f 192 190 270
f 270 263 192
f 268 194 267
f 268 196 194
f 268 267 324
f 324 323 268
f 323 318 268
f 190 200 193
f 270 190 193
f 193 269 270
f 318 269 193
f 193 268 318
f 193 200 196
f 196 268 193
f 206 390 391
f 390 389 391
f 391 395 206
f 392 395 391
f 358 392 391
f 391 389 358
f 147 105 99
f 99 105 84
f 99 144 147
f 99 145 144
f 84 81 99
f 99 81 146
f 99 146 419
f 419 145 99
f 32 152 33
f 33 31 32
f 32 31 152
f 33 30 26
f 26 31 33
f 24 31 26
f 26 30 23
f 23 24 26
f 124 152 34
f 152 31 34
f 34 122 124
f 35 122 34
f 75 123 59
f 75 60 123
f 77 60 75
f 75 71 77
f 66 71 75
f 75 59 66
f 55 60 142
f 141 143 55
f 55 142 141
f 123 60 55
f 55 143 52
f 52 56 55
f 56 123 55
f 29 31 24
f 29 34 31
f 29 25 28
f 24 25 29
f 29 28 35
f 35 34 29

