# https://github.com/mikedh/trimesh
v 0.05255112 -0.01014752 -0.08635480
v 0.05251414 0.00559624 -0.08570489
v 0.05247610 0.00941611 -0.08708889
v 0.05239783 -0.01010584 -0.08778102
v 0.05220165 0.00968170 -0.08851617
v 0.05184591 0.00935528 -0.08965129
v 0.05235258 -0.01074105 -0.08587931
v -0.03868675 -0.03618143 -0.09573377
v -0.04143754 -0.03290810 -0.09573667
v -0.04009699 -0.03457270 -0.09721791
v -0.04286211 -0.03116353 -0.09629336
v -0.04194062 -0.03223108 -0.09735851
v -0.03622787 -0.03862386 -0.09728881
v -0.03613868 -0.03872272 -0.09571741
v -0.04445632 -0.02884718 -0.09569615
v -0.04631586 -0.02592323 -0.09573997
v -0.03465427 -0.03998104 -0.09727472
v -0.03171391 -0.04232310 -0.09570254
v -0.03182617 -0.04227020 -0.09719735
v -0.02985725 -0.04355366 -0.09726739
v -0.02616734 -0.04591476 -0.09724105
v 0.00874296 0.05080618 -0.09640580
v 0.00294886 0.05176198 -0.09567001
v -0.00108423 0.05207655 -0.09661133
v -0.00174290 0.05197882 -0.09728459
v -0.01011015 0.05140634 -0.09708148
v 0.01245528 0.04977084 -0.09566036
v 0.00839706 -0.05107723 -0.09719902
v 0.00409908 -0.05172003 -0.09712064
v 0.01385029 -0.04981041 -0.09648599
v -0.00155826 -0.05207655 -0.09652116
v 0.01728720 -0.04859730 -0.09639689
v 0.01918965 -0.04762997 -0.09565319
v 0.02162440 -0.04659789 -0.09646606
v 0.02289822 -0.04576067 -0.09562451
v 0.02657771 -0.04341088 -0.09644895
v 0.02624357 -0.04357627 -0.09706387
v 0.02111164 -0.04669204 -0.09722207
v 0.01754487 -0.04834247 -0.09716918
v 0.01326752 -0.04980645 -0.09719383
v 0.02805853 -0.04203388 -0.09719364
v -0.03812830 0.03600072 -0.09735795
v 0.00849624 -0.05052205 -0.09723832
v -0.01078598 -0.05096960 -0.09724179
v -0.01413848 -0.05027635 -0.09726281
v 0.04094090 -0.02361589 -0.09718747
v 0.03909869 -0.02882277 -0.09715476
v 0.04223330 0.02042716 -0.09718038
v 0.03775519 0.03074754 -0.09716070
v 0.04073075 0.02509175 -0.09717463
v 0.02983267 0.03967563 -0.09724275
v 0.01968389 0.04688936 -0.09723375
v 0.02534470 0.04352847 -0.09722221
v 0.01616917 0.04851516 -0.09722437
v 0.01228169 0.04987461 -0.09724647
v 0.00610549 0.05130385 -0.09729995
v -0.01200388 0.05074391 -0.09727165
v -0.01718663 0.04929870 -0.09734100
v -0.01978729 0.04824002 -0.09734936
v -0.03131524 0.04194998 -0.09731730
v -0.03500225 0.03896921 -0.09733139
v -0.04979705 -0.01840374 -0.09736982
v -0.05279360 -0.00127367 -0.09737104
v -0.05172049 -0.01220244 -0.09731721
v -0.02193006 -0.04755287 -0.09728128
v -0.04440030 -0.02892964 -0.09732529
v -0.04806032 -0.02272791 -0.09729679
v 0.04258680 -0.02037458 -0.09710513
v -0.04761117 0.02282992 -0.09730080
v -0.04936071 0.01920965 -0.09729584
v -0.05255968 0.00877538 -0.09729252
v 0.04323871 0.01675855 -0.09708798
v 0.03549256 -0.03469495 -0.09711468
v -0.05301245 -0.00624864 -0.09728491
v 0.04406644 0.01150114 -0.09696043
v 0.04099880 -0.02558488 -0.09708286
v 0.04451472 -0.01297726 -0.09684672
v -0.00734125 -0.05166138 -0.09715845
v -0.05339380 -0.00052822 -0.09720855
v 0.04551749 0.01168024 -0.09653773
v 0.04457256 0.01477292 -0.09675086
v 0.04351215 0.01782656 -0.09691559
v -0.00649164 0.05187015 -0.09713561
v -0.02050195 -0.04846234 -0.09716344
v 0.04242737 -0.02241747 -0.09691773
v -0.05159984 -0.01360130 -0.09719486
v 0.03132576 0.03878358 -0.09702265
v 0.00250649 0.05183006 -0.09717844
v 0.02230889 0.04551917 -0.09712329
v -0.04975823 -0.01902205 -0.09723393
v -0.05264341 -0.00885371 -0.09716068
v -0.05347858 -0.00068377 -0.09661741
v -0.05257970 0.00870607 -0.09569501
v -0.03900072 0.03518193 -0.09630704
v -0.04057550 0.03338274 -0.09722868
v -0.03531633 0.03878500 -0.09623890
v -0.03167972 0.04176823 -0.09657104
v -0.03325788 0.04041433 -0.09568324
v -0.04077735 0.03305578 -0.09571764
v -0.04302937 0.03027631 -0.09636547
v -0.04235726 0.03107109 -0.09738807
v -0.04445894 0.02818007 -0.09733010
v -0.04600982 0.02595101 -0.09727664
v -0.03826512 0.03574780 -0.09571316
v 0.03815907 0.03031452 -0.09648368
v 0.03547130 0.03420629 -0.09626945
v 0.03192272 0.03812759 -0.09558837
v 0.03423886 0.03572599 -0.09696588
v 0.04056002 0.02594710 -0.09701639
v 0.04224895 0.02221369 -0.09695216
v 0.03602351 0.03321733 -0.09714077
v -0.05009297 0.01759211 -0.09611165
v -0.05073761 0.01541324 -0.09739001
v -0.05154122 0.01335186 -0.09616864
v -0.05194546 0.01150000 -0.09729438
v -0.05311206 0.00503051 -0.09716497
v -0.04767221 0.02287180 -0.09587941
v -0.04938972 0.01915498 -0.09572401
v -0.05074595 -0.01633496 -0.09596516
v -0.04933093 -0.01995010 -0.09570505
v -0.04788982 -0.02300588 -0.09574754
v -0.04629314 -0.02600542 -0.09728130
v -0.05287279 -0.00752066 -0.09609258
v 0.02766552 0.04185390 -0.09711603
v 0.02820616 0.04130935 -0.09560332
v 0.02151709 0.04587724 -0.09561019
v 0.01744448 0.04784493 -0.09560230
v 0.01547072 0.04871159 -0.09562744
v -0.01751016 0.04917275 -0.09569469
v -0.01488614 0.05017665 -0.09713197
v -0.01420099 0.05034676 -0.09567965
v -0.02082258 0.04794249 -0.09628039
v -0.02478238 0.04612044 -0.09720872
v -0.01043039 0.05121582 -0.09566272
v -0.02069064 0.04784646 -0.09568693
v -0.00772789 0.05177087 -0.09572641
v 0.03305790 -0.03756554 -0.09561775
v 0.03280998 -0.03806847 -0.09689748
v 0.03501581 -0.03549093 -0.09654119
v 0.03581762 -0.03428441 -0.09563825
v 0.03064888 -0.04008792 -0.09571388
v 0.03747645 -0.03206698 -0.09644158
v 0.03861301 -0.03018197 -0.09702742
v 0.02990088 -0.04079496 -0.09696192
v 0.02698472 -0.04290011 -0.09559188
v -0.05326086 0.00306455 -0.09571785
v -0.05231672 -0.01039173 -0.09570128
v -0.04772802 0.02220934 -0.09571687
v -0.04494858 0.02744626 -0.09571510
v -0.04394213 0.02888446 -0.09569033
v -0.02482863 0.04607693 -0.09568973
v -0.03043678 0.04255220 -0.09568760
v -0.00169962 0.05201407 -0.09568431
v 0.01367754 -0.04975733 -0.09563884
v -0.02005534 -0.04863421 -0.09568093
v -0.01679609 -0.04969556 -0.09566146
v -0.05331323 -0.00292319 -0.09572494
v -0.02787269 0.04436242 -0.09569366
v -0.02714507 -0.04529971 -0.09569169
v -0.00707749 -0.05169998 -0.09567913
v -0.01193352 -0.05082214 -0.09567894
v -0.05187580 0.01180980 -0.09573488
v -0.03701298 0.03713823 -0.09573715
v 0.01005281 -0.05070170 -0.09568820
v 0.00654039 0.05117946 -0.09570626
v -0.05021593 -0.01733009 -0.09574505
v 0.02463686 0.04395905 -0.09571723
v -0.05188184 -0.01258312 -0.09605343
v 0.00004402 -0.05185392 -0.09726344
v -0.01790527 -0.04930133 -0.09727511
v -0.01404079 -0.05047110 -0.09663440
v -0.02329383 -0.04722878 -0.09571966
v 0.00444448 -0.05166832 -0.09565931
v 0.04356450 -0.01844713 -0.09691917
v -0.02832139 0.04404154 -0.09726974
v 0.04886402 0.01002240 -0.09366576
v 0.05046156 0.00964046 -0.09206814
v 0.04774047 0.00901563 -0.09488422
v 0.04767264 -0.00956821 -0.09495060
v 0.04650004 -0.01165898 -0.09583999
v 0.04911389 -0.01049593 -0.09358808
v 0.05078559 -0.01037521 -0.09167288
v 0.04480628 -0.01471408 -0.09662194
v 0.05133994 0.00927926 -0.09068564
v 0.05181359 -0.01039930 -0.08985451
f 92 74 157
f 79 74 92
f 92 157 146
f 146 2 93
f 146 157 2
f 2 128 27
f 99 2 104
f 99 150 2
f 93 2 118
f 74 79 63
f 3 2 1
f 1 2 7
f 7 8 14
f 104 2 98
f 151 158 2
f 2 150 148
f 148 118 2
f 156 7 155
f 155 7 159
f 168 86 119
f 162 118 112
f 112 114 162
f 93 118 162
f 162 114 93
f 181 180 179
f 4 3 1
f 1 7 4
f 127 128 2
f 2 3 127
f 173 160 31
f 164 7 173
f 173 7 160
f 156 171 161
f 171 160 161
f 161 7 156
f 160 7 161
f 18 7 14
f 159 7 18
f 150 99 100
f 2 158 152
f 152 98 2
f 135 151 2
f 158 151 133
f 131 26 130
f 134 131 2
f 134 26 131
f 23 153 2
f 24 153 23
f 118 148 149
f 149 117 118
f 149 148 150
f 103 117 149
f 150 100 149
f 149 100 103
f 123 157 74
f 101 56 12
f 172 155 159
f 164 30 154
f 33 7 154
f 154 7 164
f 33 154 32
f 32 154 30
f 174 180 181
f 180 77 80
f 71 63 79
f 93 114 71
f 114 115 71
f 113 114 112
f 113 115 114
f 101 12 113
f 63 71 113
f 113 71 115
f 3 4 5
f 6 109 5
f 177 109 6
f 177 182 181
f 6 5 185
f 185 5 4
f 126 127 3
f 147 120 7
f 2 157 147
f 147 7 2
f 157 123 147
f 147 168 119
f 7 120 15
f 15 9 8
f 8 7 15
f 15 11 9
f 60 42 61
f 98 152 97
f 60 61 97
f 97 152 158
f 2 131 129
f 129 135 2
f 131 130 129
f 59 42 60
f 101 42 59
f 58 56 59
f 59 56 101
f 151 135 132
f 132 133 151
f 132 59 133
f 135 129 132
f 58 59 132
f 132 130 58
f 132 129 130
f 54 27 128
f 128 127 54
f 82 72 48
f 2 153 136
f 136 134 2
f 136 153 24
f 24 83 136
f 26 134 136
f 136 83 26
f 2 27 165
f 165 23 2
f 165 27 22
f 22 56 165
f 56 23 165
f 25 83 24
f 25 56 58
f 86 168 91
f 91 123 74
f 168 147 91
f 91 147 123
f 156 155 84
f 155 172 84
f 169 12 56
f 78 160 171
f 171 44 78
f 31 160 78
f 78 169 31
f 44 169 78
f 9 11 10
f 11 12 10
f 8 9 10
f 46 41 38
f 38 169 56
f 140 7 137
f 7 141 137
f 41 73 138
f 138 137 141
f 182 185 76
f 183 77 180
f 180 174 183
f 183 174 77
f 77 174 68
f 46 48 68
f 68 48 72
f 68 76 46
f 75 80 77
f 77 68 75
f 75 68 72
f 81 72 82
f 176 80 81
f 81 75 72
f 80 75 81
f 178 80 176
f 181 179 178
f 178 179 180
f 180 80 178
f 178 177 181
f 176 177 178
f 116 71 79
f 116 79 92
f 92 146 116
f 116 146 93
f 93 71 116
f 101 113 69
f 69 117 103
f 184 177 6
f 182 177 184
f 6 185 184
f 184 185 182
f 109 177 110
f 82 48 110
f 110 177 176
f 110 81 82
f 176 81 110
f 108 87 107
f 125 3 107
f 107 87 125
f 119 120 166
f 166 147 119
f 120 147 166
f 99 94 95
f 95 100 99
f 101 100 95
f 95 42 101
f 95 94 42
f 104 98 163
f 163 99 104
f 163 94 99
f 98 97 96
f 96 97 61
f 96 163 98
f 96 61 42
f 42 94 96
f 94 163 96
f 175 59 60
f 133 59 175
f 158 133 175
f 60 97 175
f 175 97 158
f 55 56 22
f 22 27 55
f 27 54 55
f 127 126 52
f 52 54 127
f 56 55 52
f 52 55 54
f 87 108 111
f 88 25 24
f 56 25 88
f 24 23 88
f 88 23 56
f 57 25 58
f 83 25 57
f 26 83 57
f 58 130 57
f 57 130 26
f 12 169 170
f 170 171 156
f 156 84 170
f 29 173 31
f 31 169 29
f 119 86 90
f 90 120 119
f 90 67 120
f 16 15 120
f 11 15 66
f 66 12 11
f 13 12 20
f 13 10 12
f 14 8 13
f 8 10 13
f 145 36 141
f 145 141 7
f 40 38 39
f 39 30 40
f 39 32 30
f 43 38 40
f 169 38 43
f 37 38 41
f 33 32 34
f 32 39 34
f 34 39 38
f 34 37 36
f 38 37 34
f 141 36 144
f 144 138 141
f 41 138 144
f 144 37 41
f 36 37 144
f 140 137 139
f 137 138 139
f 139 138 73
f 73 142 139
f 139 7 140
f 139 142 7
f 85 174 181
f 181 182 85
f 182 76 85
f 85 68 174
f 76 68 85
f 143 4 7
f 7 142 143
f 143 185 4
f 143 76 185
f 143 142 73
f 102 69 103
f 101 69 102
f 103 100 102
f 102 100 101
f 70 113 112
f 70 69 113
f 117 69 70
f 112 118 70
f 118 117 70
f 167 126 3
f 3 125 167
f 56 52 51
f 87 111 51
f 51 48 46
f 46 38 51
f 51 38 56
f 3 5 105
f 21 170 84
f 159 20 21
f 21 172 159
f 21 84 172
f 45 169 44
f 45 170 169
f 45 44 171
f 171 170 45
f 62 90 86
f 67 90 62
f 63 113 62
f 62 113 12
f 12 66 62
f 62 66 67
f 120 67 121
f 121 16 120
f 67 66 122
f 122 121 67
f 16 121 122
f 15 16 122
f 122 66 15
f 19 20 159
f 159 18 19
f 28 29 169
f 169 43 28
f 28 43 40
f 40 30 28
f 28 30 164
f 164 173 28
f 173 29 28
f 33 34 35
f 35 7 33
f 35 145 7
f 36 145 35
f 35 34 36
f 47 143 73
f 76 143 47
f 46 76 47
f 47 41 46
f 47 73 41
f 89 52 126
f 126 167 89
f 48 51 50
f 109 110 50
f 50 110 48
f 3 105 106
f 107 3 106
f 106 108 107
f 106 111 108
f 65 21 20
f 170 21 65
f 20 12 65
f 12 170 65
f 64 62 86
f 64 91 74
f 86 91 64
f 74 63 64
f 63 62 64
f 17 13 20
f 20 19 17
f 14 13 17
f 17 18 14
f 17 19 18
f 124 167 125
f 124 125 87
f 87 51 124
f 49 51 111
f 49 50 51
f 109 50 49
f 49 5 109
f 49 105 5
f 111 106 49
f 49 106 105
f 53 89 167
f 167 124 53
f 52 89 53
f 53 51 52
f 53 124 51

