# https://github.com/mikedh/trimesh
v -0.05009436 -0.01986368 0.00522833
v -0.05000496 -0.01996446 0.00522833
v -0.05157916 -0.02037836 0.01780084
v -0.05124775 -0.01999675 0.01348368
v -0.05132843 -0.01986368 0.01325710
v -0.04700265 -0.01986368 0.00522833
v -0.04947732 -0.02053492 0.00522833
v -0.05064816 -0.02067485 0.01348368
v -0.05164021 -0.02044686 0.01860062
v -0.05163149 -0.01986368 0.01530172
v -0.05148105 -0.01986368 0.01428075
v -0.04834573 -0.01986368 0.01468401
v -0.02988924 -0.02586868 0.00522833
v -0.04940537 -0.02061125 0.00522833
v -0.05073973 -0.02077367 0.01468401
v -0.05167074 -0.02048110 0.01900388
v -0.05016413 -0.02137349 0.01468401
v -0.05195636 -0.02012396 0.01900388
v -0.05216349 -0.01986368 0.01900388
v -0.04852016 -0.01986368 0.01585333
v -0.02988924 -0.02747732 0.01828368
v -0.02988924 -0.02838927 0.00522833
v -0.04909141 -0.01986368 0.01900388
v -0.04933342 -0.02068267 0.00522833
v -0.05025788 -0.02146351 0.01588435
v -0.05140255 -0.02075606 0.01900388
v -0.04879488 -0.02121106 0.00522833
v -0.04937049 -0.02175412 0.01228334
v -0.04946860 -0.02184316 0.01348368
v -0.02988924 -0.02757321 0.01900118
v -0.03060003 -0.02837264 0.00522833
v -0.02988924 -0.02845483 0.00579613
v -0.03045830 -0.02756049 0.01900388
v -0.04922877 -0.02282655 0.01871661
v -0.04925275 -0.02284612 0.01900388
v -0.04947732 -0.02263574 0.01900388
v -0.04985888 -0.02227468 0.01900388
v -0.05047809 -0.02167976 0.01900388
v -0.05076808 -0.02139404 0.01900388
v -0.05107987 -0.02108386 0.01900388
v -0.04826724 -0.02170911 0.00522833
v -0.04819529 -0.02177565 0.00522833
v -0.02988924 -0.02981982 0.01900388
v -0.03060003 -0.02849299 0.00628570
v -0.03165967 -0.02831001 0.00522833
v -0.02988924 -0.02859280 0.00699646
v -0.03033621 -0.02882176 0.00909098
v -0.04819093 -0.02295571 0.01348368
v -0.04899111 -0.02305649 0.01900388
v -0.04811026 -0.02184610 0.00522833
v -0.04808627 -0.02287254 0.01228334
v -0.02988924 -0.02985994 0.01900388
v -0.03060003 -0.02902725 0.01108570
v -0.03180139 -0.02830121 0.00522833
v -0.02988924 -0.02882666 0.00904648
v -0.03060003 -0.02915445 0.01228334
v -0.02988924 -0.02887167 0.00946997
v -0.02988924 -0.02924545 0.01299410
v -0.04789877 -0.02392637 0.01900388
v -0.04863790 -0.02334026 0.01900388
v -0.04686965 -0.02285492 0.00522833
v -0.04746924 -0.02237547 0.00522833
v -0.03060003 -0.02983939 0.01900388
v -0.03180139 -0.02907813 0.01228334
v -0.03246639 -0.02880709 0.01041405
v -0.03285885 -0.02819357 0.00522833
v -0.04765893 -0.02409957 0.01900388
v -0.04658839 -0.02385005 0.01108570
v -0.04678026 -0.02291950 0.00522833
v -0.03180139 -0.02976112 0.01900388
v -0.03300057 -0.02907715 0.01348368
v -0.03300057 -0.02895190 0.01228334
v -0.03300057 -0.02817889 0.00522833
v -0.04723377 -0.02431092 0.01828368
v -0.04729918 -0.02435397 0.01900388
v -0.04619811 -0.02333830 0.00522833
v -0.04611744 -0.02339603 0.00522833
v -0.04576204 -0.02411229 0.00868503
v -0.04587760 -0.02418763 0.00988536
v -0.03300057 -0.02963782 0.01900388
v -0.03348024 -0.02957422 0.01900388
v -0.03386398 -0.02884036 0.01228334
v -0.03362850 -0.02880415 0.01164811
v -0.03405803 -0.02805169 0.00522833
v -0.04635727 -0.02490976 0.01828368
v -0.04642486 -0.02495281 0.01900388
v -0.04677372 -0.02471406 0.01900388
v -0.04541755 -0.02388430 0.00522833
v -0.04566829 -0.02404868 0.00773015
v -0.04499893 -0.02459664 0.00868503
v -0.04575768 -0.02530115 0.01828368
v -0.03420193 -0.02947540 0.01900388
v -0.03427606 -0.02890102 0.01343243
v -0.03472521 -0.02878752 0.01299680
v -0.03420193 -0.02803310 0.00522833
v -0.04582527 -0.02534519 0.01900388
v -0.04488773 -0.02422090 0.00522833
v -0.04481578 -0.02426591 0.00522833
v -0.04469804 -0.02433734 0.00522833
v -0.04419002 -0.02508393 0.00868503
v -0.04432302 -0.02515634 0.00988536
v -0.04499893 -0.02474439 0.00988536
v -0.04530199 -0.02565537 0.01900388
v -0.03467942 -0.02939418 0.01900388
v -0.03496723 -0.02882959 0.01379792
v -0.03538149 -0.02871609 0.01343243
v -0.03540111 -0.02783251 0.00522833
v -0.03525939 -0.02785697 0.00522833
v -0.04373216 -0.02491563 0.00522833
v -0.04352720 -0.02503207 0.00522833
v -0.04324158 -0.02522287 0.00547109
v -0.04372779 -0.02616320 0.01578455
v -0.04419220 -0.02628747 0.01900388
v -0.04499893 -0.02583345 0.01900388
v -0.03540111 -0.02926991 0.01900388
v -0.03581102 -0.02876501 0.01468401
v -0.03609882 -0.02768084 0.00522833
v -0.04290363 -0.02535790 0.00522833
v -0.04318925 -0.02639511 0.01531925
v -0.04327864 -0.02644109 0.01611902
v -0.04359043 -0.02660842 0.01900388
v -0.03591567 -0.02915641 0.01900388
v -0.03598108 -0.02879534 0.01532734
v -0.03622092 -0.02765344 0.00522833
v -0.04268123 -0.02546456 0.00522833
v -0.04235855 -0.02657026 0.01348368
v -0.04296468 -0.02690686 0.01900388
v -0.03662428 -0.02899887 0.01900388
v -0.03702328 -0.02890102 0.01900388
v -0.03656105 -0.02869847 0.01578994
v -0.03660029 -0.02857910 0.01468401
v -0.03660029 -0.02845483 0.01348368
v -0.03682051 -0.02750667 0.00522833
v -0.04198571 -0.02639413 0.01053004
v -0.04220374 -0.02650176 0.01228334
v -0.04138612 -0.02603111 0.00522833
v -0.04259838 -0.02707320 0.01900388
v -0.04139920 -0.02683445 0.01228334
v -0.04139920 -0.02696557 0.01348368
v -0.03731326 -0.02882861 0.01900388
v -0.03789105 -0.02867792 0.01900388
v -0.03780166 -0.02837949 0.01588435
v -0.03780166 -0.02812997 0.01348368
v -0.03780166 -0.02800374 0.01228334
v -0.03770790 -0.02726890 0.00522833
v -0.04060556 -0.02633346 0.00522833
v -0.04164776 -0.02746460 0.01900388
v -0.04020002 -0.02726009 0.01228334
v -0.04083668 -0.02761333 0.01755808
v -0.04140792 -0.02755853 0.01900388
v -0.04094351 -0.02765344 0.01828368
v -0.03900084 -0.02836481 0.01900388
v -0.03857567 -0.02765638 0.01108570
v -0.03844922 -0.02761528 0.01035471
v -0.03780166 -0.02724248 0.00522833
v -0.04001687 -0.02653307 0.00522833
v -0.03965494 -0.02761724 0.01392065
v -0.04020002 -0.02798418 0.01900388
v -0.04049655 -0.02788437 0.01900388
v -0.04071240 -0.02756929 0.01675696
v -0.03900084 -0.02687261 0.00522833
v -0.04104817 -0.02769063 0.01900388
v -0.03948051 -0.02821412 0.01900388
f 1 2 3
f 1 3 4
f 1 4 5
f 1 5 11
f 1 11 10
f 1 10 19
f 1 19 23
f 1 23 20
f 1 20 12
f 1 12 6
f 1 6 13
f 1 13 22
f 1 22 31
f 1 31 45
f 1 45 54
f 1 54 66
f 1 66 73
f 1 73 84
f 1 84 95
f 1 95 108
f 1 108 107
f 1 107 117
f 1 117 124
f 1 124 133
f 1 133 145
f 1 145 155
f 1 155 161
f 1 161 156
f 1 156 146
f 1 146 136
f 1 136 125
f 1 125 118
f 1 118 110
f 1 110 109
f 1 109 99
f 1 99 98
f 1 98 97
f 1 97 88
f 1 88 77
f 1 77 76
f 1 76 69
f 1 69 61
f 1 61 62
f 1 62 50
f 1 50 42
f 1 42 41
f 1 41 27
f 1 27 24
f 1 24 14
f 1 14 7
f 1 7 2
f 2 7 8
f 2 8 3
f 3 9 10
f 3 10 11
f 3 11 5
f 3 5 4
f 3 8 9
f 6 12 13
f 7 14 8
f 8 15 16
f 8 16 9
f 8 14 17
f 8 17 15
f 9 16 18
f 9 18 10
f 10 18 19
f 12 20 13
f 13 21 30
f 13 30 43
f 13 43 52
f 13 52 58
f 13 58 57
f 13 57 55
f 13 55 46
f 13 46 32
f 13 32 22
f 13 20 23
f 13 23 21
f 14 24 17
f 15 17 16
f 16 17 25
f 16 25 26
f 16 26 40
f 16 40 39
f 16 39 38
f 16 38 37
f 16 37 36
f 16 36 35
f 16 35 49
f 16 49 60
f 16 60 59
f 16 59 67
f 16 67 75
f 16 75 87
f 16 87 86
f 16 86 96
f 16 96 103
f 16 103 114
f 16 114 113
f 16 113 121
f 16 121 127
f 16 127 137
f 16 137 147
f 16 147 150
f 16 150 162
f 16 162 159
f 16 159 158
f 16 158 163
f 16 163 152
f 16 152 141
f 16 141 140
f 16 140 129
f 16 129 128
f 16 128 122
f 16 122 115
f 16 115 104
f 16 104 92
f 16 92 81
f 16 81 80
f 16 80 70
f 16 70 63
f 16 63 52
f 16 52 43
f 16 43 33
f 16 33 23
f 16 23 19
f 16 19 18
f 17 24 27
f 17 27 28
f 17 28 29
f 17 29 25
f 21 23 30
f 22 32 31
f 23 33 30
f 25 29 34
f 25 34 35
f 25 35 36
f 25 36 37
f 25 37 38
f 25 38 39
f 25 39 40
f 25 40 26
f 27 41 28
f 28 41 42
f 28 42 29
f 29 42 34
f 30 33 43
f 31 44 45
f 31 32 46
f 31 46 47
f 31 47 44
f 34 42 48
f 34 48 35
f 35 48 49
f 42 50 51
f 42 51 48
f 44 47 45
f 45 47 53
f 45 53 54
f 46 55 47
f 47 56 53
f 47 55 57
f 47 57 58
f 47 58 56
f 48 59 60
f 48 60 49
f 48 51 61
f 48 61 59
f 50 62 51
f 51 62 61
f 52 63 56
f 52 56 58
f 53 56 64
f 53 64 54
f 54 65 66
f 54 64 65
f 56 63 64
f 59 61 68
f 59 68 67
f 61 69 68
f 63 70 64
f 64 70 71
f 64 71 72
f 64 72 65
f 65 72 73
f 65 73 66
f 67 74 75
f 67 68 74
f 68 69 76
f 68 76 77
f 68 77 78
f 68 78 79
f 68 79 74
f 70 80 71
f 71 80 81
f 71 81 82
f 71 82 72
f 72 82 83
f 72 83 84
f 72 84 73
f 74 79 85
f 74 85 86
f 74 86 87
f 74 87 75
f 77 88 89
f 77 89 78
f 78 89 90
f 78 90 79
f 79 90 91
f 79 91 85
f 81 92 93
f 81 93 82
f 82 93 94
f 82 94 95
f 82 95 83
f 83 95 84
f 85 91 96
f 85 96 86
f 88 97 89
f 89 97 90
f 90 97 98
f 90 98 99
f 90 99 100
f 90 100 101
f 90 101 102
f 90 102 91
f 91 102 101
f 91 101 103
f 91 103 96
f 92 104 105
f 92 105 94
f 92 94 93
f 94 105 106
f 94 106 107
f 94 107 108
f 94 108 95
f 99 109 100
f 100 109 110
f 100 110 111
f 100 111 101
f 101 111 112
f 101 112 113
f 101 113 114
f 101 114 103
f 104 115 105
f 105 115 116
f 105 116 106
f 106 116 107
f 107 116 117
f 110 118 111
f 111 118 119
f 111 119 120
f 111 120 112
f 112 120 121
f 112 121 113
f 115 122 123
f 115 123 116
f 116 123 124
f 116 124 117
f 118 125 119
f 119 125 126
f 119 126 127
f 119 127 120
f 120 127 121
f 122 128 123
f 123 128 129
f 123 129 130
f 123 130 131
f 123 131 132
f 123 132 124
f 124 132 133
f 125 134 135
f 125 135 126
f 125 136 134
f 126 137 127
f 126 135 138
f 126 138 139
f 126 139 137
f 129 140 130
f 130 140 131
f 131 140 141
f 131 141 142
f 131 142 132
f 132 142 143
f 132 143 144
f 132 144 133
f 133 144 145
f 134 136 138
f 134 138 135
f 136 146 138
f 137 139 147
f 138 146 148
f 138 148 149
f 138 149 139
f 139 150 147
f 139 149 151
f 139 151 150
f 141 152 142
f 142 152 143
f 143 152 153
f 143 153 144
f 144 153 154
f 144 154 145
f 145 154 155
f 146 156 148
f 148 157 158
f 148 158 159
f 148 159 160
f 148 160 149
f 148 156 161
f 148 161 153
f 148 153 157
f 149 160 159
f 149 159 151
f 150 151 162
f 151 159 162
f 152 163 153
f 153 163 157
f 153 161 154
f 154 161 155
f 157 163 158

