# https://github.com/mikedh/trimesh
v 0.05219662 0.00781036 0.02548421
v 0.05099844 0.00780585 0.02548421
v 0.05099844 0.00755052 0.02643283
v 0.05219662 0.00755353 0.02642206
v 0.05339481 0.00751448 0.02638782
v 0.05339481 0.00775779 0.02548421
v 0.05339481 0.00744239 0.02470095
v 0.05219662 0.00745590 0.02469263
v 0.00669197 0.00749045 0.02449694
v 0.00669197 0.00760309 0.02541669
v 0.00669197 0.00760910 0.02548421
v 0.04979501 0.00659981 0.02691814
v 0.05099844 0.00659981 0.02692695
v 0.00669197 0.00731773 0.02618087
v 0.05219662 0.00659981 0.02691032
v 0.05339481 0.00659981 0.02686041
v 0.05459825 0.00659981 0.02674936
v 0.05459825 0.00743938 0.02631541
v 0.05459825 0.00761961 0.02548421
v 0.05459825 0.00738081 0.02474253
v 0.05459825 0.00659981 0.02444361
v 0.05339481 0.00659981 0.02439567
v 0.00669197 0.00539978 0.02304931
v 0.00669197 0.00635350 0.02347102
v 0.00669197 0.00690770 0.02386192
v 0.00669197 0.00695276 0.02389665
v 0.04859682 0.00539978 0.02711188
v 0.00669197 0.00659981 0.02639711
v 0.04979501 0.00539978 0.02712020
v 0.05099844 0.00539978 0.02711677
v 0.05219662 0.00539978 0.02710894
v 0.05339481 0.00539978 0.02708155
v 0.05459825 0.00539978 0.02701110
v 0.05579643 0.00539978 0.02690347
v 0.05579643 0.00659981 0.02657568
v 0.05579643 0.00731773 0.02619849
v 0.05552316 0.00728469 0.02481396
v 0.05645858 0.00722911 0.02611483
v 0.05645858 0.00722911 0.02582765
v 0.05587000 0.00734626 0.02545045
v 0.05632195 0.00716904 0.02502776
v 0.05587000 0.00670044 0.02461974
v 0.05699987 0.00539978 0.02440007
v 0.05579643 0.00539978 0.02429684
v 0.00669197 0.00284202 0.02243434
v 0.00669197 0.00316493 0.02249403
v 0.00669197 0.00335267 0.02252876
v 0.00669197 0.00410363 0.02268287
v 0.00669197 0.00530666 0.02302240
v 0.04859682 0.00419975 0.02716569
v 0.04979501 0.00419975 0.02717842
v 0.01620385 0.00539978 0.02671805
v 0.00669197 0.00539978 0.02643576
v 0.00780081 0.00539978 0.02651893
v 0.00900425 0.00539978 0.02656981
v 0.01020243 0.00539978 0.02660797
v 0.01140061 0.00539978 0.02664222
v 0.01260405 0.00539978 0.02666521
v 0.05099844 0.00419975 0.02718477
v 0.05219662 0.00419975 0.02718771
v 0.05339481 0.00419975 0.02717206
v 0.05459825 0.00419975 0.02711726
v 0.05579643 0.00419975 0.02702382
v 0.05699987 0.00419975 0.02688683
v 0.05699987 0.00539978 0.02671022
v 0.05691578 0.00657728 0.02630661
v 0.05781968 0.00614623 0.02479733
v 0.05699987 0.00638654 0.02468921
v 0.05783544 0.00616426 0.02619408
v 0.05794580 0.00623334 0.02548421
v 0.05691578 0.00688818 0.02545045
v 0.05821381 0.00543282 0.02465447
v 0.05819805 0.00419975 0.02436485
v 0.05699987 0.00419975 0.02427532
v 0.00669197 0.00060566 0.02222838
v 0.00669197 0.00179969 0.02231204
v 0.04859682 0.00299972 0.02719162
v 0.04979501 0.00299972 0.02720288
v 0.02220002 -0.00419897 0.02681051
v 0.00669197 -0.00539900 0.02645680
v 0.00780081 -0.00539900 0.02651110
v 0.01140061 -0.00539900 0.02659819
v 0.01740204 -0.00419897 0.02672539
v 0.00900425 -0.00539900 0.02654339
v 0.01020243 -0.00539900 0.02657128
v 0.05219662 0.00299972 0.02721413
v 0.05339481 0.00299972 0.02720875
v 0.05459825 0.00299972 0.02717254
v 0.05579643 0.00299972 0.02709965
v 0.05699987 0.00299972 0.02697685
v 0.05819805 0.00299972 0.02680122
v 0.05819805 0.00419975 0.02667206
v 0.05821907 0.00542381 0.02634868
v 0.05854489 0.00577226 0.02548421
v 0.05897582 0.00505584 0.02476749
v 0.05895480 0.00504082 0.02619653
v 0.05819805 0.00299972 0.02426211
v 0.05938572 0.00411264 0.02468970
v 0.05939623 0.00299972 0.02449988
v 0.05939623 0.00179969 0.02438099
v 0.00669197 -0.00060188 0.02221615
v 0.05819805 0.00179969 0.02421857
v 0.05819805 0.00059966 0.02419264
v 0.04859682 0.00179969 0.02719065
v 0.04979501 0.00179969 0.02719945
v 0.01860022 -0.00539900 0.02671952
v 0.02580508 -0.00419897 0.02685210
v 0.04139722 -0.00299894 0.02704877
v 0.04259540 -0.00179890 0.02707861
v 0.01740204 -0.00539900 0.02670435
v 0.00669197 -0.00650741 0.02635553
v 0.00669197 -0.00659903 0.02634330
v 0.05099844 0.00179969 0.02720239
v 0.05219662 0.00179969 0.02720434
v 0.05339481 0.00179969 0.02720092
v 0.05459825 0.00179969 0.02717744
v 0.05579643 0.00179969 0.02711922
v 0.05699987 0.00179969 0.02701110
v 0.05819805 0.00179969 0.02685503
v 0.05939623 0.00179969 0.02653948
v 0.05950659 0.00308833 0.02636972
v 0.05920179 0.00419975 0.02631199
v 0.05904939 0.00517299 0.02548421
v 0.06002160 0.00365606 0.02485946
v 0.05997956 0.00354792 0.02597148
v 0.05939623 0.00059966 0.02431837
v 0.06008991 0.00299972 0.02479635
v 0.06017926 0.00179969 0.02470780
v 0.06022655 0.00059966 0.02466083
v 0.00669197 -0.00179890 0.02229931
v 0.05819805 -0.00059887 0.02420193
v 0.05819805 -0.00179890 0.02425184
v 0.05819805 -0.00299894 0.02431495
v 0.05699987 -0.00419897 0.02435017
v 0.04859682 0.00059966 0.02717401
v 0.04979501 0.00059966 0.02718477
v 0.05099844 0.00059966 0.02718918
v 0.05219662 0.00059966 0.02719211
v 0.02460164 -0.00539900 0.02677529
v 0.04019904 -0.00419897 0.02699202
v 0.04259540 -0.00299894 0.02706100
v 0.00669197 -0.00719078 0.02613684
v 0.00780081 -0.00659903 0.02634672
v 0.02580508 -0.00539900 0.02678067
v 0.05339481 0.00059966 0.02718918
v 0.05459825 0.00059966 0.02716863
v 0.05579643 0.00059966 0.02711090
v 0.05699987 0.00059966 0.02701061
v 0.05819805 0.00059966 0.02687509
v 0.05939623 0.00059966 0.02657666
v 0.06012145 0.00179969 0.02619800
v 0.06006364 0.00274740 0.02614712
v 0.05970629 0.00411264 0.02553656
v 0.06002160 0.00365606 0.02517110
v 0.06011094 0.00308833 0.02553656
v 0.06030538 0.00179969 0.02548421
v 0.05939623 -0.00059887 0.02433305
v 0.06037369 0.00059966 0.02548421
v 0.06021079 -0.00059887 0.02467257
v 0.00669197 -0.00295989 0.02241379
v 0.05939623 -0.00179890 0.02440252
v 0.05943302 -0.00299743 0.02460604
v 0.05828213 -0.00429058 0.02458353
v 0.05700512 -0.00545757 0.02465300
v 0.05579643 -0.00539900 0.02446710
v 0.05459825 -0.00539900 0.02439812
v 0.05099844 -0.00059887 0.02717010
v 0.05219662 -0.00059887 0.02717450
v 0.04979501 -0.00059887 0.02716325
v 0.04139722 -0.00419897 0.02700229
v 0.04379884 -0.00299894 0.02706687
v 0.05099844 -0.00179890 0.02713830
v 0.00669197 -0.00723884 0.02611825
v 0.04739864 -0.00539900 0.02682421
v 0.04619520 -0.00539900 0.02682323
v 0.04139722 -0.00539900 0.02681638
v 0.05339481 -0.00059887 0.02716863
v 0.05459825 -0.00059887 0.02713830
v 0.05579643 -0.00059887 0.02708204
v 0.05699987 -0.00059887 0.02699055
v 0.05819805 -0.00059887 0.02684965
v 0.05939623 -0.00059887 0.02654144
v 0.06013196 -0.00059887 0.02620093
v 0.06014772 0.00059966 0.02622001
v 0.06017400 -0.00179890 0.02471563
v 0.06034742 -0.00059887 0.02548421
v 0.00669197 -0.00302447 0.02242162
v 0.06010043 -0.00259642 0.02478754
v 0.05905465 -0.00395115 0.02471563
v 0.05794055 -0.00509711 0.02474058
v 0.05661098 -0.00607186 0.02482521
v 0.05579643 -0.00621454 0.02474498
v 0.05459825 -0.00634070 0.02468236
v 0.00669197 -0.00415992 0.02262955
v 0.00669197 -0.00401423 0.02260019
v 0.05219662 -0.00179890 0.02714270
v 0.05099844 -0.00419897 0.02700229
v 0.05219662 -0.00299894 0.02708938
v 0.00669197 -0.00751520 0.02553166
v 0.05339481 -0.00639477 0.02637803
v 0.05219662 -0.00641129 0.02638097
v 0.05099844 -0.00641880 0.02638293
v 0.04739864 -0.00642781 0.02639124
v 0.04619520 -0.00642931 0.02639418
v 0.05099844 -0.00539900 0.02681687
v 0.05219662 -0.00419897 0.02700082
v 0.05339481 -0.00179890 0.02713194
v 0.05459825 -0.00179890 0.02709622
v 0.05579643 -0.00179890 0.02704241
v 0.05699987 -0.00179890 0.02694554
v 0.05819805 -0.00179890 0.02677529
v 0.05939623 -0.00179890 0.02644946
v 0.06008466 -0.00179890 0.02615592
v 0.06025808 -0.00179890 0.02548421
v 0.06010569 -0.00261444 0.02548421
v 0.05971154 -0.00321371 0.02548421
v 0.05910720 -0.00402625 0.02548421
v 0.05863948 -0.00462551 0.02548421
v 0.05804039 -0.00520976 0.02548421
v 0.05728890 -0.00581052 0.02548421
v 0.05668981 -0.00610640 0.02548421
v 0.05579643 -0.00642781 0.02548421
v 0.05459825 -0.00669515 0.02548421
v 0.05339481 -0.00674772 0.02548421
v 0.00669197 -0.00749267 0.02445976
v 0.00669197 -0.00702257 0.02390595
v 0.00669197 -0.00698052 0.02385996
v 0.00669197 -0.00637975 0.02348081
v 0.00669197 -0.00546508 0.02306447
v 0.00669197 -0.00539900 0.02303561
v 0.00669197 -0.00423351 0.02265205
v 0.05339481 -0.00299894 0.02707714
v 0.00669197 -0.00753322 0.02548421
v 0.05459825 -0.00635271 0.02634134
v 0.05339481 -0.00539900 0.02679339
v 0.05219662 -0.00539900 0.02681149
v 0.05339481 -0.00419897 0.02697930
v 0.05459825 -0.00299894 0.02704926
v 0.05579643 -0.00299894 0.02698615
v 0.05699987 -0.00299894 0.02685699
v 0.05819805 -0.00299894 0.02662314
v 0.05937521 -0.00293285 0.02625817
v 0.06003736 -0.00248828 0.02611629
v 0.05896005 -0.00381598 0.02616326
v 0.05784595 -0.00504905 0.02619262
v 0.05657945 -0.00606885 0.02614027
v 0.05579643 -0.00621153 0.02623713
v 0.05579643 -0.00539900 0.02658889
v 0.05459825 -0.00539900 0.02673028
v 0.05459825 -0.00419897 0.02694212
v 0.05579643 -0.00419897 0.02686775
v 0.05699987 -0.00419897 0.02668625
v 0.05822433 -0.00420948 0.02632177
v 0.05698410 -0.00542904 0.02631394
f 1 2 3
f 1 3 4
f 1 4 5
f 1 5 6
f 1 6 7
f 1 7 8
f 1 8 9
f 1 9 2
f 2 9 10
f 2 10 11
f 2 11 3
f 3 12 13
f 3 13 4
f 3 11 14
f 3 14 12
f 4 13 15
f 4 15 16
f 4 16 5
f 5 16 17
f 5 17 18
f 5 18 6
f 6 18 19
f 6 19 20
f 6 20 7
f 7 20 21
f 7 21 22
f 7 22 23
f 7 23 24
f 7 24 8
f 8 24 25
f 8 25 26
f 8 26 9
f 9 26 25
f 9 25 24
f 9 24 23
f 9 23 49
f 9 49 48
f 9 48 47
f 9 47 46
f 9 46 45
f 9 45 76
f 9 76 75
f 9 75 101
f 9 101 130
f 9 130 160
f 9 160 187
f 9 187 195
f 9 195 194
f 9 194 231
f 9 231 230
f 9 230 229
f 9 229 228
f 9 228 227
f 9 227 226
f 9 226 225
f 9 225 233
f 9 233 199
f 9 199 173
f 9 173 142
f 9 142 112
f 9 112 111
f 9 111 80
f 9 80 53
f 9 53 28
f 9 28 14
f 9 14 11
f 9 11 10
f 12 27 13
f 12 14 28
f 12 28 27
f 13 27 29
f 13 29 30
f 13 30 31
f 13 31 15
f 15 31 32
f 15 32 16
f 16 32 33
f 16 33 34
f 16 34 17
f 17 34 35
f 17 35 18
f 18 35 36
f 18 36 19
f 19 37 20
f 19 36 38
f 19 38 39
f 19 39 40
f 19 40 41
f 19 41 37
f 20 37 42
f 20 42 21
f 21 42 43
f 21 43 44
f 21 44 22
f 22 44 45
f 22 45 46
f 22 46 47
f 22 47 48
f 22 48 49
f 22 49 23
f 27 50 51
f 27 51 29
f 27 28 52
f 27 52 50
f 28 53 54
f 28 54 55
f 28 55 56
f 28 56 57
f 28 57 58
f 28 58 52
f 29 51 59
f 29 59 60
f 29 60 30
f 30 60 31
f 31 60 61
f 31 61 32
f 32 61 62
f 32 62 33
f 33 62 63
f 33 63 34
f 34 63 64
f 34 64 65
f 34 65 35
f 35 65 66
f 35 66 38
f 35 38 36
f 37 41 67
f 37 67 68
f 37 68 42
f 38 66 69
f 38 69 70
f 38 70 39
f 39 41 40
f 39 70 71
f 39 71 41
f 41 71 70
f 41 70 67
f 42 68 43
f 43 68 72
f 43 72 73
f 43 73 44
f 44 73 74
f 44 74 75
f 44 75 76
f 44 76 45
f 50 77 51
f 50 52 77
f 51 77 78
f 51 78 59
f 52 58 79
f 52 79 77
f 53 80 54
f 54 80 81
f 54 81 55
f 55 81 56
f 56 81 57
f 57 82 83
f 57 83 58
f 57 81 84
f 57 84 85
f 57 85 82
f 58 83 79
f 59 78 86
f 59 86 60
f 60 86 87
f 60 87 61
f 61 87 88
f 61 88 62
f 62 88 89
f 62 89 63
f 63 89 90
f 63 90 64
f 64 90 91
f 64 91 92
f 64 92 65
f 65 92 93
f 65 93 69
f 65 69 66
f 67 70 94
f 67 94 95
f 67 95 72
f 67 72 68
f 69 93 96
f 69 96 94
f 69 94 70
f 72 95 73
f 73 97 74
f 73 95 98
f 73 98 99
f 73 99 100
f 73 100 97
f 74 97 75
f 75 97 102
f 75 102 103
f 75 103 101
f 77 104 78
f 77 79 104
f 78 104 105
f 78 105 86
f 79 106 107
f 79 107 108
f 79 108 109
f 79 109 104
f 79 83 82
f 79 82 110
f 79 110 106
f 80 111 81
f 81 111 84
f 82 85 111
f 82 111 112
f 82 112 110
f 84 111 85
f 86 105 113
f 86 113 114
f 86 114 115
f 86 115 87
f 87 115 116
f 87 116 88
f 88 116 117
f 88 117 89
f 89 117 118
f 89 118 90
f 90 118 119
f 90 119 91
f 91 119 120
f 91 120 121
f 91 121 92
f 92 121 122
f 92 122 96
f 92 96 93
f 94 96 123
f 94 123 95
f 95 123 124
f 95 124 98
f 96 122 125
f 96 125 123
f 97 100 126
f 97 126 102
f 98 124 99
f 99 124 127
f 99 127 128
f 99 128 100
f 100 128 129
f 100 129 126
f 101 103 131
f 101 131 132
f 101 132 133
f 101 133 134
f 101 134 130
f 102 126 103
f 103 126 131
f 104 109 135
f 104 135 136
f 104 136 105
f 105 136 137
f 105 137 138
f 105 138 113
f 106 139 140
f 106 140 107
f 106 110 112
f 106 112 139
f 107 140 141
f 107 141 108
f 108 141 109
f 109 141 135
f 112 142 143
f 112 143 144
f 112 144 139
f 113 138 114
f 114 138 145
f 114 145 115
f 115 145 146
f 115 146 116
f 116 146 147
f 116 147 117
f 117 147 148
f 117 148 118
f 118 148 149
f 118 149 119
f 119 149 150
f 119 150 120
f 120 150 151
f 120 151 152
f 120 152 121
f 121 152 122
f 122 152 125
f 123 125 153
f 123 153 154
f 123 154 124
f 124 154 155
f 124 155 156
f 124 156 127
f 125 152 156
f 125 156 155
f 125 155 154
f 125 154 153
f 126 129 157
f 126 157 131
f 127 156 128
f 128 156 158
f 128 158 129
f 129 158 159
f 129 159 157
f 130 134 160
f 131 157 132
f 132 157 133
f 133 157 161
f 133 161 162
f 133 162 163
f 133 163 134
f 134 163 164
f 134 164 165
f 134 165 166
f 134 166 160
f 135 141 136
f 136 167 168
f 136 168 137
f 136 141 169
f 136 169 167
f 137 168 138
f 138 168 145
f 139 144 170
f 139 170 140
f 140 170 141
f 141 170 171
f 141 171 172
f 141 172 167
f 141 167 169
f 142 173 174
f 142 174 175
f 142 175 143
f 143 175 176
f 143 176 144
f 144 176 170
f 145 168 177
f 145 177 146
f 146 177 178
f 146 178 179
f 146 179 147
f 147 179 180
f 147 180 148
f 148 180 149
f 149 180 181
f 149 181 150
f 150 182 183
f 150 183 184
f 150 184 151
f 150 181 182
f 151 184 158
f 151 158 156
f 151 156 152
f 157 159 185
f 157 185 161
f 158 186 159
f 158 184 183
f 158 183 186
f 159 186 185
f 160 166 187
f 161 185 188
f 161 188 162
f 162 189 163
f 162 188 189
f 163 190 164
f 163 189 190
f 164 190 191
f 164 191 192
f 164 192 165
f 165 192 193
f 165 193 166
f 166 193 194
f 166 194 195
f 166 195 187
f 167 172 196
f 167 196 168
f 168 196 177
f 170 176 175
f 170 175 174
f 170 174 197
f 170 197 198
f 170 198 171
f 171 198 196
f 171 196 172
f 173 199 200
f 173 200 201
f 173 201 202
f 173 202 203
f 173 203 204
f 173 204 174
f 174 205 206
f 174 206 197
f 174 204 205
f 177 196 207
f 177 207 178
f 178 208 209
f 178 209 179
f 178 207 208
f 179 209 180
f 180 209 210
f 180 210 181
f 181 210 211
f 181 211 182
f 182 212 213
f 182 213 183
f 182 211 212
f 183 213 186
f 185 186 214
f 185 214 188
f 186 213 214
f 188 214 215
f 188 215 216
f 188 216 217
f 188 217 189
f 189 217 218
f 189 218 190
f 190 219 220
f 190 220 191
f 190 218 219
f 191 221 222
f 191 222 223
f 191 223 192
f 191 220 221
f 192 223 193
f 193 223 224
f 193 224 225
f 193 225 226
f 193 226 227
f 193 227 228
f 193 228 229
f 193 229 230
f 193 230 231
f 193 231 194
f 196 198 207
f 197 206 198
f 198 206 232
f 198 232 207
f 199 233 224
f 199 224 200
f 200 224 223
f 200 223 234
f 200 234 235
f 200 235 236
f 200 236 201
f 201 236 205
f 201 205 202
f 202 205 203
f 203 205 204
f 205 236 206
f 206 236 235
f 206 235 237
f 206 237 232
f 207 232 238
f 207 238 208
f 208 238 209
f 209 238 239
f 209 239 210
f 210 239 240
f 210 240 211
f 211 241 212
f 211 240 241
f 212 242 243
f 212 243 213
f 212 241 242
f 213 243 214
f 214 243 215
f 215 243 216
f 216 243 217
f 217 243 218
f 218 243 244
f 218 244 245
f 218 245 219
f 219 245 220
f 220 245 246
f 220 246 221
f 221 246 222
f 222 246 223
f 223 246 247
f 223 247 234
f 224 233 225
f 232 237 238
f 234 247 248
f 234 248 249
f 234 249 235
f 235 249 250
f 235 250 237
f 237 250 238
f 238 250 239
f 239 250 251
f 239 251 240
f 240 252 241
f 240 251 252
f 241 253 242
f 241 252 253
f 242 253 244
f 242 244 243
f 244 253 245
f 245 253 252
f 245 252 254
f 245 254 246
f 246 254 248
f 246 248 247
f 248 251 249
f 248 254 252
f 248 252 251
f 249 251 250

