# https://github.com/mikedh/trimesh
v -0.00156447 -0.00179201 0.01900522
v -0.01269387 0.01885229 0.00515940
v -0.00342032 -0.00002383 0.00515940
v 0.00076767 -0.00179201 0.01900522
v -0.00081113 -0.00179201 0.02428207
v -0.00844705 0.01885229 0.00515940
v -0.00061757 -0.00179201 0.02548370
v -0.00936359 0.01885229 0.01900522
v -0.00103884 -0.00002383 0.00515940
v 0.00669197 -0.00179201 0.02229734
v -0.00808841 0.01844005 0.00515940
v -0.00692328 0.01885229 0.01487375
v 0.00669197 0.00749146 0.02449584
v -0.00029878 -0.00179201 0.02668309
v -0.00005399 -0.00179201 0.02737842
v -0.00374102 0.01174722 0.02628930
v -0.00331595 0.01174722 0.02684961
v -0.00271821 0.01174722 0.02756969
v -0.00179978 0.01174722 0.02810525
v -0.00635401 0.01885229 0.01900522
v -0.00103884 0.00060059 0.00515940
v 0.00669197 -0.00060177 0.02221633
v 0.00669197 -0.00179201 0.02617453
v -0.00802009 0.01835922 0.00515940
v -0.00681702 0.01885229 0.01558258
v 0.00669197 0.00760462 0.02541620
v 0.00669197 0.00695393 0.02389502
v -0.00370117 0.01176541 0.00515940
v -0.00409017 0.01254341 0.00515940
v -0.00458165 0.01344266 0.00515940
v -0.00463858 0.01354168 0.00515940
v -0.00497635 0.01410548 0.00515940
v -0.00551906 0.01499866 0.00515940
v -0.00594033 0.01567967 0.00515940
v -0.00596690 0.01571806 0.00515940
v -0.00638437 0.01627984 0.00515940
v -0.00698211 0.01707603 0.00515940
v -0.00745651 0.01767620 0.00515940
v -0.00676389 0.01885229 0.01594487
v -0.00665762 0.01885229 0.01669871
v -0.00660449 0.01885229 0.01708350
v 0.00060068 -0.00179201 0.02793648
v -0.00179978 0.01139763 0.02806700
v -0.00060049 0.01019931 0.02814351
v -0.00058721 0.01174722 0.02780597
v 0.00060068 -0.00059773 0.02796799
v 0.00669197 0.00761068 0.02548370
v -0.00114321 0.00183327 0.00515940
v 0.00669197 0.00335492 0.02252687
v 0.00669197 0.00284568 0.02243461
v 0.00669197 0.00180094 0.02231084
v 0.00669197 0.00060867 0.02222758
v 0.00669197 0.00539995 0.02643556
v 0.00158364 -0.00179201 0.02783522
v 0.00669197 0.00690745 0.02385902
v -0.00301613 0.01013464 0.00515940
v -0.00303891 0.01019728 0.00515940
v -0.00346017 0.01120970 0.00515940
v 0.00060068 0.00060059 0.02799499
v 0.00060068 0.00539995 0.02809175
v 0.00060068 0.00660029 0.02804224
v 0.00669197 0.00660029 0.02639731
v 0.00669197 0.00731969 0.02617903
v -0.00114890 0.00189187 0.00515940
v 0.00669197 0.00410463 0.02268214
v 0.00158174 -0.00059773 0.02784422
v 0.00669197 0.00635376 0.02346973
v -0.00258159 0.00889388 0.00515940
v -0.00127983 0.00287801 0.00515940
v 0.00669197 0.00530901 0.02302192
v 0.00669197 0.00539995 0.02304893
v -0.00170869 0.00540197 0.00515940
v -0.00195158 0.00652957 0.00515940
v -0.00196866 0.00660231 0.00515940
v -0.00228366 0.00785318 0.00515940
v -0.00128742 0.00293055 0.00515940
v -0.00148857 0.00420365 0.00515940
f 1 2 3
f 1 3 9
f 1 9 4
f 1 4 10
f 1 10 23
f 1 23 54
f 1 54 42
f 1 42 15
f 1 15 14
f 1 14 7
f 1 7 5
f 1 5 2
f 2 6 11
f 2 11 24
f 2 24 38
f 2 38 37
f 2 37 36
f 2 36 35
f 2 35 34
f 2 34 33
f 2 33 32
f 2 32 31
f 2 31 30
f 2 30 29
f 2 29 28
f 2 28 58
f 2 58 57
f 2 57 56
f 2 56 68
f 2 68 75
f 2 75 74
f 2 74 73
f 2 73 72
f 2 72 77
f 2 77 76
f 2 76 69
f 2 69 64
f 2 64 48
f 2 48 21
f 2 21 9
f 2 9 3
f 2 5 7
f 2 7 8
f 2 8 20
f 2 20 41
f 2 41 40
f 2 40 39
f 2 39 25
f 2 25 12
f 2 12 6
f 4 9 10
f 6 12 13
f 6 13 11
f 7 14 8
f 8 14 15
f 8 15 16
f 8 16 17
f 8 17 18
f 8 18 19
f 8 19 20
f 9 21 22
f 9 22 10
f 10 22 52
f 10 52 51
f 10 51 50
f 10 50 49
f 10 49 65
f 10 65 70
f 10 70 71
f 10 71 67
f 10 67 55
f 10 55 27
f 10 27 13
f 10 13 26
f 10 26 47
f 10 47 63
f 10 63 62
f 10 62 53
f 10 53 23
f 11 13 24
f 12 25 13
f 13 27 28
f 13 28 29
f 13 29 30
f 13 30 31
f 13 31 32
f 13 32 33
f 13 33 34
f 13 34 35
f 13 35 36
f 13 36 37
f 13 37 38
f 13 38 24
f 13 25 39
f 13 39 40
f 13 40 41
f 13 41 26
f 15 18 17
f 15 17 16
f 15 42 18
f 18 42 43
f 18 43 19
f 19 44 45
f 19 45 20
f 19 43 42
f 19 42 46
f 19 46 44
f 20 45 47
f 20 47 26
f 20 26 41
f 21 48 49
f 21 49 50
f 21 50 51
f 21 51 52
f 21 52 22
f 23 53 54
f 27 55 56
f 27 56 57
f 27 57 58
f 27 58 28
f 42 54 46
f 44 46 59
f 44 59 60
f 44 60 61
f 44 61 62
f 44 62 45
f 45 62 63
f 45 63 47
f 46 54 59
f 48 64 65
f 48 65 49
f 53 62 60
f 53 60 66
f 53 66 54
f 54 66 60
f 54 60 59
f 55 67 68
f 55 68 56
f 60 62 61
f 64 69 70
f 64 70 65
f 67 71 72
f 67 72 73
f 67 73 74
f 67 74 75
f 67 75 68
f 69 76 71
f 69 71 70
f 71 76 77
f 71 77 72

