# https://github.com/mikedh/trimesh
v -0.02988694 -0.02836754 0.00503028
v -0.02988694 -0.02580472 0.00503028
v -0.02942031 -0.02837859 0.00503028
v -0.02939809 -0.02865967 0.00748593
v -0.02939809 -0.02876388 0.00839961
v -0.02988694 -0.02882547 0.00904862
v -0.02988694 -0.02747695 0.01828207
v -0.00512495 -0.01385281 0.02539358
v -0.00521661 -0.01385281 0.02428197
v -0.00551936 -0.01385281 0.01900473
v -0.01202164 -0.01898949 0.00503028
v -0.02939809 -0.02837859 0.00503028
v -0.02819818 -0.02836438 0.00503028
v -0.02819818 -0.02837070 0.00508551
v -0.02819818 -0.02850650 0.00628687
v -0.02819818 -0.02864072 0.00748593
v -0.02819818 -0.02881915 0.00909465
v -0.02939809 -0.02883020 0.00900029
v -0.02939809 -0.02930708 0.01348583
v -0.02988694 -0.02911759 0.01179656
v -0.02988694 -0.02757327 0.01900013
v -0.00491108 -0.01385281 0.02613234
v -0.00293623 -0.01385281 0.01900473
v -0.00859413 -0.01898949 0.00503028
v -0.02699827 -0.02829490 0.00503028
v -0.02749268 -0.02880652 0.00921663
v -0.02819818 -0.02903864 0.01108541
v -0.02988694 -0.02924392 0.01299562
v -0.02819818 -0.02916497 0.01228447
v -0.02819818 -0.02986133 0.01900243
v -0.02939809 -0.02987712 0.01900243
v -0.02988694 -0.02982028 0.01900243
v -0.02005158 -0.02882389 0.02852126
v -0.02005158 -0.02871336 0.02851896
v -0.02005158 -0.02829806 0.02819905
v -0.02005158 -0.02811805 0.02802875
v -0.02005158 -0.02763170 0.02755925
v -0.00382783 -0.01385281 0.02757306
v -0.00386393 -0.01385281 0.02753163
v -0.00462499 -0.01385281 0.02657883
v -0.00151134 -0.01385281 0.02665247
v -0.00233627 -0.01572084 0.02712197
v -0.00853024 -0.01898949 0.00508551
v -0.00854135 -0.01898949 0.00503258
v -0.00856635 -0.01901950 0.00503028
v -0.02699827 -0.02843860 0.00628687
v -0.02585391 -0.02816700 0.00503028
v -0.02669274 -0.02877652 0.00953193
v -0.02705382 -0.02872125 0.00876554
v -0.02699827 -0.02979817 0.01900243
v -0.02988694 -0.02985975 0.01900243
v -0.02747601 -0.02982344 0.01900243
v -0.02005158 -0.02998450 0.02704833
v -0.02005158 -0.02998450 0.02731529
v -0.02005158 -0.02902127 0.02852126
v -0.01979882 -0.02868809 0.02853046
v -0.00362228 -0.01554240 0.02849134
v -0.00290012 -0.01385281 0.02822437
v -0.00296122 -0.01385281 0.02820136
v -0.00151134 -0.01385281 0.02671001
v -0.00233627 -0.01572084 0.02744878
v -0.00470554 -0.01933847 0.02709435
v -0.00579990 -0.02064277 0.02697238
v -0.00919408 -0.01967954 0.00503028
v -0.00694981 -0.02186970 0.02692405
v -0.02579559 -0.02815910 0.00503028
v -0.02579559 -0.02830280 0.00628687
v -0.02005158 -0.02994976 0.02760528
v -0.02005158 -0.02962447 0.02801494
v -0.02005158 -0.02912865 0.02847293
v -0.02099873 -0.02698270 0.00503028
v -0.01661851 -0.02887284 0.02714268
v -0.02459846 -0.02794119 0.00503028
v -0.02343466 -0.02768696 0.00503028
v -0.02293469 -0.02756696 0.00503028
v -0.02229030 -0.02738378 0.00503028
v -0.01661851 -0.02887284 0.02747409
v -0.01859891 -0.02889179 0.02853507
v -0.01979882 -0.02893442 0.02853046
v -0.01859891 -0.02861229 0.02853507
v -0.01379928 -0.02616317 0.02853737
v -0.00493052 -0.01740254 0.02850975
v -0.00356673 -0.01554240 0.02849134
v -0.00194741 -0.01385281 0.02798042
v -0.00188075 -0.01385281 0.02793669
v -0.00214740 -0.01500236 0.02770194
v -0.00473887 -0.01811154 0.02850975
v -0.00336119 -0.01717041 0.02762139
v -0.00470554 -0.01933847 0.02749711
v -0.00579990 -0.02064277 0.02764440
v -0.00974959 -0.02025116 0.00503028
v -0.00759143 -0.02240658 0.02788376
v -0.00813583 -0.02304768 0.02692405
v -0.01747122 -0.02899285 0.02787915
v -0.01791841 -0.02882547 0.02850285
v -0.01976827 -0.02656267 0.00503028
v -0.01926275 -0.02637318 0.00503028
v -0.01877390 -0.02618686 0.00503028
v -0.01869057 -0.02615370 0.00503028
v -0.01745456 -0.02563576 0.00503028
v -0.01739623 -0.02561050 0.00503028
v -0.01666573 -0.02526942 0.00503028
v -0.01421592 -0.02769960 0.02711967
v -0.01421592 -0.02769960 0.02757076
v -0.01501030 -0.02787014 0.02793669
v -0.01302434 -0.02649319 0.02854197
v -0.00609710 -0.01901950 0.02851666
v -0.00470554 -0.01740254 0.02850975
v -0.00356673 -0.01567189 0.02849134
v -0.00507217 -0.01891054 0.02829802
v -0.00448055 -0.01854736 0.02789066
v -0.00586933 -0.01946795 0.02851666
v -0.00719423 -0.02161231 0.02848674
v -0.00543603 -0.01980271 0.02797121
v -0.00700536 -0.02180970 0.02788376
v -0.01032177 -0.02081015 0.00503028
v -0.00838581 -0.02281398 0.02849134
v -0.00819138 -0.02299715 0.02788376
v -0.00935796 -0.02422408 0.02697698
v -0.01034955 -0.02083699 0.00503028
v -0.01541305 -0.02765538 0.02851435
v -0.01664073 -0.02525679 0.00503028
v -0.01489642 -0.02430146 0.00503028
v -0.01196054 -0.02642687 0.02723935
v -0.01606855 -0.02495203 0.00503028
v -0.01196054 -0.02642687 0.02737974
v -0.01261326 -0.02663373 0.02782162
v -0.01222440 -0.02614580 0.02818064
v -0.01089951 -0.02501519 0.02843611
v -0.00959960 -0.02399986 0.02848443
v -0.00881633 -0.02359562 0.02788376
v -0.00941629 -0.02416882 0.02788376
v -0.01062453 -0.02532942 0.02763520
v -0.01062453 -0.02532942 0.02709205
v -0.01098839 -0.02143704 0.00503028
v -0.01438813 -0.02400933 0.00503028
v -0.01389928 -0.02368246 0.00503028
v -0.01292991 -0.02300505 0.00503028
v -0.01290213 -0.02298452 0.00503028
v -0.01232995 -0.02253922 0.00503028
v -0.01162445 -0.02196760 0.00503028
f 1 2 11
f 1 11 24
f 1 24 45
f 1 45 64
f 1 64 91
f 1 91 116
f 1 116 120
f 1 120 135
f 1 135 141
f 1 141 140
f 1 140 139
f 1 139 138
f 1 138 137
f 1 137 136
f 1 136 123
f 1 123 125
f 1 125 122
f 1 122 102
f 1 102 101
f 1 101 100
f 1 100 99
f 1 99 98
f 1 98 97
f 1 97 96
f 1 96 71
f 1 71 76
f 1 76 75
f 1 75 74
f 1 74 73
f 1 73 66
f 1 66 47
f 1 47 25
f 1 25 13
f 1 13 12
f 1 12 3
f 1 3 4
f 1 4 5
f 1 5 6
f 1 6 20
f 1 20 28
f 1 28 51
f 1 51 32
f 1 32 21
f 1 21 7
f 1 7 2
f 2 7 8
f 2 8 9
f 2 9 10
f 2 10 11
f 3 12 4
f 4 12 13
f 4 13 14
f 4 14 5
f 5 14 15
f 5 15 16
f 5 16 17
f 5 17 18
f 5 18 6
f 6 18 19
f 6 19 20
f 7 21 8
f 8 22 40
f 8 40 39
f 8 39 38
f 8 38 59
f 8 59 58
f 8 58 84
f 8 84 85
f 8 85 60
f 8 60 41
f 8 41 23
f 8 23 10
f 8 10 9
f 8 21 22
f 10 23 24
f 10 24 11
f 13 25 26
f 13 26 14
f 14 26 15
f 15 26 16
f 16 26 17
f 17 26 27
f 17 27 18
f 18 27 19
f 19 28 20
f 19 27 29
f 19 29 30
f 19 30 31
f 19 31 28
f 21 32 33
f 21 33 34
f 21 34 35
f 21 35 36
f 21 36 37
f 21 37 38
f 21 38 39
f 21 39 40
f 21 40 22
f 23 41 42
f 23 42 43
f 23 43 44
f 23 44 24
f 24 44 45
f 25 46 26
f 25 47 48
f 25 48 46
f 26 46 49
f 26 49 48
f 26 48 50
f 26 50 29
f 26 29 27
f 28 31 51
f 29 50 52
f 29 52 30
f 30 52 53
f 30 53 31
f 31 53 54
f 31 54 51
f 32 51 55
f 32 55 33
f 33 55 79
f 33 79 56
f 33 56 34
f 34 56 57
f 34 57 58
f 34 58 59
f 34 59 35
f 35 59 38
f 35 38 36
f 36 38 37
f 41 60 61
f 41 61 42
f 42 61 89
f 42 89 62
f 42 62 43
f 43 62 63
f 43 63 45
f 43 45 44
f 45 63 65
f 45 65 64
f 46 48 49
f 47 66 53
f 47 53 67
f 47 67 48
f 48 67 53
f 48 53 50
f 50 53 52
f 51 54 68
f 51 68 69
f 51 69 70
f 51 70 55
f 53 71 72
f 53 72 77
f 53 77 54
f 53 66 73
f 53 73 74
f 53 74 75
f 53 75 76
f 53 76 71
f 54 77 68
f 55 70 78
f 55 78 79
f 56 79 78
f 56 78 80
f 56 80 81
f 56 81 82
f 56 82 57
f 57 82 108
f 57 108 83
f 57 83 58
f 58 83 84
f 60 85 86
f 60 86 61
f 61 86 87
f 61 87 88
f 61 88 89
f 62 89 90
f 62 90 63
f 63 90 65
f 64 65 91
f 65 90 92
f 65 92 93
f 65 93 91
f 68 77 94
f 68 94 95
f 68 95 69
f 69 95 78
f 69 78 70
f 71 96 72
f 72 96 97
f 72 97 98
f 72 98 99
f 72 99 100
f 72 100 101
f 72 101 102
f 72 102 103
f 72 103 104
f 72 104 77
f 77 95 94
f 77 104 105
f 77 105 95
f 78 95 106
f 78 106 80
f 80 106 81
f 81 106 107
f 81 107 82
f 82 107 108
f 83 108 109
f 83 109 84
f 84 109 85
f 85 109 87
f 85 87 86
f 87 110 111
f 87 111 88
f 87 109 108
f 87 108 112
f 87 112 113
f 87 113 110
f 88 111 89
f 89 111 110
f 89 110 114
f 89 114 113
f 89 113 90
f 90 113 115
f 90 115 92
f 91 93 116
f 92 117 118
f 92 118 93
f 92 115 113
f 92 113 117
f 93 118 119
f 93 119 120
f 93 120 116
f 95 105 121
f 95 121 106
f 102 122 103
f 103 123 124
f 103 124 126
f 103 126 104
f 103 122 125
f 103 125 123
f 104 126 127
f 104 127 106
f 104 106 105
f 105 106 121
f 106 127 128
f 106 128 129
f 106 129 130
f 106 130 117
f 106 117 112
f 106 112 107
f 107 112 108
f 110 113 114
f 112 117 113
f 117 130 118
f 118 130 131
f 118 131 119
f 119 131 132
f 119 132 133
f 119 133 134
f 119 134 135
f 119 135 120
f 123 136 124
f 124 136 137
f 124 137 138
f 124 138 139
f 124 139 140
f 124 140 134
f 124 134 133
f 124 133 126
f 126 133 127
f 127 133 128
f 128 133 129
f 129 133 130
f 130 133 132
f 130 132 131
f 134 140 141
f 134 141 135

