# https://github.com/mikedh/trimesh
v -0.01201868 -0.01898947 0.00503257
v -0.00348937 -0.00002444 0.00503257
v -0.00853699 -0.01898947 0.00503257
v -0.01063407 -0.01898947 0.01271076
v -0.00163405 -0.00002444 0.01828342
v -0.00184651 -0.00002444 0.01708255
v -0.00204065 -0.00002444 0.01588398
v -0.00104614 -0.00002444 0.00503257
v -0.00806263 -0.01844369 0.00503257
v 0.00669197 -0.00749461 0.02445766
v -0.00852784 -0.01898947 0.00508538
v -0.00948754 -0.01898947 0.01900210
v -0.00152783 -0.00002444 0.01885744
v -0.00104614 -0.00060178 0.00503257
v 0.00081467 -0.00002444 0.01900210
v 0.00669197 -0.00179359 0.02229702
v -0.00801135 -0.01838428 0.00503257
v 0.00669197 -0.00702494 0.02390429
v 0.00669197 -0.00753545 0.02548172
v -0.00641977 -0.01898947 0.01900210
v -0.00648937 -0.01898947 0.01847629
v -0.00668534 -0.01898947 0.01708255
v -0.00686483 -0.01898947 0.01590695
v -0.00834102 -0.01898947 0.00628625
v -0.00743809 -0.01770484 0.00503257
v -0.00696007 -0.01710708 0.00503257
v -0.00635750 -0.01627169 0.00503257
v -0.00594541 -0.01567764 0.00503257
v -0.00552051 -0.01500006 0.00503257
v -0.00497105 -0.01409599 0.00503257
v -0.00463039 -0.01349637 0.00503257
v -0.00461208 -0.01346295 0.00503257
v -0.00415054 -0.01259973 0.00503257
v -0.00289596 -0.01385094 0.02822557
v -0.00295823 -0.01385094 0.02820031
v -0.00382270 -0.01385094 0.02757348
v -0.00386116 -0.01385094 0.02753215
v -0.00462124 -0.01385094 0.02657926
v -0.00490878 -0.01385094 0.02613152
v -0.00005346 -0.00179359 0.02737831
v -0.00029889 -0.00179359 0.02668258
v -0.00061757 -0.00179359 0.02548172
v -0.00150035 -0.00002444 0.01900210
v -0.00114321 -0.00169892 0.00503257
v 0.00669197 -0.00180102 0.02229702
v 0.00669197 -0.00296313 0.02241412
v 0.00669197 -0.00302810 0.02242101
v 0.00669197 -0.00401757 0.02259781
v 0.00059855 -0.00179359 0.02793626
v 0.00158390 -0.00179359 0.02783523
v 0.00669197 -0.00179359 0.02617514
v 0.00669197 -0.00698224 0.02385837
v -0.00371831 -0.01172722 0.00503257
v 0.00669197 -0.00751875 0.02552994
v -0.00187947 -0.01385094 0.02793856
v -0.00111574 -0.01336085 0.02743800
v -0.00151134 -0.01385094 0.02671243
v -0.00194541 -0.01385094 0.02797989
v -0.00239046 -0.01335157 0.02848503
v -0.00240695 -0.01335157 0.02848503
v -0.00240695 -0.01317707 0.02848503
v -0.00115054 -0.00178060 0.00503257
v 0.00669197 -0.00416237 0.02262766
v -0.00239046 -0.01317707 0.02848503
v 0.00158024 -0.00180102 0.02784212
v 0.00669197 -0.00540059 0.02645527
v 0.00669197 -0.00638263 0.02347951
v -0.00345823 -0.01112574 0.00503257
v -0.00306812 -0.01019939 0.00503257
v -0.00260292 -0.00890919 0.00503257
v -0.00257545 -0.00882380 0.00503257
v -0.00242160 -0.00832999 0.00503257
v 0.00669197 -0.00724214 0.02611545
v 0.00059855 -0.00780092 0.02798678
v 0.00059855 -0.00660168 0.02803270
v 0.00669197 -0.00719388 0.02613611
v 0.00669197 -0.00660168 0.02634276
v 0.00669197 -0.00651072 0.02635424
v -0.00115786 -0.00184186 0.00503257
v 0.00669197 -0.00423477 0.02265062
v -0.00121647 -0.00229297 0.00503257
v 0.00157657 -0.00300211 0.02783294
v 0.00669197 -0.00546742 0.02306392
v -0.00230072 -0.00787889 0.00503257
v -0.00226226 -0.00773038 0.00503257
v -0.00198570 -0.00660168 0.00503257
v 0.00669197 -0.00540059 0.02303407
v -0.00131537 -0.00290929 0.00503257
v -0.00174211 -0.00540059 0.00503257
v -0.00173112 -0.00534490 0.00503257
v -0.00152233 -0.00414566 0.00503257
f 1 2 8
f 1 8 14
f 1 14 44
f 1 44 62
f 1 62 79
f 1 79 81
f 1 81 88
f 1 88 91
f 1 91 90
f 1 90 89
f 1 89 86
f 1 86 85
f 1 85 84
f 1 84 72
f 1 72 71
f 1 71 70
f 1 70 69
f 1 69 68
f 1 68 53
f 1 53 33
f 1 33 32
f 1 32 31
f 1 31 30
f 1 30 29
f 1 29 28
f 1 28 27
f 1 27 26
f 1 26 25
f 1 25 17
f 1 17 9
f 1 9 3
f 1 3 11
f 1 11 24
f 1 24 23
f 1 23 22
f 1 22 21
f 1 21 20
f 1 20 12
f 1 12 4
f 1 4 5
f 1 5 6
f 1 6 7
f 1 7 2
f 2 7 6
f 2 6 5
f 2 5 13
f 2 13 43
f 2 43 15
f 2 15 8
f 3 9 10
f 3 10 11
f 4 12 5
f 5 12 13
f 8 15 16
f 8 16 45
f 8 45 14
f 9 17 10
f 10 18 52
f 10 52 67
f 10 67 83
f 10 83 87
f 10 87 80
f 10 80 63
f 10 63 48
f 10 48 47
f 10 47 46
f 10 46 45
f 10 45 16
f 10 16 51
f 10 51 66
f 10 66 78
f 10 78 77
f 10 77 76
f 10 76 73
f 10 73 54
f 10 54 19
f 10 19 20
f 10 20 21
f 10 21 22
f 10 22 23
f 10 23 24
f 10 24 11
f 10 17 25
f 10 25 26
f 10 26 27
f 10 27 28
f 10 28 29
f 10 29 30
f 10 30 31
f 10 31 32
f 10 32 33
f 10 33 18
f 12 20 34
f 12 34 35
f 12 35 36
f 12 36 37
f 12 37 38
f 12 38 39
f 12 39 40
f 12 40 41
f 12 41 42
f 12 42 43
f 12 43 13
f 14 45 46
f 14 46 47
f 14 47 48
f 14 48 44
f 15 43 49
f 15 49 50
f 15 50 51
f 15 51 16
f 18 33 53
f 18 53 52
f 19 54 55
f 19 55 56
f 19 56 57
f 19 57 20
f 20 57 55
f 20 55 58
f 20 58 34
f 34 59 60
f 34 60 35
f 34 58 59
f 35 60 61
f 35 61 36
f 36 40 37
f 36 61 49
f 36 49 40
f 37 40 38
f 38 40 39
f 40 49 43
f 40 43 41
f 41 43 42
f 44 48 62
f 48 63 62
f 49 61 64
f 49 64 65
f 49 65 50
f 50 65 51
f 51 65 66
f 52 53 68
f 52 68 69
f 52 69 70
f 52 70 71
f 52 71 72
f 52 72 67
f 54 73 55
f 55 57 56
f 55 73 58
f 58 73 59
f 59 74 75
f 59 75 64
f 59 64 61
f 59 61 60
f 59 73 76
f 59 76 77
f 59 77 78
f 59 78 66
f 59 66 74
f 62 63 79
f 63 80 81
f 63 81 79
f 64 75 65
f 65 82 66
f 65 75 82
f 66 82 75
f 66 75 74
f 67 72 84
f 67 84 85
f 67 85 86
f 67 86 83
f 80 87 81
f 81 87 88
f 83 86 87
f 86 89 87
f 87 89 90
f 87 90 91
f 87 91 88

