# https://github.com/mikedh/trimesh
v -0.03317815 0.02725523 0.01900617
v -0.03317815 0.02793813 0.02548410
v -0.03317815 0.02958864 0.01900617
v -0.02005190 0.02604702 0.01900617
v -0.02005190 0.02653398 0.02548410
v -0.03317815 0.02822389 0.02650605
v -0.02005190 0.02676721 0.02636059
v -0.03317815 0.03094236 0.02674441
v -0.03268733 0.03124284 0.02719579
v -0.03299956 0.02961438 0.01900617
v -0.02005190 0.02831057 0.01900617
v -0.03317815 0.02827537 0.02668435
v -0.02005190 0.02685494 0.02666370
v -0.03317815 0.03095497 0.02792964
v -0.03268733 0.03124284 0.02757022
v -0.03059941 0.03139728 0.02788365
v -0.03179948 0.03130850 0.02709068
v -0.03179948 0.02976200 0.01900617
v -0.02005190 0.02986023 0.02695555
v -0.02102712 0.02861893 0.01900617
v -0.02030630 0.03002255 0.02721549
v -0.03317815 0.02860001 0.02735157
v -0.02005190 0.02738918 0.02752611
v -0.03317815 0.02867146 0.02748576
v -0.03317815 0.03089771 0.02800377
v -0.03216311 0.03108157 0.02836976
v -0.03136391 0.03121342 0.02849644
v -0.03177764 0.03129485 0.02793527
v -0.03059941 0.03135420 0.02701749
v -0.03059941 0.03124284 0.02852366
v -0.02939934 0.03126280 0.02854336
v -0.02939934 0.03141356 0.02788365
v -0.03057757 0.02985655 0.01900617
v -0.02005190 0.02979772 0.02762746
v -0.02030630 0.03002255 0.02737221
v -0.02153978 0.02877599 0.01900617
v -0.02169011 0.02881697 0.01900617
v -0.02219763 0.02893989 0.01900617
v -0.02299683 0.02912585 0.01900617
v -0.02340027 0.02921935 0.01900617
v -0.02618845 0.03123391 0.02721080
v -0.02005190 0.02801062 0.02810606
v -0.03317815 0.02925402 0.02808541
v -0.03317815 0.02916367 0.02799626
v -0.03317815 0.03032250 0.02855181
v -0.02939934 0.03135000 0.02700623
v -0.02939934 0.02988754 0.01900617
v -0.03005206 0.02987231 0.01900617
v -0.03059941 0.03059986 0.02857715
v -0.02819927 0.03123181 0.02851427
v -0.02939934 0.03059986 0.02859029
v -0.02460034 0.03023372 0.02859216
v -0.02340027 0.03015388 0.02857809
v -0.02819927 0.03137154 0.02788365
v -0.02819927 0.03133950 0.02702406
v -0.02005190 0.02964748 0.02788741
v -0.02163229 0.02988282 0.02847017
v -0.02100013 0.03010817 0.02763966
v -0.02618845 0.03123391 0.02749045
v -0.02460034 0.02945837 0.01900617
v -0.02532116 0.02956816 0.01900617
v -0.02580042 0.02964065 0.01900617
v -0.02652123 0.02971577 0.01900617
v -0.02699920 0.02976200 0.01900617
v -0.02699920 0.03129274 0.02710758
v -0.02005190 0.02862891 0.02856401
v -0.03317815 0.02976462 0.02849644
v -0.03317815 0.02985392 0.02855181
v -0.02896120 0.02987441 0.01900617
v -0.02757483 0.03120239 0.02848612
v -0.02460034 0.02973783 0.02859216
v -0.02005190 0.02902499 0.02856401
v -0.02243148 0.03007193 0.02853586
v -0.02710456 0.03127541 0.02788741
v -0.02824553 0.02985182 0.01900617
v -0.02209998 0.03024896 0.02799533
f 1 2 6
f 1 6 12
f 1 12 22
f 1 22 24
f 1 24 44
f 1 44 43
f 1 43 67
f 1 67 68
f 1 68 45
f 1 45 25
f 1 25 14
f 1 14 8
f 1 8 3
f 1 3 10
f 1 10 18
f 1 18 33
f 1 33 48
f 1 48 47
f 1 47 69
f 1 69 75
f 1 75 64
f 1 64 63
f 1 63 62
f 1 62 61
f 1 61 60
f 1 60 40
f 1 40 39
f 1 39 38
f 1 38 37
f 1 37 36
f 1 36 20
f 1 20 11
f 1 11 4
f 1 4 5
f 1 5 2
f 2 5 7
f 2 7 6
f 3 8 9
f 3 9 10
f 4 11 19
f 4 19 34
f 4 34 56
f 4 56 72
f 4 72 66
f 4 66 42
f 4 42 23
f 4 23 13
f 4 13 7
f 4 7 5
f 6 7 12
f 7 13 12
f 8 14 9
f 9 15 16
f 9 16 17
f 9 17 18
f 9 18 10
f 9 14 15
f 11 20 21
f 11 21 19
f 12 13 22
f 13 23 24
f 13 24 22
f 14 25 26
f 14 26 15
f 15 26 27
f 15 27 28
f 15 28 16
f 16 29 17
f 16 28 27
f 16 27 30
f 16 30 31
f 16 31 32
f 16 32 29
f 17 29 33
f 17 33 18
f 19 21 35
f 19 35 34
f 20 36 21
f 21 36 37
f 21 37 38
f 21 38 39
f 21 39 40
f 21 40 41
f 21 41 59
f 21 59 35
f 23 42 43
f 23 43 44
f 23 44 24
f 25 45 26
f 26 45 27
f 27 45 30
f 29 32 46
f 29 46 47
f 29 47 48
f 29 48 33
f 30 45 49
f 30 49 31
f 31 50 32
f 31 49 51
f 31 51 52
f 31 52 53
f 31 53 50
f 32 50 54
f 32 54 55
f 32 55 46
f 34 35 57
f 34 57 56
f 35 58 57
f 35 59 58
f 40 60 41
f 41 60 61
f 41 61 62
f 41 62 63
f 41 63 64
f 41 64 65
f 41 65 59
f 42 66 67
f 42 67 43
f 45 68 51
f 45 51 49
f 46 55 47
f 47 55 69
f 50 70 54
f 50 53 70
f 51 68 71
f 51 71 52
f 52 71 66
f 52 66 72
f 52 72 53
f 53 72 73
f 53 73 70
f 54 70 74
f 54 74 59
f 54 59 65
f 54 65 55
f 55 65 75
f 55 75 69
f 56 57 72
f 57 58 76
f 57 76 73
f 57 73 72
f 58 59 76
f 59 74 70
f 59 70 76
f 64 75 65
f 66 71 68
f 66 68 67
f 70 73 76

