# https://github.com/mikedh/trimesh
v -0.02989148 0.02987581 0.01900390
v -0.03318016 0.03094151 0.02674205
v -0.03318016 0.03095441 0.02792819
v -0.03318016 0.03089696 0.02800350
v -0.03318016 0.03032132 0.02855186
v -0.02989148 0.02754276 0.01900390
v -0.02989148 0.02847129 0.00453957
v -0.03420087 0.03075276 0.02668321
v -0.03540328 0.03053821 0.02668321
v -0.03660344 0.03043035 0.02788348
v -0.03005749 0.02847832 0.00453957
v -0.03060261 0.02849943 0.00453957
v -0.03125765 0.02846777 0.00453957
v -0.03180277 0.02844081 0.00453957
v -0.03300294 0.02826846 0.00453957
v -0.03747609 0.03006574 0.02854009
v -0.03660344 0.03013608 0.02858010
v -0.03540328 0.03018532 0.02858010
v -0.03318016 0.02985236 0.02855186
v -0.03318016 0.02976443 0.02849537
v -0.03318016 0.02925327 0.02808352
v -0.03318016 0.02916183 0.02799644
v -0.03318016 0.02867059 0.02748339
v -0.03318016 0.02859908 0.02734924
v -0.03318016 0.02827433 0.02668321
v -0.03318016 0.02822274 0.02650435
v -0.03318016 0.02793785 0.02548295
v -0.04989726 0.01897728 0.01900390
v -0.02989148 0.02750993 0.01875914
v -0.02989148 0.02579355 0.00453957
v -0.03780137 0.03011732 0.02704329
v -0.03420311 0.02804454 0.00453957
v -0.03842501 0.03000477 0.02726687
v -0.03842501 0.03000477 0.02735866
v -0.03784623 0.03013373 0.02780817
v -0.04105864 0.02887576 0.02853774
v -0.04020170 0.02897424 0.02858010
v -0.04143103 0.02895431 0.02785288
v -0.04259755 0.02788744 0.02858245
v -0.03540328 0.02968588 0.02858010
v -0.04756871 0.02395642 0.02849067
v -0.04756871 0.02444061 0.02856598
v -0.04756871 0.02428820 0.02855656
v -0.04756871 0.02335850 0.02797291
v -0.04756871 0.02314981 0.02774933
v -0.04756871 0.02277699 0.02730923
v -0.04756871 0.02235610 0.02664556
v -0.04756871 0.02329167 0.02790230
v -0.04756871 0.02226232 0.02642669
v -0.05280907 0.01897728 0.01900390
v -0.04602532 0.01897728 0.00453957
v -0.02989148 0.02739034 0.01779422
v -0.03550871 0.02773854 0.00453957
v -0.04204570 0.02881949 0.02724334
v -0.03652942 0.02747358 0.00453957
v -0.03780361 0.02712070 0.00453957
v -0.03900154 0.02675960 0.00453957
v -0.03947039 0.02660953 0.00453957
v -0.03985175 0.02648643 0.00453957
v -0.04204570 0.02881949 0.02743397
v -0.04185502 0.02867177 0.02823414
v -0.04430246 0.02748883 0.02836593
v -0.04350160 0.02771041 0.02854950
v -0.04259755 0.02729186 0.02858245
v -0.04499789 0.02669512 0.02857304
v -0.04756871 0.02458013 0.02856362
v -0.05214057 0.01984133 0.01900390
v -0.05199475 0.01990229 0.01826962
v -0.05272831 0.01897728 0.01841083
v -0.04756871 0.02526011 0.02854480
v -0.04756871 0.02534453 0.02852832
v -0.04756871 0.02564231 0.02806940
v -0.04756871 0.02571031 0.02782935
v -0.05070709 0.01897728 0.00453957
v -0.04451109 0.02765413 0.02717744
v -0.04045295 0.02627306 0.00453957
v -0.04139739 0.02590845 0.00453957
v -0.04267158 0.02539494 0.00453957
v -0.04451109 0.02765413 0.02756576
v -0.04386053 0.02784054 0.02793290
v -0.04583240 0.02650402 0.02854480
v -0.04621825 0.02661774 0.02780346
v -0.04663325 0.02624727 0.02814942
v -0.05180856 0.02026925 0.01900390
v -0.05162909 0.02044042 0.01866029
v -0.05199027 0.01969830 0.01708348
v -0.05271036 0.01897728 0.01828374
v -0.04739822 0.02539494 0.02854244
v -0.04681496 0.02641023 0.02734924
v -0.04681496 0.02641023 0.02726216
v -0.04756871 0.02564935 0.02681736
v -0.05165152 0.02046856 0.01900390
v -0.05046033 0.01927272 0.00453957
v -0.05185791 0.01897728 0.01231774
v -0.05159544 0.01920003 0.01169172
v -0.05165601 0.01927389 0.01249189
v -0.05157077 0.02036891 0.01786012
v -0.04369004 0.02489081 0.00453957
v -0.05108397 0.02107586 0.01900390
v -0.05039527 0.02160109 0.01768596
v -0.05090899 0.02094924 0.01708348
v -0.05255109 0.01897728 0.01716114
v -0.05190502 0.01958692 0.01588557
v -0.04475785 0.02424013 0.00453957
v -0.04535682 0.02383332 0.00453957
v -0.04585707 0.02347808 0.00453957
v -0.04623843 0.02319202 0.00453957
v -0.04652558 0.02297044 0.00453957
v -0.04677010 0.02277817 0.00453957
v -0.04703705 0.02256362 0.00453957
v -0.04733765 0.02230804 0.00453957
v -0.04807121 0.02167260 0.00453957
v -0.05049174 0.02169019 0.01900390
v -0.04989502 0.01987181 0.00453957
v -0.05181753 0.01947672 0.01468531
v -0.05173004 0.01936534 0.01348505
v -0.04901788 0.02077104 0.00453957
v -0.04929605 0.02049787 0.00453957
v -0.04956749 0.02021884 0.00453957
f 1 2 3
f 1 3 4
f 1 4 5
f 1 5 19
f 1 19 6
f 1 6 29
f 1 29 52
f 1 52 30
f 1 30 7
f 1 7 2
f 2 8 9
f 2 9 10
f 2 10 3
f 2 7 11
f 2 11 12
f 2 12 13
f 2 13 14
f 2 14 15
f 2 15 8
f 3 10 16
f 3 16 17
f 3 17 4
f 4 17 5
f 5 17 18
f 5 18 40
f 5 40 19
f 6 19 20
f 6 20 21
f 6 21 22
f 6 22 23
f 6 23 24
f 6 24 25
f 6 25 26
f 6 26 27
f 6 27 28
f 6 28 29
f 7 30 51
f 7 51 74
f 7 74 93
f 7 93 114
f 7 114 119
f 7 119 118
f 7 118 117
f 7 117 112
f 7 112 111
f 7 111 110
f 7 110 109
f 7 109 108
f 7 108 107
f 7 107 106
f 7 106 105
f 7 105 104
f 7 104 98
f 7 98 78
f 7 78 77
f 7 77 76
f 7 76 59
f 7 59 58
f 7 58 57
f 7 57 56
f 7 56 55
f 7 55 53
f 7 53 32
f 7 32 15
f 7 15 14
f 7 14 13
f 7 13 12
f 7 12 11
f 8 15 9
f 9 31 10
f 9 15 32
f 9 32 31
f 10 31 33
f 10 33 34
f 10 34 35
f 10 35 16
f 16 36 37
f 16 37 17
f 16 35 38
f 16 38 36
f 17 37 39
f 17 39 18
f 18 39 64
f 18 64 40
f 19 41 20
f 19 40 42
f 19 42 43
f 19 43 41
f 20 41 21
f 21 44 22
f 21 41 44
f 22 44 23
f 23 45 46
f 23 46 47
f 23 47 24
f 23 44 48
f 23 48 45
f 24 47 25
f 25 47 49
f 25 49 28
f 25 28 26
f 26 28 27
f 28 50 69
f 28 69 87
f 28 87 102
f 28 102 94
f 28 94 74
f 28 74 51
f 28 51 30
f 28 30 52
f 28 52 29
f 28 49 47
f 28 47 50
f 31 32 33
f 32 53 33
f 33 54 60
f 33 60 34
f 33 53 55
f 33 55 56
f 33 56 57
f 33 57 58
f 33 58 59
f 33 59 54
f 34 60 35
f 35 60 38
f 36 61 62
f 36 62 63
f 36 63 37
f 36 38 61
f 37 63 39
f 38 60 61
f 39 63 65
f 39 65 42
f 39 42 64
f 40 64 42
f 41 43 50
f 41 50 44
f 42 65 66
f 42 66 50
f 42 50 43
f 44 50 48
f 45 48 50
f 45 50 46
f 46 50 47
f 50 67 68
f 50 68 69
f 50 66 70
f 50 70 71
f 50 71 72
f 50 72 73
f 50 73 67
f 54 75 79
f 54 79 60
f 54 59 76
f 54 76 77
f 54 77 78
f 54 78 75
f 60 79 61
f 61 79 80
f 61 80 62
f 62 81 63
f 62 80 79
f 62 79 82
f 62 82 83
f 62 83 81
f 63 81 65
f 65 81 70
f 65 70 66
f 67 73 84
f 67 84 68
f 68 84 85
f 68 85 86
f 68 86 69
f 69 86 87
f 70 81 88
f 70 88 71
f 71 88 81
f 71 81 83
f 71 83 72
f 72 83 89
f 72 89 73
f 73 89 90
f 73 90 91
f 73 91 92
f 73 92 84
f 74 94 95
f 74 95 96
f 74 96 97
f 74 97 93
f 75 90 89
f 75 89 79
f 75 78 98
f 75 98 90
f 79 89 82
f 82 89 83
f 84 92 85
f 85 92 99
f 85 99 100
f 85 100 101
f 85 101 97
f 85 97 86
f 86 102 87
f 86 97 103
f 86 103 102
f 90 98 104
f 90 104 105
f 90 105 106
f 90 106 107
f 90 107 108
f 90 108 109
f 90 109 110
f 90 110 111
f 90 111 112
f 90 112 91
f 91 112 100
f 91 100 113
f 91 113 99
f 91 99 92
f 93 97 101
f 93 101 100
f 93 100 114
f 94 102 115
f 94 115 116
f 94 116 96
f 94 96 95
f 96 116 97
f 97 116 115
f 97 115 103
f 99 113 100
f 100 112 117
f 100 117 118
f 100 118 119
f 100 119 114
f 102 103 115

