# https://github.com/mikedh/trimesh
v -0.02617993 0.05515884 0.01205876
v -0.02617993 0.05490898 0.01085227
v -0.02714203 0.05468614 0.01205876
v -0.02695701 0.05459160 0.01296978
v -0.02617993 0.05511157 0.01223463
v 0.00126950 0.04154529 0.01925199
v 0.00126950 0.04154529 0.01652946
v -0.02617993 0.05452408 0.01013822
v -0.02662398 0.05442954 0.01024023
v -0.02689040 0.05455784 0.01085227
v -0.02774149 0.05438227 0.01205876
v -0.02645376 0.05434175 0.01377528
v -0.02617993 0.05463887 0.01349389
v -0.02617993 0.05476717 0.01326877
v -0.02842976 0.05402437 0.01205876
v -0.02931045 0.05336936 0.01294868
v -0.02845197 0.05360570 0.01332153
v -0.02887381 0.05311950 0.01375418
v -0.02729745 0.05419319 0.01332857
v 0.00180976 0.01270429 0.03501729
v 0.00295688 0.01276506 0.03477810
v 0.00422981 0.01148879 0.03523889
v 0.00551754 0.01159008 0.03485548
v 0.00664986 0.01123894 0.03468313
v 0.00738994 0.01098909 0.03452132
v 0.00781918 0.01027330 0.03474996
v 0.00867027 0.00986813 0.03457057
v 0.00985439 0.00867965 0.03456705
v 0.01094970 0.00737637 0.03449319
v 0.01201542 0.00591102 0.03433842
v 0.01224484 0.00633644 0.03353291
v 0.01234845 0.00649176 0.03314599
v 0.01282950 0.00549235 0.03314599
v 0.01320694 0.00460774 0.03314599
v 0.01455388 0.00166354 0.03112345
v 0.01456128 0.00166354 0.03068025
v -0.00000343 0.04209901 0.01906908
v -0.02617993 0.05259954 0.00918147
v -0.02617993 0.05381504 0.00963522
v 0.01421344 0.00166354 0.03007524
v 0.01308853 0.00166354 0.02821450
v 0.01319214 0.00061011 0.02821450
v 0.01319954 -0.00059863 0.02821450
v 0.01302932 -0.00311741 0.02821450
v 0.01294051 -0.00423161 0.02821450
v 0.01260007 -0.00539984 0.02821450
v -0.05260066 0.00666058 -0.00010817
v -0.04449682 0.02970096 0.00004308
v -0.04449682 0.03082192 -0.00006596
v -0.04449682 0.03199690 0.00011694
v -0.02817814 0.05339636 0.01007139
v -0.02899222 0.05318703 0.01028595
v -0.02933266 0.05336936 0.01109145
v -0.02806713 0.05333559 0.01400392
v -0.02617993 0.05440928 0.01384563
v -0.03165650 0.05212009 0.01118643
v -0.03008013 0.05311950 0.01205876
v -0.03161949 0.05209984 0.01285722
v -0.03082021 0.05231592 0.01326173
v -0.03121245 0.05184999 0.01366272
v -0.03039837 0.05209309 0.01396523
v 0.00059603 0.01270429 0.03512633
v 0.00301609 0.01148879 0.03540421
v 0.00542873 0.01028005 0.03543235
v 0.00664986 0.01028005 0.03518964
v 0.00784878 0.00907131 0.03527055
v 0.00906991 0.00907806 0.03477810
v 0.01026143 0.00780854 0.03472182
v 0.01118653 0.00666058 0.03464795
v 0.01219303 0.00510069 0.03452132
v 0.01318474 0.00302760 0.03424696
v 0.01299231 0.00424309 0.03380728
v 0.01245206 0.00547884 0.03389170
v 0.01336976 0.00384468 0.03338870
v 0.01343636 0.00397298 0.03314599
v 0.01453908 0.00166354 0.03121490
v 0.01459088 0.00053583 0.03146464
v 0.01460568 0.00061011 0.03058528
v 0.01427265 0.00061011 0.02998027
v -0.02617993 0.05377452 0.01440139
v -0.02617993 0.05305873 0.01498529
v 0.01426525 -0.00059863 0.02998027
v 0.01461308 -0.00059863 0.03058528
v 0.01454648 -0.00180737 0.03071190
v 0.01450947 -0.00242863 0.03079632
v 0.01137895 -0.00781057 0.02821450
v -0.05260066 0.00545183 0.00008529
v 0.01346597 -0.00543360 0.03049030
v 0.01332535 -0.00608862 0.03074708
v -0.05354796 0.00545183 0.00024357
v -0.05260066 0.00786932 -0.00018556
v -0.04534791 0.02962668 -0.00025239
v -0.04537011 0.03078816 0.00010991
v -0.04498527 0.03176731 0.00027523
v -0.04468924 0.03257763 0.00072547
v -0.04449682 0.03238181 0.00043352
v -0.03050938 0.05214710 0.01010304
v -0.03132346 0.05192427 0.01038092
v -0.02721604 0.05279537 0.01479887
v -0.02721604 0.05329508 0.01440139
v -0.02721604 0.05355168 0.01419035
v -0.02963609 0.05230242 0.01414814
v -0.03204874 0.05168792 0.01081357
v -0.03321806 0.05101940 0.01094020
v -0.03389893 0.05081006 0.01140099
v -0.03173050 0.05216736 0.01205876
v -0.03084241 0.05268058 0.01205876
v -0.03315885 0.05095863 0.01315269
v -0.03267780 0.05080331 0.01388784
v -0.03386932 0.05078981 0.01267080
v -0.03204874 0.05099238 0.01405668
v -0.03082761 0.05129626 0.01440139
v 0.00059603 0.01148879 0.03553787
v 0.00180976 0.01148879 0.03549566
v -0.02617993 0.05253201 0.01525966
v -0.00061029 0.01270429 0.03512281
v 0.00000397 0.01211005 0.03533034
v 0.00422981 0.01028005 0.03554843
v 0.00664986 0.00907131 0.03550973
v 0.00784878 0.00786932 0.03550973
v 0.00905511 0.00786932 0.03525296
v 0.01026883 0.00666058 0.03512633
v 0.01155657 0.00547884 0.03479920
v 0.01236325 0.00422959 0.03465147
v 0.01328835 0.00237933 0.03441932
v 0.01348817 0.00302760 0.03364196
v 0.01371019 0.00302760 0.03314599
v 0.01445027 0.00166354 0.03172142
v 0.01448727 0.00090048 0.03190784
v 0.01459088 -0.00051760 0.03145761
v 0.01451687 0.00009015 0.03202392
v 0.01451687 -0.00006516 0.03202392
v -0.02629834 0.05372050 0.01440139
v -0.02626874 0.05303172 0.01497474
v -0.02785250 0.05201205 0.01509785
v -0.02721604 0.05218087 0.01518579
v 0.01454648 -0.00180737 0.03102848
v 0.01450947 -0.00242863 0.03081743
v 0.01396922 -0.00422486 0.03140485
v 0.01229664 -0.00756747 0.03045161
v 0.01089790 -0.00968784 0.03077522
v 0.01026143 -0.00905308 0.02821450
v -0.05197159 0.00479006 0.00052497
v -0.05260066 0.00460774 0.00040538
v -0.05340734 0.00459423 0.00039483
v 0.01332535 -0.00608862 0.03092999
v 0.01234105 -0.00764850 0.03140485
v 0.01194881 -0.00824950 0.03140485
v -0.05354796 0.00666058 0.00019081
v -0.06046767 -0.00026775 0.01025078
v -0.05260066 0.00907806 -0.00019259
v -0.04898169 0.02237423 -0.00026998
v -0.04785677 0.02606798 0.00001846
v -0.04875966 0.02479171 0.00011694
v -0.04662084 0.02842469 0.00004308
v -0.04752373 0.02720920 0.00015916
v -0.04622860 0.02962668 0.00022951
v -0.04602138 0.03034923 0.00045814
v -0.05087628 0.03278697 0.01015932
v -0.04952934 0.03500187 0.01032464
v -0.04843403 0.03635242 0.01019098
v -0.04582156 0.03976256 0.01045831
v -0.04464484 0.04101182 0.01038796
v -0.04346072 0.04225433 0.01034575
v -0.04224699 0.04345632 0.01035278
v -0.04101847 0.04463805 0.01039851
v -0.03893885 0.04615066 0.01009249
v -0.03765852 0.04728512 0.01014174
v -0.03634118 0.04841959 0.01020505
v -0.03500904 0.04952704 0.01032464
v -0.03420236 0.04979715 0.01005028
v -0.03278881 0.05087084 0.01016988
v -0.03204874 0.05109368 0.00997993
v -0.03358810 0.05060748 0.01059549
v -0.02967309 0.05195803 0.01440139
v -0.02973230 0.05139080 0.01481294
v -0.02865919 0.05179596 0.01495364
v -0.03389153 0.05081006 0.01205876
v -0.03326246 0.05122198 0.01205876
v -0.03528287 0.04973638 0.01113015
v -0.03873903 0.04719059 0.01139396
v -0.03596374 0.04934471 0.01205876
v -0.03535688 0.04978364 0.01205876
v -0.03449839 0.05039139 0.01205876
v -0.03348448 0.05053995 0.01347630
v -0.03489063 0.04945276 0.01368735
v -0.03627458 0.04835881 0.01386322
v -0.03409135 0.04972962 0.01401447
v -0.03315885 0.05015505 0.01416572
v -0.03871683 0.04717708 0.01268135
v -0.03524587 0.04969586 0.01288185
v -0.03268520 0.05015505 0.01440139
v -0.03207094 0.05014829 0.01470390
v -0.03084241 0.05057372 0.01494308
v -0.00061029 0.01148879 0.03553435
v -0.00061029 0.01069197 0.03563285
v 0.00000397 0.01065145 0.03563285
v 0.00059603 0.01060418 0.03563285
v 0.00304569 0.01017201 0.03560822
v -0.02721604 0.05139755 0.01549533
v -0.00423666 0.01148879 0.03526703
v -0.00303034 0.01148879 0.03541476
v -0.00181661 0.01148879 0.03549215
v 0.00542873 0.00907131 0.03559415
v 0.00664986 0.00786932 0.03559415
v 0.00784878 0.00666058 0.03558360
v 0.00905511 0.00544508 0.03555546
v 0.00905511 0.00666058 0.03547456
v 0.01026883 0.00544508 0.03536903
v 0.01147516 0.00422959 0.03513337
v 0.01257787 0.00302760 0.03476755
v 0.01334015 0.00157575 0.03447560
v 0.01356958 0.00191339 0.03394094
v 0.01391741 0.00185937 0.03314599
v 0.01280730 0.00191339 0.03477106
v 0.01416904 0.00166354 0.03260079
v 0.01448727 -0.00086874 0.03189377
v 0.01430225 0.00053583 0.03250230
v 0.01373979 0.00061011 0.03382486
v 0.01394701 -0.00057162 0.03333242
v 0.01429485 -0.00051760 0.03250230
v 0.01413943 -0.00180737 0.03261486
v -0.03019854 0.05076279 0.01506971
v -0.02939186 0.05098564 0.01519282
v -0.02832615 0.05139080 0.01526317
v 0.01443547 -0.00180737 0.03163348
v 0.01432445 -0.00290132 0.03129580
v 0.01391741 -0.00301612 0.03261486
v 0.01356217 -0.00421811 0.03263948
v 0.01341416 -0.00510272 0.03225256
v 0.01351037 -0.00547412 0.03136264
v 0.01089790 -0.00968784 0.03087723
v 0.00968418 -0.01088982 0.03078225
v 0.00906251 -0.01027532 0.02821450
v 0.00798200 -0.01116669 0.02821450
v -0.05312611 0.00360158 0.00167518
v -0.05326673 0.00360158 0.00167518
v -0.05997922 -0.00026775 0.00987441
v -0.06027525 -0.00026775 0.01009601
v 0.01323654 -0.00590629 0.03173549
v 0.01297751 -0.00655456 0.03136264
v 0.01221524 -0.00745943 0.03225607
v 0.01111992 -0.00874920 0.03261486
v 0.01080169 -0.00957979 0.03168273
v 0.01126054 -0.00913411 0.03133098
v -0.05345915 0.00786932 0.00021192
v -0.06046767 -0.00009218 0.01024374
v -0.06046767 0.00013742 0.01024374
v -0.06046027 0.00094775 0.01025430
v -0.06044547 0.00182561 0.01027188
v -0.06043067 0.00302760 0.01030706
v -0.06040107 0.00423634 0.01036334
v -0.06035666 0.00545183 0.01044776
v -0.06068229 -0.00026775 0.01073971
v -0.00181661 -0.01369221 0.03313896
v -0.00302294 -0.01347613 0.03313896
v -0.05250445 0.01270429 -0.00000968
v -0.05140174 0.01512177 -0.00022073
v -0.05018801 0.01874800 -0.00024887
v -0.05018801 0.01995674 -0.00019259
v -0.04986978 0.02237423 0.00016619
v -0.04969956 0.02326559 0.00037372
v -0.04853764 0.02570333 0.00033503
v -0.04729431 0.02803303 0.00038779
v -0.05320012 0.02899868 0.01026837
v -0.05191979 0.03131487 0.01038444
v -0.05060245 0.03359730 0.01060956
v -0.05080228 0.03388767 0.01141858
v -0.04972916 0.03527873 0.01112663
v -0.04861165 0.03658877 0.01085227
v -0.04813060 0.03718976 0.01085227
v -0.04696868 0.03847279 0.01061308
v -0.04604358 0.04001241 0.01126733
v -0.04487426 0.04126167 0.01119346
v -0.04417119 0.04176137 0.01076785
v -0.04369754 0.04249742 0.01115125
v -0.04250602 0.04369941 0.01115829
v -0.04127009 0.04488115 0.01120401
v -0.04001936 0.04604262 0.01128140
v -0.03974553 0.04580627 0.01047590
v -0.03846520 0.04695424 0.01058846
v -0.03719227 0.04812247 0.01085227
v -0.03658541 0.04860191 0.01085227
v -0.03568991 0.04925018 0.01077840
v -0.03934589 0.04669088 0.01205876
v -0.03873903 0.04719059 0.01205876
v -0.03737729 0.04827778 0.01205876
v -0.04068543 0.04554967 0.01205876
v -0.04007117 0.04608989 0.01205876
v -0.03546789 0.04864243 0.01410241
v -0.03660021 0.04860191 0.01305772
v -0.03695544 0.04813597 0.01338484
v -0.03840599 0.04692048 0.01348685
v -0.03759931 0.04724461 0.01395116
v -0.03689624 0.04752147 0.01415869
v -0.03438738 0.04891929 0.01446119
v -0.03326246 0.04919615 0.01483404
v -0.03319585 0.04982416 0.01440139
v -0.04001936 0.04604262 0.01282205
v -0.03247798 0.04945276 0.01501695
v -0.00303034 0.01038134 0.03560822
v -0.00181661 0.01053666 0.03562229
v -0.00061029 0.01008422 0.03565043
v -0.00370381 0.00969931 0.03563988
v -0.00181661 0.00992891 0.03564692
v 0.00266085 0.00969931 0.03563988
v 0.00346753 0.00938193 0.03563988
v -0.02973230 0.05029010 0.01538277
v -0.00665671 0.01028005 0.03522130
v -0.00545039 0.01028005 0.03546401
v -0.00416266 0.01017876 0.03558712
v 0.00664986 0.00666058 0.03561174
v 0.00542873 0.00786932 0.03562229
v 0.00784878 0.00544508 0.03560119
v 0.00905511 0.00422959 0.03558008
v 0.01026883 0.00302760 0.03552732
v 0.01026883 0.00422959 0.03547808
v 0.01147516 0.00302760 0.03529165
v 0.01337716 0.00061011 0.03451429
v 0.01278510 0.00166354 0.03480272
v 0.01268889 0.00061011 0.03493639
v 0.01391741 0.00110306 0.03333242
v 0.01410243 0.00166354 0.03276611
v 0.01373239 -0.00059863 0.03382486
v 0.01382120 -0.00180737 0.03333242
v -0.03167130 0.04971611 0.01515765
v -0.03084241 0.04996597 0.01526669
v 0.01356217 -0.00180737 0.03390928
v 0.01359178 -0.00301612 0.03333242
v 0.01336236 -0.00381294 0.03336408
v 0.01334755 -0.00390073 0.03333242
v 0.01322174 -0.00462327 0.03306157
v 0.01306632 -0.00547412 0.03263948
v 0.00958796 -0.01080879 0.03167569
v 0.00968418 -0.01088982 0.03087019
v 0.00819662 -0.01191624 0.03140485
v 0.00798200 -0.01204454 0.03140485
v 0.00798200 -0.01182170 0.03050789
v 0.00301609 -0.01343561 0.03333242
v 0.00180976 -0.01363144 0.03333242
v 0.00000397 -0.01382052 0.03313896
v -0.00061029 -0.01382727 0.03313896
v -0.05865448 -0.00026775 0.00932920
v 0.01245946 -0.00668286 0.03264299
v 0.01214863 -0.00663559 0.03333242
v 0.01200802 -0.00711504 0.03306157
v 0.01175639 -0.00785784 0.03264299
v 0.01093490 -0.00852636 0.03331131
v 0.01058707 -0.00935020 0.03261486
v 0.00998020 -0.00998495 0.03261486
v -0.05337034 0.00907806 0.00029282
v -0.05238604 0.01391303 0.00002901
v -0.06030485 0.00666058 0.01056383
v -0.06068229 0.00056959 0.01073619
v -0.06071190 0.00302760 0.01091206
v -0.06068229 0.00423634 0.01096834
v -0.06063789 0.00545183 0.01105276
v -0.06058608 0.00666058 0.01116532
v -0.06099313 -0.00026775 0.01205876
v -0.06071930 0.00182561 0.01087689
v -0.00181661 -0.01349639 0.03362789
v -0.00302294 -0.01337484 0.03339925
v -0.00366680 -0.01330056 0.03324448
v -0.00373341 -0.01332082 0.03313896
v -0.05140174 0.01633052 -0.00011872
v -0.05114271 0.01874800 0.00010288
v -0.05095029 0.01995674 0.00032799
v -0.05082448 0.02063877 0.00051090
v -0.05672289 0.02146261 0.01042665
v -0.05559057 0.02410293 0.01029651
v -0.05442125 0.02660820 0.01024726
v -0.05456186 0.02690532 0.01085227
v -0.05338514 0.02934982 0.01107387
v -0.05211961 0.03163225 0.01118994
v -0.05168297 0.03203741 0.01081357
v -0.05100950 0.03321239 0.01095075
v -0.05080228 0.03388767 0.01181605
v -0.04978837 0.03535302 0.01205876
v -0.04935172 0.03596076 0.01205876
v -0.05267467 0.03083543 0.01205876
v -0.05215661 0.03169978 0.01205876
v -0.05179398 0.03230077 0.01205876
v -0.04874486 0.03677109 0.01205876
v -0.04717590 0.03871589 0.01141858
v -0.04745713 0.03808112 0.01095075
v -0.04608059 0.04005968 0.01205876
v -0.04554773 0.04066068 0.01205876
v -0.04494087 0.04134270 0.01205876
v -0.04438581 0.04194370 0.01205876
v -0.04377895 0.04258521 0.01205876
v -0.04319429 0.04318621 0.01205876
v -0.04258743 0.04378720 0.01205876
v -0.04195096 0.04438820 0.01205876
v -0.04134410 0.04494867 0.01205876
v -0.03617836 0.04771055 0.01440139
v -0.03566031 0.04808870 0.01440139
v -0.03469081 0.04808195 0.01491143
v -0.03970853 0.04576576 0.01362755
v -0.03890184 0.04611690 0.01401447
v -0.03803596 0.04653557 0.01421145
v -0.03693324 0.04656934 0.01479535
v -0.03604515 0.04698125 0.01498178
v -0.03389153 0.04838583 0.01509082
v -0.04127749 0.04488115 0.01289592
v -0.04098146 0.04461104 0.01370142
v -0.00181661 0.00907131 0.03565747
v -0.00061029 0.00907131 0.03565747
v -0.00303034 0.00907131 0.03565043
v -0.00451049 0.00934817 0.03562933
v -0.00496194 0.00854459 0.03563988
v 0.00368215 0.00858511 0.03563988
v -0.00786304 0.00907131 0.03530924
v -0.03207094 0.04902058 0.01533001
v -0.03326246 0.04776457 0.01549533
v -0.03565291 0.04656934 0.01530187
v -0.00665671 0.00907131 0.03553084
v -0.00539118 0.00900378 0.03561174
v 0.00414100 0.00789633 0.03563636
v 0.00784878 0.00302760 0.03560471
v 0.00905511 0.00302760 0.03558712
v 0.01026883 0.00181885 0.03554491
v 0.01147516 0.00061011 0.03540069
v 0.01147516 0.00181885 0.03536200
v 0.01336976 -0.00059863 0.03450374
v 0.01268889 -0.00059863 0.03492935
v 0.01147516 -0.00059863 0.03539717
v 0.01333275 -0.00140896 0.03446505
v -0.03326246 0.04859516 0.01518931
v 0.01324394 -0.00221254 0.03437007
v 0.01347337 -0.00301612 0.03358568
v 0.01314033 -0.00301612 0.03419068
v 0.01297011 -0.00421811 0.03378969
v 0.01296271 -0.00489338 0.03333242
v 0.01223744 -0.00630471 0.03351181
v 0.00935114 -0.01058595 0.03261486
v 0.00874428 -0.01110591 0.03261486
v 0.00913652 -0.01123422 0.03132746
v 0.00798200 -0.01199052 0.03163348
v 0.00615401 -0.01235517 0.03333242
v 0.00485888 -0.01286163 0.03333242
v 0.00375616 -0.01325329 0.03333242
v 0.00340833 -0.01334782 0.03333242
v 0.00301609 -0.01338834 0.03342388
v 0.00180976 -0.01350314 0.03362437
v 0.00059603 -0.01356391 0.03371934
v 0.00059603 -0.01373273 0.03333242
v -0.00061029 -0.01356391 0.03372989
v 0.01178599 -0.00668286 0.03387763
v 0.01194141 -0.00697323 0.03333242
v 0.01094230 -0.00849935 0.03333242
v 0.01020223 -0.00899230 0.03374396
v 0.00980259 -0.00974186 0.03333242
v -0.05327413 0.01028680 0.00043000
v -0.05932795 0.01150230 0.01016284
v -0.05226022 0.01512177 0.00013805
v -0.06051207 0.00786932 0.01133416
v -0.06047508 0.00852434 0.01143968
v -0.06022345 0.00786932 0.01073267
v -0.05926875 0.01216407 0.01022967
v -0.06098573 0.00061686 0.01205876
v -0.06095612 0.00182561 0.01205876
v -0.06092652 0.00302760 0.01205876
v -0.06087471 0.00423634 0.01205876
v -0.06079331 0.00545183 0.01205876
v -0.06071930 -0.00026775 0.01318083
v -0.06071930 0.00061686 0.01317731
v -0.00181661 -0.01315875 0.03423289
v -0.00302294 -0.01304395 0.03400426
v -0.00413305 -0.01289539 0.03371934
v -0.00543559 -0.01236867 0.03385300
v -0.00436988 -0.01309122 0.03313896
v -0.05981641 -0.00026775 0.01440139
v -0.06024565 -0.00026775 0.01395819
v -0.06040847 -0.00026775 0.01378584
v -0.05210481 0.01633052 0.00038779
v -0.05793661 0.01780261 0.01041962
v -0.05686350 0.02065228 0.01021560
v -0.05815123 0.01848464 0.01122512
v -0.05706332 0.02109796 0.01083820
v -0.05694491 0.02203659 0.01122864
v -0.05576819 0.02460939 0.01107035
v -0.05579779 0.02457562 0.01110552
v -0.05402901 0.02841794 0.01205876
v -0.05345915 0.02947137 0.01205876
v -0.05311871 0.03007912 0.01205876
v -0.05469508 0.02715518 0.01205876
v -0.05111311 0.03337446 0.01215021
v -0.05078747 0.03386066 0.01261804
v -0.04717590 0.03871589 0.01269190
v -0.05209741 0.03160524 0.01283964
v -0.04827861 0.03737208 0.01205876
v -0.04769395 0.03809463 0.01205876
v -0.04603618 0.04000566 0.01283260
v -0.04487426 0.04126167 0.01290295
v -0.04369754 0.04249742 0.01294868
v -0.04249862 0.04369941 0.01294516
v -0.04017478 0.04496218 0.01406372
v -0.03930889 0.04536059 0.01430642
v -0.03930889 0.04522554 0.01440139
v -0.03808776 0.04621819 0.01440139
v -0.03930889 0.04446248 0.01491494
v -0.03737729 0.04584679 0.01503102
v -0.03524587 0.04727837 0.01514358
v -0.03656320 0.04617092 0.01518579
v -0.03436518 0.04771055 0.01522800
v -0.04223219 0.04343606 0.01375066
v -0.00303034 0.00786932 0.03565395
v -0.00061029 0.00786932 0.03565395
v 0.00664986 0.00181885 0.03561526
v 0.00351934 0.00751142 0.03563988
v 0.00368215 0.00830825 0.03563988
v -0.00423666 0.00786932 0.03564692
v -0.00665671 0.00786932 0.03560822
v -0.00578342 0.00786932 0.03563285
v -0.00786304 0.00544508 0.03561878
v -0.00517656 0.00786932 0.03563988
v -0.00906936 0.00786932 0.03527055
v -0.00906936 0.00665382 0.03548863
v -0.00786304 0.00786932 0.03552380
v -0.03693324 0.04540111 0.01535463
v -0.03819877 0.04424639 0.01540035
v -0.03930889 0.04292960 0.01553754
v -0.04052261 0.04171410 0.01557271
v -0.04172894 0.04050536 0.01558326
v -0.04294266 0.03930337 0.01557271
v 0.00784878 0.00166354 0.03560471
v 0.00890709 0.00166354 0.03559063
v 0.00905511 0.00061011 0.03558712
v 0.01026883 0.00061011 0.03555194
v 0.01147516 -0.00180737 0.03535848
v 0.01147516 -0.00301612 0.03528110
v 0.01277769 -0.00180737 0.03476755
v 0.01026883 -0.00180737 0.03553787
v 0.01026883 -0.00301612 0.03552029
v 0.01253347 -0.00301612 0.03476051
v 0.01233365 -0.00422486 0.03463740
v 0.01217083 -0.00505545 0.03451077
v 0.01200062 -0.00586578 0.03431731
v 0.00852225 -0.01093034 0.03330428
v 0.00798200 -0.01156510 0.03277314
v 0.00798200 -0.01163263 0.03262541
v 0.00636863 -0.01226063 0.03333242
v 0.00630202 -0.01222687 0.03347664
v 0.00540653 -0.01238218 0.03385652
v 0.00414840 -0.01288864 0.03372989
v 0.00301609 -0.01303044 0.03402888
v 0.00180976 -0.01314524 0.03422937
v 0.00059603 -0.01320602 0.03432435
v -0.00061029 -0.01321952 0.03433490
v 0.01094230 -0.00734463 0.03448615
v 0.01114213 -0.00779031 0.03375803
v 0.01063887 -0.00815496 0.03412033
v 0.00946215 -0.00945149 0.03417309
v 0.00898850 -0.01020780 0.03374045
v -0.05322232 0.01100260 0.00053201
v -0.05806243 0.01699904 0.01022616
v -0.05969799 0.01150230 0.01085227
v -0.05990521 0.01028680 0.01085227
v -0.06016424 0.00898352 0.01096131
v -0.06068229 0.00666058 0.01205876
v -0.06047508 0.00852434 0.01162259
v -0.06017904 0.01028680 0.01205876
v -0.05997182 0.01150230 0.01205876
v -0.05927615 0.01458831 0.01141506
v -0.05935756 0.01391303 0.01123919
v -0.05945377 0.01261650 0.01082413
v -0.05916514 0.01296089 0.01040203
v -0.06068229 0.00302760 0.01313862
v -0.06066009 0.00423634 0.01309289
v -0.06062309 0.00545183 0.01300496
v -0.06056388 0.00666058 0.01288536
v -0.06051207 0.00759246 0.01276577
v -0.06040847 0.00061686 0.01378232
v -0.06040107 0.00182561 0.01376825
v -0.06038627 0.00302760 0.01374363
v -0.00181661 -0.01255775 0.03478162
v -0.00302294 -0.01244296 0.03471830
v -0.00423666 -0.01228764 0.03460223
v -0.00502855 -0.01215259 0.03449670
v -0.00582783 -0.01199052 0.03427510
v -0.05914294 -0.00026775 0.01500992
v -0.05980160 0.00061011 0.01440843
v -0.05824744 0.01745823 0.01083468
v -0.05849167 0.01754601 0.01205876
v -0.05818824 0.01860619 0.01205876
v -0.05800322 0.01920719 0.01205876
v -0.05775159 0.01996350 0.01205876
v -0.05733715 0.02116548 0.01205876
v -0.05698931 0.02213788 0.01205876
v -0.05637505 0.02358297 0.01205876
v -0.05593100 0.02460939 0.01205876
v -0.05560537 0.02534544 0.01205876
v -0.05581259 0.02460939 0.01129195
v -0.05336294 0.02929580 0.01293109
v -0.05459146 0.02695934 0.01296275
v -0.05097989 0.03294904 0.01326877
v -0.04998079 0.03446841 0.01327932
v -0.04969956 0.03524497 0.01288185
v -0.04855244 0.03652799 0.01326877
v -0.04809360 0.03712899 0.01326877
v -0.04743493 0.03804736 0.01316324
v -0.04579936 0.03971529 0.01363458
v -0.05230463 0.03079491 0.01325118
v -0.05183838 0.03115956 0.01364162
v -0.05078747 0.03265192 0.01387377
v -0.04462264 0.04098481 0.01370845
v -0.04344592 0.04222732 0.01375418
v -0.04141810 0.04380746 0.01408834
v -0.04042640 0.04427340 0.01440139
v -0.03867982 0.04471908 0.01506971
v -0.04077424 0.04320646 0.01489736
v -0.03996756 0.04358462 0.01510841
v -0.03787314 0.04504321 0.01521393
v -0.04263923 0.04263248 0.01410241
v -0.00906936 0.00181885 0.03561174
v -0.00906936 -0.00180737 0.03560119
v -0.00786304 -0.00301612 0.03559767
v 0.00664246 0.00061011 0.03561174
v -0.00665671 0.00544508 0.03562933
v -0.00786304 0.00665382 0.03559415
v -0.00906936 0.00423634 0.03559415
v -0.00906936 0.00302760 0.03560822
v -0.01027569 0.00665382 0.03513337
v -0.01027569 0.00544508 0.03538311
v -0.04413419 0.03808788 0.01554105
v -0.04534051 0.03687913 0.01548477
v -0.04660604 0.03569065 0.01534759
v -0.01027569 0.00423634 0.03549918
v -0.00906936 0.00544508 0.03556601
v -0.03930889 0.04385473 0.01521745
v -0.04043380 0.04285532 0.01522800
v -0.04165493 0.04165333 0.01523855
v -0.04287605 0.04043109 0.01523855
v -0.04406018 0.03920208 0.01522448
v 0.00784878 -0.00059863 0.03559767
v 0.00905511 -0.00059863 0.03558360
v 0.01026883 -0.00422486 0.03546401
v 0.01147516 -0.00422486 0.03511226
v 0.01026883 -0.00543360 0.03533738
v 0.00905511 -0.00301612 0.03556953
v 0.00905511 -0.00422486 0.03555194
v 0.00905511 -0.00543360 0.03551325
v 0.01154917 -0.00544711 0.03478514
v 0.01116433 -0.00664910 0.03463037
v 0.00815222 -0.01064672 0.03411330
v 0.00778958 -0.01113292 0.03375451
v 0.00738254 -0.01164613 0.03333242
v 0.00696069 -0.01191624 0.03333242
v 0.00657585 -0.01214583 0.03333242
v 0.00578397 -0.01197026 0.03428214
v 0.00667946 -0.01176768 0.03385652
v 0.00497729 -0.01214583 0.03448263
v 0.00422981 -0.01226063 0.03458464
v 0.00301609 -0.01243621 0.03470423
v 0.00180976 -0.01254425 0.03476755
v 0.00059603 -0.01261178 0.03479569
v 0.00000397 -0.01290890 0.03457057
v -0.00061029 -0.01261178 0.03480272
v 0.01024663 -0.00779031 0.03470423
v 0.00983219 -0.00864791 0.03454946
v 0.00865547 -0.00984990 0.03456002
v -0.06046027 0.00839603 0.01242458
v -0.06038627 0.00898352 0.01203765
v -0.05972020 0.01270429 0.01205876
v -0.05926875 0.01454779 0.01267783
v -0.05943897 0.01391303 0.01205876
v -0.05927615 0.01459506 0.01205876
v -0.05912073 0.01520281 0.01205876
v -0.05882470 0.01633727 0.01205876
v -0.06036406 0.00423634 0.01369438
v -0.06031226 0.00545183 0.01360996
v -0.06026045 0.00666058 0.01349037
v -0.06023825 0.00794360 0.01320897
v -0.06005323 0.00907806 0.01326877
v -0.05986821 0.01028680 0.01326877
v -0.05947597 0.01270429 0.01313159
v -0.05934276 0.01391303 0.01284315
v -0.05979420 0.00182561 0.01439788
v -0.05978680 0.00302760 0.01438732
v -0.05975720 0.00423634 0.01435918
v -0.00181661 -0.01147731 0.03530924
v -0.00302294 -0.01147731 0.03523185
v -0.00423666 -0.01147731 0.03508060
v -0.00543559 -0.01153809 0.03478865
v -0.00665671 -0.01116669 0.03466202
v -0.00738939 -0.01095735 0.03451077
v -0.05853607 -0.00026775 0.01533704
v -0.05853607 0.00061011 0.01533704
v -0.05913554 0.00061011 0.01500992
v -0.05912814 0.00182561 0.01500288
v -0.05812903 0.01841712 0.01283260
v -0.05693011 0.02198932 0.01283612
v -0.05578299 0.02453511 0.01292757
v -0.05359236 0.02843145 0.01330746
v -0.05310391 0.02883661 0.01373659
v -0.05482089 0.02602747 0.01332857
v -0.05433244 0.02645964 0.01376825
v -0.04944793 0.03488032 0.01369086
v -0.04836742 0.03627814 0.01387729
v -0.04725731 0.03760843 0.01397226
v -0.04692427 0.03841876 0.01349740
v -0.04611759 0.03891847 0.01403558
v -0.05207521 0.03035598 0.01395116
v -0.05096509 0.03203741 0.01403909
v -0.05015101 0.03313811 0.01415869
v -0.04972176 0.03405649 0.01400744
v -0.04498527 0.04018123 0.01406723
v -0.04381595 0.04141699 0.01409889
v -0.04195096 0.04284857 0.01440139
v -0.04121088 0.04240289 0.01512247
v -0.04202497 0.04200447 0.01490791
v -0.04293526 0.04170736 0.01450340
v -0.01027569 0.00061011 0.03557305
v -0.00995005 -0.00026099 0.03558360
v -0.01027569 -0.00059863 0.03557305
v -0.00906936 -0.00422486 0.03558008
v -0.00786304 -0.00422486 0.03559063
v -0.00665671 -0.00664910 0.03557657
v -0.00545039 -0.00664910 0.03557657
v 0.00180976 -0.00785109 0.03556249
v 0.00542873 -0.00664910 0.03556249
v 0.00664246 -0.00664910 0.03555898
v -0.01027569 0.00302760 0.03555194
v -0.01027569 0.00181885 0.03556953
v -0.04776056 0.03324616 0.01551995
v -0.04903349 0.03205767 0.01533704
v -0.04897429 0.03083543 0.01562899
v -0.05027682 0.02969421 0.01538629
v -0.05139434 0.02720920 0.01549181
v -0.05260066 0.02479846 0.01548829
v -0.01148941 0.00423634 0.03512281
v -0.01148941 0.00302760 0.03529165
v -0.04524430 0.03795958 0.01519282
v -0.04595477 0.03748013 0.01508730
v -0.04616940 0.03687913 0.01518579
v -0.04730912 0.03529899 0.01516468
v -0.04773836 0.03436036 0.01525262
v -0.01148941 0.00181885 0.03536903
v -0.04241721 0.04120090 0.01512247
v -0.04360873 0.03999215 0.01511896
v -0.04477805 0.03873614 0.01510489
v 0.00905511 -0.00664910 0.03543587
v 0.01026883 -0.00664910 0.03509467
v 0.00905511 -0.00785109 0.03521075
v 0.00784878 -0.00664910 0.03553787
v 0.00734553 -0.01093709 0.03448263
v 0.00664246 -0.01113292 0.03463037
v 0.00540653 -0.01153133 0.03476403
v 0.00422981 -0.01147731 0.03504543
v 0.00301609 -0.01147731 0.03520020
v 0.00180976 -0.01147731 0.03528462
v 0.00059603 -0.01147731 0.03532683
v -0.00061029 -0.01147731 0.03533738
v 0.00905511 -0.00905308 0.03474996
v 0.00784878 -0.00905308 0.03520371
v 0.00778958 -0.01025507 0.03470423
v -0.05902453 0.01391303 0.01344816
v -0.05840286 0.01640480 0.01336726
v -0.05825484 0.01754601 0.01306475
v -0.05970540 0.00545183 0.01432401
v -0.05965359 0.00666058 0.01428180
v -0.05958698 0.00786932 0.01422552
v -0.05951297 0.00907806 0.01415165
v -0.05941677 0.01028680 0.01405668
v -0.05932795 0.01127946 0.01395819
v -0.05957958 0.01161034 0.01338484
v -0.05925395 0.01208303 0.01386674
v -0.05917254 0.01270429 0.01373307
v -0.05910593 0.00303435 0.01499233
v -0.05907633 0.00423634 0.01496771
v -0.05970540 0.00431737 0.01440139
v -0.05962398 0.00545183 0.01440139
v -0.00302294 -0.01026857 0.03549918
v -0.00423666 -0.01026857 0.03545697
v -0.00545039 -0.01026857 0.03536552
v -0.00665671 -0.01026857 0.03515095
v -0.00781863 -0.01026857 0.03475700
v -0.00870673 -0.00987691 0.03459519
v -0.00909157 -0.00908009 0.03482031
v -0.01028309 -0.00781732 0.03476755
v -0.01027569 -0.00664910 0.03517909
v -0.01148201 -0.00422486 0.03515447
v -0.01148201 -0.00301612 0.03529869
v -0.01148201 -0.00180737 0.03536552
v -0.01148201 -0.00059863 0.03540069
v -0.01148941 -0.00026099 0.03540069
v -0.05852127 0.00182561 0.01533001
v -0.01148941 0.00061011 0.03540069
v -0.05849907 0.00303435 0.01532297
v -0.05847687 0.00423634 0.01531594
v -0.05802542 0.01685723 0.01383860
v -0.05791441 0.01754601 0.01366976
v -0.05776639 0.01878852 0.01324766
v -0.05707812 0.02116548 0.01307882
v -0.05670809 0.02116548 0.01368383
v -0.05650086 0.02239449 0.01325118
v -0.05552396 0.02395437 0.01373307
v -0.05537595 0.02488625 0.01330746
v -0.05332594 0.02803303 0.01398633
v -0.05453966 0.02564256 0.01399337
v -0.04857464 0.03567715 0.01406020
v -0.04770136 0.03676434 0.01413407
v -0.04643582 0.03797983 0.01440139
v -0.04559214 0.03829721 0.01484459
v -0.05228243 0.02962668 0.01413407
v -0.05141654 0.03079491 0.01428180
v -0.05105390 0.03115280 0.01440139
v -0.05013620 0.03205767 0.01469686
v -0.04946274 0.03245608 0.01502047
v -0.04920371 0.03324616 0.01483404
v -0.04892248 0.03438737 0.01446823
v -0.04429700 0.04042433 0.01440139
v -0.04321649 0.04079573 0.01490439
v -0.01027569 -0.00180737 0.03556249
v -0.00906936 -0.00543360 0.03555898
v -0.00786304 -0.00664910 0.03556601
v -0.00786304 -0.00543360 0.03558008
v -0.00545039 -0.00785109 0.03556601
v 0.00180976 -0.00905308 0.03554491
v 0.00542873 -0.00785109 0.03555194
v -0.00181661 -0.00905983 0.03555194
v 0.00059603 -0.00905308 0.03554843
v 0.00664246 -0.00785109 0.03553084
v -0.04969956 0.03165251 0.01514710
v -0.04993638 0.03083543 0.01525966
v -0.04860425 0.03324616 0.01519282
v -0.05138693 0.02830314 0.01525614
v -0.05215661 0.02720920 0.01517172
v -0.05260066 0.02589916 0.01526317
v -0.05336294 0.02479846 0.01516468
v -0.05362937 0.02358972 0.01529483
v -0.05391800 0.02245526 0.01537573
v -0.05381439 0.02116548 0.01563251
v -0.05502071 0.01876151 0.01550940
v -0.05502071 0.01754601 0.01567120
v -0.05622703 0.01512177 0.01548477
v -0.05622703 0.01391978 0.01562547
v -0.05726314 0.01271104 0.01531242
v -0.05744076 0.01028680 0.01545663
v -0.04676886 0.03687913 0.01480239
v -0.04704269 0.03610932 0.01501695
v -0.04440801 0.03954647 0.01487625
v -0.04838963 0.03388767 0.01509785
v -0.05744076 0.00907806 0.01553050
v -0.05744076 0.00786932 0.01559382
v -0.05744076 0.00666058 0.01565361
v -0.05841766 0.00545183 0.01529483
v 0.00784878 -0.00785109 0.03545346
v 0.00664246 -0.01026857 0.03508764
v 0.00542873 -0.01026857 0.03533034
v 0.00422981 -0.01026857 0.03543235
v 0.00301609 -0.01026857 0.03547808
v 0.00000397 -0.01086957 0.03542531
v 0.00180976 -0.01026857 0.03549918
v -0.00061029 -0.01026857 0.03551677
v -0.00181661 -0.01026857 0.03551325
v 0.00664246 -0.00905308 0.03542180
v -0.05903193 0.00545183 0.01492901
v -0.05896532 0.00666058 0.01489032
v -0.05933535 0.00826773 0.01440139
v -0.05922434 0.00907806 0.01440139
v -0.05872849 0.01028680 0.01466169
v -0.05866188 0.01154282 0.01450340
v -0.05858788 0.01241392 0.01440139
v -0.05852867 0.01270429 0.01439788
v -0.05841766 0.01391303 0.01424662
v -0.05826224 0.01512177 0.01409889
v -0.05813643 0.01604690 0.01397226
v -0.00545039 -0.00905983 0.03553435
v -0.00665671 -0.00905983 0.03547456
v -0.00786304 -0.00905983 0.03528813
v -0.00906936 -0.00785109 0.03530220
v -0.01027569 -0.00543360 0.03540421
v -0.01027569 -0.00422486 0.03549918
v -0.01027569 -0.00301612 0.03554139
v -0.05711513 0.01876151 0.01414462
v -0.05695231 0.01971364 0.01399337
v -0.05681910 0.02052397 0.01385267
v -0.05570158 0.02315079 0.01395116
v -0.05353316 0.02721595 0.01417276
v -0.05396980 0.02479846 0.01477073
v -0.05473208 0.02479846 0.01416572
v -0.04773836 0.03569065 0.01470741
v -0.05250445 0.02859351 0.01440139
v -0.05177917 0.02864078 0.01494660
v -0.05138693 0.02969421 0.01479183
v -0.05054325 0.03083543 0.01492901
v -0.04812320 0.03469125 0.01492550
v -0.05074307 0.03016015 0.01506268
v -0.00906936 -0.00664910 0.03549566
v -0.00786304 -0.00785109 0.03550270
v -0.00665671 -0.00785109 0.03555546
v -0.00423666 -0.00905983 0.03554491
v -0.00302294 -0.00905983 0.03555194
v 0.00422981 -0.00905308 0.03553435
v 0.00542873 -0.00905308 0.03550622
v -0.05097249 0.02934982 0.01517875
v -0.05200860 0.02783045 0.01509082
v -0.05321492 0.02541296 0.01508730
v -0.05438425 0.02291445 0.01506971
v -0.05455446 0.02210412 0.01516468
v -0.05473948 0.02116548 0.01525262
v -0.05507252 0.01990947 0.01530890
v -0.05598281 0.01754601 0.01527373
v -0.05629364 0.01626299 0.01530890
v -0.05711513 0.01391978 0.01524207
v -0.05806983 0.01100260 0.01509785
v -0.05751477 0.01144152 0.01531945
v -0.05812163 0.01028680 0.01513303
v -0.05820304 0.00907806 0.01517875
v -0.05828445 0.00786932 0.01522096
v -0.05835846 0.00666058 0.01526317
v 0.00059603 -0.01026857 0.03550973
v -0.05888391 0.00786932 0.01483052
v -0.05880250 0.00907806 0.01475666
v -0.05798101 0.01180617 0.01504157
v -0.05786260 0.01271104 0.01497122
v -0.05771459 0.01391978 0.01485163
v -0.05755177 0.01512177 0.01470741
v -0.05720394 0.01754601 0.01440139
v -0.05680429 0.01876151 0.01440139
v -0.05610862 0.02116548 0.01429939
v -0.05587180 0.02237423 0.01410241
v -0.05276348 0.02720920 0.01477425
v -0.05488010 0.02380581 0.01440139
v -0.05423623 0.02358972 0.01497474
v -0.05300770 0.02622330 0.01496419
v -0.05534635 0.02116548 0.01490439
v -0.05551656 0.02027412 0.01501695
v -0.05565717 0.01947055 0.01510489
v -0.05577559 0.01876151 0.01517172
v -0.05673029 0.01662088 0.01502399
v -0.05685610 0.01581055 0.01509785
v -0.05658227 0.01754601 0.01491494
v -0.05638245 0.01876151 0.01474962
v -0.05547956 0.02241474 0.01440139
v -0.05497630 0.02245526 0.01477425
f 1 2 3
f 1 3 4
f 1 4 5
f 1 5 6
f 1 6 7
f 1 7 2
f 2 8 9
f 2 9 10
f 2 10 3
f 2 7 8
f 3 10 11
f 3 11 4
f 4 12 13
f 4 13 14
f 4 14 5
f 4 11 15
f 4 15 16
f 4 16 17
f 4 17 18
f 4 18 19
f 4 19 12
f 5 14 6
f 6 20 21
f 6 21 22
f 6 22 23
f 6 23 24
f 6 24 25
f 6 25 26
f 6 26 27
f 6 27 28
f 6 28 29
f 6 29 30
f 6 30 31
f 6 31 32
f 6 32 33
f 6 33 34
f 6 34 35
f 6 35 36
f 6 36 7
f 6 14 13
f 6 13 37
f 6 37 20
f 7 38 39
f 7 39 8
f 7 36 40
f 7 40 41
f 7 41 42
f 7 42 43
f 7 43 44
f 7 44 45
f 7 45 46
f 7 46 47
f 7 47 48
f 7 48 49
f 7 49 38
f 8 39 50
f 8 50 9
f 9 51 52
f 9 52 53
f 9 53 10
f 9 50 51
f 10 53 11
f 11 53 15
f 12 19 18
f 12 18 54
f 12 54 55
f 12 55 13
f 13 55 37
f 15 53 56
f 15 56 57
f 15 57 16
f 16 18 17
f 16 57 58
f 16 58 59
f 16 59 60
f 16 60 18
f 18 60 61
f 18 61 54
f 20 37 62
f 20 62 63
f 20 63 22
f 20 22 21
f 22 64 65
f 22 65 23
f 22 63 64
f 23 65 24
f 24 26 25
f 24 65 26
f 26 65 66
f 26 66 67
f 26 67 27
f 27 67 28
f 28 67 68
f 28 68 29
f 29 69 30
f 29 68 69
f 30 70 71
f 30 71 72
f 30 72 73
f 30 73 31
f 30 69 70
f 31 73 33
f 31 33 32
f 33 73 34
f 34 74 75
f 34 75 35
f 34 73 72
f 34 72 74
f 35 75 76
f 35 76 77
f 35 77 78
f 35 78 36
f 36 78 79
f 36 79 40
f 37 55 80
f 37 80 81
f 37 81 62
f 38 49 50
f 38 50 39
f 40 79 41
f 41 79 42
f 42 79 43
f 43 79 82
f 43 82 44
f 44 82 45
f 45 82 83
f 45 83 84
f 45 84 85
f 45 85 46
f 46 86 87
f 46 87 47
f 46 85 88
f 46 88 89
f 46 89 86
f 47 87 90
f 47 90 91
f 47 91 92
f 47 92 48
f 48 92 49
f 49 92 50
f 50 92 93
f 50 93 94
f 50 94 95
f 50 95 96
f 50 96 97
f 50 97 51
f 51 97 52
f 52 97 98
f 52 98 56
f 52 56 53
f 54 99 100
f 54 100 101
f 54 101 55
f 54 61 102
f 54 102 99
f 55 101 80
f 56 98 103
f 56 103 104
f 56 104 105
f 56 105 106
f 56 106 107
f 56 107 57
f 57 107 58
f 58 108 109
f 58 109 60
f 58 60 59
f 58 107 106
f 58 106 110
f 58 110 108
f 60 109 61
f 61 109 111
f 61 111 112
f 61 112 102
f 62 113 114
f 62 114 63
f 62 81 115
f 62 115 116
f 62 116 117
f 62 117 113
f 63 114 118
f 63 118 64
f 64 118 119
f 64 119 65
f 65 119 66
f 66 120 121
f 66 121 67
f 66 119 120
f 67 121 68
f 68 121 122
f 68 122 69
f 69 123 70
f 69 122 123
f 70 123 124
f 70 124 125
f 70 125 71
f 71 125 126
f 71 126 74
f 71 74 72
f 74 126 127
f 74 127 75
f 75 127 128
f 75 128 76
f 76 128 129
f 76 129 77
f 77 130 83
f 77 83 78
f 77 129 131
f 77 131 132
f 77 132 130
f 78 83 79
f 79 83 82
f 80 101 133
f 80 133 134
f 80 134 81
f 81 134 135
f 81 135 136
f 81 136 115
f 83 130 137
f 83 137 84
f 84 137 138
f 84 138 85
f 85 138 139
f 85 139 89
f 85 89 88
f 86 89 140
f 86 140 141
f 86 141 142
f 86 142 143
f 86 143 87
f 87 143 144
f 87 144 145
f 87 145 90
f 89 139 146
f 89 146 147
f 89 147 148
f 89 148 140
f 90 149 91
f 90 145 150
f 90 150 149
f 91 149 151
f 91 151 259
f 91 259 152
f 91 152 92
f 92 152 153
f 92 153 154
f 92 154 155
f 92 155 93
f 93 155 156
f 93 156 157
f 93 157 94
f 94 157 158
f 94 158 159
f 94 159 160
f 94 160 161
f 94 161 95
f 95 162 163
f 95 163 164
f 95 164 165
f 95 165 166
f 95 166 167
f 95 167 168
f 95 168 169
f 95 169 170
f 95 170 171
f 95 171 172
f 95 172 96
f 95 161 162
f 96 172 173
f 96 173 97
f 97 173 172
f 97 172 98
f 98 172 174
f 98 174 104
f 98 104 103
f 99 134 100
f 99 102 175
f 99 175 176
f 99 176 177
f 99 177 135
f 99 135 134
f 100 134 133
f 100 133 101
f 102 112 175
f 104 174 105
f 105 178 179
f 105 179 106
f 105 174 170
f 105 170 180
f 105 180 181
f 105 181 182
f 105 182 183
f 105 183 184
f 105 184 178
f 106 179 110
f 108 110 185
f 108 185 109
f 109 185 186
f 109 186 187
f 109 187 188
f 109 188 189
f 109 189 111
f 110 179 178
f 110 178 184
f 110 184 183
f 110 183 182
f 110 182 190
f 110 190 191
f 110 191 186
f 110 186 185
f 111 189 192
f 111 192 193
f 111 193 112
f 112 194 176
f 112 176 175
f 112 193 194
f 113 117 195
f 113 195 196
f 113 196 197
f 113 197 198
f 113 198 199
f 113 199 114
f 114 199 118
f 115 136 200
f 115 200 201
f 115 201 202
f 115 202 116
f 116 202 203
f 116 203 195
f 116 195 117
f 118 204 119
f 118 199 204
f 119 205 120
f 119 204 205
f 120 206 207
f 120 207 208
f 120 208 121
f 120 205 206
f 121 208 209
f 121 209 122
f 122 209 210
f 122 210 123
f 123 210 124
f 124 210 211
f 124 211 125
f 125 212 213
f 125 213 214
f 125 214 127
f 125 127 126
f 125 211 215
f 125 215 212
f 127 214 216
f 127 216 128
f 128 216 129
f 129 216 131
f 130 132 217
f 130 217 137
f 131 216 218
f 131 218 219
f 131 219 132
f 132 219 220
f 132 220 221
f 132 221 222
f 132 222 217
f 135 177 223
f 135 223 224
f 135 224 136
f 136 224 225
f 136 225 200
f 137 217 226
f 137 226 138
f 138 226 227
f 138 227 139
f 139 227 228
f 139 228 229
f 139 229 230
f 139 230 231
f 139 231 146
f 140 148 141
f 141 148 232
f 141 232 335
f 141 335 233
f 141 233 234
f 141 234 142
f 142 234 143
f 143 234 235
f 143 235 144
f 144 235 236
f 144 236 145
f 145 236 237
f 145 237 238
f 145 238 239
f 145 239 150
f 146 231 240
f 146 240 241
f 146 241 147
f 147 241 242
f 147 242 148
f 148 242 243
f 148 243 244
f 148 244 245
f 148 245 232
f 149 246 151
f 149 150 247
f 149 247 248
f 149 248 249
f 149 249 250
f 149 250 251
f 149 251 252
f 149 252 253
f 149 253 246
f 150 254 247
f 150 239 255
f 150 255 256
f 150 256 254
f 151 257 258
f 151 258 259
f 151 246 257
f 152 259 260
f 152 260 154
f 152 154 153
f 154 260 261
f 154 261 262
f 154 262 263
f 154 263 156
f 154 156 155
f 156 264 157
f 156 263 264
f 157 264 158
f 158 264 265
f 158 265 266
f 158 266 159
f 159 267 160
f 159 266 267
f 160 267 268
f 160 268 269
f 160 269 270
f 160 270 161
f 161 270 271
f 161 271 272
f 161 272 162
f 162 272 273
f 162 273 274
f 162 274 163
f 163 274 275
f 163 275 164
f 164 275 276
f 164 276 277
f 164 277 165
f 165 277 166
f 166 277 278
f 166 278 279
f 166 279 280
f 166 280 167
f 167 280 168
f 168 280 281
f 168 281 169
f 169 281 282
f 169 282 283
f 169 283 170
f 170 284 180
f 170 174 172
f 170 172 171
f 170 283 284
f 176 194 223
f 176 223 177
f 180 284 283
f 180 283 181
f 181 285 286
f 181 286 287
f 181 287 182
f 181 283 282
f 181 282 281
f 181 281 280
f 181 280 279
f 181 279 288
f 181 288 289
f 181 289 285
f 182 287 190
f 186 191 187
f 187 290 188
f 187 191 291
f 187 291 292
f 187 292 293
f 187 293 294
f 187 294 295
f 187 295 290
f 188 290 296
f 188 296 297
f 188 297 298
f 188 298 189
f 189 298 192
f 190 293 292
f 190 292 291
f 190 291 191
f 190 287 286
f 190 286 285
f 190 285 289
f 190 289 299
f 190 299 293
f 192 298 193
f 193 298 297
f 193 297 300
f 193 300 194
f 194 300 223
f 195 203 301
f 195 301 302
f 195 302 196
f 196 303 197
f 196 302 304
f 196 304 305
f 196 305 303
f 197 303 198
f 198 306 199
f 198 303 306
f 199 306 307
f 199 307 204
f 200 225 224
f 200 224 308
f 200 308 309
f 200 309 201
f 201 309 310
f 201 310 202
f 202 310 311
f 202 311 203
f 203 311 301
f 204 307 205
f 205 312 206
f 205 307 313
f 205 313 312
f 206 314 315
f 206 315 207
f 206 312 314
f 207 315 316
f 207 316 317
f 207 317 208
f 208 317 209
f 209 317 318
f 209 318 210
f 210 318 211
f 211 318 215
f 212 319 219
f 212 219 213
f 212 215 320
f 212 320 321
f 212 321 319
f 213 219 322
f 213 322 323
f 213 323 214
f 214 323 216
f 215 318 320
f 216 323 218
f 217 222 226
f 218 323 322
f 218 322 219
f 219 324 220
f 219 319 324
f 220 324 222
f 220 222 221
f 222 324 325
f 222 325 228
f 222 228 226
f 223 300 326
f 223 326 224
f 224 326 327
f 224 327 308
f 226 228 227
f 228 325 328
f 228 328 329
f 228 329 330
f 228 330 229
f 229 330 331
f 229 331 332
f 229 332 230
f 230 332 333
f 230 333 240
f 230 240 231
f 232 245 244
f 232 244 334
f 232 334 335
f 233 335 336
f 233 336 337
f 233 337 338
f 233 338 235
f 233 235 234
f 235 338 339
f 235 339 340
f 235 340 341
f 235 341 342
f 235 342 237
f 235 237 236
f 237 342 343
f 237 343 238
f 238 343 255
f 238 255 239
f 240 333 344
f 240 344 242
f 240 242 241
f 242 345 346
f 242 346 347
f 242 347 243
f 242 344 345
f 243 348 349
f 243 349 244
f 243 347 348
f 244 349 350
f 244 350 334
f 246 351 352
f 246 352 257
f 246 253 353
f 246 353 351
f 247 254 354
f 247 354 248
f 248 354 249
f 249 354 355
f 249 355 251
f 249 251 250
f 251 355 356
f 251 356 252
f 252 356 357
f 252 357 253
f 253 357 358
f 253 358 353
f 254 359 360
f 254 360 354
f 254 256 359
f 255 342 361
f 255 361 362
f 255 362 256
f 255 343 342
f 256 362 363
f 256 363 364
f 256 364 359
f 257 352 258
f 258 352 365
f 258 365 260
f 258 260 259
f 260 365 366
f 260 366 261
f 261 366 367
f 261 367 262
f 262 367 368
f 262 368 369
f 262 369 370
f 262 370 371
f 262 371 263
f 263 371 265
f 263 265 264
f 265 371 372
f 265 372 373
f 265 373 266
f 266 373 374
f 266 374 375
f 266 375 267
f 267 375 376
f 267 376 268
f 268 377 378
f 268 378 379
f 268 379 269
f 268 376 374
f 268 374 380
f 268 380 381
f 268 381 382
f 268 382 377
f 269 379 383
f 269 383 384
f 269 384 270
f 270 384 271
f 271 384 385
f 271 385 272
f 272 385 384
f 272 384 273
f 273 386 387
f 273 387 388
f 273 388 389
f 273 389 274
f 273 384 386
f 274 389 390
f 274 390 276
f 274 276 275
f 276 390 391
f 276 391 277
f 277 392 278
f 277 391 392
f 278 392 393
f 278 393 394
f 278 394 279
f 279 394 288
f 288 299 289
f 288 394 299
f 290 295 395
f 290 395 396
f 290 396 397
f 290 397 296
f 293 299 398
f 293 398 294
f 294 398 399
f 294 399 295
f 295 399 400
f 295 400 401
f 295 401 402
f 295 402 395
f 296 397 297
f 297 397 403
f 297 403 300
f 299 394 404
f 299 404 405
f 299 405 398
f 300 403 326
f 301 311 304
f 301 304 302
f 303 305 406
f 303 406 407
f 303 407 307
f 303 307 306
f 304 408 406
f 304 406 305
f 304 311 409
f 304 409 410
f 304 410 408
f 307 407 411
f 307 411 313
f 308 327 309
f 309 412 310
f 309 327 413
f 309 413 414
f 309 414 415
f 309 415 412
f 310 412 416
f 310 416 311
f 311 416 417
f 311 417 409
f 312 313 411
f 312 411 418
f 312 418 314
f 314 419 420
f 314 420 315
f 314 418 419
f 315 420 421
f 315 421 316
f 316 421 422
f 316 422 423
f 316 423 317
f 317 423 318
f 318 423 321
f 318 321 320
f 319 424 324
f 319 321 425
f 319 425 424
f 321 423 422
f 321 422 426
f 321 426 425
f 324 424 427
f 324 427 328
f 324 328 325
f 326 403 428
f 326 428 413
f 326 413 327
f 328 427 429
f 328 429 430
f 328 430 329
f 329 430 330
f 330 430 431
f 330 431 432
f 330 432 331
f 331 432 332
f 332 432 433
f 332 433 333
f 333 433 434
f 333 434 344
f 334 350 435
f 334 435 436
f 334 436 336
f 334 336 437
f 334 437 335
f 335 437 336
f 336 436 438
f 336 438 337
f 337 438 439
f 337 439 440
f 337 440 441
f 337 441 442
f 337 442 339
f 337 339 338
f 339 442 443
f 339 443 444
f 339 444 340
f 340 444 445
f 340 445 446
f 340 446 341
f 341 446 342
f 342 446 445
f 342 445 447
f 342 447 361
f 344 434 345
f 345 448 449
f 345 449 346
f 345 434 448
f 346 449 450
f 346 450 347
f 347 450 348
f 348 450 451
f 348 451 452
f 348 452 349
f 349 452 350
f 350 452 435
f 351 453 352
f 351 353 454
f 351 454 453
f 352 455 365
f 352 453 455
f 353 358 456
f 353 456 457
f 353 457 458
f 353 458 459
f 353 459 454
f 354 360 355
f 355 360 460
f 355 460 461
f 355 461 462
f 355 462 356
f 356 462 463
f 356 463 357
f 357 463 358
f 358 463 464
f 358 464 457
f 358 457 456
f 359 465 466
f 359 466 460
f 359 460 360
f 359 364 465
f 361 447 467
f 361 467 468
f 361 468 362
f 362 468 363
f 363 469 470
f 363 470 471
f 363 471 364
f 363 468 469
f 364 471 472
f 364 472 473
f 364 473 474
f 364 474 465
f 365 455 366
f 366 455 475
f 366 475 367
f 367 475 476
f 367 476 477
f 367 477 369
f 367 369 368
f 369 477 476
f 369 476 478
f 369 478 479
f 369 479 480
f 369 480 370
f 370 480 481
f 370 481 371
f 371 481 372
f 372 481 482
f 372 482 373
f 373 483 484
f 373 484 485
f 373 485 374
f 373 482 486
f 373 486 483
f 374 485 380
f 374 376 375
f 377 382 487
f 377 487 488
f 377 488 378
f 378 488 379
f 379 488 489
f 379 489 383
f 380 485 490
f 380 490 488
f 380 488 381
f 381 488 382
f 382 488 487
f 383 491 384
f 383 489 491
f 384 491 492
f 384 492 386
f 386 493 387
f 386 492 489
f 386 489 493
f 387 493 388
f 388 494 389
f 388 493 494
f 389 494 495
f 389 495 390
f 390 495 391
f 391 495 496
f 391 496 392
f 392 496 404
f 392 404 393
f 393 404 394
f 395 402 397
f 395 397 396
f 397 402 403
f 398 405 399
f 399 405 497
f 399 497 498
f 399 498 499
f 399 499 400
f 400 500 401
f 400 499 500
f 401 500 501
f 401 501 502
f 401 502 402
f 402 503 403
f 402 502 504
f 402 504 503
f 403 505 428
f 403 503 505
f 404 496 506
f 404 506 405
f 405 506 497
f 406 408 507
f 406 507 508
f 406 508 407
f 407 508 509
f 407 509 510
f 407 510 511
f 407 511 411
f 408 410 512
f 408 512 507
f 409 417 513
f 409 513 410
f 410 513 514
f 410 514 515
f 410 515 516
f 410 516 512
f 411 511 418
f 412 517 518
f 412 518 519
f 412 519 416
f 412 415 520
f 412 520 521
f 412 521 522
f 412 522 523
f 412 523 524
f 412 524 525
f 412 525 517
f 413 428 414
f 414 428 505
f 414 505 415
f 415 505 503
f 415 503 504
f 415 504 520
f 416 519 513
f 416 513 417
f 418 511 509
f 418 509 419
f 419 526 527
f 419 527 420
f 419 509 526
f 420 527 528
f 420 528 529
f 420 529 421
f 421 529 422
f 422 529 426
f 424 425 427
f 425 426 530
f 425 530 531
f 425 531 532
f 425 532 427
f 426 529 533
f 426 533 534
f 426 534 530
f 427 532 535
f 427 535 429
f 429 431 430
f 429 535 536
f 429 536 431
f 431 536 537
f 431 537 432
f 432 537 538
f 432 538 433
f 433 538 434
f 434 538 448
f 435 452 539
f 435 539 436
f 436 539 540
f 436 540 541
f 436 541 438
f 438 541 542
f 438 542 439
f 439 542 543
f 439 543 440
f 440 543 544
f 440 544 441
f 441 544 545
f 441 545 546
f 441 546 442
f 442 546 443
f 443 546 547
f 443 547 444
f 444 547 548
f 444 548 445
f 445 548 549
f 445 549 447
f 447 549 467
f 448 538 550
f 448 550 551
f 448 551 449
f 449 551 450
f 450 551 552
f 450 552 451
f 451 553 452
f 451 552 553
f 452 553 554
f 452 554 539
f 453 555 455
f 453 454 459
f 453 459 555
f 455 555 459
f 455 459 556
f 455 556 475
f 457 557 558
f 457 558 559
f 457 559 458
f 457 464 560
f 457 560 561
f 457 561 562
f 457 562 563
f 457 563 564
f 457 564 565
f 457 565 557
f 458 559 558
f 458 558 459
f 459 558 557
f 459 557 566
f 459 566 565
f 459 565 567
f 459 567 556
f 460 466 568
f 460 568 461
f 461 568 462
f 462 568 569
f 462 569 463
f 463 569 570
f 463 570 571
f 463 571 464
f 464 571 572
f 464 572 560
f 465 474 573
f 465 573 466
f 466 573 574
f 466 574 575
f 466 575 568
f 467 576 577
f 467 577 578
f 467 578 468
f 467 549 576
f 468 578 579
f 468 579 469
f 469 579 470
f 470 579 580
f 470 580 581
f 470 581 471
f 471 581 472
f 472 581 582
f 472 582 573
f 472 573 473
f 473 573 474
f 475 556 476
f 476 556 583
f 476 583 478
f 478 583 564
f 478 564 584
f 478 584 585
f 478 585 586
f 478 586 587
f 478 587 480
f 478 480 479
f 480 587 588
f 480 588 589
f 480 589 590
f 480 590 591
f 480 591 592
f 480 592 593
f 480 593 482
f 480 482 481
f 482 593 592
f 482 592 486
f 483 594 484
f 483 486 595
f 483 595 594
f 484 594 490
f 484 490 485
f 486 592 595
f 488 490 596
f 488 596 597
f 488 597 598
f 488 598 489
f 489 492 491
f 489 598 599
f 489 599 600
f 489 600 601
f 489 601 602
f 489 602 493
f 490 594 603
f 490 603 604
f 490 604 605
f 490 605 596
f 493 602 494
f 494 606 607
f 494 607 495
f 494 602 606
f 495 607 496
f 496 607 506
f 497 506 608
f 497 608 609
f 497 609 498
f 498 609 499
f 499 501 500
f 499 609 501
f 501 610 502
f 501 609 611
f 501 611 612
f 501 612 610
f 502 610 504
f 504 610 613
f 504 613 520
f 506 607 614
f 506 614 608
f 507 512 615
f 507 615 616
f 507 616 617
f 507 617 508
f 508 617 618
f 508 618 509
f 509 511 510
f 509 618 526
f 512 516 619
f 512 619 615
f 513 519 620
f 513 620 515
f 513 515 514
f 515 620 621
f 515 621 622
f 515 622 615
f 515 615 619
f 515 619 516
f 517 623 624
f 517 624 518
f 517 525 625
f 517 625 626
f 517 626 627
f 517 627 623
f 518 624 628
f 518 628 629
f 518 629 519
f 519 629 620
f 520 613 521
f 521 630 522
f 521 613 630
f 522 630 631
f 522 631 523
f 523 631 632
f 523 632 524
f 524 632 633
f 524 633 525
f 525 633 634
f 525 634 625
f 526 635 636
f 526 636 528
f 526 528 527
f 526 618 635
f 528 636 529
f 529 636 640
f 529 640 533
f 530 534 637
f 530 637 531
f 531 638 535
f 531 535 532
f 531 637 639
f 531 639 638
f 533 640 641
f 533 641 534
f 534 641 642
f 534 642 637
f 535 638 536
f 536 638 643
f 536 643 537
f 537 643 644
f 537 644 538
f 538 644 550
f 539 554 645
f 539 645 646
f 539 646 647
f 539 647 540
f 540 647 648
f 540 648 649
f 540 649 541
f 541 649 542
f 542 649 543
f 543 650 544
f 543 649 648
f 543 648 651
f 543 651 650
f 544 652 545
f 544 650 652
f 545 652 546
f 546 652 653
f 546 653 547
f 547 653 654
f 547 654 655
f 547 655 548
f 548 655 656
f 548 656 657
f 548 657 549
f 549 657 658
f 549 658 576
f 550 552 551
f 550 644 659
f 550 659 660
f 550 660 552
f 552 660 553
f 553 660 661
f 553 661 645
f 553 645 554
f 556 567 565
f 556 565 564
f 556 564 583
f 557 565 566
f 560 572 662
f 560 662 561
f 561 662 663
f 561 663 562
f 562 663 662
f 562 662 563
f 563 664 564
f 563 662 665
f 563 665 664
f 564 664 666
f 564 666 667
f 564 667 668
f 564 668 669
f 564 669 584
f 568 575 569
f 569 575 670
f 569 670 570
f 570 670 671
f 570 671 672
f 570 672 571
f 571 672 572
f 572 672 673
f 572 673 674
f 572 674 675
f 572 675 676
f 572 676 677
f 572 677 662
f 573 582 678
f 573 678 679
f 573 679 574
f 574 679 575
f 575 679 680
f 575 680 670
f 576 681 682
f 576 682 577
f 576 658 681
f 577 682 683
f 577 683 578
f 578 683 684
f 578 684 579
f 579 684 685
f 579 685 580
f 580 685 686
f 580 686 581
f 581 687 688
f 581 688 689
f 581 689 582
f 581 686 687
f 582 689 690
f 582 690 678
f 584 669 665
f 584 665 585
f 585 691 586
f 585 665 691
f 586 691 587
f 587 691 692
f 587 692 588
f 588 692 589
f 589 692 590
f 590 692 591
f 591 692 592
f 592 692 693
f 592 693 595
f 594 694 695
f 594 695 603
f 594 595 694
f 595 693 696
f 595 696 697
f 595 697 695
f 595 695 694
f 596 605 597
f 597 605 698
f 597 698 598
f 598 698 699
f 598 699 599
f 599 699 600
f 600 699 700
f 600 700 701
f 600 701 601
f 601 701 602
f 602 701 700
f 602 700 702
f 602 702 606
f 603 695 604
f 604 695 703
f 604 703 605
f 605 703 704
f 605 704 705
f 605 705 706
f 605 706 699
f 605 699 698
f 606 702 707
f 606 707 607
f 607 707 708
f 607 708 614
f 608 614 709
f 608 709 609
f 609 709 611
f 610 612 613
f 611 710 612
f 611 709 711
f 611 711 710
f 612 710 631
f 612 631 630
f 612 630 613
f 614 708 712
f 614 712 711
f 614 711 709
f 615 622 724
f 615 724 713
f 615 713 714
f 615 714 616
f 616 714 715
f 616 715 814
f 616 814 716
f 616 716 817
f 616 817 717
f 616 717 617
f 617 717 718
f 617 718 719
f 617 719 618
f 618 720 721
f 618 721 722
f 618 722 635
f 618 719 720
f 620 629 621
f 621 723 724
f 621 724 622
f 621 629 723
f 623 627 725
f 623 725 726
f 623 726 727
f 623 727 728
f 623 728 729
f 623 729 624
f 624 729 730
f 624 730 731
f 624 731 732
f 624 732 628
f 625 634 733
f 625 733 626
f 626 733 734
f 626 734 735
f 626 735 627
f 627 735 736
f 627 736 737
f 627 737 725
f 628 732 738
f 628 738 723
f 628 723 629
f 631 710 632
f 632 739 633
f 632 710 739
f 633 740 634
f 633 739 740
f 634 740 741
f 634 741 734
f 634 734 733
f 635 640 636
f 635 722 640
f 637 642 742
f 637 742 639
f 638 639 743
f 638 743 643
f 639 742 744
f 639 744 743
f 640 722 745
f 640 745 641
f 641 745 642
f 642 745 742
f 643 743 644
f 644 743 659
f 645 661 746
f 645 746 646
f 646 746 651
f 646 651 648
f 646 648 647
f 650 651 746
f 650 746 747
f 650 747 652
f 652 747 748
f 652 748 653
f 653 748 749
f 653 749 654
f 654 750 655
f 654 749 750
f 655 750 751
f 655 751 656
f 656 752 753
f 656 753 658
f 656 658 657
f 656 751 752
f 658 753 681
f 659 743 744
f 659 744 754
f 659 754 660
f 660 754 661
f 661 755 756
f 661 756 746
f 661 754 755
f 662 677 665
f 664 665 666
f 665 669 668
f 665 668 667
f 665 667 666
f 665 677 757
f 665 757 758
f 665 758 759
f 665 759 691
f 670 680 760
f 670 760 761
f 670 761 762
f 670 762 671
f 671 762 763
f 671 763 672
f 672 763 764
f 672 764 674
f 672 674 673
f 674 764 765
f 674 765 675
f 675 766 676
f 675 765 767
f 675 767 766
f 676 766 767
f 676 767 677
f 677 767 768
f 677 768 757
f 678 690 679
f 679 690 769
f 679 769 770
f 679 770 680
f 680 770 771
f 680 771 772
f 680 772 760
f 681 773 774
f 681 774 682
f 681 753 773
f 682 774 775
f 682 775 683
f 683 775 776
f 683 776 684
f 684 776 685
f 685 776 777
f 685 777 686
f 686 777 778
f 686 778 687
f 687 778 779
f 687 779 780
f 687 780 781
f 687 781 782
f 687 782 783
f 687 783 784
f 687 784 785
f 687 785 786
f 687 786 788
f 687 788 688
f 688 787 690
f 688 690 689
f 688 788 787
f 690 787 789
f 690 789 790
f 690 790 769
f 691 759 791
f 691 791 792
f 691 792 793
f 691 793 794
f 691 794 692
f 692 795 796
f 692 796 693
f 692 794 795
f 693 797 798
f 693 798 696
f 693 796 797
f 695 697 799
f 695 799 703
f 696 798 697
f 697 800 799
f 697 798 797
f 697 797 800
f 699 706 801
f 699 801 802
f 699 802 700
f 700 802 803
f 700 803 702
f 702 803 804
f 702 804 707
f 703 805 806
f 703 806 704
f 703 799 805
f 704 807 705
f 704 806 807
f 705 808 809
f 705 809 810
f 705 810 811
f 705 811 801
f 705 801 706
f 705 807 808
f 707 812 708
f 707 804 812
f 708 813 712
f 708 812 813
f 710 711 739
f 711 712 813
f 711 813 740
f 711 740 739
f 713 715 714
f 713 724 788
f 713 788 786
f 713 786 715
f 715 786 785
f 715 785 814
f 716 815 816
f 716 816 817
f 716 814 875
f 716 875 815
f 717 817 718
f 718 818 719
f 718 817 816
f 718 816 892
f 718 892 818
f 719 818 720
f 720 819 820
f 720 820 722
f 720 722 721
f 720 818 821
f 720 821 822
f 720 822 819
f 722 820 823
f 722 823 745
f 723 738 788
f 723 788 724
f 725 737 726
f 726 824 825
f 726 825 728
f 726 728 727
f 726 737 826
f 726 826 824
f 728 825 827
f 728 827 729
f 729 827 828
f 729 828 829
f 729 829 730
f 730 829 830
f 730 830 831
f 730 831 731
f 731 831 832
f 731 832 833
f 731 833 834
f 731 834 732
f 732 834 835
f 732 835 836
f 732 836 837
f 732 837 838
f 732 838 839
f 732 839 738
f 734 803 802
f 734 802 840
f 734 840 841
f 734 841 736
f 734 736 735
f 734 741 740
f 734 740 842
f 734 842 804
f 734 804 803
f 736 841 843
f 736 843 737
f 737 843 826
f 738 839 844
f 738 844 845
f 738 845 846
f 738 846 847
f 738 847 790
f 738 790 788
f 740 813 842
f 742 745 848
f 742 848 744
f 744 848 755
f 744 755 754
f 745 823 848
f 746 756 747
f 747 849 748
f 747 756 849
f 748 849 749
f 749 849 850
f 749 850 750
f 750 850 851
f 750 851 751
f 751 851 852
f 751 852 752
f 752 853 753
f 752 852 854
f 752 854 853
f 753 853 855
f 753 855 856
f 753 856 773
f 755 848 857
f 755 857 850
f 755 850 849
f 755 849 756
f 757 768 791
f 757 791 758
f 758 791 759
f 760 772 761
f 761 772 858
f 761 858 859
f 761 859 762
f 762 859 860
f 762 860 763
f 763 860 861
f 763 861 862
f 763 862 764
f 764 862 863
f 764 863 765
f 765 863 864
f 765 864 865
f 765 865 767
f 767 865 866
f 767 866 867
f 767 867 868
f 767 868 791
f 767 791 768
f 769 790 770
f 770 790 847
f 770 847 858
f 770 858 772
f 770 772 771
f 773 856 869
f 773 869 774
f 774 869 870
f 774 870 775
f 775 870 871
f 775 871 776
f 776 871 777
f 777 871 779
f 777 779 778
f 779 871 872
f 779 872 780
f 780 872 781
f 781 872 873
f 781 873 782
f 782 873 783
f 783 873 874
f 783 874 784
f 784 874 875
f 784 875 785
f 785 875 814
f 787 788 789
f 788 790 789
f 791 868 876
f 791 876 877
f 791 877 878
f 791 878 792
f 792 878 793
f 793 878 794
f 794 878 795
f 795 878 879
f 795 879 797
f 795 797 796
f 797 879 800
f 799 800 880
f 799 880 805
f 800 881 880
f 800 879 882
f 800 882 881
f 801 811 883
f 801 883 840
f 801 840 802
f 804 842 812
f 805 884 885
f 805 885 886
f 805 886 806
f 805 880 884
f 806 886 807
f 807 886 887
f 807 887 808
f 808 887 809
f 809 824 826
f 809 826 843
f 809 843 841
f 809 841 888
f 809 888 810
f 809 887 889
f 809 889 824
f 810 888 811
f 811 888 883
f 812 842 813
f 815 890 816
f 815 875 874
f 815 874 890
f 816 891 892
f 816 890 891
f 818 892 869
f 818 869 893
f 818 893 894
f 818 894 821
f 819 895 820
f 819 822 855
f 819 855 895
f 820 895 823
f 821 894 855
f 821 855 822
f 823 895 896
f 823 896 848
f 824 889 897
f 824 897 825
f 825 897 827
f 827 897 898
f 827 898 828
f 828 898 899
f 828 899 830
f 828 830 829
f 830 899 900
f 830 900 901
f 830 901 831
f 831 901 832
f 832 901 902
f 832 902 833
f 833 902 834
f 834 902 903
f 834 903 904
f 834 904 835
f 835 904 836
f 836 904 905
f 836 905 906
f 836 906 837
f 837 906 838
f 838 906 907
f 838 907 908
f 838 908 839
f 839 908 907
f 839 907 909
f 839 909 910
f 839 910 911
f 839 911 912
f 839 912 844
f 840 883 841
f 841 883 888
f 844 912 845
f 845 912 846
f 846 912 847
f 847 912 858
f 848 896 857
f 850 857 851
f 851 857 896
f 851 896 852
f 852 896 895
f 852 895 854
f 853 854 913
f 853 913 855
f 854 895 913
f 855 913 895
f 855 894 856
f 856 894 893
f 856 893 869
f 858 912 859
f 859 914 860
f 859 912 911
f 859 911 910
f 859 910 909
f 859 909 914
f 860 914 861
f 861 914 915
f 861 915 862
f 862 915 907
f 862 907 916
f 862 916 863
f 863 916 865
f 863 865 864
f 865 916 917
f 865 917 866
f 866 917 918
f 866 918 867
f 867 918 919
f 867 919 920
f 867 920 868
f 868 920 876
f 869 892 891
f 869 891 870
f 870 891 871
f 871 891 872
f 872 891 890
f 872 890 873
f 873 890 874
f 876 920 934
f 876 934 921
f 876 921 922
f 876 922 877
f 877 922 878
f 878 922 923
f 878 923 879
f 879 923 882
f 880 881 924
f 880 924 885
f 880 885 884
f 881 882 925
f 881 925 926
f 881 926 899
f 881 899 927
f 881 927 924
f 882 923 925
f 885 924 898
f 885 898 889
f 885 889 887
f 885 887 886
f 889 898 897
f 898 924 927
f 898 927 899
f 899 926 900
f 900 926 928
f 900 928 901
f 901 928 929
f 901 929 930
f 901 930 902
f 902 930 931
f 902 931 903
f 903 931 904
f 904 931 932
f 904 932 933
f 904 933 905
f 905 933 906
f 906 933 917
f 906 917 916
f 906 916 907
f 907 915 914
f 907 914 909
f 917 933 918
f 918 933 932
f 918 932 919
f 919 932 920
f 920 932 934
f 921 934 935
f 921 935 922
f 922 929 928
f 922 928 936
f 922 936 923
f 922 935 929
f 923 936 925
f 925 936 926
f 926 936 937
f 926 937 928
f 928 937 936
f 929 935 934
f 929 934 930
f 930 934 932
f 930 932 931

