# https://github.com/mikedh/trimesh
v -0.01512110 0.05297229 0.00600920
v -0.01512110 0.05291071 0.00480038
v -0.01632987 0.05276537 0.00480038
v -0.01632987 0.05279493 0.00600920
v -0.01512110 0.05296243 0.00721895
v -0.01391233 0.05288607 0.00842870
v -0.01391233 0.05286637 0.00721895
v -0.01512110 0.05282942 0.00359249
v -0.01632987 0.05268655 0.00359249
v -0.01753864 0.05247963 0.00480038
v -0.01632987 0.05274320 0.00721895
v -0.01753864 0.05250179 0.00600920
v -0.01512110 0.05283927 0.00842870
v -0.01391233 0.05282449 0.00902105
v -0.01278790 0.05237124 0.00902105
v -0.01290971 0.05241312 0.00842870
v -0.01391233 0.05276044 0.00600920
v -0.01512110 0.05270871 0.00238274
v -0.01391233 0.05253628 0.00359249
v -0.01632987 0.05256338 0.00238274
v -0.01753864 0.05240080 0.00359249
v -0.01854751 0.05211998 0.00359249
v -0.01915345 0.05194755 0.00359249
v -0.01865058 0.05215693 0.00480038
v -0.01632987 0.05255599 0.00842870
v -0.01753864 0.05242297 0.00721895
v -0.01864746 0.05216679 0.00600920
v -0.01512110 0.05271364 0.00902105
v -0.02618743 0.04840531 0.00916681
v -0.01270356 0.05200174 0.00902105
v -0.01326578 0.05205594 0.00265291
v -0.01501491 0.05230227 0.00105693
v -0.01632987 0.05232690 0.00117299
v -0.01379989 0.05232444 0.00230289
v -0.01412785 0.05221605 0.00138374
v -0.01747930 0.05209289 0.00129368
v -0.01753864 0.05226285 0.00238274
v -0.01829451 0.05204855 0.00238274
v -0.02116807 0.05125290 0.00359249
v -0.01925341 0.05197464 0.00480038
v -0.01889733 0.05185394 0.00238274
v -0.02195830 0.05086616 0.00262135
v -0.01830701 0.05205840 0.00801184
v -0.01755113 0.05218895 0.00842035
v -0.01726378 0.05211013 0.00902105
v -0.01633300 0.05239095 0.00902105
v -0.01851627 0.05212491 0.00721895
v -0.01925028 0.05197218 0.00600920
v -0.01912222 0.05193031 0.00721895
v -0.02621554 0.04839299 0.00916681
v -0.02618743 0.04557989 0.00916681
v -0.01259737 0.05144504 0.00902105
v -0.01758237 0.05200667 0.00902105
v -0.01815708 0.05180221 0.00902105
v -0.01993431 0.05114697 0.00902105
v -0.02053714 0.05092281 0.00902105
v -0.02072454 0.05084891 0.00902105
v -0.02085885 0.05079226 0.00902105
v -0.02478813 0.04911228 0.00902105
v -0.01332200 0.05187119 0.00184610
v -0.01454327 0.05197958 0.00057693
v -0.01534911 0.05208057 0.00047573
v -0.01632987 0.05208550 0.00046459
v -0.01703265 0.05203623 0.00052216
v -0.01783849 0.05191060 0.00097152
v -0.01814459 0.05200667 0.00177740
v -0.02116807 0.05130955 0.00480038
v -0.02210510 0.05092281 0.00359249
v -0.02174903 0.05078979 0.00181546
v -0.02236747 0.05065185 0.00228432
v -0.02358561 0.05021338 0.00238274
v -0.02540969 0.04959262 0.00296394
v -0.02127427 0.05103859 0.00228432
v -0.01995618 0.05133911 0.00842870
v -0.01872554 0.05179482 0.00842035
v -0.01796343 0.05194262 0.00881772
v -0.02179276 0.05080457 0.00784936
v -0.01995618 0.05172585 0.00600920
v -0.02116807 0.05128985 0.00600920
v -0.01995618 0.05161993 0.00721895
v -0.02640607 0.04830185 0.00916681
v -0.02520355 0.04892507 0.00902105
v -0.02587508 0.04860730 0.00902105
v -0.02607186 0.04870830 0.00847605
v -0.01309087 0.05062968 0.00902105
v -0.04450324 0.02789085 0.00916681
v -0.01310961 0.05063460 0.00842870
v -0.01327203 0.05075284 0.00238274
v -0.01329077 0.05077255 0.00174398
v -0.01329077 0.05106569 0.00174398
v -0.02110248 0.05092528 0.00832286
v -0.02436959 0.04966652 0.00803412
v -0.01385611 0.05152386 0.00116092
v -0.01501491 0.05150662 0.00032254
v -0.01632987 0.05140069 0.00005051
v -0.01439334 0.05117407 0.00048502
v -0.01747930 0.05146474 0.00015450
v -0.01874741 0.05115436 0.00013500
v -0.01995618 0.05094005 0.00034575
v -0.02062147 0.05081935 0.00052216
v -0.02089321 0.05090803 0.00117299
v -0.02216445 0.05095237 0.00480038
v -0.02358561 0.05035872 0.00359249
v -0.02149603 0.05069126 0.00117299
v -0.02237684 0.05036364 0.00117299
v -0.02439770 0.04967638 0.00150908
v -0.02479750 0.04974535 0.00248951
v -0.02778975 0.04836343 0.00330932
v -0.02830824 0.04811217 0.00366398
v -0.02543468 0.04960494 0.00359249
v -0.02479438 0.04987590 0.00359249
v -0.02520355 0.04949655 0.00215806
v -0.02842381 0.04787077 0.00238274
v -0.02540657 0.04959016 0.00662754
v -0.02478188 0.04974042 0.00710568
v -0.02116807 0.05114944 0.00721895
v -0.02210510 0.05093020 0.00600920
v -0.02652476 0.04833387 0.00891056
v -0.02676839 0.04811464 0.00916681
v -0.02517543 0.04948424 0.00743342
v -0.02678400 0.04847428 0.00810468
v -0.04450324 0.02786868 0.00898019
v -0.04450324 0.02780710 0.00842778
v -0.04450324 0.03242088 0.00916681
v -0.01439334 0.05068387 0.00048502
v -0.04450324 0.02847712 0.00117299
v -0.04450324 0.02858550 0.00075519
v -0.04450324 0.02875301 0.00027519
v -0.01512110 0.05048434 0.00033090
v -0.01753864 0.05019121 -0.00015096
v -0.01874741 0.05019121 -0.00029487
v -0.01995618 0.05019121 -0.00018253
v -0.02237684 0.04987590 0.00016285
v -0.02326702 0.04970101 0.00038010
v -0.02407286 0.04953843 0.00070227
v -0.02363558 0.04986359 0.00113214
v -0.02358561 0.05038827 0.00480038
v -0.02358561 0.05035133 0.00600920
v -0.02479750 0.04935368 0.00113214
v -0.02931398 0.04736333 0.00238274
v -0.02943267 0.04744954 0.00359156
v -0.02944205 0.04744954 0.00479945
v -0.02830824 0.04811464 0.00475675
v -0.02782723 0.04837821 0.00411520
v -0.02544405 0.04960987 0.00480038
v -0.02479438 0.04989069 0.00480038
v -0.02606249 0.04871568 0.00113585
v -0.02679337 0.04847428 0.00151372
v -0.02914532 0.04724262 0.00160100
v -0.02479438 0.04986605 0.00600920
v -0.02542219 0.04959755 0.00600920
v -0.02782723 0.04837821 0.00432781
v -0.02780537 0.04836836 0.00513183
v -0.02774602 0.04833387 0.00600920
v -0.02842381 0.04795206 0.00600920
v -0.02758360 0.04823780 0.00721803
v -0.02697766 0.04858267 0.00721803
v -0.02720879 0.04787570 0.00916681
v -0.02908285 0.04720075 0.00792921
v -0.02844567 0.04743476 0.00837114
v -0.02816768 0.04733623 0.00916681
v -0.02767731 0.04761705 0.00916681
v -0.04450324 0.03257607 0.00884928
v -0.04240429 0.03488912 0.00916681
v -0.04232621 0.03507387 0.00902662
v -0.04137356 0.03657895 0.00842778
v -0.04250424 0.03531527 0.00821981
v -0.04450324 0.02970877 0.00004215
v -0.04414405 0.03084436 -0.00013982
v -0.02479438 0.04777224 -0.00031808
v -0.02237684 0.04898172 -0.00031251
v -0.02479438 0.04875756 0.00010807
v -0.02570017 0.04853094 0.00032904
v -0.02650602 0.04832156 0.00070784
v -0.02618430 0.04860730 0.00101701
v -0.02991681 0.04695195 0.00238274
v -0.03114432 0.04576218 0.00117299
v -0.03145041 0.04595924 0.00296765
v -0.03003550 0.04702339 0.00359156
v -0.03211570 0.04558482 0.00479945
v -0.03004487 0.04703324 0.00479945
v -0.02937021 0.04739043 0.00600920
v -0.03148477 0.04598634 0.00578916
v -0.03096003 0.04632381 0.00611876
v -0.02997303 0.04699876 0.00600920
v -0.02884234 0.04706773 0.00079511
v -0.03032598 0.04601590 0.00046923
v -0.03053837 0.04616616 0.00117299
v -0.02842381 0.04774514 0.00721803
v -0.02886109 0.04706526 0.00873509
v -0.02920779 0.04727711 0.00721803
v -0.02981373 0.04690269 0.00721803
v -0.03074452 0.04629918 0.00721803
v -0.03047590 0.04611936 0.00842778
v -0.02954512 0.04674996 0.00837114
v -0.02845192 0.04716626 0.00916681
v -0.04450324 0.03267460 0.00864132
v -0.04121427 0.03628828 0.00916681
v -0.04221377 0.03614048 0.00721803
v -0.04117991 0.03635725 0.00912132
v -0.04083008 0.03718246 0.00842778
v -0.03987119 0.03866291 0.00762468
v -0.04103935 0.03741155 0.00743157
v -0.04450324 0.03292586 0.00810839
v -0.04450324 0.03082958 -0.00006740
v -0.04293528 0.03326333 -0.00015096
v -0.04051462 0.03568230 -0.00020202
v -0.03930585 0.03689179 -0.00022059
v -0.03084134 0.04414378 -0.00029858
v -0.02721504 0.04656275 -0.00029951
v -0.02606249 0.04786092 -0.00000427
v -0.02618430 0.04782643 0.00001244
v -0.02721504 0.04752098 0.00014800
v -0.02803650 0.04728943 0.00037825
v -0.03135671 0.04589519 0.00216177
v -0.03091006 0.04626962 0.00249137
v -0.03252175 0.04464629 0.00083968
v -0.03209071 0.04510447 0.00121477
v -0.03271540 0.04479656 0.00164556
v -0.03193142 0.04553801 0.00249137
v -0.03281223 0.04487784 0.00238274
v -0.03291218 0.04495667 0.00359156
v -0.03208759 0.04556265 0.00359156
v -0.03293717 0.04498130 0.00479945
v -0.03289968 0.04494435 0.00600920
v -0.03195329 0.04562916 0.00611876
v -0.03144417 0.04595678 0.00659505
v -0.03171591 0.04494928 0.00028262
v -0.02963258 0.04622774 0.00022598
v -0.02961696 0.04641742 0.00916681
v -0.02873927 0.04698890 0.00916681
v -0.03134734 0.04589027 0.00721803
v -0.03020416 0.04601836 0.00916681
v -0.03269042 0.04477439 0.00788928
v -0.03108185 0.04570552 0.00842778
v -0.04002111 0.03756673 0.00916681
v -0.04000550 0.03759630 0.00915103
v -0.04151412 0.03696322 0.00710383
v -0.04230122 0.03625133 0.00600920
v -0.04450324 0.03317958 0.00721803
v -0.04450324 0.03311307 0.00749284
v -0.03966192 0.03844860 0.00842778
v -0.04022414 0.03784263 0.00842778
v -0.03866242 0.03987486 0.00763025
v -0.03930585 0.03931076 0.00722452
v -0.03994615 0.03874174 0.00681880
v -0.04112056 0.03749776 0.00662476
v -0.04450324 0.03200458 0.00011364
v -0.04423150 0.03213021 0.00002359
v -0.04383483 0.03326333 0.00025477
v -0.04285407 0.03437921 0.00025012
v -0.04165467 0.03560840 0.00021392
v -0.04045215 0.03682281 0.00019628
v -0.03924338 0.03803723 0.00018885
v -0.03688519 0.03930830 -0.00023823
v -0.03567642 0.04051532 -0.00022338
v -0.02963258 0.04535327 -0.00027723
v -0.02843630 0.04662187 0.00002359
v -0.03384296 0.04352302 0.00061221
v -0.03403349 0.04366590 0.00141810
v -0.03416780 0.04378167 0.00238274
v -0.03351500 0.04445908 0.00359156
v -0.03622302 0.04228398 0.00479945
v -0.03623551 0.04229137 0.00600920
v -0.03278412 0.04484829 0.00721803
v -0.03611995 0.04220269 0.00721803
v -0.03205011 0.04538529 0.00721803
v -0.03077263 0.04535327 0.00010807
v -0.03209071 0.04420290 -0.00002005
v -0.03303712 0.04384079 0.00021949
v -0.03094754 0.04550845 0.00916681
v -0.03399289 0.04364619 0.00807033
v -0.03323389 0.04412407 0.00838321
v -0.03246865 0.04460442 0.00869516
v -0.03193455 0.04480394 0.00916681
v -0.03205948 0.04504535 0.00834607
v -0.03997426 0.03761600 0.00916681
v -0.03880297 0.03881564 0.00916681
v -0.03997426 0.03877622 0.00600920
v -0.04230434 0.03625872 0.00479945
v -0.04450324 0.03342591 0.00479945
v -0.04450324 0.03336186 0.00600920
v -0.03905597 0.03905704 0.00842778
v -0.03874051 0.03994876 0.00682437
v -0.03844066 0.03966302 0.00842778
v -0.03783471 0.04022219 0.00842778
v -0.03715068 0.04082324 0.00842778
v -0.03740055 0.04104001 0.00748820
v -0.03750675 0.04113607 0.00668139
v -0.04450324 0.03239378 0.00043024
v -0.04357871 0.03391611 0.00049894
v -0.04240117 0.03515515 0.00045995
v -0.04120802 0.03637696 0.00044417
v -0.04000550 0.03759383 0.00043395
v -0.03879673 0.03879839 0.00043395
v -0.03803149 0.03924425 0.00018885
v -0.03681335 0.04044881 0.00019906
v -0.03336820 0.04304514 -0.00002655
v -0.03444891 0.04319048 0.00107829
v -0.03511108 0.04236034 0.00051287
v -0.03527037 0.04251307 0.00117299
v -0.03546402 0.04268057 0.00238274
v -0.03477062 0.04328408 0.00238274
v -0.03616680 0.04223225 0.00359156
v -0.03699451 0.04157208 0.00486444
v -0.03749738 0.04112868 0.00531102
v -0.03750987 0.04113607 0.00600920
v -0.03688519 0.04170510 0.00600920
v -0.03695390 0.04151050 0.00713818
v -0.03557959 0.04164844 0.00024641
v -0.03447077 0.04264362 0.00025570
v -0.03151913 0.04510201 0.00916681
v -0.03377737 0.04346637 0.00887621
v -0.03529536 0.04250075 0.00820681
v -0.03228437 0.04453545 0.00916681
v -0.03175026 0.04493696 0.00916681
v -0.03760670 0.03996600 0.00916681
v -0.03758484 0.04000049 0.00914917
v -0.03936832 0.03938220 0.00600920
v -0.03995552 0.03875405 0.00479945
v -0.04224500 0.03619221 0.00359156
v -0.04450324 0.03330767 0.00238274
v -0.04450324 0.03332984 0.00262877
v -0.04450324 0.03339389 0.00359156
v -0.04450324 0.03340128 0.00377910
v -0.03876549 0.03997093 0.00600920
v -0.03501425 0.04227413 0.00916681
v -0.03506422 0.04231846 0.00901362
v -0.03568891 0.04201301 0.00853826
v -0.03654473 0.04133807 0.00842778
v -0.04450324 0.03292832 0.00095759
v -0.04450324 0.03306134 0.00126862
v -0.04368178 0.03403435 0.00117299
v -0.04314142 0.03464032 0.00117299
v -0.04253548 0.03530049 0.00117299
v -0.04196389 0.03590400 0.00117299
v -0.04136107 0.03653461 0.00117299
v -0.04076762 0.03713812 0.00117299
v -0.03835320 0.03956448 0.00117299
v -0.03774725 0.04016799 0.00117299
v -0.03758484 0.04000295 0.00043488
v -0.03636045 0.04119519 0.00045252
v -0.03587319 0.04195636 0.00117299
v -0.03606997 0.04213372 0.00238274
v -0.03681335 0.04162874 0.00359156
v -0.03873738 0.03994383 0.00479945
v -0.03346190 0.04358461 0.00916681
v -0.03934020 0.03936003 0.00479945
v -0.03992117 0.03871464 0.00414676
v -0.04212943 0.03607397 0.00238274
v -0.04267291 0.03546800 0.00238274
v -0.04327886 0.03476595 0.00238274
v -0.03486433 0.04240222 0.00916681
v -0.04152348 0.03669965 0.00238274
v -0.04093003 0.03730563 0.00238274
v -0.04032721 0.03791653 0.00238274
v -0.03912469 0.03912848 0.00238274
v -0.03731622 0.04094640 0.00238274
v -0.03713194 0.04077150 0.00117299
v -0.03652599 0.04135038 0.00117299
v -0.03671340 0.04153021 0.00238274
v -0.03870302 0.03991427 0.00418947
v -0.03983683 0.03862596 0.00334088
f 1 2 3
f 1 3 4
f 1 4 5
f 1 5 6
f 1 6 7
f 1 7 2
f 2 8 9
f 2 9 3
f 2 7 8
f 3 9 21
f 3 21 10
f 3 10 4
f 4 11 5
f 4 10 12
f 4 12 11
f 5 11 13
f 5 13 6
f 6 14 15
f 6 15 7
f 6 13 14
f 7 15 16
f 7 16 17
f 7 17 8
f 8 18 9
f 8 17 19
f 8 19 18
f 9 18 20
f 9 20 21
f 10 21 22
f 10 22 23
f 10 23 24
f 10 24 12
f 11 25 13
f 11 12 26
f 11 26 25
f 12 24 27
f 12 27 26
f 13 25 28
f 13 28 14
f 14 28 29
f 14 29 15
f 15 30 31
f 15 31 16
f 15 29 30
f 16 31 19
f 16 19 17
f 18 32 33
f 18 33 20
f 18 19 34
f 18 34 35
f 18 35 32
f 19 31 34
f 20 33 36
f 20 36 37
f 20 37 21
f 21 37 22
f 22 37 38
f 22 38 23
f 23 39 40
f 23 40 24
f 23 38 41
f 23 41 42
f 23 42 39
f 24 40 27
f 25 26 43
f 25 43 44
f 25 44 45
f 25 45 46
f 25 46 28
f 26 27 47
f 26 47 43
f 27 40 48
f 27 48 49
f 27 49 47
f 28 46 29
f 29 50 81
f 29 81 119
f 29 119 158
f 29 158 162
f 29 162 161
f 29 161 196
f 29 196 231
f 29 231 230
f 29 230 233
f 29 233 271
f 29 271 312
f 29 312 316
f 29 316 275
f 29 275 315
f 29 315 347
f 29 347 353
f 29 353 327
f 29 327 317
f 29 317 278
f 29 278 277
f 29 277 236
f 29 236 198
f 29 198 164
f 29 164 124
f 29 124 86
f 29 86 51
f 29 51 52
f 29 52 30
f 29 46 45
f 29 45 53
f 29 53 54
f 29 54 55
f 29 55 56
f 29 56 57
f 29 57 58
f 29 58 59
f 29 59 50
f 30 52 31
f 31 52 60
f 31 60 34
f 32 35 61
f 32 61 62
f 32 62 63
f 32 63 33
f 33 63 64
f 33 64 36
f 34 60 35
f 35 60 61
f 36 64 65
f 36 65 66
f 36 66 37
f 37 66 38
f 38 66 41
f 39 67 40
f 39 42 68
f 39 68 67
f 40 67 48
f 41 66 42
f 42 69 70
f 42 70 71
f 42 71 72
f 42 72 68
f 42 66 73
f 42 73 69
f 43 74 75
f 43 75 76
f 43 76 44
f 43 47 49
f 43 49 77
f 43 77 74
f 44 76 45
f 45 76 53
f 48 67 78
f 48 78 49
f 49 78 79
f 49 79 80
f 49 80 77
f 50 59 82
f 50 82 83
f 50 83 84
f 50 84 81
f 51 85 52
f 51 86 85
f 52 85 87
f 52 87 88
f 52 88 89
f 52 89 90
f 52 90 60
f 53 76 54
f 54 76 55
f 55 74 56
f 55 76 74
f 56 91 57
f 56 74 91
f 57 91 77
f 57 77 92
f 57 92 58
f 58 92 59
f 59 92 82
f 60 90 93
f 60 93 61
f 61 94 95
f 61 95 62
f 61 93 96
f 61 96 94
f 62 95 63
f 63 95 97
f 63 97 64
f 64 97 98
f 64 98 99
f 64 99 100
f 64 100 65
f 65 100 101
f 65 101 69
f 65 69 66
f 66 69 73
f 67 68 102
f 67 102 78
f 68 72 103
f 68 103 102
f 69 104 105
f 69 105 106
f 69 106 71
f 69 71 70
f 69 101 100
f 69 100 104
f 71 106 107
f 71 107 72
f 72 108 109
f 72 109 110
f 72 110 111
f 72 111 103
f 72 107 112
f 72 112 113
f 72 113 108
f 74 76 75
f 74 77 91
f 77 114 115
f 77 115 92
f 77 80 116
f 77 116 114
f 78 102 79
f 79 102 117
f 79 117 80
f 80 117 114
f 80 114 116
f 81 118 119
f 81 84 118
f 82 84 83
f 82 92 84
f 84 92 120
f 84 120 121
f 84 121 118
f 85 86 122
f 85 122 123
f 85 123 87
f 86 124 163
f 86 163 197
f 86 197 204
f 86 204 241
f 86 241 240
f 86 240 282
f 86 282 281
f 86 281 325
f 86 325 324
f 86 324 323
f 86 323 322
f 86 322 332
f 86 332 331
f 86 331 290
f 86 290 248
f 86 248 205
f 86 205 168
f 86 168 128
f 86 128 127
f 86 127 126
f 86 126 123
f 86 123 122
f 87 123 88
f 88 123 89
f 89 125 96
f 89 96 90
f 89 123 126
f 89 126 127
f 89 127 128
f 89 128 125
f 90 96 93
f 92 115 120
f 94 96 125
f 94 125 129
f 94 129 95
f 95 129 130
f 95 130 131
f 95 131 97
f 97 131 132
f 97 132 98
f 98 132 133
f 98 133 99
f 99 133 134
f 99 134 100
f 100 134 135
f 100 135 136
f 100 136 105
f 100 105 104
f 102 103 137
f 102 137 138
f 102 138 117
f 103 111 137
f 105 136 106
f 106 136 135
f 106 135 139
f 106 139 112
f 106 112 107
f 108 113 140
f 108 140 109
f 109 140 141
f 109 141 142
f 109 142 143
f 109 143 144
f 109 144 110
f 110 145 146
f 110 146 111
f 110 144 145
f 111 146 137
f 112 139 147
f 112 147 148
f 112 148 113
f 113 149 140
f 113 148 149
f 114 120 115
f 114 117 138
f 114 138 150
f 114 150 151
f 114 151 152
f 114 152 143
f 114 143 153
f 114 153 154
f 114 154 155
f 114 155 156
f 114 156 157
f 114 157 121
f 114 121 120
f 118 121 119
f 119 121 158
f 121 157 156
f 121 156 159
f 121 159 160
f 121 160 161
f 121 161 162
f 121 162 158
f 124 164 165
f 124 165 166
f 124 166 167
f 124 167 163
f 125 128 129
f 128 168 130
f 128 130 129
f 130 168 169
f 130 169 131
f 131 170 171
f 131 171 132
f 131 169 170
f 132 171 133
f 133 171 172
f 133 172 134
f 134 172 173
f 134 173 135
f 135 173 174
f 135 174 139
f 137 146 150
f 137 150 138
f 139 174 175
f 139 175 147
f 140 176 141
f 140 149 177
f 140 177 176
f 141 176 178
f 141 178 179
f 141 179 180
f 141 180 181
f 141 181 142
f 142 182 155
f 142 155 143
f 142 181 183
f 142 183 184
f 142 184 185
f 142 185 182
f 143 154 153
f 143 152 144
f 143 155 154
f 144 152 145
f 145 151 146
f 145 152 151
f 146 151 150
f 147 175 148
f 148 175 174
f 148 174 149
f 149 174 186
f 149 186 187
f 149 187 188
f 149 188 177
f 155 182 189
f 155 189 156
f 156 189 159
f 159 190 160
f 159 189 191
f 159 191 192
f 159 192 193
f 159 193 194
f 159 194 195
f 159 195 190
f 160 190 161
f 161 190 196
f 163 167 197
f 164 198 165
f 165 198 166
f 166 199 167
f 166 198 200
f 166 200 201
f 166 201 202
f 166 202 203
f 166 203 199
f 167 199 204
f 167 204 197
f 168 205 169
f 169 205 206
f 169 206 207
f 169 207 208
f 169 208 209
f 169 209 170
f 170 210 211
f 170 211 172
f 170 172 171
f 170 209 210
f 172 211 212
f 172 212 213
f 172 213 173
f 173 213 214
f 173 214 174
f 174 214 186
f 176 177 215
f 176 215 216
f 176 216 178
f 177 188 187
f 177 187 217
f 177 217 218
f 177 218 219
f 177 219 215
f 178 216 220
f 178 220 221
f 178 221 222
f 178 222 223
f 178 223 179
f 179 223 180
f 180 224 225
f 180 225 226
f 180 226 183
f 180 183 181
f 180 223 224
f 182 185 227
f 182 227 192
f 182 192 191
f 182 191 189
f 183 226 227
f 183 227 184
f 184 227 185
f 186 214 187
f 187 228 217
f 187 214 229
f 187 229 228
f 190 195 230
f 190 230 231
f 190 231 196
f 192 227 193
f 193 227 232
f 193 232 194
f 194 233 230
f 194 230 195
f 194 232 234
f 194 234 235
f 194 235 233
f 198 236 237
f 198 237 200
f 199 203 238
f 199 238 239
f 199 239 240
f 199 240 241
f 199 241 204
f 200 237 242
f 200 242 243
f 200 243 201
f 201 243 202
f 202 242 244
f 202 244 245
f 202 245 246
f 202 246 247
f 202 247 238
f 202 238 203
f 202 243 242
f 205 248 249
f 205 249 206
f 206 249 250
f 206 250 251
f 206 251 252
f 206 252 207
f 207 253 208
f 207 252 253
f 208 253 254
f 208 254 255
f 208 255 209
f 209 255 256
f 209 256 257
f 209 257 210
f 210 257 211
f 211 257 258
f 211 258 212
f 212 258 213
f 213 258 229
f 213 229 214
f 215 219 221
f 215 221 220
f 215 220 216
f 217 259 219
f 217 219 218
f 217 228 259
f 219 259 260
f 219 260 261
f 219 261 221
f 221 261 222
f 222 261 303
f 222 303 262
f 222 262 263
f 222 263 224
f 222 224 223
f 224 263 264
f 224 264 225
f 225 265 227
f 225 227 226
f 225 264 266
f 225 266 265
f 227 265 267
f 227 267 232
f 228 229 268
f 228 268 269
f 228 269 270
f 228 270 259
f 229 258 268
f 232 267 234
f 233 235 271
f 234 265 266
f 234 266 272
f 234 272 273
f 234 273 274
f 234 274 275
f 234 275 276
f 234 276 235
f 234 267 265
f 235 276 271
f 236 277 237
f 237 277 278
f 237 278 242
f 238 247 239
f 239 247 279
f 239 279 280
f 239 280 281
f 239 281 282
f 239 282 240
f 242 278 283
f 242 283 244
f 244 284 245
f 244 283 285
f 244 285 286
f 244 286 287
f 244 287 288
f 244 288 289
f 244 289 284
f 245 284 246
f 246 279 247
f 246 284 279
f 248 290 250
f 248 250 249
f 250 291 251
f 250 290 291
f 251 291 292
f 251 292 252
f 252 292 293
f 252 293 253
f 253 294 254
f 253 293 294
f 254 294 295
f 254 295 296
f 254 296 255
f 255 296 256
f 256 296 297
f 256 297 298
f 256 298 269
f 256 269 257
f 257 269 268
f 257 268 258
f 259 299 260
f 259 270 300
f 259 300 301
f 259 301 299
f 260 299 301
f 260 301 302
f 260 302 303
f 260 303 261
f 262 303 304
f 262 304 263
f 263 304 305
f 263 305 306
f 263 306 307
f 263 307 308
f 263 308 264
f 264 308 289
f 264 289 266
f 266 289 309
f 266 309 288
f 266 288 272
f 269 298 297
f 269 297 310
f 269 310 270
f 270 310 311
f 270 311 300
f 271 276 312
f 272 313 273
f 272 288 314
f 272 314 313
f 273 313 274
f 274 315 275
f 274 313 315
f 275 316 276
f 276 316 312
f 278 317 318
f 278 318 285
f 278 285 283
f 279 284 319
f 279 319 320
f 279 320 280
f 280 321 322
f 280 322 323
f 280 323 324
f 280 324 325
f 280 325 281
f 280 320 321
f 284 289 326
f 284 326 319
f 285 318 286
f 286 318 327
f 286 327 287
f 287 327 328
f 287 328 329
f 287 329 330
f 287 330 314
f 287 314 288
f 288 309 289
f 289 307 326
f 289 308 307
f 290 331 291
f 291 331 332
f 291 332 333
f 291 333 334
f 291 334 335
f 291 335 292
f 292 335 336
f 292 336 337
f 292 337 293
f 293 337 338
f 293 338 294
f 294 338 339
f 294 339 295
f 295 339 340
f 295 340 341
f 295 341 296
f 296 341 297
f 297 342 310
f 297 341 342
f 300 342 301
f 300 311 342
f 301 342 343
f 301 343 344
f 301 344 302
f 302 344 304
f 302 304 303
f 304 345 346
f 304 346 305
f 304 344 345
f 305 346 306
f 306 346 326
f 306 326 307
f 310 342 311
f 313 347 315
f 313 314 328
f 313 328 347
f 314 330 329
f 314 329 328
f 317 327 318
f 319 348 320
f 319 326 348
f 320 348 349
f 320 349 321
f 321 350 351
f 321 351 352
f 321 352 322
f 321 349 350
f 322 352 333
f 322 333 332
f 326 346 348
f 327 353 328
f 328 353 347
f 333 352 351
f 333 351 334
f 334 351 350
f 334 350 335
f 335 350 336
f 336 350 337
f 337 350 354
f 337 354 355
f 337 355 338
f 338 355 356
f 338 356 357
f 338 357 358
f 338 358 339
f 339 358 340
f 340 358 359
f 340 359 341
f 341 359 342
f 342 359 360
f 342 360 343
f 343 360 344
f 344 360 361
f 344 361 345
f 345 361 362
f 345 362 346
f 346 362 348
f 348 362 349
f 349 362 358
f 349 358 363
f 349 363 355
f 349 355 354
f 349 354 350
f 355 363 356
f 356 363 357
f 357 363 358
f 358 362 361
f 358 361 359
f 359 361 360

