# https://github.com/mikedh/trimesh
v 0.06098415 0.00166298 0.01206157
v 0.06074273 0.00059397 0.01326960
v 0.06100610 0.00059397 0.01206157
v 0.06070615 0.00166298 0.01086062
v 0.06067689 0.00166298 0.01337599
v 0.06074273 -0.00061021 0.01326960
v 0.06065494 0.00166298 0.01342800
v 0.06064762 0.00059397 0.01348237
v 0.06099879 -0.00061021 0.01206157
v 0.06066957 -0.00050577 0.01074005
v 0.06066957 0.00053253 0.01073296
v 0.06059642 0.00036050 0.01054856
v 0.06045010 0.00166298 0.01026724
v 0.06066957 -0.00173452 0.01337835
v 0.06067689 -0.00424732 0.01316558
v 0.06064762 0.00018233 0.01348237
v 0.06046473 -0.00061021 0.01388663
v 0.06045741 -0.00127374 0.01387953
v 0.06061836 0.00166298 0.01348001
v 0.06045741 0.00122677 0.01387953
v 0.06046473 0.00059397 0.01388426
v 0.06095489 -0.00182668 0.01206157
v 0.06066957 -0.00303700 0.01093391
v 0.06069152 -0.00182668 0.01089372
v 0.06055252 -0.00182668 0.01054856
v 0.06044278 -0.00182668 0.01029088
v 0.06046473 -0.00003270 0.01024833
v 0.06046473 0.00007789 0.01024833
v 0.06045741 0.00088272 0.01025069
v 0.05986483 0.00166298 0.00976606
v 0.06053789 -0.00424732 0.01348001
v 0.06042815 -0.00303700 0.01382043
v 0.06084516 -0.00424732 0.01206157
v 0.06063300 -0.00545150 0.01307575
v 0.05985751 -0.00061021 0.01445400
v 0.05982825 -0.00303700 0.01443272
v 0.05979898 -0.00424732 0.01442090
v 0.06001846 0.00166298 0.01427906
v 0.05985751 0.00059397 0.01445164
v 0.06063300 -0.00424732 0.01102610
v 0.06042084 -0.00303700 0.01033107
v 0.05976972 -0.00424732 0.00978024
v 0.05981362 -0.00303700 0.00976842
v 0.05983556 -0.00182668 0.00975896
v 0.05997456 -0.00050577 0.00985116
v 0.05997456 0.00053253 0.00984880
v 0.05864307 -0.00424732 0.00926015
v 0.05864307 0.00166298 0.00926960
v 0.06040620 -0.00424732 0.01377315
v 0.06036231 -0.00545150 0.01368095
v 0.06055983 -0.00666183 0.01291972
v 0.06050863 -0.00755882 0.01277551
v 0.06074273 -0.00545150 0.01206157
v 0.06051594 -0.00666183 0.01132634
v 0.06058178 -0.00545150 0.01116086
v 0.06031841 -0.00666183 0.01348237
v 0.05919177 -0.00061021 0.01505211
v 0.05918445 -0.00182668 0.01504265
v 0.05915518 -0.00424732 0.01502374
v 0.05975509 -0.00545150 0.01438781
v 0.05916982 0.00166298 0.01503793
v 0.05918445 0.00059397 0.01504738
v 0.06041352 -0.00445007 0.01054856
v 0.06042815 -0.00424732 0.01054856
v 0.06036962 -0.00424732 0.01042090
v 0.05956488 -0.00787215 0.00991499
v 0.05963803 -0.00666183 0.00985589
v 0.05970388 -0.00545150 0.00980861
v 0.05864307 -0.00787215 0.00934762
v 0.05864307 -0.00666183 0.00929324
v 0.05864307 -0.00545150 0.00926251
v 0.04892028 -0.02529588 0.00918450
v 0.05365365 -0.00338720 0.00925069
v 0.05288548 -0.00338720 0.00925069
v -0.01373286 -0.04976036 0.00918213
v 0.05136378 0.00166298 0.01128142
v 0.05969656 -0.00666183 0.01433816
v 0.06029647 -0.00666183 0.01352492
v 0.05962340 -0.00787215 0.01427670
v 0.05953561 -0.00908247 0.01419395
v 0.05944051 -0.01029279 0.01408994
v 0.06029647 -0.00684000 0.01348237
v 0.06008431 -0.01029279 0.01206157
v 0.06028915 -0.00908247 0.01206157
v 0.06050131 -0.00754653 0.01206157
v 0.06061104 -0.00666183 0.01206157
v 0.06025988 -0.00792744 0.01321523
v 0.06006967 -0.00908247 0.01326960
v 0.05986483 -0.01029279 0.01326960
v 0.05932345 -0.01391147 0.01283462
v 0.05925029 -0.01452585 0.01267149
v 0.06047204 -0.00734993 0.01143036
v 0.06023794 -0.00666183 0.01072114
v 0.06031109 -0.00540235 0.01054856
v 0.05856992 0.00166298 0.01535235
v 0.05858455 -0.00061021 0.01535944
v 0.05857723 -0.00182668 0.01535944
v 0.05854797 -0.00424732 0.01534525
v 0.05850408 -0.00545150 0.01533107
v 0.05910398 -0.00545150 0.01499301
v 0.05946977 -0.00908247 0.00999537
v 0.05864307 -0.01029279 0.00957693
v 0.05864307 -0.00908247 0.00944218
v 0.05744328 -0.01391147 0.00937362
v 0.05744328 -0.01270115 0.00928851
v 0.05622884 -0.01754244 0.00928615
v 0.05502172 -0.02117341 0.00928142
v 0.04881054 -0.02559078 0.00918450
v -0.01082846 -0.05090310 0.00918213
v -0.01082846 -0.05073108 0.00918213
v -0.01147957 -0.05033173 0.00918213
v -0.01269401 -0.04991396 0.00918213
v -0.01347681 -0.04979108 0.00918213
v 0.04630120 -0.02529588 0.00918450
v 0.05380728 -0.02359405 0.00927197
v -0.01373286 -0.05266637 0.00918213
v -0.01373286 -0.04657789 0.01129797
v 0.01217996 0.00166298 0.02599538
v 0.01268476 0.00166298 0.02575661
v 0.01289692 0.00166298 0.02566204
v 0.01392846 0.00166298 0.02523887
v 0.01405283 0.00166298 0.02518923
v 0.05903082 -0.00666183 0.01494336
v 0.05894302 -0.00787215 0.01488190
v 0.05884792 -0.00908247 0.01480152
v 0.05873818 -0.01029279 0.01469750
v 0.05933808 -0.01130037 0.01398355
v 0.05985751 -0.01150311 0.01206157
v 0.05930151 -0.01353670 0.01134053
v 0.05971119 -0.01058155 0.01348237
v 0.05925029 -0.01209906 0.01387717
v 0.05950635 -0.01170586 0.01348237
v 0.05945514 -0.01270115 0.01313249
v 0.05902351 -0.01391147 0.01343982
v 0.05843823 -0.01754244 0.01206157
v 0.05925029 -0.01452585 0.01264785
v 0.05825534 -0.01754244 0.01308521
v 0.05813096 -0.01843328 0.01284171
v 0.05798465 -0.01914596 0.01206157
v 0.05995993 -0.00908247 0.01085353
v 0.06019404 -0.00780457 0.01095755
v 0.05939661 -0.01270115 0.01112303
v 0.05976240 -0.01029279 0.01085353
v 0.05936734 -0.01029279 0.01010648
v 0.05743596 0.00166298 0.01577315
v 0.05743596 0.00059397 0.01578261
v 0.05743596 -0.00061021 0.01578970
v 0.05743596 -0.00182668 0.01578733
v 0.05743596 -0.00303700 0.01578024
v 0.05743596 -0.00424732 0.01576133
v 0.05743596 -0.00545150 0.01573769
v 0.05843091 -0.00666183 0.01529797
v 0.05743596 -0.00666183 0.01569514
v 0.05850408 -0.01270115 0.00982043
v 0.05744328 -0.01512180 0.00952256
v 0.05622884 -0.01874662 0.00939490
v 0.05502172 -0.02237759 0.00940908
v 0.05380728 -0.02479823 0.00935707
v 0.05260016 -0.02722502 0.00934289
v 0.04841548 -0.02648777 0.00918450
v -0.01127473 -0.05155434 0.00918213
v 0.04829112 -0.02675195 0.00918450
v 0.04766927 -0.02789469 0.00918450
v 0.04742784 -0.02833704 0.00918450
v 0.04723763 -0.02867495 0.00918450
v 0.04656457 -0.02966409 0.00918450
v 0.05018592 -0.03083756 0.00931925
v 0.04605977 -0.03037677 0.00918450
v -0.01373286 -0.05744622 0.00927669
v -0.01314759 -0.05270937 0.00918213
v -0.00422954 -0.05865654 0.00920104
v -0.01269401 -0.05744622 0.00921523
v -0.01373286 -0.04629528 0.01205684
v 0.00002098 -0.01071671 0.02795992
v 0.00002098 -0.01099318 0.02735471
v 0.00002098 -0.01128808 0.02695046
v 0.00002098 -0.01163213 0.02651311
v 0.00002098 -0.01189632 0.02618450
v 0.00002098 -0.01208677 0.02595282
v 0.01084847 0.00166298 0.02711122
v 0.01160932 0.00166298 0.02645164
v 0.01174833 0.00166298 0.02633344
v 0.05833581 -0.00787215 0.01525306
v 0.05824070 -0.00908247 0.01520105
v 0.05813828 -0.01029279 0.01514431
v 0.05807244 -0.01103004 0.01510412
v 0.05797733 -0.01182874 0.01504738
v 0.05786760 -0.01270115 0.01497646
v 0.05856992 -0.01270115 0.01437126
v 0.05840897 -0.01391147 0.01424833
v 0.05960146 -0.01270115 0.01206157
v 0.05921371 -0.01433539 0.01184171
v 0.05810902 -0.01839028 0.01130979
v 0.05821875 -0.01754244 0.01108757
v 0.05921371 -0.01191475 0.01032161
v 0.05825534 -0.01512180 0.01410648
v 0.05813828 -0.01608022 0.01398355
v 0.05802854 -0.01688506 0.01385589
v 0.05832118 -0.01652257 0.01348001
v 0.05875282 -0.01633212 0.01206157
v 0.05934540 -0.01392376 0.01217268
v 0.05908934 -0.01500506 0.01217268
v 0.05791880 -0.01754244 0.01369041
v 0.05718722 -0.02016583 0.01348001
v 0.05707748 -0.02117341 0.01309939
v 0.05693116 -0.02201510 0.01284644
v 0.05733353 -0.02117341 0.01206157
v 0.05772859 -0.01995694 0.01206157
v 0.05929419 -0.01111606 0.01019395
v 0.05949903 -0.01151540 0.01077551
v 0.01311639 0.00166298 0.02821524
v 0.00800260 -0.00440092 0.03333344
v 0.00800260 -0.01126965 0.03333344
v 0.05743596 -0.00787215 0.01563131
v 0.05743596 -0.00908247 0.01556038
v 0.05835776 -0.01391147 0.00992445
v 0.05730427 -0.01754244 0.00981807
v 0.05622884 -0.01995694 0.00959348
v 0.05512414 -0.02367392 0.00977551
v 0.05381460 -0.02600855 0.00961476
v 0.05381460 -0.02529588 0.00946109
v 0.05628737 -0.02109968 0.00987953
v 0.05593620 -0.02237759 0.00995282
v 0.05260016 -0.02842920 0.00960766
v 0.05139305 -0.02963952 0.00935944
v -0.01184537 -0.05218101 0.00918213
v 0.04482339 -0.03195572 0.00918450
v 0.04341874 -0.03373127 0.00918450
v 0.04112887 -0.03642224 0.00918450
v 0.04897149 -0.03325820 0.00934289
v -0.00906534 -0.05865654 0.00933343
v -0.01027246 -0.05865654 0.00942090
v -0.01148689 -0.05865654 0.00954620
v -0.01373286 -0.05764282 0.00936889
v -0.01266474 -0.05256192 0.00918213
v 0.01678165 -0.05193525 0.00918450
v 0.01624027 -0.05208885 0.00918450
v 0.01506973 -0.05232231 0.00918450
v 0.01390651 -0.05253120 0.00918450
v 0.00182068 -0.05865654 0.00920104
v 0.00001366 -0.05986686 0.00955565
v -0.00060087 -0.05986686 0.00955802
v -0.00543666 -0.05865654 0.00921523
v 0.00061357 -0.05986072 0.00955329
v -0.00785822 -0.05865654 0.00926960
v -0.00665110 -0.05865654 0.00923651
v -0.01373286 -0.04627685 0.01214904
v 0.00002098 -0.00930979 0.03333344
v 0.01060705 0.00166298 0.02777552
v 0.05743596 -0.01029279 0.01546819
v 0.05752375 -0.01146625 0.01531925
v 0.05726769 -0.01270115 0.01531216
v 0.05710675 -0.01391147 0.01524124
v 0.05686532 -0.01584676 0.01510412
v 0.05674826 -0.01665159 0.01503556
v 0.05770664 -0.01391147 0.01485353
v 0.05693116 -0.02202125 0.01124596
v 0.05704822 -0.02109968 0.01084407
v 0.05740670 -0.01995694 0.01085353
v 0.05777249 -0.01877734 0.01088426
v 0.05791149 -0.01754244 0.01048473
v 0.05807976 -0.01703251 0.01054856
v 0.05800659 -0.01679904 0.01030506
v 0.05810902 -0.01599421 0.01016795
v 0.05755301 -0.01512180 0.01471168
v 0.05745059 -0.01636898 0.01450837
v 0.05731891 -0.01754244 0.01432634
v 0.05712137 -0.01874662 0.01416086
v 0.05696042 -0.01974191 0.01400956
v 0.05682142 -0.02054674 0.01387244
v 0.05671900 -0.02117341 0.01370459
v 0.05697506 -0.02213798 0.01206157
v 0.05554846 -0.02402412 0.01377551
v 0.05579720 -0.02458320 0.01296937
v 0.05564357 -0.02529588 0.01248001
v 0.05561431 -0.02539418 0.01241381
v 0.05821144 -0.01512180 0.01005684
v 0.01057047 0.00166298 0.02821524
v 0.00694180 -0.00452994 0.03333344
v 0.00740270 -0.01166900 0.03333344
v 0.03324236 -0.04776364 0.01551547
v 0.03445680 -0.04655332 0.01563603
v 0.03567123 -0.04534299 0.01572114
v 0.03693688 -0.04541057 0.01537362
v 0.03929990 -0.04293463 0.01552256
v 0.04050703 -0.04172431 0.01553911
v 0.04171414 -0.04051399 0.01553911
v 0.04292858 -0.03930367 0.01551783
v 0.04534282 -0.03567884 0.01571878
v 0.04654994 -0.03446852 0.01564313
v 0.04775706 -0.03325820 0.01552729
v 0.04897149 -0.03083756 0.01563131
v 0.05017861 -0.02843534 0.01568804
v 0.05139305 -0.02722502 0.01549892
v 0.05210268 -0.02529588 0.01558639
v 0.05259285 -0.02479823 0.01549892
v 0.05259285 -0.02359405 0.01569514
v 0.05380728 -0.02117341 0.01563603
v 0.05502172 -0.01754244 0.01567386
v 0.05622884 -0.01391147 0.01561476
v 0.05622884 -0.01270115 0.01572351
v 0.05713601 -0.01874662 0.00994573
v 0.05483882 -0.02479823 0.00988899
v 0.05381460 -0.02711443 0.00994336
v 0.05696042 -0.01995694 0.01010885
v 0.05686532 -0.02065733 0.01021523
v 0.05575330 -0.02331758 0.01011357
v 0.05258553 -0.02952279 0.00995755
v 0.05148084 -0.03089899 0.00976133
v 0.05018592 -0.03204788 0.00942799
v -0.01205021 -0.05231617 0.00918213
v 0.04003149 -0.03762028 0.00918450
v 0.03882437 -0.03881217 0.00918450
v 0.03641745 -0.04108536 0.00918450
v 0.03521765 -0.04218510 0.00918450
v 0.03495428 -0.04241856 0.00918450
v 0.03350573 -0.04359202 0.00918450
v 0.03188161 -0.04484535 0.00918450
v 0.03035259 -0.04596966 0.00918450
v 0.03026480 -0.04603109 0.00918450
v 0.04171414 -0.04172431 0.00934289
v 0.04775706 -0.03567884 0.00949655
v 0.04654994 -0.03688917 0.00941854
v 0.04535013 -0.03809335 0.00939253
v 0.04292126 -0.04051399 0.00935471
v -0.00422954 -0.05986686 0.00966913
v -0.00665110 -0.05979314 0.00978733
v -0.00785822 -0.05971327 0.00982989
v -0.00906534 -0.05962111 0.00989372
v -0.01027246 -0.05952281 0.00996700
v -0.01148689 -0.05941222 0.01006866
v -0.01373286 -0.05855210 0.00984171
v 0.02432431 -0.04921971 0.00918450
v 0.02324156 -0.04964363 0.00918450
v 0.02069564 -0.05060820 0.00918450
v 0.01979579 -0.05092153 0.00918450
v 0.00544936 -0.05865654 0.00920577
v 0.00424224 -0.05865654 0.00920341
v 0.00001366 -0.06023549 0.00982989
v 0.00061357 -0.06058568 0.01009230
v -0.00060087 -0.06058568 0.01009703
v -0.00180799 -0.05986686 0.00958639
v 0.00665648 -0.05865654 0.00921996
v 0.00182068 -0.05986072 0.00957930
v -0.00301511 -0.05986686 0.00961948
v -0.01373286 -0.04679907 0.01286062
v 0.00113299 -0.00839437 0.03333344
v -0.01373286 -0.04776978 0.01323178
v -0.01373286 -0.04898011 0.01344927
v -0.01373286 -0.05470610 0.01403083
v 0.00002098 -0.01374559 0.03333344
v 0.05622884 -0.01512180 0.01548710
v 0.05629468 -0.01628297 0.01531452
v 0.05598741 -0.01754244 0.01527670
v 0.05577525 -0.01874662 0.01517504
v 0.05565089 -0.01945930 0.01510412
v 0.05551188 -0.02026413 0.01501901
v 0.05658732 -0.01754244 0.01492918
v 0.05674826 -0.02154203 0.01054856
v 0.05681410 -0.02135772 0.01054856
v 0.05563625 -0.02541875 0.01144691
v 0.05576062 -0.02479823 0.01118450
v 0.05559236 -0.02412242 0.01029324
v 0.05637516 -0.01874662 0.01476842
v 0.05609715 -0.02117341 0.01430270
v 0.05587767 -0.02237759 0.01412303
v 0.05571672 -0.02321314 0.01397646
v 0.05638247 -0.02359405 0.01206157
v 0.05542409 -0.02490882 0.01332871
v 0.05456813 -0.02571365 0.01401665
v 0.05436329 -0.02651849 0.01380625
v 0.05486077 -0.02607613 0.01334998
v 0.05460471 -0.02700384 0.01300010
v 0.05440718 -0.02780868 0.01248710
v 0.05563625 -0.02541875 0.01160530
v 0.05583378 -0.02490882 0.01203320
v 0.00659063 -0.01216664 0.03333344
v 0.03082812 -0.04897396 0.01563131
v 0.03203524 -0.04901697 0.01533580
v 0.03324236 -0.04857462 0.01518923
v 0.03433974 -0.04771449 0.01523651
v 0.03564197 -0.04657174 0.01531925
v 0.03783673 -0.04504809 0.01521996
v 0.03929990 -0.04381934 0.01520814
v 0.03818058 -0.04423097 0.01540908
v 0.03657108 -0.04617240 0.01519632
v 0.04038266 -0.04283634 0.01520105
v 0.04161904 -0.04163216 0.01521050
v 0.04282616 -0.04040955 0.01520577
v 0.04382843 -0.03930367 0.01520814
v 0.04424544 -0.03819779 0.01540199
v 0.04541598 -0.03695060 0.01536890
v 0.04657188 -0.03567270 0.01532634
v 0.04772047 -0.03437636 0.01524833
v 0.04861301 -0.03325820 0.01520577
v 0.04903002 -0.03206631 0.01534525
v 0.05028835 -0.02972553 0.01539017
v 0.05138573 -0.02833090 0.01526488
v 0.05217584 -0.02722502 0.01517741
v 0.05262211 -0.02592254 0.01527197
v 0.05260748 -0.02529588 0.01539963
v 0.05365365 -0.02359405 0.01530034
v 0.05391702 -0.02246974 0.01537835
v 0.05473640 -0.02117341 0.01525306
v 0.05502172 -0.01874662 0.01550838
v 0.05473640 -0.02529588 0.00997646
v 0.05457545 -0.02600855 0.01010412
v 0.05336102 -0.02842920 0.01010175
v 0.05671900 -0.02146216 0.01043982
v 0.05216853 -0.03054265 0.01007811
v 0.05112967 -0.03204788 0.00995518
v 0.05320738 -0.02903743 0.01024360
v 0.05019324 -0.03322748 0.00985116
v 0.04906660 -0.03455453 0.00973769
v 0.02926253 -0.04667619 0.00918450
v 0.02836999 -0.04724142 0.00918450
v 0.02789446 -0.04751789 0.00918450
v 0.02677513 -0.04814455 0.00918450
v 0.02644592 -0.04830429 0.00918450
v 0.02609475 -0.04846403 0.00918450
v 0.04050703 -0.04293463 0.00934289
v 0.03325699 -0.04897396 0.00934052
v 0.03083544 -0.05018428 0.00931925
v 0.04301637 -0.04181033 0.00976606
v 0.04180925 -0.04302065 0.00976133
v 0.04772779 -0.03681544 0.00993863
v 0.04656457 -0.03808106 0.00985589
v 0.04539403 -0.03934667 0.00980861
v 0.04420886 -0.04058772 0.00978024
v -0.00301511 -0.06054268 0.01014667
v -0.00422954 -0.06051810 0.01018213
v -0.00544398 -0.05997131 0.00983698
v -0.00504161 -0.06048738 0.01021759
v -0.00584635 -0.06044438 0.01029088
v -0.00665110 -0.06039523 0.01039017
v -0.00785822 -0.06031536 0.01056275
v -0.01235748 -0.05932007 0.01017031
v -0.01373286 -0.05868726 0.00995518
v 0.01269939 -0.05744622 0.00922941
v 0.00182068 -0.06057339 0.01011121
v 0.00061357 -0.06091131 0.01084880
v -0.00060087 -0.06090516 0.01084880
v -0.00180799 -0.06056725 0.01012067
v 0.00786360 -0.05865654 0.00925542
v 0.00302780 -0.05986072 0.00961476
v -0.01373286 -0.05890229 0.01403083
v -0.01351339 -0.05904974 0.01403083
v -0.01269401 -0.05927092 0.01403083
v -0.01222579 -0.05938765 0.01403083
v 0.00002098 -0.05862582 0.01536180
v 0.00061357 -0.01374559 0.03333344
v 0.05507293 -0.01990165 0.01530743
v 0.05454619 -0.02213798 0.01516559
v 0.05439987 -0.02294281 0.01507811
v 0.05533630 -0.02117341 0.01490790
v 0.05442182 -0.02783940 0.01143745
v 0.05442182 -0.02663522 0.01023887
v 0.05544604 -0.02479823 0.01057693
v 0.05497783 -0.02246974 0.01479443
v 0.05509488 -0.02360634 0.01434525
v 0.05476567 -0.02479823 0.01419632
v 0.05466324 -0.02529588 0.01409939
v 0.05398286 -0.02479823 0.01480388
v 0.05303180 -0.02626045 0.01498592
v 0.05278306 -0.02722502 0.01481098
v 0.05357318 -0.02722502 0.01420577
v 0.05333907 -0.02810358 0.01401192
v 0.05313422 -0.02890841 0.01378497
v 0.05340491 -0.02868109 0.01354620
v 0.05363902 -0.02847835 0.01333816
v 0.05339760 -0.02936305 0.01297882
v 0.05212463 -0.03166082 0.01288426
v 0.05350002 -0.02954736 0.01205920
v 0.05415845 -0.02831861 0.01207575
v 0.05442182 -0.02783940 0.01168095
v 0.00639311 -0.01227109 0.03333344
v 0.02721408 -0.05138846 0.01550365
v 0.02841389 -0.05018428 0.01569986
v 0.02970148 -0.05027644 0.01539490
v 0.03082812 -0.04993853 0.01526488
v 0.03163287 -0.04969278 0.01514904
v 0.03386421 -0.04837801 0.01508994
v 0.03523228 -0.04727828 0.01514904
v 0.03737583 -0.04585907 0.01503793
v 0.03864148 -0.04470404 0.01506629
v 0.03991444 -0.04354287 0.01509230
v 0.04115814 -0.04236941 0.01510648
v 0.03602971 -0.04698338 0.01498828
v 0.04236525 -0.04115908 0.01510648
v 0.04355043 -0.03994262 0.01509703
v 0.04505750 -0.03787217 0.01521996
v 0.04618414 -0.03659426 0.01519395
v 0.04729615 -0.03526721 0.01516086
v 0.04840085 -0.03390330 0.01510412
v 0.04971771 -0.03167925 0.01516086
v 0.04995914 -0.03083756 0.01526724
v 0.05098336 -0.02939377 0.01518923
v 0.05200758 -0.02785783 0.01509466
v 0.05322201 -0.02546176 0.01509703
v 0.05304643 -0.02529588 0.01521996
v 0.05337564 -0.02479823 0.01517504
v 0.05194174 -0.03134749 0.01034525
v 0.05088093 -0.03280971 0.01014194
v 0.04981282 -0.03419819 0.01002847
v 0.05336102 -0.02930161 0.01085116
v 0.04868617 -0.03567884 0.00999773
v 0.02116386 -0.05502557 0.00928851
v 0.03929990 -0.04413267 0.00935234
v 0.03204256 -0.05018428 0.00943509
v 0.02963564 -0.05138846 0.00935707
v 0.03809279 -0.04534299 0.00936889
v 0.03687835 -0.04655332 0.00939963
v 0.03567123 -0.04776978 0.00946109
v 0.02721408 -0.05259878 0.00934525
v 0.04267252 -0.04268274 0.01001192
v 0.04385769 -0.04146627 0.01001901
v 0.04145809 -0.04386849 0.01001428
v 0.04058018 -0.04421254 0.00977078
v 0.04730347 -0.03767557 0.01011121
v 0.04843012 -0.03636080 0.01018450
v 0.04616951 -0.03897191 0.01006393
v 0.04502824 -0.04022523 0.01003556
v -0.00180799 -0.06086830 0.01084880
v -0.00422954 -0.06077000 0.01084880
v -0.00544398 -0.06065941 0.01075660
v -0.00665110 -0.06064098 0.01099537
v -0.00785822 -0.06057339 0.01116795
v -0.00878002 -0.06051196 0.01132634
v -0.00913849 -0.06026621 0.01089372
v -0.01027246 -0.06005117 0.01084880
v -0.01316954 -0.05922791 0.01030979
v -0.01148689 -0.05981771 0.01084880
v -0.01373286 -0.05914804 0.01047291
v 0.01390651 -0.05744622 0.00927433
v 0.00302780 -0.06054882 0.01013958
v 0.00302780 -0.06083757 0.01084880
v 0.00302780 -0.06104647 0.01205920
v 0.00061357 -0.06110176 0.01205920
v -0.00060087 -0.06109561 0.01205920
v 0.00907072 -0.05865654 0.00931925
v 0.00424224 -0.05986072 0.00966677
v -0.01373286 -0.05936307 0.01332634
v -0.01333049 -0.05927092 0.01388426
v -0.01269401 -0.05933850 0.01397173
v -0.01148689 -0.05951667 0.01403083
v 0.00002098 -0.05923405 0.01507102
v 0.00061357 -0.05922791 0.01507102
v 0.00061357 -0.05861968 0.01535944
v 0.00303512 -0.05858281 0.01534525
v 0.00424955 -0.05855210 0.01533816
v 0.00544936 -0.05850909 0.01532634
v 0.00147684 -0.01367187 0.03333344
v 0.05425355 -0.02359405 0.01499064
v 0.05219779 -0.03178369 0.01205920
v 0.05213926 -0.03167925 0.01115140
v 0.05178810 -0.02867495 0.01496228
v 0.05232216 -0.02963952 0.01416559
v 0.05210268 -0.03041978 0.01398119
v 0.05186126 -0.03122461 0.01369041
v 0.05203684 -0.03108331 0.01354620
v 0.05178079 -0.03151951 0.01354620
v 0.05090288 -0.03292029 0.01354620
v 0.05099067 -0.03315990 0.01317504
v 0.05080778 -0.03389101 0.01270932
v 0.05183931 -0.03238579 0.01205920
v 0.00617363 -0.01236939 0.03333344
v 0.02479984 -0.05259878 0.01548473
v 0.02589722 -0.05261107 0.01527197
v 0.02830415 -0.05138232 0.01526488
v 0.02935763 -0.05098297 0.01518923
v 0.03243030 -0.04944703 0.01500719
v 0.03016238 -0.05074951 0.01506157
v 0.03324236 -0.04917670 0.01482516
v 0.03466896 -0.04808311 0.01491027
v 0.03693688 -0.04657174 0.01480388
v 0.03802694 -0.04652874 0.01421996
v 0.03818058 -0.04541057 0.01488663
v 0.03929990 -0.04442143 0.01490317
v 0.04071919 -0.04316810 0.01488663
v 0.04195557 -0.04197007 0.01489135
v 0.03573707 -0.04781893 0.01454620
v 0.04317000 -0.04074746 0.01489135
v 0.04444297 -0.03930367 0.01490790
v 0.04471365 -0.03867086 0.01507339
v 0.04586956 -0.03739295 0.01504502
v 0.04698889 -0.03606590 0.01499301
v 0.04810822 -0.03472042 0.01493154
v 0.04921291 -0.03325820 0.01485353
v 0.04946897 -0.03248409 0.01502374
v 0.05075656 -0.03019246 0.01507102
v 0.05172226 -0.03206631 0.01078970
v 0.05061756 -0.03361454 0.01057693
v 0.04952750 -0.03500917 0.01032398
v 0.02237829 -0.05502557 0.00936889
v 0.02479984 -0.05381525 0.00933816
v 0.03456654 -0.04907840 0.00973060
v 0.03323505 -0.05020271 0.00985353
v 0.03204256 -0.05113042 0.00995045
v 0.03090128 -0.05148676 0.00976369
v 0.02842120 -0.05259878 0.00959821
v 0.02600696 -0.05381525 0.00955802
v 0.03934380 -0.04539829 0.00979679
v 0.03809279 -0.04657789 0.00984407
v 0.03681983 -0.04774521 0.00991972
v 0.03567123 -0.04871592 0.00996937
v 0.04346995 -0.04227111 0.01031688
v 0.04227015 -0.04348757 0.01031216
v 0.04022902 -0.04503581 0.01002610
v 0.04583298 -0.03978288 0.01041617
v 0.04862033 -0.03660655 0.01085116
v 0.04697426 -0.03848040 0.01055329
v 0.04466244 -0.04103007 0.01035471
v -0.00301511 -0.06102189 0.01205920
v -0.00422954 -0.06097888 0.01205920
v -0.00543666 -0.06091131 0.01205920
v -0.00665110 -0.06081300 0.01205920
v -0.00785822 -0.06068398 0.01205920
v -0.00897755 -0.06054268 0.01205920
v -0.00958476 -0.06045666 0.01205920
v -0.01027246 -0.06032765 0.01205920
v -0.01148689 -0.06009418 0.01205920
v -0.01373286 -0.05945523 0.01126251
v -0.01373286 -0.05940608 0.01107339
v -0.01273790 -0.05951667 0.01076842
v 0.01874962 -0.05623589 0.00936180
v 0.01512094 -0.05744622 0.00938544
v 0.01027783 -0.05865654 0.00940672
v 0.00424224 -0.06051810 0.01017977
v 0.00424224 -0.06077614 0.01084880
v 0.00424224 -0.06098503 0.01205920
v 0.00302780 -0.06079457 0.01326724
v 0.00182068 -0.06082529 0.01326724
v 0.00061357 -0.06084372 0.01326724
v -0.00060087 -0.06083757 0.01326724
v -0.00301511 -0.06077614 0.01326724
v 0.00665648 -0.05979928 0.00976842
v 0.00547131 -0.05997745 0.00982989
v -0.01373286 -0.05939994 0.01322941
v -0.01269401 -0.05963954 0.01326724
v -0.01148689 -0.05989758 0.01326724
v -0.01027246 -0.06011876 0.01326724
v -0.00785822 -0.06033379 0.01356511
v -0.01027246 -0.05968255 0.01403083
v 0.00002098 -0.05986072 0.01455329
v 0.00061357 -0.05986072 0.01455329
v -0.00785822 -0.05997131 0.01403083
v -0.00665110 -0.06010647 0.01403083
v -0.00543666 -0.06022934 0.01403083
v -0.00461728 -0.06029692 0.01403083
v -0.00375401 -0.06034608 0.01403083
v -0.00301511 -0.06037680 0.01403083
v 0.00182800 -0.05986072 0.01452729
v 0.00182800 -0.05920948 0.01505920
v 0.00303512 -0.05918490 0.01504738
v 0.00666379 -0.05844151 0.01529324
v 0.00182800 -0.01364115 0.03333344
v 0.00424955 -0.05915419 0.01502847
v 0.00544936 -0.05911732 0.01500483
v 0.05082241 -0.03390330 0.01138071
v 0.05104920 -0.03322748 0.01092681
v 0.05138573 -0.02972553 0.01482516
v 0.05057367 -0.03083756 0.01495046
v 0.05142962 -0.03082527 0.01431689
v 0.05100530 -0.03204788 0.01407575
v 0.05080778 -0.03269297 0.01390081
v 0.05057367 -0.03343637 0.01354620
v 0.05050783 -0.03353467 0.01354620
v 0.04969576 -0.03473885 0.01354620
v 0.04971771 -0.03527336 0.01290790
v 0.04718642 -0.03873844 0.01271405
v 0.04937386 -0.03599218 0.01205920
v 0.05082972 -0.03392173 0.01205920
v 0.05127599 -0.03325820 0.01205920
v 0.00488604 -0.01287932 0.03333344
v 0.02117849 -0.05381525 0.01558639
v 0.02245145 -0.05390741 0.01536180
v 0.02359272 -0.05360636 0.01529088
v 0.02479984 -0.05334218 0.01516322
v 0.02542169 -0.05320702 0.01508994
v 0.02721408 -0.05215643 0.01517268
v 0.02782130 -0.05200284 0.01508757
v 0.02863336 -0.05178166 0.01495518
v 0.03313262 -0.05014742 0.01415140
v 0.03082812 -0.05053448 0.01493154
v 0.03203524 -0.05012284 0.01468804
v 0.02970148 -0.05138232 0.01480152
v 0.03406906 -0.04972965 0.01400956
v 0.03544444 -0.04863605 0.01410412
v 0.03687835 -0.04751175 0.01416322
v 0.03758799 -0.04724142 0.01395518
v 0.03888290 -0.04610482 0.01401192
v 0.03929259 -0.04535528 0.01429561
v 0.04043387 -0.04407123 0.01447055
v 0.04139224 -0.04379476 0.01408048
v 0.04167757 -0.04289777 0.01448710
v 0.04288468 -0.04168131 0.01448710
v 0.04379185 -0.04139869 0.01408284
v 0.04406985 -0.04045255 0.01447291
v 0.04496239 -0.04015765 0.01405684
v 0.04535745 -0.03929752 0.01430270
v 0.04541598 -0.03819779 0.01489608
v 0.04652067 -0.03803805 0.01422705
v 0.04657188 -0.03695060 0.01481334
v 0.04857643 -0.03567884 0.01406393
v 0.04893491 -0.03440709 0.01448001
v 0.04772047 -0.03567270 0.01469514
v 0.04973966 -0.03409990 0.01403320
v 0.05015666 -0.03315990 0.01418923
v 0.05014203 -0.03206631 0.01472350
v 0.04973234 -0.03529179 0.01113012
v 0.04926413 -0.03569113 0.01077788
v 0.01995674 -0.05623589 0.00952729
v 0.02360004 -0.05502557 0.00960294
v 0.03422269 -0.04982180 0.01002847
v 0.03281804 -0.05089696 0.01013722
v 0.03055012 -0.05217487 0.01006393
v 0.02951858 -0.05259264 0.00994573
v 0.02714824 -0.05382754 0.00990554
v 0.02600696 -0.05463851 0.01004738
v 0.02470474 -0.05505015 0.00991972
v 0.03897801 -0.04618469 0.01005447
v 0.03769041 -0.04732128 0.01009703
v 0.03638087 -0.04845174 0.01016322
v 0.04419422 -0.04177961 0.01073769
v 0.04372601 -0.04252300 0.01112303
v 0.04128251 -0.04490064 0.01115376
v 0.04104108 -0.04467332 0.01034762
v 0.04250426 -0.04371489 0.01111830
v 0.04720105 -0.03875687 0.01136180
v 0.04606709 -0.04004092 0.01122469
v 0.04537208 -0.04053856 0.01078970
v 0.04749369 -0.03808106 0.01091499
v 0.04489655 -0.04129425 0.01116322
v -0.00543666 -0.06069013 0.01321759
v -0.00665110 -0.06064098 0.01310885
v -0.00785822 -0.06057339 0.01295991
v -0.00883123 -0.06051810 0.01280861
v -0.01269401 -0.05983000 0.01205920
v -0.01373286 -0.05957811 0.01205920
v 0.01632806 -0.05744622 0.00955329
v 0.01149227 -0.05865654 0.00953201
v 0.00786360 -0.05971327 0.00981097
v 0.00508356 -0.06048738 0.01021759
v 0.00547131 -0.06065941 0.01074714
v 0.00665648 -0.06063483 0.01098591
v 0.00544936 -0.06090516 0.01205920
v 0.00544936 -0.06067784 0.01319159
v 0.00233280 -0.06069013 0.01354147
v 0.00427882 -0.06068398 0.01337599
v 0.00416176 -0.06062254 0.01354147
v 0.00341554 -0.06065941 0.01354147
v 0.00302780 -0.06067169 0.01354147
v 0.00182068 -0.06070242 0.01354147
v 0.00110373 -0.06071470 0.01354147
v 0.00061357 -0.06072084 0.01354620
v 0.00002098 -0.06072084 0.01354620
v -0.00060087 -0.06053653 0.01395755
v -0.00180799 -0.06051810 0.01393863
v -0.00301511 -0.06049967 0.01391499
v -0.00397349 -0.06048124 0.01389372
v -0.00477823 -0.06046895 0.01386771
v -0.00431733 -0.06068398 0.01338544
v -0.00916776 -0.06030307 0.01323414
v -0.00665110 -0.06039523 0.01371405
v 0.00001366 -0.06045666 0.01403083
v 0.00061357 -0.06053039 0.01396228
v -0.00543666 -0.06044438 0.01382280
v 0.00182800 -0.06051810 0.01394573
v 0.00303512 -0.05986072 0.01449183
v 0.00666379 -0.05904974 0.01496464
v 0.00787823 -0.05833707 0.01524596
v 0.00908535 -0.05744007 0.01551547
v 0.00304243 -0.01345069 0.03333344
v 0.00289612 -0.01347526 0.03333344
v 0.00544936 -0.05981771 0.01439963
v 0.00666379 -0.05975628 0.01436180
v 0.04946166 -0.03490473 0.01371405
v 0.04837159 -0.03628708 0.01387480
v 0.04856912 -0.03653283 0.01326960
v 0.04720837 -0.03876916 0.01205920
v 0.04774974 -0.03809335 0.01205920
v 0.04829843 -0.03739910 0.01205920
v 0.04693768 -0.03836367 0.01354620
v 0.04648409 -0.03921766 0.01317268
v 0.04604514 -0.04001635 0.01282280
v 0.04556961 -0.04069830 0.01205920
v 0.04610367 -0.04009007 0.01205920
v 0.04671820 -0.03937125 0.01205920
v 0.00378134 -0.01327252 0.03333344
v 0.01876425 -0.05501943 0.01545873
v 0.01986895 -0.05506244 0.01528379
v 0.02117849 -0.05469995 0.01523651
v 0.02207834 -0.05452793 0.01515140
v 0.02289040 -0.05436819 0.01505920
v 0.02622644 -0.05301656 0.01496937
v 0.02359272 -0.05421460 0.01496228
v 0.02479984 -0.05395041 0.01477315
v 0.02806272 -0.05334218 0.01400483
v 0.02963564 -0.05229159 0.01414194
v 0.02721408 -0.05276467 0.01479443
v 0.02721408 -0.05356336 0.01418923
v 0.03203524 -0.05097683 0.01404029
v 0.03079886 -0.05141918 0.01428615
v 0.03487380 -0.04944703 0.01370459
v 0.03625650 -0.04835344 0.01385589
v 0.03264978 -0.05078637 0.01387480
v 0.03714172 -0.04788651 0.01354620
v 0.03840005 -0.04691580 0.01351310
v 0.03968765 -0.04576691 0.01362894
v 0.04014123 -0.04496208 0.01405684
v 0.04219699 -0.04340771 0.01372823
v 0.04259205 -0.04260902 0.01408521
v 0.04094598 -0.04459345 0.01369041
v 0.04459660 -0.04096863 0.01369514
v 0.04340411 -0.04220353 0.01372587
v 0.04610367 -0.03889818 0.01401428
v 0.04724494 -0.03760184 0.01395518
v 0.04769121 -0.03677243 0.01411121
v 0.01874962 -0.05723733 0.00988426
v 0.02237829 -0.05603315 0.00989372
v 0.02120043 -0.05632805 0.00982279
v 0.03502744 -0.04955148 0.01029324
v 0.03362279 -0.05062663 0.01057693
v 0.03135487 -0.05195369 0.01033580
v 0.02904305 -0.05321316 0.01023651
v 0.02842120 -0.05338519 0.01008284
v 0.02670197 -0.05446034 0.01019395
v 0.02424384 -0.05564609 0.01022232
v 0.02360004 -0.05578126 0.01009230
v 0.03978275 -0.04584678 0.01041617
v 0.03850247 -0.04699567 0.01055329
v 0.03723683 -0.04816912 0.01085116
v 0.03662961 -0.04863605 0.01085116
v 0.04440638 -0.04197007 0.01205920
v 0.04380648 -0.04260287 0.01205920
v 0.04319927 -0.04320496 0.01205920
v 0.04259205 -0.04380091 0.01205920
v 0.04195557 -0.04440300 0.01205920
v 0.04135567 -0.04496822 0.01205920
v 0.04002417 -0.04605567 0.01122232
v 0.01512094 -0.05838007 0.00992208
v 0.01390651 -0.05853981 0.00981807
v 0.01149227 -0.05941222 0.01005684
v 0.01027783 -0.05952281 0.00995518
v 0.00907072 -0.05961497 0.00987717
v 0.00589563 -0.06045052 0.01027433
v 0.00665648 -0.06040751 0.01038308
v 0.00786360 -0.06056111 0.01119632
v 0.00665648 -0.06078843 0.01205920
v 0.00863176 -0.06049353 0.01273296
v 0.00786360 -0.06054268 0.01286535
v 0.00665648 -0.06061640 0.01305211
v 0.00544936 -0.06053653 0.01354147
v 0.00303512 -0.06049967 0.01392209
v 0.00390571 -0.06047509 0.01389845
v 0.00471045 -0.06045052 0.01385589
v 0.00001366 -0.06053653 0.01395991
v 0.00427882 -0.05997131 0.01432871
v 0.00787823 -0.05967641 0.01429561
v 0.00787823 -0.05894529 0.01490081
v 0.01029247 -0.05812818 0.01513249
v 0.00908535 -0.05823262 0.01519159
v 0.01029247 -0.05744007 0.01542563
v 0.00343749 -0.01336468 0.03333344
v 0.00544936 -0.06041980 0.01379915
v 0.04590614 -0.03961086 0.01354620
v 0.04567203 -0.03988118 0.01354620
v 0.04484534 -0.04080889 0.01354620
v 0.04488192 -0.04126967 0.01288662
v 0.01512826 -0.05622975 0.01542327
v 0.01621832 -0.05627276 0.01527906
v 0.01754981 -0.05594100 0.01525069
v 0.01876425 -0.05573825 0.01514904
v 0.01939341 -0.05563381 0.01509230
v 0.02019816 -0.05548635 0.01500483
v 0.02117849 -0.05530204 0.01489135
v 0.02245145 -0.05497028 0.01477079
v 0.02479984 -0.05474910 0.01417031
v 0.02567775 -0.05455250 0.01400246
v 0.02886015 -0.05311486 0.01375897
v 0.03038185 -0.05208885 0.01395991
v 0.02648981 -0.05434976 0.01379679
v 0.03333747 -0.05057134 0.01354620
v 0.03437632 -0.05012284 0.01319395
v 0.03526154 -0.04971735 0.01289845
v 0.03531275 -0.04924429 0.01354620
v 0.03661498 -0.04862377 0.01304975
v 0.03696614 -0.04813841 0.01338071
v 0.03117929 -0.05184310 0.01366677
v 0.03144266 -0.05176938 0.01354620
v 0.03203524 -0.05159121 0.01326488
v 0.03803426 -0.04743802 0.01317268
v 0.03872927 -0.04717998 0.01270696
v 0.04000955 -0.04604338 0.01282280
v 0.03987054 -0.04566247 0.01354620
v 0.04079234 -0.04484535 0.01354620
v 0.04125324 -0.04442757 0.01354620
v 0.04172877 -0.04415110 0.01330743
v 0.04249694 -0.04370261 0.01292209
v 0.04319927 -0.04254758 0.01354620
v 0.04442834 -0.04126353 0.01354620
v 0.04576714 -0.03969687 0.01362894
v 0.04369675 -0.04249843 0.01291972
v 0.04372601 -0.04200078 0.01354620
v 0.01995674 -0.05704688 0.01003083
v 0.01632806 -0.05820805 0.01006629
v 0.02082001 -0.05691786 0.01015613
v 0.03569318 -0.04929344 0.01075896
v 0.03529812 -0.04974193 0.01109939
v 0.03390079 -0.05081709 0.01138071
v 0.03323505 -0.05104441 0.01092681
v 0.03205719 -0.05172637 0.01078497
v 0.03166213 -0.05213186 0.01114194
v 0.03090128 -0.05241447 0.01078497
v 0.02929911 -0.05336061 0.01085116
v 0.02785056 -0.05443577 0.01140435
v 0.02751403 -0.05423917 0.01059821
v 0.02714824 -0.05460165 0.01094100
v 0.02592649 -0.05520989 0.01092681
v 0.02504858 -0.05546792 0.01057457
v 0.02470474 -0.05577511 0.01092681
v 0.02245145 -0.05665367 0.01078497
v 0.02162475 -0.05678884 0.01033816
v 0.03875121 -0.04720456 0.01135944
v 0.03809279 -0.04751175 0.01091499
v 0.04126056 -0.04488221 0.01288426
v 0.04068992 -0.04557031 0.01205920
v 0.01239944 -0.05932621 0.01015849
v 0.00786360 -0.06031536 0.01059112
v 0.00867566 -0.06049967 0.01135944
v 0.00786360 -0.06063483 0.01205920
v 0.00874882 -0.06051196 0.01205920
v 0.00934872 -0.06041366 0.01205920
v 0.01027783 -0.06025392 0.01205920
v 0.01149227 -0.06003889 0.01205920
v 0.01459420 -0.05927706 0.01270932
v 0.01390651 -0.05936922 0.01289372
v 0.01149227 -0.05973784 0.01326724
v 0.01027783 -0.05997131 0.01326724
v 0.00904877 -0.06022320 0.01318922
v 0.00786360 -0.06028464 0.01347055
v 0.00665648 -0.06041366 0.01354147
v 0.00908535 -0.05957811 0.01421523
v 0.00908535 -0.05884085 0.01482043
v 0.01097284 -0.05806059 0.01509466
v 0.01142643 -0.05751380 0.01529561
v 0.01271402 -0.05723119 0.01528379
v 0.00666379 -0.06035836 0.01365967
v 0.01392114 -0.05706530 0.01521050
v 0.01574279 -0.05683184 0.01508521
v 0.01654022 -0.05670896 0.01501192
v 0.01754981 -0.05654308 0.01490790
v 0.01876425 -0.05634034 0.01475660
v 0.02117849 -0.05610687 0.01428379
v 0.02239292 -0.05586727 0.01410648
v 0.02318304 -0.05570753 0.01395755
v 0.02398778 -0.05552936 0.01375897
v 0.02714092 -0.05419002 0.01354620
v 0.02866262 -0.05337290 0.01354620
v 0.02927716 -0.05302885 0.01354620
v 0.02444137 -0.05547407 0.01354620
v 0.02491690 -0.05540649 0.01332161
v 0.02605817 -0.05485969 0.01334289
v 0.02721408 -0.05457093 0.01291499
v 0.03387153 -0.05079866 0.01268331
v 0.03600045 -0.04937331 0.01205920
v 0.03106955 -0.05199055 0.01354620
v 0.03163287 -0.05211342 0.01285826
v 0.03680519 -0.04877122 0.01205920
v 0.03741241 -0.04831044 0.01205920
v 0.03809279 -0.04775749 0.01205920
v 0.03875853 -0.04721070 0.01205920
v 0.04008270 -0.04610482 0.01205920
v 0.01711086 -0.05810360 0.01017977
v 0.03325699 -0.05124101 0.01205920
v 0.03235714 -0.05181853 0.01205920
v 0.03174992 -0.05218715 0.01205920
v 0.03538591 -0.04980951 0.01205920
v 0.03450801 -0.05041160 0.01205920
v 0.03390079 -0.05081709 0.01205920
v 0.03083544 -0.05273394 0.01205920
v 0.02845046 -0.05409786 0.01205920
v 0.02785056 -0.05442963 0.01205920
v 0.02721408 -0.05476139 0.01205920
v 0.02545827 -0.05565224 0.01137835
v 0.03012580 -0.05314558 0.01205920
v 0.02952590 -0.05348963 0.01205920
v 0.02207834 -0.05696700 0.01114194
v 0.02120043 -0.05711445 0.01078497
v 0.01848625 -0.05815275 0.01119868
v 0.01791561 -0.05797458 0.01039253
v 0.01320418 -0.05923405 0.01029797
v 0.01149227 -0.05980543 0.01084880
v 0.01027783 -0.06002046 0.01084880
v 0.00907803 -0.06025392 0.01091263
v 0.01390651 -0.05938765 0.01110648
v 0.01466004 -0.05929549 0.01134289
v 0.01269939 -0.05978699 0.01205920
v 0.01374556 -0.05906817 0.01354620
v 0.01390651 -0.05949824 0.01205920
v 0.01468199 -0.05930163 0.01205920
v 0.01528921 -0.05914190 0.01205920
v 0.01632806 -0.05885314 0.01205920
v 0.01753518 -0.05851523 0.01205920
v 0.01843503 -0.05814046 0.01284407
v 0.01753518 -0.05826948 0.01307811
v 0.01300666 -0.05916647 0.01373060
v 0.01283839 -0.05930778 0.01354147
v 0.01263355 -0.05947980 0.01330270
v 0.01179222 -0.05954124 0.01354147
v 0.01220191 -0.05927092 0.01390317
v 0.01075337 -0.05973170 0.01354620
v 0.00799528 -0.06021706 0.01354620
v 0.00739538 -0.06031536 0.01354147
v 0.01149959 -0.05935079 0.01398828
v 0.01029247 -0.05947366 0.01411594
v 0.01029247 -0.05873027 0.01471878
v 0.01178490 -0.05796844 0.01504502
v 0.01271402 -0.05784557 0.01497173
v 0.01392114 -0.05766740 0.01485353
v 0.01512826 -0.05751380 0.01470932
v 0.01754981 -0.05731106 0.01430270
v 0.01876425 -0.05712674 0.01414904
v 0.01973726 -0.05696086 0.01400246
v 0.02054932 -0.05682570 0.01386298
v 0.02117849 -0.05670896 0.01370459
v 0.02359272 -0.05598400 0.01332161
v 0.02459500 -0.05579969 0.01295282
v 0.02162475 -0.05664138 0.01354620
v 0.02240024 -0.05652465 0.01324833
v 0.02782130 -0.05441734 0.01267149
v 0.02933569 -0.05337904 0.01295282
v 0.03080618 -0.05232846 0.01326488
v 0.02539243 -0.05562152 0.01264076
v 0.01752787 -0.05827562 0.01081570
v 0.01632806 -0.05862582 0.01084880
v 0.01390651 -0.05914190 0.01050128
v 0.02592649 -0.05540034 0.01216558
v 0.02545827 -0.05565224 0.01183462
v 0.02240755 -0.05692400 0.01205920
v 0.02219539 -0.05701001 0.01205920
v 0.02116386 -0.05738478 0.01205920
v 0.01995674 -0.05777798 0.01205920
v 0.01923246 -0.05801144 0.01205920
v 0.01862525 -0.05819576 0.01205920
v 0.01275792 -0.05951052 0.01076133
v 0.01508436 -0.05899445 0.01090317
v 0.01687675 -0.05802373 0.01384644
v 0.01880814 -0.05777798 0.01325542
v 0.01754981 -0.05791929 0.01368804
v 0.02202713 -0.05694243 0.01284880
v 0.02116386 -0.05709602 0.01309703
v 0.01245065 -0.05939994 0.01354147
v 0.01607201 -0.05814046 0.01397646
v 0.01512826 -0.05826334 0.01410648
v 0.01392114 -0.05843536 0.01424833
v 0.01142643 -0.05853366 0.01466677
v 0.01264086 -0.05871798 0.01428379
v 0.02491690 -0.05586727 0.01216558
v 0.02240755 -0.05685641 0.01246818
v 0.02360004 -0.05642635 0.01205920
f 1 2 3
f 1 3 4
f 1 4 13
f 1 13 30
f 1 30 48
f 1 48 76
f 1 76 122
f 1 122 121
f 1 121 120
f 1 120 119
f 1 119 118
f 1 118 182
f 1 182 181
f 1 181 180
f 1 180 249
f 1 249 278
f 1 278 211
f 1 211 145
f 1 145 95
f 1 95 61
f 1 61 38
f 1 38 19
f 1 19 7
f 1 7 5
f 1 5 2
f 2 6 3
f 2 5 7
f 2 7 8
f 2 8 16
f 2 16 6
f 3 6 9
f 3 9 10
f 3 10 4
f 4 10 11
f 4 11 12
f 4 12 13
f 6 14 15
f 6 15 9
f 6 16 17
f 6 17 18
f 6 18 14
f 7 19 20
f 7 20 8
f 8 20 21
f 8 21 17
f 8 17 16
f 9 15 22
f 9 22 23
f 9 23 24
f 9 24 10
f 10 12 11
f 10 24 25
f 10 25 26
f 10 26 27
f 10 27 12
f 12 28 29
f 12 29 13
f 12 27 28
f 13 29 30
f 14 31 15
f 14 18 32
f 14 32 31
f 15 33 22
f 15 31 34
f 15 34 33
f 17 21 39
f 17 39 35
f 17 35 36
f 17 36 18
f 18 36 37
f 18 37 32
f 19 38 20
f 20 38 39
f 20 39 21
f 22 33 23
f 23 33 40
f 23 40 41
f 23 41 25
f 23 25 24
f 25 41 26
f 26 41 42
f 26 42 43
f 26 43 27
f 27 43 44
f 27 44 45
f 27 45 46
f 27 46 28
f 28 46 30
f 28 30 29
f 30 46 45
f 30 45 44
f 30 44 47
f 30 47 48
f 31 32 49
f 31 49 50
f 31 50 34
f 32 37 49
f 33 34 51
f 33 51 52
f 33 52 53
f 33 53 54
f 33 54 55
f 33 55 40
f 34 50 56
f 34 56 51
f 35 39 57
f 35 57 58
f 35 58 59
f 35 59 36
f 36 59 37
f 37 59 60
f 37 60 49
f 38 61 39
f 39 61 62
f 39 62 57
f 40 55 63
f 40 63 64
f 40 64 41
f 41 64 63
f 41 63 65
f 41 65 66
f 41 66 67
f 41 67 68
f 41 68 42
f 42 68 69
f 42 69 70
f 42 70 43
f 43 70 71
f 43 71 44
f 44 71 47
f 47 71 72
f 47 72 48
f 48 72 73
f 48 73 74
f 48 74 75
f 48 75 76
f 49 60 77
f 49 77 50
f 50 78 56
f 50 77 79
f 50 79 80
f 50 80 81
f 50 81 78
f 51 56 82
f 51 82 52
f 52 83 84
f 52 84 85
f 52 85 86
f 52 86 53
f 52 82 87
f 52 87 88
f 52 88 89
f 52 89 90
f 52 90 91
f 52 91 83
f 53 86 92
f 53 92 54
f 54 92 93
f 54 93 94
f 54 94 55
f 55 94 63
f 56 78 82
f 57 62 95
f 57 95 96
f 57 96 97
f 57 97 58
f 58 97 98
f 58 98 59
f 59 98 99
f 59 99 100
f 59 100 60
f 60 100 77
f 61 95 62
f 63 94 65
f 65 94 101
f 65 101 66
f 66 101 102
f 66 102 103
f 66 103 67
f 67 103 69
f 67 69 68
f 69 103 104
f 69 104 105
f 69 105 70
f 70 105 71
f 71 105 106
f 71 106 107
f 71 107 72
f 72 108 109
f 72 109 110
f 72 110 111
f 72 111 112
f 72 112 113
f 72 113 75
f 72 75 114
f 72 114 74
f 72 74 73
f 72 107 115
f 72 115 108
f 74 114 75
f 75 113 112
f 75 112 111
f 75 111 110
f 75 110 109
f 75 109 161
f 75 161 226
f 75 226 311
f 75 311 235
f 75 235 170
f 75 170 116
f 75 116 169
f 75 169 234
f 75 234 332
f 75 332 438
f 75 438 533
f 75 533 623
f 75 623 622
f 75 622 739
f 75 739 638
f 75 638 542
f 75 542 446
f 75 446 350
f 75 350 349
f 75 349 348
f 75 348 346
f 75 346 247
f 75 247 173
f 75 173 117
f 75 117 118
f 75 118 119
f 75 119 120
f 75 120 121
f 75 121 122
f 75 122 76
f 77 100 123
f 77 123 79
f 78 81 82
f 79 123 124
f 79 124 80
f 80 124 125
f 80 125 81
f 81 125 126
f 81 126 127
f 81 127 88
f 81 88 82
f 82 88 87
f 83 91 128
f 83 128 129
f 83 129 92
f 83 92 84
f 84 92 85
f 85 92 86
f 88 127 130
f 88 130 89
f 89 130 131
f 89 131 132
f 89 132 133
f 89 133 90
f 90 133 131
f 90 131 134
f 90 134 91
f 91 135 136
f 91 136 128
f 91 134 137
f 91 137 138
f 91 138 139
f 91 139 135
f 92 140 141
f 92 141 93
f 92 129 142
f 92 142 143
f 92 143 140
f 93 141 140
f 93 140 144
f 93 144 94
f 94 144 101
f 95 145 146
f 95 146 147
f 95 147 96
f 96 147 148
f 96 148 97
f 97 148 149
f 97 149 98
f 98 149 150
f 98 150 151
f 98 151 99
f 99 152 100
f 99 151 153
f 99 153 152
f 100 152 123
f 101 144 154
f 101 154 102
f 102 154 155
f 102 155 104
f 102 104 103
f 104 155 156
f 104 156 106
f 104 106 105
f 106 156 107
f 107 157 158
f 107 158 159
f 107 159 115
f 107 156 157
f 108 160 109
f 108 115 160
f 109 160 162
f 109 162 163
f 109 163 164
f 109 164 165
f 109 165 166
f 109 166 161
f 115 159 167
f 115 167 168
f 115 168 166
f 115 166 165
f 115 165 164
f 115 164 163
f 115 163 162
f 115 162 160
f 116 170 171
f 116 171 172
f 116 172 169
f 117 173 174
f 117 174 175
f 117 175 176
f 117 176 177
f 117 177 178
f 117 178 179
f 117 179 180
f 117 180 181
f 117 181 182
f 117 182 118
f 123 152 183
f 123 183 184
f 123 184 124
f 124 184 185
f 124 185 186
f 124 186 125
f 125 186 126
f 126 186 187
f 126 187 188
f 126 188 127
f 127 131 130
f 127 188 189
f 127 189 190
f 127 190 131
f 128 136 191
f 128 191 129
f 129 191 192
f 129 192 193
f 129 193 194
f 129 194 195
f 129 195 142
f 131 133 132
f 131 190 196
f 131 196 197
f 131 197 198
f 131 198 134
f 134 199 137
f 134 198 199
f 135 200 136
f 135 139 193
f 135 193 200
f 136 201 191
f 136 200 202
f 136 202 201
f 137 199 198
f 137 198 138
f 138 198 203
f 138 203 204
f 138 204 205
f 138 205 206
f 138 206 207
f 138 207 208
f 138 208 139
f 139 208 193
f 140 143 209
f 140 209 144
f 142 195 210
f 142 210 143
f 143 210 195
f 143 195 209
f 144 209 154
f 145 211 212
f 145 212 146
f 146 212 147
f 147 212 213
f 147 213 148
f 148 213 149
f 149 213 150
f 150 213 151
f 151 213 153
f 152 153 214
f 152 214 215
f 152 215 183
f 153 213 214
f 154 216 217
f 154 217 155
f 154 209 216
f 155 217 156
f 156 217 218
f 156 218 157
f 157 219 220
f 157 220 221
f 157 221 158
f 157 218 222
f 157 222 223
f 157 223 219
f 158 221 159
f 159 221 220
f 159 220 224
f 159 224 225
f 159 225 167
f 161 166 168
f 161 168 227
f 161 227 228
f 161 228 229
f 161 229 226
f 167 225 230
f 167 230 228
f 167 228 227
f 167 227 168
f 169 172 231
f 169 231 232
f 169 232 233
f 169 233 234
f 170 235 236
f 170 236 237
f 170 237 238
f 170 238 239
f 170 239 240
f 170 240 171
f 171 241 242
f 171 242 243
f 171 243 172
f 171 240 244
f 171 244 241
f 172 245 231
f 172 243 246
f 172 246 245
f 173 247 248
f 173 248 174
f 174 248 249
f 174 249 180
f 174 180 175
f 175 180 176
f 176 180 177
f 177 180 178
f 178 180 179
f 183 215 250
f 183 250 184
f 184 250 185
f 185 250 251
f 185 251 186
f 186 251 252
f 186 252 253
f 186 253 187
f 187 253 254
f 187 254 188
f 188 254 255
f 188 255 256
f 188 256 190
f 188 190 189
f 190 256 265
f 190 265 196
f 191 201 192
f 192 201 202
f 192 202 200
f 192 200 193
f 193 208 257
f 193 257 258
f 193 258 259
f 193 259 260
f 193 260 261
f 193 261 262
f 193 262 194
f 194 262 195
f 195 262 263
f 195 263 264
f 195 264 209
f 196 265 197
f 197 265 266
f 197 266 267
f 197 267 198
f 198 267 268
f 198 268 269
f 198 269 270
f 198 270 203
f 203 270 271
f 203 271 204
f 204 271 205
f 205 271 206
f 206 272 207
f 206 271 273
f 206 273 274
f 206 274 275
f 206 275 276
f 206 276 272
f 207 272 257
f 207 257 208
f 209 264 277
f 209 277 216
f 211 278 212
f 212 278 279
f 212 279 347
f 212 347 248
f 212 248 351
f 212 351 451
f 212 451 552
f 212 552 656
f 212 656 774
f 212 774 773
f 212 773 864
f 212 864 789
f 212 789 674
f 212 674 566
f 212 566 476
f 212 476 377
f 212 377 280
f 212 280 213
f 213 280 281
f 213 281 282
f 213 282 283
f 213 283 284
f 213 284 285
f 213 285 286
f 213 286 287
f 213 287 288
f 213 288 289
f 213 289 290
f 213 290 291
f 213 291 292
f 213 292 293
f 213 293 294
f 213 294 295
f 213 295 296
f 213 296 297
f 213 297 298
f 213 298 299
f 213 299 300
f 213 300 301
f 213 301 215
f 213 215 214
f 215 301 250
f 216 277 217
f 217 302 218
f 217 277 302
f 218 302 222
f 219 303 220
f 219 223 303
f 220 304 224
f 220 303 304
f 222 302 305
f 222 305 306
f 222 306 223
f 223 306 307
f 223 307 303
f 224 308 309
f 224 309 310
f 224 310 225
f 224 304 308
f 225 310 230
f 226 229 312
f 226 312 313
f 226 313 314
f 226 314 315
f 226 315 316
f 226 316 317
f 226 317 318
f 226 318 319
f 226 319 320
f 226 320 311
f 228 230 229
f 229 321 312
f 229 230 321
f 230 310 322
f 230 322 323
f 230 323 324
f 230 324 325
f 230 325 321
f 231 245 326
f 231 326 327
f 231 327 328
f 231 328 232
f 232 328 329
f 232 329 233
f 233 329 330
f 233 330 331
f 233 331 332
f 233 332 234
f 235 311 333
f 235 333 334
f 235 334 335
f 235 335 336
f 235 336 236
f 236 336 337
f 236 337 338
f 236 338 237
f 237 338 240
f 237 240 238
f 238 240 239
f 240 338 244
f 241 339 242
f 241 244 340
f 241 340 339
f 242 339 341
f 242 341 342
f 242 342 246
f 242 246 243
f 244 338 337
f 244 337 343
f 244 343 344
f 244 344 340
f 245 246 342
f 245 342 345
f 245 345 326
f 247 346 248
f 248 347 278
f 248 278 249
f 248 346 348
f 248 348 349
f 248 349 350
f 248 350 446
f 248 446 351
f 250 301 300
f 250 300 252
f 250 252 251
f 252 300 352
f 252 352 253
f 253 352 353
f 253 353 254
f 254 353 354
f 254 354 255
f 255 354 355
f 255 355 356
f 255 356 357
f 255 357 358
f 255 358 267
f 255 267 266
f 255 266 265
f 255 265 256
f 257 359 360
f 257 360 258
f 257 272 361
f 257 361 362
f 257 362 363
f 257 363 359
f 258 360 306
f 258 306 259
f 259 306 260
f 260 306 261
f 261 263 262
f 261 306 263
f 263 306 264
f 264 306 305
f 264 305 302
f 264 302 277
f 267 358 268
f 268 358 364
f 268 364 269
f 269 364 365
f 269 365 366
f 269 366 270
f 270 366 367
f 270 367 271
f 271 367 273
f 272 276 368
f 272 368 361
f 273 369 274
f 273 367 370
f 273 370 371
f 273 371 369
f 274 369 372
f 274 372 373
f 274 373 275
f 275 373 374
f 275 374 276
f 276 374 375
f 276 375 376
f 276 376 368
f 278 347 279
f 280 377 378
f 280 378 281
f 281 378 379
f 281 379 380
f 281 380 381
f 281 381 382
f 281 382 282
f 282 382 284
f 282 284 283
f 284 383 384
f 284 384 385
f 284 385 285
f 284 382 386
f 284 386 383
f 285 385 384
f 285 384 387
f 285 387 388
f 285 388 286
f 286 388 287
f 287 388 389
f 287 389 288
f 288 389 390
f 288 390 391
f 288 391 392
f 288 392 289
f 289 392 290
f 290 392 393
f 290 393 291
f 291 393 394
f 291 394 395
f 291 395 396
f 291 396 292
f 292 396 397
f 292 397 293
f 293 397 294
f 294 398 399
f 294 399 400
f 294 400 401
f 294 401 296
f 294 296 295
f 294 397 398
f 296 401 402
f 296 402 297
f 297 402 298
f 298 402 403
f 298 403 404
f 298 404 405
f 298 405 299
f 299 405 354
f 299 354 353
f 299 353 352
f 299 352 300
f 303 307 406
f 303 406 304
f 304 406 407
f 304 407 408
f 304 408 308
f 306 360 409
f 306 409 363
f 306 363 307
f 307 363 407
f 307 407 406
f 308 410 411
f 308 411 309
f 308 408 412
f 308 412 410
f 309 411 310
f 310 413 414
f 310 414 322
f 310 411 413
f 311 320 415
f 311 415 416
f 311 416 417
f 311 417 418
f 311 418 419
f 311 419 420
f 311 420 333
f 312 321 421
f 312 421 313
f 313 421 314
f 314 421 315
f 315 421 316
f 316 421 422
f 316 422 317
f 317 422 423
f 317 423 318
f 318 423 319
f 319 423 320
f 320 423 415
f 321 325 424
f 321 424 425
f 321 425 421
f 322 426 427
f 322 427 428
f 322 428 323
f 322 414 426
f 323 428 429
f 323 429 324
f 324 429 424
f 324 424 325
f 326 345 430
f 326 430 431
f 326 431 432
f 326 432 327
f 327 432 433
f 327 433 328
f 328 433 329
f 329 433 330
f 330 433 434
f 330 434 435
f 330 435 331
f 331 435 436
f 331 436 437
f 331 437 332
f 332 437 438
f 333 420 439
f 333 439 337
f 333 337 334
f 334 337 335
f 335 337 336
f 337 439 343
f 339 340 341
f 340 344 440
f 340 440 441
f 340 441 341
f 341 442 443
f 341 443 345
f 341 345 342
f 341 441 442
f 343 444 445
f 343 445 344
f 343 439 444
f 344 445 440
f 345 443 430
f 351 446 447
f 351 447 448
f 351 448 449
f 351 449 450
f 351 450 451
f 354 405 452
f 354 452 404
f 354 404 355
f 355 404 356
f 356 404 453
f 356 453 357
f 357 453 454
f 357 454 455
f 357 455 364
f 357 364 358
f 359 409 360
f 359 363 409
f 361 375 475
f 361 475 456
f 361 456 457
f 361 457 458
f 361 458 363
f 361 363 362
f 361 368 375
f 363 458 457
f 363 457 407
f 364 455 365
f 365 455 366
f 366 455 459
f 366 459 460
f 366 460 367
f 367 460 461
f 367 461 462
f 367 462 370
f 368 376 375
f 369 371 372
f 370 462 463
f 370 463 464
f 370 464 465
f 370 465 466
f 370 466 467
f 370 467 371
f 371 467 468
f 371 468 469
f 371 469 470
f 371 470 373
f 371 373 372
f 373 470 471
f 373 471 374
f 374 471 472
f 374 472 473
f 374 473 474
f 374 474 475
f 374 475 375
f 377 476 477
f 377 477 478
f 377 478 378
f 378 478 479
f 378 479 480
f 378 480 379
f 379 481 380
f 379 480 481
f 380 482 381
f 380 481 482
f 381 483 382
f 381 482 483
f 382 483 386
f 383 386 484
f 383 484 384
f 384 484 485
f 384 485 486
f 384 486 487
f 384 487 387
f 386 483 488
f 386 488 484
f 387 487 388
f 388 487 489
f 388 489 389
f 389 490 390
f 389 489 490
f 390 490 491
f 390 491 391
f 391 491 392
f 392 491 492
f 392 492 393
f 393 492 493
f 393 493 394
f 394 493 494
f 394 494 395
f 395 494 495
f 395 495 396
f 396 495 496
f 396 496 397
f 397 496 497
f 397 497 398
f 398 497 399
f 399 497 498
f 399 498 464
f 399 464 499
f 399 499 500
f 399 500 400
f 400 500 401
f 401 500 402
f 402 454 453
f 402 453 404
f 402 404 403
f 402 500 501
f 402 501 454
f 404 452 405
f 407 457 408
f 408 457 412
f 410 412 502
f 410 502 503
f 410 503 411
f 411 503 504
f 411 504 413
f 412 457 456
f 412 456 505
f 412 505 502
f 413 504 414
f 414 504 506
f 414 506 426
f 415 423 416
f 416 423 507
f 416 507 417
f 417 507 418
f 418 507 439
f 418 439 419
f 419 439 420
f 421 425 508
f 421 508 422
f 422 509 510
f 422 510 423
f 422 508 511
f 422 511 512
f 422 512 513
f 422 513 509
f 423 510 514
f 423 514 507
f 424 515 425
f 424 429 516
f 424 516 515
f 425 517 518
f 425 518 511
f 425 511 508
f 425 515 517
f 426 519 427
f 426 506 520
f 426 520 519
f 427 521 428
f 427 519 521
f 428 521 522
f 428 522 429
f 429 522 516
f 430 443 442
f 430 442 523
f 430 523 431
f 431 524 433
f 431 433 432
f 431 523 524
f 433 525 434
f 433 524 525
f 434 525 526
f 434 526 435
f 435 526 527
f 435 527 436
f 436 527 528
f 436 528 529
f 436 529 530
f 436 530 437
f 437 531 438
f 437 530 532
f 437 532 531
f 438 531 533
f 439 507 534
f 439 534 444
f 440 445 535
f 440 535 441
f 441 535 536
f 441 536 537
f 441 537 538
f 441 538 539
f 441 539 442
f 442 539 613
f 442 613 523
f 444 540 541
f 444 541 445
f 444 534 540
f 445 541 535
f 446 542 543
f 446 543 447
f 447 543 448
f 448 543 544
f 448 544 449
f 449 544 545
f 449 545 450
f 450 546 547
f 450 547 548
f 450 548 451
f 450 545 546
f 451 548 549
f 451 549 550
f 451 550 551
f 451 551 552
f 454 501 499
f 454 499 553
f 454 553 459
f 454 459 455
f 456 475 473
f 456 473 554
f 456 554 555
f 456 555 505
f 459 553 460
f 460 553 463
f 460 463 461
f 461 463 462
f 463 553 464
f 464 553 499
f 464 498 556
f 464 556 465
f 465 556 557
f 465 557 466
f 466 557 467
f 467 557 558
f 467 558 468
f 468 471 469
f 468 558 559
f 468 559 560
f 468 560 471
f 469 471 470
f 471 560 472
f 472 560 559
f 472 559 561
f 472 561 562
f 472 562 563
f 472 563 564
f 472 564 565
f 472 565 554
f 472 554 473
f 473 475 474
f 476 566 567
f 476 567 477
f 477 567 568
f 477 568 569
f 477 569 479
f 477 479 478
f 479 569 570
f 479 570 480
f 480 570 481
f 481 571 482
f 481 570 572
f 481 572 571
f 482 571 573
f 482 573 574
f 482 574 488
f 482 488 483
f 484 575 576
f 484 576 577
f 484 577 578
f 484 578 485
f 484 488 575
f 485 578 486
f 486 579 487
f 486 578 579
f 487 580 489
f 487 579 580
f 488 574 581
f 488 581 575
f 489 580 582
f 489 582 490
f 490 582 583
f 490 583 584
f 490 584 491
f 491 585 492
f 491 584 585
f 492 585 493
f 493 586 587
f 493 587 494
f 493 585 586
f 494 587 588
f 494 588 589
f 494 589 495
f 495 589 590
f 495 590 497
f 495 497 496
f 497 590 498
f 498 590 556
f 499 501 500
f 502 555 591
f 502 591 592
f 502 592 503
f 502 505 555
f 503 592 593
f 503 593 504
f 504 593 520
f 504 520 506
f 507 594 625
f 507 625 534
f 507 514 595
f 507 595 594
f 509 513 596
f 509 596 597
f 509 597 598
f 509 598 599
f 509 599 600
f 509 600 510
f 510 600 601
f 510 601 514
f 511 518 512
f 512 518 602
f 512 602 513
f 513 602 603
f 513 603 604
f 513 604 605
f 513 605 596
f 514 601 595
f 515 516 606
f 515 606 607
f 515 607 517
f 516 522 606
f 517 607 608
f 517 608 518
f 518 608 602
f 519 520 609
f 519 609 521
f 520 593 610
f 520 610 611
f 520 611 609
f 521 609 612
f 521 612 522
f 522 612 606
f 523 613 614
f 523 614 524
f 524 614 615
f 524 615 526
f 524 526 525
f 526 615 527
f 527 615 616
f 527 616 528
f 528 616 617
f 528 617 618
f 528 618 619
f 528 619 620
f 528 620 621
f 528 621 622
f 528 622 623
f 528 623 532
f 528 532 530
f 528 530 529
f 531 532 624
f 531 624 623
f 531 623 533
f 532 623 624
f 534 625 626
f 534 626 627
f 534 627 540
f 535 541 628
f 535 628 536
f 536 628 629
f 536 629 630
f 536 630 537
f 537 630 631
f 537 631 632
f 537 632 538
f 538 632 633
f 538 633 634
f 538 634 539
f 539 634 635
f 539 635 613
f 540 627 636
f 540 636 541
f 541 636 637
f 541 637 628
f 542 638 543
f 543 639 640
f 543 640 641
f 543 641 544
f 543 638 639
f 544 641 545
f 545 641 642
f 545 642 643
f 545 643 546
f 546 644 645
f 546 645 547
f 546 643 646
f 546 646 647
f 546 647 648
f 546 648 649
f 546 649 650
f 546 650 651
f 546 651 644
f 547 645 652
f 547 652 653
f 547 653 549
f 547 549 548
f 549 653 550
f 550 653 654
f 550 654 551
f 551 655 656
f 551 656 552
f 551 654 657
f 551 657 658
f 551 658 655
f 554 565 555
f 555 565 659
f 555 659 660
f 555 660 591
f 556 661 557
f 556 590 662
f 556 662 661
f 557 661 662
f 557 662 663
f 557 663 558
f 558 663 664
f 558 664 665
f 558 665 559
f 559 665 561
f 561 665 562
f 562 665 666
f 562 666 563
f 563 666 564
f 564 666 667
f 564 667 668
f 564 668 669
f 564 669 670
f 564 670 671
f 564 671 672
f 564 672 673
f 564 673 565
f 565 673 659
f 566 674 675
f 566 675 676
f 566 676 567
f 567 676 677
f 567 677 568
f 568 677 678
f 568 678 679
f 568 679 680
f 568 680 569
f 569 680 570
f 570 680 681
f 570 681 682
f 570 682 572
f 571 683 573
f 571 572 684
f 571 684 685
f 571 685 683
f 572 682 686
f 572 686 684
f 573 683 687
f 573 687 574
f 574 687 688
f 574 688 581
f 575 581 689
f 575 689 576
f 576 689 690
f 576 690 691
f 576 691 692
f 576 692 577
f 577 692 578
f 578 692 693
f 578 693 579
f 579 693 694
f 579 694 695
f 579 695 580
f 580 695 582
f 581 688 689
f 582 696 697
f 582 697 698
f 582 698 583
f 582 695 696
f 583 698 699
f 583 699 700
f 583 700 701
f 583 701 585
f 583 585 584
f 585 701 702
f 585 702 703
f 585 703 586
f 586 703 587
f 587 704 705
f 587 705 588
f 587 703 706
f 587 706 704
f 588 705 707
f 588 707 708
f 588 708 709
f 588 709 589
f 589 709 662
f 589 662 590
f 591 660 592
f 592 659 593
f 592 660 659
f 593 659 710
f 593 710 711
f 593 711 610
f 594 712 625
f 594 595 601
f 594 601 713
f 594 713 712
f 596 605 714
f 596 714 597
f 597 714 598
f 598 714 715
f 598 715 716
f 598 716 717
f 598 717 599
f 599 717 600
f 600 717 718
f 600 718 601
f 601 718 719
f 601 719 720
f 601 720 713
f 602 721 603
f 602 608 721
f 603 721 722
f 603 722 604
f 604 723 605
f 604 722 723
f 605 723 714
f 606 612 724
f 606 724 725
f 606 725 607
f 607 726 727
f 607 727 608
f 607 725 728
f 607 728 726
f 608 727 721
f 609 611 729
f 609 729 730
f 609 730 731
f 609 731 612
f 610 729 732
f 610 732 611
f 610 711 710
f 610 710 729
f 611 732 729
f 612 731 733
f 612 733 724
f 613 635 614
f 614 635 734
f 614 734 615
f 615 734 735
f 615 735 736
f 615 736 616
f 616 736 737
f 616 737 617
f 617 737 618
f 618 737 619
f 619 737 620
f 620 737 621
f 621 737 640
f 621 640 639
f 621 639 738
f 621 738 622
f 622 738 739
f 625 712 626
f 626 712 740
f 626 740 741
f 626 741 627
f 627 741 742
f 627 742 636
f 628 637 636
f 628 636 743
f 628 743 629
f 629 743 744
f 629 744 745
f 629 745 746
f 629 746 630
f 630 746 747
f 630 747 631
f 631 748 632
f 631 747 749
f 631 749 750
f 631 750 751
f 631 751 752
f 631 752 748
f 632 748 753
f 632 753 754
f 632 754 755
f 632 755 633
f 633 755 756
f 633 756 634
f 634 756 757
f 634 757 758
f 634 758 759
f 634 759 635
f 635 759 760
f 635 760 761
f 635 761 762
f 635 762 734
f 636 742 743
f 638 739 738
f 638 738 639
f 640 737 641
f 641 763 642
f 641 737 763
f 642 763 737
f 642 737 736
f 642 736 735
f 642 735 764
f 642 764 643
f 643 764 646
f 644 651 757
f 644 757 765
f 644 765 645
f 645 766 652
f 645 765 766
f 646 764 767
f 646 767 647
f 647 767 761
f 647 761 648
f 648 761 649
f 649 761 650
f 650 760 759
f 650 759 651
f 650 761 760
f 651 759 758
f 651 758 757
f 652 766 768
f 652 768 769
f 652 769 654
f 652 654 653
f 654 769 657
f 655 658 770
f 655 770 771
f 655 771 772
f 655 772 773
f 655 773 774
f 655 774 656
f 657 769 658
f 658 769 775
f 658 775 776
f 658 776 770
f 659 672 671
f 659 671 729
f 659 729 710
f 659 673 672
f 662 709 663
f 663 709 664
f 664 709 708
f 664 708 665
f 665 708 707
f 665 707 777
f 665 777 667
f 665 667 666
f 667 777 668
f 668 777 778
f 668 778 669
f 669 778 779
f 669 779 670
f 670 780 781
f 670 781 782
f 670 782 671
f 670 779 778
f 670 778 783
f 670 783 784
f 670 784 785
f 670 785 786
f 670 786 787
f 670 787 788
f 670 788 780
f 671 782 729
f 674 789 790
f 674 790 675
f 675 790 791
f 675 791 792
f 675 792 676
f 676 792 793
f 676 793 677
f 677 793 794
f 677 794 678
f 678 794 679
f 679 795 681
f 679 681 680
f 679 794 796
f 679 796 797
f 679 797 795
f 681 795 682
f 682 798 799
f 682 799 686
f 682 795 800
f 682 800 801
f 682 801 798
f 683 685 802
f 683 802 687
f 684 686 803
f 684 803 685
f 685 803 802
f 686 799 803
f 687 804 805
f 687 805 688
f 687 802 806
f 687 806 804
f 688 805 689
f 689 805 690
f 690 807 808
f 690 808 809
f 690 809 691
f 690 805 807
f 691 809 810
f 691 810 692
f 692 810 693
f 693 810 694
f 694 811 812
f 694 812 695
f 694 810 813
f 694 813 811
f 695 812 696
f 696 812 697
f 697 814 699
f 697 699 698
f 697 812 815
f 697 815 814
f 699 816 700
f 699 814 816
f 700 816 702
f 700 702 701
f 702 816 817
f 702 817 818
f 702 818 703
f 703 818 706
f 704 706 818
f 704 818 778
f 704 778 707
f 704 707 705
f 707 778 777
f 712 819 740
f 712 713 820
f 712 820 821
f 712 821 819
f 713 720 820
f 714 723 822
f 714 822 715
f 715 823 824
f 715 824 716
f 715 822 823
f 716 825 826
f 716 826 717
f 716 824 825
f 717 826 718
f 718 826 719
f 719 826 827
f 719 827 828
f 719 828 829
f 719 829 720
f 720 829 820
f 721 727 830
f 721 830 722
f 722 830 723
f 723 830 831
f 723 831 832
f 723 832 833
f 723 833 822
f 724 733 725
f 725 733 834
f 725 834 835
f 725 835 836
f 725 836 837
f 725 837 728
f 726 728 837
f 726 837 838
f 726 838 839
f 726 839 840
f 726 840 830
f 726 830 727
f 729 780 788
f 729 788 787
f 729 787 730
f 729 782 781
f 729 781 780
f 730 733 731
f 730 787 786
f 730 786 834
f 730 834 733
f 734 762 761
f 734 761 767
f 734 767 764
f 734 764 735
f 740 841 842
f 740 842 741
f 740 819 841
f 741 843 844
f 741 844 845
f 741 845 742
f 741 842 843
f 742 846 743
f 742 845 846
f 743 846 744
f 744 846 745
f 745 846 847
f 745 847 848
f 745 848 746
f 746 849 850
f 746 850 851
f 746 851 852
f 746 852 747
f 746 848 849
f 747 852 853
f 747 853 749
f 748 752 854
f 748 854 768
f 748 768 753
f 749 853 750
f 750 855 751
f 750 853 856
f 750 856 855
f 751 855 854
f 751 854 752
f 753 768 754
f 754 768 755
f 755 768 766
f 755 766 857
f 755 857 756
f 756 857 757
f 757 857 765
f 765 857 766
f 768 854 769
f 769 854 858
f 769 858 775
f 770 776 859
f 770 859 860
f 770 860 861
f 770 861 862
f 770 862 771
f 771 862 863
f 771 863 772
f 772 863 773
f 773 863 864
f 775 858 855
f 775 855 776
f 776 855 856
f 776 856 865
f 776 865 859
f 778 818 817
f 778 817 783
f 783 866 784
f 783 817 866
f 784 866 785
f 785 866 867
f 785 867 868
f 785 868 869
f 785 869 834
f 785 834 786
f 789 864 870
f 789 870 871
f 789 871 872
f 789 872 790
f 790 872 791
f 791 872 873
f 791 873 792
f 792 873 874
f 792 874 793
f 793 874 875
f 793 875 876
f 793 876 794
f 794 877 796
f 794 876 877
f 795 797 878
f 795 878 879
f 795 879 801
f 795 801 800
f 796 877 797
f 797 877 878
f 798 880 881
f 798 881 799
f 798 801 879
f 798 879 882
f 798 882 880
f 799 881 803
f 802 803 881
f 802 881 806
f 804 806 883
f 804 883 884
f 804 884 885
f 804 885 886
f 804 886 805
f 805 886 885
f 805 885 887
f 805 887 888
f 805 888 807
f 806 881 889
f 806 889 890
f 806 890 891
f 806 891 883
f 807 888 892
f 807 892 808
f 808 893 894
f 808 894 809
f 808 892 893
f 809 894 895
f 809 895 896
f 809 896 813
f 809 813 810
f 811 813 897
f 811 897 898
f 811 898 899
f 811 899 900
f 811 900 815
f 811 815 812
f 813 896 897
f 814 815 901
f 814 901 869
f 814 869 868
f 814 868 867
f 814 867 902
f 814 902 816
f 815 900 903
f 815 903 904
f 815 904 901
f 816 902 817
f 817 902 866
f 819 821 905
f 819 905 906
f 819 906 841
f 820 907 905
f 820 905 821
f 820 829 907
f 822 833 908
f 822 908 909
f 822 909 910
f 822 910 823
f 823 910 911
f 823 911 912
f 823 912 824
f 824 912 913
f 824 913 914
f 824 914 915
f 824 915 825
f 825 915 916
f 825 916 917
f 825 917 827
f 825 827 826
f 827 917 918
f 827 918 919
f 827 919 920
f 827 920 828
f 828 921 922
f 828 922 923
f 828 923 829
f 828 920 921
f 829 923 907
f 830 924 831
f 830 840 924
f 831 924 925
f 831 925 832
f 832 925 924
f 832 924 833
f 833 909 908
f 833 924 909
f 834 869 835
f 835 869 903
f 835 903 899
f 835 899 836
f 836 899 837
f 837 899 926
f 837 926 838
f 838 926 839
f 839 926 894
f 839 894 927
f 839 927 840
f 840 927 924
f 841 906 928
f 841 928 842
f 842 928 843
f 843 847 846
f 843 846 844
f 843 928 847
f 844 846 845
f 847 929 848
f 847 928 929
f 848 929 930
f 848 930 849
f 849 930 931
f 849 931 850
f 850 932 933
f 850 933 934
f 850 934 935
f 850 935 936
f 850 936 937
f 850 937 938
f 850 938 939
f 850 939 940
f 850 940 941
f 850 941 851
f 850 931 932
f 851 941 942
f 851 942 852
f 852 942 853
f 853 942 865
f 853 865 856
f 854 855 858
f 859 943 860
f 859 865 943
f 860 943 944
f 860 944 945
f 860 945 861
f 861 945 946
f 861 946 863
f 861 863 862
f 863 946 864
f 864 946 947
f 864 947 870
f 865 942 948
f 865 948 943
f 866 902 867
f 869 901 903
f 870 947 871
f 871 947 949
f 871 949 950
f 871 950 872
f 872 950 873
f 873 950 951
f 873 951 874
f 874 951 952
f 874 952 875
f 875 952 953
f 875 953 876
f 876 953 954
f 876 954 877
f 877 954 955
f 877 955 878
f 878 955 956
f 878 956 879
f 879 956 957
f 879 957 882
f 880 882 958
f 880 958 959
f 880 959 960
f 880 960 889
f 880 889 881
f 882 957 961
f 882 961 962
f 882 962 963
f 882 963 964
f 882 964 958
f 883 891 965
f 883 965 884
f 884 965 885
f 885 966 893
f 885 893 887
f 885 965 966
f 887 893 892
f 887 892 888
f 889 967 890
f 889 960 967
f 890 967 968
f 890 968 891
f 891 968 965
f 893 966 969
f 893 969 970
f 893 970 971
f 893 971 972
f 893 972 973
f 893 973 894
f 894 973 927
f 894 926 896
f 894 896 895
f 896 926 897
f 897 926 898
f 898 926 899
f 899 903 900
f 901 904 903
f 905 974 906
f 905 907 974
f 906 974 928
f 907 923 974
f 909 924 966
f 909 966 910
f 910 975 976
f 910 976 977
f 910 977 913
f 910 913 911
f 910 966 978
f 910 978 979
f 910 979 980
f 910 980 975
f 911 913 912
f 913 977 981
f 913 981 916
f 913 916 914
f 914 916 915
f 916 982 983
f 916 983 984
f 916 984 985
f 916 985 918
f 916 918 917
f 916 981 986
f 916 986 987
f 916 987 982
f 918 985 919
f 919 985 920
f 920 985 921
f 921 985 988
f 921 988 922
f 922 988 923
f 923 988 989
f 923 989 990
f 923 990 991
f 923 991 974
f 924 927 973
f 924 973 972
f 924 972 971
f 924 971 970
f 924 970 969
f 924 969 966
f 928 974 992
f 928 992 993
f 928 993 994
f 928 994 929
f 929 994 995
f 929 995 930
f 930 995 994
f 930 994 993
f 930 993 996
f 930 996 997
f 930 997 935
f 930 935 934
f 930 934 933
f 930 933 932
f 930 932 931
f 935 998 936
f 935 997 998
f 936 999 937
f 936 998 1000
f 936 1000 1001
f 936 1001 1002
f 936 1002 1003
f 936 1003 1004
f 936 1004 1005
f 936 1005 1006
f 936 1006 999
f 937 999 1007
f 937 1007 1008
f 937 1008 1009
f 937 1009 938
f 938 1009 1010
f 938 1010 939
f 939 1010 1011
f 939 1011 1012
f 939 1012 941
f 939 941 940
f 941 1013 1014
f 941 1014 942
f 941 1012 1015
f 941 1015 1013
f 942 1014 948
f 943 1016 944
f 943 948 1016
f 944 1016 1017
f 944 1017 1018
f 944 1018 945
f 945 1018 947
f 945 947 946
f 947 1018 949
f 948 1014 1013
f 948 1013 1016
f 949 1018 950
f 950 1018 1019
f 950 1019 951
f 951 1019 1020
f 951 1020 1021
f 951 1021 952
f 952 1022 1023
f 952 1023 953
f 952 1021 1022
f 953 1023 954
f 954 1023 1024
f 954 1024 1025
f 954 1025 955
f 955 1025 956
f 956 1025 1026
f 956 1026 957
f 957 1027 1028
f 957 1028 961
f 957 1026 1029
f 957 1029 1030
f 957 1030 1027
f 958 964 1031
f 958 1031 959
f 959 1031 960
f 960 1031 1032
f 960 1032 1033
f 960 1033 967
f 961 1028 962
f 962 1028 963
f 963 1028 1034
f 963 1034 964
f 964 1034 1031
f 965 968 977
f 965 977 976
f 965 976 975
f 965 975 980
f 965 980 979
f 965 979 978
f 965 978 966
f 967 1033 968
f 968 981 977
f 968 1033 1032
f 968 1032 1031
f 968 1031 981
f 974 991 1035
f 974 1035 1036
f 974 1036 1037
f 974 1037 992
f 981 1031 986
f 982 987 1031
f 982 1031 983
f 983 1031 984
f 984 1031 1038
f 984 1038 1039
f 984 1039 985
f 985 1039 1040
f 985 1040 1041
f 985 1041 988
f 986 1031 987
f 988 1041 1042
f 988 1042 990
f 988 990 989
f 990 1035 991
f 990 1042 1043
f 990 1043 1044
f 990 1044 1045
f 990 1045 997
f 990 997 1035
f 992 1037 996
f 992 996 1046
f 992 1046 993
f 993 1046 996
f 996 1037 997
f 997 1047 1036
f 997 1036 1035
f 997 1045 1004
f 997 1004 1003
f 997 1003 1002
f 997 1002 1001
f 997 1001 1000
f 997 1000 998
f 997 1037 1047
f 999 1048 1007
f 999 1006 1048
f 1004 1045 1005
f 1005 1049 1050
f 1005 1050 1006
f 1005 1045 1044
f 1005 1044 1043
f 1005 1043 1042
f 1005 1042 1051
f 1005 1051 1052
f 1005 1052 1049
f 1006 1050 1048
f 1007 1011 1008
f 1007 1048 1011
f 1008 1011 1053
f 1008 1053 1009
f 1009 1053 1010
f 1010 1053 1011
f 1011 1048 1054
f 1011 1054 1055
f 1011 1055 1056
f 1011 1056 1015
f 1011 1015 1012
f 1013 1015 1016
f 1015 1057 1016
f 1015 1056 1058
f 1015 1058 1057
f 1016 1057 1017
f 1017 1057 1018
f 1018 1057 1019
f 1019 1057 1058
f 1019 1058 1056
f 1019 1056 1020
f 1020 1056 1021
f 1021 1056 1055
f 1021 1055 1022
f 1022 1055 1054
f 1022 1054 1023
f 1023 1054 1048
f 1023 1048 1024
f 1024 1048 1025
f 1025 1052 1026
f 1025 1048 1050
f 1025 1050 1049
f 1025 1049 1052
f 1026 1052 1051
f 1026 1051 1029
f 1027 1030 1051
f 1027 1051 1028
f 1028 1051 1034
f 1029 1051 1030
f 1031 1034 1038
f 1034 1059 1039
f 1034 1039 1038
f 1034 1051 1060
f 1034 1060 1041
f 1034 1041 1040
f 1034 1040 1059
f 1036 1047 1037
f 1039 1059 1061
f 1039 1061 1040
f 1040 1061 1059
f 1041 1060 1051
f 1041 1051 1042

