# https://github.com/mikedh/trimesh
v 0.01121100 -0.05140522 0.00918242
v 0.01171463 -0.05218673 0.00918242
v 0.04631717 -0.02529229 0.00924632
v 0.05223379 -0.00448589 0.00924632
v 0.01155381 -0.05052240 0.00918242
v 0.01319591 -0.05063336 0.00143222
v 0.01319591 -0.05102894 0.00143222
v 0.01406351 -0.05222531 0.00238199
v 0.01268381 -0.05246652 0.00918242
v 0.01345831 -0.05184904 0.00238199
v 0.01334827 -0.05195999 0.00315846
v 0.04891151 -0.02529229 0.00924632
v 0.01391538 -0.05252924 0.00918242
v 0.05234383 -0.00423503 0.00924632
v 0.05269933 -0.00363202 0.00924632
v 0.05288555 -0.00337634 0.00924632
v 0.05194600 -0.00469332 0.00238296
v 0.05196293 -0.00474639 0.00117275
v 0.05199256 -0.00481393 0.00054731
v 0.01413969 -0.05048864 0.00029462
v 0.01413969 -0.05118331 0.00029462
v 0.01380535 -0.05151135 0.00101203
v 0.01427512 -0.05212884 0.00140027
v 0.01512579 -0.05247135 0.00238199
v 0.01512579 -0.05256783 0.00359317
v 0.01391538 -0.05262089 0.00842821
v 0.04902155 -0.02529229 0.00891133
v 0.04911042 -0.02479058 0.00924632
v 0.01507078 -0.05232180 0.00918242
v 0.01624310 -0.05208542 0.00918242
v 0.01679328 -0.05193587 0.00918242
v 0.01980238 -0.05091316 0.00918242
v 0.02070384 -0.05060442 0.00918242
v 0.02323047 -0.04964924 0.00918242
v 0.02431815 -0.04922472 0.00918242
v 0.02608721 -0.04846733 0.00918242
v 0.02643849 -0.04830814 0.00918242
v 0.02677283 -0.04815377 0.00918242
v 0.02790283 -0.04752181 0.00918242
v 0.02836837 -0.04725648 0.00918242
v 0.02926983 -0.04668241 0.00918242
v 0.03027287 -0.04603116 0.00918242
v 0.03036174 -0.04597327 0.00918242
v 0.03158062 -0.04507598 0.00918242
v 0.03188957 -0.04484442 0.00918242
v 0.03350204 -0.04359498 0.00918242
v 0.03496215 -0.04241789 0.00918242
v 0.03521608 -0.04219116 0.00918242
v 0.03624028 -0.04125046 0.00918242
v 0.03882193 -0.03881428 0.00918242
v 0.04003234 -0.03763237 0.00918242
v 0.04124698 -0.03628645 0.00918242
v 0.04241930 -0.03492605 0.00918242
v 0.04342234 -0.03372967 0.00918242
v 0.04360009 -0.03351258 0.00918242
v 0.04482743 -0.03196404 0.00918242
v 0.04601245 -0.03043962 0.00918242
v 0.04605900 -0.03037691 0.00918242
v 0.04657110 -0.02965329 0.00918242
v 0.04708743 -0.02890555 0.00918242
v 0.04743870 -0.02832666 0.00918242
v 0.04767994 -0.02789731 0.00918242
v 0.04829784 -0.02674435 0.00918242
v 0.04842057 -0.02647902 0.00918242
v 0.04880994 -0.02558656 0.00918242
v 0.01512579 -0.05253888 0.00842821
v 0.05365581 -0.00337634 0.00924632
v 0.05311409 -0.00359343 0.00159777
v 0.05250466 -0.00409513 0.00238296
v 0.05261046 -0.00458237 0.00039530
v 0.05261046 -0.00544589 0.00008259
v 0.01633197 -0.05018954 -0.00011202
v 0.01504115 -0.05151135 0.00015713
v 0.01457984 -0.05198894 0.00059378
v 0.01504115 -0.05219155 0.00106722
v 0.01633197 -0.05220602 0.00117275
v 0.01633197 -0.05238451 0.00238199
v 0.01512579 -0.05262089 0.00479854
v 0.01633197 -0.05246652 0.00359317
v 0.01512579 -0.05265949 0.00600779
v 0.01512579 -0.05265949 0.00721800
v 0.04838248 -0.02663822 0.00907108
v 0.04937705 -0.02478094 0.00844370
v 0.05098952 -0.01975903 0.00924632
v 0.01644201 -0.05223979 0.00853858
v 0.01692025 -0.05199859 0.00901589
v 0.02053879 -0.05078291 0.00901202
v 0.02401343 -0.04951899 0.00887551
v 0.02656969 -0.04835638 0.00897813
v 0.02721721 -0.04815859 0.00851631
v 0.02891009 -0.04708763 0.00879031
v 0.03032365 -0.04601668 0.00914853
v 0.03248631 -0.04462252 0.00869543
v 0.03380676 -0.04349367 0.00893263
v 0.03511028 -0.04236483 0.00908269
v 0.03635455 -0.04118775 0.00912433
v 0.03967260 -0.03847659 0.00842724
v 0.04023972 -0.03786875 0.00842724
v 0.04119196 -0.03637810 0.00914175
v 0.04234312 -0.03509489 0.00906043
v 0.04349005 -0.03381167 0.00892972
v 0.04462428 -0.03249469 0.00869252
v 0.04573735 -0.03116806 0.00842724
v 0.04619443 -0.03056022 0.00842724
v 0.04721862 -0.02913228 0.00806708
v 0.04685042 -0.02957128 0.00845338
v 0.04696469 -0.02988485 0.00721800
v 0.04749372 -0.02850515 0.00845338
v 0.04813702 -0.02736666 0.00842724
v 0.01633197 -0.05250029 0.00721800
v 0.01821107 -0.05201788 0.00787539
v 0.05426102 -0.00409996 0.00924632
v 0.05328338 -0.00359343 0.00159777
v 0.05343997 -0.00452448 0.00035851
v 0.05356693 -0.00544589 0.00020651
v 0.05261046 -0.00665674 -0.00010814
v 0.01754238 -0.05018954 -0.00031340
v 0.01633197 -0.05139557 -0.00002004
v 0.01538819 -0.05205165 0.00049696
v 0.01633197 -0.05204200 0.00051342
v 0.01694564 -0.05200823 0.00056570
v 0.01715725 -0.05206130 0.00117275
v 0.01759317 -0.05212884 0.00240813
v 0.01754238 -0.05223497 0.00359317
v 0.01633197 -0.05251959 0.00479854
v 0.01754238 -0.05229768 0.00479854
v 0.01633197 -0.05254371 0.00600779
v 0.04883110 -0.02601108 0.00842724
v 0.04915275 -0.02529229 0.00843693
v 0.04949979 -0.02519581 0.00721897
v 0.04965215 -0.02437089 0.00805062
v 0.05112919 -0.02003883 0.00849598
v 0.05112072 -0.01933451 0.00924632
v 0.01754238 -0.05209507 0.00815325
v 0.01866815 -0.05170914 0.00833817
v 0.02006478 -0.05116401 0.00853665
v 0.02117362 -0.05066713 0.00873028
v 0.02480485 -0.04935497 0.00845435
v 0.02117362 -0.05092281 0.00812517
v 0.02179575 -0.05080220 0.00784344
v 0.02440703 -0.04967336 0.00806902
v 0.02610414 -0.04873266 0.00851631
v 0.02681515 -0.04848663 0.00817262
v 0.02847418 -0.04747357 0.00840207
v 0.02910478 -0.04721306 0.00798382
v 0.02955762 -0.04678854 0.00840207
v 0.03052680 -0.04614211 0.00842821
v 0.03112777 -0.04573688 0.00842821
v 0.03400567 -0.04365287 0.00812421
v 0.03207155 -0.04507116 0.00834688
v 0.03268946 -0.04477206 0.00788991
v 0.03528380 -0.04249990 0.00842821
v 0.03588901 -0.04197890 0.00842821
v 0.03987151 -0.03866956 0.00764690
v 0.04084492 -0.03718373 0.00842724
v 0.04137818 -0.03657589 0.00842724
v 0.04197915 -0.03587157 0.00842724
v 0.04366357 -0.03400946 0.00812324
v 0.04248702 -0.03526856 0.00842724
v 0.04476395 -0.03268283 0.00788700
v 0.04588548 -0.03135620 0.00743196
v 0.04627907 -0.03091238 0.00710472
v 0.04731173 -0.02928183 0.00721800
v 0.04704510 -0.03002957 0.00600875
v 0.04740908 -0.02942656 0.00600875
v 0.04779421 -0.02842314 0.00721800
v 0.04825129 -0.02756927 0.00721800
v 0.01754238 -0.05231215 0.00600779
v 0.01754238 -0.05224944 0.00721800
v 0.01835920 -0.05205647 0.00721800
v 0.01896017 -0.05190210 0.00721800
v 0.01995898 -0.05157889 0.00721800
v 0.05436259 -0.00429775 0.00924632
v 0.05443031 -0.00482358 0.00393106
v 0.05385473 -0.00423503 0.00238296
v 0.05360503 -0.00416750 0.00118630
v 0.05409173 -0.00544589 0.00117275
v 0.05355424 -0.00665674 0.00016198
v 0.05261046 -0.00786759 -0.00019334
v 0.02051763 -0.04957688 -0.00064451
v 0.02051763 -0.04959135 -0.00064451
v 0.01742812 -0.05145346 0.00013584
v 0.02060650 -0.04959135 -0.00064451
v 0.01875280 -0.05160301 0.00117275
v 0.01776669 -0.05189728 0.00117275
v 0.01875280 -0.05113989 0.00010486
v 0.01995898 -0.05094210 0.00030817
v 0.02065306 -0.05082633 0.00049019
v 0.01802909 -0.05196964 0.00202280
v 0.01822377 -0.05202271 0.00282832
v 0.01835074 -0.05205165 0.00359317
v 0.01845654 -0.05208059 0.00479854
v 0.04974525 -0.02458797 0.00721897
v 0.04956327 -0.02535500 0.00624789
v 0.05147199 -0.01995682 0.00721897
v 0.05154818 -0.01874597 0.00842724
v 0.05127731 -0.01874597 0.00924632
v 0.02193542 -0.05085527 0.00721800
v 0.02254485 -0.05062371 0.00721800
v 0.02359021 -0.05021849 0.00721800
v 0.02521115 -0.04949969 0.00744455
v 0.02541006 -0.04959135 0.00663806
v 0.02761504 -0.04825507 0.00721800
v 0.02842762 -0.04778713 0.00721800
v 0.02923174 -0.04729507 0.00721800
v 0.03133938 -0.04588643 0.00746198
v 0.03613447 -0.04220563 0.00721800
v 0.03193613 -0.04551015 0.00712312
v 0.03278256 -0.04484442 0.00721800
v 0.03994769 -0.03874192 0.00684138
v 0.04220769 -0.03614172 0.00721800
v 0.04378207 -0.03414936 0.00721800
v 0.04438728 -0.03338233 0.00721800
v 0.04595743 -0.03144786 0.00662548
v 0.04646953 -0.03084002 0.00600875
v 0.04705357 -0.03006816 0.00479951
v 0.04745563 -0.02946515 0.00479951
v 0.04804390 -0.02842314 0.00479951
v 0.04796350 -0.02842314 0.00600875
v 0.01846924 -0.05209024 0.00600779
v 0.01907444 -0.05192622 0.00600779
v 0.01995898 -0.05164160 0.00600779
v 0.02117362 -0.05124120 0.00600779
v 0.02212586 -0.05092281 0.00600779
v 0.05443877 -0.00470780 0.00924632
v 0.05444724 -0.00475604 0.00842724
v 0.05444724 -0.00478016 0.00721897
v 0.05444301 -0.00478981 0.00600875
v 0.05443877 -0.00480428 0.00479951
v 0.05443031 -0.00500689 0.00393106
v 0.05432027 -0.00544589 0.00238296
v 0.05401978 -0.00665674 0.00117275
v 0.05348653 -0.00786759 0.00018715
v 0.05261046 -0.00907362 -0.00019722
v 0.05018964 -0.01874597 -0.00034922
v 0.02649350 -0.04715517 -0.00064257
v 0.02060650 -0.04957688 -0.00064451
v 0.02237980 -0.04988562 0.00009711
v 0.02662894 -0.04717447 -0.00064257
v 0.01995898 -0.05122190 0.00117275
v 0.01995898 -0.05144381 0.00238199
v 0.01867662 -0.05183939 0.00240813
v 0.02237980 -0.05035356 0.00117275
v 0.02151643 -0.05069125 0.00117275
v 0.02091122 -0.05091316 0.00117275
v 0.02326433 -0.04970713 0.00031204
v 0.02407268 -0.04952864 0.00072158
v 0.02363676 -0.04984703 0.00114467
v 0.01895594 -0.05189728 0.00359317
v 0.01905752 -0.05192622 0.00479854
v 0.04977911 -0.02488707 0.00591000
v 0.04958443 -0.02540807 0.00544141
v 0.04963098 -0.02529229 0.00554500
v 0.05159473 -0.01995682 0.00600875
v 0.05181057 -0.01874597 0.00721897
v 0.05274166 -0.01270135 0.00924632
v 0.05203911 -0.01582256 0.00911948
v 0.02359021 -0.05037286 0.00600779
v 0.02480485 -0.04974572 0.00711150
v 0.02479639 -0.04988080 0.00600779
v 0.02543122 -0.04960100 0.00600779
v 0.02781395 -0.04837085 0.00479854
v 0.02775893 -0.04834191 0.00600779
v 0.02842762 -0.04797045 0.00600779
v 0.02937564 -0.04739638 0.00600779
v 0.03145789 -0.04596362 0.00665646
v 0.03290107 -0.04494573 0.00600779
v 0.03624451 -0.04230212 0.00600779
v 0.03997732 -0.03877569 0.00600875
v 0.04230080 -0.03624785 0.00600875
v 0.04447192 -0.03349811 0.00600875
v 0.04650338 -0.03084002 0.00479951
v 0.04601245 -0.03151540 0.00479951
v 0.04598705 -0.03148163 0.00359220
v 0.04743870 -0.02940244 0.00359220
v 0.04801851 -0.02842314 0.00359220
v 0.04960136 -0.02543219 0.00293191
v 0.04960136 -0.02543219 0.00359220
v 0.01995898 -0.05164160 0.00479854
v 0.02117362 -0.05125085 0.00479854
v 0.02215126 -0.05092763 0.00479854
v 0.02359021 -0.05039698 0.00479854
v 0.05443877 -0.00493935 0.00924632
v 0.05444724 -0.00498277 0.00842724
v 0.05444724 -0.00506961 0.00721897
v 0.05444301 -0.00527704 0.00600875
v 0.05443877 -0.00525775 0.00479951
v 0.05441761 -0.00586076 0.00479951
v 0.05440068 -0.00542659 0.00355348
v 0.05420600 -0.00665674 0.00238296
v 0.05385473 -0.00786759 0.00117275
v 0.05323682 -0.01108045 0.00051245
v 0.05338918 -0.00907362 0.00027622
v 0.05239462 -0.01391221 0.00000513
v 0.05251735 -0.01270135 -0.00002391
v 0.05261046 -0.01028447 -0.00012460
v 0.05140005 -0.01511823 -0.00024756
v 0.05140005 -0.01632909 -0.00014203
v 0.05018964 -0.01995682 -0.00023400
v 0.04898346 -0.02237853 -0.00034728
v 0.02662894 -0.04715517 -0.00064257
v 0.02479639 -0.04875678 0.00004095
v 0.04655840 -0.02721711 -0.00030081
v 0.03930440 -0.03688464 -0.00031824
v 0.03809398 -0.03809549 -0.00031533
v 0.03688358 -0.03930152 -0.00030952
v 0.03567739 -0.04051237 -0.00029306
v 0.03209272 -0.04420764 -0.00010427
v 0.03078073 -0.04535095 0.00002062
v 0.02963380 -0.04623859 0.00014455
v 0.02805096 -0.04729507 0.00028784
v 0.02710717 -0.04745909 -0.00008297
v 0.02571055 -0.04853487 0.00026363
v 0.02174074 -0.05078291 0.00185337
v 0.02127096 -0.05100482 0.00230744
v 0.02190579 -0.05084079 0.00265985
v 0.02117362 -0.05119296 0.00359317
v 0.01995898 -0.05158853 0.00359317
v 0.02438587 -0.04966854 0.00152903
v 0.02651467 -0.04832261 0.00071383
v 0.02479216 -0.04934532 0.00114467
v 0.04986375 -0.02479541 0.00479951
v 0.05166245 -0.01995682 0.00479951
v 0.04963945 -0.02529229 0.00532135
v 0.05195023 -0.01894858 0.00479951
v 0.05193331 -0.01868326 0.00597584
v 0.05245387 -0.01632909 0.00600875
v 0.05233113 -0.01632909 0.00721897
v 0.05410443 -0.00665674 0.00924632
v 0.02479639 -0.04989527 0.00479854
v 0.02543968 -0.04960582 0.00479854
v 0.02542276 -0.04959617 0.00401626
v 0.02776740 -0.04834673 0.00359317
v 0.02842762 -0.04799939 0.00359317
v 0.02842762 -0.04803316 0.00479854
v 0.02942219 -0.04743015 0.00479854
v 0.03149597 -0.04599256 0.00600779
v 0.03210118 -0.04554874 0.00600779
v 0.03295185 -0.04498915 0.00479854
v 0.03626144 -0.04231659 0.00479854
v 0.03997732 -0.03877086 0.00479951
v 0.04229657 -0.03623821 0.00479951
v 0.04448885 -0.03352705 0.00479951
v 0.04595743 -0.03145268 0.00296773
v 0.04445076 -0.03347881 0.00359220
v 0.04732866 -0.02924806 0.00238296
v 0.04782383 -0.02842314 0.00238296
v 0.04807353 -0.02717852 0.00118630
v 0.04866604 -0.02604485 0.00118630
v 0.04953788 -0.02529229 0.00255239
v 0.04963522 -0.02529229 0.00283509
v 0.05154818 -0.01995682 0.00238296
v 0.05166245 -0.01995682 0.00359220
v 0.04987222 -0.02479541 0.00359220
v 0.04966484 -0.02529229 0.00359220
v 0.02204969 -0.05089869 0.00359317
v 0.02359021 -0.05033426 0.00359317
v 0.02489796 -0.04980844 0.00360479
v 0.05440915 -0.00513714 0.00924632
v 0.05440915 -0.00588006 0.00600875
v 0.05430757 -0.00665674 0.00479951
v 0.05427795 -0.00665674 0.00359220
v 0.05410020 -0.00786759 0.00359220
v 0.05401978 -0.00786759 0.00238296
v 0.05318604 -0.01188608 0.00080290
v 0.05225072 -0.01511823 0.00012325
v 0.05112919 -0.01874597 0.00006806
v 0.04984260 -0.02237853 0.00014842
v 0.04905964 -0.02360385 -0.00001229
v 0.04873375 -0.02479541 0.00010098
v 0.04784076 -0.02604485 -0.00001617
v 0.04534799 -0.02963399 -0.00025821
v 0.04051058 -0.03567861 -0.00029500
v 0.03925361 -0.03803760 0.00013874
v 0.03804743 -0.03924845 0.00012519
v 0.03682856 -0.04045931 0.00012809
v 0.03558852 -0.04166051 0.00017940
v 0.03304496 -0.04384583 0.00018231
v 0.03171605 -0.04495055 0.00021619
v 0.03034482 -0.04602151 0.00040692
v 0.02885508 -0.04707317 0.00083776
v 0.02359021 -0.05017507 0.00238199
v 0.02461864 -0.04977467 0.00238199
v 0.02607028 -0.04870371 0.00113983
v 0.02678129 -0.04846251 0.00152032
v 0.02521961 -0.04949969 0.00238199
v 0.02719605 -0.04811035 0.00113983
v 0.05194600 -0.01894376 0.00359220
v 0.05252158 -0.01632909 0.00359220
v 0.05251735 -0.01632909 0.00479951
v 0.05315218 -0.01295221 0.00600875
v 0.05310563 -0.01264829 0.00721219
v 0.05432874 -0.00554719 0.00924632
v 0.02537197 -0.04956723 0.00321074
v 0.02842762 -0.04782573 0.00238199
v 0.02925714 -0.04732402 0.00238199
v 0.02939257 -0.04741568 0.00359317
v 0.03152983 -0.04601668 0.00479854
v 0.03213504 -0.04559216 0.00479854
v 0.03292223 -0.04496020 0.00359317
v 0.03352320 -0.04447297 0.00359317
v 0.03620219 -0.04225870 0.00359317
v 0.03661694 -0.04186794 0.00359220
v 0.03748455 -0.04111538 0.00428638
v 0.03994346 -0.03873709 0.00403853
v 0.04112425 -0.03749730 0.00415374
v 0.04224578 -0.03617549 0.00359220
v 0.04437882 -0.03338715 0.00238296
v 0.04478088 -0.03270695 0.00165393
v 0.04586855 -0.03130796 0.00216221
v 0.04377361 -0.03414454 0.00238296
v 0.04721439 -0.02909852 0.00166555
v 0.04507713 -0.03210394 0.00121922
v 0.04829784 -0.02646937 0.00079225
v 0.04742601 -0.02840867 0.00122696
v 0.04904271 -0.02529229 0.00118436
v 0.04930934 -0.02475681 0.00118340
v 0.04951248 -0.02402355 0.00078548
v 0.04964791 -0.02432747 0.00159293
v 0.04981720 -0.02360385 0.00118340
v 0.05126462 -0.01995682 0.00117275
v 0.05163282 -0.01874597 0.00117275
v 0.05200949 -0.01694175 0.00056183
v 0.05229304 -0.01632909 0.00117275
v 0.05189522 -0.01867843 0.00244589
v 0.05323259 -0.01220447 0.00680556
v 0.05386743 -0.00907362 0.00600875
v 0.05429064 -0.00665674 0.00600875
v 0.05392244 -0.00907362 0.00479951
v 0.05390551 -0.00907362 0.00359220
v 0.05323259 -0.01221412 0.00160842
v 0.05310986 -0.01265311 0.00119211
v 0.05256391 -0.01511823 0.00117275
v 0.05209836 -0.01632909 0.00038756
v 0.05093027 -0.01995682 0.00033237
v 0.04968600 -0.02321310 0.00037110
v 0.04861102 -0.02529229 0.00022975
v 0.04748526 -0.02721711 0.00015520
v 0.04660072 -0.02840867 0.00001966
v 0.04534799 -0.03075801 0.00011260
v 0.04421376 -0.03210394 -0.00001036
v 0.04266477 -0.03446776 0.00022103
v 0.04165327 -0.03558695 0.00020264
v 0.04045132 -0.03682192 0.00015810
v 0.04000695 -0.03759378 0.00040886
v 0.03880923 -0.03881428 0.00039530
v 0.03761151 -0.04002031 0.00038466
v 0.03638841 -0.04121669 0.00040208
v 0.03446699 -0.04265910 0.00020845
v 0.03512721 -0.04237448 0.00046985
v 0.03384908 -0.04353227 0.00058991
v 0.03252017 -0.04465146 0.00083485
v 0.03114470 -0.04575136 0.00117275
v 0.03054373 -0.04615176 0.00117275
v 0.02910478 -0.04721789 0.00164424
v 0.02844032 -0.04744462 0.00121438
v 0.02759811 -0.04826472 0.00238199
v 0.05244964 -0.01632909 0.00238296
v 0.05315641 -0.01297633 0.00238296
v 0.05317334 -0.01308246 0.00359220
v 0.05317334 -0.01306316 0.00479951
v 0.03076380 -0.04631095 0.00238199
v 0.03144519 -0.04595397 0.00298903
v 0.03150444 -0.04599739 0.00379552
v 0.03196575 -0.04564523 0.00347312
v 0.03282066 -0.04487337 0.00238199
v 0.03341740 -0.04439578 0.00238199
v 0.03415803 -0.04378794 0.00238199
v 0.03608369 -0.04215257 0.00238199
v 0.03674391 -0.04154955 0.00238296
v 0.03734912 -0.04098031 0.00238296
v 0.03476324 -0.04328141 0.00238199
v 0.03547425 -0.04267840 0.00238199
v 0.04096766 -0.03734292 0.00238296
v 0.04106076 -0.03743941 0.00334726
v 0.04153477 -0.03697629 0.00368805
v 0.04213998 -0.03606453 0.00238296
v 0.04265631 -0.03546152 0.00238296
v 0.04326151 -0.03475238 0.00238296
v 0.04153477 -0.03673991 0.00238296
v 0.04416297 -0.03328102 0.00111562
v 0.04466237 -0.03253811 0.00084841
v 0.04366357 -0.03401911 0.00138284
v 0.04573735 -0.03108605 0.00117275
v 0.04599129 -0.03029490 0.00049406
v 0.04851791 -0.02566375 0.00032657
v 0.04726518 -0.02799862 0.00038659
v 0.04702818 -0.02879942 0.00085906
v 0.05081177 -0.02060325 0.00053279
v 0.05326222 -0.01237331 0.00238296
v 0.04618174 -0.02963399 0.00024814
v 0.04494593 -0.03173248 0.00025879
v 0.04385402 -0.03305429 0.00020554
v 0.04237698 -0.03512866 0.00047760
v 0.04120043 -0.03637328 0.00042726
v 0.04078567 -0.03714996 0.00117275
v 0.03717560 -0.04081146 0.00117275
v 0.03657039 -0.04137589 0.00117275
v 0.03602020 -0.04186794 0.00117275
v 0.03528380 -0.04251438 0.00117275
v 0.03401837 -0.04367216 0.00139736
v 0.03271908 -0.04479618 0.00164037
v 0.03209272 -0.04509528 0.00121147
v 0.03136477 -0.04590091 0.00238199
v 0.03205039 -0.04542332 0.00238199
v 0.04251241 -0.03527821 0.00117275
v 0.04135702 -0.03654212 0.00117275
v 0.04196222 -0.03588122 0.00117275
v 0.04353661 -0.03385992 0.00057635
v 0.04319803 -0.03444364 0.00105656
f 1 2 3
f 1 3 4
f 1 4 5
f 1 5 6
f 1 6 7
f 1 7 2
f 2 8 9
f 2 9 3
f 2 7 10
f 2 10 11
f 2 11 8
f 3 12 28
f 3 28 84
f 3 84 133
f 3 133 197
f 3 197 256
f 3 256 329
f 3 329 393
f 3 393 359
f 3 359 283
f 3 283 225
f 3 225 173
f 3 173 112
f 3 112 67
f 3 67 16
f 3 16 15
f 3 15 14
f 3 14 4
f 3 9 13
f 3 13 12
f 4 14 5
f 5 14 15
f 5 15 16
f 5 16 17
f 5 17 18
f 5 18 19
f 5 19 6
f 6 20 21
f 6 21 7
f 6 19 20
f 7 21 22
f 7 22 10
f 8 11 10
f 8 10 23
f 8 23 24
f 8 24 9
f 9 24 25
f 9 25 26
f 9 26 13
f 10 22 23
f 12 27 28
f 12 13 29
f 12 29 30
f 12 30 31
f 12 31 32
f 12 32 33
f 12 33 34
f 12 34 35
f 12 35 36
f 12 36 37
f 12 37 38
f 12 38 39
f 12 39 40
f 12 40 41
f 12 41 42
f 12 42 43
f 12 43 44
f 12 44 45
f 12 45 46
f 12 46 47
f 12 47 48
f 12 48 49
f 12 49 50
f 12 50 51
f 12 51 52
f 12 52 53
f 12 53 54
f 12 54 55
f 12 55 56
f 12 56 57
f 12 57 58
f 12 58 59
f 12 59 60
f 12 60 61
f 12 61 62
f 12 62 63
f 12 63 64
f 12 64 65
f 12 65 27
f 13 26 66
f 13 66 29
f 16 67 113
f 16 113 68
f 16 68 69
f 16 69 17
f 17 69 18
f 18 69 68
f 18 68 19
f 19 68 70
f 19 70 71
f 19 71 20
f 20 72 21
f 20 71 72
f 21 73 74
f 21 74 22
f 21 72 73
f 22 74 23
f 23 75 24
f 23 74 75
f 24 75 76
f 24 76 77
f 24 77 25
f 25 78 26
f 25 77 79
f 25 79 125
f 25 125 78
f 26 78 80
f 26 80 81
f 26 81 66
f 27 65 64
f 27 64 82
f 27 82 83
f 27 83 28
f 28 83 84
f 29 66 30
f 30 66 85
f 30 85 86
f 30 86 31
f 31 86 87
f 31 87 32
f 32 87 33
f 33 87 34
f 34 88 35
f 34 87 88
f 35 88 36
f 36 88 89
f 36 89 37
f 37 89 38
f 38 89 39
f 39 89 90
f 39 90 40
f 40 91 41
f 40 90 91
f 41 91 92
f 41 92 42
f 42 92 43
f 43 92 44
f 44 92 93
f 44 93 45
f 45 93 94
f 45 94 46
f 46 94 95
f 46 95 47
f 47 95 48
f 48 95 49
f 49 96 50
f 49 95 96
f 50 96 97
f 50 97 51
f 51 97 98
f 51 98 99
f 51 99 52
f 52 99 53
f 53 100 101
f 53 101 54
f 53 99 100
f 54 101 55
f 55 101 56
f 56 102 57
f 56 101 102
f 57 103 104
f 57 104 58
f 57 102 103
f 58 104 59
f 59 104 60
f 60 105 61
f 60 104 106
f 60 106 107
f 60 107 105
f 61 105 108
f 61 108 62
f 62 109 82
f 62 82 63
f 62 108 109
f 63 82 64
f 66 81 110
f 66 110 111
f 66 111 85
f 67 112 113
f 68 113 114
f 68 114 70
f 70 114 71
f 71 114 115
f 71 115 116
f 71 116 72
f 72 117 73
f 72 116 117
f 73 117 118
f 73 118 119
f 73 119 74
f 74 119 75
f 75 119 76
f 76 119 120
f 76 120 121
f 76 121 122
f 76 122 77
f 77 122 123
f 77 123 124
f 77 124 79
f 78 125 80
f 79 124 126
f 79 126 125
f 80 125 127
f 80 127 81
f 81 127 110
f 82 128 129
f 82 129 83
f 82 109 130
f 82 130 128
f 83 129 130
f 83 130 131
f 83 131 132
f 83 132 84
f 84 132 133
f 85 134 86
f 85 111 134
f 86 111 135
f 86 135 136
f 86 136 87
f 86 134 111
f 87 137 88
f 87 136 137
f 88 138 89
f 88 137 139
f 88 139 140
f 88 140 141
f 88 141 138
f 89 138 141
f 89 141 142
f 89 142 143
f 89 143 90
f 90 144 91
f 90 143 144
f 91 145 146
f 91 146 147
f 91 147 92
f 91 144 145
f 92 147 148
f 92 148 93
f 93 149 94
f 93 148 150
f 93 150 151
f 93 151 149
f 94 149 152
f 94 152 95
f 95 152 153
f 95 153 97
f 95 97 96
f 97 154 98
f 97 153 154
f 98 154 155
f 98 155 99
f 99 156 100
f 99 155 156
f 100 156 157
f 100 157 101
f 101 158 102
f 101 157 159
f 101 159 158
f 102 158 103
f 103 158 160
f 103 160 104
f 104 160 161
f 104 161 162
f 104 162 107
f 104 107 106
f 105 163 108
f 105 107 163
f 107 162 164
f 107 164 165
f 107 165 163
f 108 166 109
f 108 163 166
f 109 166 167
f 109 167 130
f 110 127 168
f 110 168 169
f 110 169 111
f 111 169 170
f 111 170 171
f 111 171 172
f 111 172 140
f 111 140 139
f 111 139 135
f 112 173 174
f 112 174 175
f 112 175 113
f 113 175 176
f 113 176 114
f 114 176 177
f 114 177 115
f 115 177 178
f 115 178 179
f 115 179 116
f 116 179 180
f 116 180 117
f 117 180 181
f 117 181 118
f 118 182 120
f 118 120 119
f 118 181 183
f 118 183 182
f 120 182 121
f 121 184 185
f 121 185 122
f 121 182 186
f 121 186 187
f 121 187 188
f 121 188 184
f 122 185 189
f 122 189 123
f 123 189 190
f 123 190 124
f 124 190 191
f 124 191 126
f 125 126 127
f 126 168 127
f 126 191 192
f 126 192 168
f 128 130 129
f 130 193 131
f 130 167 194
f 130 194 193
f 131 193 195
f 131 195 132
f 132 195 196
f 132 196 133
f 133 196 197
f 135 139 136
f 136 139 137
f 140 172 198
f 140 198 199
f 140 199 200
f 140 200 201
f 140 201 141
f 141 201 142
f 142 201 143
f 143 201 202
f 143 202 203
f 143 203 204
f 143 204 145
f 143 145 144
f 145 204 205
f 145 205 206
f 145 206 147
f 145 147 146
f 147 206 148
f 148 206 151
f 148 151 150
f 149 207 152
f 149 151 207
f 151 206 208
f 151 208 209
f 151 209 207
f 152 207 153
f 153 207 154
f 154 210 211
f 154 211 156
f 154 156 155
f 154 207 210
f 156 211 157
f 157 211 158
f 157 158 159
f 158 211 212
f 158 212 213
f 158 213 160
f 160 213 161
f 161 213 214
f 161 214 162
f 162 215 164
f 162 214 215
f 163 165 166
f 164 216 217
f 164 217 165
f 164 215 216
f 165 218 219
f 165 219 166
f 165 217 218
f 166 219 167
f 167 219 194
f 168 192 220
f 168 220 170
f 168 170 169
f 170 220 171
f 171 220 221
f 171 221 222
f 171 222 172
f 172 222 223
f 172 223 224
f 172 224 198
f 173 225 226
f 173 226 227
f 173 227 228
f 173 228 229
f 173 229 174
f 174 176 175
f 174 229 287
f 174 287 230
f 174 230 231
f 174 231 177
f 174 177 176
f 177 231 232
f 177 232 178
f 178 232 233
f 178 233 234
f 178 234 179
f 179 234 235
f 179 235 180
f 180 236 301
f 180 301 237
f 180 237 183
f 180 183 181
f 180 235 236
f 182 183 186
f 183 238 186
f 183 237 301
f 183 301 239
f 183 239 238
f 184 240 241
f 184 241 242
f 184 242 189
f 184 189 185
f 184 188 240
f 186 238 187
f 187 238 188
f 188 243 244
f 188 244 245
f 188 245 240
f 188 238 246
f 188 246 247
f 188 247 248
f 188 248 243
f 189 242 190
f 190 242 249
f 190 249 191
f 191 249 192
f 192 249 250
f 192 250 220
f 193 194 251
f 193 251 195
f 194 219 218
f 194 218 252
f 194 252 253
f 194 253 251
f 195 251 254
f 195 254 255
f 195 255 196
f 196 255 256
f 196 256 257
f 196 257 197
f 197 257 256
f 198 224 258
f 198 258 199
f 199 258 202
f 199 202 200
f 200 202 259
f 200 259 201
f 201 259 202
f 202 258 260
f 202 260 261
f 202 261 262
f 202 262 263
f 202 263 264
f 202 264 203
f 203 264 204
f 204 264 265
f 204 265 205
f 205 265 266
f 205 266 206
f 206 266 208
f 207 209 267
f 207 267 268
f 207 268 210
f 208 266 209
f 209 266 267
f 210 268 269
f 210 269 270
f 210 270 211
f 211 270 212
f 212 271 213
f 212 270 271
f 213 271 214
f 214 271 215
f 215 272 216
f 215 271 273
f 215 273 272
f 216 272 274
f 216 274 275
f 216 275 217
f 217 275 276
f 217 276 218
f 218 276 277
f 218 277 278
f 218 278 252
f 220 250 221
f 221 250 279
f 221 279 280
f 221 280 222
f 222 280 223
f 223 280 281
f 223 281 224
f 224 281 282
f 224 282 258
f 225 283 284
f 225 284 226
f 226 284 285
f 226 285 227
f 227 285 286
f 227 286 228
f 228 286 287
f 228 287 229
f 230 287 288
f 230 288 289
f 230 289 231
f 231 289 290
f 231 290 232
f 232 290 291
f 232 291 292
f 232 292 293
f 232 293 233
f 233 293 294
f 233 294 295
f 233 295 296
f 233 296 234
f 234 296 295
f 234 295 297
f 234 297 235
f 235 297 298
f 235 298 299
f 235 299 300
f 235 300 239
f 235 239 301
f 235 301 236
f 238 239 302
f 238 302 246
f 239 300 303
f 239 303 304
f 239 304 305
f 239 305 306
f 239 306 307
f 239 307 308
f 239 308 309
f 239 309 310
f 239 310 311
f 239 311 312
f 239 312 313
f 239 313 302
f 240 245 314
f 240 314 241
f 241 314 315
f 241 315 316
f 241 316 317
f 241 317 318
f 241 318 249
f 241 249 242
f 243 248 319
f 243 319 244
f 244 319 314
f 244 314 245
f 246 302 313
f 246 313 247
f 247 313 320
f 247 320 321
f 247 321 319
f 247 319 248
f 249 318 250
f 250 318 279
f 251 253 322
f 251 322 323
f 251 323 254
f 252 278 324
f 252 324 253
f 253 324 322
f 254 323 325
f 254 325 326
f 254 326 255
f 255 326 327
f 255 327 328
f 255 328 329
f 255 329 256
f 258 282 260
f 260 282 330
f 260 330 261
f 261 330 331
f 261 331 262
f 262 331 332
f 262 332 333
f 262 333 334
f 262 334 335
f 262 335 263
f 263 335 264
f 264 335 265
f 265 335 336
f 265 336 337
f 265 337 266
f 266 337 338
f 266 338 267
f 267 338 339
f 267 339 268
f 268 340 269
f 268 339 340
f 269 340 341
f 269 341 270
f 270 341 342
f 270 342 343
f 270 343 271
f 271 343 273
f 272 273 274
f 273 343 274
f 274 344 275
f 274 343 345
f 274 345 344
f 275 346 347
f 275 347 276
f 275 344 346
f 276 347 277
f 277 347 348
f 277 348 349
f 277 349 350
f 277 350 351
f 277 351 352
f 277 352 353
f 277 353 354
f 277 354 355
f 277 355 278
f 278 355 324
f 279 318 280
f 280 318 317
f 280 317 281
f 281 317 356
f 281 356 357
f 281 357 282
f 282 357 358
f 282 358 330
f 283 359 360
f 283 360 284
f 284 286 285
f 284 360 288
f 284 288 286
f 286 288 287
f 288 361 362
f 288 362 289
f 288 360 361
f 289 362 290
f 290 362 363
f 290 363 364
f 290 364 291
f 291 364 365
f 291 365 292
f 292 365 366
f 292 366 294
f 292 294 293
f 294 366 367
f 294 367 299
f 294 299 298
f 294 298 297
f 294 297 295
f 299 368 369
f 299 369 300
f 299 367 368
f 300 369 370
f 300 370 371
f 300 371 303
f 303 371 372
f 303 372 373
f 303 373 304
f 304 374 375
f 304 375 305
f 304 373 374
f 305 375 376
f 305 376 306
f 306 376 307
f 307 376 308
f 308 376 377
f 308 377 378
f 308 378 379
f 308 379 309
f 309 379 310
f 310 379 380
f 310 380 311
f 311 381 320
f 311 320 313
f 311 313 312
f 311 380 381
f 314 382 316
f 314 316 315
f 314 319 383
f 314 383 382
f 316 356 317
f 316 382 357
f 316 357 356
f 319 321 384
f 319 384 385
f 319 385 386
f 319 386 383
f 320 381 387
f 320 387 385
f 320 385 384
f 320 384 321
f 322 324 355
f 322 355 354
f 322 354 323
f 323 354 353
f 323 353 325
f 325 353 388
f 325 388 389
f 325 389 390
f 325 390 327
f 325 327 326
f 327 390 391
f 327 391 392
f 327 392 328
f 328 392 329
f 329 392 393
f 330 358 332
f 330 332 331
f 332 358 394
f 332 394 333
f 333 394 334
f 334 395 396
f 334 396 397
f 334 397 335
f 334 394 395
f 335 397 336
f 336 397 398
f 336 398 337
f 337 398 399
f 337 399 338
f 338 399 339
f 339 399 400
f 339 400 340
f 340 400 401
f 340 401 402
f 340 402 403
f 340 403 404
f 340 404 341
f 341 404 405
f 341 405 406
f 341 406 342
f 342 407 345
f 342 345 343
f 342 406 407
f 344 345 408
f 344 408 409
f 344 409 410
f 344 410 346
f 345 407 411
f 345 411 408
f 346 412 347
f 346 410 413
f 346 413 412
f 347 412 348
f 348 414 349
f 348 412 415
f 348 415 414
f 349 414 416
f 349 416 350
f 350 416 417
f 350 417 418
f 350 418 351
f 351 418 419
f 351 419 420
f 351 420 421
f 351 421 352
f 352 421 422
f 352 422 423
f 352 423 424
f 352 424 425
f 352 425 388
f 352 388 353
f 357 382 383
f 357 383 358
f 358 383 394
f 359 393 426
f 359 426 391
f 359 391 427
f 359 427 428
f 359 428 360
f 360 428 361
f 361 428 429
f 361 429 363
f 361 363 362
f 363 429 430
f 363 430 364
f 364 430 431
f 364 431 365
f 365 431 432
f 365 432 433
f 365 433 423
f 365 423 434
f 365 434 366
f 366 434 367
f 367 434 435
f 367 435 368
f 368 436 370
f 368 370 369
f 368 435 436
f 370 436 437
f 370 437 438
f 370 438 439
f 370 439 371
f 371 439 372
f 372 440 441
f 372 441 373
f 372 439 440
f 373 441 442
f 373 442 443
f 373 443 444
f 373 444 374
f 374 444 445
f 374 445 446
f 374 446 447
f 374 447 375
f 375 447 376
f 376 447 448
f 376 448 377
f 377 449 378
f 377 448 449
f 378 449 450
f 378 450 451
f 378 451 379
f 379 451 452
f 379 452 380
f 380 453 454
f 380 454 455
f 380 455 381
f 380 452 453
f 381 455 456
f 381 456 387
f 383 386 394
f 385 387 455
f 385 455 395
f 385 395 457
f 385 457 386
f 386 457 394
f 387 456 455
f 388 425 458
f 388 458 389
f 389 458 459
f 389 459 460
f 389 460 461
f 389 461 390
f 390 461 391
f 391 461 429
f 391 429 427
f 391 426 392
f 392 426 393
f 394 457 395
f 395 455 396
f 396 455 454
f 396 454 453
f 396 453 462
f 396 462 463
f 396 463 397
f 397 463 464
f 397 464 398
f 398 464 399
f 399 464 400
f 400 464 465
f 400 465 466
f 400 466 467
f 400 467 401
f 401 467 468
f 401 468 402
f 402 469 470
f 402 470 471
f 402 471 403
f 402 468 472
f 402 472 473
f 402 473 469
f 403 471 405
f 403 405 404
f 405 474 475
f 405 475 406
f 405 471 474
f 406 475 476
f 406 476 407
f 407 477 478
f 407 478 479
f 407 479 411
f 407 476 475
f 407 475 480
f 407 480 477
f 408 411 409
f 409 481 482
f 409 482 413
f 409 413 410
f 409 411 483
f 409 483 481
f 411 479 483
f 412 413 484
f 412 484 485
f 412 485 415
f 413 482 484
f 414 486 416
f 414 415 487
f 414 487 486
f 415 485 488
f 415 488 487
f 416 486 417
f 417 486 418
f 418 436 489
f 418 489 420
f 418 420 419
f 418 486 436
f 420 489 421
f 421 489 423
f 421 423 422
f 423 433 424
f 423 489 435
f 423 435 434
f 424 433 458
f 424 458 425
f 427 429 428
f 429 460 430
f 429 461 460
f 430 460 459
f 430 459 490
f 430 490 431
f 431 490 459
f 431 459 432
f 432 459 458
f 432 458 433
f 435 489 436
f 436 486 437
f 437 486 438
f 438 486 487
f 438 487 491
f 438 491 440
f 438 440 439
f 440 491 492
f 440 492 441
f 441 492 493
f 441 493 442
f 442 494 443
f 442 493 494
f 443 495 444
f 443 494 495
f 444 495 445
f 445 495 496
f 445 496 446
f 446 497 447
f 446 496 497
f 447 497 448
f 448 497 498
f 448 498 450
f 448 450 449
f 450 499 500
f 450 500 451
f 450 498 499
f 451 500 501
f 451 501 502
f 451 502 452
f 452 502 503
f 452 503 453
f 453 503 502
f 453 502 462
f 462 502 504
f 462 504 463
f 463 504 505
f 463 505 466
f 463 466 465
f 463 465 464
f 466 505 502
f 466 502 467
f 467 502 468
f 468 502 501
f 468 501 472
f 469 499 498
f 469 498 470
f 469 473 501
f 469 501 500
f 469 500 499
f 470 498 497
f 470 497 471
f 471 497 474
f 472 501 473
f 474 496 480
f 474 480 475
f 474 497 496
f 477 506 483
f 477 483 478
f 477 480 506
f 478 483 479
f 480 496 507
f 480 507 508
f 480 508 506
f 481 483 509
f 481 509 482
f 482 492 485
f 482 485 484
f 482 509 492
f 483 506 510
f 483 510 509
f 485 492 487
f 485 487 488
f 487 492 491
f 492 509 493
f 493 509 494
f 494 509 506
f 494 506 508
f 494 508 507
f 494 507 495
f 495 507 496
f 502 505 504
f 506 509 510

