# https://github.com/mikedh/trimesh
v -0.06815004 0.02261895 -0.03646107
v -0.06945902 0.01711527 -0.03672203
v -0.07073190 0.00834591 -0.03589689
v -0.06752829 0.02444723 -0.03650991
v -0.06559579 0.02974525 -0.03643347
v -0.06409574 0.03319272 -0.03642496
v 0.02037205 -0.06833496 -0.03592514
v 0.02225629 -0.06830218 -0.03566083
v 0.02460391 -0.06752648 -0.03641246
v -0.05226162 0.04923586 -0.03673241
v -0.05647909 0.04504194 -0.03668141
v -0.04510103 0.05629491 -0.03674815
v 0.04129438 -0.05942309 -0.03693829
v 0.03917831 -0.06059333 -0.03695976
v 0.03616124 -0.06245901 -0.03697709
v 0.03116388 -0.06496735 -0.03692267
v 0.02742036 -0.06572928 -0.03698926
v 0.04562739 -0.05599988 -0.03684603
v 0.05186219 -0.04982558 -0.03686885
v 0.05675388 -0.04473803 -0.03678435
v 0.05840443 -0.04264159 -0.03679179
v 0.02883987 -0.06594010 -0.03678421
v 0.02386001 -0.06706467 -0.03688095
v 0.02251176 -0.06760593 -0.03675037
v 0.04445374 -0.05713283 -0.03677037
v 0.06495950 -0.02941657 -0.03692579
v 0.06052158 -0.03924838 -0.03678226
v 0.05953560 -0.04097192 -0.03677871
v 0.06889525 -0.01811022 -0.03694822
v 0.06910640 -0.01567775 -0.03691142
v 0.06950840 -0.01434137 -0.03683176
v 0.07007234 -0.01165330 -0.03657957
v 0.07036016 -0.00862415 -0.03650771
v 0.07077571 -0.00733039 -0.03593342
v -0.07062299 -0.00894851 -0.03605411
v -0.06947831 -0.01691367 -0.03628132
v -0.07059699 -0.00724970 -0.03611300
v -0.06924096 -0.01732874 -0.03666597
v -0.06850669 -0.02092132 -0.03680070
v -0.06881082 -0.02058507 -0.03626781
v -0.06925329 -0.01601008 -0.03689009
v -0.06703247 -0.02625518 -0.03639034
v -0.06435281 -0.03271705 -0.03636922
v -0.06369028 -0.03396196 -0.03642299
v 0.02038539 0.06878247 -0.03540309
v -0.05514527 -0.04687423 -0.03633977
v -0.05691660 -0.04445412 -0.03682481
v -0.05347175 -0.04837464 -0.03676727
v -0.05611727 -0.04582742 -0.03630410
v -0.05303046 -0.04912223 -0.03628317
v -0.04993661 -0.05195385 -0.03677570
v -0.03441967 -0.06379510 -0.03635177
v -0.03389274 -0.06372639 -0.03690206
v -0.03157938 -0.06492685 -0.03679480
v -0.03592010 -0.06296037 -0.03634713
v -0.03698685 -0.06208789 -0.03687340
v -0.04194507 -0.05915186 -0.03681940
v -0.02750553 -0.06652987 -0.03674972
v -0.02893469 -0.06621024 -0.03634306
v -0.03020152 -0.06568279 -0.03644308
v -0.02306914 -0.06817004 -0.03604282
v -0.04394283 -0.05767020 -0.03674431
v -0.04553701 -0.05649641 -0.03632800
v -0.02435156 -0.06756901 -0.03662929
v -0.02182827 -0.06825554 -0.03644348
v -0.04912256 -0.05302218 -0.03629787
v -0.05794415 -0.04350358 -0.03631855
v -0.06298454 -0.03526084 -0.03640971
v -0.05870756 -0.04206506 -0.03679014
v -0.04789185 -0.05394171 -0.03685237
v -0.04610939 -0.05573096 -0.03679786
v -0.06659984 -0.02681490 -0.03680153
v -0.06587616 -0.02870209 -0.03683621
v -0.06559133 -0.03007295 -0.03635040
v -0.06765389 -0.02453155 -0.03640694
v -0.06467224 -0.03132836 -0.03689309
v -0.06493552 -0.03146573 -0.03637902
v -0.06803900 -0.02238320 -0.03688639
v -0.06820296 -0.02302952 -0.03634118
v -0.06255603 -0.03546911 -0.03685796
v -0.06186745 -0.03715368 -0.03647549
v -0.06036505 -0.03938703 -0.03682696
v -0.06063538 -0.03948872 -0.03632296
v -0.05988856 -0.04077057 -0.03636631
v -0.05896484 -0.04069565 -0.03687840
v -0.06398342 -0.03184410 -0.03691396
v -0.06522352 -0.02891774 -0.03691283
v -0.05708094 -0.04355998 -0.03686805
v -0.04510924 -0.05634763 -0.03693914
v -0.04104091 -0.05932032 -0.03700000
v -0.03672156 -0.06192465 -0.03696734
v -0.03067023 -0.06495145 -0.03695455
v -0.02756635 -0.06631026 -0.03687660
v -0.02456915 -0.06691309 -0.03685815
v -0.06955220 -0.01283475 -0.03683520
v -0.02224200 -0.06769248 -0.03670937
v -0.07012209 -0.01060367 -0.03672282
v -0.07020455 -0.00864492 -0.03662862
v -0.03966844 -0.06058124 -0.03680764
v -0.06994260 -0.01289276 -0.03662098
v -0.02703066 -0.06691034 -0.03621413
v 0.02667431 0.06628324 -0.03673228
v 0.03099934 0.06485958 -0.03674744
v 0.03314635 0.06376748 -0.03680337
v 0.02296939 0.06775993 -0.03641503
v 0.04115147 0.05889542 -0.03687655
v 0.04520533 0.05593322 -0.03684712
v 0.02413118 0.06767909 -0.03638427
v 0.02213375 0.06825796 -0.03609195
v 0.06031437 0.03969510 -0.03661391
v 0.06072133 0.03859734 -0.03678062
v 0.05907242 0.04147353 -0.03673279
v 0.06210517 0.03609895 -0.03680831
v 0.05830130 0.04289861 -0.03657953
v 0.05625605 0.04533303 -0.03670068
v 0.05534220 0.04673654 -0.03642259
v 0.05180749 0.04993617 -0.03674323
v 0.05150031 0.05067650 -0.03632306
v 0.05045887 0.05131992 -0.03675199
v 0.04919434 0.05253155 -0.03677998
v 0.04658339 0.05505688 -0.03679718
v 0.04682986 0.05523969 -0.03626433
v 0.04547812 0.05617818 -0.03676431
v 0.05893259 0.04225382 -0.03620820
v 0.04368186 0.05762489 -0.03683643
v 0.04173463 0.05907833 -0.03677530
v 0.03957154 0.06039687 -0.03684455
v 0.03828114 0.06094505 -0.03686491
v 0.06883654 0.01920132 -0.03667836
v 0.06952435 0.01484376 -0.03670178
v 0.06907271 0.01565673 -0.03680330
v 0.06802931 0.02172987 -0.03677905
v 0.07013189 0.01089968 -0.03660982
v 0.06741298 0.02367455 -0.03684393
v 0.06602795 0.02752304 -0.03688090
v 0.06506703 0.02960718 -0.03687541
v 0.06451101 0.03140412 -0.03683778
v 0.06793539 0.02315537 -0.03656674
v -0.04122397 0.05918809 -0.03682143
v -0.03966006 0.05990720 -0.03685331
v -0.04288532 0.05780429 -0.03681009
v -0.03685055 0.06175829 -0.03684303
v -0.02811832 0.06587366 -0.03681221
v -0.02981877 0.06520363 -0.03683483
v -0.03165123 0.06472998 -0.03655123
v -0.03201288 0.06427102 -0.03680724
v -0.03362455 0.06375875 -0.03662833
v -0.03516999 0.06301185 -0.03645684
v -0.03749694 0.06170243 -0.03648160
v -0.02532037 0.06677224 -0.03671561
v -0.02308934 0.06779372 -0.03644036
v -0.04777223 0.05378534 -0.03676394
v -0.04818877 0.05372387 -0.03635314
v -0.05038326 0.05154068 -0.03636305
v -0.04596388 0.05572802 -0.03643449
v -0.05356959 0.04833638 -0.03633265
v -0.05842706 0.04307919 -0.03631643
v -0.04294789 0.05822514 -0.03639531
v -0.05959510 0.04123591 -0.03634008
v -0.06303254 0.03510319 -0.03641670
v -0.06270397 0.03512337 -0.03675603
v -0.06403995 0.03257089 -0.03676794
v -0.06502195 0.03117263 -0.03649354
v -0.06088768 0.03826030 -0.03678300
v -0.06048201 0.03961126 -0.03644917
v -0.05917118 0.04132134 -0.03673377
v -0.05800797 0.04327389 -0.03667503
v -0.06515391 0.02985957 -0.03682015
v -0.06664801 0.02681921 -0.03657738
v -0.06633448 0.02668878 -0.03683480
v -0.06724010 0.02401535 -0.03683819
v -0.06790426 0.02227943 -0.03682177
v -0.06885463 0.02016010 -0.03654200
v -0.06861701 0.01978047 -0.03683635
v -0.06897478 0.01737551 -0.03689900
v -0.06951140 0.01407476 -0.03685606
v -0.07001858 0.01197454 -0.03663539
v -0.02195002 0.06833898 -0.03588367
v -0.02422907 0.06775995 -0.03591427
v -0.02619291 0.06705807 -0.03601424
v -0.02943520 0.06573664 -0.03637271
v -0.04027769 0.06017753 -0.03631212
v -0.02689774 0.06654742 -0.03664704
v -0.03876118 0.06084704 -0.03676557
v -0.05519407 0.04663360 -0.03641168
v -0.05186549 0.04987626 -0.03658885
v 0.02626181 -0.06704947 -0.03641288
v 0.02814315 -0.06639897 -0.03632410
v 0.02995844 -0.06569256 -0.03633811
v 0.03651844 -0.06254647 -0.03633716
v 0.04102636 -0.05988607 -0.03626648
v 0.03278618 -0.06430821 -0.03682276
v 0.02705021 -0.06651139 -0.03686916
v 0.07085483 0.00801483 -0.03583870
v 0.06948141 0.01710407 -0.03602867
v 0.06826983 0.02260328 -0.03606741
v 0.06749518 0.02515240 -0.03592927
v 0.06529939 0.03057882 -0.03635461
v 0.06602010 0.02846658 -0.03653759
v 0.06686685 0.02629402 -0.03651291
v 0.07034796 0.00811195 -0.03647208
v 0.06406845 0.03313692 -0.03649784
v 0.06355274 0.03367076 -0.03680139
v 0.06283561 0.03552575 -0.03639323
v 0.06192566 0.03701534 -0.03650094
v 0.04885035 0.05328806 -0.03639376
v 0.04494895 0.05686821 -0.03622813
v 0.04357331 0.05798087 -0.03630323
v 0.04118592 0.05972520 -0.03625758
v 0.03668068 0.06242303 -0.03632494
v 0.03743875 0.06171254 -0.03675108
v 0.03894533 0.06110445 -0.03632089
v 0.03953376 0.06061896 -0.03660690
v 0.03505719 0.06329914 -0.03628137
v 0.03320083 0.06423551 -0.03632928
v 0.03134994 0.06511376 -0.03628731
v 0.02963148 0.06574723 -0.03639532
v 0.02783706 0.06647986 -0.03628967
v 0.02538782 0.06737588 -0.03626413
v 0.03520534 0.06291045 -0.03674338
v 0.02794509 0.06605937 -0.03675055
v 0.02510950 0.06713373 -0.03660848
v 0.05656012 0.04546003 -0.03634082
v 0.06117176 0.03863450 -0.03608828
v 0.06827693 -0.02221519 -0.03645898
v 0.06745115 -0.02477818 -0.03649095
v 0.05195931 -0.05008707 -0.03634605
v 0.05551157 -0.04605501 -0.03680597
v 0.04877270 -0.05300983 -0.03681830
v 0.04947413 -0.05261027 -0.03633179
v 0.04674697 -0.05528220 -0.03630488
v 0.05474692 -0.04722627 -0.03630672
v 0.05809727 -0.04346867 -0.03630509
v 0.05754133 -0.04390247 -0.03675897
v 0.06580139 -0.02936605 -0.03636544
v 0.06525965 -0.03069442 -0.03633677
v 0.06477477 -0.03117505 -0.03687343
v 0.06620435 -0.02774630 -0.03682471
v 0.06756627 -0.02346879 -0.03691726
v 0.06897777 -0.01950452 -0.03661354
v 0.04209598 -0.05908654 -0.03639543
v 0.06423294 -0.03305239 -0.03629168
v 0.06305482 -0.03470200 -0.03676482
v 0.06287657 -0.03549803 -0.03632156
v 0.06203043 -0.03648922 -0.03682035
v 0.06121821 -0.03848111 -0.03635616
v 0.03941407 -0.06078212 -0.03680014
v 0.05662190 -0.04521968 -0.03630067
v 0.06960763 -0.01634604 -0.03658589
v 0.06864821 -0.01964229 -0.03694818
v 0.05989377 -0.04089536 -0.03631984
v -0.01026868 0.00688172 0.03692961
v -0.01288903 -0.00185977 0.03688422
v -0.01134914 -0.00672451 0.03684939
v -0.00608936 -0.01200231 0.03679599
v 0.00145198 -0.01214426 0.03678357
v 0.00873296 -0.00612852 0.03682454
v 0.00966651 -0.00934275 0.03677994
v 0.01318737 -0.00416427 0.03679416
v 0.01023686 0.00090534 0.03689892
v -0.00773936 0.01080372 0.03695474
v -0.00282192 0.01116144 0.03700000
v 0.00682492 0.01093888 0.03694112
v 0.01111406 0.00703630 0.03687503
v 0.00444057 0.01320121 0.03694848
v -0.00070139 0.01399414 0.03699792
v 0.01393056 0.00058121 0.03680654
v -0.00427644 0.01360671 0.03695899
v -0.01287888 0.00299178 0.03688616
v -0.01092390 -0.00979920 0.03677483
v 0.00684750 -0.01268920 0.03670096
v -0.00051648 -0.01449611 0.03665501
v -0.01269587 -0.00775185 0.03676310
v 0.01077016 0.00999565 0.03679493
v 0.00825081 0.01240437 0.03681508
v 0.01298403 0.00660745 0.03677354
v -0.01196350 0.00762315 0.03685482
v -0.00869528 0.01174793 0.03687104
v 0.01171236 -0.00907702 0.03666767
v -0.00345010 -0.01442282 0.03662624
v -0.01468818 -0.00059565 0.03674988
v -0.00790713 -0.01295307 0.03664869
v 0.00051969 0.01545402 0.03683681
v -0.01467985 0.00317806 0.03670063
v -0.00600182 -0.01397159 0.03656626
v 0.01489412 -0.00274443 0.03660268
v 0.00355434 -0.01446620 0.03654470
v -0.00634619 0.01408041 0.03675855
v 0.01507677 0.00211193 0.03659817
v 0.01443375 -0.00501780 0.03654828
v -0.01431545 -0.00565632 0.03659780
v -0.00985095 -0.01191708 0.03659322
v 0.01003988 -0.01167133 0.03649386
v -0.00280700 0.01531801 0.03674474
v -0.01415324 0.00549918 0.03664463
v 0.00529300 0.01453455 0.03668759
v -0.01173772 0.00996909 0.03664434
v -0.01310479 0.00812311 0.03657258
v 0.00665455 -0.01373542 0.03651017
v -0.01509084 -0.00197304 0.03659901
v -0.01186480 -0.01011358 0.03656614
v 0.01439858 0.00508777 0.03655759
v 0.01265878 0.00864127 0.03658951
v -0.00945345 0.01242236 0.03662364
v 0.01247404 -0.00917233 0.03644349
v 0.01580136 -0.00109702 0.03632788
v 0.00901379 0.01263094 0.03659132
v 0.00221350 0.01605399 0.03646440
v -0.01603105 0.00055466 0.03618704
v -0.01370857 -0.00850694 0.03623866
v 0.01436958 -0.00685120 0.03618977
v 0.00361792 -0.01536929 0.03612738
v -0.00001883 0.01629400 0.03642971
v 0.01541834 -0.00446596 0.03614892
v 0.01543230 0.00461395 0.03612307
v -0.01529598 -0.00501513 0.03618236
v 0.01637020 0.00104052 0.03596170
v 0.01409210 0.00777910 0.03609143
v -0.01566928 0.00370435 0.03612019
v 0.00532680 0.01535756 0.03626853
v -0.01414892 0.00759173 0.03618377
v -0.00510224 0.01552150 0.03623579
v -0.01070903 -0.01219568 0.03614682
v 0.01027567 -0.01233149 0.03609776
v 0.00912826 0.01333419 0.03620556
v 0.01282982 -0.00974700 0.03604397
v -0.01612495 -0.00179643 0.03599491
v -0.01256498 -0.01042359 0.03610040
v -0.00760351 0.01454352 0.03611192
v 0.04897483 0.06305829 -0.00865708
v 0.04864875 0.06398601 -0.01014515
v 0.05221742 0.06038641 -0.00883436
v 0.05526917 0.05829449 -0.01014059
v 0.05391047 0.05866475 -0.00844209
v 0.05607362 0.05653869 -0.00830967
v 0.05770468 0.05590574 -0.01022232
v 0.05760752 0.05503866 -0.00840529
v 0.05931426 0.05293639 -0.00808293
v 0.06052960 0.05189080 -0.00854820
v 0.06329907 0.04882743 -0.00915164
v 0.06256373 0.04876996 -0.00781121
v 0.05100451 0.06075956 -0.00789490
v 0.05455658 0.05709529 -0.00734956
v 0.06461277 0.04779322 -0.01032380
v 0.04564578 0.06544058 -0.00852123
v 0.04552168 0.06621844 -0.00999599
v 0.04356243 0.06696595 -0.00874629
v 0.04249431 0.06819218 -0.01020889
v 0.04140152 0.06816634 -0.00853825
v 0.03887644 0.06973438 -0.00869470
v 0.03598113 0.07188971 -0.01031078
v 0.05287327 0.05766349 -0.00645813
v 0.04518802 0.06480934 -0.00730871
v 0.04791772 0.06275758 -0.00728762
v 0.04070750 0.06762219 -0.00729305
v 0.05634766 0.05471262 -0.00677132
v 0.03548281 0.07053214 -0.00725236
v 0.03451976 0.07197956 -0.00857234
v 0.05042085 0.05947427 -0.00620768
v 0.04690941 0.06260426 -0.00639627
v 0.04246506 0.06568770 -0.00641549
v 0.03031588 0.07292265 -0.00730565
v 0.03179459 0.07322007 -0.00862579
v 0.02868103 0.07443171 -0.00844901
v 0.03704844 0.06881841 -0.00636847
v 0.03953986 0.06743087 -0.00642338
v 0.02615999 0.07443820 -0.00716434
v 0.04499705 0.06314384 -0.00561776
v 0.04698516 0.06167261 -0.00560271
v 0.04264532 0.06473744 -0.00562579
v 0.04830305 0.06047065 -0.00555083
v 0.04126488 0.06554473 -0.00561975
v 0.03973562 0.06643667 -0.00562902
v 0.03816375 0.06729634 -0.00561597
v 0.04948300 0.05930067 -0.00547297
v 0.05117364 0.05805577 -0.00559742
v 0.05295028 0.05637502 -0.00558755
v 0.05495099 0.05437291 -0.00555477
v 0.03606739 0.06840094 -0.00561331
v 0.03358201 0.06965067 -0.00560251
v 0.05696994 0.05222593 -0.00552389
v 0.03110950 0.07075055 -0.00562091
v 0.02866800 0.07179437 -0.00560871
v 0.05414946 0.05580688 -0.00597985
v 0.05645585 0.05348335 -0.00597113
v 0.03408189 0.07042836 -0.00643978
v 0.03110488 0.07175080 -0.00640990
v 0.02727172 0.07328780 -0.00637832
v 0.02309606 0.07474055 -0.00642553
v 0.01973014 0.07565193 -0.00637864
v 0.01562119 0.07687430 -0.00659809
v 0.01147733 0.07740052 -0.00641265
v 0.00644181 0.07829573 -0.00658912
v 0.01436050 0.07775541 -0.00733835
v 0.02288442 0.07562016 -0.00734291
v 0.01842474 0.07681918 -0.00732166
v 0.01077141 0.07858302 -0.00768258
v 0.01593885 0.07811195 -0.00829507
v 0.01405580 0.07865335 -0.00863709
v 0.01176279 0.07633196 -0.00551733
v 0.02321728 0.07633257 -0.00857218
v 0.02132618 0.07434875 -0.00561694
v 0.01918368 0.07492915 -0.00557287
v 0.02346871 0.07367483 -0.00560527
v 0.02710745 0.07245362 -0.00561086
v 0.02542836 0.07307255 -0.00561230
v 0.06804436 0.04036942 -0.00763137
v 0.06919782 0.03874867 -0.00787995
v 0.06749347 0.04270446 -0.00899113
v 0.06653295 0.04321228 -0.00793648
v 0.07104011 0.03750808 -0.01004410
v 0.07032489 0.03728049 -0.00839884
v 0.06467659 0.04608418 -0.00802155
v 0.06524612 0.04609200 -0.00901602
v 0.07126480 0.03503601 -0.00801604
v 0.07338157 0.03137741 -0.00871479
v 0.07323084 0.03330971 -0.01029225
v 0.06908385 0.04103422 -0.01043893
v 0.07425615 0.03086619 -0.01022307
v 0.07424224 0.02835717 -0.00802293
v 0.07547933 0.02569311 -0.00854604
v 0.07326810 0.03047976 -0.00786213
v 0.07179238 0.03272355 -0.00733960
v 0.07696177 0.02146944 -0.00901000
v 0.07558155 0.02398886 -0.00777415
v 0.07692564 0.01951682 -0.00786236
v 0.07803446 0.01664818 -0.00864221
v 0.07823969 0.01403422 -0.00784204
v 0.07925758 0.01323440 -0.01010155
v 0.07879635 0.01090846 -0.00786235
v 0.06417069 0.04535077 -0.00680756
v 0.07208314 0.03027996 -0.00653595
v 0.07427025 0.02437454 -0.00646713
v 0.07910148 0.00797914 -0.00777238
v 0.07133038 0.02905628 -0.00546976
v 0.06907481 0.03633818 -0.00638373
v 0.07055968 0.03857903 -0.01099798
v 0.06710584 0.04004322 -0.00647675
v 0.07563637 0.02002396 -0.00651578
v 0.07676660 0.01567105 -0.00653789
v 0.07749737 0.01217261 -0.00653805
v 0.06127394 0.04853308 -0.00631244
v 0.07796052 0.00832802 -0.00647947
v 0.06305687 0.04557592 -0.00595897
v 0.06551710 0.04082148 -0.00553665
v 0.07335167 0.02350854 -0.00544041
v 0.06955016 0.03293520 -0.00542825
v 0.07402071 0.02112279 -0.00533141
v 0.05824707 0.05249937 -0.00663703
v 0.06801591 0.03601626 -0.00541696
v 0.07592942 0.01435556 -0.00550118
v 0.07820073 0.00470085 -0.00644258
v 0.07938768 0.00390222 -0.00778407
v 0.06231984 0.04554578 -0.00542528
v 0.06164737 0.04553904 -0.00506137
v 0.07678508 0.00880217 -0.00549673
v 0.05944417 0.04966604 -0.00565391
v 0.07718188 0.00386723 -0.00551159
v 0.07728715 -0.00145565 -0.00548496
v 0.07828564 -0.00036791 -0.00639692
v 0.00817732 0.07994365 -0.01367395
v 0.00563529 0.07990554 -0.01461283
v 0.01151032 0.07967477 -0.01294589
v 0.01479469 0.07865096 -0.01466091
v 0.01538826 0.07893443 -0.01316309
v 0.01305057 0.07868709 -0.01534181
v 0.01933794 0.07807030 -0.01274456
v 0.02082220 0.07716671 -0.01454213
v 0.02448117 0.07636567 -0.01363397
v 0.02593768 0.07609943 -0.01282775
v 0.02852775 0.07518166 -0.01287473
v 0.00670115 0.07940872 -0.01556372
v 0.00439658 0.08031000 -0.01289759
v 0.00685277 0.08020508 -0.01259061
v 0.01413010 0.07926871 -0.01122693
v 0.02380688 0.07680884 -0.01112716
v 0.01890861 0.07819430 -0.01120387
v -0.00011971 0.08029905 -0.01365058
v -0.00488790 0.08012066 -0.01368455
v -0.00052716 0.08039836 -0.01271352
v -0.00483064 0.08028327 -0.01263233
v 0.01026743 0.07981466 -0.01093531
v 0.02757608 0.07557924 -0.01105373
v 0.00524508 0.08025158 -0.01076771
v 0.00847974 0.07991021 -0.00995020
v -0.00017629 0.08036215 -0.01045542
v 0.01660478 0.07862136 -0.00997906
v 0.03247647 0.07360001 -0.01112975
v 0.01284265 0.07933717 -0.00998232
v 0.02437774 0.07656231 -0.01021209
v 0.01982202 0.07781447 -0.00992871
v -0.00917732 0.07988648 -0.01304949
v -0.00456694 0.08025514 -0.00999097
v 0.02844109 0.07518589 -0.01011437
v 0.00478705 0.08014465 -0.00976123
v -0.00826066 0.08003145 -0.01136609
v -0.00830709 0.07996899 -0.00979553
v 0.03255770 0.07346671 -0.01011905
v -0.00076880 0.08010298 -0.00905320
v -0.01193506 0.07955906 -0.01000981
v -0.01413317 0.07926451 -0.01157633
v 0.00539312 0.07982425 -0.00882152
v -0.01294338 0.07937011 -0.01295219
v -0.01543392 0.07898844 -0.01001914
v -0.00658927 0.07967243 -0.00836261
v 0.00861192 0.07937142 -0.00851360
v -0.01356055 0.07914453 -0.00910934
v 0.02583433 0.07558369 -0.00866762
v 0.01945339 0.07733344 -0.00844092
v -0.01735619 0.07853626 -0.01300313
v -0.01800884 0.07846383 -0.01131071
v -0.01805279 0.07840884 -0.00994450
v -0.00066068 0.07975122 -0.00814640
v -0.01065539 0.07921766 -0.00827993
v 0.00476533 0.07934745 -0.00780447
v 0.03660129 0.07091681 -0.00855947
v -0.02318122 0.07698517 -0.01122636
v -0.01787786 0.07780359 -0.00770473
v -0.01174441 0.07868493 -0.00755177
v -0.00049392 0.07916422 -0.00721341
v -0.02293599 0.07694740 -0.01323675
v -0.02564086 0.07618208 -0.01284179
v -0.01183613 0.07919095 -0.01437430
v -0.01446322 0.07861663 -0.01474637
v -0.02811286 0.07536198 -0.01279123
v -0.03074733 0.07427893 -0.01257986
v -0.03272981 0.07341956 -0.01126812
v -0.02071104 0.07723425 -0.01441761
v -0.02477139 0.07593456 -0.01462453
v -0.02803405 0.07486535 -0.01455858
v -0.03322886 0.07311813 -0.01314236
v -0.03170128 0.07339607 -0.01453658
v 0.07644042 -0.02044069 -0.00755586
v 0.07792265 -0.01715180 -0.00875089
v 0.07788735 -0.01572465 -0.00784530
v 0.07627655 -0.02226218 -0.00807391
v 0.07723012 -0.02167711 -0.00992430
v 0.07562071 -0.02571163 -0.00894483
v 0.07648627 -0.02456602 -0.01031709
v 0.07394894 -0.02953455 -0.00836795
v 0.07440796 -0.02704167 -0.00767515
v 0.07548647 -0.02327411 -0.00732365
v 0.07297112 -0.03284165 -0.00916814
v 0.07294501 -0.03088064 -0.00761348
v 0.07163061 -0.03441581 -0.00804948
v 0.07336502 -0.03293206 -0.01027838
v 0.07034425 -0.03791464 -0.00903591
v 0.06989101 -0.03731208 -0.00771898
v 0.06813637 -0.04070759 -0.00788019
v 0.07058106 -0.03841689 -0.01018483
v 0.06734783 -0.04298531 -0.00891762
v 0.06766627 -0.04343809 -0.01027054
v 0.06554199 -0.04377345 -0.00701435
v 0.06514952 -0.04543763 -0.00793625
v 0.07023333 -0.03502315 -0.00673632
v 0.06743638 -0.04059500 -0.00698490
v 0.07275555 -0.02877372 -0.00649790
v 0.07156743 -0.03181667 -0.00657256
v 0.06328251 -0.04793830 -0.00777517
v 0.06491042 -0.04732173 -0.01004081
v 0.05946931 -0.05280949 -0.00811186
v 0.07103713 -0.03770032 -0.01072545
v 0.07859940 -0.01613528 -0.01006830
v 0.07847572 -0.01443265 -0.00854474
v 0.07744621 -0.02111967 -0.01023182
v 0.07926566 -0.01242535 -0.00995722
v 0.07882902 -0.01035111 -0.00775737
v 0.07972663 -0.00697865 -0.00917591
v 0.07922896 -0.00650032 -0.00772086
v 0.07033281 -0.03191067 -0.00557891
v 0.07190271 -0.02807648 -0.00555695
v 0.07757962 -0.01287024 -0.00668336
v 0.07680717 -0.01616434 -0.00664733
v 0.07486620 -0.02190725 -0.00620387
v 0.07414131 -0.02194249 -0.00559253
v 0.06338227 -0.04577517 -0.00629687
v 0.06065209 -0.04970019 -0.00655922
v 0.06753199 -0.03781259 -0.00567971
v 0.07793066 -0.00890742 -0.00644201
v 0.07819841 -0.00629373 -0.00643569
v 0.06839836 -0.03589293 -0.00557625
v 0.07586139 -0.01514760 -0.00554592
v 0.06205208 -0.04640416 -0.00560910
v 0.07943713 -0.00046305 -0.00773850
v 0.07701208 -0.00785453 -0.00547818
v 0.07983861 0.00843294 -0.00988413
v 0.06801175 -0.04302050 -0.01169389
v 0.07332553 -0.03317378 -0.01240404
v 0.07054872 -0.03860179 -0.01269678
v 0.07050617 -0.03843067 -0.01348750
v -0.07605030 0.02386989 -0.00867264
v -0.07464316 0.02884591 -0.00927954
v -0.07633377 0.02499787 -0.01024986
v -0.07765627 0.02035523 -0.01023494
v -0.07738702 0.02020724 -0.00934825
v -0.07780942 0.01641791 -0.00808070
v -0.07623860 0.02168366 -0.00777542
v -0.07865058 0.01296540 -0.00849840
v -0.07391268 0.02887706 -0.00790514
v -0.07766057 0.01582188 -0.00757782
v -0.07918069 0.01326592 -0.01013717
v -0.07406996 0.02769059 -0.00754191
v -0.07222362 0.03267153 -0.00786176
v -0.07248490 0.03344266 -0.00897660
v -0.07086415 0.03540112 -0.00780243
v -0.06956573 0.03813915 -0.00805988
v -0.06887600 0.04046002 -0.00925374
v -0.06812646 0.04049118 -0.00787523
v -0.06633616 0.04419262 -0.00869000
v -0.07191847 0.03171164 -0.00695357
v -0.06627409 0.04330071 -0.00766534
v -0.06833268 0.03886846 -0.00699454
v -0.07442120 0.02388540 -0.00642118
v -0.07568352 0.02001002 -0.00651080
v -0.07723047 0.01568245 -0.00700236
v -0.07300837 0.02812346 -0.00651854
v -0.06822489 0.04229453 -0.01027019
v -0.06331003 0.04822439 -0.00816717
v -0.06471962 0.04509659 -0.00718687
v -0.06285802 0.04748097 -0.00685688
v -0.06540761 0.04314315 -0.00655121
v -0.06966918 0.03542089 -0.00647519
v -0.06153248 0.05030265 -0.00793351
v -0.06083165 0.04961750 -0.00639203
v -0.06818429 0.03771050 -0.00621395
v -0.06357348 0.04456437 -0.00576121
v -0.07076794 0.03144397 -0.00575483
v -0.07601218 0.01533856 -0.00567260
v -0.07163079 0.02889106 -0.00557848
v -0.06578541 0.04056579 -0.00559892
v -0.06838307 0.03586496 -0.00560259
v -0.05931973 0.05272842 -0.00774771
v -0.07363807 0.02326766 -0.00555956
v -0.07468143 0.01982970 -0.00556091
v -0.06059792 0.05204897 -0.00876986
v -0.05766282 0.05514799 -0.00846085
v -0.05762233 0.05367056 -0.00682572
v -0.05849866 0.05156084 -0.00592682
v -0.06056228 0.04870285 -0.00568361
v -0.06063887 0.04699589 -0.00504070
v -0.05597828 0.05249521 -0.00503972
v -0.05318790 0.05700333 -0.00599663
v -0.05300914 0.05536786 -0.00502937
v -0.05560345 0.05524158 -0.00638507
v -0.07714003 -0.00011081 -0.00548416
v -0.07717037 -0.00419806 -0.00554852
v -0.04871143 0.06000297 -0.00556471
v -0.04367533 0.06383782 -0.00558672
v -0.03905218 0.06664741 -0.00554618
v -0.03581829 0.06860539 -0.00561916
v -0.03049972 0.07092550 -0.00553007
v -0.01985397 0.07491745 -0.00553979
v -0.01523810 0.07599858 -0.00553902
v -0.00000178 0.07694422 -0.00515333
v 0.00411560 0.07669161 -0.00508462
v -0.01010993 0.07675721 -0.00551414
v -0.04551731 0.06500586 -0.00793024
v -0.04587557 0.06547676 -0.00916581
v -0.04828693 0.06333579 -0.00842620
v -0.04855569 0.06392301 -0.01004024
v -0.05107875 0.06100978 -0.00822397
v -0.05326885 0.05921253 -0.00828624
v -0.05571944 0.05788293 -0.00994724
v -0.04231886 0.06760848 -0.00874707
v -0.04402130 0.06716634 -0.01020494
v -0.04061835 0.06923372 -0.01014338
v -0.04032986 0.06869237 -0.00856818
v -0.03620948 0.07084143 -0.00834351
v -0.04349027 0.06561013 -0.00696072
v -0.04035859 0.06760386 -0.00702233
v -0.03290561 0.07321213 -0.01002631
v -0.03049689 0.07348956 -0.00843592
v -0.02785405 0.07512157 -0.00952241
v -0.02793448 0.07536716 -0.01036577
v -0.02731412 0.07454504 -0.00810410
v -0.03577050 0.07009315 -0.00701025
v -0.02362821 0.07650212 -0.00937931
v -0.02062242 0.07727788 -0.00866696
v -0.02331318 0.07687572 -0.01024338
v -0.01735997 0.07821321 -0.00834491
v -0.02012886 0.07655788 -0.00709699
v -0.03350727 0.07070794 -0.00649393
v -0.03033344 0.07237054 -0.00680884
v -0.04770301 0.06257459 -0.00692617
v -0.04643275 0.06293842 -0.00636440
v -0.05270378 0.05841050 -0.00679422
v -0.04135390 0.06605958 -0.00610917
v -0.01741133 0.07721553 -0.00683922
v -0.02043874 0.07550759 -0.00611562
v -0.01461785 0.07775267 -0.00686838
v -0.01511356 0.07851734 -0.00804205
v -0.01677414 0.07673886 -0.00625516
v -0.00971102 0.07757319 -0.00608400
v -0.00546929 0.07745442 -0.00566563
v -0.00088747 0.07841008 -0.00626506
v -0.00759066 0.07853754 -0.00674831
v 0.00279962 0.07818126 -0.00613696
v 0.00516589 0.07773466 -0.00592120
v 0.00758053 0.07674580 -0.00543509
v 0.01633583 0.07563440 -0.00559687
v -0.00533608 0.07918715 -0.00741931
v 0.05301337 -0.06035742 -0.01003809
v 0.04877435 -0.06385059 -0.01013338
v 0.05254641 -0.06085422 -0.01139183
v 0.04920256 -0.06359457 -0.01317087
v 0.05284550 -0.06057850 -0.01304267
v 0.04618029 -0.06587514 -0.01224942
v 0.04578970 -0.06599205 -0.01007637
v 0.05556381 -0.05813246 -0.01162381
v 0.05549014 -0.05810280 -0.01005685
v 0.05555463 -0.05809851 -0.01304466
v 0.04632376 -0.06568521 -0.01333836
v 0.05794536 -0.05565695 -0.01003806
v 0.04293352 -0.06799578 -0.01156634
v 0.04276941 -0.06797720 -0.01006481
v 0.04206838 -0.06848866 -0.01326466
v 0.04067743 -0.06937995 -0.01207483
v 0.04020281 -0.06951285 -0.01005065
v 0.03650366 -0.07160954 -0.01004716
v 0.03647181 -0.07176203 -0.01209068
v 0.03734283 -0.07121609 -0.01320411
v 0.03317446 -0.07338305 -0.01163134
v 0.03356483 -0.07319922 -0.01308918
v 0.03304286 -0.07330534 -0.01005791
v 0.06032761 -0.05304960 -0.01005475
v 0.02866769 -0.07513761 -0.01007597
v 0.06218138 -0.05083176 -0.01002091
v 0.06453700 -0.04799261 -0.01171495
v 0.04401386 -0.06595183 -0.00784682
v 0.04172082 -0.06737370 -0.00782313
v 0.04519396 -0.06569953 -0.00870967
v 0.03963138 -0.06862346 -0.00782094
v 0.03610373 -0.07061183 -0.00782963
v 0.03328665 -0.07196535 -0.00782552
v 0.03022216 -0.07326749 -0.00776481
v 0.02765630 -0.07433965 -0.00784711
v 0.04798436 -0.06276870 -0.00732360
v 0.04899476 -0.06264996 -0.00816759
v 0.05112189 -0.06094919 -0.00822608
v 0.05312414 -0.05904808 -0.00797352
v 0.05503826 -0.05734977 -0.00801800
v 0.04419506 -0.06470275 -0.00659041
v 0.05749508 -0.05479685 -0.00790010
v 0.05242370 -0.05856833 -0.00679762
v 0.03892549 -0.06794091 -0.00660417
v 0.04867169 -0.06129884 -0.00642717
v 0.05419838 -0.05654035 -0.00646772
v 0.05719033 -0.05347844 -0.00643374
v 0.03459340 -0.07007275 -0.00644980
v 0.06124811 -0.05042764 -0.00774722
v 0.04549970 -0.06243354 -0.00546538
v 0.04182357 -0.06484745 -0.00543250
v 0.05142930 -0.05776280 -0.00554093
v 0.02910554 -0.07258350 -0.00655038
v 0.04796253 -0.06064404 -0.00550711
v 0.03807586 -0.06710549 -0.00545977
v 0.05550024 -0.05389650 -0.00557937
v 0.03482225 -0.06881814 -0.00547067
v 0.03034455 -0.07079251 -0.00544138
v 0.05874802 -0.05039597 -0.00560965
v 0.02633283 -0.07229648 -0.00544206
v 0.02304502 -0.07464127 -0.00645225
v 0.02116231 -0.07399628 -0.00544148
v 0.02028865 -0.07548256 -0.00649490
v 0.06467073 -0.04265970 -0.00562665
v 0.06583837 -0.04073152 -0.00563383
v 0.01506114 -0.07557520 -0.00543110
v 0.00776050 -0.07689935 -0.00540231
v -0.07083816 -0.03546781 -0.00783357
v -0.07172828 -0.03505597 -0.00902950
v -0.06953458 -0.03787107 -0.00781932
v -0.06919883 -0.03943398 -0.00862355
v -0.07074195 -0.03790576 -0.01016939
v -0.06901808 -0.04088027 -0.01009962
v -0.06722657 -0.04307207 -0.00909780
v -0.06760812 -0.04326888 -0.01022597
v -0.06768741 -0.04098852 -0.00771616
v -0.06603792 -0.04356934 -0.00773617
v -0.06462394 -0.04651761 -0.00864722
v -0.06567320 -0.04603562 -0.01008255
v -0.06307888 -0.04812480 -0.00802348
v -0.06215333 -0.05075168 -0.01008823
v -0.06122169 -0.05091978 -0.00847880
v -0.07207254 -0.03287914 -0.00784632
v -0.07346427 -0.03140013 -0.00906127
v -0.07524379 -0.02837845 -0.01018510
v -0.07490790 -0.02813219 -0.00915631
v -0.07339662 -0.02996308 -0.00783254
v -0.06274819 -0.04683335 -0.00654893
v -0.06080294 -0.04953776 -0.00664058
v -0.06437676 -0.04437773 -0.00648913
v -0.06688043 -0.04051543 -0.00650641
v -0.06953196 -0.03539153 -0.00635939
v -0.07138219 -0.03151541 -0.00638567
v -0.07254818 -0.02864648 -0.00630440
v -0.07422669 -0.02405866 -0.00630210
v -0.06760040 -0.03709036 -0.00557252
v -0.06520845 -0.04119658 -0.00556213
v -0.06239738 -0.04548928 -0.00559015
v -0.05946940 -0.04937839 -0.00557934
v -0.07104136 -0.02998142 -0.00557733
v -0.07466345 -0.01969534 -0.00555685
v -0.07343154 -0.02354363 -0.00555132
v -0.07669011 -0.01526659 -0.00630046
v -0.07586964 -0.01528343 -0.00559988
v -0.07669864 -0.01003004 -0.00554863
v -0.07752857 -0.01129222 -0.00644895
v 0.00490830 -0.07939551 -0.00758874
v 0.00451104 -0.08006504 -0.00926016
v 0.00779563 -0.08002959 -0.00992643
v 0.00024492 -0.07953079 -0.00758647
v 0.00011674 -0.08019137 -0.00932771
v -0.00437444 -0.07943375 -0.00763844
v -0.00457772 -0.08005629 -0.00929982
v -0.00821833 -0.07928601 -0.00770280
v -0.00798346 -0.08005898 -0.00998384
v 0.00012516 -0.08034568 -0.01002215
v -0.00899084 -0.07823352 -0.00658361
v 0.00840318 -0.07826667 -0.00665831
v -0.00458315 -0.07832214 -0.00643050
v -0.00030699 -0.07854543 -0.00653821
v 0.00456463 -0.07861270 -0.00673448
v -0.01432405 -0.07757911 -0.00664932
v 0.01145197 -0.07731856 -0.00623012
v 0.01548335 -0.07794965 -0.00766134
v 0.01543533 -0.07690519 -0.00658115
v -0.00158929 -0.07729762 -0.00541724
v 0.00394500 -0.07732971 -0.00554335
v -0.01172055 -0.07742619 -0.00617536
v -0.01824996 -0.07664407 -0.00669400
v 0.01862389 -0.07703052 -0.00763855
v 0.02291046 -0.07577937 -0.00764359
v -0.00824146 -0.07692455 -0.00544107
v -0.02062714 -0.07679732 -0.00774661
v -0.02353500 -0.07542762 -0.00717608
v -0.01429505 -0.07606337 -0.00552748
v -0.04846750 -0.06303701 -0.00824562
v -0.05148334 -0.06058478 -0.00826693
v -0.04913314 -0.06349540 -0.01006149
v -0.05388505 -0.05858791 -0.00840644
v -0.04624641 -0.06470980 -0.00823095
v -0.04562902 -0.06608890 -0.01012185
v -0.04379715 -0.06692665 -0.00919698
v -0.05630310 -0.05641338 -0.00855598
v -0.04269070 -0.06696546 -0.00802341
v -0.04083902 -0.06817402 -0.00812824
v -0.04253693 -0.06813276 -0.01008886
v -0.03825214 -0.07059927 -0.01008312
v -0.04910767 -0.06171759 -0.00734877
v -0.05863801 -0.05386391 -0.00846487
v -0.05574450 -0.05571576 -0.00721948
v -0.05248370 -0.05881813 -0.00733261
v -0.05859688 -0.05217539 -0.00670343
v -0.04655688 -0.06354060 -0.00722027
v -0.04320803 -0.06608148 -0.00741814
v -0.03834814 -0.06882522 -0.00717326
v -0.05510697 -0.05501062 -0.00599729
v -0.05350351 -0.05640095 -0.00583129
v -0.05266176 -0.05750534 -0.00611706
v -0.05118460 -0.05838755 -0.00578428
v -0.05006501 -0.05957266 -0.00589868
v -0.04734637 -0.06131880 -0.00569389
v -0.04665730 -0.06239352 -0.00613333
v -0.04426959 -0.06411565 -0.00607557
v -0.04501946 -0.06317525 -0.00573329
v -0.04283802 -0.06457846 -0.00569221
v -0.04246418 -0.06537672 -0.00610821
v -0.03972999 -0.06703675 -0.00610692
v -0.03761854 -0.06826789 -0.00608985
v -0.03489436 -0.06972395 -0.00609527
v -0.03290405 -0.07074934 -0.00611834
v -0.03005527 -0.07292543 -0.00721607
v -0.04028264 -0.06617134 -0.00569492
v -0.03665341 -0.06816736 -0.00562361
v -0.05611392 -0.05328341 -0.00555736
v -0.03256434 -0.07027053 -0.00565929
v -0.02996421 -0.07197118 -0.00608566
v -0.02789256 -0.07221926 -0.00562469
v -0.02626165 -0.07338384 -0.00610819
v -0.02068862 -0.07458612 -0.00558441
v -0.05775249 0.05046001 -0.00499991
v -0.07636292 -0.02495972 -0.01013215
v -0.07617382 -0.02337701 -0.00858121
v -0.07759735 -0.01901085 -0.00906776
v -0.07854368 -0.01698935 -0.01027580
v -0.07826839 -0.01566647 -0.00863011
v -0.07601861 -0.02236547 -0.00772320
v -0.07777911 -0.01566015 -0.00768336
v -0.07463712 -0.02641361 -0.00769787
v -0.07922317 -0.01339557 -0.01011557
v -0.07950213 -0.01169891 -0.01008626
v -0.07855332 -0.01163120 -0.00776300
v -0.07530481 -0.02847181 -0.01251107
v -0.07434273 -0.03076925 -0.01245246
v -0.07322283 -0.03308267 -0.01031020
v -0.07316225 -0.03328994 -0.01264771
v -0.07187298 -0.03594617 -0.01216711
v -0.06938673 -0.04049219 -0.01265336
v -0.06763829 -0.04343502 -0.01269666
v -0.07900373 -0.00807194 -0.00788846
v -0.08011082 -0.00391315 -0.01007688
v -0.07923323 -0.00398183 -0.00788715
v -0.07987703 -0.00017059 -0.00923164
v -0.07922965 -0.00018763 -0.00775988
v -0.07919655 0.00433607 -0.00781675
v -0.07975768 0.00445108 -0.00907669
v -0.08006874 0.00386601 -0.00990441
v -0.08020868 -0.00011698 -0.01028235
v -0.07896562 0.00843034 -0.00790366
v -0.07980678 0.00870847 -0.01013097
v -0.08002008 0.00614993 -0.01018327
v -0.07853113 0.01149123 -0.00777737
v -0.07838452 -0.00342683 -0.00673714
v -0.07799937 -0.00643486 -0.00644473
v -0.07819699 -0.00026567 -0.00643295
v -0.07817079 0.00456331 -0.00651547
v -0.07787020 0.00827791 -0.00648483
v -0.07734602 0.01252868 -0.00650009
v -0.07554430 -0.02004252 -0.00638215
v -0.07699837 0.00682631 -0.00554240
v -0.08023571 0.00451437 -0.01228080
v -0.08016924 -0.00531558 -0.01228131
v -0.08030473 -0.00015694 -0.01234012
v -0.07990796 0.00878193 -0.01236801
v -0.07866851 0.01606045 -0.01001468
v -0.07686255 0.02356576 -0.01255505
v 0.07966571 0.01067951 -0.01057600
v 0.07921102 0.01370620 -0.01254450
v 0.07982507 0.00911542 -0.01257199
v 0.08007281 0.00672299 -0.01030226
v 0.08009122 0.00505030 -0.01269810
v 0.08024854 0.00331446 -0.01047773
v 0.08025451 0.00029945 -0.01260334
v 0.08030473 -0.00017713 -0.01056583
v 0.08017784 -0.00431115 -0.01070613
v 0.08011830 -0.00366788 -0.01261303
v 0.08004273 -0.00650032 -0.01027373
v 0.07990188 -0.00696953 -0.01259758
v 0.07971743 -0.00943892 -0.01047631
v 0.08010490 -0.00109672 -0.00956703
v 0.07879643 0.01561701 -0.01009983
v 0.07837259 0.01769961 -0.01283269
v 0.07759447 0.02103398 -0.01272073
v 0.07916869 -0.01260735 -0.01263470
v 0.07899513 -0.01425381 -0.01074493
v 0.07854803 -0.01579269 -0.01249759
v 0.07979831 -0.00018915 -0.01423944
v 0.07949492 -0.00473037 -0.01469447
v 0.07955404 0.00276270 -0.01479060
v 0.07812196 -0.01833296 -0.01017057
v 0.07741664 -0.02098905 -0.01214475
v 0.07675208 -0.02350251 -0.01242078
v 0.07596153 -0.02624371 -0.01247524
v 0.07704235 -0.02145857 -0.01351001
v 0.07889454 -0.00990587 -0.01486387
v 0.07814088 -0.01552078 -0.01430698
v 0.07931671 0.00835209 -0.01453723
v 0.07562882 -0.02674228 -0.01334342
v 0.07523730 -0.02838653 -0.01292907
v 0.07878130 0.01227868 -0.01478604
v 0.07942157 0.00005644 -0.01515554
v 0.07533916 -0.02815489 -0.01030224
v 0.07303274 -0.03345521 -0.01337076
v 0.07790962 0.01661991 -0.01479253
v 0.07701233 0.02147586 -0.01433014
v 0.07604829 0.02450918 -0.01456449
v 0.07532253 0.02833933 -0.01281813
v 0.07168706 -0.03650474 -0.01236307
v 0.06782568 -0.04322399 -0.01322542
v 0.06488689 -0.04744117 -0.01320397
v 0.06260900 -0.05031196 -0.01330946
v -0.07130076 0.03610985 -0.01436438
v -0.07264475 0.03311717 -0.01453699
v -0.07373662 0.03081107 -0.01433149
v -0.07480128 0.02830920 -0.01419003
v -0.07611669 0.02591609 -0.01264174
v -0.07633083 0.02350861 -0.01435707
v -0.07747479 0.02048329 -0.01339109
v -0.07710954 0.02027441 -0.01452790
v -0.07824786 0.01554229 -0.01450424
v -0.07876158 0.01603214 -0.01253597
v -0.07789059 0.01970724 -0.01237813
v -0.07933376 0.01283461 -0.01253740
v -0.07871236 0.01270526 -0.01465068
v -0.07936565 0.00862833 -0.01446336
v -0.07019470 0.03888907 -0.01339107
v -0.06777213 0.04310956 -0.01328840
v -0.06337834 0.04852730 -0.01468244
v -0.06012557 0.05257675 -0.01448337
v -0.06158584 0.05088614 -0.01448990
v -0.04567042 0.06561173 -0.01445812
v -0.07943780 0.00514715 -0.01485718
v -0.00869547 -0.01362715 0.03614248
v -0.00582286 -0.01482281 0.03621593
v 0.00066303 -0.01563710 0.03621743
v -0.00221967 -0.01561743 0.03618352
v 0.00752066 -0.01423057 0.03605579
v -0.04188191 0.06814135 -0.01424334
v -0.03802217 0.07029866 -0.01428081
v -0.00833997 0.07944113 -0.01497208
v -0.00028601 0.07987990 -0.01510466
v 0.01022286 0.07931682 -0.01502425
v -0.01743333 0.07799041 -0.01463492
v -0.06408894 0.04844638 -0.01308114
v -0.06066566 0.05263752 -0.01291014
v -0.06504568 0.04652111 -0.01437600
v -0.06583884 0.04609666 -0.01302809
v -0.05761071 0.05534447 -0.01442154
v -0.05807422 0.05555394 -0.01253448
v -0.05524514 0.05778375 -0.01424680
v -0.05586539 0.05777494 -0.01253182
v -0.05300838 0.06018301 -0.01342241
v -0.05045525 0.06203513 -0.01419485
v -0.05074106 0.06227763 -0.01267740
v -0.05316424 0.06028153 -0.01230054
v -0.04826264 0.06425051 -0.01262055
v -0.04807239 0.06391639 -0.01423745
v -0.04597115 0.06593951 -0.01266403
v -0.06058124 0.05278619 -0.01089522
v -0.05788423 0.05571287 -0.01006847
v -0.05300162 0.06036974 -0.01000394
v -0.06380640 0.04878054 -0.01019965
v -0.06617511 0.04564608 -0.01182848
v -0.06793632 0.04293024 -0.01170950
v -0.06062434 0.05262537 -0.00990705
v -0.06628048 0.04530973 -0.01017886
v -0.07039906 0.03878087 -0.01255124
v -0.07072812 0.03811667 -0.01095118
v -0.07296190 0.03388703 -0.01180619
v -0.07314600 0.03336850 -0.01293031
v -0.07284524 0.03388722 -0.01027740
v -0.07079792 0.03769328 -0.00993420
v -0.07441580 0.03052270 -0.01263019
v -0.07495877 0.02907953 -0.01034179
v -0.07531946 0.02833412 -0.01256787
v -0.05544322 0.05719619 -0.00820897
v -0.03859423 0.07038979 -0.01301117
v 0.01211301 0.01055087 0.03619014
v -0.07989753 0.00445737 -0.01369346
v -0.07978952 -0.00002811 -0.01432327
v -0.07983120 -0.00608296 -0.01363126
v -0.07937065 -0.00583965 -0.01490075
v -0.07927147 -0.00791839 -0.01480989
v -0.07925884 -0.01173815 -0.01361430
v -0.07879049 -0.01172364 -0.01499321
v -0.07991644 -0.00845306 -0.01241093
v -0.07850685 -0.01540019 -0.01425557
v -0.07940197 -0.01265908 -0.01241356
v -0.07872075 -0.01641362 -0.01251913
v -0.07744506 -0.02050822 -0.01365597
v -0.07709960 -0.02036883 -0.01469391
v -0.07761728 -0.02071767 -0.01250431
v -0.07618422 -0.02555953 -0.01290875
v -0.07597448 -0.02448046 -0.01458660
v -0.07476338 -0.02837202 -0.01442692
v -0.07649266 -0.02480340 -0.01193196
v -0.07876104 -0.01621873 -0.01089015
v -0.07811629 -0.01894404 -0.01130600
v -0.07994363 -0.00751491 -0.01012298
v -0.07372890 -0.03094982 -0.01439727
v -0.07275659 -0.03377505 -0.01347772
v -0.07261042 -0.03317853 -0.01461166
v -0.07106054 -0.03622863 -0.01465783
v -0.07046767 -0.03841655 -0.01311595
v -0.06900488 -0.04020211 -0.01444642
v -0.06725143 -0.04314868 -0.01449243
v -0.07738671 -0.02118830 -0.01011539
v -0.06609883 -0.04494525 -0.01435923
v -0.06425338 -0.04755367 -0.01431390
v 0.05052561 -0.06181358 -0.01476242
v 0.04707910 -0.06461749 -0.01460603
v 0.05294335 -0.05991027 -0.01445539
v 0.05536837 -0.05764202 -0.01446931
v 0.05787190 -0.05511764 -0.01444139
v 0.06057477 -0.05218541 -0.01438788
v 0.05801124 -0.05569405 -0.01287155
v 0.06047154 -0.05300403 -0.01278239
v 0.06217118 -0.05098311 -0.01241714
v 0.00017087 -0.07983229 -0.01504709
v 0.00874346 -0.07947044 -0.01479562
v -0.00588878 -0.07984354 -0.01447876
v -0.00918218 -0.07924636 -0.01509470
v -0.01445978 -0.07864349 -0.01464677
v -0.01426124 -0.07858384 -0.00775697
v -0.01735740 -0.07793626 -0.00776192
v -0.01548803 -0.07900053 -0.00986071
v -0.01828230 -0.07833703 -0.00998556
v -0.01164871 -0.07915491 -0.00823137
v -0.02164733 -0.07736092 -0.00995123
v -0.02432073 -0.07657627 -0.01001171
v -0.02395072 -0.07596951 -0.00825763
v -0.02780273 -0.07485700 -0.00869724
v -0.02821703 -0.07525909 -0.01010387
v -0.03211475 -0.07330617 -0.00925354
v -0.03342363 -0.07304867 -0.01006297
v -0.02905772 -0.07409230 -0.00820301
v -0.03222663 -0.07263052 -0.00805236
v -0.03524229 -0.07123264 -0.00809925
v -0.03842981 -0.06967378 -0.00822149
v -0.02667989 -0.07429430 -0.00716295
v -0.03208107 -0.07374537 -0.01149043
v -0.02721130 -0.07573158 -0.01224039
v -0.02367313 -0.07688465 -0.01211493
v -0.01829808 -0.07835344 -0.01212530
v -0.02044266 -0.07769303 -0.01298082
v -0.02234370 -0.07701990 -0.01360886
v -0.01774432 -0.07831717 -0.01341451
v -0.01290915 -0.07947755 -0.01241247
v -0.02997624 -0.07463829 -0.01234998
v -0.03194223 -0.07370079 -0.01313434
v -0.02935497 -0.07432914 -0.01454411
v -0.03245344 -0.07314520 -0.01419341
v -0.05041385 -0.06182715 -0.01461891
v -0.04795726 -0.06394276 -0.01431789
v -0.04985786 -0.06280661 -0.01344741
v -0.04748148 -0.06471428 -0.01315009
v -0.04405225 -0.06703819 -0.01348373
v -0.05370911 -0.05950852 -0.01344330
v -0.05595274 -0.05695463 -0.01443688
v -0.05772863 -0.05563553 -0.01341779
v -0.05904110 -0.05359872 -0.01467422
v -0.06026932 -0.05278713 -0.01364056
v -0.06197752 -0.05022403 -0.01467084
v -0.04027068 -0.06925250 -0.01368770
v -0.04134856 -0.06883154 -0.01296608
v -0.05753420 -0.05607807 -0.01236212
v -0.05215548 -0.06112208 -0.01188913
v -0.05477131 -0.05880056 -0.01193655
v -0.06043927 -0.05290888 -0.01259702
v -0.04515614 -0.06648520 -0.01226482
v -0.04905411 -0.06365257 -0.01194528
v -0.06316984 -0.04954993 -0.01308533
v -0.03659366 -0.07141355 -0.01322916
v -0.03515531 -0.07163151 -0.01464584
v -0.04242912 -0.06827462 -0.01162802
v -0.03708275 -0.07130541 -0.01189636
v -0.06257165 -0.05041034 -0.01180968
v -0.05765913 -0.05588063 -0.01014781
v -0.06005478 -0.05324210 -0.01013300
v -0.05330635 -0.05998055 -0.01004847
v -0.06483406 -0.04746563 -0.01148258
v -0.06553866 -0.04648712 -0.01267888
v -0.06390341 -0.04847557 -0.01003626
v -0.07025697 -0.03900579 -0.01161057
v -0.02632748 -0.07534475 -0.01473476
v -0.00183163 0.01663114 0.03602037
v -0.01253358 0.01013669 0.03617300
v 0.03435330 0.07217188 -0.01457937
v 0.03884108 0.06998298 -0.01401741
v 0.03973975 0.06920237 -0.01469735
v 0.03685148 0.07143151 -0.01273978
v 0.03280252 0.07340562 -0.01296989
v 0.04195595 0.06850361 -0.01299185
v 0.04613577 0.06587325 -0.01289511
v 0.04531072 0.06587402 -0.01454700
v 0.04777750 0.06412911 -0.01452742
v 0.04896576 0.06380642 -0.01264401
v 0.05187829 0.06131636 -0.01317758
v 0.05084002 0.06158247 -0.01461854
v 0.05420363 0.05865707 -0.01451445
v 0.05562870 0.05800996 -0.01264879
v 0.05592365 0.05701731 -0.01447588
v 0.05776972 0.05516909 -0.01440423
v 0.05855732 0.05499714 -0.01282885
v 0.04437427 0.06709324 -0.01102002
v 0.03997383 0.06972208 -0.01161536
v 0.06046577 0.05289800 -0.01297507
v 0.05247710 0.06089881 -0.01161309
v 0.04738829 0.06499098 -0.01076630
v 0.05988660 0.05274002 -0.01459628
v 0.06152767 0.05097144 -0.01443894
v 0.06398717 0.04870083 -0.01282806
v 0.06564688 0.04644472 -0.01284619
v 0.06034141 0.05303376 -0.01021358
v 0.06160728 0.05160572 -0.01105210
v 0.05256045 0.06074586 -0.01019292
v 0.03844404 0.07054780 -0.01019190
v 0.06592367 0.04600975 -0.01084040
v 0.06745350 0.04377945 -0.01280892
v 0.06768830 0.04330968 -0.01034463
v 0.06939354 0.04059127 -0.01284996
v 0.06858626 0.04098430 -0.01450706
v 0.07185589 0.03617428 -0.01101279
v 0.07318226 0.03354262 -0.01295229
v 0.00975200 -0.07894725 -0.00758221
v 0.01182891 -0.07887936 -0.00816047
v 0.01609829 -0.07876697 -0.01002016
v 0.01163289 -0.07955529 -0.00990433
v 0.00819990 -0.07943545 -0.00827487
v 0.02039785 -0.07726771 -0.00908970
v 0.01980354 -0.07782267 -0.01008440
v 0.02437869 -0.07653835 -0.01008305
v 0.02395492 -0.07594660 -0.00851041
v 0.02851539 -0.07529805 -0.01134945
v 0.02155239 -0.07744047 -0.01168083
v 0.02492845 -0.07647411 -0.01231708
v 0.01924667 -0.07805650 -0.01304066
v 0.01607247 -0.07879846 -0.01295658
v 0.01173945 -0.07957521 -0.01280876
v 0.00817808 -0.08005663 -0.01270054
v 0.02849226 -0.07531105 -0.01286828
v 0.00444296 -0.08028848 -0.01027112
v 0.00514186 -0.08024120 -0.01295533
v -0.00023922 -0.08039836 -0.01265880
v 0.02407819 -0.07660921 -0.01338923
v -0.00500401 -0.08022097 -0.01010975
v -0.00705865 -0.08015726 -0.01252427
v -0.00011094 -0.08028939 -0.01371553
v 0.01086761 -0.07956107 -0.01353740
v -0.01008805 -0.07985293 -0.01273281
v -0.01229671 -0.07958676 -0.00985595
v -0.00716648 -0.08000362 -0.01356002
v 0.00426971 -0.07994250 -0.01448516
v -0.01543430 -0.07902211 -0.01206068
v 0.01513701 -0.07849435 -0.01467324
v 0.01839092 -0.07790907 -0.01425592
v 0.02145799 -0.07691593 -0.01466968
v -0.01065407 -0.07941988 -0.01421233
v -0.01449136 -0.07902211 -0.01344519
v 0.02860661 -0.07483691 -0.01434836
v 0.03037943 -0.07444650 -0.01339175
v 0.03326527 -0.07296247 -0.01422405
v 0.03539626 -0.07169873 -0.01464535
v -0.01830404 -0.07775365 -0.01459783
v -0.02335975 -0.07633763 -0.01464071
v 0.04263956 -0.06776517 -0.01426452
v -0.02659464 -0.07578418 -0.01332737
v 0.07479044 0.02840348 -0.01444086
v 0.07293153 0.03277184 -0.01464385
v 0.07152165 0.03585533 -0.01443275
v 0.06992853 0.03859923 -0.01458754
v 0.06680034 0.04395637 -0.01438981
v 0.06471302 0.04692566 -0.01447746
v 0.02860524 0.07458758 -0.01476157
v 0.02483281 0.07582057 -0.01482618
v 0.04315462 0.06724980 -0.01456504
v 0.03163751 0.07352385 -0.01433180
v 0.06302550 0.04920001 -0.01440387
v 0.07070428 0.03833273 -0.01298442
v 0.07681342 0.02367001 -0.01026735
v 0.07815212 0.01874597 -0.01029918
v 0.07651490 0.02477202 -0.01282641
v 0.07540103 0.02812818 -0.01112365
v 0.07550694 0.02765457 -0.01018372
v 0.07400544 0.03172134 -0.01248561
v 0.07412837 0.03100482 -0.01338754
v -0.03555552 0.07201937 -0.01286438
v -0.03534346 0.07170099 -0.01434675
v -0.04329452 0.06771782 -0.01283787
v -0.04080226 0.06922096 -0.01237677
v -0.03698764 0.07134443 -0.01161418
v -0.03558505 0.07194766 -0.01007093
v -0.03821678 0.07058611 -0.01006558
f 996 836 833
f 310 801 797
f 65 7 1079
f 923 921 1039
f 985 992 1039
f 24 7 65
f 329 649 648
f 650 649 329
f 1221 1222 723
f 1220 1222 1221
f 254 260 262
f 312 997 299
f 827 996 833
f 836 996 994
f 768 312 995
f 996 827 995
f 280 994 996
f 798 310 797
f 801 310 316
f 833 836 829
f 56 90 91
f 90 92 91
f 175 90 87
f 99 90 56
f 1117 99 1124
f 17 92 90
f 94 92 17
f 106 90 175
f 175 140 106
f 106 140 144
f 6 162 163
f 96 24 65
f 65 64 96
f 96 64 94
f 7 24 8
f 1215 1080 8
f 8 1080 7
f 757 324 753
f 985 1039 924
f 924 1039 921
f 6 163 972
f 1006 157 987
f 987 157 159
f 277 278 297
f 297 278 304
f 329 648 304
f 304 648 647
f 297 304 641
f 262 260 266
f 652 651 322
f 322 650 329
f 651 650 322
f 384 376 377
f 377 376 325
f 689 651 652
f 352 376 384
f 435 315 446
f 315 435 318
f 317 451 315
f 957 960 929
f 929 960 928
f 1168 1161 1158
f 331 1168 1157
f 1157 1168 1158
f 1165 1153 1166
f 1154 1153 1165
f 253 254 262
f 254 253 273
f 824 825 826
f 767 824 826
f 767 312 768
f 768 824 767
f 833 829 818
f 993 873 874
f 866 873 993
f 993 865 866
f 860 858 861
f 323 860 861
f 323 993 292
f 865 993 323
f 858 860 323
f 875 858 323
f 323 328 875
f 768 995 828
f 828 995 827
f 292 993 282
f 282 993 994
f 996 995 272
f 272 280 996
f 765 766 311
f 311 570 571
f 581 570 311
f 326 765 311
f 583 765 326
f 326 760 583
f 326 324 757
f 757 760 326
f 256 272 271
f 446 315 448
f 315 451 448
f 260 264 263
f 265 266 263
f 263 266 260
f 803 316 802
f 801 316 803
f 792 798 797
f 309 628 920
f 914 646 915
f 908 921 923
f 908 907 921
f 94 64 93
f 93 64 58
f 93 92 94
f 61 64 65
f 64 61 1225
f 880 994 878
f 836 994 880
f 1206 1204 817
f 812 814 817
f 817 814 1206
f 1213 1079 7
f 7 1080 1213
f 1209 1080 1215
f 65 1079 1081
f 1081 1082 65
f 1083 61 65
f 175 87 41
f 923 1039 1040
f 1040 1039 992
f 3 992 985
f 3 1040 992
f 35 1040 3
f 94 17 23
f 23 96 94
f 24 96 23
f 965 964 129
f 129 964 960
f 29 17 90
f 90 106 29
f 29 106 135
f 144 140 142
f 1158 1161 1160
f 513 515 502
f 520 515 513
f 481 479 492
f 532 530 181
f 531 1248 1247
f 532 1248 531
f 529 530 522
f 162 164 168
f 168 140 175
f 168 164 140
f 168 163 162
f 161 162 6
f 161 164 162
f 723 1222 721
f 712 716 1226
f 709 706 711
f 704 706 709
f 704 709 702
f 757 753 747
f 251 590 969
f 552 551 560
f 917 916 920
f 595 925 596
f 596 597 595
f 1027 987 986
f 987 159 986
f 6 972 986
f 595 597 591
f 1004 1023 1022
f 1022 1023 1026
f 990 989 157
f 1253 1251 666
f 687 648 649
f 687 670 669
f 649 650 687
f 650 670 687
f 647 648 685
f 648 687 685
f 685 687 669
f 682 650 651
f 643 304 647
f 643 641 304
f 616 633 629
f 284 277 295
f 698 392 393
f 698 400 392
f 313 656 1146
f 329 304 288
f 288 322 329
f 288 304 278
f 692 689 652
f 1164 1167 1163
f 341 449 442
f 442 431 341
f 444 431 442
f 356 337 335
f 356 352 384
f 450 436 445
f 445 318 450
f 423 436 432
f 1038 377 325
f 315 318 302
f 940 937 934
f 568 937 940
f 453 460 584
f 584 940 453
f 566 568 567
f 939 937 566
f 566 937 568
f 536 538 537
f 939 566 945
f 945 566 563
f 574 582 575
f 573 582 574
f 572 535 567
f 573 535 572
f 585 582 572
f 572 582 573
f 540 962 538
f 458 317 459
f 459 460 458
f 456 317 458
f 451 317 456
f 580 584 460
f 580 459 585
f 460 459 580
f 306 582 585
f 585 459 306
f 306 459 317
f 392 400 700
f 943 965 1242
f 331 1157 1169
f 1169 1157 1154
f 1154 1165 1169
f 1154 1157 1156
f 1156 1157 1158
f 1148 1152 1151
f 1166 1153 1151
f 465 464 463
f 467 464 465
f 1187 1197 1195
f 1187 1195 1191
f 1191 1195 1192
f 1190 1191 1192
f 1190 825 1187
f 1187 1191 1190
f 826 825 764
f 874 873 869
f 876 877 878
f 876 993 874
f 878 994 876
f 994 993 876
f 252 253 262
f 300 316 291
f 291 316 310
f 310 273 291
f 281 273 253
f 300 291 281
f 281 291 273
f 284 309 281
f 281 309 300
f 301 273 310
f 310 328 301
f 301 323 292
f 328 323 301
f 821 828 827
f 825 824 1185
f 861 865 862
f 862 323 861
f 865 323 862
f 994 280 285
f 285 282 994
f 280 282 285
f 254 273 270
f 292 282 270
f 270 301 292
f 273 301 270
f 741 713 743
f 743 747 741
f 560 551 554
f 311 766 578
f 578 581 311
f 324 326 293
f 299 997 293
f 293 997 324
f 293 271 299
f 279 271 293
f 299 271 287
f 287 271 272
f 287 272 995
f 287 312 299
f 287 995 312
f 258 271 279
f 256 271 258
f 452 460 453
f 458 460 452
f 452 456 458
f 443 456 452
f 275 296 265
f 265 263 275
f 807 888 804
f 796 803 802
f 892 888 807
f 797 801 793
f 793 792 797
f 310 798 799
f 799 328 310
f 645 309 920
f 646 309 645
f 915 646 645
f 645 916 915
f 920 916 645
f 327 309 646
f 300 309 327
f 327 316 300
f 806 914 807
f 646 914 806
f 806 327 646
f 807 804 806
f 316 327 806
f 913 914 915
f 902 914 913
f 58 64 101
f 64 1225 101
f 1224 1083 1107
f 61 1083 1224
f 1198 1197 1187
f 1198 1209 1215
f 1215 1216 1198
f 1198 1216 1197
f 1202 817 1204
f 1208 1081 1079
f 1079 1213 1208
f 1207 1204 1206
f 1207 1208 1204
f 65 1082 1218
f 1218 1083 65
f 1082 1081 1218
f 78 41 87
f 2 3 985
f 54 93 58
f 92 93 54
f 55 99 56
f 56 52 55
f 55 1124 99
f 55 52 1124
f 705 706 704
f 952 954 951
f 952 951 565
f 959 963 235
f 929 930 931
f 931 957 929
f 931 949 957
f 942 928 960
f 960 964 942
f 942 965 943
f 942 964 965
f 960 133 195
f 195 129 960
f 15 17 250
f 17 29 250
f 135 106 136
f 106 107 136
f 136 137 135
f 125 107 106
f 125 208 123
f 128 106 144
f 139 142 140
f 148 1248 147
f 147 1248 532
f 1162 1160 1161
f 1162 1164 1163
f 1161 1164 1162
f 501 504 500
f 511 501 510
f 512 504 511
f 511 504 501
f 503 501 492
f 510 501 503
f 503 524 510
f 499 505 513
f 502 495 499
f 499 513 502
f 496 481 492
f 496 500 497
f 492 501 496
f 501 500 496
f 1247 1248 1037
f 1037 1251 1247
f 999 1248 148
f 998 1037 999
f 999 1037 1248
f 151 178 109
f 180 181 530
f 525 530 532
f 532 531 525
f 525 522 530
f 677 679 674
f 678 679 677
f 492 479 1000
f 173 4 172
f 163 168 169
f 5 163 169
f 169 172 4
f 1223 721 1222
f 190 721 1223
f 16 17 15
f 16 1222 1220
f 9 8 24
f 1215 8 9
f 9 1216 1215
f 1072 705 1070
f 706 705 1072
f 711 706 1072
f 324 997 752
f 1076 1077 713
f 713 709 1076
f 1076 709 711
f 1075 1077 1076
f 710 709 713
f 710 702 709
f 710 713 741
f 741 702 710
f 968 590 963
f 251 969 970
f 970 969 587
f 551 552 550
f 924 910 601
f 909 917 912
f 916 917 909
f 911 924 921
f 911 910 924
f 921 907 911
f 165 986 159
f 165 161 6
f 164 161 165
f 166 164 165
f 165 159 166
f 595 591 593
f 1 4 173
f 173 977 1
f 1 977 4
f 973 972 163
f 1007 1023 1004
f 987 1023 1007
f 1004 1006 1007
f 1007 1006 987
f 1024 987 1027
f 1024 1023 987
f 1026 1023 1024
f 608 611 609
f 157 1006 988
f 988 990 157
f 988 1006 1004
f 1004 990 988
f 1005 990 1004
f 989 990 1005
f 989 1005 1008
f 1008 1005 1009
f 1010 1008 1011
f 1011 1008 1009
f 1011 663 1015
f 1011 1009 1020
f 1020 663 1011
f 1010 155 153
f 152 164 166
f 1252 1251 1253
f 674 671 673
f 673 671 672
f 672 675 673
f 673 677 674
f 678 677 673
f 518 678 673
f 673 675 518
f 1036 637 644
f 1012 155 1010
f 1012 1013 155
f 1010 1011 1012
f 1012 1011 1015
f 664 666 665
f 669 670 664
f 686 1036 644
f 642 643 647
f 642 686 644
f 641 643 642
f 647 685 642
f 685 686 642
f 624 639 638
f 644 637 638
f 638 637 624
f 638 642 644
f 641 642 638
f 641 638 881
f 881 638 639
f 1147 639 640
f 1147 881 639
f 297 641 1147
f 641 881 1147
f 633 616 613
f 634 633 613
f 321 295 298
f 297 1147 298
f 298 1147 321
f 298 277 297
f 298 295 277
f 284 295 319
f 634 628 319
f 319 633 634
f 319 309 284
f 628 309 319
f 319 295 321
f 629 633 319
f 319 321 629
f 630 631 321
f 629 321 627
f 321 631 627
f 627 631 622
f 622 610 627
f 627 616 629
f 627 610 616
f 308 700 400
f 296 320 308
f 403 700 308
f 654 695 694
f 694 695 696
f 313 654 694
f 694 656 313
f 520 695 697
f 393 515 697
f 697 515 520
f 697 698 393
f 697 695 654
f 313 1146 294
f 322 288 294
f 1146 692 294
f 652 322 294
f 294 692 652
f 268 288 278
f 268 294 288
f 693 692 656
f 693 694 696
f 656 694 693
f 689 692 688
f 653 1146 656
f 656 692 653
f 653 692 1146
f 405 387 388
f 371 369 325
f 376 369 371
f 376 352 359
f 359 369 376
f 508 395 367
f 508 367 364
f 331 1169 346
f 346 1169 1165
f 518 675 681
f 681 688 518
f 689 688 681
f 340 414 344
f 340 339 341
f 341 431 413
f 413 340 341
f 414 340 413
f 409 414 413
f 339 337 338
f 341 339 338
f 338 449 341
f 338 356 449
f 337 356 338
f 335 337 336
f 336 1164 1161
f 343 356 335
f 352 356 343
f 438 445 436
f 438 408 407
f 436 408 438
f 407 431 438
f 438 431 444
f 444 445 438
f 435 432 447
f 447 432 436
f 447 436 450
f 450 318 447
f 447 318 435
f 446 448 433
f 433 435 446
f 433 432 435
f 425 420 433
f 433 420 432
f 1244 420 421
f 421 420 425
f 415 436 423
f 415 408 436
f 303 302 318
f 932 930 453
f 453 940 932
f 932 940 934
f 932 931 930
f 934 933 932
f 933 931 932
f 950 537 565
f 565 951 950
f 951 945 950
f 950 945 563
f 538 962 539
f 539 537 538
f 565 537 539
f 539 952 565
f 536 535 533
f 533 535 573
f 564 566 567
f 567 535 564
f 563 566 564
f 541 540 538
f 929 928 927
f 928 429 927
f 927 930 929
f 453 930 586
f 930 927 586
f 586 927 429
f 579 572 567
f 585 572 579
f 579 580 585
f 584 580 569
f 567 568 569
f 569 579 567
f 580 579 569
f 568 940 569
f 940 584 569
f 582 306 314
f 575 582 314
f 314 290 311
f 314 571 575
f 311 571 314
f 267 264 260
f 947 936 948
f 933 936 947
f 948 34 947
f 947 931 933
f 949 931 947
f 1243 1242 967
f 967 1245 1243
f 1243 419 1244
f 1245 419 1243
f 114 223 124
f 124 110 114
f 114 110 112
f 1163 1167 1170
f 1170 223 1163
f 206 120 123
f 1160 1162 206
f 1154 1156 1155
f 123 208 207
f 1159 1156 1158
f 1159 208 1156
f 1159 207 208
f 123 207 1159
f 1158 1160 1159
f 468 464 467
f 467 469 468
f 463 464 1002
f 478 481 480
f 479 481 478
f 178 1000 1001
f 1001 1000 479
f 479 478 1001
f 510 528 521
f 521 511 510
f 529 522 521
f 521 528 529
f 1003 524 178
f 510 524 1003
f 1003 528 510
f 351 1151 488
f 488 1151 1152
f 471 1234 469
f 471 488 1152
f 483 488 471
f 1201 1221 723
f 1220 1221 1201
f 825 1190 1193
f 1193 1190 1192
f 763 764 762
f 763 762 761
f 763 767 826
f 826 764 763
f 312 767 763
f 761 997 763
f 997 312 763
f 867 873 866
f 866 865 867
f 872 877 871
f 877 876 871
f 1099 848 1095
f 269 252 277
f 253 252 269
f 269 281 253
f 269 277 284
f 284 281 269
f 278 277 261
f 277 252 261
f 261 268 278
f 261 252 262
f 262 266 261
f 266 268 261
f 820 821 827
f 820 827 833
f 833 818 820
f 821 820 811
f 828 821 822
f 822 811 808
f 821 811 822
f 819 824 768
f 819 1185 824
f 768 828 819
f 828 822 819
f 808 1185 819
f 819 822 808
f 1187 825 1186
f 825 1185 1186
f 254 270 255
f 256 260 255
f 260 254 255
f 255 272 256
f 280 272 255
f 255 282 280
f 255 270 282
f 561 743 713
f 561 727 750
f 750 743 561
f 747 743 748
f 748 760 757
f 757 747 748
f 748 743 750
f 560 554 559
f 559 727 560
f 750 727 559
f 279 293 305
f 305 293 326
f 305 326 311
f 311 290 305
f 305 290 279
f 257 260 256
f 256 258 257
f 257 258 260
f 451 456 441
f 441 456 443
f 434 452 453
f 443 452 434
f 453 586 434
f 307 1038 325
f 296 275 307
f 307 303 1038
f 325 320 307
f 307 320 296
f 919 804 888
f 919 796 802
f 801 803 795
f 803 796 795
f 807 914 900
f 900 892 807
f 900 914 902
f 798 792 791
f 791 799 798
f 805 806 804
f 316 806 805
f 802 316 805
f 805 919 802
f 804 919 805
f 1106 1225 61
f 61 1224 1106
f 1106 1224 1107
f 1203 1202 1204
f 1204 1208 1203
f 1203 1208 1213
f 1189 1185 808
f 1189 1186 1185
f 1081 1208 1212
f 1208 1207 1212
f 1212 1218 1081
f 823 818 829
f 823 829 836
f 836 880 823
f 880 830 823
f 879 880 878
f 879 830 880
f 878 877 879
f 1085 823 830
f 1087 1104 1086
f 1086 1085 1087
f 1087 1085 1089
f 1094 1092 1096
f 75 78 72
f 41 97 95
f 35 3 37
f 37 97 35
f 985 924 983
f 924 601 983
f 173 2 980
f 3 2 177
f 53 52 56
f 53 54 52
f 92 54 53
f 56 91 53
f 53 91 92
f 58 101 59
f 52 54 1112
f 15 13 247
f 247 190 15
f 247 721 190
f 247 1226 716
f 712 1226 247
f 716 721 247
f 712 13 241
f 963 590 242
f 958 240 954
f 954 952 958
f 200 138 135
f 135 138 134
f 134 29 135
f 134 131 29
f 965 129 196
f 196 138 965
f 129 138 196
f 966 1242 965
f 965 138 966
f 133 131 130
f 130 131 129
f 130 195 133
f 129 195 130
f 29 131 30
f 14 13 15
f 957 949 194
f 194 133 960
f 960 957 194
f 121 120 107
f 107 125 121
f 123 120 121
f 121 125 123
f 144 221 104
f 104 128 144
f 1237 1152 1148
f 1237 471 1152
f 1234 471 1237
f 109 464 108
f 464 468 108
f 12 153 155
f 12 152 153
f 142 139 184
f 148 147 184
f 184 147 142
f 144 142 146
f 142 147 146
f 532 181 145
f 145 147 532
f 144 146 145
f 145 146 147
f 680 504 512
f 518 691 680
f 680 678 518
f 512 679 680
f 680 679 678
f 507 500 504
f 507 680 691
f 504 680 507
f 497 500 507
f 674 679 517
f 517 679 512
f 512 511 517
f 517 521 522
f 511 521 517
f 517 525 674
f 522 525 517
f 520 513 701
f 513 505 701
f 696 695 701
f 701 695 520
f 701 519 696
f 505 519 701
f 493 496 497
f 481 496 493
f 497 505 493
f 505 499 493
f 480 481 493
f 178 151 179
f 179 1003 178
f 528 1003 179
f 529 528 179
f 179 530 529
f 179 180 530
f 143 221 144
f 526 525 531
f 674 525 526
f 524 503 523
f 178 524 523
f 523 1000 178
f 523 503 492
f 492 1000 523
f 174 2 173
f 173 172 174
f 175 2 174
f 175 174 171
f 171 174 172
f 170 169 168
f 172 169 170
f 170 171 172
f 170 168 175
f 175 171 170
f 974 973 163
f 193 23 17
f 17 16 193
f 193 16 22
f 24 23 193
f 193 9 24
f 15 190 192
f 192 16 15
f 1222 16 192
f 192 1223 1222
f 190 1223 192
f 189 16 1220
f 22 16 189
f 1216 9 1217
f 187 1217 9
f 187 193 22
f 9 193 187
f 723 721 720
f 755 753 324
f 739 738 702
f 546 968 588
f 588 968 963
f 588 963 959
f 588 962 546
f 959 962 588
f 589 969 590
f 590 968 589
f 587 969 589
f 971 1077 1075
f 560 727 728
f 728 970 587
f 728 552 560
f 587 552 728
f 562 552 587
f 562 550 552
f 587 589 562
f 562 589 968
f 562 968 546
f 546 550 562
f 598 601 910
f 598 909 912
f 910 909 598
f 925 601 598
f 598 596 925
f 916 909 905
f 915 916 905
f 906 909 910
f 910 911 906
f 906 911 907
f 906 905 909
f 912 615 600
f 600 598 912
f 596 598 600
f 597 596 600
f 912 917 918
f 918 615 912
f 628 615 918
f 920 628 918
f 918 917 920
f 6 986 160
f 160 165 6
f 986 165 160
f 593 926 594
f 594 925 595
f 595 593 594
f 1035 593 1034
f 1026 1024 617
f 617 609 1026
f 1004 1022 1019
f 1019 1005 1004
f 1020 1009 1019
f 1009 1005 1019
f 185 1008 156
f 157 989 185
f 989 1008 185
f 186 185 156
f 141 139 140
f 140 164 141
f 164 152 141
f 141 12 139
f 152 12 141
f 1251 1252 527
f 527 1252 671
f 527 526 531
f 527 671 674
f 674 526 527
f 1247 1251 527
f 527 531 1247
f 672 671 668
f 671 1252 668
f 668 1252 1253
f 637 1036 636
f 636 663 1020
f 636 1036 663
f 1014 1012 1015
f 1013 1012 1014
f 665 666 1250
f 1250 666 1251
f 1251 1037 1250
f 1253 666 667
f 666 664 667
f 667 668 1253
f 667 664 670
f 670 668 667
f 684 685 669
f 684 686 685
f 634 613 614
f 614 628 634
f 614 615 628
f 614 613 597
f 597 600 614
f 614 600 615
f 605 606 1032
f 605 610 622
f 604 605 1032
f 616 610 599
f 599 591 597
f 626 639 624
f 640 639 626
f 626 1147 640
f 626 630 321
f 321 1147 626
f 622 631 625
f 631 630 625
f 655 308 400
f 313 308 655
f 655 654 313
f 655 697 654
f 698 697 655
f 296 308 283
f 283 268 266
f 294 268 283
f 283 308 313
f 313 294 283
f 283 266 265
f 265 296 283
f 690 691 518
f 518 688 690
f 690 519 691
f 696 519 690
f 690 688 692
f 690 693 696
f 692 693 690
f 406 405 388
f 406 308 320
f 320 405 406
f 320 379 380
f 325 376 375
f 375 371 325
f 376 371 375
f 389 395 390
f 389 367 395
f 388 367 389
f 389 406 388
f 389 390 403
f 348 346 1165
f 348 1165 1166
f 683 681 675
f 683 675 672
f 683 682 651
f 689 681 683
f 651 689 683
f 409 413 410
f 407 408 410
f 410 408 409
f 410 431 407
f 410 413 431
f 1229 1230 1184
f 1184 1246 1229
f 967 1246 1184
f 1184 1245 967
f 1175 344 1172
f 344 1173 1172
f 1172 1167 1175
f 344 414 1180
f 1180 414 409
f 409 411 1180
f 411 418 1180
f 1161 1168 333
f 333 336 1161
f 335 336 333
f 1167 1164 1174
f 1164 336 1174
f 1175 1167 1174
f 1174 344 1175
f 1174 340 344
f 339 340 1174
f 1174 337 339
f 1174 336 337
f 457 442 449
f 457 381 1038
f 384 377 378
f 377 1038 378
f 1038 381 378
f 449 356 385
f 385 457 449
f 381 457 385
f 385 378 381
f 385 356 384
f 384 378 385
f 424 421 425
f 422 415 423
f 423 432 422
f 432 420 422
f 412 415 411
f 408 415 412
f 412 411 409
f 409 408 412
f 302 303 276
f 264 267 276
f 934 937 935
f 935 933 934
f 935 936 933
f 948 936 938
f 938 937 939
f 938 935 937
f 936 935 938
f 952 539 953
f 959 958 953
f 953 958 952
f 953 962 959
f 953 539 962
f 537 950 534
f 534 564 535
f 534 950 563
f 563 564 534
f 536 537 534
f 534 535 536
f 954 240 956
f 540 541 544
f 581 578 555
f 570 581 555
f 551 550 547
f 553 559 554
f 290 314 286
f 286 314 306
f 259 258 279
f 259 286 267
f 260 258 259
f 259 267 260
f 279 290 259
f 290 286 259
f 224 110 124
f 223 114 115
f 115 114 112
f 115 120 117
f 112 120 115
f 122 206 123
f 1160 206 122
f 123 1159 122
f 122 1159 1160
f 118 206 1162
f 117 120 119
f 120 206 119
f 347 345 346
f 346 348 347
f 466 464 109
f 109 1002 466
f 466 1002 464
f 461 474 463
f 463 1002 461
f 45 1001 472
f 45 1002 109
f 472 1002 45
f 109 178 45
f 178 1001 45
f 390 395 396
f 393 392 397
f 397 515 393
f 485 495 502
f 484 495 485
f 509 396 395
f 398 396 509
f 351 488 498
f 470 469 467
f 470 471 469
f 483 471 470
f 1192 1195 1196
f 1196 1195 1197
f 1192 1196 1194
f 1194 1196 1201
f 831 1193 832
f 825 1193 831
f 831 764 825
f 832 762 831
f 762 764 831
f 726 1193 1192
f 1192 1194 726
f 868 869 873
f 873 867 868
f 845 868 867
f 1098 1095 1094
f 1099 1095 1098
f 870 876 874
f 870 871 876
f 874 869 870
f 870 1098 871
f 1099 1098 870
f 863 865 861
f 861 854 863
f 849 854 861
f 847 848 1099
f 847 1135 848
f 842 1135 847
f 813 814 812
f 812 811 813
f 815 814 813
f 813 811 820
f 813 818 815
f 813 820 818
f 86 87 90
f 90 85 86
f 88 85 90
f 47 85 88
f 328 799 800
f 875 328 800
f 861 858 859
f 839 842 841
f 725 561 713
f 727 561 725
f 713 1077 725
f 750 559 577
f 577 748 750
f 583 760 577
f 760 748 577
f 425 433 439
f 439 433 448
f 430 586 429
f 430 434 586
f 429 428 430
f 428 441 430
f 430 441 443
f 443 434 430
f 274 307 275
f 303 307 274
f 274 276 303
f 264 276 274
f 274 263 264
f 274 275 263
f 794 793 801
f 801 795 794
f 892 900 891
f 1107 1104 1105
f 1105 1106 1107
f 1202 1203 1200
f 1080 1209 1200
f 1200 1213 1080
f 1200 1203 1213
f 809 1189 808
f 809 811 812
f 808 811 809
f 812 817 809
f 817 1202 809
f 1187 1186 1188
f 1186 1189 1188
f 816 1207 1206
f 1206 814 816
f 816 814 815
f 815 1088 816
f 1088 1211 816
f 1084 1085 1086
f 1086 1211 1084
f 1084 1211 1088
f 823 1085 1084
f 1084 1088 815
f 815 818 1084
f 818 823 1084
f 830 879 835
f 835 1085 830
f 42 75 72
f 98 37 3
f 97 37 98
f 3 177 98
f 98 177 97
f 979 977 173
f 173 980 979
f 925 594 982
f 982 594 926
f 984 2 985
f 984 980 2
f 985 983 984
f 176 2 175
f 176 177 2
f 97 177 176
f 176 95 97
f 175 41 176
f 41 95 176
f 1136 1095 848
f 1136 1101 1095
f 848 1135 1136
f 1124 52 1133
f 1225 1106 1227
f 60 1112 54
f 60 54 58
f 58 59 60
f 191 13 712
f 712 247 191
f 191 247 13
f 246 590 251
f 13 14 26
f 15 250 26
f 26 14 15
f 1071 705 712
f 712 241 1071
f 236 235 963
f 963 242 236
f 959 235 226
f 226 958 959
f 199 200 135
f 198 200 199
f 135 137 199
f 199 137 198
f 132 138 129
f 132 134 138
f 129 131 132
f 131 134 132
f 967 1242 1228
f 1242 966 1228
f 1228 1246 967
f 1228 200 198
f 1228 966 138
f 1228 198 1229
f 1229 1246 1228
f 961 947 34
f 34 194 961
f 949 947 961
f 961 194 949
f 1156 208 209
f 209 1155 1156
f 127 125 106
f 106 128 127
f 128 104 127
f 1236 1153 1154
f 1154 1155 1236
f 1155 209 1236
f 469 1234 1235
f 1235 468 469
f 222 108 221
f 1013 1014 1017
f 1017 1014 1016
f 148 184 149
f 149 999 148
f 998 999 149
f 182 184 139
f 182 991 998
f 998 149 182
f 182 149 184
f 514 507 691
f 691 519 514
f 514 519 505
f 514 505 497
f 497 507 514
f 480 493 486
f 486 495 484
f 486 499 495
f 486 493 499
f 183 179 151
f 180 179 183
f 181 180 183
f 183 143 144
f 144 145 183
f 183 145 181
f 1197 1216 1205
f 1216 1217 1205
f 1205 1196 1197
f 1201 1196 1205
f 1220 1201 1205
f 1205 187 1220
f 1217 187 1205
f 1220 187 188
f 188 187 22
f 188 189 1220
f 22 189 188
f 723 720 722
f 722 1201 723
f 722 1194 1201
f 724 726 722
f 722 726 1194
f 749 733 745
f 324 752 751
f 751 755 324
f 753 755 746
f 755 751 746
f 740 702 741
f 740 739 702
f 702 738 703
f 738 708 703
f 704 702 703
f 703 705 704
f 731 708 738
f 1078 728 727
f 1078 725 1077
f 727 725 1078
f 1077 971 1078
f 1078 971 970
f 970 728 1078
f 905 906 904
f 915 905 904
f 904 913 915
f 902 913 904
f 976 926 593
f 593 1035 976
f 977 926 976
f 1033 1035 1034
f 1034 1029 1033
f 4 977 975
f 975 169 4
f 977 976 975
f 975 976 1035
f 5 169 975
f 975 1033 974
f 1035 1033 975
f 975 163 5
f 975 974 163
f 607 617 1032
f 609 617 607
f 608 609 607
f 607 606 608
f 1032 606 607
f 1028 1024 1027
f 1028 617 1024
f 1032 617 1028
f 1027 1029 1028
f 618 1022 1026
f 1026 609 618
f 618 635 1022
f 618 623 635
f 618 611 619
f 618 609 611
f 1020 1019 1025
f 1025 1019 1022
f 1022 635 1025
f 1025 636 1020
f 635 636 1025
f 153 152 154
f 152 186 154
f 154 186 156
f 156 1008 154
f 154 1008 1010
f 1010 153 154
f 185 186 11
f 157 185 11
f 11 186 152
f 672 668 676
f 676 683 672
f 682 683 676
f 676 668 670
f 676 670 650
f 650 682 676
f 637 636 632
f 624 637 632
f 632 623 624
f 635 623 632
f 632 636 635
f 665 1250 1249
f 998 991 1249
f 1249 1037 998
f 1249 1250 1037
f 686 684 661
f 1031 604 1032
f 1031 1029 1034
f 1032 1028 1031
f 1031 1028 1029
f 602 613 616
f 616 599 602
f 597 613 602
f 602 599 597
f 591 599 592
f 1034 593 592
f 592 593 591
f 592 599 604
f 592 1031 1034
f 604 1031 592
f 610 605 603
f 603 599 610
f 605 604 603
f 604 599 603
f 620 626 624
f 620 618 619
f 624 623 620
f 623 618 620
f 612 605 622
f 622 625 612
f 608 606 612
f 606 605 612
f 400 698 699
f 699 655 400
f 698 655 699
f 387 357 362
f 362 364 367
f 388 387 362
f 362 367 388
f 382 380 387
f 386 380 379
f 386 357 387
f 387 380 386
f 402 389 403
f 403 308 402
f 349 347 350
f 350 347 348
f 350 355 349
f 1239 1184 1230
f 1184 1239 1183
f 1171 1170 1167
f 223 1170 1171
f 1233 1172 1173
f 124 223 1233
f 1233 1232 124
f 1233 1173 1232
f 1178 1173 344
f 344 1180 1178
f 1176 1168 331
f 1176 333 1168
f 332 333 1176
f 335 333 334
f 334 333 332
f 334 343 335
f 454 445 444
f 444 442 454
f 442 457 454
f 1038 303 454
f 318 445 454
f 454 303 318
f 426 424 425
f 425 439 426
f 427 426 428
f 424 426 427
f 943 1242 1240
f 1244 421 1240
f 421 424 1240
f 1240 1243 1244
f 1242 1243 1240
f 415 422 416
f 416 422 420
f 416 420 1244
f 1244 419 416
f 954 956 946
f 951 954 946
f 946 945 951
f 948 938 955
f 570 555 558
f 558 555 544
f 557 544 541
f 557 558 544
f 575 571 557
f 557 574 575
f 557 571 570
f 570 558 557
f 548 547 545
f 545 555 548
f 544 555 545
f 548 555 556
f 556 578 766
f 556 555 578
f 766 765 556
f 765 553 556
f 289 286 306
f 267 286 289
f 289 306 317
f 302 276 289
f 289 276 267
f 289 317 315
f 315 302 289
f 202 203 204
f 202 204 1230
f 198 137 202
f 137 203 202
f 1229 198 202
f 202 1230 1229
f 113 203 137
f 137 136 113
f 113 136 107
f 112 110 111
f 110 203 111
f 203 113 111
f 111 120 112
f 107 120 111
f 111 113 107
f 205 224 204
f 110 224 205
f 204 203 205
f 205 203 110
f 116 115 117
f 223 115 116
f 117 119 116
f 1163 223 116
f 116 118 1162
f 206 118 116
f 116 119 206
f 116 1162 1163
f 369 360 368
f 325 369 368
f 368 370 325
f 354 359 352
f 369 359 354
f 354 360 369
f 462 1002 472
f 462 461 1002
f 472 1001 462
f 462 1001 478
f 390 396 391
f 392 700 391
f 403 390 391
f 391 700 403
f 502 515 506
f 515 397 506
f 506 485 502
f 485 506 489
f 482 474 484
f 484 485 482
f 463 474 482
f 485 489 482
f 508 490 401
f 401 395 508
f 401 509 395
f 491 490 477
f 491 401 490
f 509 401 491
f 494 488 483
f 494 498 488
f 483 490 494
f 494 490 508
f 508 364 494
f 476 490 483
f 483 470 476
f 476 470 467
f 467 477 476
f 477 490 476
f 832 1193 736
f 1193 726 736
f 736 762 832
f 841 845 855
f 855 845 867
f 868 845 856
f 869 868 856
f 1099 870 856
f 856 870 869
f 872 871 1097
f 871 1098 1097
f 1097 1096 872
f 1094 1096 1097
f 1097 1098 1094
f 865 863 864
f 864 863 854
f 864 867 865
f 864 854 841
f 841 855 864
f 864 855 867
f 852 859 840
f 838 852 840
f 838 849 861
f 861 859 838
f 859 852 838
f 843 847 1099
f 843 845 841
f 841 842 843
f 842 847 843
f 72 78 73
f 73 42 72
f 76 86 85
f 87 86 76
f 76 78 87
f 76 73 78
f 790 853 875
f 875 800 790
f 857 858 875
f 875 853 857
f 851 853 850
f 850 844 851
f 851 857 853
f 840 859 851
f 851 844 840
f 851 859 858
f 858 857 851
f 840 844 1140
f 1140 838 840
f 839 838 1140
f 842 839 1131
f 1117 1114 57
f 90 99 57
f 57 99 1117
f 63 1118 1119
f 559 553 576
f 576 577 559
f 583 577 576
f 576 765 583
f 576 553 765
f 451 441 440
f 440 448 451
f 440 439 448
f 440 441 428
f 428 426 440
f 440 426 439
f 923 1040 1041
f 1041 922 923
f 888 892 886
f 892 891 886
f 1059 900 902
f 1059 891 900
f 41 78 39
f 35 97 100
f 100 97 41
f 1189 809 810
f 810 1188 1189
f 810 809 1202
f 1202 1200 810
f 1200 1188 810
f 1199 1188 1200
f 1209 1198 1199
f 1199 1200 1209
f 1199 1198 1187
f 1187 1188 1199
f 1218 1212 1210
f 1210 1212 1207
f 1211 1108 1210
f 1207 816 1210
f 1210 816 1211
f 1083 1218 1219
f 1107 1083 1219
f 1218 1210 1219
f 1219 1210 1108
f 1214 1211 1086
f 1214 1108 1211
f 1086 1104 1214
f 1214 1219 1108
f 1214 1104 1107
f 1107 1219 1214
f 834 1091 1085
f 1085 835 834
f 834 835 1091
f 1091 835 1100
f 1100 1096 1092
f 1092 1091 1100
f 872 1096 1100
f 1100 877 872
f 1100 879 877
f 1100 835 879
f 75 42 1055
f 978 926 977
f 977 979 978
f 978 982 926
f 978 979 980
f 1125 1136 1135
f 1117 1124 1125
f 1124 1133 1125
f 1125 1133 1136
f 52 1112 1134
f 1134 1133 52
f 1112 1133 1134
f 1145 59 101
f 1145 1227 59
f 1145 101 1225
f 1225 1227 1145
f 1110 1133 1112
f 1101 1136 1110
f 1136 1133 1110
f 1106 1105 1103
f 1103 1227 1106
f 1103 1105 1104
f 1103 1087 1089
f 1104 1087 1103
f 1112 60 1111
f 1111 1110 1112
f 1227 1110 1111
f 59 1227 1111
f 1111 60 59
f 244 242 590
f 590 246 244
f 244 243 242
f 246 243 244
f 13 26 19
f 1073 1076 711
f 711 1072 1073
f 251 970 233
f 970 971 233
f 1075 1076 1074
f 1076 1073 1074
f 240 958 225
f 958 226 225
f 238 226 235
f 138 200 197
f 197 1228 138
f 200 1228 197
f 29 30 31
f 31 131 133
f 31 30 131
f 133 194 201
f 125 127 126
f 126 127 213
f 213 209 126
f 208 125 126
f 126 209 208
f 1153 1236 1149
f 1148 1151 1149
f 1149 1151 1153
f 212 209 213
f 212 1236 209
f 216 1237 1148
f 1148 215 216
f 1234 1237 216
f 213 127 211
f 105 222 151
f 108 222 105
f 105 151 109
f 109 108 105
f 221 143 102
f 102 222 221
f 151 222 150
f 150 183 151
f 143 183 150
f 150 102 143
f 222 102 150
f 158 1017 991
f 991 182 158
f 1013 1017 158
f 139 12 158
f 158 182 139
f 155 1013 158
f 158 12 155
f 730 745 732
f 732 745 733
f 732 718 730
f 759 997 761
f 759 758 997
f 749 758 759
f 749 745 756
f 756 758 749
f 756 745 752
f 756 752 997
f 997 758 756
f 742 751 752
f 742 745 730
f 752 745 742
f 742 746 751
f 738 739 737
f 746 742 737
f 739 740 737
f 712 705 707
f 705 703 707
f 707 703 708
f 708 714 707
f 707 716 712
f 707 714 716
f 716 714 717
f 717 721 716
f 717 720 721
f 714 718 717
f 903 904 906
f 907 908 903
f 903 906 907
f 902 904 903
f 973 974 1030
f 974 1033 1030
f 972 973 1030
f 1030 986 972
f 1030 1033 1029
f 1027 986 1030
f 1030 1029 1027
f 167 11 166
f 157 11 167
f 166 159 167
f 167 159 157
f 10 152 166
f 166 11 10
f 10 11 152
f 1018 1249 991
f 1018 1017 1016
f 991 1017 1018
f 665 1249 1018
f 1036 686 662
f 686 661 662
f 663 1036 662
f 665 1018 660
f 660 1018 1016
f 1016 1014 660
f 657 684 669
f 669 664 657
f 621 611 608
f 608 612 621
f 619 611 621
f 621 620 619
f 626 620 621
f 621 612 625
f 630 626 621
f 621 625 630
f 325 370 372
f 372 373 325
f 387 405 383
f 383 382 387
f 383 405 320
f 320 380 383
f 380 382 383
f 365 386 379
f 357 386 365
f 365 355 357
f 373 372 365
f 406 389 404
f 389 402 404
f 308 406 404
f 404 402 308
f 1177 350 348
f 1177 348 1166
f 1166 1151 1177
f 1177 1151 351
f 351 498 358
f 358 362 357
f 1179 1180 418
f 1173 1178 1179
f 1179 1178 1180
f 1232 1173 1179
f 124 1232 1182
f 1182 224 124
f 1232 1179 1182
f 437 1183 1239
f 437 418 411
f 411 1183 437
f 1172 1233 1238
f 1167 1172 1238
f 1238 1171 1167
f 223 1171 1238
f 1238 1233 223
f 455 457 1038
f 1038 454 455
f 455 454 457
f 424 427 1241
f 1241 1240 424
f 943 1240 1241
f 1241 942 943
f 928 942 1241
f 411 415 417
f 415 416 417
f 417 416 419
f 417 1183 411
f 417 419 1245
f 1245 1184 417
f 1184 1183 417
f 944 946 956
f 956 955 944
f 944 955 938
f 945 946 944
f 939 945 944
f 944 938 939
f 574 557 542
f 542 557 541
f 536 533 542
f 542 538 536
f 542 541 538
f 573 574 542
f 542 533 573
f 543 545 547
f 543 550 546
f 543 547 550
f 546 962 543
f 962 540 543
f 540 544 543
f 544 545 543
f 548 556 549
f 551 547 549
f 549 547 548
f 549 556 553
f 549 554 551
f 549 553 554
f 345 354 330
f 330 334 332
f 330 1176 331
f 332 1176 330
f 331 346 330
f 346 345 330
f 353 354 345
f 353 355 361
f 360 354 353
f 345 347 353
f 353 368 360
f 353 347 349
f 349 355 353
f 361 370 353
f 370 368 353
f 474 461 473
f 461 462 473
f 473 462 478
f 473 478 480
f 484 474 473
f 480 486 473
f 473 486 484
f 394 396 398
f 394 391 396
f 394 397 392
f 392 391 394
f 399 489 506
f 399 506 397
f 399 394 398
f 397 394 399
f 467 465 475
f 475 477 467
f 475 465 463
f 463 482 475
f 475 482 489
f 734 733 749
f 724 733 734
f 735 726 724
f 735 736 726
f 724 734 735
f 735 734 749
f 837 839 841
f 837 838 839
f 849 838 837
f 841 854 837
f 854 849 837
f 846 843 1099
f 845 843 846
f 1099 856 846
f 846 856 845
f 50 66 1119
f 50 51 66
f 48 51 50
f 67 69 47
f 789 800 799
f 789 790 800
f 799 791 789
f 781 790 789
f 791 778 789
f 789 778 781
f 783 790 781
f 850 853 783
f 853 790 783
f 1117 1125 1130
f 1130 1125 1135
f 1130 1135 842
f 842 1131 1130
f 1119 66 71
f 71 63 1119
f 793 794 784
f 895 894 896
f 1042 1040 35
f 1042 1041 1040
f 922 1041 1046
f 1046 1059 922
f 1048 891 1046
f 891 1059 1046
f 1047 1049 1048
f 40 39 79
f 79 1047 40
f 78 75 79
f 79 39 78
f 75 1055 79
f 1143 1141 782
f 1143 783 781
f 782 783 1143
f 1138 1140 844
f 1138 844 850
f 1128 1140 1138
f 981 978 980
f 981 984 983
f 980 984 981
f 982 978 981
f 925 982 981
f 981 601 925
f 981 983 601
f 1101 1110 1109
f 1109 1110 1227
f 242 243 237
f 237 236 242
f 235 236 237
f 237 238 235
f 13 19 18
f 1075 1074 248
f 248 1074 232
f 239 225 226
f 226 238 239
f 240 225 239
f 238 237 239
f 239 250 240
f 239 237 26
f 239 26 250
f 249 31 32
f 29 31 249
f 249 956 240
f 249 250 29
f 240 250 249
f 249 955 956
f 249 32 34
f 249 34 948
f 948 955 249
f 33 31 133
f 32 31 33
f 133 201 33
f 34 32 33
f 33 194 34
f 33 201 194
f 1150 1149 1236
f 1236 212 1150
f 1148 1149 210
f 1149 1150 210
f 210 1150 212
f 210 212 213
f 213 211 210
f 219 1235 1234
f 221 108 219
f 219 108 468
f 468 1235 219
f 1234 216 217
f 103 216 215
f 103 217 216
f 103 104 221
f 221 217 103
f 104 103 220
f 220 103 215
f 220 127 104
f 220 211 127
f 215 210 220
f 220 210 211
f 719 733 724
f 719 732 733
f 718 732 719
f 724 722 719
f 719 722 720
f 720 717 719
f 719 717 718
f 715 714 708
f 715 718 714
f 708 731 715
f 715 731 730
f 730 718 715
f 762 736 754
f 761 762 754
f 754 759 761
f 736 735 754
f 749 759 754
f 754 735 749
f 746 737 744
f 744 737 740
f 744 747 753
f 753 746 744
f 741 747 744
f 744 740 741
f 729 731 738
f 738 737 729
f 730 731 729
f 729 742 730
f 729 737 742
f 901 903 908
f 922 1059 901
f 901 1059 902
f 902 903 901
f 901 908 923
f 923 922 901
f 1021 662 661
f 663 662 1021
f 1015 663 1021
f 1021 1014 1015
f 1021 660 1014
f 659 661 684
f 684 657 659
f 659 1021 661
f 660 1021 659
f 374 365 379
f 373 365 374
f 374 379 320
f 374 320 325
f 325 373 374
f 361 355 366
f 355 365 366
f 366 365 372
f 366 370 361
f 366 372 370
f 363 358 498
f 363 494 364
f 498 494 363
f 364 362 363
f 362 358 363
f 516 358 357
f 357 355 516
f 355 350 516
f 350 1177 516
f 516 1177 351
f 351 358 516
f 204 224 1231
f 224 1182 1231
f 1231 1182 1239
f 1230 204 1231
f 1231 1239 1230
f 1181 437 1239
f 1239 1182 1181
f 1181 1182 1179
f 1181 1179 418
f 418 437 1181
f 941 1241 427
f 941 428 429
f 941 427 428
f 941 429 928
f 928 1241 941
f 334 330 342
f 342 330 354
f 343 334 342
f 352 343 342
f 342 354 352
f 487 475 489
f 489 399 487
f 487 491 477
f 477 475 487
f 487 399 398
f 398 509 487
f 509 491 487
f 1066 899 1065
f 899 898 1065
f 69 67 84
f 1066 1065 84
f 84 67 1069
f 80 76 85
f 73 76 74
f 76 77 74
f 42 73 74
f 74 1055 42
f 76 80 44
f 44 80 68
f 68 1065 44
f 49 67 47
f 47 48 49
f 1123 1069 49
f 1069 67 49
f 1132 1069 1123
f 776 899 1141
f 1118 63 1113
f 1113 1115 1118
f 1127 1115 1131
f 1127 1140 1128
f 1128 1118 1127
f 1118 1115 1127
f 839 1140 1127
f 1127 1131 839
f 63 71 62
f 62 57 1114
f 1114 1115 62
f 62 1113 63
f 1115 1113 62
f 1131 1115 1116
f 1116 1130 1131
f 1117 1130 1116
f 1116 1114 1117
f 1116 1115 1114
f 66 51 70
f 70 71 66
f 70 48 47
f 70 51 48
f 90 57 89
f 71 70 89
f 57 62 89
f 89 62 71
f 89 70 47
f 89 88 90
f 47 88 89
f 792 793 771
f 788 794 795
f 788 784 794
f 785 784 788
f 788 787 785
f 893 1055 1060
f 1060 894 893
f 1055 74 1060
f 1060 77 1062
f 1060 74 77
f 897 895 896
f 786 1056 893
f 893 894 786
f 894 895 786
f 786 895 785
f 785 787 786
f 35 100 1045
f 1049 1047 1050
f 40 1047 36
f 36 1045 100
f 1047 1045 36
f 890 886 891
f 890 885 886
f 890 891 1048
f 1067 885 1058
f 1227 1103 1102
f 1102 1109 1227
f 245 237 243
f 245 243 246
f 13 18 25
f 25 241 13
f 1070 705 25
f 25 1072 1070
f 705 1071 25
f 25 1071 241
f 227 19 232
f 232 1074 227
f 227 1074 1073
f 1073 230 227
f 229 18 19
f 19 227 229
f 229 227 230
f 231 230 1073
f 231 25 18
f 18 229 231
f 231 229 230
f 231 1073 1072
f 1072 25 231
f 21 245 28
f 237 245 21
f 21 28 251
f 21 19 26
f 26 237 21
f 232 19 228
f 19 21 228
f 214 215 1148
f 1148 210 214
f 214 210 215
f 221 219 218
f 218 217 221
f 218 219 1234
f 1234 217 218
f 658 659 657
f 658 664 665
f 658 657 664
f 665 660 658
f 660 659 658
f 1061 1060 1062
f 896 894 1061
f 894 1060 1061
f 83 1065 68
f 68 84 83
f 83 84 1065
f 1066 84 1068
f 1068 84 1069
f 1068 899 1066
f 68 80 82
f 69 84 82
f 47 69 82
f 82 85 47
f 82 80 85
f 43 77 76
f 76 44 43
f 1062 77 43
f 43 1061 1062
f 46 49 48
f 48 50 46
f 1122 1132 1123
f 1123 49 1122
f 1122 46 1121
f 49 46 1122
f 1069 1132 1142
f 1142 1068 1069
f 899 1068 1142
f 1141 899 1142
f 782 1141 1137
f 1141 1142 1137
f 1137 1142 1132
f 1141 1143 780
f 780 776 1141
f 1144 898 899
f 899 776 1144
f 1144 776 774
f 1144 897 898
f 774 776 775
f 776 780 775
f 793 784 769
f 769 771 793
f 889 795 796
f 889 788 795
f 787 788 889
f 886 885 884
f 884 885 1067
f 787 883 882
f 882 786 787
f 882 884 1067
f 883 884 882
f 1056 786 882
f 882 1058 1056
f 1067 1058 882
f 1043 1042 35
f 35 1045 1043
f 1041 1042 1043
f 1044 1047 1048
f 1044 1045 1047
f 1048 1046 1044
f 1044 1046 1041
f 1041 1043 1044
f 1044 1043 1045
f 893 1056 1053
f 1053 1055 893
f 1047 79 1051
f 1051 1050 1047
f 38 39 40
f 40 36 38
f 38 36 100
f 41 39 38
f 38 100 41
f 1048 1049 1057
f 1057 890 1048
f 885 890 1057
f 1049 1058 1057
f 1057 1058 885
f 1056 1058 1052
f 1052 1058 1049
f 1052 1053 1056
f 1049 1050 1052
f 1050 1053 1052
f 1090 1103 1089
f 1090 1102 1103
f 1090 1091 1092
f 1089 1085 1090
f 1085 1091 1090
f 27 246 251
f 27 245 246
f 251 28 27
f 28 245 27
f 20 248 232
f 232 228 20
f 20 228 21
f 1063 44 1065
f 1063 43 44
f 1061 43 1063
f 81 84 68
f 68 82 81
f 81 82 84
f 1119 1118 1120
f 1120 50 1119
f 1120 1122 1121
f 1120 46 50
f 1121 46 1120
f 782 1137 1139
f 1139 1138 850
f 850 783 1139
f 1139 783 782
f 1132 1122 1129
f 1129 1137 1132
f 1122 1120 1129
f 1138 1139 1129
f 1129 1139 1137
f 895 897 773
f 897 1144 773
f 773 1144 774
f 777 775 778
f 792 771 777
f 777 791 792
f 777 778 791
f 779 775 780
f 779 1143 781
f 779 780 1143
f 781 778 779
f 778 775 779
f 770 784 785
f 770 769 784
f 785 895 770
f 895 773 770
f 887 883 787
f 787 889 887
f 887 919 888
f 796 919 887
f 887 889 796
f 888 886 887
f 886 884 887
f 887 884 883
f 1055 1053 1054
f 1054 1053 1050
f 1054 79 1055
f 1054 1051 79
f 1050 1051 1054
f 1102 1090 1093
f 1095 1101 1093
f 1093 1090 1092
f 1101 1109 1093
f 1109 1102 1093
f 1093 1092 1094
f 1094 1095 1093
f 248 20 234
f 1075 248 234
f 234 20 21
f 234 971 1075
f 234 233 971
f 251 233 234
f 234 21 251
f 1064 1063 1065
f 1061 1063 1064
f 1064 1065 898
f 898 897 1064
f 1064 897 896
f 896 1061 1064
f 1126 1118 1128
f 1126 1120 1118
f 1126 1129 1120
f 1128 1138 1126
f 1138 1129 1126
f 772 777 771
f 775 777 772
f 774 775 772
f 772 773 774
f 772 770 773
f 771 769 772
f 769 770 772

