# https://github.com/mikedh/trimesh
v -0.04067152 -0.01727594 0.18493217
v -0.04056902 -0.01742799 0.18493217
v -0.04067152 -0.01170088 0.20764230
v -0.04067152 0.01743513 0.18493217
v -0.03962947 -0.01880274 0.18493217
v -0.03034211 -0.01643335 0.22771392
v -0.03252871 -0.01398792 0.22748776
v -0.04067152 -0.01047184 0.20989447
v -0.03866144 -0.01992409 0.18493217
v -0.03711829 -0.02088072 0.18792877
v -0.03669692 -0.02041825 0.19140126
v -0.03640081 -0.02009514 0.19372410
v -0.03523918 -0.02131786 0.19372410
v -0.03498864 -0.02106444 0.19556635
v -0.03477225 -0.02084904 0.19711648
v -0.04067152 0.01177771 0.20764230
v -0.03966933 0.01885423 0.18493217
v -0.02886730 -0.01727594 0.22847720
v -0.02972144 -0.01579348 0.22926405
v -0.03115639 -0.01488753 0.22837355
v -0.02801885 -0.01870771 0.22769036
v -0.03197637 -0.01332905 0.22903318
v -0.03289314 -0.01263217 0.22836412
v -0.03494878 -0.00959123 0.22774219
v -0.03518224 -0.00800741 0.22851961
v -0.03574597 -0.00579639 0.22851961
v -0.03647484 -0.00579639 0.22619677
v -0.03689622 -0.00325594 0.22597532
v -0.03699871 -0.00115896 0.22650773
v -0.04067152 -0.00772865 0.21035150
v -0.03775036 -0.02095041 0.18493217
v -0.03747134 -0.02126084 0.18493217
v -0.03629832 -0.02246454 0.18493217
v -0.03553529 -0.02160928 0.19140126
v -0.03479503 -0.02319310 0.18791935
v -0.03463559 -0.02305373 0.18908312
v -0.03431671 -0.02276864 0.19140126
v -0.03398644 -0.02247722 0.19372410
v -0.04067152 0.01158765 0.20836319
v -0.03845645 0.02029868 0.18493217
v -0.03872977 0.01998191 0.18493217
v -0.02732415 -0.01811853 0.22923578
v -0.02817260 -0.01657272 0.22980589
v -0.03043322 -0.01424767 0.22980118
v -0.03257996 -0.01177691 0.22974935
v -0.03259704 -0.02329447 0.19527423
v -0.03235219 -0.02309807 0.19681965
v -0.03030225 -0.02330714 0.20228516
v -0.03001184 -0.02542313 0.19448738
v -0.02537101 -0.02079203 0.22667264
v -0.02382217 -0.02122283 0.22809556
v -0.02449979 -0.02042458 0.22872692
v -0.02309900 -0.02082370 0.22964098
v -0.02660098 -0.01915752 0.22848663
v -0.03406047 -0.01039581 0.22851961
v -0.03447615 -0.00871062 0.22929232
v -0.03486336 -0.00715848 0.22973050
v -0.03606485 -0.00347767 0.22851961
v -0.03953266 0.00055791 0.21613740
v -0.03953266 -0.00058878 0.21613740
v -0.03622429 -0.00115896 0.22851961
v -0.03622429 0.00115976 0.22851961
v -0.03701010 0.00134348 0.22620619
v -0.04067152 0.00809691 0.21037035
v -0.03518224 -0.02353521 0.18493217
v -0.03491461 -0.02375694 0.18493217
v -0.03380423 -0.02467556 0.18493217
v -0.03315508 -0.02375694 0.19140126
v -0.03282481 -0.02348453 0.19372410
v -0.04067152 0.01054866 0.20996043
v -0.03496016 0.00961738 0.22779402
v -0.03256288 0.01403308 0.22757257
v -0.03039906 0.01649117 0.22784585
v -0.03481211 0.02089420 0.19726254
v -0.03497725 0.02105891 0.19604223
v -0.03674816 0.02046973 0.19140126
v -0.03697024 0.02071681 0.18964852
v -0.03715815 0.02091954 0.18810310
v -0.03753967 0.02132500 0.18493217
v -0.02577531 -0.01872039 0.22976348
v -0.02660098 -0.01736463 0.22997551
v -0.02896979 -0.01504592 0.22999906
v -0.03124750 -0.01263217 0.22995666
v -0.03131583 -0.01043382 0.23038071
v -0.03289314 -0.01043382 0.22988127
v -0.03167457 -0.02491630 0.19140126
v -0.03115639 -0.02476426 0.19371939
v -0.03147527 -0.02395967 0.19604694
v -0.03027948 -0.02560051 0.19294196
v -0.02914062 -0.02611367 0.19371939
v -0.02855980 -0.02593628 0.19604223
v -0.02184057 -0.02269895 0.22607427
v -0.02809857 -0.02567020 0.19836036
v -0.02785372 -0.02553083 0.19956654
v -0.02734693 -0.02760880 0.19140126
v -0.02066185 -0.02311708 0.22676688
v -0.01911871 -0.02340217 0.22783642
v -0.02155585 -0.02107711 0.22979176
v -0.02221069 -0.01991776 0.23008859
v -0.02435743 -0.01922087 0.22991425
v -0.01782611 -0.02291435 0.22938184
v -0.01628296 -0.02320577 0.22968338
v -0.03367326 -0.00800741 0.23000849
v -0.03363909 -0.00579639 0.23030061
v -0.03498864 -0.00579639 0.22982002
v -0.03511960 -0.00347767 0.22990012
v -0.03518794 -0.00115896 0.22992368
v -0.03519363 0.00115976 0.22992839
v -0.03513099 0.00347848 0.22990954
v -0.03606485 0.00347848 0.22851961
v -0.03681650 0.00347848 0.22619677
v -0.03261412 -0.02561952 0.18493217
v -0.03227816 -0.02537244 0.18724087
v -0.03201623 -0.02516971 0.18908312
v -0.03575167 0.00579720 0.22851961
v -0.03518794 0.00803355 0.22854788
v -0.03454448 0.00875578 0.22934415
v -0.03417435 0.01040929 0.22854788
v -0.03298425 0.01272167 0.22841595
v -0.03209025 0.01346923 0.22911799
v -0.03124181 0.01499604 0.22848191
v -0.02988657 0.01595900 0.22939126
v -0.02898118 0.01739078 0.22861384
v -0.02808149 0.01876554 0.22783642
v -0.02947089 0.01788493 0.22619677
v -0.03258566 0.02098289 0.20453732
v -0.03281342 0.02119196 0.20300133
v -0.03315508 0.02150872 0.20068320
v -0.03374729 0.02163543 0.19816718
v -0.03406047 0.02252237 0.19372410
v -0.03528474 0.02136301 0.19372410
v -0.03438504 0.02282013 0.19140126
v -0.03558653 0.02166077 0.19140126
v -0.03664567 0.02224361 0.18493217
v -0.02435743 -0.01739631 0.23043725
v -0.02667500 -0.01507759 0.23052206
v -0.02899826 -0.01275888 0.23050321
v -0.02899826 -0.01043382 0.23088485
v -0.03131583 -0.00811511 0.23070581
v -0.03051294 -0.02576523 0.19140126
v -0.02974421 -0.02759613 0.18493217
v -0.02899826 -0.02669652 0.19140126
v -0.02767719 -0.02776085 0.18986055
v -0.02661236 -0.02743141 0.19384660
v -0.02618530 -0.02814730 0.19140126
v -0.02579808 -0.02796358 0.19315399
v -0.02542796 -0.02779886 0.19470412
v -0.02453396 -0.02836270 0.19384660
v -0.02435743 -0.02893921 0.19140126
v -0.02312747 -0.03013658 0.18781098
v -0.02203986 -0.02933834 0.19372410
v -0.01739904 -0.02425110 0.22619677
v -0.01718835 -0.02356689 0.22857144
v -0.02110031 -0.02791923 0.20224747
v -0.01971660 -0.02139388 0.22992368
v -0.01971660 -0.01971503 0.23049850
v -0.02203986 -0.01739631 0.23079534
v -0.01507577 -0.02323745 0.22971166
v -0.01507577 -0.02203374 0.23014984
v -0.01718835 -0.02209710 0.22998022
v -0.01507577 -0.02390265 0.22851961
v -0.01275821 -0.02399768 0.22851961
v -0.03131583 -0.00579639 0.23090841
v -0.03363909 -0.00347767 0.23044667
v -0.03363909 -0.00115896 0.23051264
v -0.03363909 0.00115976 0.23052206
v -0.03363909 0.00347848 0.23047023
v -0.03499433 0.00579720 0.22982944
v -0.03486906 0.00720997 0.22973521
v -0.03134430 -0.02651913 0.18493217
v -0.03085460 -0.02600597 0.18908312
v -0.03266537 0.01192342 0.22981531
v -0.02834342 0.01674458 0.22987185
v -0.02752345 0.01829039 0.22938655
v -0.03054141 0.01441319 0.22986242
v -0.02672056 0.01927870 0.22857615
v -0.02494394 0.02046340 0.22851961
v -0.02543365 0.02083084 0.22703544
v -0.03014851 0.02319391 0.20414155
v -0.03185109 0.02267441 0.20068320
v -0.03241482 0.02314956 0.19700812
v -0.03350813 0.02238299 0.19615531
v -0.03264829 0.02333962 0.19545798
v -0.03289884 0.02355502 0.19372410
v -0.03462990 0.02304186 0.18962026
v -0.03483489 0.02323192 0.18807484
v -0.03615596 0.02272510 0.18493217
v -0.02435743 -0.01507759 0.23092726
v -0.02667500 -0.01275888 0.23092726
v -0.02667500 -0.01043382 0.23122410
v -0.02899826 -0.00811511 0.23115342
v -0.02858258 -0.02824867 0.18493217
v -0.02797899 -0.02791290 0.18831513
v -0.02667500 -0.02918629 0.18493217
v -0.02667500 -0.02883151 0.18676029
v -0.02493255 -0.02995286 0.18493217
v -0.02435743 -0.02938902 0.18908312
v -0.02157863 -0.03036465 0.18908312
v -0.02110601 -0.03022528 0.19061912
v -0.02274026 -0.03001621 0.18908312
v -0.02431188 -0.02982616 0.18692519
v -0.02350329 -0.03027596 0.18626556
v -0.02207403 -0.03095384 0.18493217
v -0.02222778 -0.03056105 0.18692519
v -0.02194306 -0.02981982 0.19139654
v -0.02057644 -0.03008590 0.19216454
v -0.01507577 -0.02466289 0.22619677
v -0.01902760 -0.03026962 0.19311629
v -0.01826457 -0.03011124 0.19466171
v -0.01739904 -0.01971503 0.23071524
v -0.01971660 -0.01739631 0.23102621
v -0.02203986 -0.01507759 0.23119582
v -0.01275821 -0.02326913 0.22973521
v -0.01275821 -0.02203374 0.23019224
v -0.01507577 -0.01971503 0.23082832
v -0.01275821 -0.02478326 0.22619677
v -0.01044064 -0.02393433 0.22851961
v -0.01044064 -0.02325012 0.22971637
v -0.02899826 -0.00579639 0.23131361
v -0.03131583 -0.00347767 0.23102149
v -0.03131583 -0.00115896 0.23108746
v -0.03131583 0.00115976 0.23111101
v -0.03131583 0.00347848 0.23106389
v -0.03131583 0.00579720 0.23095553
v -0.03363909 0.00579720 0.23032888
v -0.03371881 0.00803355 0.23004618
v -0.03301272 0.01043463 0.22996137
v -0.03131583 0.01043463 0.23050792
v -0.03131583 0.01272167 0.23005561
v -0.02672056 0.01746680 0.23008859
v -0.02598030 0.01882256 0.22982944
v -0.02906659 0.01514175 0.23010272
v -0.02328691 0.02092587 0.22971637
v -0.02378231 0.02120463 0.22851961
v -0.02079282 0.02316857 0.22715795
v -0.02765442 0.02541760 0.20142293
v -0.02797899 0.02559498 0.19987751
v -0.03010865 0.02548728 0.19474652
v -0.03039336 0.02338397 0.20259613
v -0.03069516 0.02361837 0.20068320
v -0.03120764 0.02486009 0.19387016
v -0.03179415 0.02499313 0.19140126
v -0.03214150 0.02525921 0.18908312
v -0.03236927 0.02543660 0.18754713
v -0.03322911 0.02383377 0.19140126
v -0.03377006 0.02394147 0.18894177
v -0.03500572 0.02339030 0.18676029
v -0.03523918 0.02359937 0.18493217
v -0.02435743 -0.01275888 0.23124294
v -0.02435743 -0.01043382 0.23145026
v -0.02667500 -0.00811511 0.23142669
v -0.02381078 -0.03039633 0.18493217
v -0.02155016 -0.03109321 0.18493217
v -0.01971660 -0.03156836 0.18493217
v -0.01971660 -0.03125160 0.18676029
v -0.02359440 -0.03046602 0.18493217
v -0.01971660 -0.03083980 0.18908312
v -0.01976785 -0.03041534 0.19139654
v -0.01745028 -0.03039633 0.19382304
v -0.01671572 -0.03023162 0.19524596
v -0.01496189 -0.03032030 0.19602809
v -0.01411344 -0.03018093 0.19734264
v -0.01739904 -0.03125793 0.18908312
v -0.01739904 -0.03085247 0.19140126
v -0.01739904 -0.01739631 0.23116284
v -0.01971660 -0.01507759 0.23133717
v -0.02203986 -0.01275888 0.23142669
v -0.01044064 -0.02203374 0.23016397
v -0.01044064 -0.01971503 0.23083774
v -0.01275821 -0.01971503 0.23085658
v -0.01507577 -0.01739631 0.23123823
v -0.01044064 -0.02470090 0.22619677
v -0.01354971 -0.03018093 0.19734264
v -0.00828251 -0.02366191 0.22866095
v -0.00916512 -0.02321211 0.22969281
v -0.02667500 -0.00579639 0.23155862
v -0.02899826 -0.00347767 0.23140314
v -0.02899826 -0.00115896 0.23145497
v -0.02899826 0.00115976 0.23147852
v -0.02899826 0.00347848 0.23145497
v -0.02899826 0.00579720 0.23138900
v -0.02899826 0.00811591 0.23125236
v -0.03131583 0.00811591 0.23077649
v -0.02899826 0.01043463 0.23099793
v -0.02899826 0.01275968 0.23063985
v -0.02667500 0.01507840 0.23067283
v -0.02435743 0.01739712 0.23057389
v -0.02418091 0.01964615 0.22995195
v -0.02203986 0.01971583 0.23030532
v -0.02203986 0.02114127 0.22984358
v -0.01660184 0.02326993 0.22973993
v -0.01814499 0.02302919 0.22950906
v -0.01924967 0.02344732 0.22796364
v -0.01739904 0.02439128 0.22619677
v -0.01989882 0.02361837 0.22630984
v -0.02285984 0.03005503 0.18971448
v -0.02330969 0.03020074 0.18816907
v -0.02435743 0.02911741 0.19140126
v -0.02555892 0.02785668 0.19497739
v -0.02584933 0.02798973 0.19372410
v -0.02700527 0.02743855 0.19372410
v -0.02680027 0.02601311 0.20066436
v -0.02752345 0.02768563 0.19140126
v -0.02779677 0.02781867 0.19014796
v -0.02826940 0.02576604 0.19836036
v -0.02870786 0.02601945 0.19604223
v -0.02919756 0.02620951 0.19387016
v -0.02899826 0.02686204 0.19140126
v -0.02984671 0.02770464 0.18493217
v -0.03035920 0.02565834 0.19319639
v -0.03258566 0.02560132 0.18600171
v -0.03353090 0.02506282 0.18493217
v -0.03063252 0.02585473 0.19140126
v -0.03097987 0.02609547 0.18908312
v -0.03148097 0.02622218 0.18676971
v -0.03120195 0.02679869 0.18493217
v -0.03418005 0.02451798 0.18493217
v -0.01275821 -0.00115896 0.23294385
v -0.02435743 -0.00811511 0.23161516
v -0.01739904 -0.03196748 0.18493217
v -0.01739904 -0.03165706 0.18676029
v -0.01507577 -0.03073210 0.19372410
v -0.01507577 -0.03113756 0.19140126
v -0.01507577 -0.03153035 0.18908312
v -0.01275821 -0.03158103 0.18908312
v -0.01275821 -0.03119458 0.19140126
v -0.01739904 -0.01507759 0.23142669
v -0.00812307 -0.01971503 0.23076236
v -0.00828251 -0.02216045 0.23000849
v -0.00812307 -0.01739631 0.23116755
v -0.01044064 -0.01739631 0.23123352
v -0.01275821 -0.01739631 0.23125708
v -0.01044064 -0.00115896 0.23301453
v -0.01507577 -0.01507759 0.23148324
v -0.00812307 -0.02443482 0.22619677
v -0.01275821 -0.03079546 0.19372410
v -0.01044064 -0.03027596 0.19553808
v -0.00895443 -0.03020627 0.19514230
v -0.00580550 -0.02349086 0.22796364
v -0.00761628 -0.02301571 0.22952790
v -0.00216117 -0.02093774 0.22971637
v -0.00348224 -0.02113413 0.22982002
v -0.00580550 -0.02153326 0.22997080
v -0.02667500 -0.00347767 0.23163872
v -0.02667500 -0.00115896 0.23167641
v -0.02667500 0.00115976 0.23169526
v -0.02667500 0.00347848 0.23168584
v -0.02667500 0.00579720 0.23164343
v -0.02667500 0.00811591 0.23155391
v -0.02667500 0.01043463 0.23136544
v -0.02667500 0.01275968 0.23105919
v -0.02435743 0.01507840 0.23104505
v -0.02203986 0.01739712 0.23085658
v -0.01971660 0.01971583 0.23057860
v -0.01971660 0.02155940 0.22998965
v -0.01507577 0.02335229 0.22980589
v -0.01507577 0.02407451 0.22851961
v -0.01738195 0.02365005 0.22864682
v -0.01738195 0.02216759 0.23003205
v -0.01507577 0.02203455 0.23025350
v -0.01507577 0.02478407 0.22619677
v -0.01615769 0.03015006 0.19715889
v -0.01698905 0.03029577 0.19561347
v -0.01853789 0.03015640 0.19486431
v -0.01989313 0.03049850 0.19157087
v -0.02078143 0.03013739 0.19245196
v -0.02131100 0.03028310 0.19090654
v -0.02203986 0.03083427 0.18676029
v -0.02203986 0.03115737 0.18493217
v -0.02237583 0.03104967 0.18493217
v -0.02363426 0.03032745 0.18676029
v -0.02420938 0.03043515 0.18493217
v -0.02521727 0.03003602 0.18494159
v -0.02479589 0.02985863 0.18676029
v -0.02419230 0.02967491 0.18899832
v -0.02636182 0.02823680 0.19140126
v -0.02891285 0.02735619 0.18925746
v -0.02688569 0.02842686 0.18925746
v -0.02667500 0.02901604 0.18676029
v -0.02652695 0.02944051 0.18493217
v -0.02808149 0.02797072 0.18860254
v -0.02988657 0.02767930 0.18493217
v -0.02840606 0.02815444 0.18676029
v -0.02889007 0.02824314 0.18493217
v -0.03273370 0.02571535 0.18493217
v -0.02995490 0.02763495 0.18493217
v -0.01275821 0.00115976 0.23299096
v -0.01690933 -0.03202450 0.18493217
v -0.01509855 -0.03221456 0.18493217
v -0.01454621 -0.03222723 0.18493217
v -0.01044064 -0.03179643 0.18676029
v -0.01044064 -0.03140998 0.18908312
v -0.01275821 -0.03196115 0.18676029
v -0.01259877 -0.03225257 0.18493217
v -0.01205212 -0.03221456 0.18493217
v -0.01044064 -0.03210052 0.18493217
v -0.01044064 -0.03101719 0.19140126
v -0.00580550 -0.01971503 0.23057860
v -0.00580550 -0.01739631 0.23103091
v 0.01275782 -0.00347767 0.23152564
v -0.00580550 -0.01507759 0.23129477
v 0.01275782 -0.00115896 0.23171411
v -0.01044064 0.00115976 0.23306164
v -0.00580550 -0.02387731 0.22619677
v -0.00443318 -0.02327546 0.22754429
v -0.00740559 -0.03009223 0.19450152
v -0.00666534 -0.03022528 0.19295610
v -0.00585675 -0.02989584 0.19372410
v -0.01044064 -0.03060539 0.19372410
v -0.00812307 -0.03113756 0.18908312
v -0.00812307 -0.03073844 0.19140126
v -0.00815724 -0.03033931 0.19372410
v -0.00580550 -0.02269895 0.22912741
v -0.00130134 -0.02134953 0.22853846
v -0.00061802 -0.02052595 0.22932530
v 0.00234300 -0.01857467 0.22968810
v 0.00115859 -0.01888510 0.22981531
v -0.00130134 -0.01974037 0.22997551
v -0.00348224 -0.01971503 0.23030532
v -0.02435743 0.00811591 0.23173295
v -0.02435743 0.01043463 0.23160574
v -0.02435743 0.01275968 0.23138429
v -0.02203986 0.01507840 0.23129477
v -0.01971660 0.01739712 0.23105919
v -0.01739904 0.01971583 0.23074351
v -0.01275821 0.02341564 0.22984829
v -0.01275821 0.02420122 0.22851961
v -0.01275821 0.02203455 0.23031946
v -0.01507577 0.01971583 0.23082832
v -0.01275821 0.02491077 0.22619677
v -0.01460884 0.03022608 0.19756409
v -0.01525799 0.03040981 0.19624954
v -0.01507577 0.03089129 0.19372410
v -0.01739904 0.03143612 0.18908312
v -0.01739904 0.03101166 0.19140126
v -0.01971660 0.03099899 0.18908312
v -0.01971660 0.03142345 0.18676029
v -0.01971660 0.03174655 0.18493217
v -0.02520019 0.03004236 0.18493217
v -0.02698249 0.02921244 0.18493217
v -0.02203986 0.01043463 0.23175651
v -0.01971660 0.01275968 0.23168584
v -0.02203986 0.01275968 0.23157746
v -0.00812307 -0.03184078 0.18493217
v -0.00116467 -0.01739631 0.23059273
v -0.00348224 -0.01739631 0.23083302
v 0.01275782 -0.00579639 0.23111572
v 0.01507538 -0.00347767 0.23125708
v 0.01507538 -0.00115896 0.23141727
v 0.01275782 0.00115976 0.23171411
v 0.01275782 0.00347848 0.23153507
v -0.00812307 0.01507840 0.23144083
v -0.00812307 0.01739712 0.23118640
v -0.01044064 0.01507840 0.23152564
v -0.01275821 0.01507840 0.23154920
v -0.01507577 0.01507840 0.23155391
v -0.01739904 0.01275968 0.23175651
v -0.00512219 -0.03004789 0.19194310
v -0.00116467 -0.02207176 0.22619677
v 0.00033292 -0.02105811 0.22777517
v -0.00455846 -0.03018093 0.19039297
v -0.00348224 -0.02922430 0.19372410
v -0.00242880 -0.02780520 0.19934038
v -0.00205867 -0.02795091 0.19779496
v -0.00167146 -0.02812196 0.19604223
v -0.00017387 -0.02776085 0.19446382
v -0.00580550 -0.03140998 0.18493217
v -0.00580550 -0.03109955 0.18676029
v -0.00580550 -0.03070042 0.18908312
v 0.01750114 -0.00824181 0.22860442
v 0.01750114 -0.00732319 0.22992839
v 0.01750114 -0.00579639 0.23045139
v 0.00115859 -0.01739631 0.23025820
v 0.00284979 -0.01895479 0.22851961
v -0.01971660 0.01507840 0.23142669
v -0.01739904 0.01739712 0.23118640
v -0.01044064 0.02203455 0.23030061
v -0.01044064 0.02339030 0.22982944
v -0.01044064 0.02415054 0.22851961
v -0.01275821 0.01971583 0.23087072
v -0.01044064 0.01971583 0.23086130
v -0.01507577 0.01739712 0.23125236
v -0.01044064 0.02485376 0.22619677
v -0.01275821 0.03051751 0.19604223
v -0.01275821 0.03094831 0.19372410
v -0.01275821 0.03136010 0.19140126
v -0.01507577 0.03130309 0.19140126
v -0.01507577 0.03170854 0.18908312
v -0.01739904 0.03184158 0.18676029
v -0.01734779 0.03216468 0.18493217
v -0.01739904 0.01507840 0.23150679
v 0.01507538 -0.00579639 0.23084716
v 0.01739865 -0.00579639 0.23047023
v 0.01739865 -0.00347767 0.23084245
v 0.01739865 -0.00115896 0.23097438
v 0.01507538 0.00115976 0.23141256
v 0.01507538 0.00347848 0.23125708
v 0.01275782 0.00579720 0.23113929
v -0.00116467 0.01739712 0.23058802
v -0.00348224 0.01739712 0.23081889
v -0.00580550 0.01739712 0.23102149
v -0.01044064 0.01739712 0.23126178
v -0.00812307 0.01971583 0.23078591
v -0.01275821 0.01739712 0.23127592
v 0.00011654 -0.02790022 0.19291840
v 0.00099915 -0.02726036 0.19370054
v 0.00153441 -0.02739974 0.19140126
v 0.00192732 -0.02762147 0.18908312
v 0.00276437 -0.02578424 0.19604223
v 0.00314020 -0.02601231 0.19372410
v 0.00173940 -0.02053228 0.22619677
v 0.00339644 -0.01937292 0.22619677
v 0.01750114 -0.00829249 0.22852432
v -0.00422250 -0.03029496 0.18908312
v -0.00306087 -0.02990851 0.18908312
v -0.00366446 -0.02973112 0.19125990
v -0.00261671 -0.03005423 0.18731154
v -0.00116467 -0.02875549 0.19140126
v -0.00103370 -0.02828034 0.19370054
v -0.00116467 -0.02916728 0.18908312
v -0.00527594 -0.03125793 0.18493217
v 0.01750114 -0.00347767 0.23081889
v -0.00798641 0.02223728 0.23006974
v -0.00866403 0.02330161 0.22976348
v -0.00798641 0.02374508 0.22872221
v -0.00812307 0.02454333 0.22619677
v -0.00853875 0.03027043 0.19548154
v -0.00970608 0.03012472 0.19702696
v -0.01044064 0.03080259 0.19372410
v -0.01044064 0.03122072 0.19140126
v -0.01044064 0.03162618 0.18908312
v -0.01275821 0.03175923 0.18908312
v -0.01507577 0.03210133 0.18676029
v -0.01507577 0.03238642 0.18505467
v -0.01507577 0.03240542 0.18493217
v 0.01750114 -0.00105759 0.23094611
v 0.01750114 0.00115976 0.23094140
v 0.01739865 0.00115976 0.23096495
v 0.01750114 -0.00115896 0.23094611
v 0.01739865 0.00347848 0.23083302
v 0.01739865 0.00579720 0.23043725
v 0.01507538 0.00579720 0.23085187
v 0.00115859 0.01739712 0.23030532
v -0.00348224 0.01971583 0.23039013
v -0.00580550 0.01971583 0.23061629
v -0.00093690 -0.02978181 0.18493217
v -0.00037317 -0.02951573 0.18493217
v 0.00077138 -0.02825500 0.18908312
v 0.00218925 -0.02776718 0.18753300
v 0.00347616 -0.02670919 0.18908312
v 0.00476876 -0.02560685 0.19069922
v 0.00453529 -0.02544847 0.19224464
v 0.00667634 -0.02539145 0.18493217
v 0.01750114 -0.00895770 0.22619677
v -0.00347085 -0.03073844 0.18493217
v -0.00303239 -0.03059273 0.18493217
v -0.00225228 -0.03018093 0.18576613
v -0.00135258 -0.02966777 0.18662836
v -0.00208145 -0.03025696 0.18493217
v -0.00348224 0.02129966 0.22991425
v -0.00711519 0.02314323 0.22963155
v -0.00580550 0.02350434 0.22808143
v -0.00442180 0.02328260 0.22759612
v -0.00580550 0.02394147 0.22619677
v -0.00580550 0.02964324 0.19604223
v -0.00639201 0.03029577 0.19330947
v -0.00699561 0.03015006 0.19485490
v -0.00791238 0.03046049 0.19393612
v -0.00812307 0.03094831 0.19140126
v -0.00812307 0.03135377 0.18908312
v -0.00824834 0.03208232 0.18493217
v -0.01044064 0.03232940 0.18493217
v -0.01233114 0.03243710 0.18493217
v -0.01275821 0.03215201 0.18676029
v -0.01275821 0.03241176 0.18521486
v -0.01275821 0.03245611 0.18493217
v -0.01479106 0.03241176 0.18493217
v 0.01750114 0.00126113 0.23093668
v 0.01750114 0.00347848 0.23080476
v 0.01750114 0.00357351 0.23079062
v 0.01750114 0.00579086 0.23041369
v 0.01750114 0.00589222 0.23038542
v 0.00245688 0.01865784 0.22974935
v 0.00332811 0.01730209 0.22994723
v 0.00115859 0.01898727 0.22987656
v -0.00116467 0.01976652 0.23003205
v -0.00193340 0.02105258 0.22980589
v -0.00134689 -0.02995286 0.18493217
v 0.00119275 -0.02876183 0.18493217
v 0.00131233 -0.02837537 0.18676029
v 0.00243980 -0.02790656 0.18598757
v 0.00373240 -0.02734272 0.18493217
v 0.00331672 -0.02724769 0.18676029
v 0.00414808 -0.02708297 0.18493217
v 0.00499653 -0.02576523 0.18908312
v 0.00573678 -0.02605032 0.18493217
v 0.00680161 -0.02529642 0.18493217
v 0.01343543 -0.01855567 0.18493217
v 0.01368029 -0.01824524 0.18493217
v 0.01386251 -0.01800450 0.18493217
v 0.01453443 -0.01708588 0.18493217
v 0.01545121 -0.01572379 0.18493217
v 0.01571314 -0.01531200 0.18493217
v 0.01639645 -0.01418432 0.18493217
v 0.01750114 -0.01223938 0.18493217
v 0.00807713 -0.02427644 0.18493217
v 0.00863517 -0.02381396 0.18493217
v 0.00926153 -0.02318043 0.18553997
v 0.01012137 -0.02242020 0.18493217
v 0.01045733 -0.02206542 0.18493217
v 0.01089579 -0.02159661 0.18493217
v 0.01154494 -0.02081737 0.18534679
v 0.01198909 -0.02036123 0.18493217
v 0.01241616 -0.01983540 0.18493217
v -0.00116467 0.02142636 0.22854788
v 0.00032153 0.02105891 0.22779873
v -0.00116467 0.02211057 0.22619677
v -0.00299253 0.02292783 0.22619677
v -0.00226936 0.02786302 0.19964193
v -0.00348224 0.02897170 0.19604223
v -0.00484887 0.03010571 0.19227762
v -0.00569162 0.03001068 0.19393612
v -0.00569162 0.03045415 0.19146251
v -0.00580550 0.03089763 0.18908312
v -0.00580550 0.03130309 0.18676029
v -0.00812307 0.03175289 0.18676029
v -0.00628952 0.03170854 0.18493217
v 0.01750114 0.00736201 0.22989541
v 0.00290673 0.01900628 0.22851961
v -0.00039025 0.02057110 0.22934415
v 0.01750114 0.00866075 0.22836412
v 0.01750114 0.00870509 0.22829345
v 0.00260493 -0.02799525 0.18493217
v 0.00339644 -0.02753911 0.18493217
v 0.00532110 -0.02598697 0.18676029
v 0.01750114 0.01239857 0.18493217
v 0.00175079 0.02052042 0.22619677
v 0.00292381 0.02588641 0.19604223
v 0.00115859 0.02688738 0.19604223
v -0.00006568 0.02780600 0.19473239
v 0.01750114 0.00933862 0.22617792
v -0.00033900 0.02767930 0.19604223
v -0.00199034 0.02798339 0.19836036
v -0.00149494 0.02820512 0.19604223
v -0.00116467 0.02892101 0.19140126
v -0.00244588 0.03011205 0.18766021
v -0.00279893 0.02999167 0.18908312
v -0.00348224 0.02940249 0.19372410
v -0.00438194 0.03024509 0.19073220
v -0.00580550 0.03161351 0.18493217
v 0.01644201 0.01426115 0.18493217
v 0.00541790 0.02375775 0.19836036
v 0.00463779 0.02551896 0.19257445
v 0.00439863 0.02536058 0.19411987
v 0.00356726 0.02600044 0.19349794
v 0.00209245 0.02771097 0.18908312
v 0.00169385 0.02749557 0.19140126
v 0.00106179 0.02736887 0.19386545
v 0.00021903 0.02795805 0.19318225
v -0.00096537 0.02837618 0.19386545
v 0.01576439 0.01538249 0.18493217
v 0.01458568 0.01716904 0.18493217
v 0.01374293 0.01832840 0.18493217
v 0.01217700 0.02026067 0.18493217
v 0.01163605 0.02091954 0.18493217
v 0.01090148 0.02172412 0.18493217
v 0.00960889 0.02311788 0.18493217
v 0.00940959 0.02332695 0.18493217
v 0.00919890 0.02351067 0.18493217
v 0.00801449 0.02453065 0.18493217
v 0.00767853 0.02481574 0.18493217
v 0.00689841 0.02547461 0.18493217
v 0.00685855 0.02544294 0.18523371
v 0.00664217 0.02529089 0.18676029
v 0.00631190 0.02505648 0.18908312
v 0.00597594 0.02481574 0.19140126
v -0.00076607 0.02985863 0.18493217
v -0.00116467 0.02932014 0.18908312
v -0.00212131 0.03023875 0.18611007
v -0.00188785 0.03034012 0.18493217
v -0.00344807 0.03091663 0.18493217
v -0.00332280 0.03055552 0.18683567
v -0.00396056 0.03039080 0.18908312
v -0.00355627 0.02983963 0.19146251
v -0.00397195 0.03107501 0.18493217
v 0.00515597 0.02586740 0.18908312
v 0.00388614 0.02745122 0.18493217
v 0.00338505 0.02736253 0.18696288
v 0.00347616 0.02645658 0.19140126
v 0.00229744 0.02782501 0.18786752
v 0.00053222 0.02811643 0.19140126
v 0.00651120 0.02574070 0.18493217
v -0.00127286 0.02975094 0.18683567
v 0.00093082 0.02832549 0.18908312
v 0.00066319 0.02916809 0.18493217
v 0.00548623 0.02608914 0.18676029
v 0.00586775 0.02617783 0.18493217
v 0.00277007 0.02809109 0.18493217
v 0.00254799 0.02796438 0.18632210
v 0.00138067 0.02846487 0.18696288
v 0.00119845 0.02890834 0.18493217
v 0.00256507 0.02819879 0.18493217
f 1 2 3
f 1 3 8
f 1 8 30
f 1 30 64
f 1 64 70
f 1 70 39
f 1 39 16
f 1 16 4
f 1 4 17
f 1 17 41
f 1 41 40
f 1 40 79
f 1 79 134
f 1 134 187
f 1 187 248
f 1 248 317
f 1 317 312
f 1 312 385
f 1 385 316
f 1 316 386
f 1 386 382
f 1 382 309
f 1 309 384
f 1 384 440
f 1 440 380
f 1 380 439
f 1 439 372
f 1 372 370
f 1 370 369
f 1 369 438
f 1 438 490
f 1 490 535
f 1 535 577
f 1 577 576
f 1 576 573
f 1 573 572
f 1 572 571
f 1 571 627
f 1 627 650
f 1 650 685
f 1 685 681
f 1 681 680
f 1 680 677
f 1 677 695
f 1 695 701
f 1 701 702
f 1 702 698
f 1 698 687
f 1 687 697
f 1 697 692
f 1 692 672
f 1 672 671
f 1 671 670
f 1 670 669
f 1 669 668
f 1 668 667
f 1 667 666
f 1 666 665
f 1 665 664
f 1 664 663
f 1 663 662
f 1 662 661
f 1 661 651
f 1 651 636
f 1 636 605
f 1 605 604
f 1 604 603
f 1 603 602
f 1 602 601
f 1 601 600
f 1 600 599
f 1 599 598
f 1 598 614
f 1 614 613
f 1 613 611
f 1 611 610
f 1 610 609
f 1 609 607
f 1 607 606
f 1 606 597
f 1 597 553
f 1 553 596
f 1 596 594
f 1 594 592
f 1 592 634
f 1 634 633
f 1 633 589
f 1 589 547
f 1 547 546
f 1 546 588
f 1 588 559
f 1 559 556
f 1 556 555
f 1 555 521
f 1 521 467
f 1 467 444
f 1 444 396
f 1 396 395
f 1 395 394
f 1 394 390
f 1 390 389
f 1 389 388
f 1 388 320
f 1 320 254
f 1 254 253
f 1 253 203
f 1 203 256
f 1 256 252
f 1 252 196
f 1 196 194
f 1 194 192
f 1 192 141
f 1 141 170
f 1 170 112
f 1 112 67
f 1 67 66
f 1 66 65
f 1 65 33
f 1 33 32
f 1 32 31
f 1 31 9
f 1 9 5
f 1 5 2
f 2 5 3
f 3 6 7
f 3 7 8
f 3 5 9
f 3 9 10
f 3 10 11
f 3 11 12
f 3 12 13
f 3 13 14
f 3 14 15
f 3 15 6
f 4 16 17
f 6 18 19
f 6 19 20
f 6 20 7
f 6 15 21
f 6 21 18
f 7 20 22
f 7 22 23
f 7 23 24
f 7 24 8
f 8 24 25
f 8 25 26
f 8 26 27
f 8 27 28
f 8 28 29
f 8 29 30
f 9 31 10
f 10 31 32
f 10 32 33
f 10 33 34
f 10 34 13
f 10 13 11
f 11 13 12
f 13 34 35
f 13 35 36
f 13 36 37
f 13 37 38
f 13 38 14
f 14 38 15
f 15 38 21
f 16 39 40
f 16 40 41
f 16 41 17
f 18 42 19
f 18 21 42
f 19 42 43
f 19 43 44
f 19 44 45
f 19 45 22
f 19 22 20
f 21 38 46
f 21 46 47
f 21 47 48
f 21 48 49
f 21 49 50
f 21 50 51
f 21 51 52
f 21 52 53
f 21 53 54
f 21 54 42
f 22 45 23
f 23 45 55
f 23 55 24
f 24 55 56
f 24 56 25
f 25 57 26
f 25 56 57
f 26 57 58
f 26 58 28
f 26 28 27
f 28 58 29
f 29 59 60
f 29 60 30
f 29 58 61
f 29 61 62
f 29 62 63
f 29 63 59
f 30 60 64
f 33 65 35
f 33 35 34
f 35 65 66
f 35 66 67
f 35 67 68
f 35 68 36
f 36 68 69
f 36 69 37
f 37 69 38
f 38 69 46
f 39 70 71
f 39 71 72
f 39 72 73
f 39 73 74
f 39 74 75
f 39 75 76
f 39 76 77
f 39 77 78
f 39 78 40
f 40 78 79
f 42 54 53
f 42 53 80
f 42 80 43
f 43 80 81
f 43 81 82
f 43 82 44
f 44 82 83
f 44 83 45
f 45 83 84
f 45 84 85
f 45 85 57
f 45 57 56
f 45 56 55
f 46 69 86
f 46 86 87
f 46 87 88
f 46 88 47
f 47 88 48
f 48 88 87
f 48 87 49
f 49 89 90
f 49 90 91
f 49 91 50
f 49 87 89
f 50 92 51
f 50 91 93
f 50 93 94
f 50 94 95
f 50 95 92
f 51 53 52
f 51 92 96
f 51 96 97
f 51 97 53
f 53 98 99
f 53 99 100
f 53 100 80
f 53 97 101
f 53 101 102
f 53 102 98
f 57 85 103
f 57 103 104
f 57 104 105
f 57 105 58
f 58 106 61
f 58 105 106
f 59 63 64
f 59 64 60
f 61 107 108
f 61 108 62
f 61 106 107
f 62 108 109
f 62 109 110
f 62 110 63
f 63 110 111
f 63 111 70
f 63 70 64
f 67 112 68
f 68 112 113
f 68 113 114
f 68 114 86
f 68 86 69
f 70 111 115
f 70 115 116
f 70 116 71
f 71 116 117
f 71 117 118
f 71 118 119
f 71 119 72
f 72 119 120
f 72 120 121
f 72 121 73
f 73 121 122
f 73 122 123
f 73 123 124
f 73 124 125
f 73 125 74
f 74 126 127
f 74 127 128
f 74 128 129
f 74 129 130
f 74 130 75
f 74 125 124
f 74 124 126
f 75 131 77
f 75 77 76
f 75 130 132
f 75 132 131
f 77 131 133
f 77 133 134
f 77 134 78
f 78 134 79
f 80 100 135
f 80 135 81
f 81 135 136
f 81 136 82
f 82 137 83
f 82 136 137
f 83 137 84
f 84 138 139
f 84 139 103
f 84 103 85
f 84 137 138
f 86 114 140
f 86 140 89
f 86 89 87
f 89 140 141
f 89 141 142
f 89 142 90
f 90 142 91
f 91 142 143
f 91 143 95
f 91 95 93
f 92 95 144
f 92 144 96
f 93 95 94
f 95 143 145
f 95 145 146
f 95 146 144
f 96 144 146
f 96 146 147
f 96 147 148
f 96 148 149
f 96 149 150
f 96 150 151
f 96 151 97
f 97 152 153
f 97 153 101
f 97 151 154
f 97 154 152
f 98 155 156
f 98 156 99
f 98 102 155
f 99 156 157
f 99 157 135
f 99 135 100
f 101 153 102
f 102 158 159
f 102 159 160
f 102 160 155
f 102 153 161
f 102 161 162
f 102 162 158
f 103 139 104
f 104 139 163
f 104 163 164
f 104 164 105
f 105 164 106
f 106 164 165
f 106 165 107
f 107 165 166
f 107 166 108
f 108 166 109
f 109 166 167
f 109 167 168
f 109 168 110
f 110 168 169
f 110 169 115
f 110 115 111
f 112 170 171
f 112 171 140
f 112 140 113
f 113 140 114
f 115 169 116
f 116 169 117
f 117 172 118
f 117 169 172
f 118 172 119
f 119 172 120
f 120 122 121
f 120 172 122
f 122 173 174
f 122 174 123
f 122 172 175
f 122 175 173
f 123 174 124
f 124 174 176
f 124 176 177
f 124 177 178
f 124 178 179
f 124 179 180
f 124 180 128
f 124 128 127
f 124 127 126
f 128 180 181
f 128 181 129
f 129 181 182
f 129 182 130
f 130 181 183
f 130 183 184
f 130 184 132
f 130 182 181
f 131 132 185
f 131 185 133
f 132 184 185
f 133 185 186
f 133 186 187
f 133 187 134
f 135 157 188
f 135 188 136
f 136 188 189
f 136 189 137
f 137 189 138
f 138 190 191
f 138 191 139
f 138 189 190
f 139 191 163
f 140 171 141
f 141 171 170
f 141 192 193
f 141 193 142
f 142 193 143
f 143 193 194
f 143 194 195
f 143 195 145
f 145 195 194
f 145 194 196
f 145 196 149
f 145 149 146
f 146 149 148
f 146 148 147
f 149 196 197
f 149 197 150
f 150 198 199
f 150 199 200
f 150 200 151
f 150 197 201
f 150 201 196
f 150 196 202
f 150 202 203
f 150 203 204
f 150 204 198
f 151 200 205
f 151 205 199
f 151 199 206
f 151 206 152
f 151 152 154
f 152 207 153
f 152 206 208
f 152 208 209
f 152 209 207
f 153 207 161
f 155 160 156
f 156 160 210
f 156 210 211
f 156 211 157
f 157 211 212
f 157 212 188
f 158 162 213
f 158 213 214
f 158 214 159
f 159 214 215
f 159 215 210
f 159 210 160
f 161 207 216
f 161 216 162
f 162 216 217
f 162 217 218
f 162 218 213
f 163 219 220
f 163 220 164
f 163 191 219
f 164 220 221
f 164 221 165
f 165 221 222
f 165 222 166
f 166 222 223
f 166 223 167
f 167 223 224
f 167 224 225
f 167 225 168
f 168 225 169
f 169 226 227
f 169 227 172
f 169 225 226
f 172 227 228
f 172 228 229
f 172 229 175
f 173 230 231
f 173 231 174
f 173 175 232
f 173 232 230
f 174 231 233
f 174 233 176
f 175 229 232
f 176 233 177
f 177 233 234
f 177 234 178
f 178 234 235
f 178 235 236
f 178 236 237
f 178 237 238
f 178 238 179
f 179 238 239
f 179 239 181
f 179 181 180
f 181 239 240
f 181 240 241
f 181 241 183
f 183 241 242
f 183 242 184
f 184 242 243
f 184 243 244
f 184 244 245
f 184 245 185
f 185 245 186
f 186 245 246
f 186 246 247
f 186 247 187
f 187 247 248
f 188 212 249
f 188 249 189
f 189 249 190
f 190 250 251
f 190 251 191
f 190 249 250
f 191 251 219
f 192 194 193
f 196 252 202
f 196 201 197
f 198 204 203
f 198 203 199
f 199 205 200
f 199 203 253
f 199 253 254
f 199 254 255
f 199 255 206
f 202 252 256
f 202 256 203
f 206 255 257
f 206 257 258
f 206 258 208
f 207 209 259
f 207 259 260
f 207 260 261
f 207 261 262
f 207 262 216
f 208 258 257
f 208 257 255
f 208 255 263
f 208 263 264
f 208 264 209
f 209 264 259
f 210 215 265
f 210 265 211
f 211 265 266
f 211 266 212
f 212 266 267
f 212 267 249
f 213 218 214
f 214 268 269
f 214 269 270
f 214 270 215
f 214 218 268
f 215 270 271
f 215 271 265
f 216 272 217
f 216 262 273
f 216 273 272
f 217 274 275
f 217 275 218
f 217 272 274
f 218 275 268
f 219 276 277
f 219 277 220
f 219 251 276
f 220 277 221
f 221 277 278
f 221 278 279
f 221 279 222
f 222 279 280
f 222 280 223
f 223 280 281
f 223 281 224
f 224 281 282
f 224 282 283
f 224 283 225
f 225 283 226
f 226 283 228
f 226 228 227
f 228 284 285
f 228 285 229
f 228 283 284
f 229 285 232
f 230 232 286
f 230 286 287
f 230 287 288
f 230 288 231
f 231 288 233
f 232 285 286
f 233 288 289
f 233 289 290
f 233 290 291
f 233 291 292
f 233 292 293
f 233 293 235
f 233 235 234
f 235 293 294
f 235 294 295
f 235 295 296
f 235 296 297
f 235 297 298
f 235 298 299
f 235 299 300
f 235 300 301
f 235 301 302
f 235 302 236
f 236 302 301
f 236 301 237
f 237 301 303
f 237 303 304
f 237 304 305
f 237 305 238
f 238 305 306
f 238 306 307
f 238 307 308
f 238 308 309
f 238 309 310
f 238 310 242
f 238 242 241
f 238 241 240
f 238 240 239
f 242 310 243
f 243 310 244
f 244 311 312
f 244 312 245
f 244 310 313
f 244 313 314
f 244 314 315
f 244 315 316
f 244 316 311
f 245 312 317
f 245 317 246
f 246 317 247
f 247 317 248
f 249 267 250
f 250 318 319
f 250 319 251
f 250 267 318
f 251 319 276
f 254 320 321
f 254 321 263
f 254 263 255
f 259 264 260
f 260 264 322
f 260 322 261
f 261 322 262
f 262 322 323
f 262 323 324
f 262 324 325
f 262 325 326
f 262 326 273
f 263 323 322
f 263 322 264
f 263 321 323
f 265 271 327
f 265 327 266
f 266 327 318
f 266 318 267
f 268 328 269
f 268 275 329
f 268 329 328
f 269 328 330
f 269 330 331
f 269 331 332
f 269 332 270
f 270 332 271
f 271 332 333
f 271 333 334
f 271 334 327
f 272 335 274
f 272 273 336
f 272 336 337
f 272 337 338
f 272 338 335
f 273 326 336
f 274 335 339
f 274 339 340
f 274 340 275
f 275 340 341
f 275 341 342
f 275 342 343
f 275 343 329
f 276 318 344
f 276 344 277
f 276 319 318
f 277 344 278
f 278 344 345
f 278 345 279
f 279 345 346
f 279 346 347
f 279 347 280
f 280 347 348
f 280 348 281
f 281 348 349
f 281 349 282
f 282 349 350
f 282 350 284
f 282 284 283
f 284 350 351
f 284 351 285
f 285 351 286
f 286 352 287
f 286 351 352
f 287 352 353
f 287 353 289
f 287 289 288
f 289 353 354
f 289 354 355
f 289 355 290
f 290 355 291
f 291 356 357
f 291 357 358
f 291 358 292
f 291 355 359
f 291 359 360
f 291 360 356
f 292 358 293
f 293 358 294
f 294 358 361
f 294 361 362
f 294 362 363
f 294 363 364
f 294 364 365
f 294 365 366
f 294 366 295
f 295 366 296
f 296 366 367
f 296 367 368
f 296 368 297
f 297 368 369
f 297 369 370
f 297 370 371
f 297 371 372
f 297 372 373
f 297 373 374
f 297 374 375
f 297 375 298
f 298 375 376
f 298 376 300
f 298 300 299
f 300 376 303
f 300 303 301
f 303 376 304
f 304 309 377
f 304 377 308
f 304 308 305
f 304 376 378
f 304 378 379
f 304 379 380
f 304 380 381
f 304 381 309
f 305 308 306
f 306 308 307
f 308 377 309
f 309 382 310
f 309 381 383
f 309 383 384
f 310 382 313
f 311 316 385
f 311 385 312
f 313 382 386
f 313 386 316
f 313 316 314
f 314 316 315
f 318 327 333
f 318 333 403
f 318 403 387
f 318 387 344
f 320 388 321
f 321 388 323
f 323 388 324
f 324 388 389
f 324 389 390
f 324 390 325
f 325 391 392
f 325 392 326
f 325 390 393
f 325 393 394
f 325 394 395
f 325 395 396
f 325 396 391
f 326 392 397
f 326 397 336
f 327 334 333
f 328 329 398
f 328 398 399
f 328 399 330
f 329 343 398
f 330 399 400
f 330 400 401
f 330 401 333
f 330 333 331
f 331 333 332
f 333 401 400
f 333 400 402
f 333 402 403
f 335 404 405
f 335 405 339
f 335 338 406
f 335 406 407
f 335 407 408
f 335 408 404
f 336 397 409
f 336 409 337
f 337 409 338
f 338 409 397
f 338 397 410
f 338 410 411
f 338 411 412
f 338 412 406
f 339 405 413
f 339 413 340
f 340 413 341
f 341 414 415
f 341 415 416
f 341 416 417
f 341 417 418
f 341 418 419
f 341 419 342
f 341 413 405
f 341 405 414
f 342 419 343
f 343 419 398
f 344 387 345
f 345 387 346
f 346 387 347
f 347 387 348
f 348 387 349
f 349 387 420
f 349 420 421
f 349 421 350
f 350 421 422
f 350 422 351
f 351 422 352
f 352 422 423
f 352 423 353
f 353 423 424
f 353 424 354
f 354 425 360
f 354 360 359
f 354 359 355
f 354 424 425
f 356 426 427
f 356 427 357
f 356 360 428
f 356 428 426
f 357 427 430
f 357 430 361
f 357 361 358
f 360 425 429
f 360 429 428
f 361 430 431
f 361 431 362
f 362 431 432
f 362 432 433
f 362 433 434
f 362 434 435
f 362 435 363
f 363 435 364
f 364 435 436
f 364 436 365
f 365 436 366
f 366 436 437
f 366 437 367
f 367 437 368
f 368 437 438
f 368 438 369
f 370 372 371
f 372 439 373
f 373 380 379
f 373 379 378
f 373 378 376
f 373 376 374
f 373 439 380
f 374 376 375
f 380 440 381
f 381 440 383
f 383 440 384
f 387 441 421
f 387 421 420
f 387 403 457
f 387 457 442
f 387 442 443
f 387 443 441
f 390 394 393
f 391 444 392
f 391 396 444
f 392 444 410
f 392 410 397
f 398 419 445
f 398 445 446
f 398 446 399
f 399 446 400
f 400 447 492
f 400 492 448
f 400 448 402
f 400 446 445
f 400 445 447
f 402 448 449
f 402 449 450
f 402 450 403
f 403 450 451
f 403 451 452
f 403 452 453
f 403 453 454
f 403 454 455
f 403 455 456
f 403 456 457
f 404 408 458
f 404 458 405
f 405 459 460
f 405 460 414
f 405 458 461
f 405 461 462
f 405 462 463
f 405 463 464
f 405 464 465
f 405 465 466
f 405 466 459
f 406 412 411
f 406 411 410
f 406 410 407
f 407 410 444
f 407 444 467
f 407 467 468
f 407 468 469
f 407 469 458
f 407 458 408
f 414 460 415
f 415 460 416
f 416 470 471
f 416 471 472
f 416 472 473
f 416 473 417
f 416 460 474
f 416 474 470
f 417 473 418
f 418 473 419
f 419 473 445
f 421 441 443
f 421 443 422
f 422 443 423
f 423 443 475
f 423 475 424
f 424 475 476
f 424 476 425
f 425 476 429
f 426 428 477
f 426 477 478
f 426 478 427
f 427 479 430
f 427 478 479
f 428 429 480
f 428 480 481
f 428 481 477
f 429 476 482
f 429 482 480
f 430 479 483
f 430 483 484
f 430 484 431
f 431 484 485
f 431 485 486
f 431 486 487
f 431 487 433
f 431 433 432
f 433 487 434
f 434 437 436
f 434 436 435
f 434 487 488
f 434 488 489
f 434 489 438
f 434 438 437
f 438 489 490
f 442 457 491
f 442 491 475
f 442 475 443
f 445 473 492
f 445 492 447
f 448 492 493
f 448 493 494
f 448 494 449
f 449 494 495
f 449 495 496
f 449 496 450
f 450 496 497
f 450 497 451
f 451 497 498
f 451 498 499
f 451 499 500
f 451 500 501
f 451 501 453
f 451 453 452
f 453 502 454
f 453 501 503
f 453 503 481
f 453 481 502
f 454 502 455
f 455 502 504
f 455 504 456
f 456 504 482
f 456 482 491
f 456 491 457
f 458 469 468
f 458 468 461
f 459 466 460
f 460 466 505
f 460 505 506
f 460 506 507
f 460 507 508
f 460 508 509
f 460 509 510
f 460 510 511
f 460 511 512
f 460 512 513
f 460 513 474
f 461 468 467
f 461 467 514
f 461 514 515
f 461 515 516
f 461 516 462
f 462 516 515
f 462 515 464
f 462 464 463
f 464 515 465
f 465 515 517
f 465 517 518
f 465 518 519
f 465 519 466
f 466 519 518
f 466 518 520
f 466 520 505
f 467 521 514
f 470 513 554
f 470 554 605
f 470 605 636
f 470 636 641
f 470 641 632
f 470 632 631
f 470 631 628
f 470 628 582
f 470 582 581
f 470 581 580
f 470 580 579
f 470 579 578
f 470 578 537
f 470 537 536
f 470 536 539
f 470 539 522
f 470 522 472
f 470 472 471
f 470 474 513
f 472 493 473
f 472 522 494
f 472 494 493
f 473 493 492
f 475 491 476
f 476 491 482
f 477 523 524
f 477 524 478
f 477 481 503
f 477 503 523
f 478 524 479
f 479 524 525
f 479 525 526
f 479 526 483
f 480 482 504
f 480 504 481
f 481 504 502
f 483 526 527
f 483 527 528
f 483 528 529
f 483 529 485
f 483 485 484
f 485 529 530
f 485 530 486
f 486 531 532
f 486 532 488
f 486 488 487
f 486 530 531
f 488 532 574
f 488 574 533
f 488 533 490
f 488 490 489
f 490 534 535
f 490 533 534
f 494 522 495
f 495 536 537
f 495 537 538
f 495 538 496
f 495 522 539
f 495 539 536
f 496 538 540
f 496 540 497
f 497 540 541
f 497 541 542
f 497 542 498
f 498 542 543
f 498 543 499
f 499 543 544
f 499 544 500
f 500 544 545
f 500 545 501
f 501 545 503
f 503 545 523
f 505 520 546
f 505 546 547
f 505 547 548
f 505 548 549
f 505 549 508
f 505 508 507
f 505 507 506
f 508 549 510
f 508 510 509
f 510 549 550
f 510 550 551
f 510 551 552
f 510 552 511
f 511 552 551
f 511 551 512
f 512 551 553
f 512 553 554
f 512 554 513
f 514 521 555
f 514 555 556
f 514 556 515
f 515 556 517
f 517 556 557
f 517 557 520
f 517 520 518
f 520 558 546
f 520 557 559
f 520 559 558
f 523 545 560
f 523 560 524
f 524 561 525
f 524 560 561
f 525 561 562
f 525 562 526
f 526 562 563
f 526 563 564
f 526 564 565
f 526 565 566
f 526 566 567
f 526 567 568
f 526 568 527
f 527 568 569
f 527 569 530
f 527 530 528
f 528 530 529
f 530 569 570
f 530 570 531
f 531 570 571
f 531 571 572
f 531 572 532
f 532 572 573
f 532 573 574
f 533 574 575
f 533 575 534
f 534 575 576
f 534 576 577
f 534 577 535
f 537 578 538
f 538 578 540
f 540 579 580
f 540 580 581
f 540 581 541
f 540 578 579
f 541 581 582
f 541 582 583
f 541 583 542
f 542 583 584
f 542 584 543
f 543 584 583
f 543 583 585
f 543 585 586
f 543 586 544
f 544 586 587
f 544 587 560
f 544 560 545
f 546 558 588
f 547 589 548
f 548 590 591
f 548 591 549
f 548 589 590
f 549 592 593
f 549 593 550
f 549 591 592
f 550 593 592
f 550 592 551
f 551 592 594
f 551 594 595
f 551 595 553
f 553 595 596
f 553 597 554
f 554 598 599
f 554 599 600
f 554 600 601
f 554 601 602
f 554 602 603
f 554 603 604
f 554 604 605
f 554 597 606
f 554 606 607
f 554 607 608
f 554 608 609
f 554 609 610
f 554 610 611
f 554 611 612
f 554 612 613
f 554 613 614
f 554 614 598
f 556 559 557
f 558 559 588
f 560 587 561
f 561 563 562
f 561 587 563
f 563 587 615
f 563 615 616
f 563 616 617
f 563 617 618
f 563 618 619
f 563 619 620
f 563 620 621
f 563 621 564
f 564 621 565
f 565 621 622
f 565 622 566
f 566 622 621
f 566 621 623
f 566 623 624
f 566 624 625
f 566 625 567
f 567 625 626
f 567 626 570
f 567 570 569
f 567 569 568
f 570 626 571
f 571 626 627
f 573 576 575
f 573 575 574
f 582 628 583
f 583 629 616
f 583 616 630
f 583 630 587
f 583 587 585
f 583 628 631
f 583 631 632
f 583 632 629
f 585 587 586
f 587 630 615
f 589 633 591
f 589 591 590
f 591 633 634
f 591 634 592
f 594 596 635
f 594 635 595
f 595 635 596
f 607 609 608
f 611 613 612
f 615 630 616
f 616 637 638
f 616 638 639
f 616 639 640
f 616 640 617
f 616 629 632
f 616 632 641
f 616 641 637
f 617 640 642
f 617 642 619
f 617 619 618
f 619 642 643
f 619 643 644
f 619 644 645
f 619 645 646
f 619 646 647
f 619 647 648
f 619 648 620
f 620 648 649
f 620 649 621
f 621 649 625
f 621 625 624
f 621 624 623
f 625 650 627
f 625 627 626
f 625 649 650
f 636 651 641
f 637 652 653
f 637 653 654
f 637 654 638
f 637 641 652
f 638 654 655
f 638 655 656
f 638 656 657
f 638 657 639
f 639 657 658
f 639 658 640
f 640 658 659
f 640 659 645
f 640 645 660
f 640 660 644
f 640 644 642
f 641 651 661
f 641 661 662
f 641 662 663
f 641 663 664
f 641 664 665
f 641 665 666
f 641 666 667
f 641 667 668
f 641 668 669
f 641 669 670
f 641 670 671
f 641 671 672
f 641 672 673
f 641 673 674
f 641 674 675
f 641 675 676
f 641 676 652
f 642 644 643
f 644 660 645
f 645 659 677
f 645 677 678
f 645 678 646
f 646 678 679
f 646 679 680
f 646 680 681
f 646 681 682
f 646 682 647
f 647 682 683
f 647 683 684
f 647 684 648
f 648 684 649
f 649 683 685
f 649 685 650
f 649 684 683
f 652 676 653
f 653 686 687
f 653 687 655
f 653 655 654
f 653 676 675
f 653 675 686
f 655 687 688
f 655 688 689
f 655 689 690
f 655 690 656
f 656 690 659
f 656 659 657
f 657 659 658
f 659 691 677
f 659 690 691
f 672 692 686
f 672 686 673
f 673 686 674
f 674 686 675
f 677 693 678
f 677 691 694
f 677 694 695
f 677 680 693
f 678 693 679
f 679 693 680
f 681 685 683
f 681 683 682
f 686 692 696
f 686 696 687
f 687 690 688
f 687 696 697
f 687 698 699
f 687 699 690
f 688 690 689
f 690 699 700
f 690 700 694
f 690 694 691
f 692 697 696
f 694 700 701
f 694 701 695
f 698 702 699
f 699 702 700
f 700 702 701

