# https://github.com/mikedh/trimesh
v -0.05324157 -0.00205604 0.21117134
v -0.05573050 0.00014956 0.21116106
v -0.05351963 -0.00244686 0.21117134
v -0.05324157 -0.00244686 0.21117134
v -0.04067303 0.00809515 0.21036984
v -0.05327331 0.00244692 0.21115592
v -0.05350754 0.00244692 0.21115592
v -0.05573050 -0.00012571 0.21116106
v -0.05505500 0.00169586 0.21053425
v -0.05573654 0.00239934 0.20898777
v -0.05596322 0.00101617 0.20984064
v -0.05506558 -0.00167201 0.21047773
v -0.05424047 -0.00318772 0.20968651
v -0.05341536 -0.00468304 0.20889786
v -0.05219885 -0.00513164 0.20935769
v -0.04924750 -0.00729646 0.20924723
v -0.04524135 -0.00955983 0.20915988
v -0.04067303 -0.01047401 0.20989716
v -0.04067303 -0.00773146 0.21035185
v -0.04067303 0.01055224 0.20995881
v -0.04524135 0.00960407 0.20923181
v -0.04931853 0.00733390 0.20930888
v -0.05219885 0.00521326 0.20949127
v -0.05349092 0.00474767 0.20904171
v -0.05595415 -0.00100252 0.20980725
v -0.05572445 -0.00237889 0.20893125
v -0.05573654 0.00239934 0.20820939
v -0.05610830 0.00136621 0.20751836
v -0.05610074 -0.00132197 0.20766735
v -0.05341536 -0.00468304 0.20835839
v -0.04067303 -0.01728112 0.18493002
v -0.04641403 -0.00928455 0.20881308
v -0.04067303 -0.01170085 0.20763910
v -0.04067303 0.01159216 0.20835839
v -0.04645785 0.00930840 0.20885932
v -0.05347581 0.00473748 0.20763910
v -0.04067303 0.01743751 0.18493002
v -0.05572445 -0.00237889 0.20846115
v -0.05565796 0.00227699 0.20666292
v -0.05605087 0.00092441 0.20531938
v -0.05605087 -0.00081900 0.20531938
v -0.05169412 -0.00315034 0.18493002
v -0.04067303 0.01177908 0.20763910
v -0.05100955 0.00414275 0.18493002
v -0.05561111 -0.00220217 0.20691467
v -0.05337002 -0.00233131 0.19249029
v -0.05171678 0.00322516 0.18493002
v -0.05339874 0.00237555 0.19228735
v -0.05555369 0.00208328 0.20531938
v -0.05589219 0.00053359 0.20299966
v -0.05589219 -0.00046556 0.20299966
v -0.05198275 -0.00265756 0.18493002
v -0.05548417 -0.00197787 0.20531938
v -0.05280937 -0.00114185 0.18493002
v -0.05283053 0.00114191 0.18493002
v -0.05327331 0.00212746 0.19074087
v -0.05576223 0.00021073 0.20134786
v -0.05576223 -0.00018689 0.20134786
v -0.05345314 -0.00026505 0.18718808
v -0.05345314 0.00027870 0.18718808
f 1 2 3
f 1 3 4
f 1 4 5
f 1 5 6
f 1 6 7
f 1 7 2
f 2 8 3
f 2 7 9
f 2 9 10
f 2 10 11
f 2 11 8
f 3 8 12
f 3 12 13
f 3 13 14
f 3 14 15
f 3 15 16
f 3 16 17
f 3 17 18
f 3 18 19
f 3 19 4
f 4 19 5
f 5 20 7
f 5 7 6
f 5 19 18
f 5 18 33
f 5 33 31
f 5 31 37
f 5 37 43
f 5 43 34
f 5 34 20
f 7 20 21
f 7 21 22
f 7 22 23
f 7 23 24
f 7 24 9
f 8 11 25
f 8 25 26
f 8 26 12
f 9 24 10
f 10 27 28
f 10 28 11
f 10 24 27
f 11 28 29
f 11 29 25
f 12 26 13
f 13 26 14
f 14 26 38
f 14 38 30
f 14 30 31
f 14 31 32
f 14 32 16
f 14 16 15
f 16 32 17
f 17 32 33
f 17 33 18
f 20 34 21
f 21 34 35
f 21 35 22
f 22 35 24
f 22 24 23
f 24 36 27
f 24 35 37
f 24 37 36
f 25 29 26
f 26 29 38
f 27 39 28
f 27 36 37
f 27 37 39
f 28 39 40
f 28 40 41
f 28 41 29
f 29 41 38
f 30 38 31
f 31 33 32
f 31 38 42
f 31 42 52
f 31 52 54
f 31 54 55
f 31 55 47
f 31 47 44
f 31 44 37
f 34 43 35
f 35 43 37
f 37 44 39
f 38 41 45
f 38 45 46
f 38 46 42
f 39 44 47
f 39 47 48
f 39 48 49
f 39 49 40
f 40 49 50
f 40 50 51
f 40 51 41
f 41 51 45
f 42 46 52
f 45 53 46
f 45 51 53
f 46 53 51
f 46 51 54
f 46 54 52
f 47 55 56
f 47 56 48
f 48 56 55
f 48 55 49
f 49 55 50
f 50 57 58
f 50 58 51
f 50 55 57
f 51 58 54
f 54 58 59
f 54 59 55
f 55 60 57
f 55 59 60
f 57 60 59
f 57 59 58

