# https://github.com/mikedh/trimesh
v 0.01750114 -0.01223732 0.18492746
v 0.01750114 0.01239817 0.18492746
v 0.02338059 -0.00717949 0.18492746
v 0.02985124 -0.00770047 0.20061364
v 0.02985124 -0.00838305 0.20300126
v 0.02985124 -0.00866525 0.20532130
v 0.02985124 -0.00876655 0.20764134
v 0.02985124 -0.00878825 0.20995688
v 0.02985124 -0.00878343 0.21227692
v 0.02985124 -0.00876172 0.21691700
v 0.02985124 -0.00874484 0.21923704
v 0.02985124 -0.00861701 0.22155709
v 0.02899889 -0.00848917 0.22387712
v 0.01750114 -0.00896191 0.22619717
v 0.02985124 0.00904799 0.20532130
v 0.02985124 0.00895634 0.20446986
v 0.02985124 0.00870308 0.20300126
v 0.02985124 0.00847636 0.20214982
v 0.02347006 0.00730657 0.18492746
v 0.01750114 0.00933742 0.22617915
v 0.01827975 0.00925542 0.22688192
v 0.02899889 0.00882127 0.22387712
v 0.02985124 0.00882850 0.22302570
v 0.02985124 0.00890810 0.22155709
v 0.02985124 0.00894187 0.22070565
v 0.02985124 0.00899010 0.21923704
v 0.02985124 0.00901664 0.21838561
v 0.02985124 0.00914929 0.21227692
v 0.02985124 0.00915653 0.20995688
v 0.02985124 0.00915412 0.20910544
v 0.02985124 0.00914688 0.20764134
v 0.02985124 0.00912517 0.20678991
v 0.02384848 -0.00614478 0.18492746
v 0.02985124 -0.00523065 0.19662227
v 0.02985124 -0.00631843 0.19794222
v 0.02985124 -0.00711920 0.19917656
v 0.02985124 -0.00842646 0.22387712
v 0.02667999 -0.00823833 0.22619717
v 0.01750114 -0.00829381 0.22852171
v 0.02985124 0.00784444 0.20058210
v 0.02410721 0.00579912 0.18492746
v 0.02985124 0.00750194 0.19974870
v 0.02985124 0.00714015 0.19914954
v 0.02985124 0.00700267 0.19895132
v 0.02985124 0.00625256 0.19800078
v 0.02985124 0.00586424 0.19752326
v 0.01750114 0.00870550 0.22829196
v 0.02667999 0.00831959 0.22619717
v 0.02985124 0.00875373 0.22387712
v 0.02397663 -0.00583846 0.18492746
v 0.02985124 -0.00353748 0.19592400
v 0.02447233 -0.00347959 0.18492746
v 0.02985124 -0.00775112 0.22621969
v 0.02899889 -0.00792719 0.22619717
v 0.02667999 -0.00746169 0.22785498
v 0.01750114 -0.00824075 0.22860280
v 0.02419426 0.00531191 0.18492746
v 0.02985124 0.00508277 0.19680247
v 0.02985124 0.00475716 0.19664029
v 0.02985124 0.00347884 0.19614925
v 0.01750114 0.00866208 0.22836854
v 0.02985124 0.00776002 0.22622420
v 0.02985124 0.00807357 0.22553044
v 0.02451585 -0.00115931 0.18492746
v 0.02985124 -0.00115931 0.19590598
v 0.02985124 -0.00708784 0.22746756
v 0.02899889 -0.00721326 0.22758469
v 0.01750114 -0.00732662 0.22992725
v 0.02449409 0.00347884 0.18492746
v 0.02985124 0.00124298 0.19594653
v 0.01750114 0.00736446 0.22989572
v 0.02667999 0.00736687 0.22766127
v 0.02837262 0.00714015 0.22748107
v 0.02985124 0.00690861 0.22721979
v 0.02451102 0.00115856 0.18492746
v 0.02450135 0.00299163 0.18492746
v 0.02985124 -0.00571063 0.22790003
v 0.02899889 -0.00579987 0.22812978
v 0.02667999 -0.00579987 0.22868840
v 0.01890481 -0.00712161 0.22978760
v 0.01750114 -0.00579505 0.23044982
v 0.01750114 0.00589559 0.23038676
v 0.01877182 0.00711603 0.22976057
v 0.02985124 0.00676148 0.22734142
v 0.02985124 -0.00347959 0.22831449
v 0.02899889 -0.00347959 0.22856226
v 0.02667999 -0.00347959 0.22911186
v 0.02314362 -0.00452637 0.22967047
v 0.01750114 -0.00347959 0.23081923
v 0.01750114 0.00579188 0.23041379
v 0.02667999 0.00579912 0.22847667
v 0.02908715 0.00595348 0.22787751
v 0.02985124 0.00568817 0.22777840
v 0.02985124 -0.00262577 0.22835953
v 0.02899889 -0.00115931 0.22866587
v 0.02985124 -0.00115931 0.22842711
v 0.02667999 -0.00115931 0.22920196
v 0.01750114 -0.00115931 0.23094987
v 0.01750114 0.00347884 0.23080571
v 0.02667999 0.00347884 0.22905780
v 0.02899889 0.00347884 0.22853523
v 0.02985124 0.00410353 0.22818384
v 0.02899889 0.00115856 0.22863434
v 0.02985124 0.00115856 0.22839107
v 0.02667999 0.00115856 0.22916592
v 0.01750114 0.00115856 0.23094086
v 0.01750114 0.00125986 0.23093636
v 0.02985124 0.00347884 0.22829647
f 1 2 19
f 1 19 41
f 1 41 57
f 1 57 69
f 1 69 76
f 1 76 75
f 1 75 64
f 1 64 52
f 1 52 50
f 1 50 33
f 1 33 3
f 1 3 4
f 1 4 5
f 1 5 6
f 1 6 7
f 1 7 8
f 1 8 9
f 1 9 10
f 1 10 11
f 1 11 12
f 1 12 13
f 1 13 14
f 1 14 39
f 1 39 56
f 1 56 68
f 1 68 81
f 1 81 89
f 1 89 98
f 1 98 106
f 1 106 107
f 1 107 99
f 1 99 90
f 1 90 82
f 1 82 71
f 1 71 61
f 1 61 47
f 1 47 20
f 1 20 2
f 2 15 16
f 2 16 17
f 2 17 18
f 2 18 19
f 2 20 21
f 2 21 22
f 2 22 23
f 2 23 24
f 2 24 25
f 2 25 26
f 2 26 27
f 2 27 28
f 2 28 29
f 2 29 30
f 2 30 31
f 2 31 32
f 2 32 15
f 3 33 34
f 3 34 35
f 3 35 36
f 3 36 4
f 4 36 35
f 4 35 34
f 4 34 51
f 4 51 65
f 4 65 70
f 4 70 60
f 4 60 59
f 4 59 58
f 4 58 46
f 4 46 45
f 4 45 44
f 4 44 43
f 4 43 42
f 4 42 40
f 4 40 18
f 4 18 17
f 4 17 16
f 4 16 15
f 4 15 32
f 4 32 31
f 4 31 30
f 4 30 29
f 4 29 28
f 4 28 27
f 4 27 26
f 4 26 25
f 4 25 24
f 4 24 23
f 4 23 49
f 4 49 63
f 4 63 62
f 4 62 74
f 4 74 84
f 4 84 93
f 4 93 102
f 4 102 108
f 4 108 104
f 4 104 96
f 4 96 94
f 4 94 85
f 4 85 77
f 4 77 66
f 4 66 53
f 4 53 37
f 4 37 12
f 4 12 11
f 4 11 10
f 4 10 9
f 4 9 8
f 4 8 7
f 4 7 6
f 4 6 5
f 12 37 13
f 13 37 14
f 14 37 38
f 14 38 39
f 18 40 19
f 19 40 42
f 19 42 43
f 19 43 44
f 19 44 45
f 19 45 46
f 19 46 41
f 20 47 21
f 21 47 48
f 21 48 49
f 21 49 22
f 22 49 23
f 33 50 34
f 34 50 52
f 34 52 51
f 37 53 54
f 37 54 38
f 38 54 55
f 38 55 39
f 39 55 56
f 41 46 58
f 41 58 59
f 41 59 60
f 41 60 57
f 47 61 48
f 48 61 62
f 48 62 63
f 48 63 49
f 51 52 64
f 51 64 65
f 53 66 67
f 53 67 54
f 54 67 55
f 55 67 68
f 55 68 56
f 57 60 69
f 60 70 69
f 61 71 72
f 61 72 62
f 62 72 73
f 62 73 74
f 64 75 65
f 65 75 76
f 65 76 70
f 66 77 78
f 66 78 79
f 66 79 80
f 66 80 67
f 67 80 68
f 68 80 81
f 69 70 76
f 71 82 83
f 71 83 73
f 71 73 72
f 73 84 74
f 73 83 84
f 77 85 86
f 77 86 78
f 78 86 79
f 79 86 87
f 79 87 88
f 79 88 81
f 79 81 80
f 81 88 89
f 82 90 91
f 82 91 83
f 83 91 92
f 83 92 84
f 84 92 93
f 85 94 86
f 86 95 87
f 86 94 96
f 86 96 95
f 87 95 97
f 87 97 98
f 87 98 89
f 87 89 88
f 90 99 100
f 90 100 91
f 91 100 101
f 91 101 102
f 91 102 93
f 91 93 92
f 95 96 103
f 95 103 97
f 96 104 103
f 97 103 105
f 97 105 106
f 97 106 98
f 99 107 100
f 100 105 101
f 100 107 105
f 101 105 103
f 101 103 108
f 101 108 102
f 103 104 108
f 105 107 106

