# https://github.com/mikedh/trimesh
v 0.05786851 0.00121666 0.05348413
v 0.05786620 -0.00023943 0.05348413
v 0.05777638 0.00115877 0.05219715
v 0.05758984 0.00115877 0.04987725
v 0.05709008 0.00347975 0.04987725
v 0.05765663 0.00218856 0.05348413
v 0.05786390 -0.00121133 0.05348413
v 0.05777178 -0.00115870 0.05219715
v 0.05758523 -0.00115870 0.04987725
v 0.05737565 0.00115877 0.04755735
v 0.05688050 0.00347975 0.04755735
v 0.05606752 0.00558670 0.04755735
v 0.05609746 0.00600598 0.04979034
v 0.05726971 0.00347975 0.05219715
v 0.05736644 0.00347975 0.05348413
v 0.05733189 -0.00347968 0.05348413
v 0.05724438 -0.00347968 0.05219715
v 0.05707626 -0.00347968 0.04987725
v 0.05688050 -0.00347968 0.04755735
v 0.05737105 -0.00115870 0.04755735
v 0.05709699 -0.00115870 0.04523744
v 0.05709008 0.00115877 0.04523744
v 0.05660643 0.00347975 0.04523744
v 0.05593625 0.00526390 0.04523744
v 0.05565067 0.00691648 0.04895798
v 0.05635771 0.00579897 0.05219715
v 0.05695880 0.00451480 0.05348413
v 0.05678838 -0.00476384 0.05348413
v 0.05616425 -0.00566206 0.04987725
v 0.05606982 -0.00544979 0.04755735
v 0.05594315 -0.00518137 0.04523744
v 0.05662255 -0.00347968 0.04523744
v 0.05612970 -0.00368142 0.04274037
v 0.05667092 -0.00115870 0.04291754
v 0.05665480 0.00115877 0.04291754
v 0.05586485 0.00292187 0.04059764
v 0.05611358 0.00365518 0.04278049
v 0.05580267 0.00493935 0.04346241
v 0.05537891 0.00642351 0.04523744
v 0.05554934 0.00674631 0.04755735
v 0.05361708 0.00719893 0.03827773
v 0.05383356 0.00736910 0.04059764
v 0.05403853 0.00749716 0.04291754
v 0.05421817 0.00759014 0.04523744
v 0.05571746 0.00700595 0.05050570
v 0.05644292 0.00579897 0.05348413
v 0.05630934 -0.00589012 0.05348413
v 0.05615734 -0.00601293 0.05209018
v 0.05565758 -0.00693044 0.05124446
v 0.05545491 -0.00660940 0.04755735
v 0.05558849 -0.00682343 0.04987725
v 0.05529830 -0.00634099 0.04523744
v 0.05580497 -0.00490244 0.04339222
v 0.05566218 -0.00459017 0.04184450
v 0.05553091 -0.00413053 0.04059764
v 0.05587637 -0.00297092 0.04059764
v 0.05571976 -0.00246567 0.03927723
v 0.05613201 -0.00115870 0.04059764
v 0.05612049 0.00115877 0.04059764
v 0.05571285 0.00244469 0.03930063
v 0.05551709 0.00408324 0.04059764
v 0.05564837 0.00454463 0.04191470
v 0.05434484 0.00579897 0.03827773
v 0.05483078 0.00579897 0.04059764
v 0.05527527 0.00574810 0.04278049
v 0.05345586 0.00705682 0.03673670
v 0.05219839 0.00802521 0.03827773
v 0.05219839 0.00828135 0.04059764
v 0.05439090 0.00765681 0.04755735
v 0.05219839 0.00844099 0.04291754
v 0.05473405 0.00758488 0.04979034
v 0.05577273 0.00706560 0.05219715
v 0.05618037 0.00636386 0.05348413
v 0.05574740 -0.00702868 0.05348413
v 0.05572206 -0.00700412 0.05279217
v 0.05413757 -0.00760059 0.04523744
v 0.05396484 -0.00749534 0.04291754
v 0.05376217 -0.00732692 0.04059764
v 0.05522460 -0.00572522 0.04274037
v 0.05351574 -0.00710412 0.03827773
v 0.05477321 -0.00579890 0.04059764
v 0.05425962 -0.00579890 0.03827773
v 0.05371150 -0.00582346 0.03616174
v 0.05524994 -0.00333407 0.03841479
v 0.05353416 -0.00506559 0.03431317
v 0.05454751 -0.00347968 0.03596118
v 0.05493903 -0.00115870 0.03596118
v 0.05547333 -0.00115870 0.03791671
v 0.05577043 -0.00115870 0.03907667
v 0.05576582 0.00115877 0.03909672
v 0.05547103 0.00115877 0.03793677
v 0.05492521 0.00115877 0.03596118
v 0.05451066 0.00347975 0.03596118
v 0.05523612 0.00332186 0.03842816
v 0.05374604 0.00586388 0.03596452
v 0.05321174 0.00667964 0.03519233
v 0.05106530 0.00698665 0.03011461
v 0.05129330 0.00716559 0.03132137
v 0.05174239 0.00744102 0.03364127
v 0.05234119 0.00755681 0.03596452
v 0.04987922 0.00832520 0.03364127
v 0.04987922 0.00857607 0.03596118
v 0.04987922 0.00874624 0.03827773
v 0.05451987 0.00785154 0.05219715
v 0.05219839 0.00854976 0.04523744
v 0.05580728 0.00710419 0.05348413
v 0.05533976 -0.00728657 0.05348413
v 0.05442775 -0.00768656 0.04987725
v 0.05429417 -0.00765322 0.04755735
v 0.05219839 -0.00850232 0.04523744
v 0.05219839 -0.00836022 0.04291754
v 0.05219839 -0.00814619 0.04059764
v 0.05219839 -0.00786725 0.03827773
v 0.05229743 -0.00748481 0.03616174
v 0.05337295 -0.00697254 0.03706430
v 0.05313574 -0.00661291 0.03551992
v 0.05101693 -0.00693220 0.03020487
v 0.05325319 -0.00424632 0.03276880
v 0.05375986 -0.00347441 0.03358110
v 0.05345816 -0.00269900 0.03225735
v 0.05416981 -0.00115870 0.03364127
v 0.05415138 0.00115877 0.03364127
v 0.05345125 0.00265697 0.03227741
v 0.05373913 0.00344992 0.03360450
v 0.05352265 0.00513233 0.03435329
v 0.05323477 0.00420429 0.03280892
v 0.05128408 0.00579897 0.02971348
v 0.05058396 0.00579897 0.02855353
v 0.04932649 0.00567090 0.02666485
v 0.04840066 0.00635860 0.02587929
v 0.04902018 0.00719542 0.02742701
v 0.04982625 0.00736559 0.02920538
v 0.04987922 0.00789539 0.03132137
v 0.04755775 0.00827608 0.02900147
v 0.04755775 0.00863221 0.03132137
v 0.04755775 0.00880238 0.03364127
v 0.04987922 0.00885326 0.04059764
v 0.05451987 0.00790592 0.05348413
v 0.05219839 0.00863046 0.04755735
v 0.05461199 -0.00771989 0.05348413
v 0.05219839 -0.00858653 0.04755735
v 0.04987922 -0.00874617 0.04059764
v 0.04987922 -0.00863039 0.03827773
v 0.04987922 -0.00846022 0.03596118
v 0.04987922 -0.00818303 0.03364127
v 0.05164566 -0.00738481 0.03364127
v 0.05129560 -0.00715324 0.03175259
v 0.05009801 -0.00761463 0.03111412
v 0.04948310 -0.00739534 0.02900147
v 0.04898564 -0.00715499 0.02747380
v 0.04931497 -0.00567785 0.02669159
v 0.05064614 -0.00601468 0.02889784
v 0.05135087 -0.00538488 0.02959982
v 0.05286858 -0.00347441 0.03141831
v 0.05354338 -0.00115870 0.03205678
v 0.05160651 -0.00346915 0.02889784
v 0.05114820 -0.00269023 0.02767771
v 0.05209246 -0.00115870 0.02900147
v 0.05302749 -0.00115870 0.03089683
v 0.05353877 0.00115877 0.03207349
v 0.05302058 0.00115877 0.03091354
v 0.05207173 0.00115877 0.02900147
v 0.05113208 0.00264469 0.02770780
v 0.05158348 0.00344115 0.02890452
v 0.05284555 0.00344992 0.03143168
v 0.05090408 0.00419025 0.02806548
v 0.04878988 0.00481304 0.02543804
v 0.04743108 0.00557442 0.02447197
v 0.04603773 0.00633580 0.02350590
v 0.04685301 0.00724103 0.02505362
v 0.04759920 0.00755856 0.02666485
v 0.04524088 0.00874449 0.02900147
v 0.04524088 0.00833924 0.02668156
v 0.04524088 0.00887080 0.03132137
v 0.04987922 0.00889361 0.04291754
v 0.05219839 0.00873396 0.05219715
v 0.05219839 0.00869011 0.04987725
v 0.05219839 0.00875151 0.05348413
v 0.05348350 -0.00820233 0.05348413
v 0.04987922 -0.00881810 0.04291754
v 0.05219839 -0.00864091 0.04987725
v 0.04755775 -0.00873565 0.03596118
v 0.04755775 -0.00865846 0.03364127
v 0.04755775 -0.00847776 0.03132137
v 0.04755775 -0.00814619 0.02900147
v 0.04756466 -0.00748481 0.02669159
v 0.04679544 -0.00718131 0.02512047
v 0.04834309 -0.00636906 0.02592608
v 0.04879909 -0.00482174 0.02542801
v 0.05091099 -0.00423579 0.02805545
v 0.05027074 -0.00346915 0.02681527
v 0.04901558 -0.00347968 0.02517730
v 0.04927813 -0.00115870 0.02485973
v 0.05043886 -0.00115870 0.02634393
v 0.05126336 -0.00115870 0.02750389
v 0.05124954 0.00115877 0.02752729
v 0.05042505 0.00115877 0.02636734
v 0.04926431 0.00115877 0.02486308
v 0.04899485 0.00347975 0.02519067
v 0.05025232 0.00344115 0.02683199
v 0.04787096 0.00347975 0.02403072
v 0.04646380 0.00479023 0.02314822
v 0.04525469 0.00565687 0.02268691
v 0.04449008 0.00716910 0.02294765
v 0.04525469 0.00752172 0.02431152
v 0.04292170 0.00888659 0.02900147
v 0.04292170 0.00867256 0.02668156
v 0.04060023 0.00881993 0.02668156
v 0.04292170 0.00812521 0.02436166
v 0.04755775 0.00895325 0.04291754
v 0.04755775 0.00892519 0.04059764
v 0.04987922 0.00891466 0.04523744
v 0.04987922 0.00896729 0.05348413
v 0.04987922 0.00893396 0.04755735
v 0.04987922 0.00895150 0.04987725
v 0.04987922 0.00896378 0.05219715
v 0.05219839 -0.00868302 0.05348413
v 0.05219839 -0.00867249 0.05219715
v 0.04755775 -0.00890406 0.04291754
v 0.04755775 -0.00885669 0.04059764
v 0.04524088 -0.00877600 0.03364127
v 0.04987922 -0.00889353 0.04987725
v 0.04524088 -0.00871284 0.03132137
v 0.04524088 -0.00857425 0.02900147
v 0.04524088 -0.00819707 0.02668156
v 0.04517639 -0.00740937 0.02435163
v 0.04436111 -0.00707780 0.02303791
v 0.04590876 -0.00637607 0.02357275
v 0.04741726 -0.00559891 0.02450206
v 0.04649374 -0.00483051 0.02312482
v 0.04789630 -0.00347968 0.02401735
v 0.04821412 -0.00115870 0.02369978
v 0.04820951 0.00115877 0.02370313
v 0.04671022 0.00347975 0.02295434
v 0.04524088 0.00347975 0.02201835
v 0.04329710 0.00347975 0.02110577
v 0.04269601 0.00557617 0.02148351
v 0.03937961 0.00690946 0.02089852
v 0.04292170 0.00736910 0.02262340
v 0.04060023 0.00890589 0.02900147
v 0.04292170 0.00890413 0.03132137
v 0.03828106 0.00888308 0.02668156
v 0.03596188 0.00891115 0.02668156
v 0.03434054 0.00893045 0.02668156
v 0.04060023 0.00841468 0.02436166
v 0.03828106 0.00855853 0.02436166
v 0.03596188 0.00863397 0.02436166
v 0.03434054 0.00868309 0.02436166
v 0.04060023 0.00752348 0.02224901
v 0.04524088 0.00898659 0.04523744
v 0.04755775 0.00896904 0.04523744
v 0.04755775 0.00900238 0.05348413
v 0.04755775 0.00899360 0.04987725
v 0.04755775 0.00898308 0.04755735
v 0.05116202 -0.00879003 0.05348413
v 0.04987922 -0.00891283 0.05219715
v 0.04987922 -0.00891634 0.05348413
v 0.04884285 -0.00891985 0.05348413
v 0.04755775 -0.00891810 0.05219715
v 0.03434054 -0.00886547 0.03132137
v 0.03434054 -0.00879354 0.02668156
v 0.04292170 -0.00877073 0.03132137
v 0.04292170 -0.00870758 0.02900147
v 0.04060023 -0.00865144 0.02668156
v 0.04292170 -0.00851460 0.02668156
v 0.04292170 -0.00795146 0.02436166
v 0.04292170 -0.00725148 0.02272034
v 0.03933125 -0.00689886 0.02091189
v 0.04060023 -0.00641116 0.02112917
v 0.04274207 -0.00562873 0.02155705
v 0.04517639 -0.00568136 0.02272703
v 0.04524088 -0.00347968 0.02198158
v 0.04673556 -0.00347968 0.02293428
v 0.04705338 -0.00115870 0.02267689
v 0.04705107 0.00115877 0.02268023
v 0.04506124 0.00109737 0.02143671
v 0.04379687 0.00183068 0.02095534
v 0.04177478 0.00465515 0.02087846
v 0.04060023 0.00635334 0.02108906
v 0.03783196 0.00709016 0.02076146
v 0.03434054 0.00579722 0.01954468
v 0.03434054 0.00734103 0.02034361
v 0.03434054 0.00894799 0.03132137
v 0.04524088 0.00899711 0.04755735
v 0.03596188 0.00792697 0.02204176
v 0.03434054 0.00808135 0.02204176
v 0.04524088 0.00882694 0.05348413
v 0.03434054 0.00897957 0.04059764
v 0.03434054 0.00897255 0.04221889
v 0.03434054 0.00896904 0.04291754
v 0.03434054 0.00883045 0.04453879
v 0.04755775 -0.00891634 0.05348413
v 0.03434054 -0.00886196 0.04291754
v 0.03434054 -0.00866196 0.02506364
v 0.03596188 -0.00876196 0.02668156
v 0.03828106 -0.00871284 0.02668156
v 0.03434054 -0.00859004 0.02436166
v 0.03596188 -0.00851986 0.02436166
v 0.03828106 -0.00840408 0.02436166
v 0.04060023 -0.00824619 0.02436166
v 0.04060023 -0.00743218 0.02228912
v 0.03778360 -0.00705675 0.02078152
v 0.03434054 -0.00729710 0.02038372
v 0.03434054 -0.00627432 0.01972853
v 0.03434054 -0.00579539 0.01955805
v 0.04185078 -0.00474104 0.02085506
v 0.04340535 -0.00347968 0.02108906
v 0.04386365 -0.00187271 0.02093863
v 0.04506124 -0.00112361 0.02142333
v 0.04416996 -0.00032539 0.02084169
v 0.04416996 0.00028336 0.02084169
v 0.04298158 0.00109737 0.02067455
v 0.04213637 0.00347975 0.02079489
v 0.03434054 0.00498496 0.01946779
v 0.04292862 0.00780592 0.05348413
v 0.03434054 0.00876203 0.04523744
v 0.03434054 0.00817960 0.04685870
v 0.03434054 0.00791118 0.04755735
v 0.03434054 0.00734278 0.04851339
v 0.03434054 0.00710595 0.04889447
v 0.04652368 -0.00882862 0.05348413
v 0.03434054 -0.00862688 0.04523744
v 0.03434054 -0.00821987 0.02274374
v 0.03434054 -0.00801637 0.02204176
v 0.03596188 -0.00784971 0.02204176
v 0.03844688 -0.00748481 0.02182781
v 0.03434054 -0.00749884 0.02080826
v 0.03434054 -0.00347968 0.01933743
v 0.04060023 -0.00347968 0.02044389
v 0.04224461 -0.00347968 0.02076146
v 0.04302304 -0.00112361 0.02066118
v 0.04060023 -0.00115870 0.02023664
v 0.04060023 0.00115877 0.02027676
v 0.03434054 0.00347975 0.01936751
v 0.04202812 0.00703753 0.05348413
v 0.03434054 0.00618141 0.04937583
v 0.04183236 0.00683929 0.05348413
v 0.04524088 -0.00865670 0.05348413
v 0.03434054 -0.00771112 0.04762420
v 0.03434054 0.00060791 0.01933743
v 0.03434054 0.00115877 0.01934077
v 0.03434054 0.00290784 0.01935414
v 0.03434054 0.00579897 0.04956303
v 0.04101478 0.00564284 0.05348413
v 0.04409165 -0.00818654 0.05348413
v 0.03434054 -0.00702342 0.04881424
v 0.03434054 0.00417972 0.04997753
v 0.04058411 0.00434814 0.05348413
v 0.03434054 0.00347975 0.05015136
v 0.04300922 -0.00766551 0.05348413
v 0.03434054 -0.00676027 0.04896467
v 0.04192679 -0.00671817 0.05348413
v 0.04033077 0.00347975 0.05348413
v 0.03434054 0.00186050 0.05025164
v 0.03434054 -0.00586381 0.04946274
v 0.04146157 -0.00618485 0.05348413
v 0.04014883 0.00115877 0.05348413
v 0.03434054 0.00115877 0.05027504
v 0.04108387 -0.00553400 0.05348413
v 0.03434054 -0.00509892 0.04969674
v 0.04015113 -0.00115870 0.05348413
v 0.03434054 -0.00045872 0.05030513
v 0.03434054 -0.00115870 0.05030513
v 0.04036762 -0.00347968 0.05348413
v 0.03434054 -0.00347968 0.05017810
v 0.04025477 -0.00240778 0.05348413
f 1 2 3
f 1 3 4
f 1 4 5
f 1 5 6
f 1 6 15
f 1 15 27
f 1 27 46
f 1 46 73
f 1 73 106
f 1 106 138
f 1 138 178
f 1 178 213
f 1 213 252
f 1 252 287
f 1 287 315
f 1 315 335
f 1 335 337
f 1 337 344
f 1 344 348
f 1 348 353
f 1 353 357
f 1 357 361
f 1 361 366
f 1 366 364
f 1 364 359
f 1 359 356
f 1 356 352
f 1 352 350
f 1 350 345
f 1 345 338
f 1 338 321
f 1 321 292
f 1 292 258
f 1 258 257
f 1 257 255
f 1 255 217
f 1 217 179
f 1 179 140
f 1 140 107
f 1 107 74
f 1 74 47
f 1 47 28
f 1 28 16
f 1 16 7
f 1 7 2
f 2 7 8
f 2 8 3
f 3 8 9
f 3 9 4
f 4 9 20
f 4 20 10
f 4 10 11
f 4 11 5
f 5 11 12
f 5 12 13
f 5 13 14
f 5 14 6
f 6 14 15
f 7 16 17
f 7 17 18
f 7 18 9
f 7 9 8
f 9 18 19
f 9 19 20
f 10 20 21
f 10 21 22
f 10 22 23
f 10 23 11
f 11 23 24
f 11 24 12
f 12 25 13
f 12 24 25
f 13 26 15
f 13 15 14
f 13 25 26
f 15 26 27
f 16 28 29
f 16 29 17
f 17 29 18
f 18 29 30
f 18 30 19
f 19 30 31
f 19 31 32
f 19 32 20
f 20 32 21
f 21 32 33
f 21 33 34
f 21 34 22
f 22 34 35
f 22 35 36
f 22 36 23
f 23 36 37
f 23 37 38
f 23 38 24
f 24 39 40
f 24 40 25
f 24 38 39
f 25 40 41
f 25 41 42
f 25 42 43
f 25 43 44
f 25 44 45
f 25 45 26
f 26 46 27
f 26 45 46
f 28 47 29
f 29 47 48
f 29 48 49
f 29 49 30
f 30 50 31
f 30 49 51
f 30 51 50
f 31 50 52
f 31 52 53
f 31 53 32
f 32 53 54
f 32 54 33
f 33 54 55
f 33 55 56
f 33 56 34
f 34 56 57
f 34 57 58
f 34 58 59
f 34 59 35
f 35 59 60
f 35 60 36
f 36 60 61
f 36 61 37
f 37 61 62
f 37 62 38
f 38 62 63
f 38 63 64
f 38 64 65
f 38 65 39
f 39 65 66
f 39 66 40
f 40 66 41
f 41 66 67
f 41 67 42
f 42 67 68
f 42 68 43
f 43 68 44
f 44 69 45
f 44 68 70
f 44 70 69
f 45 71 72
f 45 72 73
f 45 73 46
f 45 69 71
f 47 74 75
f 47 75 49
f 47 49 48
f 49 75 76
f 49 76 77
f 49 77 51
f 50 77 78
f 50 78 52
f 50 51 77
f 52 79 53
f 52 78 80
f 52 80 79
f 53 79 81
f 53 81 54
f 54 81 82
f 54 82 83
f 54 83 55
f 55 84 57
f 55 57 56
f 55 83 85
f 55 85 84
f 57 84 86
f 57 86 87
f 57 87 88
f 57 88 89
f 57 89 58
f 58 89 90
f 58 90 59
f 59 90 60
f 60 90 91
f 60 91 92
f 60 92 93
f 60 93 94
f 60 94 61
f 61 94 95
f 61 95 63
f 61 63 62
f 63 95 66
f 63 66 64
f 64 66 65
f 66 95 96
f 66 96 97
f 66 97 98
f 66 98 99
f 66 99 100
f 66 100 67
f 67 100 99
f 67 99 101
f 67 101 68
f 68 101 102
f 68 102 103
f 68 103 70
f 69 70 104
f 69 104 71
f 70 105 104
f 70 103 105
f 71 104 72
f 72 104 106
f 72 106 73
f 74 107 108
f 74 108 109
f 74 109 75
f 75 109 76
f 76 109 110
f 76 110 111
f 76 111 77
f 77 111 112
f 77 112 78
f 78 112 113
f 78 113 114
f 78 114 80
f 79 80 115
f 79 115 81
f 80 114 115
f 81 115 82
f 82 115 83
f 83 115 116
f 83 116 85
f 84 85 86
f 85 116 117
f 85 117 118
f 85 118 119
f 85 119 86
f 86 119 120
f 86 120 87
f 87 120 121
f 87 121 92
f 87 92 91
f 87 91 88
f 88 91 89
f 89 91 90
f 92 121 122
f 92 122 123
f 92 123 93
f 93 123 124
f 93 124 125
f 93 125 95
f 93 95 94
f 95 125 96
f 96 125 97
f 97 126 127
f 97 127 128
f 97 128 129
f 97 129 130
f 97 130 131
f 97 131 132
f 97 132 133
f 97 133 98
f 97 125 126
f 98 133 99
f 99 133 101
f 101 133 134
f 101 134 135
f 101 135 102
f 102 135 103
f 103 135 136
f 103 136 137
f 103 137 105
f 104 138 106
f 104 105 138
f 105 137 139
f 105 139 138
f 107 140 108
f 108 140 141
f 108 141 110
f 108 110 109
f 110 141 142
f 110 142 143
f 110 143 111
f 111 143 144
f 111 144 112
f 112 144 145
f 112 145 113
f 113 145 146
f 113 146 114
f 114 146 115
f 115 146 147
f 115 147 117
f 115 117 116
f 117 147 148
f 117 148 149
f 117 149 150
f 117 150 151
f 117 151 152
f 117 152 153
f 117 153 118
f 118 153 154
f 118 154 120
f 118 120 119
f 120 155 121
f 120 154 156
f 120 156 157
f 120 157 158
f 120 158 159
f 120 159 155
f 121 155 160
f 121 160 122
f 122 160 123
f 123 126 124
f 123 160 161
f 123 161 162
f 123 162 163
f 123 163 164
f 123 164 165
f 123 165 126
f 124 126 125
f 126 165 127
f 127 164 166
f 127 166 128
f 127 165 164
f 128 166 129
f 129 167 130
f 129 166 167
f 130 167 168
f 130 168 169
f 130 169 170
f 130 170 131
f 131 170 171
f 131 171 134
f 131 134 132
f 132 134 133
f 134 172 135
f 134 171 173
f 134 173 172
f 135 172 136
f 136 172 174
f 136 174 137
f 137 175 176
f 137 176 177
f 137 177 139
f 137 174 175
f 138 139 177
f 138 177 176
f 138 176 178
f 140 179 141
f 141 180 142
f 141 179 181
f 141 181 180
f 142 180 182
f 142 182 183
f 142 183 143
f 143 183 144
f 144 183 184
f 144 184 145
f 145 184 185
f 145 185 148
f 145 148 146
f 146 148 147
f 148 185 149
f 149 185 150
f 150 186 187
f 150 187 188
f 150 188 151
f 150 185 186
f 151 188 189
f 151 189 190
f 151 190 152
f 152 190 153
f 153 190 156
f 153 156 154
f 155 159 160
f 156 190 157
f 157 191 192
f 157 192 193
f 157 193 194
f 157 194 195
f 157 195 158
f 157 190 191
f 158 162 161
f 158 161 159
f 158 195 162
f 159 161 160
f 162 195 196
f 162 196 163
f 163 196 197
f 163 197 198
f 163 198 199
f 163 199 200
f 163 200 166
f 163 166 164
f 166 200 167
f 167 200 199
f 167 199 201
f 167 201 202
f 167 202 168
f 168 202 169
f 169 202 203
f 169 203 204
f 169 204 170
f 170 204 205
f 170 205 171
f 171 205 173
f 172 206 174
f 172 173 207
f 172 207 208
f 172 208 206
f 173 205 209
f 173 209 207
f 174 206 210
f 174 210 211
f 174 211 175
f 175 211 210
f 175 210 212
f 175 212 178
f 175 178 176
f 178 212 214
f 178 214 215
f 178 215 216
f 178 216 213
f 179 217 218
f 179 218 181
f 180 219 220
f 180 220 221
f 180 221 182
f 180 181 218
f 180 218 222
f 180 222 219
f 182 221 223
f 182 223 183
f 183 223 224
f 183 224 184
f 184 224 185
f 185 224 225
f 185 225 186
f 186 225 187
f 187 225 226
f 187 226 227
f 187 227 228
f 187 228 188
f 188 228 229
f 188 229 189
f 189 192 191
f 189 191 190
f 189 229 230
f 189 230 231
f 189 231 192
f 192 231 232
f 192 232 193
f 193 232 233
f 193 233 198
f 193 198 194
f 194 197 196
f 194 196 195
f 194 198 197
f 198 233 199
f 199 233 201
f 201 233 234
f 201 234 202
f 202 234 235
f 202 235 203
f 203 235 236
f 203 236 237
f 203 237 204
f 204 209 205
f 204 237 238
f 204 238 239
f 204 239 209
f 206 240 241
f 206 241 210
f 206 208 242
f 206 242 243
f 206 243 244
f 206 244 240
f 207 209 245
f 207 245 208
f 208 245 246
f 208 246 247
f 208 247 248
f 208 248 242
f 209 239 249
f 209 249 245
f 210 250 251
f 210 251 215
f 210 215 214
f 210 214 212
f 210 241 240
f 210 240 250
f 213 216 253
f 213 253 252
f 215 251 254
f 215 254 216
f 216 254 253
f 217 255 256
f 217 256 218
f 218 256 222
f 219 222 256
f 219 256 257
f 219 257 258
f 219 258 259
f 219 259 260
f 219 260 261
f 219 261 262
f 219 262 221
f 219 221 220
f 221 262 263
f 221 263 223
f 223 263 224
f 224 263 264
f 224 264 265
f 224 265 225
f 225 265 266
f 225 266 226
f 226 266 227
f 227 267 268
f 227 268 269
f 227 269 270
f 227 270 271
f 227 271 228
f 227 266 267
f 228 271 230
f 228 230 229
f 230 271 272
f 230 272 273
f 230 273 231
f 231 273 232
f 232 273 274
f 232 274 275
f 232 275 233
f 233 275 234
f 234 275 235
f 235 276 277
f 235 277 236
f 235 275 276
f 236 277 278
f 236 278 237
f 237 278 279
f 237 279 238
f 238 280 239
f 238 279 278
f 238 278 281
f 238 281 282
f 238 282 280
f 239 280 249
f 240 244 250
f 242 248 243
f 243 248 244
f 244 248 286
f 244 286 282
f 244 282 281
f 244 281 314
f 244 314 334
f 244 334 342
f 244 342 341
f 244 341 340
f 244 340 328
f 244 328 305
f 244 305 304
f 244 304 303
f 244 303 327
f 244 327 324
f 244 324 323
f 244 323 297
f 244 297 294
f 244 294 261
f 244 261 260
f 244 260 293
f 244 293 322
f 244 322 339
f 244 339 346
f 244 346 351
f 244 351 355
f 244 355 360
f 244 360 365
f 244 365 363
f 244 363 362
f 244 362 358
f 244 358 354
f 244 354 349
f 244 349 347
f 244 347 343
f 244 343 336
f 244 336 320
f 244 320 319
f 244 319 318
f 244 318 317
f 244 317 316
f 244 316 291
f 244 291 290
f 244 290 289
f 244 289 288
f 244 288 283
f 244 283 284
f 244 284 250
f 245 249 285
f 245 285 286
f 245 286 246
f 246 286 247
f 247 286 248
f 249 280 282
f 249 282 285
f 250 284 253
f 250 253 254
f 250 254 251
f 252 253 284
f 252 284 288
f 252 288 289
f 252 289 290
f 252 290 291
f 252 291 287
f 255 257 256
f 258 292 259
f 259 292 293
f 259 293 260
f 261 294 295
f 261 295 263
f 261 263 262
f 263 295 296
f 263 296 264
f 264 296 294
f 264 294 297
f 264 297 298
f 264 298 299
f 264 299 265
f 265 299 300
f 265 300 266
f 266 300 301
f 266 301 267
f 267 301 268
f 268 302 303
f 268 303 304
f 268 304 305
f 268 305 306
f 268 306 269
f 268 301 302
f 269 306 270
f 270 306 307
f 270 307 271
f 271 307 272
f 272 307 308
f 272 308 309
f 272 309 274
f 272 274 273
f 274 309 310
f 274 310 311
f 274 311 275
f 275 311 276
f 276 311 277
f 277 311 312
f 277 312 313
f 277 313 278
f 278 313 281
f 281 312 314
f 281 313 312
f 282 286 285
f 283 288 284
f 287 291 316
f 287 316 317
f 287 317 318
f 287 318 319
f 287 319 320
f 287 320 315
f 292 321 293
f 293 321 322
f 294 296 295
f 297 323 298
f 298 323 299
f 299 323 300
f 300 323 324
f 300 324 325
f 300 325 301
f 301 325 326
f 301 326 302
f 302 326 303
f 303 326 327
f 305 328 329
f 305 329 306
f 306 330 308
f 306 308 307
f 306 329 330
f 308 330 331
f 308 331 310
f 308 310 309
f 310 331 332
f 310 332 311
f 311 332 333
f 311 333 312
f 312 333 334
f 312 334 314
f 315 320 335
f 320 336 337
f 320 337 335
f 321 338 322
f 322 338 339
f 324 327 325
f 325 327 326
f 328 340 332
f 328 332 331
f 328 331 329
f 329 331 330
f 332 340 341
f 332 341 342
f 332 342 333
f 333 342 334
f 336 343 337
f 337 343 344
f 338 345 346
f 338 346 339
f 343 347 344
f 344 347 349
f 344 349 348
f 345 350 346
f 346 350 352
f 346 352 351
f 348 349 353
f 349 354 353
f 351 352 355
f 352 356 355
f 353 354 357
f 354 358 357
f 355 356 359
f 355 359 360
f 357 358 362
f 357 362 363
f 357 363 361
f 359 364 365
f 359 365 360
f 361 363 366
f 363 365 366
f 364 366 365

