# https://github.com/mikedh/trimesh
v 0.05765928 -0.00115929 0.17748418
v 0.05750956 -0.00203763 0.17603802
v 0.05765928 -0.00115929 0.17603802
v 0.05764839 0.00115924 0.17603802
v 0.05764567 0.00115924 0.17748418
v 0.05762389 0.00115924 0.17980214
v 0.05763206 -0.00115929 0.17980214
v 0.05725912 -0.00347960 0.17980214
v 0.05725912 -0.00347960 0.17748418
v 0.05724279 -0.00347960 0.17603802
v 0.05727545 0.00347955 0.17603802
v 0.05729995 0.00347955 0.17748418
v 0.05730812 0.00347955 0.17980214
v 0.05727001 0.00347955 0.18212010
v 0.05757489 0.00115924 0.18212010
v 0.05758306 -0.00115929 0.18212010
v 0.05722918 -0.00347960 0.18212010
v 0.05647242 -0.00579991 0.17980214
v 0.05647786 -0.00579991 0.17748418
v 0.05646697 -0.00579991 0.17603802
v 0.05683447 0.00492151 0.17603802
v 0.05656225 0.00579985 0.17603802
v 0.05657858 0.00579985 0.17748418
v 0.05657042 0.00579985 0.17980214
v 0.05652686 0.00579985 0.18212010
v 0.05642070 0.00579985 0.18444318
v 0.05715296 0.00347955 0.18444318
v 0.05746056 0.00115924 0.18444318
v 0.05747417 -0.00115929 0.18444318
v 0.05714207 -0.00347960 0.18444318
v 0.05643431 -0.00579991 0.18212010
v 0.05582183 -0.00708719 0.17980214
v 0.05583816 -0.00709608 0.17748418
v 0.05584360 -0.00709786 0.17603802
v 0.05579732 -0.00706585 0.18212010
v 0.05615120 0.00663374 0.17603802
v 0.05588988 0.00714048 0.17603802
v 0.05588443 0.00713692 0.17748418
v 0.05586538 0.00712625 0.17980214
v 0.05583816 0.00710669 0.18212010
v 0.05579460 0.00707113 0.18444318
v 0.05572655 0.00700712 0.18676114
v 0.05568299 0.00696445 0.18797653
v 0.05624648 0.00579985 0.18676114
v 0.05693246 0.00347955 0.18676114
v 0.05722646 0.00115924 0.18676114
v 0.05693246 -0.00347960 0.18676114
v 0.05723462 -0.00115929 0.18676114
v 0.05634720 -0.00579991 0.18444318
v 0.05604232 -0.00551543 0.18908423
v 0.05609948 -0.00597949 0.18668935
v 0.05574560 -0.00702140 0.18444318
v 0.05451791 -0.00771661 0.17980214
v 0.05451791 -0.00768460 0.18212010
v 0.05451791 -0.00773261 0.17748418
v 0.05501879 -0.00749613 0.17603802
v 0.05451791 -0.00761526 0.18444318
v 0.05451791 0.00784635 0.17603802
v 0.05451791 0.00784101 0.17748418
v 0.05451791 0.00782146 0.17980214
v 0.05451791 0.00779123 0.18212010
v 0.05451791 0.00773433 0.18444318
v 0.05451791 0.00763832 0.18676114
v 0.05468396 0.00743029 0.18888423
v 0.05424297 0.00748897 0.19140219
v 0.05403064 0.00742496 0.19372015
v 0.05381287 0.00733428 0.19604324
v 0.05358693 0.00717959 0.19836119
v 0.05556594 0.00678487 0.18952013
v 0.05598787 0.00592609 0.18888423
v 0.05589260 0.00527712 0.19140219
v 0.05662214 0.00347955 0.18908423
v 0.05687530 0.00115924 0.18908423
v 0.05688619 -0.00115929 0.18908423
v 0.05661669 -0.00347960 0.18908423
v 0.05587354 -0.00515093 0.19140219
v 0.05569933 -0.00697873 0.18586370
v 0.05547339 -0.00667469 0.18908423
v 0.05560950 -0.00687383 0.18740730
v 0.05219863 -0.00848293 0.17980214
v 0.05219863 -0.00845982 0.18212010
v 0.05219863 -0.00834958 0.18676114
v 0.05219863 -0.00841537 0.18444318
v 0.05219863 -0.00849893 0.17748418
v 0.05307789 -0.00821801 0.17603802
v 0.05451791 -0.00773617 0.17603802
v 0.05470846 -0.00741612 0.18668935
v 0.05431375 -0.00746946 0.18908423
v 0.05219863 -0.00816289 0.19140219
v 0.05219863 -0.00826424 0.18908423
v 0.05364138 0.00814683 0.17603802
v 0.05219863 0.00862156 0.17980214
v 0.05219863 0.00860200 0.18212010
v 0.05219863 0.00856466 0.18444318
v 0.05219863 0.00850955 0.18676114
v 0.05219863 0.00842776 0.18908423
v 0.05219863 0.00832641 0.19140219
v 0.05219863 0.00820906 0.19372015
v 0.05219863 0.00805437 0.19604324
v 0.05219863 0.00782857 0.19836119
v 0.05174676 0.00744274 0.20299712
v 0.05142010 0.00728983 0.20531507
v 0.05343177 0.00704091 0.19980735
v 0.05540261 0.00643816 0.19140219
v 0.05575649 0.00489129 0.19295091
v 0.05625193 0.00347955 0.19140219
v 0.05646970 0.00115924 0.19140219
v 0.05648603 -0.00115929 0.19140219
v 0.05624920 -0.00347960 0.19140219
v 0.05574832 -0.00484156 0.19288425
v 0.05528828 -0.00631020 0.19140219
v 0.05373393 -0.00725077 0.19604324
v 0.05394081 -0.00734678 0.19372015
v 0.05412864 -0.00741434 0.19140219
v 0.05337733 -0.00697873 0.19960223
v 0.05350799 -0.00709075 0.19836119
v 0.04987936 -0.00878519 0.18212010
v 0.04987936 -0.00867851 0.18908423
v 0.04987936 -0.00871941 0.18676114
v 0.04987936 -0.00875497 0.18444318
v 0.04987936 -0.00855227 0.19372015
v 0.04987936 -0.00862517 0.19140219
v 0.05219863 -0.00850782 0.17603802
v 0.05219863 -0.00804376 0.19372015
v 0.04987936 -0.00844915 0.19604324
v 0.05219863 0.00863756 0.17603802
v 0.05219863 0.00863223 0.17748418
v 0.04987936 0.00898072 0.17980214
v 0.04987936 0.00896827 0.18212010
v 0.04987936 0.00894694 0.18444318
v 0.04987936 0.00891493 0.18676114
v 0.04987936 0.00880470 0.19140219
v 0.04987936 0.00873535 0.19372015
v 0.04987936 0.00862334 0.19604324
v 0.04987936 0.00849532 0.19836119
v 0.04987936 0.00834597 0.20068428
v 0.04987936 0.00817884 0.20299712
v 0.04987936 0.00793703 0.20531507
v 0.04997191 0.00748897 0.20762790
v 0.04928320 0.00735562 0.20995612
v 0.05118055 0.00710492 0.20684329
v 0.05316228 0.00653239 0.20135095
v 0.05364954 0.00577496 0.20062275
v 0.05420214 0.00579985 0.19836119
v 0.05345899 0.00498552 0.20218173
v 0.05559588 0.00386715 0.19449964
v 0.05582999 0.00324840 0.19372528
v 0.05567755 0.00232028 0.19488425
v 0.05600149 0.00115924 0.19372015
v 0.05602054 -0.00115929 0.19372015
v 0.05569116 -0.00241457 0.19493554
v 0.05583816 -0.00330536 0.19368425
v 0.05557138 -0.00396144 0.19443297
v 0.05344810 -0.00492690 0.20215608
v 0.05360871 -0.00573946 0.20049967
v 0.05410142 -0.00579991 0.19836119
v 0.05219863 -0.00765793 0.19836119
v 0.05219863 -0.00788730 0.19604324
v 0.05113972 -0.00705519 0.20676636
v 0.05133843 -0.00719921 0.20531507
v 0.05164603 -0.00734500 0.20299712
v 0.04987936 -0.00882253 0.17603802
v 0.04755735 -0.00884209 0.19140219
v 0.04755735 -0.00880831 0.19372015
v 0.04755735 -0.00855405 0.20068428
v 0.04755735 -0.00865184 0.19836119
v 0.04755735 -0.00874074 0.19604324
v 0.04987936 -0.00817711 0.20068428
v 0.04987936 -0.00832469 0.19836119
v 0.04755735 -0.00844204 0.20299712
v 0.05131938 0.00877091 0.17603802
v 0.04987936 0.00898605 0.17748418
v 0.04755735 0.00908562 0.18444318
v 0.04755735 0.00907851 0.18676114
v 0.04755735 0.00904295 0.19140219
v 0.04755735 0.00901806 0.19372015
v 0.04755735 0.00894872 0.19604324
v 0.04755735 0.00885804 0.19836119
v 0.04755735 0.00873891 0.20068428
v 0.04755735 0.00859845 0.20299712
v 0.04755735 0.00843843 0.20531507
v 0.04755735 0.00825351 0.20763816
v 0.04755735 0.00799926 0.20995612
v 0.04764447 0.00749963 0.21230485
v 0.04892660 0.00715470 0.21154587
v 0.05080761 0.00631548 0.20839201
v 0.05136021 0.00564517 0.20762790
v 0.05217686 0.00579985 0.20531507
v 0.05355699 0.00347955 0.20250993
v 0.05407148 0.00347955 0.20068428
v 0.05468668 0.00347955 0.19836119
v 0.05263962 0.00347955 0.20531507
v 0.05321400 0.00347955 0.20366891
v 0.05535089 0.00324840 0.19581246
v 0.05571021 0.00115924 0.19500221
v 0.05484457 0.00115924 0.19836119
v 0.05541350 0.00115924 0.19616631
v 0.05571838 -0.00115929 0.19504323
v 0.05542439 -0.00115929 0.19620221
v 0.05486635 -0.00115929 0.19836119
v 0.05407964 -0.00347960 0.20068428
v 0.05468941 -0.00347960 0.19836119
v 0.05533456 -0.00330536 0.19584324
v 0.05355971 -0.00347960 0.20251506
v 0.05321127 -0.00347960 0.20367917
v 0.05264779 -0.00347960 0.20531507
v 0.05134115 -0.00565056 0.20757662
v 0.05208975 -0.00579991 0.20531507
v 0.04987936 -0.00777884 0.20531507
v 0.04987936 -0.00800998 0.20299712
v 0.05077767 -0.00632442 0.20831509
v 0.04891299 -0.00712809 0.21154075
v 0.04925054 -0.00729877 0.20995612
v 0.04995558 -0.00740012 0.20757662
v 0.04755735 -0.00888121 0.17603802
v 0.04755735 -0.00885631 0.18908423
v 0.04523808 -0.00895233 0.18908423
v 0.04292153 -0.00895766 0.19836119
v 0.04523808 -0.00891677 0.19372015
v 0.04523808 -0.00893810 0.19140219
v 0.04523808 -0.00876208 0.20068428
v 0.04292153 -0.00890788 0.20068428
v 0.04523808 -0.00868385 0.20299712
v 0.04755735 -0.00829268 0.20531507
v 0.04523808 -0.00843670 0.20763816
v 0.04523808 -0.00856828 0.20531507
v 0.04987936 0.00898783 0.17603802
v 0.04755735 0.00908918 0.18212010
v 0.04523808 0.00914430 0.18908423
v 0.04523808 0.00914074 0.19140219
v 0.04523808 0.00912296 0.19372015
v 0.04523808 0.00909273 0.19604324
v 0.04523808 0.00904117 0.19836119
v 0.04523808 0.00897005 0.20068428
v 0.04523808 0.00887404 0.20299712
v 0.04523808 0.00874602 0.20531507
v 0.04523808 0.00857889 0.20763816
v 0.04523808 0.00838864 0.20995612
v 0.04523808 0.00817528 0.21227920
v 0.04523808 0.00784635 0.21459717
v 0.04688498 0.00727027 0.21459717
v 0.04651749 0.00706580 0.21595102
v 0.04647938 0.00478994 0.21819718
v 0.04641677 0.00008710 0.22274592
v 0.05106894 0.00476861 0.20885868
v 0.05363321 0.00115924 0.20278686
v 0.05329839 0.00115924 0.20394583
v 0.05422392 0.00115924 0.20068428
v 0.05280023 0.00115924 0.20531507
v 0.05424570 -0.00115929 0.20068428
v 0.05364410 -0.00115929 0.20281250
v 0.05330383 -0.00115929 0.20397661
v 0.05107166 -0.00477755 0.20887407
v 0.05281384 -0.00115929 0.20531507
v 0.04641677 -0.00005870 0.22274592
v 0.04755735 -0.00788730 0.20995612
v 0.04755735 -0.00811310 0.20763816
v 0.04847472 -0.00636354 0.21308434
v 0.04650933 -0.00705341 0.21593563
v 0.04687954 -0.00723832 0.21459717
v 0.04764447 -0.00744279 0.21229972
v 0.04523808 -0.00876564 0.17603802
v 0.04060225 -0.00899500 0.19836119
v 0.03828025 -0.00897722 0.20068428
v 0.02985245 -0.00876564 0.20763816
v 0.04292153 -0.00898255 0.19604324
v 0.04060225 -0.00900389 0.20068428
v 0.04292153 -0.00884031 0.20299712
v 0.04060225 -0.00889010 0.20531507
v 0.04060225 -0.00895411 0.20299712
v 0.04292153 -0.00865895 0.20763816
v 0.04292153 -0.00875497 0.20531507
v 0.04523808 -0.00828024 0.20995612
v 0.04292153 -0.00853094 0.20995612
v 0.04900010 0.00902695 0.17603802
v 0.04755735 0.00908918 0.17748418
v 0.04292153 0.00914963 0.19604324
v 0.04755735 0.00908562 0.17603802
v 0.02985245 0.00914608 0.20763816
v 0.02985245 0.00915319 0.20910483
v 0.03828025 0.00916030 0.20299712
v 0.04292153 0.00913185 0.19836119
v 0.04292153 0.00909629 0.20068428
v 0.04292153 0.00904117 0.20299712
v 0.04292153 0.00895938 0.20531507
v 0.04292153 0.00884559 0.20763816
v 0.04292153 0.00866068 0.20995612
v 0.03596097 0.00844376 0.22155617
v 0.04060225 0.00805971 0.21923821
v 0.04292153 0.00798503 0.21691513
v 0.04294058 0.00745341 0.21924334
v 0.04520269 0.00735739 0.21680231
v 0.04440510 0.00717248 0.21847411
v 0.04372728 0.00658574 0.22001770
v 0.04465009 0.00278434 0.22325361
v 0.04534969 0.00097966 0.22342798
v 0.04528164 -0.00096371 0.22334593
v 0.04453849 -0.00269550 0.22311002
v 0.04523808 -0.00777350 0.21459717
v 0.04523808 -0.00807932 0.21227920
v 0.04438332 -0.00714764 0.21844847
v 0.04518908 -0.00731833 0.21679205
v 0.04292153 -0.00792819 0.17603802
v 0.02985245 -0.00866607 0.20531507
v 0.02985245 -0.00838336 0.20299712
v 0.03828025 -0.00899678 0.20299712
v 0.02985245 -0.00878875 0.20995612
v 0.03828025 -0.00895411 0.20531507
v 0.04060225 -0.00881186 0.20763816
v 0.03828025 -0.00889543 0.20763816
v 0.04060225 -0.00869629 0.20995612
v 0.04292153 -0.00835314 0.21227920
v 0.03596097 -0.00841003 0.21923821
v 0.03596097 -0.00856472 0.21691513
v 0.04060225 0.00915319 0.20068428
v 0.04668082 0.00904295 0.17603802
v 0.02985245 0.00912474 0.20678687
v 0.02985245 0.00915497 0.20995612
v 0.03132242 0.00915319 0.20995612
v 0.03132242 0.00914430 0.21227920
v 0.03828025 0.00913719 0.20531507
v 0.04060225 0.00912829 0.20299712
v 0.04060225 0.00908740 0.20531507
v 0.04060225 0.00902873 0.20763816
v 0.04060225 0.00890071 0.20995612
v 0.03364169 0.00867846 0.22155617
v 0.03132242 0.00863756 0.22387926
v 0.03828025 0.00810238 0.22155617
v 0.04061858 0.00748008 0.22158694
v 0.04218110 0.00720093 0.22083309
v 0.04140528 0.00659285 0.22238182
v 0.04052330 0.00570384 0.22379208
v 0.03964133 0.00481306 0.22517157
v 0.03983460 0.00347955 0.22538696
v 0.03828025 0.00115924 0.22633055
v 0.03828025 -0.00115929 0.22630491
v 0.03974749 -0.00347960 0.22532542
v 0.03955966 -0.00475444 0.22512542
v 0.04129912 -0.00651645 0.22229977
v 0.04368101 -0.00648444 0.21999719
v 0.04042803 -0.00563455 0.22372028
v 0.04292153 -0.00788196 0.21691513
v 0.04292153 -0.00815044 0.21459717
v 0.04213482 -0.00714942 0.22075104
v 0.04291336 -0.00737878 0.21922795
v 0.04162578 -0.00708897 0.17603802
v 0.02985245 -0.00770061 0.20061249
v 0.02985245 -0.00878342 0.21227920
v 0.02985245 -0.00874608 0.21923821
v 0.02985245 -0.00876208 0.21691513
v 0.03132242 -0.00869096 0.21923821
v 0.03364169 -0.00857183 0.21923821
v 0.03828025 -0.00819312 0.21923821
v 0.03596097 -0.00820378 0.22155617
v 0.03364169 -0.00839936 0.22155617
v 0.04523808 0.00895049 0.17603802
v 0.02985245 0.00904651 0.20531507
v 0.02985245 0.00915141 0.21142279
v 0.03364169 0.00911763 0.21227920
v 0.03596097 0.00911585 0.20995612
v 0.02985245 0.00914785 0.21227920
v 0.02985245 0.00901628 0.21838692
v 0.03828025 0.00910163 0.20763816
v 0.03828025 0.00905540 0.20995612
v 0.03132242 0.00884026 0.22155617
v 0.02985245 0.00882959 0.22302285
v 0.02985245 0.00875491 0.22387926
v 0.02985245 0.00807393 0.22553055
v 0.03132242 0.00772189 0.22590491
v 0.03364169 0.00829441 0.22387926
v 0.03828025 0.00743918 0.22343823
v 0.03985910 0.00718848 0.22300746
v 0.03828025 0.00638660 0.22459721
v 0.03692462 0.00679554 0.22493567
v 0.03537843 0.00719204 0.22523311
v 0.02992051 0.00683110 0.22729466
v 0.03132242 0.00518110 0.22758697
v 0.03258005 0.00471527 0.22739209
v 0.03828025 0.00347955 0.22594081
v 0.02985245 0.00347955 0.22829466
v 0.02985245 0.00115924 0.22839210
v 0.02985245 -0.00115929 0.22842800
v 0.03828025 -0.00347960 0.22585363
v 0.02985245 -0.00262615 0.22836133
v 0.02985245 -0.00347960 0.22831005
v 0.03249567 -0.00465487 0.22736133
v 0.03690828 -0.00675826 0.22490490
v 0.03828025 -0.00631553 0.22452028
v 0.03975021 -0.00711208 0.22293566
v 0.03117270 -0.00557766 0.22754594
v 0.03029889 -0.00702140 0.22740748
v 0.04060225 -0.00789796 0.21923821
v 0.04055597 -0.00736634 0.22154079
v 0.03828025 -0.00789085 0.22155617
v 0.02985245 -0.00631731 0.19794581
v 0.04125012 -0.00658401 0.17603802
v 0.02985245 -0.00711919 0.19917658
v 0.02985245 -0.00861806 0.22155617
v 0.03132242 -0.00854516 0.22155617
v 0.03364169 -0.00804910 0.22387926
v 0.03132242 -0.00831935 0.22387926
v 0.02985245 -0.00842781 0.22387926
v 0.04436155 0.00865179 0.17603802
v 0.02985245 0.00870335 0.20299712
v 0.02985245 0.00895583 0.20446379
v 0.02985245 0.00898961 0.21923821
v 0.02985245 0.00894160 0.22070488
v 0.02985245 0.00890782 0.22155617
v 0.02985245 0.00775922 0.22622286
v 0.03364169 0.00747119 0.22552029
v 0.03607530 0.00765077 0.22404849
v 0.02985245 0.00690756 0.22721774
v 0.02985245 0.00676176 0.22734081
v 0.02985245 0.00568962 0.22777671
v 0.02985245 0.00410363 0.22818697
v 0.02985245 -0.00571101 0.22789979
v 0.03536210 -0.00715831 0.22524850
v 0.03828025 -0.00732189 0.22336131
v 0.02985245 -0.00708719 0.22746902
v 0.03364169 -0.00738056 0.22555619
v 0.02985245 -0.00557943 0.19704837
v 0.04069752 -0.00579991 0.17603802
v 0.03606713 -0.00752636 0.22403311
v 0.02985245 -0.00775217 0.22621773
v 0.04292153 0.00811838 0.17603802
v 0.02985245 0.00847576 0.20215096
v 0.03117270 -0.00748191 0.22625363
v 0.02985245 -0.00522917 0.19662272
v 0.04032731 -0.00517760 0.17603802
v 0.04237165 0.00776100 0.17603802
v 0.02985245 0.00784457 0.20058172
v 0.04151689 0.00719559 0.17603802
v 0.02985245 -0.00353828 0.19592529
v 0.03931739 -0.00275417 0.17603802
v 0.03967127 -0.00391521 0.17603802
v 0.02985245 0.00750319 0.19975094
v 0.04050697 0.00579985 0.17603802
v 0.02985245 0.00700357 0.19895094
v 0.02985245 0.00714048 0.19915094
v 0.02985245 -0.00228300 0.19591503
v 0.03908601 0.00115924 0.17603802
v 0.03911323 -0.00115929 0.17603802
v 0.03921123 -0.00205897 0.17603802
v 0.03959233 0.00407874 0.17603802
v 0.02985245 0.00586386 0.19752530
v 0.02985245 0.00625325 0.19800222
v 0.02985245 -0.00115929 0.19590990
v 0.02985245 0.00124458 0.19594580
v 0.02985245 0.00347955 0.19615093
v 0.03929017 0.00291947 0.17603802
v 0.03947528 0.00363957 0.17603802
v 0.02985245 0.00508331 0.19680734
v 0.02985245 0.00475794 0.19663811
f 1 2 3
f 1 3 4
f 1 4 5
f 1 5 6
f 1 6 7
f 1 7 8
f 1 8 2
f 2 8 9
f 2 9 10
f 2 10 20
f 2 20 34
f 2 34 56
f 2 56 86
f 2 86 85
f 2 85 123
f 2 123 162
f 2 162 215
f 2 215 262
f 2 262 303
f 2 303 346
f 2 346 396
f 2 396 422
f 2 422 429
f 2 429 435
f 2 435 434
f 2 434 443
f 2 443 442
f 2 442 441
f 2 441 450
f 2 450 451
f 2 451 444
f 2 444 437
f 2 437 432
f 2 432 430
f 2 430 425
f 2 425 403
f 2 403 356
f 2 356 316
f 2 316 278
f 2 278 275
f 2 275 227
f 2 227 171
f 2 171 126
f 2 126 91
f 2 91 58
f 2 58 37
f 2 37 36
f 2 36 22
f 2 22 21
f 2 21 11
f 2 11 4
f 2 4 3
f 4 11 12
f 4 12 13
f 4 13 5
f 5 13 6
f 6 13 14
f 6 14 15
f 6 15 16
f 6 16 7
f 7 16 17
f 7 17 8
f 8 18 19
f 8 19 9
f 8 17 18
f 9 19 20
f 9 20 10
f 11 21 12
f 12 21 22
f 12 22 23
f 12 23 13
f 13 23 24
f 13 24 14
f 14 24 25
f 14 25 26
f 14 26 27
f 14 27 28
f 14 28 15
f 15 28 29
f 15 29 16
f 16 29 30
f 16 30 17
f 17 31 18
f 17 30 49
f 17 49 31
f 18 32 33
f 18 33 34
f 18 34 19
f 18 31 35
f 18 35 32
f 19 34 20
f 22 36 23
f 23 36 37
f 23 37 24
f 24 37 38
f 24 38 39
f 24 39 40
f 24 40 25
f 25 40 41
f 25 41 42
f 25 42 26
f 26 42 43
f 26 43 44
f 26 44 27
f 27 44 45
f 27 45 28
f 28 45 46
f 28 46 29
f 29 47 30
f 29 46 48
f 29 48 47
f 30 47 50
f 30 50 51
f 30 51 49
f 31 49 52
f 31 52 35
f 32 53 33
f 32 35 54
f 32 54 53
f 33 55 56
f 33 56 34
f 33 53 55
f 35 52 57
f 35 57 54
f 37 58 59
f 37 59 38
f 38 59 60
f 38 60 39
f 39 60 61
f 39 61 40
f 40 61 62
f 40 62 41
f 41 62 63
f 41 63 42
f 42 63 43
f 43 64 65
f 43 65 66
f 43 66 67
f 43 67 68
f 43 68 69
f 43 69 70
f 43 70 44
f 43 63 64
f 44 70 45
f 45 70 71
f 45 71 72
f 45 72 46
f 46 72 73
f 46 73 74
f 46 74 48
f 47 48 75
f 47 75 76
f 47 76 50
f 48 74 75
f 49 51 77
f 49 77 52
f 50 76 78
f 50 78 79
f 50 79 51
f 51 79 77
f 52 77 57
f 53 80 84
f 53 84 55
f 53 54 81
f 53 81 80
f 54 57 82
f 54 82 83
f 54 83 81
f 55 84 85
f 55 85 86
f 55 86 56
f 57 77 87
f 57 87 88
f 57 88 89
f 57 89 90
f 57 90 82
f 58 91 59
f 59 91 92
f 59 92 93
f 59 93 60
f 60 93 61
f 61 93 94
f 61 94 95
f 61 95 62
f 62 95 96
f 62 96 63
f 63 96 97
f 63 97 98
f 63 98 65
f 63 65 64
f 65 98 99
f 65 99 66
f 66 99 67
f 67 99 100
f 67 100 68
f 68 100 101
f 68 101 102
f 68 102 103
f 68 103 69
f 69 104 71
f 69 71 70
f 69 103 104
f 71 104 105
f 71 105 72
f 72 105 106
f 72 106 73
f 73 106 107
f 73 107 108
f 73 108 74
f 74 108 109
f 74 109 75
f 75 109 110
f 75 110 76
f 76 110 111
f 76 111 78
f 77 79 112
f 77 112 113
f 77 113 114
f 77 114 88
f 77 88 87
f 78 111 115
f 78 115 116
f 78 116 79
f 79 116 112
f 80 81 117
f 80 117 84
f 81 83 118
f 81 118 119
f 81 119 120
f 81 120 117
f 82 90 121
f 82 121 122
f 82 122 83
f 83 122 118
f 84 123 85
f 84 117 123
f 88 114 124
f 88 124 89
f 89 124 125
f 89 125 121
f 89 121 90
f 91 126 127
f 91 127 92
f 92 128 129
f 92 129 93
f 92 127 128
f 93 129 130
f 93 130 131
f 93 131 94
f 94 131 132
f 94 132 95
f 95 132 133
f 95 133 96
f 96 133 97
f 97 133 134
f 97 134 98
f 98 134 135
f 98 135 136
f 98 136 99
f 99 136 137
f 99 137 100
f 100 137 138
f 100 138 101
f 101 138 102
f 102 138 139
f 102 139 140
f 102 140 141
f 102 141 103
f 103 141 142
f 103 142 143
f 103 143 144
f 103 144 105
f 103 105 104
f 105 144 145
f 105 145 146
f 105 146 106
f 106 146 147
f 106 147 107
f 107 147 148
f 107 148 149
f 107 149 150
f 107 150 108
f 108 150 151
f 108 151 152
f 108 152 109
f 109 152 110
f 110 152 153
f 110 153 154
f 110 154 155
f 110 155 156
f 110 156 115
f 110 115 111
f 112 116 157
f 112 157 158
f 112 158 113
f 113 158 124
f 113 124 114
f 115 155 154
f 115 154 159
f 115 159 160
f 115 160 116
f 115 156 155
f 116 160 161
f 116 161 157
f 117 162 123
f 117 120 163
f 117 163 162
f 118 122 164
f 118 164 119
f 119 164 120
f 120 164 163
f 121 125 165
f 121 165 166
f 121 166 167
f 121 167 122
f 122 167 164
f 124 158 168
f 124 168 169
f 124 169 125
f 125 169 170
f 125 170 165
f 126 171 172
f 126 172 128
f 126 128 127
f 128 173 174
f 128 174 129
f 128 172 173
f 129 174 175
f 129 175 130
f 130 175 176
f 130 176 131
f 131 176 132
f 132 176 177
f 132 177 133
f 133 177 178
f 133 178 134
f 134 178 179
f 134 179 135
f 135 179 180
f 135 180 136
f 136 180 181
f 136 181 137
f 137 181 182
f 137 182 138
f 138 182 183
f 138 183 140
f 138 140 139
f 140 183 184
f 140 184 185
f 140 185 141
f 141 185 186
f 141 186 187
f 141 187 188
f 141 188 142
f 142 188 145
f 142 145 143
f 143 145 144
f 145 189 190
f 145 190 191
f 145 191 146
f 145 188 192
f 145 192 193
f 145 193 189
f 146 191 194
f 146 194 148
f 146 148 147
f 148 195 149
f 148 194 191
f 148 191 196
f 148 196 197
f 148 197 195
f 149 195 150
f 150 195 198
f 150 198 151
f 151 153 152
f 151 198 199
f 151 199 200
f 151 200 201
f 151 201 202
f 151 202 203
f 151 203 153
f 153 203 202
f 153 202 154
f 154 202 201
f 154 201 204
f 154 204 205
f 154 205 206
f 154 206 207
f 154 207 208
f 154 208 159
f 157 161 209
f 157 209 210
f 157 210 158
f 158 210 168
f 159 209 160
f 159 208 207
f 159 207 211
f 159 211 212
f 159 212 213
f 159 213 214
f 159 214 209
f 160 209 161
f 162 163 216
f 162 216 217
f 162 217 215
f 163 164 218
f 163 218 219
f 163 219 220
f 163 220 217
f 163 217 216
f 164 167 221
f 164 221 222
f 164 222 218
f 165 170 223
f 165 223 166
f 166 223 167
f 167 223 221
f 168 210 224
f 168 224 170
f 168 170 169
f 170 224 225
f 170 225 226
f 170 226 223
f 171 227 172
f 172 227 228
f 172 228 173
f 173 228 229
f 173 229 230
f 173 230 174
f 174 230 175
f 175 230 231
f 175 231 176
f 176 231 232
f 176 232 233
f 176 233 177
f 177 233 234
f 177 234 178
f 178 234 235
f 178 235 179
f 179 235 236
f 179 236 180
f 180 236 181
f 181 236 237
f 181 237 182
f 182 237 238
f 182 238 239
f 182 239 183
f 183 239 240
f 183 240 184
f 184 240 241
f 184 241 185
f 185 241 242
f 185 242 243
f 185 243 244
f 185 244 186
f 186 244 187
f 187 244 245
f 187 245 192
f 187 192 188
f 189 246 190
f 189 193 247
f 189 247 246
f 190 246 248
f 190 248 196
f 190 196 191
f 192 249 247
f 192 247 193
f 192 245 244
f 192 244 249
f 195 197 199
f 195 199 198
f 196 200 197
f 196 248 250
f 196 250 200
f 197 200 199
f 200 250 201
f 201 250 251
f 201 251 204
f 204 251 252
f 204 252 205
f 205 252 206
f 206 253 207
f 206 252 254
f 206 254 255
f 206 255 253
f 207 253 211
f 209 214 213
f 209 213 256
f 209 256 210
f 210 256 257
f 210 257 224
f 211 253 255
f 211 255 212
f 212 258 259
f 212 259 260
f 212 260 261
f 212 261 213
f 212 255 258
f 213 261 256
f 215 217 263
f 215 263 264
f 215 264 265
f 215 265 262
f 217 220 266
f 217 266 263
f 218 266 219
f 218 222 267
f 218 267 266
f 219 266 220
f 221 223 268
f 221 268 222
f 222 268 269
f 222 269 270
f 222 270 267
f 223 226 271
f 223 271 272
f 223 272 268
f 224 257 273
f 224 273 225
f 225 273 274
f 225 274 226
f 226 274 271
f 227 275 228
f 228 275 276
f 228 276 229
f 229 277 230
f 229 276 278
f 229 278 279
f 229 279 280
f 229 280 281
f 229 281 277
f 230 277 282
f 230 282 231
f 231 282 232
f 232 282 283
f 232 283 233
f 233 283 284
f 233 284 234
f 234 284 285
f 234 285 235
f 235 285 286
f 235 286 236
f 236 286 237
f 237 286 287
f 237 287 238
f 238 287 288
f 238 288 239
f 239 288 289
f 239 289 290
f 239 290 240
f 240 290 291
f 240 291 292
f 240 292 241
f 241 292 242
f 242 292 293
f 242 293 294
f 242 294 295
f 242 295 243
f 243 295 244
f 244 295 296
f 244 296 255
f 244 255 254
f 244 254 249
f 246 251 250
f 246 250 248
f 246 247 251
f 247 249 252
f 247 252 251
f 249 254 252
f 255 296 297
f 255 297 298
f 255 298 259
f 255 259 258
f 256 261 299
f 256 299 300
f 256 300 257
f 257 300 273
f 259 298 301
f 259 301 302
f 259 302 260
f 260 302 299
f 260 299 261
f 262 265 304
f 262 304 305
f 262 305 303
f 263 266 267
f 263 267 306
f 263 306 264
f 264 306 307
f 264 307 265
f 265 307 348
f 265 348 350
f 265 350 349
f 265 349 398
f 265 398 402
f 265 402 424
f 265 424 419
f 265 419 416
f 265 416 385
f 265 385 384
f 265 384 382
f 265 382 381
f 265 381 380
f 265 380 415
f 265 415 414
f 265 414 413
f 265 413 412
f 265 412 409
f 265 409 368
f 265 368 367
f 265 367 366
f 265 366 408
f 265 408 407
f 265 407 406
f 265 406 362
f 265 362 361
f 265 361 358
f 265 358 318
f 265 318 280
f 265 280 279
f 265 279 317
f 265 317 357
f 265 357 405
f 265 405 404
f 265 404 426
f 265 426 431
f 265 431 436
f 265 436 439
f 265 439 438
f 265 438 446
f 265 446 445
f 265 445 452
f 265 452 453
f 265 453 449
f 265 449 448
f 265 448 447
f 265 447 440
f 265 440 433
f 265 433 428
f 265 428 421
f 265 421 395
f 265 395 397
f 265 397 347
f 265 347 305
f 265 305 304
f 267 270 308
f 267 308 306
f 268 272 309
f 268 309 269
f 269 309 310
f 269 310 270
f 270 310 308
f 271 274 311
f 271 311 309
f 271 309 272
f 273 300 312
f 273 312 274
f 274 312 313
f 274 313 314
f 274 314 311
f 275 278 276
f 277 281 315
f 277 315 282
f 278 316 317
f 278 317 279
f 280 318 281
f 281 318 319
f 281 319 320
f 281 320 321
f 281 321 315
f 282 315 322
f 282 322 283
f 283 322 323
f 283 323 284
f 284 323 324
f 284 324 285
f 285 324 286
f 286 324 325
f 286 325 287
f 287 325 288
f 288 326 327
f 288 327 328
f 288 328 289
f 288 325 326
f 289 328 291
f 289 291 290
f 291 293 292
f 291 328 329
f 291 329 330
f 291 330 293
f 293 330 294
f 294 330 331
f 294 331 295
f 295 331 332
f 295 332 333
f 295 333 296
f 296 333 334
f 296 334 335
f 296 335 336
f 296 336 297
f 297 337 338
f 297 338 298
f 297 336 337
f 298 339 340
f 298 340 301
f 298 338 341
f 298 341 339
f 299 302 342
f 299 342 300
f 300 342 343
f 300 343 312
f 301 340 344
f 301 344 345
f 301 345 302
f 302 345 342
f 303 305 347
f 303 347 346
f 306 348 307
f 306 308 349
f 306 349 350
f 306 350 348
f 308 310 349
f 309 311 351
f 309 351 349
f 309 349 310
f 311 314 352
f 311 352 351
f 312 343 353
f 312 353 313
f 313 353 354
f 313 354 355
f 313 355 352
f 313 352 314
f 315 321 322
f 316 356 317
f 317 356 357
f 318 358 319
f 319 358 320
f 320 359 360
f 320 360 321
f 320 358 361
f 320 361 362
f 320 362 359
f 321 360 322
f 322 360 363
f 322 363 323
f 323 363 364
f 323 364 324
f 324 364 325
f 325 364 365
f 325 365 326
f 326 365 366
f 326 366 367
f 326 367 327
f 327 367 368
f 327 368 369
f 327 369 370
f 327 370 328
f 328 370 371
f 328 371 372
f 328 372 329
f 329 372 330
f 330 372 331
f 331 372 332
f 332 372 333
f 333 372 373
f 333 373 374
f 333 374 375
f 333 375 376
f 333 376 377
f 333 377 378
f 333 378 379
f 333 379 334
f 334 379 335
f 335 379 378
f 335 378 380
f 335 380 381
f 335 381 382
f 335 382 336
f 336 383 337
f 336 382 384
f 336 384 385
f 336 385 386
f 336 386 383
f 337 383 338
f 338 387 388
f 338 388 389
f 338 389 341
f 338 383 390
f 338 390 391
f 338 391 387
f 339 341 389
f 339 389 344
f 339 344 340
f 342 345 392
f 342 392 353
f 342 353 343
f 344 393 345
f 344 389 393
f 345 393 394
f 345 394 392
f 346 395 396
f 346 347 397
f 346 397 395
f 349 351 398
f 351 352 399
f 351 399 398
f 352 355 399
f 353 392 354
f 354 392 394
f 354 394 400
f 354 400 401
f 354 401 355
f 355 401 402
f 355 402 399
f 356 403 404
f 356 404 405
f 356 405 357
f 359 364 360
f 359 362 406
f 359 406 407
f 359 407 364
f 360 364 363
f 364 407 408
f 364 408 365
f 365 408 366
f 368 409 369
f 369 409 376
f 369 376 410
f 369 410 370
f 370 410 411
f 370 411 371
f 371 411 410
f 371 410 375
f 371 375 372
f 372 375 374
f 372 374 373
f 375 410 376
f 376 409 412
f 376 412 413
f 376 413 414
f 376 414 377
f 377 414 415
f 377 415 378
f 378 415 380
f 383 386 390
f 385 416 386
f 386 416 390
f 387 391 417
f 387 417 389
f 387 389 388
f 389 417 418
f 389 418 393
f 390 416 391
f 391 416 419
f 391 419 420
f 391 420 417
f 393 418 394
f 394 418 400
f 395 421 422
f 395 422 396
f 398 399 402
f 400 418 423
f 400 423 420
f 400 420 424
f 400 424 401
f 401 424 402
f 403 425 404
f 404 425 426
f 417 420 423
f 417 423 418
f 419 424 427
f 419 427 420
f 420 427 424
f 421 428 422
f 422 428 429
f 425 430 426
f 426 430 432
f 426 432 431
f 428 433 434
f 428 434 435
f 428 435 429
f 431 432 436
f 432 437 438
f 432 438 439
f 432 439 436
f 433 440 441
f 433 441 442
f 433 442 443
f 433 443 434
f 437 444 445
f 437 445 446
f 437 446 438
f 440 447 441
f 441 447 448
f 441 448 449
f 441 449 450
f 444 451 452
f 444 452 445
f 449 453 450
f 450 453 452
f 450 452 451

