# https://github.com/mikedh/trimesh
v 0.05845929 -0.00115870 0.06844348
v 0.05815997 -0.00277170 0.06844348
v 0.05815402 -0.00276465 0.06612820
v 0.05844145 -0.00115870 0.06612820
v 0.05843749 0.00115942 0.06612820
v 0.05845136 0.00115942 0.06844348
v 0.05845731 -0.00115870 0.07077076
v 0.05774171 -0.00393164 0.06844348
v 0.05773973 -0.00392459 0.06612820
v 0.05845136 -0.00115870 0.07308604
v 0.05815600 -0.00274878 0.07077076
v 0.05771990 -0.00386466 0.06380093
v 0.05813222 -0.00270471 0.06380093
v 0.05810248 -0.00261657 0.06148565
v 0.05839388 -0.00115870 0.06380093
v 0.05838992 0.00115942 0.06380093
v 0.05810447 0.00265078 0.06148565
v 0.05813023 0.00273364 0.06380093
v 0.05814807 0.00278828 0.06612820
v 0.05815204 0.00279005 0.06844348
v 0.05844542 0.00115942 0.07077076
v 0.05682986 -0.00579849 0.06844348
v 0.05646909 -0.00579849 0.17603802
v 0.05584666 -0.00709770 0.17515029
v 0.05682392 -0.00579849 0.06612820
v 0.05679815 -0.00579849 0.06380093
v 0.05675057 -0.00579849 0.06148565
v 0.05814807 -0.00271529 0.07308604
v 0.05843551 0.00115942 0.07308604
v 0.05764854 0.00115942 0.17603802
v 0.05766044 -0.00115870 0.17603802
v 0.05750978 -0.00203660 0.17603802
v 0.05724218 -0.00347860 0.17603802
v 0.05667921 -0.00579849 0.05917037
v 0.05768621 -0.00377651 0.06148565
v 0.05806482 -0.00250375 0.05917037
v 0.05832053 -0.00115870 0.06148565
v 0.05832252 0.00115942 0.06148565
v 0.05806680 0.00252915 0.05917037
v 0.05771197 0.00381073 0.06148565
v 0.05774567 0.00389358 0.06380093
v 0.05775955 0.00394823 0.06612820
v 0.05775955 0.00394999 0.06844348
v 0.05656226 0.00579921 0.17603802
v 0.05683581 0.00492132 0.17603802
v 0.05727588 0.00347932 0.17603802
v 0.05814411 0.00276184 0.07077076
v 0.05592793 -0.00718407 0.06844348
v 0.05592396 -0.00718584 0.06612820
v 0.05584269 -0.00709770 0.17603802
v 0.05451853 -0.00773937 0.17515029
v 0.05451853 -0.00795620 0.06612820
v 0.05591802 -0.00718231 0.06380093
v 0.05590414 -0.00717350 0.06148565
v 0.05588035 -0.00715234 0.05917037
v 0.05584467 -0.00712238 0.05684309
v 0.05813420 0.00273011 0.07308604
v 0.05578521 -0.00706597 0.05452781
v 0.05656622 -0.00579849 0.05684309
v 0.05763863 -0.00366369 0.05917037
v 0.05802716 -0.00239974 0.05753888
v 0.05823133 -0.00115870 0.05917037
v 0.05823331 0.00115942 0.05917037
v 0.05802914 0.00240751 0.05752688
v 0.05766242 0.00368909 0.05917037
v 0.05665146 0.00579921 0.05684309
v 0.05675255 0.00579921 0.05917037
v 0.05681400 0.00579921 0.06148565
v 0.05685960 0.00579921 0.06380093
v 0.05688339 0.00579921 0.06612820
v 0.05689528 0.00579921 0.06844348
v 0.05689528 0.00579921 0.07077076
v 0.05615193 0.00663303 0.17603802
v 0.05451853 -0.00795267 0.06380093
v 0.05501807 -0.00749610 0.17603802
v 0.05451853 -0.00773584 0.17603802
v 0.05219927 -0.00852559 0.17283502
v 0.05219927 -0.00853264 0.17051973
v 0.05219927 -0.00870011 0.06380093
v 0.05219927 -0.00870188 0.06148565
v 0.05219927 -0.00870188 0.05917037
v 0.05451853 -0.00794386 0.06148565
v 0.05451853 -0.00792094 0.05917037
v 0.05451853 -0.00788568 0.05684309
v 0.05451853 -0.00782222 0.05452781
v 0.05461368 -0.00771998 0.05348413
v 0.05533919 -0.00728632 0.05348413
v 0.05574754 -0.00702895 0.05348413
v 0.05642152 -0.00579849 0.05452781
v 0.05679022 -0.00476370 0.05348413
v 0.05763467 -0.00329526 0.05679510
v 0.05733138 -0.00347860 0.05348413
v 0.05797958 -0.00208243 0.05599135
v 0.05809852 -0.00124861 0.05679510
v 0.05804301 -0.00053642 0.05511563
v 0.05804301 0.00055125 0.05511563
v 0.05809852 0.00125814 0.05679510
v 0.05798156 0.00209725 0.05597936
v 0.05736508 0.00347932 0.05348413
v 0.05744239 0.00347932 0.05452781
v 0.05766440 0.00329951 0.05679510
v 0.05644332 0.00579921 0.05348413
v 0.05651072 0.00579921 0.05452781
v 0.05618166 0.00636508 0.05348413
v 0.05580899 0.00710547 0.05348413
v 0.05583873 0.00713544 0.05452781
v 0.05589621 0.00719361 0.05684309
v 0.05592793 0.00722182 0.05917037
v 0.05594181 0.00723239 0.06148565
v 0.05595370 0.00724297 0.06380093
v 0.05596361 0.00725178 0.06612820
v 0.05597352 0.00725707 0.06844348
v 0.05598145 0.00726236 0.07077076
v 0.05598343 0.00726236 0.07308604
v 0.05589225 0.00714073 0.17515029
v 0.05589027 0.00713896 0.17603802
v 0.05219927 -0.00869835 0.05684309
v 0.05307742 -0.00821710 0.17603802
v 0.05219927 -0.00851325 0.17515029
v 0.04987803 -0.00884114 0.17283502
v 0.04987803 -0.00884819 0.17051973
v 0.04987803 -0.00885172 0.16819246
v 0.04987803 -0.00892223 0.05684309
v 0.04987803 -0.00892047 0.05452781
v 0.05219927 -0.00868954 0.05452781
v 0.05219927 -0.00868249 0.05348413
v 0.05348379 -0.00820123 0.05348413
v 0.05630853 -0.00589015 0.05348413
v 0.05740274 -0.00347860 0.05452781
v 0.05786461 -0.00121159 0.05348413
v 0.05793201 -0.00124861 0.05441985
v 0.05786659 -0.00024027 0.05348413
v 0.05786659 0.00121760 0.05348413
v 0.05793399 0.00125814 0.05441985
v 0.05765647 0.00218892 0.05348413
v 0.05695871 0.00451586 0.05348413
v 0.05451853 0.00790580 0.05348413
v 0.05451853 0.00794987 0.05452781
v 0.05451853 0.00802919 0.05684309
v 0.05451853 0.00807150 0.05917037
v 0.05451853 0.00808737 0.06148565
v 0.05451853 0.00810147 0.06380093
v 0.05451853 0.00811205 0.06612820
v 0.05451853 0.00811381 0.06844348
v 0.05451853 0.00811205 0.07077076
v 0.05451853 0.00785115 0.17515029
v 0.05451853 0.00784762 0.17603802
v 0.05116255 -0.00879002 0.05348413
v 0.05219927 -0.00850796 0.17603802
v 0.04987803 -0.00882880 0.17515029
v 0.04756075 -0.00888168 0.17603802
v 0.04756075 -0.00891694 0.05348413
v 0.04884328 -0.00891870 0.05348413
v 0.04987803 -0.00891694 0.05348413
v 0.05219927 0.00875196 0.05348413
v 0.05219927 0.00876606 0.05452781
v 0.05219927 0.00879074 0.05684309
v 0.05219927 0.00880484 0.05917037
v 0.05219927 0.00881189 0.06148565
v 0.05219927 0.00881718 0.06380093
v 0.05219927 0.00881894 0.06612820
v 0.05219927 0.00881542 0.06844348
v 0.05219927 0.00865853 0.17051973
v 0.05219927 0.00865148 0.17283502
v 0.05364039 0.00814730 0.17603802
v 0.05075618 -0.00870364 0.17603802
v 0.04987803 -0.00882175 0.17603802
v 0.04524150 -0.00876534 0.17603802
v 0.04652601 -0.00882880 0.05348413
v 0.04987803 0.00896702 0.05348413
v 0.04987803 0.00897055 0.05452781
v 0.04987803 0.00898289 0.05917037
v 0.04987803 0.00898818 0.06148565
v 0.04987803 0.00899170 0.06380093
v 0.04987803 0.00899523 0.06612820
v 0.04987803 0.00899699 0.06844348
v 0.04987803 0.00899875 0.07077076
v 0.04987803 0.00899875 0.08237115
v 0.04987803 0.00899523 0.17051973
v 0.04987803 0.00899346 0.17283502
v 0.04987803 0.00898818 0.17603802
v 0.05132113 0.00877135 0.17603802
v 0.05219927 0.00863737 0.17603802
v 0.04292025 -0.00792799 0.17603802
v 0.04292025 -0.00805139 0.16819246
v 0.04524150 -0.00865781 0.05348413
v 0.04756075 0.00900228 0.05348413
v 0.04756075 0.00902343 0.07308604
v 0.04756075 0.00901462 0.06380093
v 0.04756075 0.00908689 0.17603802
v 0.04900187 0.00902696 0.17603802
v 0.04162583 -0.00708888 0.17603802
v 0.04131858 -0.00724401 0.16819246
v 0.04137606 -0.00719113 0.13339128
v 0.04409177 -0.00818537 0.05348413
v 0.04524150 0.00882776 0.05348413
v 0.04524150 0.00895116 0.17603802
v 0.04668261 0.00904282 0.17603802
v 0.04124920 -0.00658471 0.17603802
v 0.03931846 -0.00485184 0.17051973
v 0.03920745 -0.00504576 0.16819246
v 0.04015895 -0.00620570 0.16819246
v 0.04021643 -0.00623214 0.13339128
v 0.04300946 -0.00766533 0.05348413
v 0.04292818 0.00780708 0.05348413
v 0.04292025 0.00828833 0.16819246
v 0.04436335 0.00865148 0.17603802
v 0.04069614 -0.00579849 0.17603802
v 0.03900130 -0.00347860 0.17051973
v 0.03880704 -0.00347860 0.16819246
v 0.04032744 -0.00517797 0.17603802
v 0.03967131 -0.00391402 0.17603802
v 0.03931648 -0.00275407 0.17603802
v 0.03858700 -0.00347860 0.14963423
v 0.03914997 -0.00504928 0.14963423
v 0.03917177 -0.00507220 0.13339128
v 0.04192515 -0.00671869 0.05348413
v 0.04202823 0.00703848 0.05348413
v 0.04131461 0.00724473 0.11483305
v 0.04122739 0.00729057 0.13339128
v 0.04110845 0.00739986 0.16819246
v 0.04292025 0.00811734 0.17603802
v 0.03920944 -0.00205951 0.17603802
v 0.03911230 -0.00115870 0.17603802
v 0.03867422 -0.00115870 0.16819246
v 0.03831939 -0.00115870 0.14963423
v 0.03823416 -0.00115870 0.13571856
v 0.03823218 -0.00115870 0.13339128
v 0.03859890 -0.00347860 0.13339128
v 0.03942154 -0.00466851 0.09734249
v 0.04146130 -0.00618631 0.05348413
v 0.04183198 0.00683928 0.05348413
v 0.04006578 0.00629104 0.13339128
v 0.04002217 0.00634569 0.14731895
v 0.04001424 0.00635274 0.14963423
v 0.03994882 0.00628222 0.16819246
v 0.04151482 0.00719537 0.17603802
v 0.04236918 0.00776124 0.17603802
v 0.03908455 0.00115942 0.17603802
v 0.03870396 0.00115942 0.16819246
v 0.03831939 0.00115942 0.14963423
v 0.03820839 0.00115942 0.13571856
v 0.03822821 0.00115942 0.13339128
v 0.03872972 -0.00115870 0.09860210
v 0.03909050 -0.00347860 0.09860210
v 0.04036708 -0.00347860 0.05348413
v 0.04108467 -0.00553406 0.05348413
v 0.04101331 0.00564231 0.05348413
v 0.03941559 0.00468862 0.09730651
v 0.04015300 0.00601427 0.11483305
v 0.03915790 0.00513109 0.13339128
v 0.03910636 0.00518574 0.14731895
v 0.03910041 0.00519279 0.14963423
v 0.03920944 0.00512228 0.16819246
v 0.03931846 0.00489311 0.17051973
v 0.04050782 0.00579921 0.17603802
v 0.03928873 0.00291873 0.17603802
v 0.03883677 0.00347932 0.16819246
v 0.03853745 0.00347932 0.14963423
v 0.03854141 0.00347932 0.14731895
v 0.03856718 0.00347932 0.13571856
v 0.03858105 0.00347932 0.13339128
v 0.03908852 0.00347932 0.09860210
v 0.03874360 0.00115942 0.09860210
v 0.03931648 0.00115942 0.08004388
v 0.04014903 0.00115942 0.05348413
v 0.04015102 -0.00115870 0.05348413
v 0.03939974 -0.00248083 0.08004388
v 0.04025410 -0.00240679 0.05348413
v 0.04058513 0.00434839 0.05348413
v 0.04032942 0.00347932 0.05348413
v 0.03947506 0.00363973 0.17603802
v 0.03959400 0.00407868 0.17603802
v 0.03939974 0.00250271 0.08004388
f 1 2 3
f 1 3 4
f 1 4 5
f 1 5 6
f 1 6 7
f 1 7 2
f 2 8 9
f 2 9 3
f 2 7 10
f 2 10 11
f 2 11 8
f 3 9 12
f 3 12 13
f 3 13 4
f 4 13 14
f 4 14 15
f 4 15 16
f 4 16 5
f 5 16 17
f 5 17 18
f 5 18 19
f 5 19 6
f 6 19 20
f 6 20 21
f 6 21 7
f 7 21 10
f 8 22 9
f 8 11 23
f 8 23 24
f 8 24 22
f 9 25 26
f 9 26 27
f 9 27 12
f 9 22 25
f 10 28 11
f 10 21 29
f 10 29 30
f 10 30 31
f 10 31 32
f 10 32 33
f 10 33 28
f 11 28 33
f 11 33 23
f 12 27 34
f 12 34 35
f 12 35 14
f 12 14 13
f 14 35 36
f 14 36 15
f 15 36 37
f 15 37 38
f 15 38 16
f 16 38 39
f 16 39 17
f 17 40 41
f 17 41 18
f 17 39 40
f 18 41 19
f 19 41 42
f 19 42 20
f 20 42 43
f 20 43 44
f 20 44 45
f 20 45 46
f 20 46 47
f 20 47 29
f 20 29 21
f 22 48 49
f 22 49 25
f 22 24 48
f 23 33 32
f 23 32 31
f 23 31 30
f 23 30 46
f 23 46 45
f 23 45 44
f 23 44 73
f 23 73 116
f 23 116 147
f 23 147 165
f 23 165 183
f 23 183 182
f 23 182 181
f 23 181 191
f 23 191 190
f 23 190 198
f 23 198 197
f 23 197 207
f 23 207 222
f 23 222 238
f 23 238 237
f 23 237 256
f 23 256 273
f 23 273 272
f 23 272 257
f 23 257 239
f 23 239 224
f 23 224 223
f 23 223 213
f 23 213 212
f 23 212 211
f 23 211 208
f 23 208 199
f 23 199 192
f 23 192 184
f 23 184 168
f 23 168 151
f 23 151 167
f 23 167 166
f 23 166 149
f 23 149 118
f 23 118 76
f 23 76 75
f 23 75 50
f 23 50 24
f 24 50 51
f 24 51 52
f 24 52 48
f 25 49 53
f 25 53 54
f 25 54 26
f 26 54 55
f 26 55 27
f 27 55 56
f 27 56 34
f 29 47 57
f 29 57 46
f 29 46 30
f 34 56 58
f 34 58 59
f 34 59 60
f 34 60 35
f 35 60 36
f 36 60 61
f 36 61 37
f 37 61 62
f 37 62 63
f 37 63 38
f 38 63 64
f 38 64 39
f 39 64 65
f 39 65 40
f 40 65 66
f 40 66 67
f 40 67 41
f 41 67 68
f 41 68 69
f 41 69 42
f 42 69 70
f 42 70 71
f 42 71 43
f 43 71 72
f 43 72 44
f 44 72 73
f 46 57 47
f 48 52 49
f 49 52 74
f 49 74 53
f 50 75 51
f 51 75 76
f 51 76 77
f 51 77 78
f 51 78 52
f 52 79 80
f 52 80 81
f 52 81 117
f 52 117 74
f 52 78 79
f 53 74 82
f 53 82 54
f 54 82 83
f 54 83 55
f 55 83 84
f 55 84 56
f 56 84 85
f 56 85 58
f 58 85 86
f 58 86 87
f 58 87 88
f 58 88 59
f 59 88 89
f 59 89 60
f 60 89 90
f 60 90 91
f 60 91 61
f 61 91 92
f 61 92 93
f 61 93 62
f 62 93 94
f 62 94 95
f 62 95 63
f 63 95 96
f 63 96 97
f 63 97 98
f 63 98 64
f 64 98 99
f 64 99 100
f 64 100 101
f 64 101 65
f 65 101 102
f 65 102 103
f 65 103 66
f 66 103 104
f 66 104 105
f 66 105 106
f 66 106 67
f 67 106 107
f 67 107 68
f 68 107 108
f 68 108 69
f 69 108 70
f 70 108 109
f 70 109 110
f 70 110 111
f 70 111 112
f 70 112 71
f 71 112 113
f 71 113 114
f 71 114 72
f 72 114 115
f 72 115 73
f 73 115 116
f 74 117 125
f 74 125 82
f 76 118 77
f 77 118 119
f 77 119 150
f 77 150 120
f 77 120 121
f 77 121 78
f 78 121 79
f 79 121 122
f 79 122 80
f 80 122 123
f 80 123 81
f 81 123 124
f 81 124 117
f 82 125 126
f 82 126 83
f 83 126 84
f 84 126 127
f 84 127 85
f 85 127 86
f 86 127 126
f 86 126 148
f 86 148 154
f 86 154 153
f 86 153 152
f 86 152 169
f 86 169 186
f 86 186 195
f 86 195 204
f 86 204 217
f 86 217 231
f 86 231 247
f 86 247 246
f 86 246 269
f 86 269 267
f 86 267 266
f 86 266 271
f 86 271 270
f 86 270 248
f 86 248 232
f 86 232 218
f 86 218 205
f 86 205 196
f 86 196 187
f 86 187 170
f 86 170 155
f 86 155 137
f 86 137 105
f 86 105 104
f 86 104 102
f 86 102 136
f 86 136 99
f 86 99 135
f 86 135 133
f 86 133 132
f 86 132 130
f 86 130 92
f 86 92 90
f 86 90 128
f 86 128 88
f 86 88 87
f 88 128 89
f 89 128 90
f 90 92 129
f 90 129 91
f 91 129 92
f 92 130 93
f 93 130 131
f 93 131 95
f 93 95 94
f 95 131 130
f 95 130 132
f 95 132 133
f 95 133 96
f 96 98 97
f 96 133 134
f 96 134 98
f 98 134 133
f 98 133 135
f 98 135 99
f 99 136 100
f 100 136 101
f 101 136 102
f 102 104 103
f 105 137 106
f 106 137 138
f 106 138 107
f 107 138 139
f 107 139 108
f 108 139 140
f 108 140 109
f 109 140 110
f 110 140 141
f 110 141 111
f 111 141 142
f 111 142 112
f 112 142 143
f 112 143 113
f 113 143 144
f 113 144 114
f 114 144 145
f 114 145 115
f 115 146 116
f 115 145 146
f 116 146 147
f 117 124 148
f 117 148 125
f 118 149 119
f 119 149 150
f 120 150 151
f 120 151 121
f 121 151 122
f 122 151 123
f 123 152 153
f 123 153 124
f 123 151 152
f 124 153 154
f 124 154 148
f 125 148 126
f 137 155 138
f 138 155 139
f 139 155 140
f 140 155 156
f 140 156 157
f 140 157 141
f 141 157 142
f 142 157 158
f 142 158 143
f 143 158 159
f 143 159 160
f 143 160 144
f 144 160 161
f 144 161 145
f 145 161 162
f 145 162 163
f 145 163 146
f 146 163 164
f 146 164 165
f 146 165 147
f 149 166 150
f 150 166 167
f 150 167 151
f 151 168 152
f 152 168 169
f 155 170 156
f 156 170 157
f 157 170 158
f 158 170 171
f 158 171 159
f 159 171 172
f 159 172 173
f 159 173 160
f 160 173 174
f 160 174 175
f 160 175 176
f 160 176 177
f 160 177 161
f 161 177 178
f 161 178 179
f 161 179 180
f 161 180 162
f 162 180 163
f 163 180 181
f 163 181 164
f 164 181 182
f 164 182 183
f 164 183 165
f 168 184 185
f 168 185 186
f 168 186 169
f 170 187 171
f 171 187 172
f 172 187 173
f 173 187 174
f 174 187 175
f 175 188 176
f 175 187 189
f 175 189 188
f 176 188 177
f 177 188 190
f 177 190 178
f 178 190 179
f 179 190 180
f 180 190 191
f 180 191 181
f 184 192 193
f 184 193 185
f 185 193 194
f 185 194 195
f 185 195 186
f 187 196 189
f 188 189 197
f 188 197 198
f 188 198 190
f 189 196 197
f 192 199 200
f 192 200 201
f 192 201 202
f 192 202 193
f 193 202 203
f 193 203 194
f 194 203 204
f 194 204 195
f 196 205 206
f 196 206 197
f 197 206 207
f 199 208 200
f 200 209 210
f 200 210 201
f 200 208 211
f 200 211 212
f 200 212 213
f 200 213 209
f 201 210 214
f 201 214 215
f 201 215 202
f 202 215 216
f 202 216 203
f 203 216 217
f 203 217 204
f 205 218 219
f 205 219 220
f 205 220 221
f 205 221 206
f 206 221 222
f 206 222 207
f 209 213 210
f 210 213 223
f 210 223 224
f 210 224 225
f 210 225 226
f 210 226 214
f 214 226 227
f 214 227 228
f 214 228 229
f 214 229 215
f 215 229 216
f 216 229 230
f 216 230 231
f 216 231 217
f 218 232 233
f 218 233 219
f 219 233 234
f 219 234 220
f 220 234 221
f 221 234 235
f 221 235 236
f 221 236 237
f 221 237 238
f 221 238 222
f 224 239 225
f 225 239 240
f 225 240 241
f 225 241 226
f 226 241 242
f 226 242 227
f 227 242 228
f 228 242 243
f 228 243 244
f 228 244 245
f 228 245 229
f 229 245 230
f 230 245 246
f 230 246 247
f 230 247 231
f 232 248 249
f 232 249 250
f 232 250 233
f 233 251 252
f 233 252 234
f 233 250 251
f 234 252 235
f 235 253 236
f 235 252 253
f 236 254 255
f 236 255 256
f 236 256 237
f 236 253 254
f 239 257 258
f 239 258 240
f 240 258 241
f 241 258 259
f 241 259 242
f 242 259 260
f 242 260 261
f 242 261 262
f 242 262 243
f 243 262 263
f 243 263 264
f 243 264 244
f 244 264 265
f 244 265 266
f 244 266 267
f 244 267 268
f 244 268 245
f 245 268 246
f 246 268 269
f 248 270 249
f 249 270 271
f 249 271 263
f 249 263 262
f 249 262 251
f 249 251 250
f 251 262 261
f 251 261 252
f 252 261 253
f 253 259 254
f 253 261 260
f 253 260 259
f 254 258 255
f 254 259 258
f 255 258 257
f 255 257 272
f 255 272 273
f 255 273 256
f 263 271 274
f 263 274 264
f 264 274 265
f 265 274 266
f 266 274 271
f 267 269 268

