# https://github.com/mikedh/trimesh
v -0.04159670 0.00512178 0.01127252
v -0.04156234 0.00717188 0.01127252
v -0.04132477 0.00717423 0.00922482
v -0.04134932 0.00512413 0.00922482
v -0.04133754 -0.00512403 0.00922482
v -0.04157412 -0.00512638 0.01127252
v -0.04126195 0.00854331 0.01127252
v -0.04114807 0.00840007 0.00922482
v -0.04104696 0.00826386 0.00805816
v -0.04107543 0.00717423 0.00797622
v -0.04108033 0.00512413 0.00797388
v -0.04107739 -0.00512403 0.00797700
v -0.04105088 -0.00645789 0.00805113
v -0.04116672 -0.00715534 0.00925448
v -0.04139742 -0.00717648 0.01127252
v -0.03997496 0.00911161 0.01127252
v -0.03392484 0.01221612 0.00330022
v -0.03606099 0.01095506 0.00330022
v -0.03937515 0.00862081 0.00512551
v -0.03905610 0.00835545 0.00394871
v -0.03980611 0.00717423 0.00512551
v -0.04068472 0.00717423 0.00695237
v -0.03694548 0.01029283 0.00330022
v -0.04068668 0.00512413 0.00694925
v -0.04068864 -0.00512403 0.00695315
v -0.04083786 -0.00782462 0.00859116
v -0.03959407 -0.00717413 0.00512551
v -0.03896677 -0.00821679 0.00407591
v -0.04105187 -0.00825437 0.00995759
v -0.04110880 -0.00831073 0.01127252
v -0.03212345 0.01297698 0.00330022
v -0.03839543 0.00876641 0.01127252
v -0.03862416 0.00764860 0.00330022
v -0.03865852 0.00717423 0.00330022
v -0.03909635 0.00717423 0.00388940
v -0.03809013 0.00900359 0.00330022
v -0.03976881 -0.00512403 0.00512551
v -0.03902469 -0.00717413 0.00399319
v -0.03790557 -0.00871229 0.00330022
v -0.03917194 -0.00835535 0.00512551
v -0.03853287 -0.00717413 0.00330022
v -0.03383453 -0.01101367 0.00330022
v -0.03997496 -0.00856905 0.01127252
v -0.03182797 0.01121573 0.00330022
v -0.03779955 0.00717423 0.01127252
v -0.03857900 -0.00512403 0.00330022
v -0.03905414 -0.00512403 0.00395183
v -0.03855250 -0.00648137 0.00330022
v -0.03201547 -0.00922658 0.00330022
v -0.03862711 -0.00845633 0.01127252
v -0.03156782 0.00738089 0.00330022
v -0.03779464 0.00512413 0.01127252
v -0.03179753 -0.00717413 0.00330022
v -0.03781624 -0.00512403 0.01127252
v -0.03805282 -0.00717413 0.01127252
v -0.03170820 -0.00512403 0.00330022
f 1 2 3
f 1 3 4
f 1 4 5
f 1 5 6
f 1 6 15
f 1 15 30
f 1 30 43
f 1 43 50
f 1 50 55
f 1 55 54
f 1 54 52
f 1 52 45
f 1 45 32
f 1 32 16
f 1 16 7
f 1 7 2
f 2 7 8
f 2 8 9
f 2 9 3
f 3 9 10
f 3 10 4
f 4 10 11
f 4 11 12
f 4 12 5
f 5 12 13
f 5 13 14
f 5 14 6
f 6 14 15
f 7 16 17
f 7 17 18
f 7 18 8
f 8 18 9
f 9 19 20
f 9 20 21
f 9 21 22
f 9 22 10
f 9 18 23
f 9 23 19
f 10 22 11
f 11 22 24
f 11 24 25
f 11 25 12
f 12 25 13
f 13 26 14
f 13 25 27
f 13 27 28
f 13 28 26
f 14 26 29
f 14 29 15
f 15 29 30
f 16 31 17
f 16 32 31
f 17 31 44
f 17 44 51
f 17 51 56
f 17 56 53
f 17 53 49
f 17 49 42
f 17 42 39
f 17 39 41
f 17 41 48
f 17 48 46
f 17 46 34
f 17 34 33
f 17 33 36
f 17 36 23
f 17 23 18
f 19 23 20
f 20 33 34
f 20 34 35
f 20 35 21
f 20 23 36
f 20 36 33
f 21 24 22
f 21 35 37
f 21 37 25
f 21 25 24
f 25 37 38
f 25 38 27
f 26 28 29
f 27 38 28
f 28 39 40
f 28 40 29
f 28 38 41
f 28 41 39
f 29 40 39
f 29 39 42
f 29 42 30
f 30 42 43
f 31 32 45
f 31 45 44
f 34 46 35
f 35 46 47
f 35 47 37
f 37 47 38
f 38 47 41
f 41 47 48
f 42 49 50
f 42 50 43
f 44 45 51
f 45 52 51
f 46 48 47
f 49 53 54
f 49 54 55
f 49 55 50
f 51 52 54
f 51 54 56
f 53 56 54

