# https://github.com/mikedh/trimesh
v -0.00717542 -0.00075842 0.13401405
v -0.00744112 -0.00075842 0.13405380
v -0.00717542 0.00102596 0.13401542
v -0.00609756 -0.00075842 0.13411000
v -0.00922548 -0.00075842 0.13436359
v -0.00922548 0.00102596 0.13432246
v -0.00717542 0.00307579 0.13428545
v -0.00593603 0.00102596 0.13412782
v -0.00593603 -0.00021371 0.13412508
v -0.00922548 0.00307579 0.13457605
v -0.00593603 -0.00075842 0.13412508
v -0.00941872 -0.00075842 0.13444446
v -0.01071548 0.00102596 0.13494889
v -0.01057961 0.00307579 0.13506952
v -0.00717542 0.00512563 0.13483512
v -0.00593603 0.00388721 0.13464733
v -0.00593603 0.00307579 0.13443075
v -0.00593603 0.00183612 0.13423474
v -0.00914396 0.00509182 0.13505855
v -0.00840576 0.00626762 0.13525183
v -0.01039091 0.00438558 0.13521207
v -0.00593603 -0.00075842 0.13865948
v -0.01066868 -0.00075842 0.13498316
v -0.01435063 -0.00000585 0.13735042
v -0.01435667 0.00102596 0.13734494
v -0.01435818 0.00214291 0.13734357
v -0.01426760 0.00350905 0.13740388
v -0.01402154 0.00512563 0.13756015
v -0.00717542 0.00627764 0.13524634
v -0.00607038 0.00620251 0.13527787
v -0.00593603 0.00600341 0.13524223
v -0.00977347 0.00575047 0.13542454
v -0.00914396 0.00704022 0.13574940
v -0.00937494 0.00940686 0.13683777
v -0.00879071 0.01042865 0.13723939
v -0.00717542 0.00922404 0.13658555
v -0.00717542 0.00730318 0.13568772
v -0.01262967 0.00667834 0.13717360
v -0.01142500 0.00728691 0.13672537
v -0.00593603 0.01203270 0.14421234
v -0.01457859 -0.00075842 0.14801614
v -0.01427364 -0.00075842 0.13740800
v -0.01495146 -0.00075842 0.13816327
v -0.01524886 0.00102596 0.13837574
v -0.01506317 0.00292553 0.13820302
v -0.01509789 0.00512563 0.13858409
v -0.01481560 0.00717421 0.13890347
v -0.01454537 0.00864678 0.13919544
v -0.01331806 0.00728691 0.13780277
v -0.00596471 0.01033724 0.13729422
v -0.00593603 0.01029592 0.13728052
v -0.00593603 0.00633900 0.13537930
v -0.00593603 0.00614992 0.13529980
v -0.01084077 0.00884588 0.13704475
v -0.01015692 0.01021202 0.13736961
v -0.00801477 0.01203270 0.13835792
v -0.00717542 0.01147423 0.13794121
v -0.00717542 0.01044994 0.13722432
v -0.00937494 0.01117746 0.13783018
v -0.00929795 0.01203270 0.13841412
v -0.01220849 0.00804573 0.13739977
v -0.01404418 0.01202644 0.14801614
v -0.00593603 0.01203270 0.13865948
v -0.01403965 0.01203270 0.14801203
v -0.02004038 -0.00075842 0.14801614
v -0.01504657 -0.00075842 0.13828253
v -0.01626785 0.00102596 0.13965052
v -0.01626030 0.00307579 0.13963271
v -0.01612292 0.00512563 0.13984928
v -0.01591460 0.00725435 0.14047160
v -0.01475370 0.01127388 0.14093628
v -0.01420420 0.01001292 0.13952716
v -0.01344486 0.00928791 0.13868964
v -0.01509789 0.00928791 0.14029614
v -0.00717542 0.01203270 0.13837711
v -0.00593603 0.01036604 0.13732438
v -0.00593603 0.01032973 0.13729834
v -0.01142500 0.00940686 0.13759305
v -0.01201375 0.01203270 0.13922148
v -0.01115025 0.01203270 0.13889251
v -0.01024900 0.01203270 0.13860602
v -0.01283951 0.01087944 0.13905425
v -0.01577571 0.01203270 0.14801614
v -0.02075443 0.00046873 0.14801614
v -0.01670715 -0.00075842 0.14080057
v -0.01619991 -0.00075842 0.13977526
v -0.02135828 0.00307579 0.14801614
v -0.02069706 0.00461724 0.14729376
v -0.01654864 0.00662450 0.14118438
v -0.01616217 0.00922404 0.14193144
v -0.01456500 0.01203270 0.14118164
v -0.01581345 0.01121377 0.14257842
v -0.01402758 0.01203270 0.14068954
v -0.01344486 0.01144793 0.13982872
v -0.01255268 0.01203270 0.13953950
v -0.01835565 0.01203270 0.14801614
v -0.02105031 0.00117246 0.14801614
v -0.02126770 0.00236705 0.14801614
v -0.02095974 0.00498538 0.14801614
v -0.01625124 0.01185615 0.14376822
v -0.01586780 0.01203270 0.14327613
v -0.01621954 0.01203270 0.14384773
v -0.01793446 0.01203270 0.14714024
v -0.01631767 0.01203270 0.14401222
f 1 2 3
f 1 3 4
f 1 4 11
f 1 11 22
f 1 22 41
f 1 41 65
f 1 65 85
f 1 85 86
f 1 86 66
f 1 66 43
f 1 43 42
f 1 42 23
f 1 23 12
f 1 12 5
f 1 5 2
f 2 5 6
f 2 6 3
f 3 7 8
f 3 8 9
f 3 9 4
f 3 6 10
f 3 10 7
f 4 9 11
f 5 12 6
f 6 12 13
f 6 13 14
f 6 14 10
f 7 15 16
f 7 16 17
f 7 17 18
f 7 18 8
f 7 10 19
f 7 19 20
f 7 20 15
f 8 18 17
f 8 17 16
f 8 16 31
f 8 31 53
f 8 53 52
f 8 52 51
f 8 51 77
f 8 77 76
f 8 76 63
f 8 63 40
f 8 40 22
f 8 22 11
f 8 11 9
f 10 14 21
f 10 21 19
f 12 23 13
f 13 23 24
f 13 24 25
f 13 25 26
f 13 26 27
f 13 27 14
f 14 27 28
f 14 28 21
f 15 20 29
f 15 29 30
f 15 30 16
f 16 30 31
f 19 21 32
f 19 32 20
f 20 33 34
f 20 34 35
f 20 35 36
f 20 36 37
f 20 37 29
f 20 32 33
f 21 38 39
f 21 39 32
f 21 28 38
f 22 40 41
f 23 42 24
f 24 42 43
f 24 43 44
f 24 44 25
f 25 44 26
f 26 44 45
f 26 45 27
f 27 45 46
f 27 46 28
f 28 46 47
f 28 47 48
f 28 48 49
f 28 49 38
f 29 37 30
f 30 50 51
f 30 51 52
f 30 52 53
f 30 53 31
f 30 37 36
f 30 36 50
f 32 39 54
f 32 54 55
f 32 55 33
f 33 55 34
f 34 55 35
f 35 56 57
f 35 57 58
f 35 58 36
f 35 55 59
f 35 59 60
f 35 60 56
f 36 58 50
f 38 49 61
f 38 61 39
f 39 61 54
f 40 62 41
f 40 63 75
f 40 75 56
f 40 56 60
f 40 60 81
f 40 81 80
f 40 80 79
f 40 79 95
f 40 95 93
f 40 93 91
f 40 91 101
f 40 101 102
f 40 102 104
f 40 104 103
f 40 103 96
f 40 96 83
f 40 83 64
f 40 64 62
f 41 62 83
f 41 83 96
f 41 96 99
f 41 99 87
f 41 87 98
f 41 98 97
f 41 97 84
f 41 84 65
f 43 66 67
f 43 67 44
f 44 67 68
f 44 68 45
f 45 68 46
f 46 68 69
f 46 69 47
f 47 69 70
f 47 70 48
f 48 71 72
f 48 72 73
f 48 73 49
f 48 70 74
f 48 74 71
f 49 73 61
f 50 58 57
f 50 57 75
f 50 75 63
f 50 63 76
f 50 76 77
f 50 77 51
f 54 61 78
f 54 78 55
f 55 78 79
f 55 79 80
f 55 80 81
f 55 81 59
f 56 75 57
f 59 81 60
f 61 73 82
f 61 82 78
f 62 64 83
f 65 84 85
f 66 86 67
f 67 86 87
f 67 87 68
f 68 87 69
f 69 87 88
f 69 88 89
f 69 89 70
f 70 90 74
f 70 89 90
f 71 91 72
f 71 74 90
f 71 90 92
f 71 92 91
f 72 91 93
f 72 93 94
f 72 94 82
f 72 82 73
f 78 82 79
f 79 82 95
f 82 94 95
f 84 97 85
f 85 97 86
f 86 97 98
f 86 98 87
f 87 99 88
f 88 99 100
f 88 100 90
f 88 90 89
f 90 100 92
f 91 92 101
f 92 100 102
f 92 102 101
f 93 95 94
f 96 103 99
f 99 103 104
f 99 104 100
f 100 104 102

