# https://github.com/mikedh/trimesh
v -0.07990397 0.00073568 0.03548729
v -0.07990397 0.00079162 0.03548729
v -0.07961102 -0.00237535 0.03395711
v -0.07989936 0.00006431 0.03546791
v -0.07989170 -0.00237535 0.03546791
v -0.07990090 0.00006431 0.03548729
v -0.07960948 0.00079162 0.03395861
v -0.07990090 0.00237511 0.03548729
v -0.07960795 0.00237511 0.03395861
v -0.07929353 -0.00237535 0.03286093
v -0.07928740 -0.00395883 0.03287883
v -0.07959415 -0.00395883 0.03395711
v -0.07987329 -0.00395883 0.03546791
v -0.07987022 -0.00403173 0.03546791
v -0.07980580 -0.00554062 0.03546791
v -0.07979660 -0.00559996 0.03546791
v -0.07962022 -0.00652733 0.03546791
v -0.07947758 -0.00726143 0.03546791
v -0.07944537 -0.00735976 0.03546791
v -0.07862329 -0.00820406 0.03546791
v -0.07852513 -0.00823288 0.03546791
v -0.07460029 0.00006431 0.03548729
v -0.07988863 0.00395859 0.03548729
v -0.07958648 0.00395859 0.03395861
v -0.07927819 0.00395859 0.03290866
v -0.07928893 0.00237511 0.03288181
v -0.07897145 -0.00237535 0.03206900
v -0.07896531 -0.00395883 0.03208838
v -0.07893157 -0.00554062 0.03217041
v -0.07925365 -0.00554062 0.03296235
v -0.07951746 -0.00554062 0.03395711
v -0.07921071 -0.00645104 0.03307122
v -0.07931807 -0.00679690 0.03395711
v -0.07946991 -0.00726482 0.03541123
v -0.07915243 -0.00788703 0.03479677
v -0.07823219 -0.00825323 0.03395711
v -0.07679967 -0.00833122 0.03237324
v -0.07719691 -0.00822780 0.03546791
v -0.07458648 0.00006600 0.03548729
v -0.07712942 -0.00822441 0.03546791
v -0.07983648 0.00548613 0.03548729
v -0.07950213 0.00554038 0.03395861
v -0.07922911 0.00554038 0.03302797
v -0.07890089 0.00554038 0.03223603
v -0.07894537 0.00395859 0.03211672
v -0.07895458 0.00237511 0.03208988
v -0.07896838 -0.00079017 0.03207645
v -0.07831040 -0.00237535 0.03079086
v -0.07830580 -0.00395883 0.03079086
v -0.07824906 -0.00554062 0.03079086
v -0.07765090 -0.00650699 0.02990795
v -0.07791777 -0.00707155 0.03079385
v -0.07872451 -0.00703764 0.03247466
v -0.07902360 -0.00758864 0.03395711
v -0.07772758 -0.00803113 0.03132180
v -0.07795458 -0.00817524 0.03237324
v -0.06888556 -0.00846854 0.02445985
v -0.06571838 -0.00856687 0.02287449
v -0.07684722 -0.00820576 0.03079385
v -0.07533955 -0.00824306 0.02908917
v -0.06424599 -0.00854144 0.02287449
v -0.07458495 0.00080519 0.03548729
v -0.07708648 -0.00819389 0.03546791
v -0.07634415 -0.00747166 0.03546791
v -0.07580120 -0.00668500 0.03546791
v -0.07576439 -0.00661380 0.03546791
v -0.07532728 -0.00554062 0.03546791
v -0.07491163 -0.00395883 0.03546791
v -0.07466163 -0.00230075 0.03546791
v -0.07465090 -0.00222615 0.03546791
v -0.07457574 -0.00079017 0.03546791
v -0.07457421 -0.00067488 0.03546791
v -0.06424599 -0.00079017 0.02499229
v -0.06424599 -0.00811421 0.02387970
v -0.07983341 0.00554038 0.03548729
v -0.07918618 0.00636943 0.03313684
v -0.07762636 0.00642537 0.02994822
v -0.07818464 0.00554038 0.03079086
v -0.07825673 0.00395859 0.03079086
v -0.07827206 0.00237511 0.03079086
v -0.07772298 -0.00237535 0.02981399
v -0.07772605 -0.00395883 0.02980505
v -0.07769537 0.00395859 0.02984830
v -0.07770151 -0.00554062 0.02983487
v -0.07620918 -0.00677825 0.02819135
v -0.07680734 -0.00716988 0.02919506
v -0.07740396 -0.00756321 0.03026738
v -0.07711869 -0.00554062 0.02904443
v -0.07632574 -0.00554062 0.02806607
v -0.07634875 -0.00811421 0.02953958
v -0.07594844 -0.00783447 0.02848366
v -0.07375826 -0.00826171 0.02749934
v -0.07207268 -0.00827018 0.02599153
v -0.07032421 -0.00818711 0.02449714
v -0.06723832 -0.00831257 0.02283124
v -0.06424599 -0.00835834 0.02130852
v -0.07489323 -0.00813964 0.02794079
v -0.06423679 0.00006431 0.02042412
v -0.06423679 0.00006431 0.02497588
v -0.07458495 0.00087639 0.03548729
v -0.06424599 -0.00713428 0.02438379
v -0.06424599 -0.00554062 0.02476112
v -0.06424599 -0.00382659 0.02491473
v -0.06424599 -0.00252115 0.02495798
v -0.06424599 -0.00237535 0.02496246
v -0.06424599 -0.00112755 0.02498632
v -0.07966776 0.00639994 0.03548729
v -0.07930580 0.00671698 0.03395861
v -0.07913556 0.00786475 0.03482959
v -0.07896838 0.00750872 0.03395861
v -0.07863403 0.00698824 0.03251343
v -0.07784722 0.00702045 0.03086543
v -0.07735642 0.00747990 0.03038669
v -0.07596378 0.00783423 0.02847620
v -0.07617084 0.00677801 0.02823161
v -0.07627973 0.00554038 0.02811529
v -0.07707114 0.00554038 0.02909663
v -0.07766776 0.00554038 0.02988856
v -0.07712789 -0.00395883 0.02901311
v -0.07709721 0.00395859 0.02905636
v -0.07554353 -0.00554062 0.02727712
v -0.07463709 -0.00678164 0.02665073
v -0.07529353 -0.00730721 0.02753960
v -0.07633495 -0.00395883 0.02806309
v -0.07436716 -0.00783617 0.02688786
v -0.07331194 -0.00812947 0.02648220
v -0.07156347 -0.00807860 0.02505045
v -0.06888556 -0.00812438 0.02340543
v -0.06667083 -0.00800570 0.02200799
v -0.06424599 -0.00746657 0.02057773
v -0.06424599 -0.00712411 0.02044649
v -0.06424599 -0.00554062 0.02025111
v -0.06423679 0.00462488 0.02029586
v -0.06423679 0.00079162 0.02496842
v -0.07466470 0.00237511 0.03548729
v -0.06423679 0.00239715 0.02494009
v -0.06423679 0.00244293 0.02493859
v -0.07949906 0.00724763 0.03548729
v -0.07948986 0.00725102 0.03543211
v -0.07922758 0.00796817 0.03548729
v -0.07786255 0.00810210 0.03237473
v -0.07766317 0.00797495 0.03144261
v -0.07946531 0.00734597 0.03548729
v -0.07528586 0.00732053 0.02754855
v -0.07630120 0.00811397 0.02953063
v -0.07490856 0.00817161 0.02791544
v -0.07439630 0.00786306 0.02686251
v -0.07460642 0.00680853 0.02667906
v -0.07550519 0.00554038 0.02732633
v -0.07630580 0.00395859 0.02809739
v -0.07553280 -0.00395883 0.02727562
v -0.07475212 -0.00554062 0.02655826
v -0.07291470 -0.00648495 0.02519810
v -0.07364169 -0.00716140 0.02603925
v -0.07261562 -0.00754117 0.02542778
v -0.06969844 -0.00793111 0.02365450
v -0.06773372 -0.00712411 0.02227047
v -0.06786869 -0.00554062 0.02220038
v -0.06423679 0.00554038 0.02028243
v -0.06423679 0.00395859 0.02484613
v -0.06423679 0.00535559 0.02472682
v -0.06423679 0.00554038 0.02471041
v -0.07467237 0.00245310 0.03548729
v -0.07860949 0.00822417 0.03548729
v -0.07817697 0.00822078 0.03395861
v -0.07681654 0.00818348 0.03086543
v -0.07534875 0.00829538 0.02908470
v -0.07334108 0.00817501 0.02644342
v -0.07377513 0.00834624 0.02748442
v -0.07161409 0.00812584 0.02501764
v -0.07266777 0.00753076 0.02538900
v -0.07364476 0.00716795 0.02603478
v -0.07289169 0.00647454 0.02521450
v -0.07471378 0.00554038 0.02658958
v -0.07550212 0.00395859 0.02730844
v -0.07373525 -0.00554062 0.02576632
v -0.07370765 0.00554038 0.02579764
v -0.06888556 -0.00712411 0.02292669
v -0.06990397 -0.00712411 0.02353369
v -0.07069538 -0.00712411 0.02402138
v -0.07207268 -0.00705799 0.02486999
v -0.07294384 -0.00554062 0.02517871
v -0.07205274 -0.00554062 0.02461943
v -0.07086716 -0.00554062 0.02389909
v -0.07007728 -0.00554062 0.02343377
v -0.06888556 -0.00554062 0.02275667
v -0.06888556 0.00554038 0.02280738
v -0.06774906 0.00712557 0.02227047
v -0.06423679 0.00626601 0.02035104
v -0.06423679 0.00712557 0.02441064
v -0.07485795 0.00395859 0.03548729
v -0.07854507 0.00824621 0.03548729
v -0.07851746 0.00825130 0.03543211
v -0.07851439 0.00825638 0.03548729
v -0.07679967 0.00829538 0.03237473
v -0.07046838 0.00859885 0.02604223
v -0.07210335 0.00836319 0.02596766
v -0.06888556 0.00864971 0.02445836
v -0.07035028 0.00827673 0.02447775
v -0.06888556 0.00818518 0.02336815
v -0.06974445 0.00796478 0.02362765
v -0.07210335 0.00705097 0.02486104
v -0.07072759 0.00712557 0.02399901
v -0.06993618 0.00712557 0.02351878
v -0.07084415 0.00554038 0.02390804
v -0.07205120 0.00554038 0.02464628
v -0.07291470 0.00554038 0.02519810
v -0.07005274 0.00554038 0.02345465
v -0.06423679 0.00712557 0.02045394
v -0.06888556 0.00712557 0.02291327
v -0.06673372 0.00806142 0.02197368
v -0.07573985 0.00681022 0.03548729
v -0.07523065 0.00554208 0.03548729
v -0.07486869 0.00401285 0.03548729
v -0.06423679 0.00808345 0.02399454
v -0.07704507 0.00824621 0.03548729
v -0.06571838 0.00875313 0.02287598
v -0.06727820 0.00841745 0.02281782
v -0.06423679 0.00842084 0.02128018
v -0.06571838 0.00825808 0.02174103
v -0.06423679 0.00817331 0.02394234
v -0.07623985 0.00757315 0.03548729
v -0.06423679 0.00866497 0.02296994
v -0.06423679 0.00869040 0.02287598
v -0.07625826 0.00759688 0.03548729
v -0.06423679 0.00845813 0.02136967
f 1 2 3
f 1 3 4
f 1 4 5
f 1 5 6
f 1 6 22
f 1 22 39
f 1 39 62
f 1 62 100
f 1 100 135
f 1 135 163
f 1 163 191
f 1 191 214
f 1 214 213
f 1 213 212
f 1 212 222
f 1 222 225
f 1 225 216
f 1 216 194
f 1 194 192
f 1 192 164
f 1 164 140
f 1 140 143
f 1 143 138
f 1 138 107
f 1 107 75
f 1 75 41
f 1 41 23
f 1 23 8
f 1 8 2
f 2 7 3
f 2 8 9
f 2 9 7
f 3 10 11
f 3 11 12
f 3 12 5
f 3 5 4
f 3 7 10
f 5 12 13
f 5 13 6
f 6 13 14
f 6 14 15
f 6 15 16
f 6 16 17
f 6 17 18
f 6 18 19
f 6 19 20
f 6 20 21
f 6 21 22
f 7 9 10
f 8 23 9
f 9 23 24
f 9 24 25
f 9 25 26
f 9 26 10
f 10 27 11
f 10 26 27
f 11 27 28
f 11 28 29
f 11 29 30
f 11 30 12
f 12 14 13
f 12 30 31
f 12 31 15
f 12 15 14
f 15 31 32
f 15 32 16
f 16 32 33
f 16 33 17
f 17 33 34
f 17 34 18
f 18 34 19
f 19 34 35
f 19 35 20
f 20 35 36
f 20 36 21
f 21 36 37
f 21 37 38
f 21 38 22
f 22 38 40
f 22 40 39
f 23 41 24
f 24 41 42
f 24 42 43
f 24 43 25
f 25 43 44
f 25 44 45
f 25 45 26
f 26 45 46
f 26 46 47
f 26 47 27
f 27 47 48
f 27 48 49
f 27 49 28
f 28 49 50
f 28 50 29
f 29 50 51
f 29 51 32
f 29 32 30
f 30 32 31
f 32 51 52
f 32 52 53
f 32 53 54
f 32 54 35
f 32 35 33
f 33 35 34
f 35 54 55
f 35 55 56
f 35 56 36
f 36 56 37
f 37 57 58
f 37 58 38
f 37 56 59
f 37 59 60
f 37 60 57
f 38 58 61
f 38 61 40
f 39 40 63
f 39 63 64
f 39 64 65
f 39 65 66
f 39 66 67
f 39 67 68
f 39 68 69
f 39 69 70
f 39 70 71
f 39 71 72
f 39 72 73
f 39 73 62
f 40 61 74
f 40 74 63
f 41 75 42
f 42 75 76
f 42 76 43
f 43 76 44
f 44 76 77
f 44 77 78
f 44 78 45
f 45 78 79
f 45 79 46
f 46 79 80
f 46 80 48
f 46 48 47
f 48 81 82
f 48 82 49
f 48 80 83
f 48 83 81
f 49 82 84
f 49 84 50
f 50 84 51
f 51 85 86
f 51 86 87
f 51 87 52
f 51 84 88
f 51 88 89
f 51 89 85
f 52 87 55
f 52 55 53
f 53 55 54
f 55 90 56
f 55 87 91
f 55 91 90
f 56 90 59
f 57 60 92
f 57 92 93
f 57 93 94
f 57 94 95
f 57 95 58
f 58 95 96
f 58 96 61
f 59 90 60
f 60 90 97
f 60 97 92
f 61 96 98
f 61 98 99
f 61 99 74
f 62 73 100
f 63 74 64
f 64 74 65
f 65 74 101
f 65 101 66
f 66 101 67
f 67 101 68
f 68 101 102
f 68 102 69
f 69 102 70
f 70 102 103
f 70 103 71
f 71 103 104
f 71 104 105
f 71 105 106
f 71 106 73
f 71 73 72
f 73 106 99
f 73 99 100
f 74 99 101
f 75 107 108
f 75 108 76
f 76 108 109
f 76 109 110
f 76 110 111
f 76 111 112
f 76 112 77
f 77 112 113
f 77 113 114
f 77 114 115
f 77 115 116
f 77 116 117
f 77 117 118
f 77 118 78
f 78 118 79
f 79 118 83
f 79 83 80
f 81 119 82
f 81 83 120
f 81 120 119
f 82 119 88
f 82 88 84
f 83 118 117
f 83 117 120
f 85 89 121
f 85 121 122
f 85 122 123
f 85 123 91
f 85 91 86
f 86 91 87
f 88 119 89
f 89 119 124
f 89 124 121
f 90 91 97
f 91 125 97
f 91 123 125
f 92 97 93
f 93 97 126
f 93 126 127
f 93 127 94
f 94 127 128
f 94 128 95
f 95 128 129
f 95 129 96
f 96 129 130
f 96 130 98
f 97 125 126
f 98 130 131
f 98 131 132
f 98 132 133
f 98 133 159
f 98 159 189
f 98 189 209
f 98 209 219
f 98 219 226
f 98 226 224
f 98 224 223
f 98 223 221
f 98 221 215
f 98 215 190
f 98 190 162
f 98 162 161
f 98 161 160
f 98 160 137
f 98 137 136
f 98 136 134
f 98 134 99
f 99 134 100
f 99 106 105
f 99 105 104
f 99 104 103
f 99 103 102
f 99 102 101
f 100 134 136
f 100 136 137
f 100 137 135
f 107 138 139
f 107 139 108
f 108 139 109
f 109 140 141
f 109 141 142
f 109 142 110
f 109 139 143
f 109 143 140
f 110 142 111
f 111 142 112
f 112 142 113
f 113 142 114
f 114 144 115
f 114 142 145
f 114 145 146
f 114 146 147
f 114 147 144
f 115 144 148
f 115 148 149
f 115 149 116
f 116 149 150
f 116 150 120
f 116 120 117
f 119 120 150
f 119 150 124
f 121 124 151
f 121 151 152
f 121 152 122
f 122 152 153
f 122 153 154
f 122 154 125
f 122 125 123
f 124 150 151
f 125 154 155
f 125 155 127
f 125 127 126
f 127 155 156
f 127 156 128
f 128 156 129
f 129 156 157
f 129 157 131
f 129 131 130
f 131 157 132
f 132 157 158
f 132 158 159
f 132 159 133
f 135 137 160
f 135 160 161
f 135 161 162
f 135 162 163
f 138 143 139
f 140 164 165
f 140 165 141
f 141 165 166
f 141 166 145
f 141 145 142
f 144 147 148
f 145 166 167
f 145 167 146
f 146 168 147
f 146 167 169
f 146 169 168
f 147 168 170
f 147 170 171
f 147 171 172
f 147 172 148
f 148 173 174
f 148 174 149
f 148 172 173
f 149 174 175
f 149 175 150
f 150 175 151
f 151 175 174
f 151 174 152
f 152 176 153
f 152 174 177
f 152 177 176
f 153 178 179
f 153 179 180
f 153 180 156
f 153 156 181
f 153 181 155
f 153 155 154
f 153 176 182
f 153 182 183
f 153 183 184
f 153 184 185
f 153 185 178
f 155 181 156
f 156 180 179
f 156 179 178
f 156 178 157
f 157 178 185
f 157 185 186
f 157 186 158
f 158 186 187
f 158 187 159
f 159 187 188
f 159 188 189
f 162 190 191
f 162 191 163
f 164 192 193
f 164 193 165
f 165 193 194
f 165 194 195
f 165 195 167
f 165 167 166
f 167 195 196
f 167 196 169
f 168 169 197
f 168 197 170
f 169 196 198
f 169 198 197
f 170 197 199
f 170 199 200
f 170 200 201
f 170 201 171
f 171 202 173
f 171 173 172
f 171 201 202
f 173 202 203
f 173 203 204
f 173 204 205
f 173 205 206
f 173 206 207
f 173 207 177
f 173 177 174
f 176 177 207
f 176 207 182
f 182 207 206
f 182 206 183
f 183 206 205
f 183 205 184
f 184 205 185
f 185 205 208
f 185 208 186
f 186 208 187
f 187 208 188
f 188 209 189
f 188 208 210
f 188 210 201
f 188 201 211
f 188 211 209
f 190 212 213
f 190 213 214
f 190 214 191
f 190 215 212
f 192 194 193
f 194 216 217
f 194 217 196
f 194 196 195
f 196 217 198
f 197 198 199
f 198 217 218
f 198 218 199
f 199 218 200
f 200 211 201
f 200 218 211
f 201 210 204
f 201 204 203
f 201 203 202
f 204 210 205
f 205 210 208
f 209 211 219
f 211 218 220
f 211 220 219
f 212 215 221
f 212 221 222
f 216 221 223
f 216 223 224
f 216 224 217
f 216 225 221
f 217 224 226
f 217 226 218
f 218 226 219
f 218 219 220
f 221 225 222

