# https://github.com/mikedh/trimesh
v -0.00593603 0.01806477 0.17165800
v -0.01537669 0.02146926 0.17165800
v -0.00593603 0.01313068 0.17165800
v -0.00593603 0.01897652 0.16502470
v -0.01585618 0.02158760 0.17165800
v -0.00593603 0.01924810 0.16297440
v -0.00593603 0.01944306 0.16092411
v -0.00593603 0.01954102 0.15887382
v -0.00660996 0.01280284 0.17165800
v -0.00593603 0.01203271 0.14421536
v -0.01742491 0.02194066 0.17165800
v -0.00593603 0.01949252 0.15683656
v -0.01742491 0.02193484 0.17117232
v -0.00700827 0.01263698 0.17165800
v -0.00593603 0.01203271 0.13866099
v -0.00803332 0.01224415 0.17165800
v -0.00889980 0.01209478 0.17165800
v -0.00922638 0.01204725 0.17165800
v -0.01835746 0.01203271 0.17165800
v -0.01790628 0.02192417 0.17165800
v -0.00593603 0.01934218 0.15477649
v -0.01742491 0.02182329 0.16912202
v -0.01947312 0.02180681 0.17117232
v -0.00717628 0.01203271 0.13837740
v -0.00593603 0.01261467 0.13911082
v -0.02521945 0.01203271 0.17165800
v -0.01947312 0.02182523 0.17165800
v -0.00593603 0.01892123 0.15280443
v -0.00717628 0.01912298 0.15272620
v -0.01591470 0.02057886 0.15944425
v -0.01742491 0.02141980 0.16502470
v -0.01742491 0.02165064 0.16707499
v -0.01947312 0.02162252 0.16912202
v -0.02142317 0.02103667 0.17117232
v -0.02005832 0.02159924 0.17165800
v -0.00801445 0.01203271 0.13835785
v -0.00922638 0.01283679 0.13896088
v -0.00717628 0.01278344 0.13896740
v -0.00717628 0.01380867 0.14001699
v -0.00593603 0.01302011 0.13952805
v -0.02424537 0.01741685 0.17165800
v -0.02502501 0.01203271 0.16998908
v -0.00593603 0.01861667 0.15146473
v -0.00717628 0.01868553 0.15101816
v -0.01127649 0.01832472 0.14822468
v -0.01127649 0.01853907 0.14924820
v -0.01332659 0.01888534 0.15067590
v -0.01332659 0.01929369 0.15272620
v -0.01537669 0.02010844 0.15682352
v -0.01692465 0.02057886 0.15944425
v -0.01742491 0.02111621 0.16297440
v -0.01947312 0.02136645 0.16707499
v -0.02118909 0.02092707 0.16912202
v -0.02249164 0.02045083 0.17165800
v -0.02150057 0.02102794 0.17165800
v -0.00929812 0.01203271 0.13841326
v -0.01085929 0.01263019 0.13914993
v -0.00922638 0.01386201 0.13986378
v -0.00922638 0.01483196 0.14088730
v -0.00717628 0.01466416 0.14104051
v -0.00593603 0.01450897 0.14123608
v -0.00593603 0.01372137 0.14031361
v -0.02324863 0.01946246 0.17165800
v -0.02324863 0.01938680 0.17117232
v -0.02418118 0.01742461 0.17117232
v -0.02384327 0.01742461 0.16912202
v -0.02418496 0.01203271 0.16527569
v -0.00593603 0.01859727 0.15138976
v -0.00922638 0.01760793 0.14657532
v -0.01127649 0.01783198 0.14657532
v -0.01332659 0.01854392 0.14931013
v -0.01537669 0.01920639 0.15272620
v -0.01537669 0.01971561 0.15477649
v -0.01753439 0.02033928 0.15880537
v -0.01829138 0.02047411 0.16001468
v -0.01753439 0.02072726 0.16078721
v -0.01875011 0.02062154 0.16138045
v -0.01917674 0.02078352 0.16297440
v -0.01967133 0.02094453 0.16483564
v -0.02069072 0.02062736 0.16539629
v -0.02092103 0.02077382 0.16707499
v -0.02244633 0.02041203 0.17117232
v -0.01024955 0.01203271 0.13860884
v -0.01222603 0.01224803 0.13943352
v -0.01143506 0.01331788 0.13995180
v -0.01127649 0.01469228 0.14108940
v -0.01115001 0.01203271 0.13889242
v -0.01081588 0.01650899 0.14331245
v -0.00970965 0.01650899 0.14331245
v -0.00910557 0.01594739 0.14256926
v -0.00717628 0.01553419 0.14247799
v -0.00593603 0.01466319 0.14149033
v -0.02307684 0.01918311 0.16912202
v -0.02286353 0.01889504 0.16707499
v -0.02267286 0.01863413 0.16551364
v -0.02251241 0.01833538 0.16414786
v -0.02343174 0.01742461 0.16707499
v -0.02379797 0.01203271 0.16350246
v -0.00593603 0.01655554 0.14515087
v -0.00910557 0.01683003 0.14436856
v -0.01332659 0.01818407 0.14828335
v -0.01141052 0.01689114 0.14434901
v -0.01443659 0.01848087 0.14957416
v -0.01522190 0.01865547 0.15078673
v -0.01652633 0.01852064 0.15153970
v -0.01742491 0.01985916 0.15682352
v -0.01761746 0.01908418 0.15458418
v -0.01880863 0.01870784 0.15513831
v -0.01944858 0.02012784 0.16078721
v -0.02020179 0.02034995 0.16297440
v -0.02048496 0.02049253 0.16402726
v -0.02221414 0.02020834 0.16912202
v -0.01201460 0.01203271 0.13922164
v -0.01255261 0.01203271 0.13954108
v -0.01403072 0.01203271 0.14069173
v -0.01446113 0.01246239 0.14132409
v -0.01320955 0.01321797 0.14091990
v -0.01244878 0.01445659 0.14134691
v -0.01218261 0.01637319 0.14354714
v -0.01141052 0.01583682 0.14256926
v -0.00834292 0.01637125 0.14357974
v -0.00593603 0.01519471 0.14238672
v -0.00593603 0.01611519 0.14412409
v -0.02194419 0.01992027 0.16707499
v -0.02105317 0.01902986 0.16092411
v -0.02070394 0.01866419 0.15887382
v -0.02050195 0.01845372 0.15783726
v -0.02137787 0.01742461 0.15887382
v -0.02196307 0.01742461 0.16092411
v -0.02239725 0.01756040 0.16277557
v -0.02270118 0.01696971 0.16332644
v -0.02289940 0.01756040 0.16490735
v -0.02364883 0.01203271 0.16297440
v -0.02135332 0.01537512 0.15682352
v -0.01332659 0.01666903 0.14503026
v -0.01439883 0.01643721 0.14549313
v -0.01580144 0.01817534 0.15017393
v -0.01843108 0.01843820 0.15377579
v -0.01699261 0.01873112 0.15272620
v -0.01685292 0.01680967 0.14903306
v -0.01948445 0.01889601 0.15702236
v -0.01947312 0.01951968 0.15887382
v -0.01456685 0.01203271 0.14118393
v -0.01451021 0.01453418 0.14329289
v -0.01381552 0.01382904 0.14192712
v -0.01857644 0.01463991 0.14943725
v -0.01821965 0.01600656 0.14998161
v -0.01320955 0.01491828 0.14255622
v -0.01332659 0.01600462 0.14400675
v -0.02017537 0.01805022 0.15647148
v -0.02065674 0.01668454 0.15538929
v -0.02081531 0.01738969 0.15702236
v -0.02328261 0.01203271 0.16178791
v -0.02077190 0.01530432 0.15473738
v -0.02054725 0.01457395 0.15362259
v -0.01634133 0.01633343 0.14766403
v -0.01866139 0.01665836 0.15134738
v -0.01903139 0.01709677 0.15272620
v -0.01586751 0.01203271 0.14327985
v -0.01621863 0.01203271 0.14385028
v -0.01631679 0.01203271 0.14401327
v -0.01793460 0.01203271 0.14714249
v -0.01868970 0.01332564 0.14913085
v -0.02001302 0.01530432 0.15285332
v -0.02037924 0.01594060 0.15402678
v -0.01893133 0.01534409 0.15066939
v -0.02054725 0.01371458 0.15362259
v -0.02161195 0.01203271 0.15689198
v -0.01849149 0.01203271 0.14827357
v -0.01899929 0.01203271 0.14949267
v -0.01977516 0.01203271 0.15155600
v -0.02081909 0.01203271 0.15458091
f 1 2 5
f 1 5 11
f 1 11 20
f 1 20 27
f 1 27 35
f 1 35 55
f 1 55 54
f 1 54 63
f 1 63 41
f 1 41 26
f 1 26 19
f 1 19 18
f 1 18 17
f 1 17 16
f 1 16 14
f 1 14 9
f 1 9 3
f 1 3 10
f 1 10 15
f 1 15 25
f 1 25 40
f 1 40 62
f 1 62 61
f 1 61 92
f 1 92 122
f 1 122 123
f 1 123 99
f 1 99 68
f 1 68 43
f 1 43 28
f 1 28 21
f 1 21 12
f 1 12 8
f 1 8 7
f 1 7 6
f 1 6 4
f 1 4 2
f 2 4 6
f 2 6 7
f 2 7 8
f 2 8 5
f 3 9 10
f 5 8 11
f 8 12 13
f 8 13 11
f 9 14 10
f 10 14 16
f 10 16 17
f 10 17 18
f 10 18 19
f 10 19 26
f 10 26 42
f 10 42 67
f 10 67 98
f 10 98 133
f 10 133 153
f 10 153 168
f 10 168 172
f 10 172 171
f 10 171 170
f 10 170 169
f 10 169 162
f 10 162 161
f 10 161 160
f 10 160 159
f 10 159 143
f 10 143 115
f 10 115 114
f 10 114 113
f 10 113 87
f 10 87 83
f 10 83 56
f 10 56 36
f 10 36 24
f 10 24 15
f 11 13 20
f 12 21 22
f 12 22 13
f 13 22 23
f 13 23 20
f 15 24 25
f 20 23 27
f 21 28 29
f 21 29 30
f 21 30 31
f 21 31 32
f 21 32 22
f 22 32 23
f 23 32 33
f 23 33 34
f 23 34 35
f 23 35 27
f 24 36 37
f 24 37 38
f 24 38 25
f 25 39 40
f 25 38 39
f 26 41 42
f 28 43 29
f 29 43 44
f 29 44 45
f 29 45 46
f 29 46 47
f 29 47 48
f 29 48 49
f 29 49 30
f 30 49 50
f 30 50 51
f 30 51 31
f 31 51 52
f 31 52 33
f 31 33 32
f 33 53 34
f 33 52 53
f 34 53 54
f 34 54 55
f 34 55 35
f 36 56 37
f 37 56 57
f 37 57 58
f 37 58 38
f 38 58 39
f 39 58 59
f 39 59 60
f 39 60 61
f 39 61 62
f 39 62 40
f 41 63 64
f 41 64 65
f 41 65 42
f 42 65 66
f 42 66 67
f 43 68 44
f 44 68 69
f 44 69 45
f 45 69 70
f 45 70 71
f 45 71 47
f 45 47 46
f 47 72 73
f 47 73 48
f 47 71 72
f 48 73 49
f 49 73 50
f 50 73 74
f 50 74 75
f 50 75 76
f 50 76 51
f 51 76 75
f 51 75 77
f 51 77 52
f 52 77 78
f 52 78 79
f 52 79 80
f 52 80 81
f 52 81 53
f 53 82 54
f 53 81 82
f 54 82 64
f 54 64 63
f 56 83 57
f 57 84 85
f 57 85 86
f 57 86 58
f 57 83 87
f 57 87 84
f 58 86 59
f 59 86 88
f 59 88 89
f 59 89 90
f 59 90 60
f 60 90 91
f 60 91 92
f 60 92 61
f 64 82 93
f 64 93 65
f 65 93 66
f 66 93 94
f 66 94 95
f 66 95 96
f 66 96 97
f 66 97 67
f 67 97 98
f 68 99 69
f 69 99 100
f 69 100 70
f 70 101 71
f 70 100 89
f 70 89 88
f 70 88 102
f 70 102 101
f 71 101 103
f 71 103 72
f 72 103 104
f 72 104 105
f 72 105 106
f 72 106 74
f 72 74 73
f 74 106 75
f 75 106 107
f 75 107 108
f 75 108 109
f 75 109 77
f 77 109 110
f 77 110 111
f 77 111 78
f 78 111 79
f 79 111 80
f 80 111 112
f 80 112 81
f 81 112 82
f 82 112 93
f 84 87 113
f 84 113 114
f 84 114 115
f 84 115 116
f 84 116 117
f 84 117 118
f 84 118 85
f 85 118 86
f 86 118 119
f 86 119 120
f 86 120 88
f 88 120 119
f 88 119 102
f 89 100 121
f 89 121 91
f 89 91 90
f 91 122 92
f 91 121 123
f 91 123 122
f 93 112 94
f 94 124 95
f 94 112 124
f 95 124 125
f 95 125 96
f 96 125 126
f 96 126 127
f 96 127 128
f 96 128 129
f 96 129 130
f 96 130 131
f 96 131 132
f 96 132 97
f 97 132 131
f 97 131 98
f 98 131 134
f 98 134 133
f 99 123 121
f 99 121 100
f 101 102 119
f 101 119 103
f 103 119 135
f 103 135 136
f 103 136 137
f 103 137 105
f 103 105 104
f 105 138 139
f 105 139 106
f 105 137 136
f 105 136 140
f 105 140 138
f 106 139 107
f 107 139 138
f 107 138 108
f 108 138 127
f 108 127 141
f 108 141 142
f 108 142 109
f 109 142 110
f 110 142 126
f 110 126 111
f 111 126 125
f 111 125 124
f 111 124 112
f 115 143 116
f 116 144 145
f 116 145 117
f 116 143 146
f 116 146 147
f 116 147 144
f 117 145 118
f 118 145 144
f 118 144 148
f 118 148 149
f 118 149 119
f 119 149 136
f 119 136 135
f 126 142 141
f 126 141 127
f 127 138 150
f 127 150 151
f 127 151 152
f 127 152 128
f 128 152 151
f 128 151 129
f 129 131 130
f 129 151 134
f 129 134 131
f 133 134 154
f 133 154 155
f 133 155 153
f 134 151 154
f 136 156 140
f 136 149 148
f 136 148 144
f 136 144 156
f 138 157 158
f 138 158 150
f 138 140 157
f 140 156 157
f 143 159 146
f 144 147 156
f 146 159 160
f 146 160 161
f 146 161 162
f 146 162 163
f 146 163 155
f 146 155 164
f 146 164 165
f 146 165 166
f 146 166 147
f 147 166 157
f 147 157 156
f 150 158 151
f 151 158 157
f 151 157 165
f 151 165 154
f 153 155 167
f 153 167 168
f 154 165 155
f 155 165 164
f 155 163 169
f 155 169 170
f 155 170 171
f 155 171 167
f 157 166 165
f 162 169 163
f 167 172 168
f 167 171 172

