# https://github.com/mikedh/trimesh
v 0.02152636 -0.00198468 0.19584549
v 0.01733384 -0.00198468 0.19584549
v 0.02141150 -0.00307534 0.19584549
v 0.02097050 -0.00198468 0.18552101
v 0.01050355 -0.01763381 0.19584549
v 0.00866368 -0.00198468 0.15485251
v 0.00812218 -0.01005128 0.17464278
v 0.02138073 -0.00320708 0.19584549
v 0.02075308 -0.00290990 0.18552101
v 0.02067719 -0.00264337 0.18347457
v 0.02082282 -0.00198468 0.18347457
v 0.01561293 -0.01763381 0.19584549
v 0.00057195 -0.01763381 0.15485251
v 0.01274339 -0.00198468 0.15485251
v 0.00385992 -0.01101939 0.15485251
v 0.00417990 -0.01044649 0.15534606
v 0.02091102 -0.00474503 0.19584549
v 0.02049054 -0.00407716 0.18669269
v 0.02044541 -0.00393470 0.18552101
v 0.02036337 -0.00366816 0.18347457
v 0.02027927 -0.00337098 0.18142412
v 0.02058694 -0.00234619 0.18142412
v 0.02052541 -0.00214246 0.18016816
v 0.02065668 -0.00198468 0.18142412
v 0.01687233 -0.01640529 0.19584549
v 0.01450737 -0.01763381 0.18962191
v 0.00504548 -0.01763381 0.15485251
v 0.01274750 -0.00291603 0.15485251
v 0.01469608 -0.00198468 0.15914602
v 0.01940344 -0.00512646 0.17937367
v 0.01917986 -0.00512646 0.17732321
v 0.01993263 -0.00307534 0.17732321
v 0.02021774 -0.00292522 0.17944188
v 0.02049669 -0.00198468 0.17969869
v 0.02053771 -0.00198468 0.18006785
v 0.01885168 -0.00531028 0.17518047
v 0.01418739 -0.01763381 0.18782425
v 0.01369717 -0.01763381 0.18553706
v 0.01323156 -0.01763381 0.18347457
v 0.01628161 -0.00802773 0.16873620
v 0.01684567 -0.00727714 0.16930198
v 0.01835530 -0.00591381 0.17322633
v 0.01843325 -0.00611602 0.17443413
v 0.01087071 -0.00889015 0.15485251
v 0.01215677 -0.00789753 0.15617266
v 0.01241521 -0.00834329 0.15754097
v 0.01432277 -0.00815794 0.16202708
v 0.00587209 -0.01763381 0.15704742
v 0.01255879 -0.00485073 0.15485251
v 0.01467967 -0.00307534 0.15917812
v 0.01549192 -0.00198468 0.16092763
v 0.01875528 -0.00488902 0.17322633
v 0.01963316 -0.00307534 0.17527678
v 0.02039003 -0.00198468 0.17895635
v 0.01268186 -0.01763381 0.18121948
v 0.01609290 -0.00771218 0.16707898
v 0.01669183 -0.00668739 0.16707898
v 0.01824044 -0.00516169 0.17097925
v 0.01190243 -0.00724497 0.15485251
v 0.01439661 -0.00626154 0.15979205
v 0.01462839 -0.00671496 0.16092763
v 0.01411561 -0.00773975 0.16092763
v 0.01500375 -0.00735526 0.16281757
v 0.01650313 -0.00635498 0.16571870
v 0.01586522 -0.00709332 0.16503254
v 0.01454224 -0.00841682 0.16339539
v 0.00853651 -0.01763381 0.16483993
v 0.00796425 -0.01763381 0.16304629
v 0.01252803 -0.00512646 0.15485251
v 0.01545090 -0.00307534 0.16092763
v 0.01616879 -0.00198468 0.16253669
v 0.01859529 -0.00450300 0.17152898
v 0.01981982 -0.00198468 0.17527678
v 0.02014595 -0.00198468 0.17734729
v 0.01927011 -0.00307534 0.17322633
v 0.01121325 -0.01763381 0.17527678
v 0.01014255 -0.01763381 0.17097925
v 0.00914980 -0.01763381 0.16707898
v 0.00858574 -0.01763381 0.16501649
v 0.01783842 -0.00512646 0.16912542
v 0.01844555 -0.00408635 0.17016469
v 0.01196396 -0.00710711 0.15485251
v 0.01453199 -0.00512646 0.15949111
v 0.01513912 -0.00512646 0.16092763
v 0.01599855 -0.00508203 0.16307839
v 0.01628981 -0.00573612 0.16435039
v 0.01245418 -0.00653114 0.15543434
v 0.01233932 -0.00594905 0.15485251
v 0.01729487 -0.00512646 0.16707898
v 0.01614623 -0.00307534 0.16260490
v 0.01646621 -0.00436973 0.16382875
v 0.01657082 -0.00198468 0.16355991
v 0.01943215 -0.00198468 0.17322633
v 0.01876758 -0.00327142 0.17097925
v 0.01773791 -0.00307534 0.16707898
v 0.01828967 -0.00327142 0.16909733
v 0.01855837 -0.00271996 0.16975942
v 0.01668158 -0.00508203 0.16503254
v 0.01654210 -0.00307534 0.16362812
v 0.01705488 -0.00307534 0.16502853
v 0.01712257 -0.00198468 0.16502853
v 0.01895629 -0.00198468 0.17109161
v 0.01782611 -0.00198468 0.16707898
v 0.01846402 -0.00198468 0.16919363
v 0.01859734 -0.00198468 0.16963904
f 1 2 5
f 1 5 12
f 1 12 25
f 1 25 17
f 1 17 8
f 1 8 3
f 1 3 4
f 1 4 11
f 1 11 24
f 1 24 35
f 1 35 34
f 1 34 54
f 1 54 74
f 1 74 73
f 1 73 93
f 1 93 102
f 1 102 105
f 1 105 104
f 1 104 103
f 1 103 101
f 1 101 92
f 1 92 71
f 1 71 51
f 1 51 29
f 1 29 14
f 1 14 6
f 1 6 2
f 2 6 7
f 2 7 5
f 3 8 4
f 4 9 10
f 4 10 11
f 4 8 9
f 5 7 13
f 5 13 27
f 5 27 48
f 5 48 68
f 5 68 67
f 5 67 79
f 5 79 78
f 5 78 77
f 5 77 76
f 5 76 55
f 5 55 39
f 5 39 38
f 5 38 37
f 5 37 26
f 5 26 12
f 6 14 28
f 6 28 49
f 6 49 69
f 6 69 88
f 6 88 82
f 6 82 59
f 6 59 44
f 6 44 27
f 6 27 13
f 6 13 15
f 6 15 16
f 6 16 7
f 7 16 13
f 8 17 18
f 8 18 9
f 9 19 10
f 9 18 19
f 10 20 21
f 10 21 22
f 10 22 11
f 10 19 20
f 11 22 23
f 11 23 24
f 12 26 25
f 13 16 15
f 14 29 28
f 17 25 18
f 18 25 19
f 19 25 20
f 20 25 21
f 21 30 31
f 21 31 32
f 21 32 33
f 21 33 23
f 21 23 22
f 21 25 30
f 23 33 32
f 23 32 34
f 23 34 35
f 23 35 24
f 25 36 31
f 25 31 30
f 25 26 37
f 25 37 38
f 25 38 39
f 25 39 40
f 25 40 41
f 25 41 42
f 25 42 43
f 25 43 36
f 27 44 45
f 27 45 46
f 27 46 47
f 27 47 48
f 28 29 50
f 28 50 49
f 29 51 50
f 31 36 32
f 32 36 52
f 32 52 53
f 32 53 54
f 32 54 34
f 36 43 42
f 36 42 52
f 39 55 40
f 40 56 57
f 40 57 41
f 40 55 56
f 41 57 42
f 42 57 58
f 42 58 52
f 44 59 45
f 45 59 60
f 45 60 61
f 45 61 62
f 45 62 47
f 45 47 46
f 47 62 61
f 47 61 63
f 47 63 64
f 47 64 65
f 47 65 56
f 47 56 66
f 47 66 67
f 47 67 68
f 47 68 48
f 49 50 69
f 50 51 70
f 50 70 69
f 51 71 70
f 52 58 72
f 52 72 53
f 53 73 74
f 53 74 54
f 53 72 75
f 53 75 73
f 55 76 56
f 56 64 57
f 56 76 77
f 56 77 78
f 56 78 79
f 56 79 67
f 56 67 66
f 56 65 64
f 57 64 80
f 57 80 58
f 58 80 81
f 58 81 72
f 59 82 60
f 60 83 84
f 60 84 85
f 60 85 86
f 60 86 61
f 60 82 87
f 60 87 88
f 60 88 83
f 61 86 64
f 61 64 63
f 64 89 80
f 64 86 89
f 69 70 83
f 69 83 88
f 70 71 90
f 70 90 91
f 70 91 84
f 70 84 83
f 71 92 90
f 72 81 75
f 73 75 93
f 75 81 94
f 75 94 93
f 80 89 81
f 81 89 95
f 81 95 96
f 81 96 97
f 81 97 94
f 82 88 87
f 84 91 85
f 85 91 86
f 86 91 98
f 86 98 89
f 89 98 95
f 90 92 99
f 90 99 91
f 91 99 100
f 91 100 95
f 91 95 98
f 92 101 99
f 93 94 102
f 94 97 102
f 95 100 103
f 95 103 104
f 95 104 105
f 95 105 97
f 95 97 96
f 97 105 102
f 99 101 100
f 100 101 103

