# https://github.com/mikedh/trimesh
v -0.05939954 -0.00059671 0.02866589
v -0.05902701 0.00780347 0.02861816
v -0.06010479 0.00180251 0.02857044
v -0.06012535 -0.00059671 0.02859089
v -0.06010222 -0.00179924 0.02857044
v -0.06003157 -0.00410797 0.02851135
v -0.05928907 -0.00410797 0.02851362
v -0.05926852 -0.00410797 0.02851362
v -0.04757091 0.02443746 0.02856589
v -0.05578980 0.01617154 0.02859089
v -0.05891782 0.00900308 0.02857044
v -0.06003927 0.00397698 0.02851817
v -0.06007910 0.00300212 0.02855226
v -0.05658369 0.01500112 0.02857498
v -0.06038355 0.00180251 0.02788185
v -0.06040282 0.00060290 0.02788185
v -0.06041695 -0.00059671 0.02788185
v -0.06038997 -0.00179924 0.02788185
v -0.06032061 -0.00299884 0.02788185
v -0.06024482 -0.00410797 0.02788185
v -0.05881633 -0.00362054 0.02848181
v -0.05840012 -0.00410797 0.02802275
v -0.04757091 0.02428568 0.02855453
v -0.04729343 0.01897355 0.00545379
v -0.04757091 0.02457756 0.02856362
v -0.04974317 0.02335168 0.02855907
v -0.05538516 0.01718727 0.02855453
v -0.05647578 0.01575416 0.02853635
v -0.05433563 0.01859411 0.02856589
v -0.05883432 0.00972693 0.02851362
v -0.05998404 0.00477672 0.02847499
v -0.05761009 0.01323527 0.02849317
v -0.06033602 0.00300212 0.02788185
v -0.06036043 0.00180251 0.02668193
v -0.06038869 0.00060290 0.02668193
v -0.06038869 -0.00059671 0.02668193
v -0.06036428 -0.00179924 0.02668193
v -0.06021655 -0.00410797 0.02689100
v -0.04757091 0.02395294 0.02849090
v -0.05838214 -0.00410797 0.02800002
v -0.05077985 0.01897355 0.00545379
v -0.04757091 0.02406677 0.01900516
v -0.04757091 0.02564582 0.02681601
v -0.04757091 0.02571003 0.02782958
v -0.04757091 0.02563998 0.02806820
v -0.04757091 0.02534227 0.02852726
v -0.04757091 0.02525763 0.02854317
v -0.04757091 0.02335460 0.02797048
v -0.04757091 0.02329038 0.02790230
v -0.04757091 0.02314737 0.02775004
v -0.04757091 0.02277376 0.02730916
v -0.04757091 0.02235346 0.02664557
v -0.04757091 0.02225715 0.02642513
v -0.04757091 0.02195651 0.02545019
v -0.05723499 -0.00410797 0.02548428
v -0.05702817 -0.00410797 0.01900516
v -0.05572943 0.00005709 0.00545379
v -0.04849197 0.02452210 0.02854998
v -0.05056018 0.02291970 0.02854089
v -0.05176000 0.02176387 0.02854544
v -0.05405816 0.01928293 0.02852044
v -0.05659397 0.01596139 0.02788185
v -0.05518733 0.01798992 0.02847044
v -0.05291486 0.02054675 0.02853862
v -0.05892681 0.01015890 0.02781821
v -0.05922741 0.00900308 0.02788185
v -0.06002386 0.00613394 0.02740006
v -0.06008938 0.00540133 0.02766368
v -0.06017545 0.00430680 0.02799775
v -0.05769102 0.01342207 0.02788185
v -0.05881890 0.01085649 0.02737506
v -0.05889213 0.01038949 0.02767277
v -0.06002386 0.00613394 0.02721825
v -0.06008938 0.00540133 0.02706372
v -0.06018700 0.00419881 0.02682737
v -0.05858382 0.00180251 0.00988759
v -0.05872513 0.00172370 0.01117159
v -0.05880477 0.00126838 0.01162838
v -0.05864805 0.00060290 0.00988759
v -0.05865062 0.00005709 0.00988759
v -0.06021013 -0.00410797 0.02679101
v -0.05829478 -0.00410797 0.02788412
v -0.05770386 -0.00410797 0.02708417
v -0.05742125 -0.00410797 0.02648421
v -0.05108301 0.01862329 0.00545379
v -0.05308314 0.02072480 0.02668193
v -0.05255517 0.02132314 0.02668193
v -0.05195398 0.02195943 0.02668193
v -0.05134893 0.02255778 0.02668193
v -0.05074902 0.02310066 0.02668193
v -0.05003478 0.02369901 0.02668193
v -0.04815926 0.02532476 0.02702281
v -0.04813228 0.02530141 0.02788185
v -0.04801795 0.02520801 0.02849317
v -0.04930255 0.02407261 0.02852726
v -0.05912464 -0.00410797 0.01900516
v -0.05798134 0.00005709 0.00545379
v -0.05137719 0.02257821 0.02788185
v -0.05197453 0.02197986 0.02788185
v -0.05257572 0.02136109 0.02788185
v -0.05310241 0.02075690 0.02788185
v -0.05620859 0.01645174 0.02668193
v -0.05654130 0.01585340 0.02668193
v -0.05695109 0.01500112 0.02668193
v -0.05771029 0.01346002 0.02692736
v -0.05527982 0.01810959 0.02767050
v -0.05527982 0.01810959 0.02708190
v -0.05370104 0.02005349 0.02788185
v -0.05418662 0.01944930 0.02788185
v -0.05881890 0.01085649 0.02721825
v -0.05710010 0.00660094 0.00545379
v -0.05776296 0.00550349 0.00859904
v -0.05795308 0.00540133 0.00988759
v -0.05763321 0.00495184 0.00662417
v -0.05820743 0.00420172 0.00988759
v -0.05843224 0.00300212 0.00988759
v -0.05856969 0.00300212 0.01108524
v -0.05841168 0.00180251 0.00868540
v -0.05849775 0.00060290 0.00868540
v -0.05858382 0.00005709 0.00934217
v -0.05850032 0.00005709 0.00868540
v -0.05129754 0.01837520 0.00545379
v -0.05368177 0.02000970 0.02668193
v -0.05149923 0.01813878 0.00545379
v -0.05160970 0.01800744 0.00545379
v -0.05077728 0.02311234 0.02788185
v -0.05008231 0.02371068 0.02788185
v -0.04948240 0.02421271 0.02788185
v -0.05841554 0.00005709 0.00813998
v -0.05831149 0.00005709 0.00748547
v -0.05798006 0.00022346 0.00545379
v -0.05368691 0.01495442 0.00545379
v -0.05378454 0.01479097 0.00545379
v -0.05400549 0.01440861 0.00545379
v -0.05431251 0.01385113 0.00545379
v -0.05479552 0.01293464 0.00545379
v -0.05496894 0.01259898 0.00545379
v -0.05523100 0.01206485 0.00545379
v -0.05537873 0.01171752 0.00545379
v -0.05548536 0.01146359 0.00545379
v -0.05200151 0.01746455 0.00545379
v -0.05263995 0.01656557 0.00545379
v -0.05276713 0.01638169 0.00545379
v -0.05305360 0.01596431 0.00545379
v -0.05583477 0.01056753 0.00545379
v -0.05597607 0.01019977 0.00545379
v -0.05629337 0.00930371 0.00545379
v -0.05635760 0.00911983 0.00545379
v -0.05650148 0.00870245 0.00545379
v -0.05678024 0.00780055 0.00545379
v -0.05737501 0.00539258 0.00545379
v -0.05757540 0.00468040 0.00582422
v -0.05804814 0.00420172 0.00868540
v -0.05755614 0.00448193 0.00545379
v -0.05764735 0.00391569 0.00545379
v -0.05825239 0.00300212 0.00868540
v -0.05776296 0.00304298 0.00545379
v -0.05789399 0.00180251 0.00545379
v -0.05830506 0.00060290 0.00748547
v -0.05797492 0.00060290 0.00545379
f 1 2 3
f 1 3 4
f 1 4 5
f 1 5 6
f 1 6 7
f 1 7 8
f 1 8 9
f 1 9 10
f 1 10 2
f 2 11 12
f 2 12 13
f 2 13 3
f 2 10 14
f 2 14 11
f 3 15 16
f 3 16 4
f 3 13 15
f 4 17 18
f 4 18 5
f 4 16 17
f 5 18 6
f 6 18 19
f 6 19 20
f 6 20 38
f 6 38 81
f 6 81 96
f 6 96 56
f 6 56 55
f 6 55 84
f 6 84 83
f 6 83 82
f 6 82 40
f 6 40 22
f 6 22 8
f 6 8 7
f 8 21 9
f 8 22 21
f 9 23 24
f 9 24 25
f 9 25 26
f 9 26 10
f 9 21 23
f 10 27 28
f 10 28 14
f 10 26 29
f 10 29 27
f 11 30 31
f 11 31 12
f 11 14 28
f 11 28 32
f 11 32 30
f 12 31 33
f 12 33 13
f 13 33 15
f 15 33 34
f 15 34 35
f 15 35 16
f 16 35 17
f 17 36 37
f 17 37 18
f 17 35 36
f 18 37 19
f 19 37 38
f 19 38 20
f 21 22 39
f 21 39 23
f 22 40 39
f 23 39 24
f 24 41 42
f 24 42 43
f 24 43 44
f 24 44 45
f 24 45 46
f 24 46 47
f 24 47 25
f 24 39 48
f 24 48 49
f 24 49 50
f 24 50 51
f 24 51 52
f 24 52 53
f 24 53 54
f 24 54 55
f 24 55 56
f 24 56 57
f 24 57 97
f 24 97 131
f 24 131 160
f 24 160 158
f 24 158 157
f 24 157 155
f 24 155 154
f 24 154 151
f 24 151 111
f 24 111 150
f 24 150 149
f 24 149 148
f 24 148 147
f 24 147 146
f 24 146 145
f 24 145 140
f 24 140 139
f 24 139 138
f 24 138 137
f 24 137 136
f 24 136 135
f 24 135 134
f 24 134 133
f 24 133 132
f 24 132 144
f 24 144 143
f 24 143 142
f 24 142 141
f 24 141 125
f 24 125 124
f 24 124 122
f 24 122 85
f 24 85 41
f 25 47 58
f 25 58 26
f 26 59 60
f 26 60 29
f 26 58 59
f 27 29 61
f 27 61 28
f 28 62 32
f 28 61 63
f 28 63 62
f 29 60 64
f 29 64 61
f 30 65 66
f 30 66 31
f 30 32 65
f 31 67 68
f 31 68 69
f 31 69 33
f 31 66 67
f 32 62 70
f 32 70 71
f 32 71 72
f 32 72 65
f 33 69 68
f 33 68 67
f 33 67 73
f 33 73 74
f 33 74 75
f 33 75 34
f 34 76 77
f 34 77 78
f 34 78 79
f 34 79 35
f 34 75 76
f 35 79 80
f 35 80 36
f 36 80 37
f 37 81 38
f 37 80 81
f 39 40 82
f 39 82 83
f 39 83 84
f 39 84 48
f 41 85 86
f 41 86 87
f 41 87 88
f 41 88 89
f 41 89 90
f 41 90 91
f 41 91 92
f 41 92 42
f 42 92 43
f 43 92 44
f 44 92 93
f 44 93 94
f 44 94 45
f 45 94 46
f 46 94 47
f 47 94 95
f 47 95 58
f 48 84 49
f 49 84 50
f 50 84 51
f 51 84 52
f 52 84 55
f 52 55 53
f 53 55 54
f 56 96 97
f 56 97 57
f 58 95 59
f 59 98 60
f 59 95 98
f 60 98 99
f 60 99 100
f 60 100 64
f 61 64 100
f 61 100 101
f 61 101 63
f 62 102 103
f 62 103 104
f 62 104 105
f 62 105 71
f 62 71 70
f 62 63 106
f 62 106 107
f 62 107 102
f 63 101 108
f 63 108 109
f 63 109 106
f 65 72 66
f 66 72 71
f 66 71 67
f 67 71 110
f 67 110 73
f 71 105 110
f 73 111 112
f 73 112 113
f 73 113 114
f 73 114 115
f 73 115 116
f 73 116 117
f 73 117 76
f 73 76 74
f 73 110 111
f 74 76 75
f 76 118 119
f 76 119 79
f 76 79 78
f 76 78 77
f 76 117 116
f 76 116 118
f 79 119 120
f 79 120 80
f 80 120 81
f 81 120 121
f 81 121 96
f 85 122 86
f 86 123 108
f 86 108 101
f 86 101 100
f 86 100 87
f 86 122 124
f 86 124 125
f 86 125 123
f 87 100 88
f 88 99 98
f 88 98 89
f 88 100 99
f 89 98 90
f 90 98 126
f 90 126 127
f 90 127 92
f 90 92 91
f 92 127 128
f 92 128 93
f 93 128 94
f 94 128 127
f 94 127 126
f 94 126 95
f 95 126 98
f 96 121 129
f 96 129 130
f 96 130 97
f 97 130 131
f 102 132 133
f 102 133 134
f 102 134 103
f 102 107 132
f 103 134 135
f 103 135 136
f 103 136 137
f 103 137 138
f 103 138 104
f 104 138 105
f 105 138 139
f 105 139 140
f 105 140 110
f 106 109 108
f 106 108 107
f 107 108 123
f 107 123 125
f 107 125 141
f 107 141 142
f 107 142 143
f 107 143 144
f 107 144 132
f 110 140 145
f 110 145 146
f 110 146 147
f 110 147 148
f 110 148 149
f 110 149 150
f 110 150 111
f 111 151 114
f 111 114 112
f 112 114 113
f 114 151 152
f 114 152 116
f 114 116 153
f 114 153 115
f 115 153 116
f 116 152 154
f 116 154 155
f 116 155 156
f 116 156 118
f 118 156 155
f 118 155 157
f 118 157 158
f 118 158 119
f 119 158 159
f 119 159 130
f 119 130 129
f 119 129 121
f 119 121 120
f 130 159 131
f 131 159 160
f 151 154 152
f 158 160 159

