# https://github.com/mikedh/trimesh
v -0.02988633 0.02614392 0.00515715
v -0.02988633 0.02731049 0.01708238
v -0.02988633 0.02851435 0.00515715
v -0.01269660 0.01885506 0.00515715
v -0.00432577 0.01174732 0.01900537
v -0.00402026 0.01174732 0.02428153
v -0.00399990 0.01174732 0.02458408
v -0.00393589 0.01174732 0.02548254
v -0.02988633 0.02739039 0.01779290
v -0.02988633 0.02987446 0.01900307
v -0.02939752 0.02988512 0.01900307
v -0.02895818 0.02987268 0.01900307
v -0.02824533 0.02984960 0.01900307
v -0.02939752 0.02849304 0.00515715
v -0.00845154 0.01885506 0.00515715
v -0.00190792 0.01174732 0.01900537
v -0.00374385 0.01174732 0.02629161
v -0.02988633 0.02754309 0.01900307
v -0.02988633 0.02750403 0.01870970
v -0.02988633 0.02745076 0.01828339
v -0.02004908 0.02902217 0.02856298
v -0.02004908 0.02964541 0.02788684
v -0.02004908 0.02979633 0.02762784
v -0.02004908 0.02986026 0.02695400
v -0.02819587 0.02841847 0.00515715
v -0.02699713 0.02976082 0.01900307
v -0.00858247 0.01900599 0.00515715
v -0.00471856 0.01930606 0.02710985
v -0.00230362 0.01576018 0.02706401
v -0.00105832 0.01348031 0.02692191
v -0.00016508 0.01174732 0.02668125
v -0.00191373 0.01176330 0.01900537
v -0.00331906 0.01174732 0.02684857
v -0.02004908 0.02738684 0.02752470
v -0.02004908 0.02800830 0.02810458
v -0.02004908 0.02862799 0.02856298
v -0.00271968 0.01174732 0.02757054
v -0.01979595 0.02899554 0.02857214
v -0.01859720 0.02889255 0.02854235
v -0.01796292 0.02881442 0.02849422
v -0.01859720 0.02927786 0.02788225
v -0.01675254 0.02882153 0.02734135
v -0.02099760 0.02695537 0.00515715
v -0.02220216 0.02731049 0.00515715
v -0.02226035 0.02732647 0.00515715
v -0.02308376 0.02753066 0.00515715
v -0.02367731 0.02766916 0.00515715
v -0.02459964 0.02787336 0.00515715
v -0.02579548 0.02812372 0.00515715
v -0.02699713 0.02831015 0.00515715
v -0.02579548 0.02964008 0.01900307
v -0.02651705 0.02971466 0.01900307
v -0.01675254 0.02882153 0.02722675
v -0.02706987 0.02831726 0.00515715
v -0.00921675 0.01965586 0.00515715
v -0.00700839 0.02180611 0.02694254
v -0.00584456 0.02057562 0.02699525
v -0.00471856 0.01930606 0.02743761
v -0.00230362 0.01576018 0.02744907
v -0.00105832 0.01348031 0.02750178
v -0.00082846 0.01260138 0.02771723
v -0.00058988 0.01174732 0.02780662
v -0.01979595 0.02860313 0.02857214
v -0.00180026 0.01174732 0.02810458
v -0.00180026 0.01260138 0.02820084
v -0.00489313 0.01785717 0.02850109
v -0.01406409 0.02654165 0.02855152
v -0.01619681 0.02771355 0.02853776
v -0.01557998 0.02760879 0.02848963
v -0.01749739 0.02893872 0.02779745
v -0.01510572 0.02773486 0.02777224
v -0.01438997 0.02760346 0.02729780
v -0.01990942 0.02657539 0.00515715
v -0.01438997 0.02760346 0.02727029
v -0.01640339 0.02502529 0.00515715
v -0.01715115 0.02539106 0.00515715
v -0.01731117 0.02546564 0.00515715
v -0.01860302 0.02604981 0.00515715
v -0.01866412 0.02607644 0.00515715
v -0.01931296 0.02635521 0.00515715
v -0.00978994 0.02021872 0.00515715
v -0.00818967 0.02299577 0.02694712
v -0.00700839 0.02180611 0.02763930
v -0.00584456 0.02057562 0.02754992
v -0.00450034 0.01851592 0.02785475
v -0.00335106 0.01717534 0.02764389
v -0.00733135 0.02136754 0.02843692
v -0.00513172 0.01886039 0.02823751
v -0.00207958 0.01500200 0.02768514
v -0.00476220 0.01805781 0.02850109
v -0.00476220 0.01785717 0.02850109
v -0.00813148 0.02190377 0.02851943
v -0.01187610 0.02528275 0.02853089
v -0.01326687 0.02622559 0.02844838
v -0.01292645 0.02656829 0.02764847
v -0.01074428 0.02524191 0.02738260
v -0.01389825 0.02362256 0.00515715
v -0.01397099 0.02366695 0.00515715
v -0.01493406 0.02424580 0.00515715
v -0.01626082 0.02495071 0.00515715
v -0.01074428 0.02524191 0.02719236
v -0.01035149 0.02076739 0.00515715
v -0.01038640 0.02080112 0.00515715
v -0.01102941 0.02139950 0.00515715
v -0.00943788 0.02413216 0.02701359
v -0.00818967 0.02299577 0.02765306
v -0.00775906 0.02225534 0.02804499
v -0.00867848 0.02270457 0.02845296
v -0.00943788 0.02413216 0.02756367
v -0.01144548 0.02546564 0.02782266
v -0.01301083 0.02302240 0.00515715
v -0.01235618 0.02250925 0.00515715
v -0.01292063 0.02295671 0.00515715
v -0.01295846 0.02298512 0.00515715
v -0.01162879 0.02190910 0.00515715
f 1 2 9
f 1 9 20
f 1 20 19
f 1 19 18
f 1 18 10
f 1 10 3
f 1 3 14
f 1 14 25
f 1 25 54
f 1 54 50
f 1 50 49
f 1 49 48
f 1 48 47
f 1 47 46
f 1 46 45
f 1 45 44
f 1 44 43
f 1 43 73
f 1 73 80
f 1 80 79
f 1 79 78
f 1 78 77
f 1 77 76
f 1 76 75
f 1 75 100
f 1 100 99
f 1 99 98
f 1 98 97
f 1 97 111
f 1 111 114
f 1 114 113
f 1 113 112
f 1 112 115
f 1 115 104
f 1 104 103
f 1 103 102
f 1 102 81
f 1 81 55
f 1 55 27
f 1 27 15
f 1 15 4
f 1 4 5
f 1 5 6
f 1 6 7
f 1 7 8
f 1 8 2
f 2 8 9
f 3 10 11
f 3 11 12
f 3 12 13
f 3 13 14
f 4 15 16
f 4 16 5
f 5 16 31
f 5 31 62
f 5 62 64
f 5 64 37
f 5 37 33
f 5 33 17
f 5 17 8
f 5 8 7
f 5 7 6
f 8 17 18
f 8 18 19
f 8 19 20
f 8 20 9
f 10 18 36
f 10 36 21
f 10 21 22
f 10 22 23
f 10 23 24
f 10 24 11
f 11 24 12
f 12 24 13
f 13 25 14
f 13 24 26
f 13 26 25
f 15 27 28
f 15 28 29
f 15 29 30
f 15 30 31
f 15 31 32
f 15 32 16
f 16 32 31
f 17 33 18
f 18 34 35
f 18 35 36
f 18 33 37
f 18 37 34
f 21 36 63
f 21 63 38
f 21 38 22
f 22 38 39
f 22 39 40
f 22 40 23
f 23 40 41
f 23 41 42
f 23 42 24
f 24 43 44
f 24 44 45
f 24 45 46
f 24 46 47
f 24 47 48
f 24 48 49
f 24 49 50
f 24 50 51
f 24 51 52
f 24 52 26
f 24 42 53
f 24 53 43
f 25 26 54
f 26 52 54
f 27 55 56
f 27 56 57
f 27 57 28
f 28 57 84
f 28 84 58
f 28 58 59
f 28 59 29
f 29 59 60
f 29 60 30
f 30 60 31
f 31 60 61
f 31 61 62
f 34 37 35
f 35 37 36
f 36 37 64
f 36 64 65
f 36 65 66
f 36 66 63
f 38 63 67
f 38 67 39
f 39 67 68
f 39 68 40
f 40 68 69
f 40 69 42
f 40 42 70
f 40 70 41
f 41 70 42
f 42 69 71
f 42 71 72
f 42 72 74
f 42 74 53
f 43 53 73
f 50 54 52
f 50 52 51
f 53 74 75
f 53 75 76
f 53 76 77
f 53 77 78
f 53 78 79
f 53 79 80
f 53 80 73
f 55 81 82
f 55 82 56
f 56 83 84
f 56 84 57
f 56 82 106
f 56 106 83
f 58 85 86
f 58 86 59
f 58 84 87
f 58 87 88
f 58 88 85
f 59 89 60
f 59 86 89
f 60 89 61
f 61 89 90
f 61 90 62
f 62 65 64
f 62 90 65
f 63 66 91
f 63 91 67
f 65 91 66
f 65 90 91
f 67 69 68
f 67 91 92
f 67 92 93
f 67 93 69
f 69 93 94
f 69 94 95
f 69 95 72
f 69 72 71
f 72 95 96
f 72 96 101
f 72 101 74
f 74 97 98
f 74 98 99
f 74 99 100
f 74 100 75
f 74 101 97
f 81 102 82
f 82 102 103
f 82 103 104
f 82 104 105
f 82 105 109
f 82 109 106
f 83 106 107
f 83 107 84
f 84 107 87
f 85 88 90
f 85 90 86
f 86 90 89
f 87 90 88
f 87 107 108
f 87 108 92
f 87 92 90
f 90 92 91
f 92 108 93
f 93 108 109
f 93 109 110
f 93 110 95
f 93 95 94
f 95 110 96
f 96 110 109
f 96 109 105
f 96 105 101
f 97 101 111
f 101 105 112
f 101 112 113
f 101 113 114
f 101 114 111
f 104 115 105
f 105 115 112
f 106 109 108
f 106 108 107

