# https://github.com/mikedh/trimesh
v 0.01278345 -0.01763381 0.18164823
v 0.00867528 -0.01763381 0.18164823
v 0.01242797 -0.01867529 0.18164823
v 0.01227772 -0.01837975 0.18047908
v 0.01268267 -0.01763381 0.18122308
v -0.00556955 -0.02515469 0.18164823
v -0.00593603 -0.01763381 0.15043434
v 0.01224107 -0.01897083 0.18164823
v 0.01020164 -0.02044143 0.17649716
v 0.01005688 -0.02021682 0.17527487
v 0.01066157 -0.01919190 0.17527487
v 0.01039404 -0.01873322 0.17322127
v 0.01025478 -0.01846369 0.17217360
v 0.01121311 -0.01763381 0.17527487
v -0.00593603 -0.02536275 0.18164823
v -0.00593603 -0.01763381 0.14291082
v 0.01197904 -0.01936922 0.18164823
v 0.00854152 -0.02085992 0.17117147
v 0.00833996 -0.02065895 0.16965690
v 0.01185993 -0.01954536 0.18164823
v 0.01034823 -0.02059984 0.17786369
v 0.00981501 -0.01975933 0.17322127
v 0.00814206 -0.02041543 0.16829036
v 0.00879438 -0.01962929 0.16903437
v 0.00856350 -0.01908668 0.16707187
v 0.00834545 -0.01870130 0.16558387
v 0.00858366 -0.01763381 0.16501069
v 0.00914803 -0.01763381 0.16707187
v 0.01013934 -0.01763381 0.17097409
v -0.00593603 -0.02967171 0.18164823
v -0.00561353 -0.01763381 0.14289564
v -0.00512429 -0.01830883 0.14370037
v -0.00593603 -0.01788325 0.14321829
v 0.00607881 -0.02249957 0.16844600
v 0.00589924 -0.02236480 0.16707187
v 0.00879072 -0.02105970 0.17322127
v 0.00692903 -0.02133987 0.16707187
v 0.00658638 -0.02103015 0.16502208
v 0.01073669 -0.02091312 0.18164823
v 0.00795333 -0.02011161 0.16707187
v 0.00768213 -0.01942123 0.16494995
v 0.00812374 -0.01826390 0.16421734
v 0.00853419 -0.01763381 0.16483608
v 0.00234811 -0.02679789 0.18164823
v -0.00593603 -0.02971072 0.18142426
v -0.00504366 -0.01763381 0.14287286
v -0.00402670 -0.01763381 0.14310441
v -0.00307387 -0.01810786 0.14392053
v -0.00307387 -0.01887862 0.14494543
v -0.00512429 -0.01899920 0.14472527
v -0.00593603 -0.01868120 0.14442539
v 0.00159684 -0.02635458 0.17117147
v 0.00756303 -0.02208463 0.17322127
v 0.00185704 -0.02652599 0.17322127
v 0.00455062 -0.02284358 0.16502208
v 0.00428126 -0.02267571 0.16351130
v 0.00557491 -0.02205508 0.16502208
v 0.00479982 -0.02124294 0.16092628
v 0.00631702 -0.02072042 0.16355305
v 0.00490426 -0.02517006 0.18164823
v 0.00200179 -0.02662056 0.17481177
v 0.00438570 -0.01883843 0.15477687
v 0.00602567 -0.01819297 0.15823117
v 0.00796249 -0.01763381 0.16304440
v 0.00586992 -0.01763381 0.15704684
v 0.00337424 -0.02620090 0.18164823
v -0.00593603 -0.02970835 0.17937446
v -0.00102345 -0.02776489 0.17322127
v 0.00120105 -0.02701659 0.17540773
v -0.00307387 -0.01763381 0.14338151
v -0.00173624 -0.01864101 0.14529846
v -0.00228961 -0.02044734 0.14769368
v -0.00301340 -0.01999103 0.14668776
v -0.00365656 -0.02058802 0.14744315
v -0.00512429 -0.02002413 0.14639168
v -0.00593603 -0.02056320 0.14748491
v 0.00057255 -0.02696339 0.17117147
v 0.00028853 -0.02680734 0.16951645
v 0.00099399 -0.02622099 0.16894706
v 0.00083091 -0.02707451 0.17322127
v 0.00323498 -0.02322659 0.16288497
v 0.00402290 -0.02249602 0.16214856
v 0.00440586 -0.02082327 0.15887647
v 0.00416765 -0.02056911 0.15768076
v 0.00415483 -0.01852634 0.15362671
v 0.00501970 -0.01763381 0.15477687
v -0.00593603 -0.02839143 0.17117147
v -0.00512429 -0.02806870 0.16912167
v -0.00512429 -0.02838079 0.17117147
v -0.00307387 -0.02780627 0.16912167
v -0.00307387 -0.02810535 0.17117147
v -0.00102345 -0.02759820 0.17117147
v -0.00110957 -0.01763381 0.14463796
v -0.00036929 -0.01817051 0.14591719
v -0.00104177 -0.01907368 0.14658907
v -0.00301340 -0.02099350 0.14847944
v -0.00087319 -0.02015417 0.14847944
v -0.00145589 -0.02079963 0.14906401
v -0.00256080 -0.02247001 0.15192234
v -0.00512429 -0.02122048 0.14862748
v -0.00512429 -0.02060103 0.14741658
v -0.00317648 -0.02212246 0.15084430
v -0.00392775 -0.02257523 0.15163765
v -0.00593603 -0.02074525 0.14784172
v -0.00083838 -0.02712298 0.16894706
v -0.00003030 -0.02663593 0.16814992
v 0.00028670 -0.02475394 0.16134382
v 0.00162432 -0.02432600 0.16297228
v 0.00099216 -0.02416286 0.16076684
v 0.00271275 -0.02304454 0.16092628
v 0.00373521 -0.02226787 0.16092628
v 0.00232612 -0.02277737 0.15941929
v 0.00381584 -0.02025938 0.15631423
v 0.00236643 -0.01875450 0.15067728
v 0.00207875 -0.01847787 0.14960303
v 0.00235361 -0.01763381 0.14900328
v 0.00381034 -0.01796718 0.15226018
v 0.00434722 -0.01763381 0.15304973
v -0.00593603 -0.02802024 0.16912167
v -0.00512429 -0.02760057 0.16707187
v -0.00307387 -0.02733813 0.16707187
v -0.00185718 -0.02671986 0.16580783
v -0.00141741 -0.02688537 0.16707187
v -0.00083105 -0.01763381 0.14488090
v 0.00057621 -0.01763381 0.14641066
v 0.00025555 -0.01866820 0.14728372
v -0.00009077 -0.02044380 0.14976246
v -0.00087319 -0.02120274 0.15053683
v -0.00097764 -0.02217802 0.15265496
v -0.00163179 -0.02270881 0.15328888
v -0.00317648 -0.02282111 0.15265496
v -0.00143207 -0.02476694 0.15941929
v -0.00239223 -0.02452578 0.15804896
v -0.00307570 -0.02492890 0.15879296
v -0.00375917 -0.02466764 0.15766178
v -0.00512429 -0.02214492 0.15062034
v -0.00593603 -0.02255986 0.15167940
v -0.00512429 -0.02372783 0.15477687
v -0.00512429 -0.02297834 0.15272708
v -0.00512429 -0.02257404 0.15164524
v -0.00512429 -0.02521143 0.15887647
v -0.00512429 -0.02472320 0.15751374
v -0.00006695 -0.02457898 0.15997729
v 0.00116623 -0.02333535 0.15879296
v 0.00019508 -0.02269581 0.15541459
v 0.00033250 -0.02076889 0.15112899
v 0.00169945 -0.02019555 0.15237406
v 0.00101964 -0.01988937 0.15053683
v 0.00097383 -0.01897320 0.14880209
v 0.00162249 -0.01798137 0.14823650
v 0.00207509 -0.01763381 0.14854777
v 0.00359779 -0.01763381 0.15145544
v 0.00412917 -0.01763381 0.15257904
v -0.00593603 -0.02752609 0.16707187
v -0.00593603 -0.02683335 0.16422873
v -0.00512429 -0.02707333 0.16502208
v -0.00393325 -0.02668913 0.16386052
v -0.00318015 -0.02684517 0.16508281
v -0.00256630 -0.02652008 0.16443750
v 0.00086023 -0.01763381 0.14675609
v -0.00026485 -0.02242509 0.15404806
v -0.00307387 -0.02562046 0.16092628
v -0.00512429 -0.02588290 0.16092628
v -0.00593603 -0.02264970 0.15191854
v -0.00593603 -0.02470783 0.15755929
v -0.00593603 -0.02490762 0.15811729
v 0.00125602 -0.01763381 0.14729131
v -0.00593603 -0.02671159 0.16378461
v -0.00512429 -0.02672223 0.16375044
v -0.00512429 -0.02642078 0.16272554
v -0.00318015 -0.02628010 0.16309375
f 1 2 6
f 1 6 15
f 1 15 30
f 1 30 44
f 1 44 66
f 1 66 60
f 1 60 39
f 1 39 20
f 1 20 17
f 1 17 8
f 1 8 3
f 1 3 4
f 1 4 5
f 1 5 14
f 1 14 29
f 1 29 28
f 1 28 27
f 1 27 43
f 1 43 64
f 1 64 65
f 1 65 86
f 1 86 118
f 1 118 153
f 1 153 152
f 1 152 116
f 1 116 151
f 1 151 167
f 1 167 160
f 1 160 125
f 1 125 124
f 1 124 93
f 1 93 70
f 1 70 47
f 1 47 46
f 1 46 31
f 1 31 16
f 1 16 7
f 1 7 2
f 2 7 6
f 3 8 9
f 3 9 10
f 3 10 11
f 3 11 12
f 3 12 4
f 4 12 13
f 4 13 5
f 5 13 14
f 6 7 15
f 7 16 33
f 7 33 51
f 7 51 76
f 7 76 104
f 7 104 137
f 7 137 164
f 7 164 165
f 7 165 166
f 7 166 168
f 7 168 155
f 7 155 154
f 7 154 119
f 7 119 87
f 7 87 67
f 7 67 45
f 7 45 30
f 7 30 15
f 8 17 9
f 9 18 19
f 9 19 10
f 9 17 20
f 9 20 21
f 9 21 18
f 10 22 11
f 10 19 23
f 10 23 22
f 11 22 12
f 12 22 24
f 12 24 25
f 12 25 13
f 13 25 26
f 13 26 27
f 13 27 28
f 13 28 29
f 13 29 14
f 16 31 32
f 16 32 33
f 18 34 35
f 18 35 19
f 18 21 36
f 18 36 34
f 19 35 37
f 19 37 38
f 19 38 23
f 20 39 21
f 21 39 34
f 21 34 36
f 22 23 24
f 23 40 26
f 23 26 25
f 23 25 24
f 23 38 40
f 26 41 42
f 26 42 27
f 26 40 41
f 27 42 43
f 30 45 44
f 31 46 32
f 32 46 47
f 32 47 48
f 32 48 49
f 32 49 50
f 32 50 33
f 33 50 51
f 34 52 35
f 34 39 53
f 34 53 54
f 34 54 52
f 35 52 55
f 35 55 56
f 35 56 57
f 35 57 37
f 37 57 38
f 38 57 58
f 38 58 59
f 38 59 40
f 39 60 61
f 39 61 54
f 39 54 53
f 40 59 41
f 41 59 62
f 41 62 63
f 41 63 42
f 42 64 43
f 42 63 65
f 42 65 64
f 44 45 67
f 44 67 68
f 44 68 69
f 44 69 61
f 44 61 66
f 47 70 48
f 48 70 71
f 48 71 49
f 49 71 72
f 49 72 73
f 49 73 74
f 49 74 50
f 50 74 75
f 50 75 76
f 50 76 51
f 52 77 78
f 52 78 79
f 52 79 56
f 52 56 55
f 52 54 77
f 54 61 80
f 54 80 77
f 56 81 82
f 56 82 57
f 56 79 81
f 57 82 58
f 58 82 83
f 58 83 59
f 59 83 84
f 59 84 62
f 60 66 61
f 61 69 80
f 62 85 63
f 62 84 85
f 63 85 65
f 65 85 86
f 67 87 88
f 67 88 89
f 67 89 90
f 67 90 91
f 67 91 92
f 67 92 68
f 68 92 80
f 68 80 69
f 70 93 71
f 71 93 94
f 71 94 95
f 71 95 72
f 72 96 74
f 72 74 73
f 72 95 97
f 72 97 98
f 72 98 99
f 72 99 96
f 74 100 101
f 74 101 75
f 74 96 102
f 74 102 103
f 74 103 100
f 75 101 76
f 76 100 104
f 76 101 100
f 77 92 78
f 77 80 92
f 78 92 105
f 78 105 106
f 78 106 107
f 78 107 108
f 78 108 79
f 79 108 81
f 81 108 109
f 81 109 82
f 82 109 110
f 82 110 111
f 82 111 84
f 82 84 83
f 84 111 112
f 84 112 113
f 84 113 85
f 85 113 114
f 85 114 115
f 85 115 116
f 85 116 117
f 85 117 118
f 85 118 86
f 87 119 88
f 88 90 89
f 88 119 120
f 88 120 121
f 88 121 90
f 90 105 92
f 90 92 91
f 90 121 122
f 90 122 123
f 90 123 105
f 93 124 94
f 94 124 125
f 94 125 126
f 94 126 95
f 95 126 97
f 96 99 102
f 97 127 98
f 97 126 127
f 98 127 128
f 98 128 129
f 98 129 130
f 98 130 99
f 99 131 103
f 99 103 102
f 99 130 132
f 99 132 133
f 99 133 134
f 99 134 135
f 99 135 131
f 100 136 137
f 100 137 104
f 100 103 136
f 103 138 139
f 103 139 140
f 103 140 136
f 103 131 135
f 103 135 141
f 103 141 142
f 103 142 138
f 105 123 106
f 106 123 143
f 106 143 107
f 107 143 109
f 107 109 108
f 109 143 144
f 109 144 112
f 109 112 110
f 110 112 111
f 112 144 145
f 112 145 146
f 112 146 113
f 113 146 147
f 113 147 114
f 114 147 115
f 115 147 148
f 115 148 127
f 115 127 149
f 115 149 126
f 115 126 150
f 115 150 116
f 116 150 151
f 116 152 117
f 117 152 153
f 117 153 118
f 119 154 120
f 120 154 155
f 120 155 156
f 120 156 157
f 120 157 121
f 121 157 158
f 121 158 122
f 122 158 159
f 122 159 143
f 122 143 123
f 125 160 126
f 126 160 150
f 126 149 127
f 127 148 146
f 127 146 161
f 127 161 128
f 128 161 129
f 129 161 130
f 130 161 143
f 130 143 132
f 132 143 159
f 132 159 162
f 132 162 134
f 132 134 133
f 134 162 135
f 135 162 157
f 135 157 163
f 135 163 141
f 136 140 137
f 137 140 164
f 138 164 139
f 138 142 165
f 138 165 164
f 139 164 140
f 141 166 165
f 141 165 142
f 141 163 166
f 143 161 145
f 143 145 144
f 145 161 146
f 146 148 147
f 150 160 167
f 150 167 151
f 155 168 156
f 156 168 169
f 156 169 157
f 157 169 170
f 157 170 163
f 157 162 171
f 157 171 159
f 157 159 158
f 159 171 162
f 163 170 168
f 163 168 166
f 168 170 169

