# https://github.com/mikedh/trimesh
v -0.06423372 0.00079147 0.05215721
v -0.06423372 0.00237529 0.05207063
v -0.06571779 0.00395910 0.05176352
v -0.06730233 0.00395910 0.05148744
v -0.06730233 0.00237529 0.05153154
v -0.06730233 0.00079147 0.05156095
v -0.06730233 0.00006168 0.05155932
v -0.06423372 0.00032047 0.05215558
v -0.06423372 0.00382625 0.05197262
v -0.06571779 0.00554118 0.05166223
v -0.06730233 0.00554118 0.05140412
v -0.06888688 0.00395910 0.05107904
v -0.06888688 0.00554118 0.05101859
v -0.06888688 0.00079147 0.05111988
v -0.06888688 0.00006168 0.05111988
v -0.06888688 0.00237529 0.05110354
v -0.06888534 -0.00079234 0.05111825
v -0.06730233 -0.00079234 0.05155605
v -0.06423372 0.00006168 0.05215395
v -0.06423372 0.00554118 0.05179945
v -0.06571779 0.00712499 0.05143353
v -0.06730233 0.00712499 0.05119012
v -0.06892244 0.00711809 0.05079969
v -0.06993191 0.00554118 0.05068371
v -0.06998447 0.00395910 0.05070821
v -0.06981906 0.00658671 0.05063797
v -0.07000302 0.00079147 0.05072128
v -0.06999839 0.00237529 0.05071638
v -0.06999993 0.00006168 0.05072128
v -0.06999529 -0.00079234 0.05072128
v -0.06997674 -0.00237442 0.05071311
v -0.06888534 -0.00237442 0.05109701
v -0.06730233 -0.00237442 0.05152011
v -0.06424609 -0.00079234 0.05214414
v -0.06423372 0.00006168 0.04786084
v -0.06424609 -0.00262114 0.05203469
v -0.06424609 -0.00407038 0.05189911
v -0.06424609 -0.00554204 0.05172431
v -0.06424609 -0.00565419 0.05170471
v -0.06424609 -0.00712413 0.05142536
v -0.06424609 -0.00720694 0.05139269
v -0.06424609 -0.00826972 0.05090097
v -0.06424609 -0.00830077 0.05082420
v -0.06424609 -0.00859062 0.04979339
v -0.06423372 0.00712499 0.05153481
v -0.06571779 0.00831544 0.05092221
v -0.06730233 0.00821192 0.05080786
v -0.06841848 0.00806010 0.05068371
v -0.06947587 0.00764258 0.05051708
v -0.07072341 0.00554118 0.05036189
v -0.07077752 0.00395910 0.05037659
v -0.07039723 0.00711809 0.05028674
v -0.07218893 0.00723541 0.04942910
v -0.07079452 0.00079147 0.05037822
v -0.07078834 0.00237529 0.05037822
v -0.07078834 -0.00079234 0.05037332
v -0.07079143 0.00006168 0.05037659
v -0.07076825 -0.00237442 0.05036516
v -0.07072805 -0.00395823 0.05035535
v -0.06993655 -0.00395823 0.05069187
v -0.06888534 -0.00395823 0.05104637
v -0.06730233 -0.00395823 0.05145640
v -0.06571779 -0.00237442 0.05181089
v -0.06571779 -0.00395823 0.05173085
v -0.06423372 0.00010826 0.04786084
v -0.06424609 -0.00856474 0.04971008
v -0.06424609 -0.00823694 0.04870378
v -0.06424609 -0.00815068 0.04865804
v -0.06424609 -0.00712413 0.04815816
v -0.06424609 -0.00554204 0.04787228
v -0.06424609 -0.00395823 0.04782981
v -0.06571779 -0.00554204 0.05160342
v -0.06571779 -0.00712413 0.05134205
v -0.06571779 -0.00827662 0.05086994
v -0.06730233 -0.00872002 0.04979339
v -0.06571779 -0.00869932 0.04979339
v -0.07712808 -0.00822486 0.03546835
v -0.06423372 0.00833787 0.05096795
v -0.06730233 0.00872088 0.04979339
v -0.06892244 0.00846382 0.04990938
v -0.07046834 0.00842241 0.04953855
v -0.07175608 0.00819467 0.04925921
v -0.07280884 0.00783581 0.04898149
v -0.07205289 0.00554118 0.04971008
v -0.07205289 0.00395910 0.04973458
v -0.07297734 0.00678166 0.04908768
v -0.07205289 0.00237529 0.04973295
v -0.07205289 0.00079147 0.04972968
v -0.07205289 0.00006168 0.04972805
v -0.07205289 -0.00079234 0.04972478
v -0.07205289 -0.00237442 0.04971498
v -0.07205289 -0.00395823 0.04969864
v -0.07205289 -0.00554204 0.04963330
v -0.07063066 -0.00554204 0.05032105
v -0.06983916 -0.00554204 0.05064940
v -0.06888534 -0.00554204 0.05095162
v -0.06730233 -0.00554204 0.05134695
v -0.06423372 0.00247535 0.04787555
v -0.07457580 -0.00062498 0.03546835
v -0.07708635 -0.00819381 0.03546835
v -0.07634431 -0.00747091 0.03546835
v -0.07580170 -0.00668591 0.03546835
v -0.07576460 -0.00661345 0.03546835
v -0.07532556 -0.00554032 0.03546835
v -0.07491126 -0.00395823 0.03546835
v -0.07466237 -0.00230024 0.03546835
v -0.07465155 -0.00222432 0.03546835
v -0.07457580 -0.00079234 0.03546835
v -0.06730233 -0.00712413 0.05111171
v -0.06730233 -0.00817138 0.05076375
v -0.07046989 -0.00880801 0.04820880
v -0.06887143 -0.00846123 0.04989468
v -0.07046989 -0.00841292 0.04949118
v -0.07838490 -0.00836979 0.03712645
v -0.07719610 -0.00822659 0.03546835
v -0.06423372 0.00865187 0.04979339
v -0.06571779 0.00871398 0.04979339
v -0.07046834 0.00881405 0.04820880
v -0.07218893 0.00852593 0.04835583
v -0.07459126 0.00806010 0.04755209
v -0.07363435 0.00829646 0.04790005
v -0.07355551 0.00723541 0.04859270
v -0.07479841 0.00712499 0.04771382
v -0.07306082 0.00554118 0.04914159
v -0.07307473 0.00395910 0.04914975
v -0.07385541 0.00554118 0.04860903
v -0.07306700 -0.00237442 0.04914322
v -0.07305463 -0.00395823 0.04913669
v -0.07300826 -0.00554204 0.04910565
v -0.07292942 -0.00660482 0.04905501
v -0.07214719 -0.00712931 0.04936539
v -0.06974022 -0.00645300 0.05061019
v -0.06887143 -0.00703787 0.05075232
v -0.06423372 0.00405916 0.04789678
v -0.07458198 0.00006168 0.03546835
v -0.06833191 -0.00802645 0.05065757
v -0.07214719 -0.00851126 0.04833295
v -0.07363280 -0.00876833 0.04662421
v -0.07168806 -0.00818001 0.04922163
v -0.07852558 -0.00823349 0.03546835
v -0.07521581 -0.00870277 0.04504288
v -0.07838490 -0.00836979 0.03871105
v -0.07932790 -0.00808684 0.03712645
v -0.07838490 0.00844484 0.03712809
v -0.06423372 0.00822918 0.04872992
v -0.07704461 0.00824643 0.03548795
v -0.07363435 0.00879680 0.04662584
v -0.07515861 0.00832924 0.04658010
v -0.07618663 0.00807563 0.04602141
v -0.07558837 0.00712499 0.04703098
v -0.07572132 0.00554118 0.04716166
v -0.07492827 0.00554118 0.04781674
v -0.07386623 0.00395910 0.04861884
v -0.07386005 -0.00237442 0.04861393
v -0.07384614 -0.00395823 0.04860413
v -0.07379821 -0.00554204 0.04857473
v -0.07473812 -0.00712413 0.04767625
v -0.07352614 -0.00712931 0.04854042
v -0.07274082 -0.00766069 0.04894392
v -0.07034931 -0.00703787 0.05022630
v -0.06938776 -0.00750714 0.05048931
v -0.06423372 0.00554118 0.04794743
v -0.07458353 0.00087601 0.03548795
v -0.07851476 0.00825678 0.03548795
v -0.07625929 0.00759772 0.03548795
v -0.07624074 0.00757357 0.03548795
v -0.07573832 0.00680927 0.03548795
v -0.07522972 0.00554291 0.03548795
v -0.07486798 0.00401258 0.03548795
v -0.07485716 0.00395910 0.03548795
v -0.07467319 0.00245292 0.03548795
v -0.07466546 0.00237529 0.03548795
v -0.07989834 0.00006168 0.03546835
v -0.07363280 -0.00829732 0.04785431
v -0.07514006 -0.00830768 0.04656377
v -0.07456343 -0.00804543 0.04753086
v -0.07862297 -0.00820416 0.03546835
v -0.07679881 -0.00850436 0.04346156
v -0.07673079 -0.00821796 0.04489259
v -0.07811901 -0.00828180 0.04187697
v -0.07848693 -0.00825247 0.04030871
v -0.07930625 -0.00806441 0.03871105
v -0.07927380 -0.00802473 0.03585551
v -0.07970047 -0.00712413 0.03712645
v -0.07838490 0.00845001 0.03871105
v -0.07521581 0.00872433 0.04504125
v -0.07854568 0.00824643 0.03548795
v -0.07936191 0.00811703 0.03712809
v -0.06423372 0.00712499 0.04822187
v -0.07674934 0.00824815 0.04493670
v -0.07765060 0.00798074 0.04433880
v -0.07718065 0.00712499 0.04532060
v -0.07638760 0.00712499 0.04623704
v -0.07651591 0.00554118 0.04636937
v -0.07653137 0.00395910 0.04637753
v -0.07572441 0.00395910 0.04716983
v -0.07493445 0.00395910 0.04782490
v -0.07491281 -0.00237442 0.04782164
v -0.07490508 -0.00395823 0.04781184
v -0.07487107 -0.00554204 0.04778243
v -0.07566257 -0.00554204 0.04710285
v -0.07552807 -0.00712413 0.04697217
v -0.06423372 0.00564125 0.04796213
v -0.07989834 0.00002200 0.03546835
v -0.07990452 0.00079147 0.03548795
v -0.07989989 0.00237529 0.03548795
v -0.07989061 0.00390389 0.03548795
v -0.07983496 0.00554118 0.03548795
v -0.07966955 0.00639865 0.03548795
v -0.07949950 0.00724749 0.03548795
v -0.07946703 0.00734583 0.03548795
v -0.07922741 0.00796866 0.03548795
v -0.07861060 0.00822400 0.03548795
v -0.07615571 -0.00806614 0.04599527
v -0.07944539 -0.00736049 0.03546835
v -0.07779900 -0.00809719 0.04346156
v -0.07759958 -0.00792639 0.04426366
v -0.07924442 -0.00799540 0.03978922
v -0.07964636 -0.00712413 0.03871105
v -0.07947785 -0.00726043 0.03546835
v -0.07995244 -0.00554204 0.03712645
v -0.07981950 -0.00554204 0.03554349
v -0.07962008 -0.00652718 0.03546835
v -0.07820249 0.00829474 0.04187860
v -0.07680035 0.00855871 0.04346156
v -0.07934645 0.00810496 0.03871105
v -0.07928307 0.00803249 0.03588982
v -0.07974994 0.00712499 0.03712809
v -0.07787166 0.00815154 0.04346156
v -0.07914858 0.00785479 0.04100789
v -0.07899863 0.00724576 0.04193414
v -0.07837872 0.00712499 0.04346156
v -0.07778973 0.00712499 0.04452830
v -0.07730586 0.00554118 0.04548232
v -0.07732287 0.00395910 0.04550029
v -0.07732287 0.00237529 0.04550029
v -0.07653137 0.00237529 0.04636937
v -0.07570586 -0.00237442 0.04714533
v -0.07569813 -0.00395823 0.04713879
v -0.07646798 -0.00554204 0.04631219
v -0.07633503 -0.00712413 0.04617987
v -0.07989679 -0.00086480 0.03546835
v -0.07990452 0.00073627 0.03548795
v -0.07991535 0.00079147 0.03554349
v -0.07991225 0.00237529 0.03554349
v -0.07989989 0.00395910 0.03554349
v -0.07984732 0.00554118 0.03554349
v -0.07712499 -0.00712413 0.04521604
v -0.07908056 -0.00770728 0.04084290
v -0.07889505 -0.00715691 0.04185900
v -0.07771243 -0.00712413 0.04442375
v -0.07822413 -0.00712413 0.04346156
v -0.07938510 -0.00715691 0.04030871
v -0.07963553 -0.00554204 0.04029564
v -0.07988443 -0.00554204 0.03871105
v -0.07993080 -0.00395823 0.03871105
v -0.07999728 -0.00395823 0.03712645
v -0.07988751 -0.00395823 0.03554349
v -0.07980559 -0.00554204 0.03546835
v -0.07979631 -0.00559898 0.03546835
v -0.07987052 -0.00403242 0.03546835
v -0.07926297 0.00801524 0.03995095
v -0.07971283 0.00712499 0.03871105
v -0.07998491 0.00554118 0.03712809
v -0.07942838 0.00724576 0.04040509
v -0.07928307 0.00680064 0.04144406
v -0.07910529 0.00554118 0.04245689
v -0.07862916 0.00554118 0.04346156
v -0.07790877 0.00554118 0.04469002
v -0.07791495 0.00395910 0.04470636
v -0.07791495 0.00237529 0.04470799
v -0.07790722 0.00006168 0.04469983
v -0.07731669 0.00079147 0.04549539
v -0.07652364 0.00006168 0.04636120
v -0.07651282 -0.00237442 0.04635466
v -0.07650199 -0.00395823 0.04634650
v -0.07725794 -0.00554204 0.04540881
v -0.07729349 -0.00395823 0.04545945
v -0.07991070 -0.00079234 0.03554349
v -0.07991380 0.00006168 0.03554349
v -0.07989061 -0.00244861 0.03546835
v -0.08002665 0.00079147 0.03712809
v -0.08002355 -0.00079234 0.03712645
v -0.08001737 0.00395910 0.03712809
v -0.07925833 -0.00665140 0.04131664
v -0.07784538 -0.00554204 0.04461651
v -0.07851012 -0.00554204 0.04346156
v -0.07904655 -0.00554204 0.04231967
v -0.07932326 -0.00554204 0.04152737
v -0.07936191 -0.00395823 0.04164989
v -0.07970047 -0.00395823 0.04029564
v -0.07972829 -0.00237442 0.04029564
v -0.07995244 -0.00237442 0.03871105
v -0.08001428 -0.00237442 0.03712645
v -0.07990452 -0.00237442 0.03554349
v -0.07987360 -0.00395823 0.03546835
v -0.07993390 0.00554118 0.03871105
v -0.07970510 0.00554118 0.04029401
v -0.07935727 0.00554118 0.04166460
v -0.07937583 0.00395910 0.04171851
v -0.07912075 0.00395910 0.04251080
v -0.07865389 0.00395910 0.04346156
v -0.07865853 0.00237529 0.04346156
v -0.07865389 0.00079147 0.04346156
v -0.07789640 -0.00237442 0.04468349
v -0.07730432 -0.00237442 0.04547579
v -0.07731359 0.00006168 0.04549212
v -0.07788248 -0.00395823 0.04466716
v -0.07996635 0.00079147 0.03871105
v -0.07995863 0.00395910 0.03871105
v -0.07996482 -0.00079234 0.03871105
v -0.07996635 0.00006168 0.03871105
v -0.07859514 -0.00395823 0.04346156
v -0.07909447 -0.00395823 0.04244219
v -0.07937583 -0.00237442 0.04169073
v -0.07937583 -0.00079234 0.04171687
v -0.07973448 -0.00079234 0.04029564
v -0.07973448 0.00395910 0.04029401
v -0.07937583 0.00237529 0.04173484
v -0.07912693 0.00237529 0.04252714
v -0.07912693 0.00079147 0.04252714
v -0.07863998 -0.00079234 0.04346156
v -0.07862143 -0.00237442 0.04346156
v -0.07984269 0.00006168 0.03956705
v -0.07910838 -0.00237442 0.04248303
v -0.07912075 -0.00079234 0.04250917
v -0.07937583 0.00006168 0.04172667
v -0.07954124 0.00006168 0.04107323
v -0.07973601 0.00006168 0.04029564
v -0.07937583 0.00079147 0.04173321
f 1 2 3
f 1 3 4
f 1 4 5
f 1 5 6
f 1 6 7
f 1 7 8
f 1 8 19
f 1 19 35
f 1 35 65
f 1 65 98
f 1 98 134
f 1 134 162
f 1 162 203
f 1 203 189
f 1 189 145
f 1 145 116
f 1 116 78
f 1 78 45
f 1 45 20
f 1 20 9
f 1 9 2
f 2 9 10
f 2 10 3
f 3 10 11
f 3 11 4
f 4 12 5
f 4 11 13
f 4 13 12
f 5 12 6
f 6 14 15
f 6 15 7
f 6 12 16
f 6 16 14
f 7 15 17
f 7 17 18
f 7 18 8
f 8 18 19
f 9 20 10
f 10 20 21
f 10 21 22
f 10 22 11
f 11 22 23
f 11 23 13
f 12 13 24
f 12 24 25
f 12 25 16
f 13 23 26
f 13 26 24
f 14 27 15
f 14 16 25
f 14 25 28
f 14 28 27
f 15 29 30
f 15 30 17
f 15 27 29
f 17 30 31
f 17 31 32
f 17 32 18
f 18 32 33
f 18 33 34
f 18 34 19
f 19 34 36
f 19 36 37
f 19 37 38
f 19 38 39
f 19 39 40
f 19 40 41
f 19 41 42
f 19 42 43
f 19 43 44
f 19 44 35
f 20 45 21
f 21 45 46
f 21 46 47
f 21 47 22
f 22 47 48
f 22 48 23
f 23 48 49
f 23 49 26
f 24 26 50
f 24 50 25
f 25 51 28
f 25 50 51
f 26 49 52
f 26 52 53
f 26 53 50
f 27 54 29
f 27 28 51
f 27 51 55
f 27 55 54
f 29 54 30
f 30 56 31
f 30 54 57
f 30 57 56
f 31 58 59
f 31 59 60
f 31 60 32
f 31 56 58
f 32 60 61
f 32 61 33
f 33 61 62
f 33 62 63
f 33 63 34
f 34 63 64
f 34 64 36
f 35 44 66
f 35 66 67
f 35 67 68
f 35 68 69
f 35 69 70
f 35 70 71
f 35 71 65
f 36 64 72
f 36 72 37
f 37 72 38
f 38 72 73
f 38 73 39
f 39 73 40
f 40 73 41
f 41 74 42
f 41 73 74
f 42 74 75
f 42 75 43
f 43 75 76
f 43 76 44
f 44 76 77
f 44 77 66
f 45 78 46
f 46 78 79
f 46 79 47
f 47 79 80
f 47 80 81
f 47 81 48
f 48 81 82
f 48 82 49
f 49 82 83
f 49 83 52
f 50 53 84
f 50 84 51
f 51 84 85
f 51 85 55
f 52 83 53
f 53 83 86
f 53 86 84
f 54 55 85
f 54 85 87
f 54 87 88
f 54 88 89
f 54 89 90
f 54 90 57
f 56 90 91
f 56 91 92
f 56 92 58
f 56 57 90
f 58 92 59
f 59 92 93
f 59 93 94
f 59 94 60
f 60 94 95
f 60 95 61
f 61 95 96
f 61 96 62
f 62 64 63
f 62 96 97
f 62 97 64
f 64 97 72
f 65 71 99
f 65 99 98
f 66 77 67
f 67 77 100
f 67 100 101
f 67 101 102
f 67 102 103
f 67 103 68
f 68 103 69
f 69 103 104
f 69 104 105
f 69 105 70
f 70 105 106
f 70 106 107
f 70 107 108
f 70 108 71
f 71 108 99
f 72 97 109
f 72 109 73
f 73 109 110
f 73 110 74
f 74 110 75
f 75 111 76
f 75 110 112
f 75 112 113
f 75 113 111
f 76 111 77
f 77 111 114
f 77 114 115
f 77 115 140
f 77 140 177
f 77 177 215
f 77 215 220
f 77 220 223
f 77 223 260
f 77 260 259
f 77 259 261
f 77 261 296
f 77 296 281
f 77 281 242
f 77 242 204
f 77 204 173
f 77 173 135
f 77 135 99
f 77 99 108
f 77 108 107
f 77 107 106
f 77 106 105
f 77 105 104
f 77 104 103
f 77 103 102
f 77 102 101
f 77 101 100
f 78 116 117
f 78 117 79
f 79 117 118
f 79 118 81
f 79 81 80
f 81 118 119
f 81 119 82
f 82 120 83
f 82 119 121
f 82 121 120
f 83 122 86
f 83 120 123
f 83 123 122
f 84 86 124
f 84 124 85
f 85 124 125
f 85 125 87
f 86 123 126
f 86 126 124
f 86 122 123
f 87 125 127
f 87 127 88
f 88 127 89
f 89 127 90
f 90 127 91
f 91 127 128
f 91 128 92
f 92 128 129
f 92 129 93
f 93 129 130
f 93 130 131
f 93 131 94
f 94 131 132
f 94 132 95
f 95 132 96
f 96 132 133
f 96 133 97
f 97 133 109
f 98 99 135
f 98 135 134
f 109 133 136
f 109 136 110
f 110 136 113
f 110 113 112
f 111 113 137
f 111 137 138
f 111 138 114
f 113 136 139
f 113 139 137
f 114 140 115
f 114 138 141
f 114 141 142
f 114 142 143
f 114 143 140
f 116 144 118
f 116 118 117
f 116 145 146
f 116 146 144
f 118 147 119
f 118 144 147
f 119 147 121
f 120 121 148
f 120 148 149
f 120 149 150
f 120 150 123
f 121 147 148
f 123 150 151
f 123 151 152
f 123 152 126
f 124 126 125
f 125 126 153
f 125 153 154
f 125 154 127
f 126 152 153
f 127 154 128
f 128 154 155
f 128 155 156
f 128 156 129
f 129 156 130
f 130 157 158
f 130 158 159
f 130 159 131
f 130 156 157
f 131 160 132
f 131 159 160
f 132 160 161
f 132 161 133
f 133 161 136
f 134 135 163
f 134 163 162
f 135 164 146
f 135 146 165
f 135 165 166
f 135 166 167
f 135 167 168
f 135 168 169
f 135 169 170
f 135 170 171
f 135 171 172
f 135 172 163
f 135 173 164
f 136 161 139
f 137 139 174
f 137 174 138
f 138 174 175
f 138 175 141
f 139 161 159
f 139 159 176
f 139 176 174
f 140 143 177
f 141 178 142
f 141 175 179
f 141 179 178
f 142 178 180
f 142 180 181
f 142 181 182
f 142 182 143
f 143 183 177
f 143 182 184
f 143 184 183
f 144 185 186
f 144 186 147
f 144 146 164
f 144 164 187
f 144 187 188
f 144 188 185
f 145 166 165
f 145 165 146
f 145 189 167
f 145 167 166
f 147 186 148
f 148 190 149
f 148 186 190
f 149 190 191
f 149 191 192
f 149 192 193
f 149 193 150
f 150 193 151
f 151 193 194
f 151 194 195
f 151 195 196
f 151 196 197
f 151 197 152
f 152 197 153
f 153 197 154
f 154 198 199
f 154 199 155
f 154 197 198
f 155 199 200
f 155 200 156
f 156 200 157
f 157 200 201
f 157 201 202
f 157 202 176
f 157 176 158
f 158 176 159
f 159 161 160
f 162 163 172
f 162 172 171
f 162 171 170
f 162 170 203
f 164 173 187
f 167 189 168
f 168 189 169
f 169 189 170
f 170 189 203
f 173 204 243
f 173 243 205
f 173 205 206
f 173 206 207
f 173 207 208
f 173 208 209
f 173 209 210
f 173 210 211
f 173 211 212
f 173 212 213
f 173 213 187
f 174 176 175
f 175 176 214
f 175 214 179
f 176 202 214
f 177 183 215
f 178 179 216
f 178 216 180
f 179 214 217
f 179 217 216
f 180 216 218
f 180 218 182
f 180 182 181
f 182 218 219
f 182 219 184
f 183 184 220
f 183 220 215
f 184 219 221
f 184 221 222
f 184 222 223
f 184 223 220
f 185 224 225
f 185 225 186
f 185 188 226
f 185 226 224
f 186 225 190
f 187 213 227
f 187 227 188
f 188 227 228
f 188 228 226
f 190 225 229
f 190 229 191
f 191 229 230
f 191 230 231
f 191 231 232
f 191 232 233
f 191 233 192
f 192 233 234
f 192 234 193
f 193 234 194
f 194 234 235
f 194 235 195
f 195 235 236
f 195 236 237
f 195 237 196
f 196 237 238
f 196 238 198
f 196 198 197
f 198 238 239
f 198 239 199
f 199 239 200
f 200 239 201
f 201 240 202
f 201 239 240
f 202 240 241
f 202 241 214
f 204 242 243
f 205 243 244
f 205 244 245
f 205 245 206
f 206 245 207
f 207 245 246
f 207 246 247
f 207 247 208
f 208 247 209
f 209 247 228
f 209 228 210
f 210 228 211
f 211 228 227
f 211 227 212
f 212 227 213
f 214 241 248
f 214 248 217
f 216 217 249
f 216 249 218
f 217 250 249
f 217 248 251
f 217 251 252
f 217 252 250
f 218 249 253
f 218 253 219
f 219 254 255
f 219 255 221
f 219 253 254
f 221 255 256
f 221 256 257
f 221 257 258
f 221 258 222
f 222 259 260
f 222 260 223
f 222 258 261
f 222 261 259
f 224 226 262
f 224 262 230
f 224 230 229
f 224 229 225
f 226 228 263
f 226 263 262
f 228 247 264
f 228 264 263
f 230 262 265
f 230 265 266
f 230 266 231
f 231 266 267
f 231 267 232
f 232 267 268
f 232 268 233
f 233 268 269
f 233 269 234
f 234 269 235
f 235 269 270
f 235 270 271
f 235 271 236
f 236 271 272
f 236 272 273
f 236 273 274
f 236 274 237
f 237 274 238
f 238 275 239
f 238 274 275
f 239 275 276
f 239 276 240
f 240 277 241
f 240 276 278
f 240 278 277
f 241 277 248
f 242 279 280
f 242 280 243
f 242 281 279
f 243 280 244
f 244 282 245
f 244 280 283
f 244 283 282
f 245 284 246
f 245 282 284
f 246 284 264
f 246 264 247
f 248 277 286
f 248 286 251
f 249 250 285
f 249 285 253
f 250 252 285
f 251 286 287
f 251 287 252
f 252 287 288
f 252 288 285
f 253 285 254
f 254 285 289
f 254 289 290
f 254 290 291
f 254 291 255
f 255 291 256
f 256 291 292
f 256 292 293
f 256 293 257
f 257 293 294
f 257 294 295
f 257 295 258
f 258 295 281
f 258 281 296
f 258 296 261
f 262 263 265
f 263 264 297
f 263 297 298
f 263 298 265
f 264 284 297
f 265 298 266
f 266 298 299
f 266 299 267
f 267 299 300
f 267 300 301
f 267 301 268
f 268 301 302
f 268 302 269
f 269 302 270
f 270 302 303
f 270 303 271
f 271 303 304
f 271 304 272
f 272 305 306
f 272 306 307
f 272 307 273
f 272 304 305
f 273 307 275
f 273 275 274
f 275 307 306
f 275 306 276
f 276 306 278
f 277 278 308
f 277 308 286
f 278 306 305
f 278 305 308
f 279 281 295
f 279 295 283
f 279 283 280
f 282 309 310
f 282 310 284
f 282 283 311
f 282 311 312
f 282 312 309
f 283 295 294
f 283 294 311
f 284 310 297
f 285 288 289
f 286 308 313
f 286 313 287
f 287 313 314
f 287 314 288
f 288 314 289
f 289 314 290
f 290 314 325
f 290 325 315
f 290 315 292
f 290 292 291
f 292 315 316
f 292 316 317
f 292 317 311
f 292 311 293
f 293 311 294
f 297 310 318
f 297 318 298
f 298 318 300
f 298 300 299
f 300 318 319
f 300 319 320
f 300 320 301
f 301 320 302
f 302 320 303
f 303 320 321
f 303 321 304
f 304 321 322
f 304 322 305
f 305 323 308
f 305 322 323
f 308 323 313
f 309 318 310
f 309 312 324
f 309 324 318
f 311 317 324
f 311 324 312
f 313 323 325
f 313 325 314
f 315 325 326
f 315 326 321
f 315 321 316
f 316 327 328
f 316 328 317
f 316 321 327
f 317 328 329
f 317 329 324
f 318 324 329
f 318 329 319
f 319 330 321
f 319 321 320
f 319 329 328
f 319 328 330
f 321 330 327
f 321 326 322
f 322 326 323
f 323 326 325
f 327 330 328

