# https://github.com/mikedh/trimesh
v 0.02607803 -0.05463411 0.06061720
v 0.02454063 -0.05463411 0.06063180
v 0.01662637 -0.05779690 0.06062207
v 0.01820718 -0.05779690 0.06057340
v 0.02607803 -0.05468132 0.06061233
v 0.02607803 -0.05309911 0.06061233
v -0.00001172 -0.05938074 0.06061233
v 0.00237865 -0.05938074 0.06061720
v 0.00554538 -0.05938074 0.06062207
v 0.01504301 -0.05779690 0.06062693
v 0.01029547 -0.05938074 0.06062207
v 0.01187883 -0.05938074 0.06060260
v 0.01345964 -0.05938074 0.06053447
v 0.01979054 -0.05779690 0.06048580
v 0.02295727 -0.05621795 0.06055393
v 0.02454063 -0.05621795 0.06045174
v 0.02607803 -0.05629283 0.06028628
v 0.02607803 -0.05305028 0.06060747
v 0.02607803 -0.05164062 0.06028628
v -0.00001172 -0.05808665 0.06031548
v -0.00001172 -0.06018649 0.06058313
v -0.00001172 -0.06096457 0.06055393
v 0.00079529 -0.06096457 0.06055393
v 0.00237865 -0.06096457 0.06054420
v 0.00396201 -0.06096457 0.06051987
v 0.00554538 -0.06096457 0.06048580
v 0.00712874 -0.06096457 0.06044201
v 0.00871211 -0.06096457 0.06038848
v 0.01187883 -0.06076924 0.06029115
v 0.01345964 -0.06057879 0.06024249
v 0.01820718 -0.05918215 0.06027655
v 0.01979054 -0.05893961 0.06021815
v 0.02295727 -0.05762599 0.06026195
v 0.02607803 -0.05631562 0.06028142
v 0.02607803 -0.05153318 0.06025708
v 0.02607803 -0.05087719 0.05996024
v -0.00001172 -0.05769761 0.06012083
v -0.00001172 -0.06224890 0.06026195
v 0.00079529 -0.06224727 0.06025708
v 0.00237865 -0.06220820 0.06024735
v 0.00396201 -0.06214797 0.06023762
v 0.00554538 -0.06205682 0.06021329
v 0.00712874 -0.06195752 0.06017922
v 0.00871211 -0.06186637 0.06014029
v 0.00978215 -0.06180125 0.06011109
v 0.01030313 -0.06108177 0.06028142
v 0.01083688 -0.06168894 0.06005756
v 0.01722141 -0.06011650 0.06006243
v 0.02109043 -0.05873939 0.06015002
v 0.02454063 -0.05730206 0.06018895
v 0.02557237 -0.05709207 0.06012569
v 0.02607803 -0.05698952 0.06007703
v 0.02607803 -0.05006492 0.05932274
v -0.00001172 -0.05729392 0.05991644
v -0.00001172 -0.06304163 0.05994077
v 0.00079529 -0.06303837 0.05994077
v 0.00237865 -0.06300093 0.05991644
v 0.00396201 -0.06293908 0.05986291
v 0.00554538 -0.06284955 0.05978018
v 0.00712874 -0.06275025 0.05967312
v 0.00871211 -0.06265747 0.05954173
v 0.01187883 -0.06156034 0.05999430
v 0.01187883 -0.06245400 0.05920594
v 0.01345964 -0.06137152 0.05987751
v 0.01820718 -0.05997325 0.05999430
v 0.02214516 -0.05857987 0.06008189
v 0.02295727 -0.05841709 0.06000890
v 0.02454063 -0.05809479 0.05978991
v 0.02607803 -0.05782458 0.05940547
v 0.02607803 -0.04997702 0.05924974
v -0.00001172 -0.05683977 0.05952713
v -0.00001172 -0.06387505 0.05914755
v 0.00079529 -0.06387505 0.05914755
v 0.00237865 -0.06383599 0.05912322
v 0.00396201 -0.06378227 0.05906969
v 0.00554538 -0.06371065 0.05898696
v 0.00712874 -0.06362437 0.05888476
v 0.00871211 -0.06352182 0.05874850
v 0.01345964 -0.06227657 0.05908915
v 0.00999156 -0.06342253 0.05861711
v 0.01504301 -0.06116642 0.05969258
v 0.01504301 -0.06206821 0.05890423
v 0.01979054 -0.05973234 0.05982884
v 0.02151947 -0.05931237 0.05967312
v 0.02289853 -0.05945887 0.05912322
v 0.02454063 -0.05901448 0.05899669
v 0.02607803 -0.05801014 0.05924487
v -0.00001172 -0.05637747 0.05912322
v 0.02607803 -0.04910127 0.05836892
v -0.00001172 -0.06455709 0.05770709
v 0.00079529 -0.06455709 0.05770709
v 0.00237865 -0.06448710 0.05770709
v 0.00396201 -0.06438130 0.05770709
v 0.00554538 -0.06423154 0.05770709
v 0.00712874 -0.06405899 0.05770709
v 0.01104629 -0.06333137 0.05846139
v 0.01979054 -0.06062111 0.05903562
v 0.01633013 -0.06189078 0.05869011
v 0.02137391 -0.06038345 0.05877770
v 0.02233159 -0.06022882 0.05858305
v 0.02571794 -0.05876218 0.05872904
v 0.02607803 -0.05868079 0.05838352
v -0.00001172 -0.05599169 0.05863658
v 0.02607803 -0.04880827 0.05767790
v -0.00001172 -0.05558963 0.05811101
v -0.00001172 -0.06210728 0.01812873
v 0.00079529 -0.06211216 0.01812873
v 0.00237865 -0.06206821 0.01812873
v 0.00396201 -0.06199822 0.01812873
v 0.00554538 -0.06188427 0.01812873
v 0.00636260 -0.06175893 0.01730631
v 0.00871211 -0.06384575 0.05770709
v 0.00654136 -0.06178498 0.01812873
v 0.01738485 -0.06174754 0.05844192
v 0.01042827 -0.06353810 0.05784336
v 0.01141148 -0.06341602 0.05740538
v 0.01191459 -0.06323533 0.05784336
v 0.01345964 -0.06289513 0.05770709
v 0.01979054 -0.06116479 0.05770709
v 0.02137391 -0.06068459 0.05770709
v 0.02252057 -0.06030044 0.05770709
v 0.02331225 -0.06000906 0.05770709
v 0.02454063 -0.05951096 0.05770709
v 0.02597843 -0.05888426 0.05770709
v 0.02607803 -0.05883869 0.05770709
v 0.02607803 -0.04878711 0.05761463
v -0.00001172 -0.05529825 0.05731778
v -0.00001172 -0.06197217 0.01654715
v 0.00079529 -0.06197705 0.01654715
v 0.00237865 -0.06193473 0.01654715
v 0.00400543 -0.06185009 0.01644009
v 0.00554538 -0.06179637 0.01698999
v 0.01029547 -0.06121362 0.01812873
v 0.00871211 -0.06146431 0.01812873
v 0.00733305 -0.06167103 0.01812873
v 0.00580587 -0.06171987 0.01654715
v 0.00658223 -0.06162220 0.01654715
v 0.00698573 -0.06159127 0.01668828
v 0.00867635 -0.06132106 0.01654715
v 0.01141148 -0.06341602 0.05672408
v 0.01676428 -0.06200310 0.05783362
v 0.01763257 -0.06181916 0.05738591
v 0.01504301 -0.06248981 0.05770709
v 0.01763257 -0.06181916 0.05677275
v 0.02247205 -0.06028579 0.05668515
v 0.02429291 -0.05723694 0.01812873
v 0.02508460 -0.05690162 0.01812873
v 0.02607803 -0.05648002 0.01812873
v 0.02607803 -0.04838993 0.05617418
v 0.02607803 -0.04837691 0.05612552
v -0.00001172 -0.05498409 0.05612552
v -0.00001172 -0.06189566 0.01602158
v 0.00079529 -0.06181916 0.01550088
v 0.00237865 -0.06179800 0.01558847
v 0.00350744 -0.06177684 0.01568093
v 0.00456471 -0.06174428 0.01584639
v 0.00516741 -0.06177684 0.01654715
v 0.01029547 -0.06106224 0.01654715
v 0.01187883 -0.06091737 0.01812873
v 0.00554538 -0.06170033 0.01619190
v 0.00712874 -0.06122665 0.01496071
v 0.00871211 -0.06098899 0.01496071
v 0.01029547 -0.06073994 0.01496071
v 0.01345964 -0.06057390 0.01812873
v 0.01473655 -0.06028579 0.01812873
v 0.01552823 -0.06010348 0.01812873
v 0.01662637 -0.05984465 0.01812873
v 0.01820718 -0.05940841 0.01812873
v 0.02068693 -0.05862545 0.01842071
v 0.02127686 -0.05838291 0.01798760
v 0.02295727 -0.05777086 0.01812873
v 0.02408350 -0.05714741 0.01654715
v 0.02487518 -0.05681372 0.01654715
v 0.02607803 -0.05630585 0.01654715
v 0.02607803 -0.04811647 0.05454394
v -0.00001172 -0.05467156 0.05454394
v -0.00001172 -0.06181753 0.01551061
v -0.00001172 -0.06161243 0.01471739
v 0.00079529 -0.06161406 0.01471252
v 0.00237865 -0.06157988 0.01479525
v 0.00400543 -0.06157662 0.01507264
v 0.00554538 -0.06142198 0.01496071
v 0.01187883 -0.06076273 0.01654715
v 0.00554538 -0.06088807 0.01337913
v 0.00712874 -0.06069111 0.01337913
v 0.01029547 -0.06034764 0.01369545
v 0.01143702 -0.06024835 0.01395823
v 0.01192991 -0.06041112 0.01488771
v 0.01449649 -0.06022882 0.01692186
v 0.01662637 -0.05969165 0.01654715
v 0.01820718 -0.05925377 0.01654715
v 0.02057456 -0.05858638 0.01736471
v 0.01994633 -0.05883869 0.01798760
v 0.02295727 -0.05759506 0.01654715
v 0.02387664 -0.05705789 0.01551548
v 0.02607803 -0.05629771 0.01649849
v 0.02607803 -0.04796182 0.05298183
v -0.00001172 -0.05448925 0.05295750
v -0.00001172 -0.05458203 0.05376532
v -0.00001172 -0.06137640 0.01403123
v 0.00079529 -0.06115177 0.01337913
v 0.00237865 -0.06108991 0.01337913
v 0.00396201 -0.06101178 0.01337913
v 0.01312765 -0.06027602 0.01536462
v 0.01418237 -0.06015719 0.01586586
v 0.01376355 -0.06034439 0.01654715
v 0.00554538 -0.06037369 0.01225013
v 0.00712874 -0.06027602 0.01240585
v 0.00815282 -0.06020603 0.01252751
v 0.00921010 -0.06012952 0.01269297
v 0.00869423 -0.06042903 0.01328180
v 0.01029547 -0.06004813 0.01290223
v 0.01192991 -0.05993907 0.01340833
v 0.01504301 -0.05925377 0.01337913
v 0.01249430 -0.06013440 0.01430375
v 0.01492298 -0.06008231 0.01654715
v 0.01662637 -0.05938236 0.01496071
v 0.01829912 -0.05889403 0.01488285
v 0.01929000 -0.05869056 0.01535975
v 0.01960922 -0.05879473 0.01654715
v 0.02040090 -0.05852615 0.01654715
v 0.02137391 -0.05818269 0.01654715
v 0.02301090 -0.05727764 0.01498018
v 0.02357785 -0.05693743 0.01445947
v 0.02445891 -0.05668350 0.01498018
v 0.02607803 -0.05595099 0.01482445
v 0.02607803 -0.04793090 0.05137592
v -0.00001172 -0.05443553 0.05137592
v -0.00001172 -0.05446157 0.05218374
v -0.00001172 -0.06114851 0.01337913
v -0.00001172 -0.06082133 0.01270270
v 0.00079529 -0.06050391 0.01205061
v 0.00237865 -0.06047298 0.01209927
v 0.00396201 -0.06043554 0.01215767
v 0.01504301 -0.05974048 0.01496071
v 0.00396201 -0.05993093 0.01136445
v 0.00554538 -0.05986744 0.01145691
v 0.00712874 -0.05976978 0.01161750
v 0.01029547 -0.05943120 0.01179269
v 0.01194778 -0.05905681 0.01166130
v 0.01345964 -0.05894775 0.01199221
v 0.01504301 -0.05878171 0.01225986
v 0.01614370 -0.05866126 0.01245938
v 0.01719842 -0.05853429 0.01272703
v 0.01665191 -0.05886799 0.01330613
v 0.01783432 -0.05872474 0.01377817
v 0.01889160 -0.05855382 0.01430375
v 0.01980842 -0.05839104 0.01488285
v 0.02137391 -0.05787504 0.01496071
v 0.02252057 -0.05714416 0.01377817
v 0.02454063 -0.05616423 0.01337913
v 0.02607803 -0.05576217 0.01422102
v 0.02607803 -0.05589402 0.01463953
v 0.02607803 -0.04820111 0.01091674
v -0.00001172 -0.05463737 0.01091674
v -0.00001172 -0.06050228 0.01205061
v -0.00001172 -0.06024509 0.01164670
v 0.00079529 -0.05999441 0.01126225
v 0.00237865 -0.05996349 0.01130605
v 0.00396201 -0.05960049 0.01091674
v 0.00554538 -0.05947515 0.01091674
v 0.00712874 -0.05927656 0.01091674
v 0.00870955 -0.05906820 0.01091674
v 0.01029547 -0.05885822 0.01091674
v 0.01147788 -0.05867591 0.01091674
v 0.01251984 -0.05855708 0.01104813
v 0.01345964 -0.05845616 0.01119899
v 0.01504301 -0.05828361 0.01146664
v 0.01665191 -0.05816641 0.01187542
v 0.01831444 -0.05754785 0.01166130
v 0.01979054 -0.05731996 0.01206520
v 0.02095508 -0.05712788 0.01237666
v 0.02200981 -0.05695208 0.01272217
v 0.01829912 -0.05839593 0.01330613
v 0.02143775 -0.05734926 0.01330127
v 0.02301090 -0.05677465 0.01330127
v 0.02540638 -0.05545615 0.01253238
v 0.02578179 -0.05561893 0.01337913
v 0.02607803 -0.05548707 0.01337913
v 0.02607803 -0.05405300 0.01091674
v -0.00001172 -0.05973397 0.01091674
v -0.00001172 -0.05999441 0.01126225
v 0.00052969 -0.05973397 0.01091674
v 0.00079529 -0.05973234 0.01091674
v 0.01242024 -0.05847569 0.01091674
v 0.01504301 -0.05788317 0.01091674
v 0.01662892 -0.05752181 0.01091674
v 0.01791349 -0.05719299 0.01091674
v 0.01891459 -0.05697650 0.01104326
v 0.01979054 -0.05682837 0.01127198
v 0.02143775 -0.05661839 0.01182675
v 0.02301090 -0.05595262 0.01170023
v 0.02454063 -0.05564822 0.01223066
v 0.02607803 -0.05471225 0.01184622
v 0.02587883 -0.05416857 0.01091674
v 0.02607803 -0.05452343 0.01156883
v 0.01881754 -0.05690650 0.01091674
v 0.02257420 -0.05561079 0.01091674
v 0.02357018 -0.05534709 0.01111139
v 0.02454063 -0.05513385 0.01143744
v 0.02607803 -0.05466179 0.01176836
v 0.02344249 -0.05524616 0.01091674
f 1 2 3
f 1 3 4
f 1 4 5
f 1 5 17
f 1 17 34
f 1 34 52
f 1 52 69
f 1 69 87
f 1 87 102
f 1 102 125
f 1 125 148
f 1 148 174
f 1 174 196
f 1 196 226
f 1 226 253
f 1 253 252
f 1 252 279
f 1 279 294
f 1 294 301
f 1 301 296
f 1 296 280
f 1 280 254
f 1 254 227
f 1 227 197
f 1 197 175
f 1 175 150
f 1 150 149
f 1 149 126
f 1 126 104
f 1 104 89
f 1 89 70
f 1 70 53
f 1 53 36
f 1 36 35
f 1 35 19
f 1 19 18
f 1 18 6
f 1 6 2
f 2 6 7
f 2 7 8
f 2 8 9
f 2 9 10
f 2 10 3
f 3 10 11
f 3 11 12
f 3 12 4
f 4 13 14
f 4 14 15
f 4 15 5
f 4 12 13
f 5 15 16
f 5 16 17
f 6 18 7
f 7 18 19
f 7 19 20
f 7 20 37
f 7 37 54
f 7 54 71
f 7 71 88
f 7 88 103
f 7 103 105
f 7 105 127
f 7 127 151
f 7 151 176
f 7 176 199
f 7 199 198
f 7 198 229
f 7 229 228
f 7 228 255
f 7 255 281
f 7 281 282
f 7 282 257
f 7 257 256
f 7 256 231
f 7 231 230
f 7 230 200
f 7 200 178
f 7 178 177
f 7 177 152
f 7 152 128
f 7 128 106
f 7 106 90
f 7 90 72
f 7 72 55
f 7 55 38
f 7 38 22
f 7 22 21
f 7 21 8
f 8 21 22
f 8 22 9
f 9 11 10
f 9 22 23
f 9 23 11
f 11 23 24
f 11 24 12
f 12 24 25
f 12 25 26
f 12 26 27
f 12 27 28
f 12 28 13
f 13 28 29
f 13 29 30
f 13 30 31
f 13 31 14
f 14 16 15
f 14 31 32
f 14 32 33
f 14 33 16
f 16 33 34
f 16 34 17
f 19 35 20
f 20 35 36
f 20 36 37
f 22 38 23
f 23 38 24
f 24 38 39
f 24 39 40
f 24 40 41
f 24 41 25
f 25 41 26
f 26 41 27
f 27 41 42
f 27 42 28
f 28 42 43
f 28 43 44
f 28 44 45
f 28 45 46
f 28 46 29
f 29 46 45
f 29 45 30
f 30 45 47
f 30 47 48
f 30 48 32
f 30 32 31
f 32 48 49
f 32 49 33
f 33 49 50
f 33 50 34
f 34 50 51
f 34 51 52
f 36 53 54
f 36 54 37
f 38 55 56
f 38 56 39
f 39 56 40
f 40 56 41
f 41 56 57
f 41 57 42
f 42 57 43
f 43 57 44
f 44 57 58
f 44 58 45
f 45 58 59
f 45 59 60
f 45 60 61
f 45 61 47
f 47 62 48
f 47 61 63
f 47 63 62
f 48 62 64
f 48 64 65
f 48 65 66
f 48 66 49
f 49 66 50
f 50 66 51
f 51 66 67
f 51 67 52
f 52 67 68
f 52 68 69
f 53 70 54
f 54 70 71
f 55 72 73
f 55 73 56
f 56 73 57
f 57 73 74
f 57 74 75
f 57 75 58
f 58 75 76
f 58 76 59
f 59 76 77
f 59 77 60
f 60 77 61
f 61 77 78
f 61 78 63
f 62 63 79
f 62 79 64
f 63 78 80
f 63 80 79
f 64 79 81
f 64 81 65
f 65 81 82
f 65 82 83
f 65 83 66
f 66 83 67
f 67 83 84
f 67 84 85
f 67 85 86
f 67 86 68
f 68 86 69
f 69 86 87
f 70 88 71
f 70 89 88
f 72 90 91
f 72 91 73
f 73 91 74
f 74 91 92
f 74 92 75
f 75 92 93
f 75 93 76
f 76 93 77
f 77 93 94
f 77 94 78
f 78 94 95
f 78 95 80
f 79 82 81
f 79 80 96
f 79 96 82
f 80 95 96
f 82 97 83
f 82 96 98
f 82 98 97
f 83 97 99
f 83 99 84
f 84 99 85
f 85 99 86
f 86 99 100
f 86 100 101
f 86 101 87
f 87 101 102
f 88 89 103
f 89 104 105
f 89 105 103
f 90 106 107
f 90 107 91
f 91 107 108
f 91 108 109
f 91 109 92
f 92 109 93
f 93 109 110
f 93 110 111
f 93 111 94
f 94 111 95
f 95 112 96
f 95 111 113
f 95 113 112
f 96 114 98
f 96 112 115
f 96 115 116
f 96 116 117
f 96 117 118
f 96 118 114
f 97 98 99
f 98 114 99
f 99 114 100
f 100 114 119
f 100 119 120
f 100 120 121
f 100 121 122
f 100 122 123
f 100 123 101
f 101 123 124
f 101 124 102
f 102 124 125
f 104 126 127
f 104 127 105
f 106 128 129
f 106 129 107
f 107 129 130
f 107 130 108
f 108 130 109
f 109 130 131
f 109 131 132
f 109 132 110
f 110 132 111
f 111 133 134
f 111 134 135
f 111 135 113
f 111 132 136
f 111 136 137
f 111 137 138
f 111 138 139
f 111 139 133
f 112 113 140
f 112 140 116
f 112 116 115
f 113 135 140
f 114 141 142
f 114 142 119
f 114 118 143
f 114 143 141
f 116 140 118
f 116 118 117
f 118 140 143
f 119 142 144
f 119 144 120
f 120 144 145
f 120 145 121
f 121 145 122
f 122 145 146
f 122 146 123
f 123 146 147
f 123 147 148
f 123 148 124
f 124 148 125
f 126 149 127
f 127 149 150
f 127 150 151
f 128 152 129
f 129 152 153
f 129 153 154
f 129 154 130
f 130 154 155
f 130 155 131
f 131 155 156
f 131 156 157
f 131 157 132
f 132 157 136
f 133 139 158
f 133 158 159
f 133 159 140
f 133 140 134
f 134 140 135
f 136 157 160
f 136 160 137
f 137 160 139
f 137 139 138
f 139 160 161
f 139 161 162
f 139 162 163
f 139 163 158
f 140 144 143
f 140 159 164
f 140 164 165
f 140 165 166
f 140 166 167
f 140 167 144
f 141 143 142
f 142 143 144
f 144 167 168
f 144 168 145
f 145 168 169
f 145 169 170
f 145 170 171
f 145 171 146
f 146 171 172
f 146 172 173
f 146 173 174
f 146 174 147
f 147 174 148
f 150 175 176
f 150 176 151
f 152 177 153
f 153 177 178
f 153 178 179
f 153 179 154
f 154 179 180
f 154 180 155
f 155 180 181
f 155 181 156
f 156 160 157
f 156 181 182
f 156 182 161
f 156 161 160
f 158 163 183
f 158 183 159
f 159 183 164
f 161 182 184
f 161 184 185
f 161 185 186
f 161 186 162
f 162 186 163
f 163 186 187
f 163 187 188
f 163 188 183
f 164 183 189
f 164 189 165
f 165 189 166
f 166 189 190
f 166 190 167
f 167 190 168
f 168 190 191
f 168 191 192
f 168 192 193
f 168 193 169
f 169 193 192
f 169 192 170
f 170 192 171
f 171 192 194
f 171 194 172
f 172 194 195
f 172 195 173
f 173 195 196
f 173 196 174
f 175 197 198
f 175 198 199
f 175 199 176
f 178 200 179
f 179 200 201
f 179 201 202
f 179 202 180
f 180 202 203
f 180 203 181
f 181 203 182
f 182 203 184
f 183 188 204
f 183 204 205
f 183 205 206
f 183 206 189
f 184 203 207
f 184 207 208
f 184 208 209
f 184 209 185
f 185 209 210
f 185 210 211
f 185 211 186
f 186 211 212
f 186 212 187
f 187 212 213
f 187 213 214
f 187 214 215
f 187 215 188
f 188 215 204
f 189 206 216
f 189 216 190
f 190 216 205
f 190 205 217
f 190 217 191
f 191 217 218
f 191 218 219
f 191 219 220
f 191 220 192
f 192 220 221
f 192 221 222
f 192 222 194
f 194 222 223
f 194 223 195
f 195 223 224
f 195 224 225
f 195 225 226
f 195 226 196
f 197 227 228
f 197 228 229
f 197 229 198
f 200 230 201
f 201 230 231
f 201 231 232
f 201 232 233
f 201 233 202
f 202 233 234
f 202 234 203
f 203 234 207
f 204 215 235
f 204 235 217
f 204 217 205
f 205 216 206
f 207 234 236
f 207 236 237
f 207 237 208
f 208 237 238
f 208 238 239
f 208 239 209
f 209 239 210
f 210 239 212
f 210 212 211
f 212 239 240
f 212 240 241
f 212 241 242
f 212 242 243
f 212 243 213
f 213 243 214
f 214 243 244
f 214 244 245
f 214 245 215
f 215 245 217
f 215 217 235
f 217 245 246
f 217 246 218
f 218 246 247
f 218 247 219
f 219 247 248
f 219 248 249
f 219 249 222
f 219 222 221
f 219 221 220
f 222 249 223
f 223 249 224
f 224 250 251
f 224 251 252
f 224 252 253
f 224 253 226
f 224 226 225
f 224 249 250
f 227 254 255
f 227 255 228
f 231 256 232
f 232 256 257
f 232 257 258
f 232 258 259
f 232 259 233
f 233 259 236
f 233 236 234
f 236 259 260
f 236 260 261
f 236 261 237
f 237 261 262
f 237 262 263
f 237 263 264
f 237 264 238
f 238 264 239
f 239 264 265
f 239 265 240
f 240 265 266
f 240 266 267
f 240 267 241
f 241 267 242
f 242 267 268
f 242 268 243
f 243 268 269
f 243 269 244
f 244 269 270
f 244 270 271
f 244 271 272
f 244 272 273
f 244 273 274
f 244 274 246
f 244 246 245
f 246 274 273
f 246 273 275
f 246 275 247
f 247 275 250
f 247 250 249
f 247 249 248
f 250 275 273
f 250 273 276
f 250 276 251
f 251 276 277
f 251 277 278
f 251 278 252
f 252 278 279
f 254 280 295
f 254 295 302
f 254 302 298
f 254 298 297
f 254 297 288
f 254 288 287
f 254 287 286
f 254 286 285
f 254 285 265
f 254 265 264
f 254 264 263
f 254 263 262
f 254 262 261
f 254 261 260
f 254 260 284
f 254 284 283
f 254 283 281
f 254 281 255
f 257 282 258
f 258 282 281
f 258 281 283
f 258 283 284
f 258 284 259
f 259 284 260
f 265 285 266
f 266 285 286
f 266 286 287
f 266 287 267
f 267 287 268
f 268 287 269
f 269 287 288
f 269 288 270
f 270 288 289
f 270 289 271
f 271 289 272
f 272 289 290
f 272 290 291
f 272 291 273
f 273 291 292
f 273 292 293
f 273 293 277
f 273 277 276
f 277 293 294
f 277 294 279
f 277 279 278
f 280 296 295
f 288 297 289
f 289 297 298
f 289 298 290
f 290 298 291
f 291 298 292
f 292 298 299
f 292 299 293
f 293 299 300
f 293 300 301
f 293 301 294
f 295 296 301
f 295 301 300
f 295 300 299
f 295 299 302
f 298 302 299

