# https://github.com/mikedh/trimesh
v -0.00593603 -0.00984727 0.14112328
v -0.00593603 -0.00984727 0.13689137
v -0.00593603 -0.00075967 0.13866122
v -0.02329695 -0.00984727 0.17223583
v -0.00646541 -0.00984727 0.13681280
v -0.00717677 -0.00508286 0.13488206
v -0.00593603 -0.00483023 0.13497935
v -0.00593603 -0.00075967 0.13412623
v -0.02762655 -0.00075967 0.17223583
v -0.02043025 -0.00402608 0.16411626
v -0.02233981 -0.00582919 0.16862131
v -0.02397286 -0.00723111 0.17223583
v -0.02368217 -0.00804683 0.17223583
v -0.02810630 -0.00984727 0.17223583
v -0.00662375 -0.00984727 0.13679783
v -0.00717677 -0.00922459 0.13648727
v -0.00883109 -0.00477241 0.13503547
v -0.00717677 -0.00307516 0.13427964
v -0.00593603 -0.00307516 0.13442931
v -0.00911469 -0.00984727 0.13700363
v -0.00593603 -0.00102564 0.13412623
v -0.00609673 -0.00075967 0.13411126
v -0.03007967 -0.00075967 0.17223583
v -0.02794796 -0.00984727 0.17164838
v -0.02823865 -0.00968804 0.17223583
v -0.03007967 -0.00677211 0.16853151
v -0.00717677 -0.00984727 0.13674919
v -0.00939829 -0.00322816 0.13481097
v -0.00934866 -0.00937492 0.13687641
v -0.00922576 -0.00717418 0.13602329
v -0.01075956 -0.00879227 0.13710840
v -0.01019709 -0.00401274 0.13533107
v -0.00922576 -0.00102564 0.13436944
v -0.00717677 -0.00102564 0.13401772
v -0.00980950 -0.00984727 0.13718697
v -0.00717677 -0.00075967 0.13401772
v -0.03007967 -0.00727114 0.17223583
v -0.03007967 -0.00075967 0.15739236
v -0.02781798 -0.00984727 0.17117317
v -0.03007494 -0.00741080 0.17223583
v -0.03007967 -0.00718575 0.17082894
v -0.03007967 -0.00438368 0.16098443
v -0.01047832 -0.00264639 0.13513650
v -0.01026326 -0.00984727 0.13732916
v -0.01061776 -0.00984727 0.13750876
v -0.01137638 -0.00937492 0.13768462
v -0.01212792 -0.00787693 0.13744515
v -0.01137638 -0.00718575 0.13688015
v -0.01244224 -0.00650969 0.13725806
v -0.00922576 -0.00075967 0.13436570
v -0.00744146 -0.00075967 0.13405514
v -0.01066266 -0.00102564 0.13499057
v -0.01066975 -0.00075967 0.13498309
v -0.00941956 -0.00075967 0.13444802
v -0.03007967 -0.00348613 0.15939793
v -0.01504898 -0.00075967 0.13828330
v -0.01500407 -0.00082460 0.13823466
v -0.01501116 -0.00307516 0.13864999
v -0.01791332 -0.00922459 0.14420647
v -0.01863885 -0.00922459 0.14523171
v -0.01853487 -0.00984727 0.14540757
v -0.02051296 -0.00984727 0.14960206
v -0.03007967 -0.00436144 0.16092456
v -0.01268093 -0.00512556 0.13710465
v -0.01298344 -0.00307516 0.13692131
v -0.01421236 -0.00137345 0.13745638
v -0.01135511 -0.00984727 0.13794280
v -0.01292436 -0.00984727 0.13901294
v -0.01328594 -0.00902978 0.13888572
v -0.01436125 -0.00821584 0.13939086
v -0.01370661 -0.00512556 0.13793906
v -0.01400912 -0.00307516 0.13762476
v -0.01427381 -0.00075967 0.13740773
v -0.01880901 -0.00984727 0.14595012
v -0.02036644 -0.00984727 0.14925408
v -0.01501353 -0.00075967 0.13823840
v -0.01495208 -0.00075967 0.13816357
v -0.01688764 -0.00922459 0.14291557
v -0.01671511 -0.00984727 0.14313634
v -0.01360026 -0.00984727 0.13970890
f 1 2 7
f 1 7 19
f 1 19 21
f 1 21 8
f 1 8 3
f 1 3 4
f 1 4 14
f 1 14 24
f 1 24 39
f 1 39 62
f 1 62 75
f 1 75 74
f 1 74 61
f 1 61 79
f 1 79 80
f 1 80 68
f 1 68 67
f 1 67 45
f 1 45 44
f 1 44 35
f 1 35 20
f 1 20 27
f 1 27 15
f 1 15 5
f 1 5 2
f 2 5 6
f 2 6 7
f 3 8 22
f 3 22 36
f 3 36 51
f 3 51 50
f 3 50 54
f 3 54 53
f 3 53 73
f 3 73 77
f 3 77 76
f 3 76 56
f 3 56 38
f 3 38 23
f 3 23 9
f 3 9 10
f 3 10 11
f 3 11 12
f 3 12 13
f 3 13 4
f 4 13 12
f 4 12 9
f 4 9 23
f 4 23 37
f 4 37 40
f 4 40 25
f 4 25 14
f 5 15 16
f 5 16 6
f 6 17 18
f 6 18 19
f 6 19 7
f 6 16 20
f 6 20 17
f 8 21 22
f 9 12 11
f 9 11 10
f 14 25 26
f 14 26 24
f 15 27 16
f 16 27 20
f 17 28 18
f 17 20 29
f 17 29 30
f 17 30 31
f 17 31 32
f 17 32 28
f 18 28 33
f 18 33 34
f 18 34 21
f 18 21 19
f 20 35 29
f 21 34 22
f 22 34 36
f 23 38 55
f 23 55 63
f 23 63 42
f 23 42 26
f 23 26 41
f 23 41 37
f 24 26 39
f 25 40 41
f 25 41 26
f 26 42 39
f 28 32 43
f 28 43 33
f 29 35 30
f 30 35 44
f 30 44 31
f 31 44 45
f 31 45 46
f 31 46 47
f 31 47 48
f 31 48 32
f 32 48 47
f 32 47 49
f 32 49 43
f 33 50 51
f 33 51 34
f 33 43 52
f 33 52 53
f 33 53 54
f 33 54 50
f 34 51 36
f 37 41 40
f 38 56 57
f 38 57 58
f 38 58 59
f 38 59 60
f 38 60 61
f 38 61 55
f 39 42 62
f 42 63 62
f 43 49 64
f 43 64 65
f 43 65 66
f 43 66 52
f 45 67 46
f 46 67 68
f 46 68 47
f 47 68 69
f 47 69 70
f 47 70 49
f 49 71 72
f 49 72 64
f 49 70 71
f 52 66 73
f 52 73 53
f 55 61 74
f 55 74 75
f 55 75 63
f 56 76 57
f 57 76 77
f 57 77 58
f 58 77 73
f 58 73 66
f 58 66 72
f 58 72 70
f 58 70 59
f 59 70 78
f 59 78 61
f 59 61 60
f 61 78 79
f 62 63 75
f 64 72 65
f 65 72 66
f 68 80 70
f 68 70 69
f 70 72 71
f 70 80 79
f 70 79 78

