# https://github.com/mikedh/trimesh
v -0.01130203 0.05937985 0.06059262
v -0.01187671 0.05937985 0.06058775
v -0.01662859 0.05779735 0.06063161
v -0.01504606 0.05779735 0.06061699
v -0.04829632 0.03563055 0.06071446
v -0.04987885 0.03335127 0.06066086
v -0.01130203 0.05837307 0.06052927
v -0.01130203 0.06003824 0.06047078
v -0.01346353 0.05937985 0.06056826
v -0.02613662 0.05462940 0.06062674
v -0.02929739 0.05304690 0.06064624
v -0.03562322 0.04830235 0.06072421
v -0.01821111 0.05779735 0.06060724
v -0.04037510 0.04513145 0.06072908
v -0.04671379 0.03879850 0.06069984
v -0.04829632 0.03721600 0.06067548
v -0.04987885 0.03404805 0.06067548
v -0.05057362 0.03335127 0.06064624
v -0.04899109 0.03335127 0.06061699
v -0.01130203 0.05779735 0.06046103
v -0.01130203 0.06092692 0.06028558
v -0.01979793 0.05779735 0.06053414
v -0.01187671 0.06082063 0.06029046
v -0.01346353 0.06063758 0.06026122
v -0.01504606 0.05937985 0.06049028
v -0.02771486 0.05462940 0.06054876
v -0.03562322 0.04987600 0.06063161
v -0.03720575 0.04830235 0.06069497
v -0.03879257 0.04671985 0.06072421
v -0.04195763 0.04513145 0.06058775
v -0.04354015 0.04354895 0.06058288
v -0.04512268 0.04196645 0.06056338
v -0.04671379 0.04038395 0.06052927
v -0.04829632 0.03879850 0.06047566
v -0.04987885 0.03563055 0.06061212
v -0.05146138 0.03335127 0.06052927
v -0.04827487 0.03335127 0.06047566
v -0.01130203 0.05715963 0.06027096
v -0.01130203 0.06138159 0.06015887
v -0.01979793 0.05901080 0.06024660
v -0.02138046 0.05779735 0.06040255
v -0.02454552 0.05621190 0.06048540
v -0.01130203 0.06168569 0.06005653
v -0.01504606 0.06044863 0.06020273
v -0.02614520 0.05629752 0.06030021
v -0.02771486 0.05585170 0.06024660
v -0.02935743 0.05472683 0.06032457
v -0.03087992 0.05304690 0.06052439
v -0.03404498 0.05146440 0.06048540
v -0.03556318 0.05147326 0.06028071
v -0.03733012 0.05000295 0.06036844
v -0.03879257 0.04830235 0.06052439
v -0.04037510 0.04671985 0.06057313
v -0.04190187 0.04667556 0.06028558
v -0.04350584 0.04509306 0.06029046
v -0.04507551 0.04348990 0.06028071
v -0.04664517 0.04187787 0.06025634
v -0.04819339 0.04023633 0.06021248
v -0.04941138 0.03879850 0.06019786
v -0.04996891 0.03728686 0.06035869
v -0.05146138 0.03553312 0.06026609
v -0.05219903 0.03335127 0.06038793
v -0.04747289 0.03335127 0.06028558
v -0.01130203 0.05684667 0.06016862
v -0.01662859 0.06026263 0.06012963
v -0.01743486 0.06017405 0.06008577
v -0.02138046 0.05875689 0.06015887
v -0.02454552 0.05732791 0.06020761
v -0.01346353 0.06142883 0.05991032
v -0.01187671 0.06161188 0.06002241
v -0.01130203 0.06256847 0.05924750
v -0.01176949 0.06264228 0.05910129
v -0.01346353 0.06230866 0.05912079
v -0.02562198 0.05711239 0.06013450
v -0.02887281 0.05559189 0.06016374
v -0.03087992 0.05427215 0.06024172
v -0.03197783 0.05399463 0.06015400
v -0.03498849 0.05233832 0.06012476
v -0.03688410 0.05095658 0.06020273
v -0.03879257 0.04950104 0.06022710
v -0.04027216 0.04822854 0.06025634
v -0.04133148 0.04765577 0.06015400
v -0.04294831 0.04611756 0.06016862
v -0.04451798 0.04454096 0.06016374
v -0.04606620 0.04292303 0.06015400
v -0.04760155 0.04128739 0.06013450
v -0.05092529 0.03680856 0.06019299
v -0.04909830 0.03961041 0.06009064
v -0.05231054 0.03493968 0.06011013
v -0.05257644 0.03404805 0.06019299
v -0.05282089 0.03335127 0.06023685
v -0.04715552 0.03335127 0.06018811
v -0.01130203 0.05633885 0.05984696
v -0.01504606 0.06123988 0.05975436
v -0.01848988 0.05999986 0.06000779
v -0.02223391 0.05860632 0.06009551
v -0.01504606 0.06212856 0.05896483
v -0.01130203 0.06289028 0.05895021
v -0.01130203 0.06319438 0.05865779
v -0.02329322 0.05838193 0.05999317
v -0.02667700 0.05687620 0.06003216
v -0.02993212 0.05532027 0.06004190
v -0.03303285 0.05368758 0.06001753
v -0.03603922 0.05201060 0.05992981
v -0.03793912 0.05062001 0.06006140
v -0.03968032 0.04916446 0.06012476
v -0.04239078 0.04717453 0.05983234
v -0.04400762 0.04559498 0.05985671
v -0.04557728 0.04398295 0.05983234
v -0.04712550 0.04234141 0.05979335
v -0.05055646 0.03786553 0.06002241
v -0.04866086 0.04066738 0.05971050
v -0.05198460 0.03599665 0.05989569
v -0.05358857 0.03335127 0.05992981
v -0.05333982 0.03335127 0.06007602
v -0.04679098 0.03335127 0.06002241
v -0.01130203 0.05605542 0.05962765
v -0.01979793 0.06072320 0.05908667
v -0.01979793 0.05980205 0.05988107
v -0.01130203 0.06334200 0.05846772
v -0.01662859 0.06194255 0.05875039
v -0.02138046 0.05955109 0.05965201
v -0.02454552 0.05811916 0.05980310
v -0.02771486 0.05664295 0.05986158
v -0.03087992 0.05506636 0.05986158
v -0.03203787 0.05562732 0.05876989
v -0.03404498 0.05339528 0.05975436
v -0.03404498 0.05423968 0.05896483
v -0.03501423 0.05394739 0.05865779
v -0.03685837 0.05256270 0.05887711
v -0.03879257 0.05108354 0.05896483
v -0.03879257 0.05029229 0.05975436
v -0.04073964 0.04870388 0.05977873
v -0.04188043 0.04822264 0.05928162
v -0.04299978 0.04773548 0.05877963
v -0.04350584 0.04667556 0.05931573
v -0.04459946 0.04618251 0.05879913
v -0.04508837 0.04509306 0.05931573
v -0.04615626 0.04459410 0.05877963
v -0.04664517 0.04348104 0.05928649
v -0.04769590 0.04297322 0.05873577
v -0.04817623 0.04182768 0.05922313
v -0.05019621 0.03879850 0.05965689
v -0.05098962 0.03879850 0.05886736
v -0.05252497 0.03678789 0.05883812
v -0.04920123 0.04131101 0.05865779
v -0.04968157 0.04013890 0.05911591
v -0.05422758 0.03404805 0.05894534
v -0.05337413 0.03404805 0.05973974
v -0.05442057 0.03335127 0.05915490
v -0.04641358 0.03335127 0.05981772
v -0.01130203 0.05545017 0.05912079
v -0.01766216 0.06181560 0.05858956
v -0.02138046 0.06046339 0.05885761
v -0.01130203 0.06337448 0.05831664
v -0.01222409 0.06323867 0.05805834
v -0.02454552 0.05905213 0.05901357
v -0.02771486 0.05753163 0.05906718
v -0.02895859 0.05722458 0.05878451
v -0.03087992 0.05594027 0.05906718
v -0.03001361 0.05696477 0.05802422
v -0.03307573 0.05531436 0.05770743
v -0.03969319 0.05074991 0.05861393
v -0.03404498 0.05471207 0.05770743
v -0.03514289 0.05402415 0.05770743
v -0.03592772 0.05352519 0.05770743
v -0.03711140 0.05273394 0.05770743
v -0.04021642 0.04974609 0.05919877
v -0.04136579 0.04927075 0.05872602
v -0.04315417 0.04788606 0.05770743
v -0.04394329 0.04713910 0.05770743
v -0.04476243 0.04634785 0.05770743
v -0.04556013 0.04555660 0.05770743
v -0.04631494 0.04476535 0.05770743
v -0.04711264 0.04391505 0.05770743
v -0.04782885 0.04312380 0.05770743
v -0.05068083 0.03960451 0.05851646
v -0.05392308 0.03497806 0.05863343
v -0.04862226 0.04222036 0.05770743
v -0.05497811 0.03335127 0.05807783
v -0.04587320 0.03335127 0.05946194
v -0.01130203 0.05511360 0.05883812
v -0.02245692 0.06027739 0.05864805
v -0.01504606 0.06265114 0.05770743
v -0.01662859 0.06227027 0.05770743
v -0.01798810 0.06191598 0.05770743
v -0.01878151 0.06169455 0.05770743
v -0.01979793 0.06138750 0.05770743
v -0.01130203 0.06351324 0.05763433
v -0.01176949 0.06342763 0.05760022
v -0.01273874 0.06335676 0.05700076
v -0.02576780 0.05877756 0.05874552
v -0.02682710 0.05854431 0.05800960
v -0.02941748 0.05730725 0.05758072
v -0.03009938 0.05700905 0.05697152
v -0.03072553 0.05662229 0.05758072
v -0.03228233 0.05576313 0.05770743
v -0.03009938 0.05700905 0.05690816
v -0.03169906 0.05384700 0.01876714
v -0.03376193 0.05257156 0.01812869
v -0.03790481 0.05218774 0.05770743
v -0.03879257 0.05153821 0.05770743
v -0.03977897 0.05081487 0.05770743
v -0.04056808 0.05018009 0.05770743
v -0.04150302 0.04938294 0.05770743
v -0.03455533 0.05207260 0.01812869
v -0.03562751 0.05135811 0.01812869
v -0.03651956 0.05074696 0.01812869
v -0.04092834 0.04728967 0.01812869
v -0.04176892 0.04650137 0.01812869
v -0.04256233 0.04574260 0.01812869
v -0.04336861 0.04494840 0.01812869
v -0.04415772 0.04416305 0.01812869
v -0.04492969 0.04337476 0.01812869
v -0.04572310 0.04255103 0.01812869
v -0.04646933 0.04176273 0.01812869
v -0.04725845 0.04091243 0.01812869
v -0.04929129 0.04142911 0.05770743
v -0.05008899 0.04044595 0.05770743
v -0.05071943 0.03965470 0.05770743
v -0.05135845 0.03879850 0.05770743
v -0.05210039 0.03779467 0.05770743
v -0.05267507 0.03700342 0.05770743
v -0.05346420 0.03587264 0.05770743
v -0.05399600 0.03508139 0.05770743
v -0.05466503 0.03404805 0.05770743
v -0.05511534 0.03335127 0.05770743
v -0.04794464 0.04012118 0.01812869
v -0.04533283 0.03335127 0.05908180
v -0.04447938 0.03335127 0.05832151
v -0.01130203 0.05470026 0.05808270
v -0.02138046 0.06087378 0.05770743
v -0.02271853 0.06038958 0.05770743
v -0.02350765 0.06007072 0.05770743
v -0.01273874 0.06335676 0.05687405
v -0.01793664 0.06191008 0.05659625
v -0.01821540 0.05957766 0.01812869
v -0.01979793 0.05906689 0.01812869
v -0.01130203 0.06349258 0.05653776
v -0.01187671 0.06344239 0.05666448
v -0.02454552 0.05960719 0.05770743
v -0.02693003 0.05859155 0.05695202
v -0.02756476 0.05822545 0.05757097
v -0.02693003 0.05859155 0.05691303
v -0.02862407 0.05548560 0.01812869
v -0.02941748 0.05505750 0.01812869
v -0.03101287 0.05418949 0.01819692
v -0.03162187 0.05380862 0.01771443
v -0.03231663 0.05343957 0.01819692
v -0.03362898 0.05248889 0.01654476
v -0.03442239 0.05199288 0.01654476
v -0.03731297 0.05015352 0.01812869
v -0.03836370 0.04936227 0.01812869
v -0.03915711 0.04875112 0.01812869
v -0.04013493 0.04796578 0.01812869
v -0.03645952 0.05069972 0.01712960
v -0.03999769 0.04785063 0.01654476
v -0.04078681 0.04716272 0.01654476
v -0.04163597 0.04636852 0.01654476
v -0.04242509 0.04561269 0.01654476
v -0.04323994 0.04481849 0.01654476
v -0.04402907 0.04404200 0.01654476
v -0.04480532 0.04325075 0.01654476
v -0.04559873 0.04242703 0.01654476
v -0.04635354 0.04163282 0.01654476
v -0.04714266 0.04077662 0.01654476
v -0.05071943 0.03966060 0.05683993
v -0.05134558 0.03563350 0.01812869
v -0.05208752 0.03458539 0.01812869
v -0.05256357 0.03379118 0.01812869
v -0.05282089 0.03335127 0.01816281
v -0.04782885 0.03998537 0.01654476
v -0.04873376 0.03913507 0.01812869
v -0.04444936 0.03335127 0.05827765
v -0.01130203 0.05451721 0.05770743
v -0.02091299 0.05869784 0.01812869
v -0.02170640 0.05842326 0.01812869
v -0.02296299 0.05795088 0.01812869
v -0.02539039 0.05702382 0.01866479
v -0.01130631 0.06119264 0.01812869
v -0.01188100 0.06108635 0.01812869
v -0.01346353 0.06075273 0.01812869
v -0.01504606 0.06040139 0.01812869
v -0.01594668 0.06019767 0.01812869
v -0.01674009 0.06000281 0.01812869
v -0.01821540 0.05941823 0.01654476
v -0.02073716 0.05863879 0.01696389
v -0.01130203 0.06335972 0.05625022
v -0.01130631 0.06006481 0.01287979
v -0.01130631 0.06020358 0.01326968
v -0.01130631 0.06032758 0.01364008
v -0.01130631 0.06072616 0.01496083
v -0.01130631 0.06103911 0.01654476
v -0.02600368 0.05671086 0.01813357
v -0.02771486 0.05592256 0.01812869
v -0.02854687 0.05544427 0.01719296
v -0.03070837 0.05417768 0.01654476
v -0.03150178 0.05373777 0.01654476
v -0.03246245 0.05317976 0.01654476
v -0.03344885 0.05237375 0.01535560
v -0.03635659 0.05062591 0.01607202
v -0.03574759 0.05111011 0.01657888
v -0.03823075 0.04926484 0.01654476
v -0.03901987 0.04864188 0.01654476
v -0.03707709 0.05015057 0.01657888
v -0.03809780 0.04916151 0.01551155
v -0.03974894 0.04764691 0.01496083
v -0.04054236 0.04694423 0.01496083
v -0.04140438 0.04615004 0.01496083
v -0.04219350 0.04539717 0.01496083
v -0.04302122 0.04460296 0.01496083
v -0.04381463 0.04383238 0.01496083
v -0.04460375 0.04303818 0.01496083
v -0.04539287 0.04220855 0.01496083
v -0.04614768 0.04141434 0.01496083
v -0.04694109 0.04054928 0.01496083
v -0.04764014 0.03976099 0.01496083
v -0.04933418 0.03834382 0.01812869
v -0.05012759 0.03728095 0.01812869
v -0.05067225 0.03643361 0.01730992
v -0.05107110 0.03571321 0.01668610
v -0.05195886 0.03438757 0.01654476
v -0.05245635 0.03359928 0.01654476
v -0.05274369 0.03335127 0.01760721
v -0.04913261 0.03807515 0.01560415
v -0.04861797 0.03899040 0.01654476
v -0.04923125 0.03819915 0.01654476
v -0.04418775 0.03335127 0.05767819
v -0.01130203 0.05423968 0.05671809
v -0.02296299 0.05776487 0.01654476
v -0.02528317 0.05698248 0.01761209
v -0.02467418 0.05727182 0.01813357
v -0.01188100 0.06093283 0.01654476
v -0.01583947 0.06017110 0.01733429
v -0.01647419 0.05993491 0.01670559
v -0.01663287 0.05955995 0.01496083
v -0.01821540 0.05909642 0.01496083
v -0.02052701 0.05856498 0.01590632
v -0.01991801 0.05884546 0.01648140
v -0.02131184 0.05836717 0.01648140
v -0.01130203 0.06310286 0.05574336
v -0.01663287 0.05868898 0.01242167
v -0.01743486 0.05858860 0.01258250
v -0.01188100 0.06000872 0.01303088
v -0.01188100 0.06029215 0.01382528
v -0.01130631 0.05947138 0.01184658
v -0.01188100 0.05933556 0.01179785
v -0.01504606 0.05887203 0.01212438
v -0.01188100 0.06061987 0.01496083
v -0.02780493 0.05571884 0.01661787
v -0.02839677 0.05536455 0.01613538
v -0.02916444 0.05502502 0.01661787
v -0.03029666 0.05440502 0.01656426
v -0.03039101 0.05400348 0.01496083
v -0.03118442 0.05356062 0.01496083
v -0.03258253 0.05273985 0.01488286
v -0.03318295 0.05221136 0.01429802
v -0.03400209 0.05187774 0.01488286
v -0.03534874 0.05102153 0.01496083
v -0.03614215 0.05046648 0.01496083
v -0.03729152 0.04960437 0.01498033
v -0.03787908 0.04899027 0.01446372
v -0.03869393 0.04850607 0.01498033
v -0.03959027 0.04750815 0.01416156
v -0.04123283 0.04598470 0.01402997
v -0.04284110 0.04442877 0.01397149
v -0.04442791 0.04285808 0.01396661
v -0.04598042 0.04124310 0.01402997
v -0.04751149 0.03960451 0.01414694
v -0.05009757 0.03706247 0.01668610
v -0.05057790 0.03629484 0.01625234
v -0.05096817 0.03526444 0.01496083
v -0.05233627 0.03339851 0.01545307
v -0.05259359 0.03335127 0.01654476
v -0.04953575 0.03727505 0.01502906
v -0.05040635 0.03605865 0.01496083
v -0.04896106 0.03784486 0.01454657
v -0.04405051 0.03335127 0.05734191
v -0.01130203 0.05408910 0.05615275
v -0.02431822 0.05723344 0.01654476
v -0.02403945 0.05711829 0.01533123
v -0.02511163 0.05691162 0.01654476
v -0.02612805 0.05647466 0.01654476
v -0.01447995 0.06022129 0.01556516
v -0.01346353 0.06059625 0.01654476
v -0.01502461 0.06027148 0.01670559
v -0.01553926 0.06010319 0.01627671
v -0.01502461 0.05995262 0.01500469
v -0.01383665 0.06008253 0.01450759
v -0.01663287 0.05906985 0.01338178
v -0.01806101 0.05870670 0.01351824
v -0.01904312 0.05859746 0.01413719
v -0.02017534 0.05845279 0.01496083
v -0.02138046 0.05803059 0.01496083
v -0.01130203 0.06230866 0.05495384
v -0.01130631 0.05887203 0.01094009
v -0.01504606 0.05837012 0.01133485
v -0.01663287 0.05817526 0.01162727
v -0.01819396 0.05726296 0.01094009
v -0.01893162 0.05705039 0.01094009
v -0.01905599 0.05701200 0.01094009
v -0.02013674 0.05685258 0.01122763
v -0.01968643 0.05733972 0.01176861
v -0.02138046 0.05714191 0.01235831
v -0.02217387 0.05700315 0.01258738
v -0.01966069 0.05818412 0.01351824
v -0.01504606 0.05944185 0.01338178
v -0.01278163 0.06019177 0.01410307
v -0.01188100 0.05877460 0.01094009
v -0.01338633 0.05896946 0.01171500
v -0.01263581 0.05863289 0.01094009
v -0.01280736 0.05861517 0.01096446
v -0.01386238 0.05850298 0.01113016
v -0.01336918 0.06031282 0.01500469
v -0.02731602 0.05560960 0.01496083
v -0.02810514 0.05521989 0.01496083
v -0.02929739 0.05459397 0.01496083
v -0.03014656 0.05386767 0.01408845
v -0.03210220 0.05250070 0.01338178
v -0.03289561 0.05202831 0.01338178
v -0.03476119 0.05062001 0.01270434
v -0.03505711 0.05081782 0.01376192
v -0.03560178 0.05024800 0.01328918
v -0.03681119 0.04938589 0.01338178
v -0.03760460 0.04877474 0.01338178
v -0.03878828 0.04789196 0.01353286
v -0.03931579 0.04728672 0.01310398
v -0.04028932 0.04663719 0.01357185
v -0.04098409 0.04575146 0.01297726
v -0.04259235 0.04418963 0.01291878
v -0.04351442 0.04352238 0.01344026
v -0.04417917 0.04260122 0.01290903
v -0.04574454 0.04098919 0.01297726
v -0.04663230 0.04029833 0.01355723
v -0.04728419 0.03933289 0.01308936
v -0.04787174 0.03880440 0.01352311
v -0.04875092 0.03755553 0.01338178
v -0.05078805 0.03500758 0.01387889
v -0.05181733 0.03397719 0.01494134
v -0.05231054 0.03335127 0.01526787
v -0.05235342 0.03335127 0.01542870
v -0.05209181 0.03335127 0.01453683
v -0.04932989 0.03676132 0.01338178
v -0.04392185 0.03335127 0.05689841
v -0.01130203 0.05389129 0.05496358
v -0.02307879 0.05736925 0.01486823
v -0.02368349 0.05697362 0.01427852
v -0.02455839 0.05677286 0.01486823
v -0.02612805 0.05613809 0.01496083
v -0.02138046 0.05755525 0.01338178
v -0.01130203 0.05783573 0.05120114
v -0.01130631 0.05380272 0.01094009
v -0.01502890 0.05808964 0.01094009
v -0.01663287 0.05769697 0.01094009
v -0.02003381 0.05666952 0.01094009
v -0.02138046 0.05617352 0.01094009
v -0.02266707 0.05568932 0.01094009
v -0.02138046 0.05662524 0.01156391
v -0.02367491 0.05538817 0.01105218
v -0.02454552 0.05572770 0.01211463
v -0.02555336 0.05551513 0.01244117
v -0.02454552 0.05630933 0.01338178
v -0.02330609 0.05682305 0.01338178
v -0.02251268 0.05713601 0.01338178
v -0.01282880 0.05859155 0.01094009
v -0.01375087 0.05838488 0.01094009
v -0.02703296 0.05547084 0.01402997
v -0.02927595 0.05411567 0.01348900
v -0.02978630 0.05366691 0.01303088
v -0.03075984 0.05329785 0.01348900
v -0.03179342 0.05231765 0.01248503
v -0.03370617 0.05094182 0.01220723
v -0.03415649 0.05030115 0.01172474
v -0.03553316 0.04947446 0.01187583
v -0.03654100 0.04917627 0.01246066
v -0.03826077 0.04771777 0.01230958
v -0.03992907 0.04622975 0.01218774
v -0.04154162 0.04469449 0.01214875
v -0.04312844 0.04313856 0.01213413
v -0.04468952 0.04154721 0.01214875
v -0.04622916 0.03993518 0.01219261
v -0.04770448 0.03827592 0.01229983
v -0.04914977 0.03651332 0.01249478
v -0.05056933 0.03470053 0.01282131
v -0.05116974 0.03412481 0.01336228
v -0.05166294 0.03335127 0.01337203
v -0.04373315 0.03335127 0.05612351
v -0.01130203 0.05382043 0.05448597
v -0.02610231 0.05567455 0.01345488
v -0.01130203 0.05361377 0.05120114
v -0.04396902 0.03335127 0.01094009
v -0.01130631 0.05361671 0.04978779
v -0.04347582 0.03335127 0.05137659
v -0.02359772 0.05533503 0.01094009
v -0.02690001 0.05388244 0.01094009
v -0.02698150 0.05386472 0.01096446
v -0.02454552 0.05520217 0.01132023
v -0.02873129 0.05395625 0.01240218
v -0.02660409 0.05527303 0.01297239
v -0.02759478 0.05415406 0.01184658
v -0.02762051 0.05495712 0.01345488
v -0.03088421 0.05257156 0.01211463
v -0.03029666 0.05233832 0.01131048
v -0.03088421 0.05201060 0.01132511
v -0.03243243 0.05143783 0.01181734
v -0.03307145 0.05055505 0.01114966
v -0.03495418 0.04917036 0.01094009
v -0.03599634 0.04876588 0.01140308
v -0.03714142 0.04824330 0.01185633
v -0.03774184 0.04729557 0.01125200
v -0.03945303 0.04581050 0.01113016
v -0.04050805 0.04525250 0.01164189
v -0.04108273 0.04426048 0.01109117
v -0.04211202 0.04369952 0.01161265
v -0.04268241 0.04269274 0.01107655
v -0.04369026 0.04211998 0.01161265
v -0.04425208 0.04109253 0.01109604
v -0.04524706 0.04051386 0.01164189
v -0.04580459 0.03946279 0.01113503
v -0.04676954 0.03887231 0.01171987
v -0.04730563 0.03775039 0.01125200
v -0.04822770 0.03713038 0.01187095
v -0.04875521 0.03596417 0.01143720
v -0.04913690 0.03489834 0.01094009
v -0.04940709 0.03551540 0.01190019
v -0.05024339 0.03412481 0.01173449
v -0.05092100 0.03364356 0.01222185
v -0.05104108 0.03335127 0.01213413
v -0.04354015 0.03335127 0.05454445
v -0.01130203 0.05371710 0.05356485
v -0.01130203 0.05377024 0.05413019
v -0.01130203 0.05361377 0.05137659
v -0.04347154 0.03335127 0.05296052
v -0.05010615 0.03335127 0.01094009
v -0.02700294 0.05383520 0.01094009
v -0.03007794 0.05224974 0.01101319
v -0.02803652 0.05358719 0.01134947
v -0.03003076 0.05222022 0.01094009
v -0.03297710 0.05043400 0.01094009
v -0.03675115 0.04779453 0.01094009
v -0.03759173 0.04713319 0.01094009
v -0.03935868 0.04571012 0.01094009
v -0.04100553 0.04418667 0.01094009
v -0.04261379 0.04262189 0.01094009
v -0.04417488 0.04101577 0.01094009
v -0.04570166 0.03936831 0.01094009
v -0.04639214 0.03853868 0.01094009
v -0.04713837 0.03760572 0.01094009
v -0.04777738 0.03675837 0.01094009
v -0.05010186 0.03336308 0.01094009
v -0.05045782 0.03335127 0.01132511
v -0.05073658 0.03335127 0.01169550
v -0.01130203 0.05364329 0.05222460
v -0.01130203 0.05367281 0.05296052
f 1 2 3
f 1 3 4
f 1 4 5
f 1 5 6
f 1 6 7
f 1 7 20
f 1 20 38
f 1 38 64
f 1 64 93
f 1 93 117
f 1 117 152
f 1 152 182
f 1 182 231
f 1 231 275
f 1 275 329
f 1 329 379
f 1 379 445
f 1 445 488
f 1 488 531
f 1 531 530
f 1 530 554
f 1 554 553
f 1 553 532
f 1 532 490
f 1 490 451
f 1 451 395
f 1 395 341
f 1 341 288
f 1 288 239
f 1 239 189
f 1 189 155
f 1 155 120
f 1 120 99
f 1 99 98
f 1 98 71
f 1 71 43
f 1 43 39
f 1 39 21
f 1 21 8
f 1 8 2
f 2 8 9
f 2 9 3
f 3 10 11
f 3 11 12
f 3 12 4
f 3 9 13
f 3 13 10
f 4 12 5
f 5 12 14
f 5 14 15
f 5 15 16
f 5 16 17
f 5 17 6
f 6 17 18
f 6 18 36
f 6 36 62
f 6 62 91
f 6 91 115
f 6 115 114
f 6 114 150
f 6 150 180
f 6 180 227
f 6 227 271
f 6 271 324
f 6 324 374
f 6 374 441
f 6 441 440
f 6 440 442
f 6 442 486
f 6 486 528
f 6 528 552
f 6 552 551
f 6 551 534
f 6 534 491
f 6 491 493
f 6 493 533
f 6 533 529
f 6 529 487
f 6 487 444
f 6 444 378
f 6 378 328
f 6 328 274
f 6 274 230
f 6 230 229
f 6 229 181
f 6 181 151
f 6 151 116
f 6 116 92
f 6 92 63
f 6 63 37
f 6 37 19
f 6 19 7
f 7 19 20
f 8 21 9
f 9 22 13
f 9 21 23
f 9 23 24
f 9 24 25
f 9 25 22
f 10 13 22
f 10 22 26
f 10 26 11
f 11 26 27
f 11 27 28
f 11 28 12
f 12 28 29
f 12 29 14
f 14 29 30
f 14 30 31
f 14 31 15
f 15 31 32
f 15 32 16
f 16 32 33
f 16 33 34
f 16 34 35
f 16 35 17
f 17 35 18
f 18 35 36
f 19 37 20
f 20 37 38
f 21 39 23
f 22 25 40
f 22 40 41
f 22 41 42
f 22 42 26
f 23 39 24
f 24 39 43
f 24 43 44
f 24 44 25
f 25 44 40
f 26 42 45
f 26 45 46
f 26 46 47
f 26 47 48
f 26 48 27
f 27 48 49
f 27 49 50
f 27 50 51
f 27 51 52
f 27 52 28
f 28 52 53
f 28 53 29
f 29 53 30
f 30 53 54
f 30 54 55
f 30 55 31
f 31 55 56
f 31 56 32
f 32 56 33
f 33 56 57
f 33 57 34
f 34 57 58
f 34 58 59
f 34 59 60
f 34 60 35
f 35 60 61
f 35 61 62
f 35 62 36
f 37 63 64
f 37 64 38
f 40 44 65
f 40 65 66
f 40 66 67
f 40 67 41
f 41 67 68
f 41 68 42
f 42 68 45
f 43 69 70
f 43 70 66
f 43 66 65
f 43 65 44
f 43 71 72
f 43 72 73
f 43 73 69
f 45 68 46
f 46 68 74
f 46 74 75
f 46 75 47
f 47 75 76
f 47 76 48
f 48 76 49
f 49 76 50
f 50 76 77
f 50 77 78
f 50 78 79
f 50 79 51
f 51 79 80
f 51 80 52
f 52 80 81
f 52 81 53
f 53 81 54
f 54 81 82
f 54 82 83
f 54 83 55
f 55 83 84
f 55 84 56
f 56 84 85
f 56 85 57
f 57 85 86
f 57 86 58
f 58 86 59
f 59 87 60
f 59 86 88
f 59 88 87
f 60 87 61
f 61 87 89
f 61 89 90
f 61 90 91
f 61 91 62
f 63 92 64
f 64 92 93
f 66 70 69
f 66 69 94
f 66 94 95
f 66 95 67
f 67 95 96
f 67 96 68
f 68 96 74
f 69 73 97
f 69 97 94
f 71 98 72
f 72 98 73
f 73 98 99
f 73 99 97
f 74 96 100
f 74 100 101
f 74 101 75
f 75 101 102
f 75 102 77
f 75 77 76
f 77 102 103
f 77 103 78
f 78 103 104
f 78 104 105
f 78 105 79
f 79 105 80
f 80 105 106
f 80 106 81
f 81 106 82
f 82 106 107
f 82 107 83
f 83 107 108
f 83 108 84
f 84 108 109
f 84 109 85
f 85 109 86
f 86 109 110
f 86 110 88
f 87 88 111
f 87 111 89
f 88 110 112
f 88 112 111
f 89 111 113
f 89 113 114
f 89 114 115
f 89 115 90
f 90 115 91
f 92 116 93
f 93 116 117
f 94 97 118
f 94 118 119
f 94 119 95
f 95 119 96
f 96 119 100
f 97 99 120
f 97 120 121
f 97 121 118
f 100 119 122
f 100 122 123
f 100 123 101
f 101 123 124
f 101 124 102
f 102 124 125
f 102 125 103
f 103 125 126
f 103 126 127
f 103 127 104
f 104 127 128
f 104 128 129
f 104 129 130
f 104 130 105
f 105 130 131
f 105 131 132
f 105 132 106
f 106 132 133
f 106 133 107
f 107 133 134
f 107 134 135
f 107 135 136
f 107 136 108
f 108 136 137
f 108 137 138
f 108 138 109
f 109 138 139
f 109 139 140
f 109 140 110
f 110 140 141
f 110 141 142
f 110 142 112
f 111 112 143
f 111 143 144
f 111 144 145
f 111 145 113
f 112 142 146
f 112 146 147
f 112 147 143
f 113 145 148
f 113 148 149
f 113 149 114
f 114 149 148
f 114 148 150
f 116 151 117
f 117 151 152
f 118 122 119
f 118 121 153
f 118 153 154
f 118 154 122
f 120 155 156
f 120 156 153
f 120 153 121
f 122 154 157
f 122 157 123
f 123 157 124
f 124 157 158
f 124 158 125
f 125 158 159
f 125 159 160
f 125 160 126
f 126 159 161
f 126 161 162
f 126 162 129
f 126 129 128
f 126 128 127
f 126 160 159
f 129 163 130
f 129 162 164
f 129 164 165
f 129 165 166
f 129 166 167
f 129 167 163
f 130 163 131
f 131 163 132
f 132 163 168
f 132 168 133
f 133 168 169
f 133 169 134
f 134 169 135
f 135 169 170
f 135 170 171
f 135 171 172
f 135 172 137
f 135 137 136
f 137 139 138
f 137 172 173
f 137 173 139
f 139 141 140
f 139 173 174
f 139 174 141
f 141 146 142
f 141 174 175
f 141 175 176
f 141 176 146
f 143 147 144
f 144 146 177
f 144 177 145
f 144 147 146
f 145 177 178
f 145 178 148
f 146 176 179
f 146 179 177
f 148 178 180
f 148 180 150
f 151 181 182
f 151 182 152
f 153 183 154
f 153 156 184
f 153 184 185
f 153 185 186
f 153 186 187
f 153 187 188
f 153 188 183
f 154 183 157
f 155 189 190
f 155 190 191
f 155 191 156
f 156 191 184
f 157 183 192
f 157 192 158
f 158 192 159
f 159 192 193
f 159 193 161
f 161 193 194
f 161 194 195
f 161 195 196
f 161 196 197
f 161 197 162
f 162 197 195
f 162 195 198
f 162 198 199
f 162 199 200
f 162 200 164
f 163 169 168
f 163 167 201
f 163 201 202
f 163 202 203
f 163 203 204
f 163 204 205
f 163 205 169
f 164 200 165
f 165 200 206
f 165 206 166
f 166 206 207
f 166 207 167
f 167 207 208
f 167 208 201
f 169 205 170
f 170 205 209
f 170 209 210
f 170 210 171
f 171 210 211
f 171 211 172
f 172 211 212
f 172 212 173
f 173 212 213
f 173 213 214
f 173 214 215
f 173 215 174
f 174 215 216
f 174 216 175
f 175 216 217
f 175 217 176
f 176 217 179
f 177 179 218
f 177 218 219
f 177 219 220
f 177 220 221
f 177 221 222
f 177 222 223
f 177 223 178
f 178 223 224
f 178 224 225
f 178 225 226
f 178 226 227
f 178 227 180
f 179 217 228
f 179 228 218
f 181 229 182
f 182 230 231
f 182 229 230
f 183 188 232
f 183 232 233
f 183 233 234
f 183 234 193
f 183 193 192
f 184 191 185
f 185 191 186
f 186 191 235
f 186 235 236
f 186 236 187
f 187 236 188
f 188 236 237
f 188 237 238
f 188 238 232
f 189 191 190
f 189 239 240
f 189 240 235
f 189 235 191
f 193 234 241
f 193 241 242
f 193 242 243
f 193 243 194
f 194 243 242
f 194 242 195
f 195 242 244
f 195 244 198
f 195 197 196
f 198 244 245
f 198 245 246
f 198 246 247
f 198 247 199
f 199 247 248
f 199 248 249
f 199 249 200
f 200 249 248
f 200 248 250
f 200 250 251
f 200 251 206
f 201 208 202
f 202 208 203
f 203 208 252
f 203 252 253
f 203 253 254
f 203 254 255
f 203 255 204
f 204 255 209
f 204 209 205
f 206 251 256
f 206 256 207
f 207 256 208
f 208 256 252
f 209 255 257
f 209 257 258
f 209 258 259
f 209 259 210
f 210 259 211
f 211 259 260
f 211 260 261
f 211 261 262
f 211 262 212
f 212 262 213
f 213 262 263
f 213 263 214
f 214 263 264
f 214 264 215
f 215 264 265
f 215 265 216
f 216 265 217
f 217 265 266
f 217 266 272
f 217 272 228
f 218 228 267
f 218 267 219
f 219 267 220
f 220 267 221
f 221 267 222
f 222 267 223
f 223 267 268
f 223 268 269
f 223 269 224
f 224 269 225
f 225 269 226
f 226 269 227
f 227 269 270
f 227 270 271
f 228 272 273
f 228 273 267
f 230 274 275
f 230 275 231
f 232 238 276
f 232 276 277
f 232 277 233
f 233 277 278
f 233 278 279
f 233 279 234
f 234 244 242
f 234 242 241
f 234 279 244
f 235 240 280
f 235 280 281
f 235 281 282
f 235 282 283
f 235 283 284
f 235 284 285
f 235 285 236
f 236 285 237
f 237 285 286
f 237 286 238
f 238 286 287
f 238 287 276
f 239 288 289
f 239 289 290
f 239 290 291
f 239 291 292
f 239 292 293
f 239 293 280
f 239 280 240
f 244 279 294
f 244 294 295
f 244 295 245
f 245 295 296
f 245 296 246
f 246 296 247
f 247 296 248
f 248 296 297
f 248 297 298
f 248 298 299
f 248 299 250
f 250 300 251
f 250 299 300
f 251 300 301
f 251 301 302
f 251 302 256
f 252 256 253
f 253 256 303
f 253 303 254
f 254 303 304
f 254 304 255
f 255 304 257
f 256 302 301
f 256 301 305
f 256 305 303
f 257 304 306
f 257 306 307
f 257 307 258
f 258 307 308
f 258 308 309
f 258 309 259
f 259 309 310
f 259 310 260
f 260 310 311
f 260 311 312
f 260 312 261
f 261 312 262
f 262 312 313
f 262 313 263
f 263 313 264
f 264 313 314
f 264 314 315
f 264 315 265
f 265 315 266
f 266 315 316
f 266 316 317
f 266 317 272
f 267 273 318
f 267 318 319
f 267 319 268
f 268 319 320
f 268 320 269
f 269 320 321
f 269 321 322
f 269 322 323
f 269 323 270
f 270 323 271
f 271 323 324
f 272 317 325
f 272 325 326
f 272 326 273
f 273 326 327
f 273 327 318
f 274 328 275
f 275 328 329
f 276 287 277
f 277 287 330
f 277 330 278
f 278 330 331
f 278 331 332
f 278 332 279
f 279 332 331
f 279 331 294
f 280 293 333
f 280 333 281
f 281 333 282
f 282 333 334
f 282 334 283
f 283 334 284
f 284 334 285
f 285 334 335
f 285 335 286
f 286 335 336
f 286 336 337
f 286 337 338
f 286 338 339
f 286 339 287
f 287 339 338
f 287 338 340
f 287 340 330
f 288 341 289
f 289 342 343
f 289 343 344
f 289 344 345
f 289 345 290
f 289 341 346
f 289 346 347
f 289 347 348
f 289 348 342
f 290 345 291
f 291 345 292
f 292 345 349
f 292 349 333
f 292 333 293
f 294 331 296
f 294 296 295
f 296 331 350
f 296 350 351
f 296 351 352
f 296 352 353
f 296 353 297
f 297 353 351
f 297 351 354
f 297 354 298
f 298 354 355
f 298 355 300
f 298 300 299
f 300 355 356
f 300 356 357
f 300 357 358
f 300 358 359
f 300 359 301
f 301 303 305
f 301 359 360
f 301 360 306
f 301 306 303
f 303 306 304
f 306 360 361
f 306 361 362
f 306 362 363
f 306 363 307
f 307 363 364
f 307 364 308
f 308 364 365
f 308 365 309
f 309 365 310
f 310 365 366
f 310 366 311
f 311 366 312
f 312 366 367
f 312 367 313
f 313 367 314
f 314 367 315
f 315 367 368
f 315 368 316
f 316 368 369
f 316 369 317
f 317 369 325
f 318 327 320
f 318 320 319
f 320 370 371
f 320 371 321
f 320 327 370
f 321 371 322
f 322 371 372
f 322 372 373
f 322 373 323
f 323 374 324
f 323 373 374
f 325 375 376
f 325 376 371
f 325 371 327
f 325 327 326
f 325 369 377
f 325 377 375
f 327 371 370
f 328 378 379
f 328 379 329
f 330 380 331
f 330 340 338
f 330 338 381
f 330 381 380
f 331 380 382
f 331 382 383
f 331 383 350
f 333 349 384
f 333 384 385
f 333 385 334
f 334 385 386
f 334 386 387
f 334 387 335
f 335 387 336
f 336 387 384
f 336 384 388
f 336 388 389
f 336 389 390
f 336 390 391
f 336 391 337
f 337 391 392
f 337 392 393
f 337 393 338
f 338 393 394
f 338 394 381
f 341 395 396
f 341 396 346
f 342 348 397
f 342 397 398
f 342 398 343
f 343 398 399
f 343 399 400
f 343 400 401
f 343 401 402
f 343 402 403
f 343 403 404
f 343 404 405
f 343 405 406
f 343 406 391
f 343 391 390
f 343 390 407
f 343 407 344
f 344 407 345
f 345 407 408
f 345 408 349
f 346 396 409
f 346 409 347
f 347 410 348
f 347 409 411
f 347 411 412
f 347 412 413
f 347 413 410
f 348 410 413
f 348 413 397
f 349 414 384
f 349 408 389
f 349 389 414
f 350 383 351
f 351 415 416
f 351 416 417
f 351 417 354
f 351 353 352
f 351 383 415
f 354 417 418
f 354 418 355
f 355 418 357
f 355 357 356
f 357 418 419
f 357 419 420
f 357 420 421
f 357 421 422
f 357 422 358
f 358 422 359
f 359 422 360
f 360 422 423
f 360 423 424
f 360 424 362
f 360 362 361
f 362 424 425
f 362 425 364
f 362 364 363
f 364 425 426
f 364 426 427
f 364 427 428
f 364 428 365
f 365 428 429
f 365 429 366
f 366 429 430
f 366 430 431
f 366 431 367
f 367 431 432
f 367 432 433
f 367 433 368
f 368 433 434
f 368 434 369
f 369 434 435
f 369 435 436
f 369 436 437
f 369 437 377
f 371 376 372
f 372 376 438
f 372 438 439
f 372 439 373
f 373 440 441
f 373 441 374
f 373 439 442
f 373 442 440
f 375 377 376
f 376 377 438
f 377 437 443
f 377 443 438
f 378 444 379
f 379 444 445
f 380 381 382
f 381 394 446
f 381 446 447
f 381 447 448
f 381 448 449
f 381 449 383
f 381 383 382
f 383 449 415
f 384 414 389
f 384 389 388
f 384 387 385
f 385 387 386
f 389 408 407
f 389 407 390
f 391 406 392
f 392 406 450
f 392 450 393
f 393 450 394
f 394 450 447
f 394 447 446
f 395 451 396
f 396 452 491
f 396 491 534
f 396 534 550
f 396 550 524
f 396 524 549
f 396 549 548
f 396 548 547
f 396 547 546
f 396 546 545
f 396 545 544
f 396 544 543
f 396 543 542
f 396 542 541
f 396 541 540
f 396 540 507
f 396 507 539
f 396 539 538
f 396 538 535
f 396 535 495
f 396 495 494
f 396 494 457
f 396 457 456
f 396 456 455
f 396 455 401
f 396 401 400
f 396 400 399
f 396 399 454
f 396 454 453
f 396 453 466
f 396 466 465
f 396 465 411
f 396 411 409
f 396 451 490
f 396 490 452
f 397 413 453
f 397 453 454
f 397 454 398
f 398 454 399
f 401 455 402
f 402 455 456
f 402 456 457
f 402 457 458
f 402 458 404
f 402 404 403
f 404 458 405
f 405 458 459
f 405 459 460
f 405 460 461
f 405 461 462
f 405 462 463
f 405 463 464
f 405 464 450
f 405 450 406
f 411 465 412
f 412 465 466
f 412 466 413
f 413 466 453
f 415 449 467
f 415 467 416
f 416 467 418
f 416 418 417
f 418 467 468
f 418 468 469
f 418 469 470
f 418 470 419
f 419 470 469
f 419 469 471
f 419 471 420
f 420 471 421
f 421 471 472
f 421 472 473
f 421 473 474
f 421 474 475
f 421 475 424
f 421 424 423
f 421 423 422
f 424 475 425
f 425 475 427
f 425 427 426
f 427 475 476
f 427 476 477
f 427 477 429
f 427 429 428
f 429 477 478
f 429 478 430
f 430 478 479
f 430 479 432
f 430 432 431
f 432 479 480
f 432 480 433
f 433 480 481
f 433 481 435
f 433 435 434
f 435 481 482
f 435 482 483
f 435 483 436
f 436 483 437
f 437 483 443
f 438 442 439
f 438 443 483
f 438 483 484
f 438 484 485
f 438 485 442
f 442 485 486
f 444 487 445
f 445 487 488
f 447 467 449
f 447 449 448
f 447 450 464
f 447 464 463
f 447 463 462
f 447 462 489
f 447 489 467
f 452 490 492
f 452 492 493
f 452 493 491
f 457 494 459
f 457 459 458
f 459 494 495
f 459 495 496
f 459 496 497
f 459 497 460
f 460 497 461
f 461 498 499
f 461 499 489
f 461 489 462
f 461 497 496
f 461 496 500
f 461 500 498
f 467 489 499
f 467 499 501
f 467 501 468
f 468 501 469
f 469 498 471
f 469 501 498
f 471 498 502
f 471 502 503
f 471 503 504
f 471 504 505
f 471 505 472
f 472 505 506
f 472 506 473
f 473 506 507
f 473 507 474
f 474 507 508
f 474 508 475
f 475 508 509
f 475 509 476
f 476 509 510
f 476 510 511
f 476 511 477
f 477 512 478
f 477 511 512
f 478 512 513
f 478 513 514
f 478 514 479
f 479 514 515
f 479 515 516
f 479 516 480
f 480 516 517
f 480 517 518
f 480 518 481
f 481 518 519
f 481 519 520
f 481 520 482
f 482 520 521
f 482 521 522
f 482 522 483
f 483 522 523
f 483 523 524
f 483 524 525
f 483 525 526
f 483 526 527
f 483 527 484
f 484 527 486
f 484 486 485
f 486 527 528
f 487 529 530
f 487 530 531
f 487 531 488
f 490 532 533
f 490 533 493
f 490 493 492
f 495 535 496
f 496 536 537
f 496 537 498
f 496 498 500
f 496 535 536
f 498 501 499
f 498 537 536
f 498 536 503
f 498 503 502
f 503 536 504
f 504 536 506
f 504 506 505
f 506 536 538
f 506 538 539
f 506 539 507
f 507 540 508
f 508 540 510
f 508 510 509
f 510 540 541
f 510 541 511
f 511 541 542
f 511 542 543
f 511 543 513
f 511 513 512
f 513 543 515
f 513 515 514
f 515 543 544
f 515 544 545
f 515 545 517
f 515 517 516
f 517 545 519
f 517 519 518
f 519 521 520
f 519 545 546
f 519 546 547
f 519 547 521
f 521 547 548
f 521 548 549
f 521 549 524
f 521 524 523
f 521 523 522
f 524 550 551
f 524 551 552
f 524 552 526
f 524 526 525
f 526 552 527
f 527 552 528
f 529 533 532
f 529 532 553
f 529 553 554
f 529 554 530
f 534 551 550
f 535 538 536

