# https://github.com/mikedh/trimesh
v -0.00922525 0.01198557 0.17322535
v -0.00784115 0.01218619 0.17322535
v -0.00762028 0.01214874 0.17527570
v -0.00922525 0.01199092 0.17527570
v -0.01065239 0.01210059 0.17322535
v -0.01032166 0.01207652 0.17166036
v -0.00922525 0.01204710 0.17166036
v -0.00889905 0.01209391 0.17166036
v -0.00803257 0.01224370 0.17166036
v -0.00659523 0.01242693 0.17527570
v -0.00593716 0.01260883 0.17619433
v -0.00593716 0.01265831 0.17737577
v -0.00776526 0.01220224 0.17684069
v -0.01056971 0.01214339 0.17527570
v -0.00922525 0.01216479 0.17700642
v -0.01750721 0.01418167 0.19584549
v -0.01065806 0.01210461 0.17166036
v -0.00700752 0.01263825 0.17166036
v -0.00681610 0.01253259 0.17322535
v -0.00593716 0.01266233 0.17527570
v -0.00593716 0.01283887 0.17859035
v -0.00711965 0.01240286 0.17744443
v -0.00593716 0.01981235 0.19584549
v -0.01750721 0.02121936 0.19584549
v -0.01750721 0.01418435 0.19581471
v -0.00593716 0.01308229 0.17937640
v -0.01750721 0.01418836 0.19577447
v -0.01168197 0.01278136 0.17166036
v -0.00660882 0.01280276 0.17166036
v -0.00593716 0.01275193 0.17429314
v -0.00593716 0.02563295 0.19584549
v -0.01737582 0.02137985 0.19584549
v -0.01750721 0.02190547 0.17527570
v -0.01750721 0.01801883 0.17166036
v -0.00593716 0.01313043 0.17166036
v -0.00593716 0.01299936 0.17237064
v -0.00722499 0.02564900 0.19584549
v -0.00593716 0.02270126 0.18615013
v -0.01537442 0.02146946 0.17166036
v -0.01585693 0.02158716 0.17166036
v -0.01742452 0.02194158 0.17166036
v -0.01614123 0.02265177 0.19584549
v -0.01750721 0.02195763 0.17330822
v -0.01750721 0.02193757 0.17166036
v -0.00593716 0.01806564 0.17166036
v -0.00887073 0.02537616 0.19584549
v -0.01479337 0.02326967 0.19584549
v -0.01750721 0.02195897 0.17322535
v -0.01750721 0.02193891 0.17172192
v -0.01032166 0.02494283 0.19584549
f 1 2 3
f 1 3 4
f 1 4 5
f 1 5 6
f 1 6 7
f 1 7 8
f 1 8 2
f 2 8 9
f 2 9 10
f 2 10 3
f 3 10 11
f 3 11 12
f 3 12 13
f 3 13 4
f 4 14 5
f 4 13 15
f 4 15 16
f 4 16 14
f 5 17 6
f 5 14 16
f 5 16 17
f 6 17 28
f 6 28 34
f 6 34 44
f 6 44 41
f 6 41 40
f 6 40 39
f 6 39 45
f 6 45 35
f 6 35 29
f 6 29 18
f 6 18 9
f 6 9 8
f 6 8 7
f 9 18 19
f 9 19 10
f 10 20 11
f 10 19 20
f 11 20 30
f 11 30 36
f 11 36 35
f 11 35 45
f 11 45 38
f 11 38 31
f 11 31 23
f 11 23 26
f 11 26 21
f 11 21 12
f 12 21 22
f 12 22 13
f 13 22 16
f 13 16 15
f 16 23 31
f 16 31 37
f 16 37 46
f 16 46 50
f 16 50 47
f 16 47 42
f 16 42 32
f 16 32 24
f 16 24 33
f 16 33 43
f 16 43 48
f 16 48 49
f 16 49 44
f 16 44 34
f 16 34 27
f 16 27 25
f 16 25 17
f 16 22 21
f 16 21 26
f 16 26 23
f 17 25 27
f 17 27 28
f 18 29 30
f 18 30 19
f 19 30 20
f 24 32 33
f 27 34 28
f 29 35 36
f 29 36 30
f 31 38 39
f 31 39 40
f 31 40 41
f 31 41 37
f 32 42 33
f 33 42 43
f 37 41 44
f 37 44 46
f 38 45 39
f 42 47 48
f 42 48 43
f 44 49 50
f 44 50 46
f 47 50 48
f 48 50 49

