# https://github.com/mikedh/trimesh
v -0.03639683 -0.00985983 0.19575516
v -0.03639683 -0.00978795 0.19584549
v -0.03889838 -0.00811316 0.19584549
v -0.03914105 -0.00828025 0.19508668
v -0.04101039 -0.00820837 0.19071452
v -0.04101852 -0.00821614 0.18961245
v -0.04115204 -0.00832688 0.15886279
v -0.04118397 -0.00835214 0.14655931
v -0.04121590 -0.00837546 0.13425583
v -0.04134594 -0.00843763 0.08509612
v -0.04134710 -0.00843957 0.08303651
v -0.04123158 -0.00840654 0.02973951
v -0.04122345 -0.00840266 0.02563834
v -0.04121881 -0.00840071 0.02357873
v -0.04120894 -0.00839683 0.01947757
v -0.04119790 -0.00838906 0.01537641
v -0.03997412 -0.00861055 0.01537641
v -0.03997412 -0.00859695 0.01333487
v -0.03862843 -0.00845706 0.01127525
v -0.03805370 -0.00717280 0.01127525
v -0.03781742 -0.00512304 0.01127525
v -0.03639683 -0.00907879 0.19371361
v -0.03639683 0.00991503 0.19584549
v -0.03943539 -0.00730492 0.19584549
v -0.04043798 -0.00719223 0.19369554
v -0.04067136 -0.00788779 0.19208760
v -0.04108122 -0.00652193 0.19299094
v -0.04116366 -0.00719223 0.19149140
v -0.04131053 -0.00717474 0.18961245
v -0.04134652 -0.00717474 0.18755284
v -0.04136394 -0.00717474 0.18551129
v -0.04157003 -0.00717474 0.15886279
v -0.04158339 -0.00717474 0.15680318
v -0.04170878 -0.00717474 0.13629738
v -0.04201821 -0.00717474 0.08509612
v -0.04116366 -0.00833465 0.15476163
v -0.04202111 -0.00717474 0.08303651
v -0.04163447 -0.00717280 0.02563834
v -0.04153810 -0.00717280 0.01537641
v -0.04116714 -0.00836380 0.01333487
v -0.03997471 -0.00856780 0.01127525
v -0.04201008 -0.00717474 0.08099496
v -0.04186088 -0.00717474 0.05434646
v -0.04183534 -0.00717474 0.05022724
v -0.04180864 -0.00717474 0.04614414
v -0.04179412 -0.00717474 0.04408453
v -0.04177670 -0.00717474 0.04204298
v -0.03997412 -0.00856780 0.01127525
v -0.03779594 0.00512189 0.01127525
v -0.03639683 -0.00512498 0.19152753
v -0.03639683 -0.00676673 0.19212374
v -0.03639683 -0.00733212 0.19234054
v -0.03639683 -0.00881649 0.19337034
v -0.03639683 0.00995000 0.19582742
v -0.03829172 0.00869489 0.19584549
v -0.03948705 -0.00720971 0.19584549
v -0.03950621 -0.00724080 0.19577322
v -0.04005424 -0.00512498 0.19575516
v -0.04082578 -0.00512498 0.19414721
v -0.04112244 -0.00512498 0.19311741
v -0.04138252 -0.00512498 0.19165400
v -0.04156829 -0.00512498 0.18961245
v -0.04163447 -0.00512498 0.18755284
v -0.04165828 -0.00512498 0.18551129
v -0.04208788 -0.00512498 0.12195236
v -0.04223707 -0.00512498 0.09944115
v -0.04232706 -0.00512498 0.08509612
v -0.04232764 -0.00512498 0.08303651
v -0.04229745 -0.00512498 0.07483419
v -0.04228758 -0.00512498 0.07279265
v -0.04216625 -0.00512498 0.05434646
v -0.04214825 -0.00512498 0.05228685
v -0.04164550 -0.00512304 0.01333487
v -0.04149398 -0.00717280 0.01333487
v -0.04210703 -0.00512498 0.04820375
v -0.04208613 -0.00512498 0.04614414
v -0.04206407 -0.00512498 0.04408453
v -0.04203853 -0.00512498 0.04204298
v -0.04110850 -0.00831134 0.01127525
v -0.04218076 -0.00512498 0.05640607
v -0.03780058 0.00717359 0.01127525
v -0.03639683 0.00717165 0.19181660
v -0.03639683 0.00512189 0.19147333
v -0.03639683 -0.00307327 0.19149140
v -0.03639683 -0.00448188 0.19150946
v -0.03639683 0.00998886 0.19575516
v -0.03930244 0.00841511 0.19533962
v -0.03953698 0.00750000 0.19584549
v -0.04000606 -0.00512498 0.19584549
v -0.04004321 -0.00102351 0.19575516
v -0.04082230 -0.00307327 0.19414721
v -0.04000606 -0.00501035 0.19584549
v -0.04000257 -0.00307327 0.19584549
v -0.04112069 -0.00307327 0.19311741
v -0.04111315 0.00307213 0.19309934
v -0.04135639 0.00512189 0.19165400
v -0.04155726 0.00512189 0.18961245
v -0.04163970 0.00512189 0.18755284
v -0.04166582 0.00512189 0.18551129
v -0.04182489 0.00512189 0.16090434
v -0.04226030 0.00512189 0.08509612
v -0.04226436 0.00512189 0.08303651
v -0.04209716 0.00512189 0.11378617
v -0.04225565 0.00512189 0.08099496
v -0.04218599 0.00512189 0.06663187
v -0.04217496 0.00512189 0.06459033
v -0.04207684 0.00512189 0.05022724
v -0.04206233 0.00512189 0.04820375
v -0.04204492 0.00512189 0.04614414
v -0.04202460 0.00512189 0.04408453
v -0.04166350 0.00512189 0.01333487
v -0.04159616 0.00511995 0.01127525
v -0.04157526 -0.00512304 0.01127525
v -0.04139761 -0.00717280 0.01127525
v -0.04192242 0.00717359 0.03588221
v -0.04189862 0.00717359 0.03384066
v -0.04209136 0.00512189 0.05228685
v -0.03839680 0.00876677 0.01127525
v -0.03639683 0.00909901 0.19351488
v -0.03639683 0.00851420 0.19262961
v -0.03639683 0.00820139 0.19243087
v -0.03997412 0.00915924 0.01537641
v -0.03997412 0.00916701 0.01743603
v -0.03997412 0.00917090 0.01947757
v -0.03997412 0.00917478 0.02153719
v -0.03997412 0.00918838 0.03384066
v -0.03997412 0.00919033 0.03588221
v -0.03997471 0.00912815 0.09739960
v -0.04155958 0.00870266 0.08509612
v -0.04155320 0.00870071 0.08713767
v -0.04152649 0.00868906 0.09533999
v -0.03997471 0.00905627 0.13629738
v -0.04143186 0.00861717 0.13221429
v -0.04140400 0.00859968 0.14041661
v -0.04138833 0.00858608 0.14449970
v -0.04133375 0.00852585 0.16090434
v -0.04122113 0.00842482 0.18755284
v -0.04119152 0.00839568 0.18961245
v -0.04109109 0.00829659 0.19165400
v -0.04101213 0.00821110 0.19271994
v -0.03997412 0.00914758 0.01333487
v -0.03963509 0.00730960 0.19584549
v -0.04002928 0.00307213 0.19575516
v -0.03998980 0.00113505 0.19584549
v -0.04080953 0.00307213 0.19411108
v -0.04110850 0.00512189 0.19308127
v -0.04126873 0.00717165 0.19165400
v -0.04147018 0.00717165 0.18961245
v -0.04106322 0.00717165 0.19290060
v -0.04154333 0.00717165 0.18755284
v -0.04174884 0.00717165 0.16090434
v -0.04156307 0.00717165 0.18551129
v -0.04192823 0.00717165 0.13221429
v -0.04195261 0.00717165 0.12809506
v -0.04197641 0.00717165 0.12401197
v -0.04219179 0.00717165 0.08509612
v -0.04202344 0.00717165 0.11582772
v -0.04219586 0.00717165 0.08303651
v -0.04212677 0.00717165 0.06459033
v -0.04209775 0.00717165 0.05842955
v -0.04208671 0.00717165 0.05640607
v -0.04207336 0.00717165 0.05434646
v -0.04205943 0.00717165 0.05228685
v -0.04204492 0.00717165 0.05022724
v -0.04199905 0.00717165 0.04408453
v -0.04198222 0.00717165 0.04204298
v -0.04195667 0.00717165 0.03922457
v -0.04194390 0.00717359 0.03792375
v -0.04167105 0.00717359 0.01537641
v -0.04164144 0.00717359 0.01333487
v -0.04159616 0.00512189 0.01127525
v -0.04133085 0.00861911 0.01537641
v -0.03997412 0.00911067 0.01127525
v -0.04145393 0.00871432 0.03588221
v -0.04152824 0.00872792 0.05842955
v -0.04153230 0.00872597 0.06048917
v -0.04156190 0.00870460 0.08303651
v -0.04149456 0.00866574 0.10762540
v -0.04151604 0.00868129 0.09944115
v -0.04142606 0.00861134 0.13425583
v -0.04065046 0.00717165 0.19391235
v -0.04130879 0.00859968 0.01333487
v -0.04134594 0.00863466 0.01743603
v -0.04135755 0.00864437 0.01947757
v -0.04137962 0.00866380 0.02357873
v -0.04144231 0.00870654 0.03384066
v -0.03983247 0.00605448 0.19584549
v -0.04001651 0.00512189 0.19575516
v -0.03998283 0.00307213 0.19584549
v -0.03998225 0.00318676 0.19584549
v -0.04080256 0.00512189 0.19409302
v -0.04146263 0.00871432 0.03792375
v -0.04126118 0.00854334 0.01127525
v -0.04156248 0.00717359 0.01127525
v -0.03996252 0.00521709 0.19584549
v -0.03997006 0.00512189 0.19584549
f 1 2 3
f 1 3 4
f 1 4 5
f 1 5 6
f 1 6 7
f 1 7 8
f 1 8 9
f 1 9 10
f 1 10 11
f 1 11 12
f 1 12 13
f 1 13 14
f 1 14 15
f 1 15 16
f 1 16 17
f 1 17 18
f 1 18 19
f 1 19 20
f 1 20 21
f 1 21 22
f 1 22 53
f 1 53 52
f 1 52 51
f 1 51 50
f 1 50 85
f 1 85 84
f 1 84 83
f 1 83 82
f 1 82 121
f 1 121 120
f 1 120 119
f 1 119 86
f 1 86 54
f 1 54 23
f 1 23 2
f 2 23 55
f 2 55 88
f 2 88 142
f 2 142 187
f 2 187 195
f 2 195 196
f 2 196 190
f 2 190 189
f 2 189 144
f 2 144 93
f 2 93 92
f 2 92 89
f 2 89 56
f 2 56 24
f 2 24 3
f 3 24 4
f 4 24 25
f 4 25 26
f 4 26 5
f 5 26 27
f 5 27 28
f 5 28 29
f 5 29 30
f 5 30 6
f 6 30 31
f 6 31 32
f 6 32 33
f 6 33 34
f 6 34 35
f 6 35 7
f 7 36 8
f 7 35 36
f 8 36 35
f 8 35 9
f 9 35 10
f 10 35 37
f 10 37 11
f 11 37 13
f 11 13 12
f 13 37 14
f 14 37 15
f 15 37 16
f 16 38 39
f 16 39 40
f 16 40 41
f 16 41 18
f 16 18 17
f 16 37 42
f 16 42 43
f 16 43 44
f 16 44 45
f 16 45 46
f 16 46 47
f 16 47 38
f 18 41 48
f 18 48 19
f 19 48 41
f 19 41 79
f 19 79 114
f 19 114 113
f 19 113 112
f 19 112 171
f 19 171 194
f 19 194 193
f 19 193 173
f 19 173 118
f 19 118 81
f 19 81 49
f 19 49 21
f 19 21 20
f 21 49 50
f 21 50 51
f 21 51 52
f 21 52 53
f 21 53 22
f 23 54 55
f 24 56 57
f 24 57 25
f 25 27 26
f 25 57 27
f 27 57 56
f 27 56 58
f 27 58 59
f 27 59 60
f 27 60 61
f 27 61 28
f 28 61 62
f 28 62 29
f 29 62 63
f 29 63 30
f 30 63 64
f 30 64 31
f 31 64 32
f 32 64 65
f 32 65 66
f 32 66 33
f 33 66 67
f 33 67 34
f 34 67 35
f 35 67 37
f 37 67 68
f 37 68 69
f 37 69 70
f 37 70 42
f 38 47 71
f 38 71 72
f 38 72 39
f 39 73 74
f 39 74 40
f 39 72 75
f 39 75 76
f 39 76 77
f 39 77 78
f 39 78 73
f 40 74 79
f 40 79 41
f 42 70 43
f 43 70 44
f 44 70 80
f 44 80 45
f 45 80 71
f 45 71 46
f 46 71 47
f 49 81 82
f 49 82 83
f 49 83 84
f 49 84 85
f 49 85 50
f 54 86 87
f 54 87 55
f 55 87 88
f 56 89 58
f 58 90 91
f 58 91 59
f 58 89 92
f 58 92 93
f 58 93 90
f 59 91 94
f 59 94 60
f 60 94 61
f 61 94 95
f 61 95 96
f 61 96 97
f 61 97 62
f 62 98 63
f 62 97 98
f 63 98 99
f 63 99 64
f 64 99 65
f 65 99 66
f 66 99 100
f 66 100 67
f 67 101 102
f 67 102 68
f 67 100 103
f 67 103 101
f 68 102 69
f 69 102 104
f 69 104 70
f 70 104 105
f 70 105 106
f 70 106 80
f 71 80 117
f 71 117 107
f 71 107 108
f 71 108 109
f 71 109 72
f 72 109 110
f 72 110 75
f 73 111 112
f 73 112 113
f 73 113 74
f 73 78 111
f 74 113 114
f 74 114 79
f 75 110 76
f 76 110 77
f 77 110 115
f 77 115 116
f 77 116 111
f 77 111 78
f 80 106 117
f 81 118 86
f 81 86 119
f 81 119 120
f 81 120 121
f 81 121 82
f 86 122 123
f 86 123 124
f 86 124 125
f 86 125 126
f 86 126 127
f 86 127 128
f 86 128 129
f 86 129 130
f 86 130 131
f 86 131 132
f 86 132 133
f 86 133 134
f 86 134 135
f 86 135 136
f 86 136 137
f 86 137 138
f 86 138 139
f 86 139 140
f 86 140 87
f 86 118 141
f 86 141 122
f 87 140 88
f 88 140 142
f 90 143 91
f 90 93 144
f 90 144 143
f 91 143 145
f 91 145 95
f 91 95 94
f 95 146 96
f 95 145 146
f 96 147 148
f 96 148 97
f 96 146 149
f 96 149 147
f 97 148 98
f 98 148 150
f 98 150 99
f 99 151 100
f 99 150 152
f 99 152 151
f 100 151 153
f 100 153 154
f 100 154 155
f 100 155 103
f 101 156 158
f 101 158 102
f 101 103 157
f 101 157 156
f 102 158 159
f 102 159 104
f 103 155 157
f 104 159 160
f 104 160 105
f 105 160 106
f 106 160 161
f 106 161 162
f 106 162 163
f 106 163 117
f 107 117 163
f 107 163 164
f 107 164 108
f 108 164 165
f 108 165 166
f 108 166 109
f 109 166 167
f 109 167 168
f 109 168 110
f 110 168 115
f 111 116 169
f 111 169 170
f 111 170 171
f 111 171 112
f 115 168 172
f 115 172 116
f 116 172 169
f 118 173 141
f 122 141 174
f 122 174 123
f 123 174 124
f 124 174 125
f 125 174 175
f 125 175 126
f 126 175 127
f 127 175 176
f 127 176 177
f 127 177 128
f 128 177 129
f 129 156 133
f 129 133 130
f 129 177 158
f 129 158 156
f 130 133 178
f 130 178 179
f 130 179 131
f 131 179 132
f 132 179 178
f 132 178 133
f 133 180 134
f 133 156 180
f 134 180 156
f 134 156 136
f 134 136 135
f 136 156 137
f 137 156 157
f 137 157 155
f 137 155 154
f 137 154 153
f 137 153 151
f 137 151 152
f 137 152 150
f 137 150 138
f 138 148 139
f 138 150 148
f 139 148 140
f 140 148 147
f 140 147 149
f 140 149 181
f 140 181 142
f 141 173 182
f 141 182 172
f 141 172 183
f 141 183 184
f 141 184 185
f 141 185 186
f 141 186 174
f 142 181 187
f 143 188 145
f 143 144 189
f 143 189 190
f 143 190 188
f 145 188 191
f 145 191 146
f 146 191 149
f 149 191 181
f 158 177 176
f 158 176 175
f 158 175 192
f 158 192 159
f 159 192 174
f 159 174 160
f 160 174 161
f 161 174 162
f 162 174 163
f 163 174 186
f 163 186 164
f 164 186 183
f 164 183 165
f 165 183 166
f 166 183 167
f 167 183 168
f 168 183 172
f 169 172 182
f 169 182 170
f 170 182 193
f 170 193 194
f 170 194 171
f 173 193 182
f 174 192 175
f 181 191 188
f 181 188 195
f 181 195 187
f 183 186 184
f 184 186 185
f 188 190 196
f 188 196 195

