# https://github.com/mikedh/trimesh
v -0.00001427 -0.05938099 0.06060900
v -0.02612282 -0.05305003 0.06061874
v -0.01503895 -0.05779661 0.06064307
v -0.00871116 -0.05938099 0.06062847
v -0.00001427 -0.06018704 0.06058467
v -0.00001427 -0.05808705 0.06031214
v -0.02612282 -0.05149829 0.06027807
v -0.02612282 -0.05463440 0.06061874
v -0.02454087 -0.05463440 0.06062847
v -0.01662602 -0.05779661 0.06063820
v -0.01029566 -0.05938099 0.06062360
v -0.00079375 -0.06096373 0.06056034
v -0.00001427 -0.06096373 0.06055547
v -0.00001427 -0.05729405 0.05991793
v -0.02612282 -0.05134491 0.06020507
v -0.01820796 -0.05779661 0.06059440
v -0.02612282 -0.05626772 0.06028780
v -0.02454087 -0.05621714 0.06045327
v -0.01979247 -0.05779661 0.06051167
v -0.01188017 -0.05938099 0.06059927
v -0.00396020 -0.06096373 0.06053114
v -0.00237570 -0.06096373 0.06055060
v -0.00079375 -0.06225276 0.06026347
v -0.00001427 -0.06225113 0.06025860
v -0.02576247 -0.05093209 0.05991793
v -0.00001427 -0.05684044 0.05952860
v -0.02612282 -0.04994492 0.05926093
v -0.02612282 -0.05011462 0.05940207
v -0.01345956 -0.05938099 0.06055547
v -0.01503895 -0.05938099 0.06048247
v -0.02612282 -0.05631015 0.06026833
v -0.02554013 -0.05708683 0.06012233
v -0.02454087 -0.05730547 0.06018560
v -0.02224078 -0.05860919 0.06009313
v -0.02137442 -0.05873973 0.06015154
v -0.02284392 -0.05783088 0.06022940
v -0.01979247 -0.05900080 0.06024400
v -0.02137442 -0.05779661 0.06038027
v -0.01662602 -0.05938099 0.06038513
v -0.00712665 -0.06096373 0.06046787
v -0.00554471 -0.06096373 0.06050193
v -0.00237570 -0.06220707 0.06025860
v -0.00079375 -0.06304413 0.05994227
v -0.00001427 -0.06304087 0.05994227
v -0.00001427 -0.05637704 0.05912466
v -0.02612282 -0.04983071 0.05913440
v -0.00871116 -0.06096373 0.06041920
v -0.01345956 -0.06064555 0.06025860
v -0.01188017 -0.06084624 0.06029267
v -0.02612282 -0.05777214 0.05938746
v -0.02329627 -0.05838076 0.05999093
v -0.02454087 -0.05809685 0.05977193
v -0.01747449 -0.06018541 0.06009313
v -0.01979247 -0.05979217 0.05985467
v -0.01852998 -0.06001408 0.06000553
v -0.01808274 -0.05944462 0.06026347
v -0.01503895 -0.06045137 0.06020020
v -0.00712665 -0.06200311 0.06020020
v -0.00554471 -0.06207980 0.06022453
v -0.00396020 -0.06214507 0.06024400
v -0.00237570 -0.06299844 0.05990820
v -0.00237570 -0.06384203 0.05911493
v -0.00079375 -0.06387629 0.05914900
v -0.00001427 -0.06387629 0.05914900
v -0.00001427 -0.05599197 0.05863313
v -0.02559124 -0.04923024 0.05822433
v -0.02612282 -0.04872278 0.05770359
v -0.01044645 -0.06112037 0.06029753
v -0.00871116 -0.06191011 0.06016127
v -0.01107258 -0.06175346 0.06008340
v -0.02612282 -0.05780314 0.05936313
v -0.02454087 -0.05900080 0.05897866
v -0.02282092 -0.05932061 0.05929013
v -0.02137442 -0.06040242 0.05879373
v -0.02137442 -0.05952947 0.05958213
v -0.01503895 -0.06124274 0.05971840
v -0.01345956 -0.06143528 0.05990333
v -0.01188017 -0.06163925 0.06002987
v -0.01979247 -0.06065860 0.05906140
v -0.01503895 -0.06206838 0.05893000
v -0.00396020 -0.06293644 0.05985953
v -0.00396020 -0.06379144 0.05906626
v -0.00237570 -0.06449144 0.05770846
v -0.00079375 -0.06455834 0.05770846
v -0.00001427 -0.06455834 0.05770846
v -0.00001427 -0.05558894 0.05811239
v -0.00001427 -0.05529687 0.05731912
v -0.02612282 -0.04824144 0.05612192
v -0.01001454 -0.06182362 0.06012233
v -0.00554471 -0.06287117 0.05980113
v -0.01345956 -0.06227560 0.05911006
v -0.01029566 -0.06342595 0.05862339
v -0.00871116 -0.06355648 0.05880346
v -0.00871116 -0.06269984 0.05959186
v -0.00712665 -0.06279448 0.05971353
v -0.02612282 -0.05784557 0.05932420
v -0.02569347 -0.05874952 0.05870613
v -0.02234812 -0.06023926 0.05858933
v -0.01747960 -0.06176978 0.05852120
v -0.01662602 -0.06187094 0.05867693
v -0.01111092 -0.06334436 0.05850660
v -0.00554471 -0.06372618 0.05900786
v -0.00396020 -0.06439027 0.05770846
v -0.00396020 -0.06195743 0.01813259
v -0.00237570 -0.06204064 0.01813259
v -0.00079375 -0.06210264 0.01813259
v -0.00001427 -0.06210917 0.01813259
v -0.00001427 -0.05498521 0.05612679
v -0.00001427 -0.05467193 0.05454025
v -0.02612282 -0.04800158 0.05443318
v -0.00712665 -0.06365112 0.05892026
v -0.00871116 -0.06389587 0.05770846
v -0.00712665 -0.06410146 0.05770846
v -0.00554471 -0.06425485 0.05770846
v -0.02612282 -0.05876421 0.05770846
v -0.02454087 -0.05946746 0.05770846
v -0.02330905 -0.05999613 0.05770846
v -0.02251424 -0.06030452 0.05770846
v -0.02137442 -0.06070102 0.05770846
v -0.01979247 -0.06121337 0.05770846
v -0.01844564 -0.06160987 0.05770846
v -0.01765083 -0.06182036 0.05770846
v -0.01345956 -0.06288096 0.05770846
v -0.01211529 -0.06320893 0.05770846
v -0.01132048 -0.06339821 0.05770846
v -0.01029566 -0.06361685 0.05770846
v -0.00559071 -0.06182526 0.01815206
v -0.00509236 -0.06179099 0.01704732
v -0.00487001 -0.06179752 0.01695485
v -0.00389375 -0.06185789 0.01694999
v -0.00237570 -0.06190847 0.01654118
v -0.00196935 -0.06195905 0.01694999
v -0.00079375 -0.06196885 0.01654118
v -0.00001427 -0.06200964 0.01694999
v -0.00001427 -0.05458218 0.05376645
v -0.00001427 -0.05448918 0.05295858
v -0.02612282 -0.04799016 0.05429205
v -0.01137671 -0.06341126 0.05673999
v -0.00871116 -0.06143202 0.01813259
v -0.00704487 -0.06166698 0.01815206
v -0.00646219 -0.06176978 0.01868739
v -0.00614784 -0.06173715 0.01763619
v -0.02612282 -0.05642110 0.01813746
v -0.02506222 -0.05689103 0.01813259
v -0.02245290 -0.06028168 0.05668646
v -0.02426997 -0.05721736 0.01813259
v -0.02295892 -0.05774930 0.01813259
v -0.02068184 -0.05862225 0.01848299
v -0.01767128 -0.06182689 0.05675946
v -0.00559071 -0.06167841 0.01652658
v -0.00433588 -0.06172736 0.01599125
v -0.00387075 -0.06182199 0.01652658
v -0.00328040 -0.06176325 0.01572358
v -0.00237570 -0.06178446 0.01564085
v -0.00079375 -0.06181547 0.01551918
v -0.00001427 -0.06189542 0.01602045
v -0.00001427 -0.06197211 0.01654118
v -0.00001427 -0.05448429 0.05283204
v -0.02612282 -0.04790694 0.05295858
v -0.01662602 -0.05980196 0.01813259
v -0.01543253 -0.06008261 0.01813259
v -0.01464538 -0.06026046 0.01813259
v -0.01345956 -0.06052154 0.01813259
v -0.01188272 -0.06085930 0.01813259
v -0.01029822 -0.06116605 0.01813259
v -0.00871116 -0.06127375 0.01654118
v -0.00712665 -0.06150218 0.01654118
v -0.00710621 -0.06154461 0.01694999
v -0.00676120 -0.06159029 0.01694999
v -0.02612282 -0.05627914 0.01694999
v -0.02612282 -0.05623019 0.01654118
v -0.02482966 -0.05679476 0.01654118
v -0.02430064 -0.05706399 0.01694999
v -0.02409619 -0.05714884 0.01694999
v -0.02127475 -0.05837913 0.01802552
v -0.02295892 -0.05756491 0.01654118
v -0.02137186 -0.05817190 0.01654118
v -0.02056428 -0.05858309 0.01742692
v -0.01993303 -0.05882784 0.01802552
v -0.01820541 -0.05937446 0.01813259
v -0.00712665 -0.06118563 0.01495951
v -0.00554471 -0.06137491 0.01495951
v -0.00387075 -0.06155603 0.01510065
v -0.00237570 -0.06157072 0.01484758
v -0.00079375 -0.06160987 0.01472591
v -0.00001427 -0.06181710 0.01550945
v -0.00001427 -0.06171267 0.01510551
v -0.00001427 -0.05446144 0.05217991
v -0.00001427 -0.05443697 0.05137204
v -0.02612282 -0.04790531 0.05283204
v -0.01662602 -0.05965021 0.01654118
v -0.01448182 -0.06020499 0.01694999
v -0.01444093 -0.06021804 0.01698405
v -0.01438982 -0.06022620 0.01694999
v -0.01188272 -0.06070592 0.01654118
v -0.01029822 -0.06104857 0.01695485
v -0.01029822 -0.06100615 0.01654118
v -0.01029822 -0.06070265 0.01495951
v -0.00871116 -0.06095720 0.01495951
v -0.02383807 -0.05704277 0.01559705
v -0.02612282 -0.05591691 0.01501305
v -0.02403485 -0.05712273 0.01654118
v -0.02137186 -0.05786188 0.01495951
v -0.02038282 -0.05852435 0.01654118
v -0.01959313 -0.05877889 0.01654118
v -0.01820541 -0.05921292 0.01654118
v -0.01029822 -0.06033879 0.01371851
v -0.00712665 -0.06066513 0.01337784
v -0.00554471 -0.06085930 0.01337784
v -0.00396020 -0.06098820 0.01337784
v -0.00237570 -0.06107142 0.01337784
v -0.00001427 -0.06161151 0.01471618
v -0.00079375 -0.06114321 0.01337784
v -0.02612282 -0.04789062 0.05137204
v -0.00001427 -0.05464745 0.01092503
v -0.01414448 -0.06015114 0.01592798
v -0.01499551 -0.06002876 0.01648765
v -0.01662602 -0.05935651 0.01495951
v -0.01355412 -0.06034858 0.01648765
v -0.01308899 -0.06026046 0.01538778
v -0.01191850 -0.06038285 0.01489624
v -0.01247819 -0.06013319 0.01432684
v -0.01142271 -0.06023926 0.01398131
v -0.02612282 -0.05588590 0.01486705
v -0.02443865 -0.05665117 0.01502278
v -0.02352883 -0.05691224 0.01454098
v -0.02298448 -0.05725489 0.01502278
v -0.02247079 -0.05713088 0.01383531
v -0.01885710 -0.05854230 0.01434631
v -0.01980269 -0.05838729 0.01490598
v -0.01928134 -0.05867773 0.01539751
v -0.01029822 -0.06004019 0.01292524
v -0.00918396 -0.06012830 0.01270137
v -0.00867794 -0.06041874 0.01328537
v -0.00812847 -0.06020009 0.01253590
v -0.00712665 -0.06026699 0.01241910
v -0.00554471 -0.06036163 0.01225850
v -0.00396020 -0.06042527 0.01216117
v -0.00001427 -0.06114811 0.01337784
v -0.00237570 -0.06046443 0.01210277
v -0.00079375 -0.06050032 0.01204923
v -0.02612282 -0.04821206 0.01092503
v -0.00001427 -0.05973996 0.01092503
v -0.01503640 -0.05973506 0.01495951
v -0.01828208 -0.05886537 0.01490598
v -0.01779650 -0.05871199 0.01382558
v -0.01663113 -0.05886374 0.01332917
v -0.01503640 -0.05926350 0.01337784
v -0.01355412 -0.06004508 0.01489624
v -0.01345956 -0.05959800 0.01337784
v -0.01191850 -0.05992923 0.01342164
v -0.02612282 -0.05552367 0.01368444
v -0.02454087 -0.05609313 0.01337784
v -0.02298448 -0.05672786 0.01333404
v -0.02195711 -0.05692692 0.01277924
v -0.02141020 -0.05733974 0.01333404
v -0.01979247 -0.05790104 0.01337784
v -0.01610722 -0.05866304 0.01246290
v -0.01503640 -0.05878542 0.01226824
v -0.01345956 -0.05894859 0.01201517
v -0.01029822 -0.05941362 0.01179130
v -0.00867794 -0.05974322 0.01191783
v -0.00712665 -0.05977259 0.01163070
v -0.00554471 -0.05986397 0.01147010
v -0.00396020 -0.05992434 0.01137277
v -0.00001427 -0.06082014 0.01270137
v -0.00237570 -0.05996350 0.01131437
v -0.00001427 -0.06050196 0.01204923
v -0.00079375 -0.05999613 0.01126083
v -0.02612282 -0.05400783 0.01092503
v -0.00079375 -0.05973996 0.01092503
v -0.00001427 -0.05999613 0.01126083
v -0.01828208 -0.05837097 0.01332917
v -0.01716270 -0.05851456 0.01276950
v -0.02612282 -0.05540945 0.01337784
v -0.02571647 -0.05559057 0.01337784
v -0.02536124 -0.05543393 0.01256510
v -0.02454087 -0.05560852 0.01229744
v -0.02090418 -0.05711946 0.01238990
v -0.01979247 -0.05730385 0.01210277
v -0.01826674 -0.05751433 0.01168423
v -0.01663113 -0.05813437 0.01187890
v -0.01503640 -0.05827144 0.01147497
v -0.01345956 -0.05843787 0.01122190
v -0.01245519 -0.05854230 0.01106617
v -0.01190828 -0.05904159 0.01167450
v -0.01140226 -0.05865815 0.01092503
v -0.01029822 -0.05884579 0.01092503
v -0.01009377 -0.05887679 0.01092503
v -0.00823581 -0.05914602 0.01092503
v -0.00642129 -0.05937609 0.01092503
v -0.00554471 -0.05947073 0.01092503
v -0.00466556 -0.05954416 0.01092503
v -0.00396020 -0.05959311 0.01092503
v -0.00298139 -0.05964532 0.01092503
v -0.00132277 -0.05972201 0.01092503
v -0.02549924 -0.05427216 0.01092503
v -0.02347005 -0.05530502 0.01116350
v -0.02454087 -0.05508312 0.01150417
v -0.02612282 -0.05458871 0.01178643
v -0.02612282 -0.05530176 0.01310044
v -0.02612282 -0.05460829 0.01181564
v -0.02294614 -0.05589406 0.01173777
v -0.02141020 -0.05656795 0.01183997
v -0.01979247 -0.05679802 0.01131437
v -0.01883154 -0.05694976 0.01108076
v -0.01811852 -0.05706235 0.01092503
v -0.01769172 -0.05718800 0.01092503
v -0.01662857 -0.05748659 0.01092503
v -0.01606633 -0.05763181 0.01092503
v -0.01503640 -0.05787820 0.01092503
v -0.01399880 -0.05810827 0.01092503
v -0.01260342 -0.05840687 0.01092503
v -0.01147126 -0.05864509 0.01092503
v -0.02381762 -0.05497869 0.01092503
v -0.02261647 -0.05548125 0.01092503
v -0.02235323 -0.05558567 0.01092503
v -0.02066139 -0.05620898 0.01092503
v -0.01897466 -0.05678660 0.01092503
f 1 2 3
f 1 3 4
f 1 4 5
f 1 5 13
f 1 13 24
f 1 24 44
f 1 44 64
f 1 64 85
f 1 85 107
f 1 107 134
f 1 134 157
f 1 157 156
f 1 156 186
f 1 186 187
f 1 187 212
f 1 212 239
f 1 239 266
f 1 266 268
f 1 268 272
f 1 272 243
f 1 243 215
f 1 215 189
f 1 189 188
f 1 188 158
f 1 158 136
f 1 136 135
f 1 135 109
f 1 109 108
f 1 108 87
f 1 87 86
f 1 86 65
f 1 65 45
f 1 45 26
f 1 26 14
f 1 14 6
f 1 6 7
f 1 7 2
f 2 8 9
f 2 9 3
f 2 7 15
f 2 15 28
f 2 28 27
f 2 27 46
f 2 46 67
f 2 67 88
f 2 88 110
f 2 110 137
f 2 137 159
f 2 159 190
f 2 190 214
f 2 214 242
f 2 242 270
f 2 270 300
f 2 300 302
f 2 302 301
f 2 301 275
f 2 275 252
f 2 252 224
f 2 224 201
f 2 201 171
f 2 171 170
f 2 170 143
f 2 143 115
f 2 115 96
f 2 96 71
f 2 71 50
f 2 50 31
f 2 31 17
f 2 17 8
f 3 9 10
f 3 10 4
f 4 10 11
f 4 11 12
f 4 12 5
f 5 12 13
f 6 14 15
f 6 15 7
f 8 16 10
f 8 10 9
f 8 17 18
f 8 18 19
f 8 19 16
f 10 16 20
f 10 20 11
f 11 20 21
f 11 21 22
f 11 22 12
f 12 22 23
f 12 23 13
f 13 23 24
f 14 25 15
f 14 26 27
f 14 27 28
f 14 28 25
f 15 25 28
f 16 29 20
f 16 19 30
f 16 30 29
f 17 31 32
f 17 32 33
f 17 33 34
f 17 34 35
f 17 35 36
f 17 36 37
f 17 37 18
f 18 37 38
f 18 38 19
f 19 38 37
f 19 37 39
f 19 39 30
f 20 29 40
f 20 40 41
f 20 41 21
f 21 41 42
f 21 42 22
f 22 42 23
f 23 42 43
f 23 43 44
f 23 44 24
f 26 45 27
f 27 45 46
f 29 30 47
f 29 47 40
f 30 39 48
f 30 48 49
f 30 49 47
f 31 50 32
f 32 51 34
f 32 34 33
f 32 50 52
f 32 52 51
f 34 53 35
f 34 51 54
f 34 54 55
f 34 55 53
f 35 53 37
f 35 37 36
f 37 53 56
f 37 56 39
f 39 56 57
f 39 57 48
f 40 47 58
f 40 58 59
f 40 59 60
f 40 60 41
f 41 60 42
f 42 60 43
f 43 60 59
f 43 59 61
f 43 61 62
f 43 62 63
f 43 63 64
f 43 64 44
f 45 65 66
f 45 66 46
f 46 66 67
f 47 49 68
f 47 68 69
f 47 69 58
f 48 57 70
f 48 70 49
f 49 70 68
f 50 71 52
f 51 52 72
f 51 72 73
f 51 73 74
f 51 74 75
f 51 75 54
f 52 71 72
f 53 55 76
f 53 76 77
f 53 77 78
f 53 78 70
f 53 70 57
f 53 57 56
f 54 75 74
f 54 74 79
f 54 79 55
f 55 79 80
f 55 80 76
f 58 69 81
f 58 81 61
f 58 61 59
f 61 81 82
f 61 82 62
f 62 82 83
f 62 83 84
f 62 84 63
f 63 84 85
f 63 85 64
f 65 86 66
f 66 86 67
f 67 86 87
f 67 87 88
f 68 70 89
f 68 89 69
f 69 89 90
f 69 90 81
f 70 78 91
f 70 91 92
f 70 92 93
f 70 93 94
f 70 94 95
f 70 95 90
f 70 90 89
f 71 96 97
f 71 97 72
f 72 97 98
f 72 98 74
f 72 74 73
f 74 98 99
f 74 99 79
f 76 80 91
f 76 91 77
f 77 91 78
f 79 99 100
f 79 100 80
f 80 100 101
f 80 101 91
f 81 90 102
f 81 102 82
f 82 102 83
f 83 102 103
f 83 103 104
f 83 104 105
f 83 105 84
f 84 105 106
f 84 106 107
f 84 107 85
f 87 108 88
f 88 108 109
f 88 109 110
f 90 95 111
f 90 111 102
f 91 101 92
f 92 101 112
f 92 112 113
f 92 113 93
f 93 113 114
f 93 114 111
f 93 111 95
f 93 95 94
f 96 115 97
f 97 115 116
f 97 116 98
f 98 116 117
f 98 117 118
f 98 118 119
f 98 119 120
f 98 120 99
f 99 101 100
f 99 120 121
f 99 121 122
f 99 122 123
f 99 123 101
f 101 123 124
f 101 124 125
f 101 125 126
f 101 126 112
f 102 111 103
f 103 111 114
f 103 114 127
f 103 127 104
f 104 127 128
f 104 128 129
f 104 129 130
f 104 130 131
f 104 131 105
f 105 131 132
f 105 132 106
f 106 132 133
f 106 133 107
f 107 133 134
f 109 135 110
f 110 135 136
f 110 136 137
f 112 126 138
f 112 138 139
f 112 139 140
f 112 140 113
f 113 140 141
f 113 141 142
f 113 142 127
f 113 127 114
f 115 143 116
f 116 143 144
f 116 144 117
f 117 145 118
f 117 144 146
f 117 146 147
f 117 147 145
f 118 145 119
f 119 145 148
f 119 148 120
f 120 149 121
f 120 148 149
f 121 149 122
f 122 149 123
f 123 149 138
f 123 138 124
f 124 138 125
f 125 138 126
f 127 142 128
f 128 142 150
f 128 150 151
f 128 151 129
f 129 151 152
f 129 152 130
f 130 152 131
f 131 152 153
f 131 153 133
f 131 133 132
f 133 153 154
f 133 154 155
f 133 155 156
f 133 156 157
f 133 157 134
f 136 158 159
f 136 159 137
f 138 149 160
f 138 160 161
f 138 161 162
f 138 162 163
f 138 163 164
f 138 164 165
f 138 165 139
f 139 165 166
f 139 166 167
f 139 167 168
f 139 168 140
f 140 168 142
f 140 142 141
f 142 168 169
f 142 169 150
f 143 170 144
f 144 170 171
f 144 171 172
f 144 172 173
f 144 173 174
f 144 174 146
f 145 147 175
f 145 175 148
f 146 174 176
f 146 176 147
f 147 176 177
f 147 177 178
f 147 178 175
f 148 175 178
f 148 178 179
f 148 179 180
f 148 180 149
f 149 180 160
f 150 167 151
f 150 169 167
f 151 153 152
f 151 167 181
f 151 181 182
f 151 182 153
f 153 182 183
f 153 183 184
f 153 184 154
f 154 184 185
f 154 185 155
f 155 186 156
f 155 185 187
f 155 187 186
f 158 188 159
f 159 188 189
f 159 189 190
f 160 180 191
f 160 191 192
f 160 192 193
f 160 193 161
f 161 193 162
f 162 193 163
f 163 193 164
f 164 193 194
f 164 194 195
f 164 195 165
f 165 195 196
f 165 196 166
f 166 196 197
f 166 197 198
f 166 198 199
f 166 199 181
f 166 181 167
f 167 169 168
f 171 200 172
f 171 201 200
f 172 200 202
f 172 202 174
f 172 174 173
f 174 202 176
f 176 202 200
f 176 200 203
f 176 203 177
f 177 204 178
f 177 203 204
f 178 180 179
f 178 204 205
f 178 205 206
f 178 206 180
f 180 206 191
f 181 199 207
f 181 207 208
f 181 208 209
f 181 209 182
f 182 209 210
f 182 210 183
f 183 210 184
f 184 210 211
f 184 211 185
f 185 212 187
f 185 211 213
f 185 213 212
f 189 214 190
f 189 215 214
f 191 216 217
f 191 217 192
f 191 206 218
f 191 218 216
f 192 194 193
f 192 217 194
f 194 217 216
f 194 216 219
f 194 219 195
f 195 219 216
f 195 216 220
f 195 220 197
f 195 197 196
f 197 220 198
f 198 220 221
f 198 221 222
f 198 222 223
f 198 223 199
f 199 223 207
f 200 201 224
f 200 224 225
f 200 225 226
f 200 226 227
f 200 227 203
f 203 227 228
f 203 228 229
f 203 229 230
f 203 230 231
f 203 231 204
f 204 231 205
f 205 231 206
f 206 231 218
f 207 223 232
f 207 232 233
f 207 233 234
f 207 234 208
f 208 234 233
f 208 233 235
f 208 235 209
f 209 235 236
f 209 236 237
f 209 237 210
f 210 237 238
f 210 238 211
f 211 238 213
f 212 213 239
f 213 238 240
f 213 240 241
f 213 241 239
f 214 215 242
f 215 243 271
f 215 271 296
f 215 296 295
f 215 295 294
f 215 294 293
f 215 293 292
f 215 292 291
f 215 291 290
f 215 290 289
f 215 289 288
f 215 288 287
f 215 287 314
f 215 314 313
f 215 313 312
f 215 312 311
f 215 311 310
f 215 310 309
f 215 309 308
f 215 308 307
f 215 307 319
f 215 319 318
f 215 318 317
f 215 317 316
f 215 316 315
f 215 315 297
f 215 297 270
f 215 270 242
f 216 218 244
f 216 244 220
f 218 245 246
f 218 246 247
f 218 247 248
f 218 248 244
f 218 231 245
f 220 244 249
f 220 249 222
f 220 222 221
f 222 249 244
f 222 244 248
f 222 248 223
f 223 248 250
f 223 250 251
f 223 251 232
f 224 252 226
f 224 226 225
f 226 252 228
f 226 228 227
f 228 252 253
f 228 253 254
f 228 254 255
f 228 255 256
f 228 256 229
f 229 256 257
f 229 257 246
f 229 246 245
f 229 245 231
f 229 231 230
f 232 258 259
f 232 259 260
f 232 260 233
f 232 251 258
f 233 260 261
f 233 261 235
f 235 261 262
f 235 262 236
f 236 262 263
f 236 263 237
f 237 263 264
f 237 264 238
f 238 264 265
f 238 265 267
f 238 267 240
f 239 241 266
f 240 267 241
f 241 268 266
f 241 267 269
f 241 269 268
f 243 272 269
f 243 269 271
f 246 257 273
f 246 273 274
f 246 274 247
f 247 274 258
f 247 258 248
f 248 258 250
f 250 258 251
f 252 275 276
f 252 276 253
f 253 276 277
f 253 277 254
f 254 277 255
f 255 277 278
f 255 278 279
f 255 279 257
f 255 257 256
f 257 279 274
f 257 274 273
f 258 274 280
f 258 280 281
f 258 281 282
f 258 282 283
f 258 283 259
f 259 283 284
f 259 284 260
f 260 284 285
f 260 285 286
f 260 286 261
f 261 286 287
f 261 287 288
f 261 288 262
f 262 288 289
f 262 289 290
f 262 290 263
f 263 290 264
f 264 290 291
f 264 291 292
f 264 292 293
f 264 293 265
f 265 293 294
f 265 294 295
f 265 295 267
f 267 295 296
f 267 296 269
f 268 269 272
f 269 296 271
f 270 297 298
f 270 298 299
f 270 299 300
f 274 279 280
f 275 301 277
f 275 277 276
f 277 301 302
f 277 302 299
f 277 299 278
f 278 299 298
f 278 298 303
f 278 303 279
f 279 303 304
f 279 304 305
f 279 305 280
f 280 305 281
f 281 305 306
f 281 306 282
f 282 306 307
f 282 307 308
f 282 308 309
f 282 309 310
f 282 310 283
f 283 310 311
f 283 311 312
f 283 312 284
f 284 312 285
f 285 312 313
f 285 313 314
f 285 314 286
f 286 314 287
f 297 315 298
f 298 304 303
f 298 315 316
f 298 316 317
f 298 317 304
f 299 302 300
f 304 317 318
f 304 318 305
f 305 318 319
f 305 319 306
f 306 319 307

