# https://github.com/mikedh/trimesh
v -0.01481956 -0.01704229 0.19782520
v -0.01481956 -0.01704229 0.19764398
v -0.01537159 -0.01704229 0.20005436
v -0.00037371 -0.02248871 0.19935528
v -0.00037371 -0.02239001 0.19785098
v -0.01484524 -0.01704229 0.19584625
v -0.01540048 -0.01704229 0.20008772
v -0.00037371 -0.02262887 0.20037888
v -0.00037371 -0.02241172 0.19584625
v -0.02173278 -0.01704229 0.19584625
v -0.01704052 -0.01704229 0.20143431
v -0.00037371 -0.02365341 0.20166557
v -0.01730049 -0.01704229 0.20157231
v -0.00037371 -0.02670332 0.19584625
v -0.02158193 -0.01724957 0.19584625
v -0.02767352 -0.02152537 0.19650893
v -0.02972438 -0.01947630 0.19656049
v -0.03173993 -0.01704229 0.19664996
v -0.00037371 -0.02530569 0.20269068
v -0.01956959 -0.01704229 0.20244805
v -0.02057095 -0.01704229 0.20278470
v -0.00037371 -0.03557868 0.19666058
v -0.00102523 -0.03559645 0.19666058
v -0.00717780 -0.02668753 0.19584625
v -0.02564192 -0.02564523 0.19662266
v -0.02767031 -0.02356457 0.19662570
v -0.02134764 -0.01749238 0.19584625
v -0.02965056 -0.02138522 0.19666209
v -0.03217642 -0.01704229 0.19669924
v -0.00037371 -0.02633023 0.20307586
v -0.02111014 -0.01704229 0.20290526
v -0.02179697 -0.01704229 0.20302278
v -0.00037371 -0.03660322 0.19696917
v -0.00102523 -0.03662098 0.19695552
v -0.00307609 -0.03551749 0.19666058
v -0.00717780 -0.03382375 0.19651955
v -0.00922545 -0.03382375 0.19654609
v -0.00922545 -0.02637958 0.19584625
v -0.02352367 -0.02765087 0.19663783
v -0.02497114 -0.02695403 0.19670076
v -0.02698669 -0.02497602 0.19669849
v -0.01957280 -0.01931838 0.19584625
v -0.01931604 -0.01957698 0.19584625
v -0.01543899 -0.02299210 0.19584625
v -0.02891880 -0.02287168 0.19670758
v -0.03080276 -0.02060744 0.19676218
v -0.03099533 -0.01947630 0.19670910
v -0.03270919 -0.01704229 0.19698206
v -0.00037371 -0.03177467 0.20359145
v -0.02356539 -0.01704229 0.20306297
v -0.00037371 -0.03680654 0.19729672
v -0.00102523 -0.03720925 0.19797988
v -0.00307609 -0.03715990 0.19807086
v -0.00307609 -0.03654400 0.19704575
v -0.00922545 -0.03509306 0.19668104
v -0.00717780 -0.03524309 0.19666058
v -0.00512694 -0.03538720 0.19665982
v -0.01127630 -0.03382375 0.19661963
v -0.01537801 -0.03177467 0.19656049
v -0.01111262 -0.02584263 0.19584625
v -0.02280474 -0.02887281 0.19672426
v -0.02152416 -0.02767456 0.19652940
v -0.01947331 -0.02972363 0.19657717
v -0.02136048 -0.02962295 0.19668408
v -0.02633517 -0.02634207 0.19715342
v -0.01337530 -0.02447461 0.19584625
v -0.02835393 -0.02423970 0.19728687
v -0.03033097 -0.02201494 0.19782520
v -0.03103384 -0.02099040 0.19782520
v -0.03280869 -0.01846953 0.19880861
v -0.03305261 -0.01733248 0.19800489
v -0.03298200 -0.01704229 0.19751812
v -0.02921728 -0.02356457 0.19791239
v -0.00307609 -0.03177467 0.20352017
v -0.00037371 -0.03393627 0.20333972
v -0.02357181 -0.01742526 0.20307055
v -0.02525037 -0.01704229 0.20299776
v -0.00037371 -0.03720530 0.19799428
v -0.00102523 -0.03720925 0.19929387
v -0.00307609 -0.03715990 0.19923473
v -0.00512694 -0.03706712 0.19830060
v -0.00512694 -0.03641371 0.19727549
v -0.01230333 -0.03485025 0.19679933
v -0.01127630 -0.03493514 0.19674929
v -0.01537801 -0.03305584 0.19669090
v -0.01735184 -0.03174704 0.19665982
v -0.02056774 -0.03078962 0.19677431
v -0.01947331 -0.03100282 0.19671441
v -0.02676203 -0.02676254 0.19851973
v -0.02755798 -0.02550310 0.19790329
v -0.02417198 -0.02832008 0.19736117
v -0.02548787 -0.02754032 0.19794045
v -0.02875512 -0.02466610 0.19865393
v -0.03280869 -0.01846953 0.19886623
v -0.03315852 -0.01704229 0.19797835
v -0.00512694 -0.03177467 0.20338976
v -0.00307609 -0.03356119 0.20324797
v -0.01537801 -0.02562549 0.20320930
v -0.01332716 -0.02767456 0.20322750
v -0.01544862 -0.02776142 0.20308723
v -0.01127630 -0.02972363 0.20318049
v -0.00037371 -0.03485618 0.20300914
v -0.00107337 -0.03399351 0.20327451
v -0.02513482 -0.01742526 0.20299473
v -0.02358465 -0.01942893 0.20301596
v -0.01947331 -0.02357642 0.20308951
v -0.02626135 -0.01704229 0.20290981
v -0.00037371 -0.03720530 0.19929159
v -0.00037371 -0.03489368 0.20299321
v -0.00042185 -0.03489171 0.20299245
v -0.00512694 -0.03706712 0.19911114
v -0.00658084 -0.03697237 0.19858872
v -0.01127630 -0.03547406 0.19782520
v -0.01312496 -0.03501213 0.19800869
v -0.01437666 -0.03485815 0.19881391
v -0.01735184 -0.03312493 0.19791846
v -0.01662650 -0.03289002 0.19674322
v -0.01853935 -0.03285053 0.19866303
v -0.02092720 -0.03102848 0.19782520
v -0.02464056 -0.02873660 0.19872747
v -0.02676203 -0.02676254 0.19899058
v -0.02875512 -0.02466610 0.19892916
v -0.03107557 -0.02104765 0.19927567
v -0.03306223 -0.01742526 0.19919075
v -0.03315210 -0.01704229 0.19926960
v -0.01313780 -0.02966046 0.20304780
v -0.01127630 -0.03095149 0.20301444
v -0.00512694 -0.03323942 0.20314789
v -0.00178909 -0.03478906 0.20290298
v -0.01742245 -0.02562549 0.20311680
v -0.01742245 -0.02703299 0.20300761
v -0.01481315 -0.02893401 0.20300914
v -0.02477857 -0.01871432 0.20296971
v -0.02291066 -0.02104370 0.20298639
v -0.02094646 -0.02357642 0.20298866
v -0.02615865 -0.01742526 0.20289692
v -0.02765427 -0.01704229 0.20262547
v -0.00658084 -0.03697237 0.19896632
v -0.01437666 -0.03485815 0.19886623
v -0.01853935 -0.03285053 0.19892840
v -0.02464056 -0.02873660 0.19890187
v -0.02544293 -0.02753637 0.19929766
v -0.02567081 -0.02566892 0.20042285
v -0.02753551 -0.02545967 0.19931889
v -0.02770883 -0.02361787 0.20037508
v -0.02918198 -0.02357642 0.19931130
v -0.03030850 -0.01947630 0.20063895
v -0.03177202 -0.01748843 0.20029850
v -0.02979499 -0.02160236 0.20001266
v -0.03294669 -0.01704229 0.19946067
v -0.01233222 -0.03076001 0.20295530
v -0.00677661 -0.03299464 0.20305008
v -0.00814385 -0.03275183 0.20293786
v -0.00307609 -0.03458573 0.20274300
v -0.01127630 -0.03538720 0.19945764
v -0.02052922 -0.02462662 0.20295530
v -0.01928716 -0.02543598 0.20299245
v -0.01847837 -0.02667371 0.20295606
v -0.01617717 -0.02850169 0.20291815
v -0.02427789 -0.02008036 0.20291663
v -0.02243244 -0.02241172 0.20294014
v -0.02552638 -0.01942893 0.20278167
v -0.02767352 -0.01742526 0.20257619
v -0.02981745 -0.01704229 0.20173381
v -0.01332716 -0.03505161 0.19911720
v -0.01742245 -0.03313677 0.19923624
v -0.02099781 -0.03108178 0.19924155
v -0.02357181 -0.02914326 0.19927794
v -0.02360711 -0.02769035 0.20034400
v -0.02638652 -0.02433051 0.20077770
v -0.02431320 -0.02638155 0.20076936
v -0.02841491 -0.02215905 0.20075116
v -0.03070968 -0.01704229 0.20125841
v -0.03129702 -0.01704229 0.20086489
v -0.02893485 -0.02079300 0.20101578
v -0.02928147 -0.01947630 0.20127812
v -0.03191324 -0.01704229 0.20036977
v -0.01369625 -0.03030005 0.20280138
v -0.01537801 -0.03136210 0.20147374
v -0.01127630 -0.03197603 0.20243365
v -0.00512694 -0.03426396 0.20242303
v -0.01127630 -0.03329865 0.20140854
v -0.01127630 -0.03432318 0.20048199
v -0.01984561 -0.02599464 0.20279001
v -0.02197349 -0.02357642 0.20284005
v -0.01742245 -0.02805555 0.20275361
v -0.02358465 -0.02164776 0.20283323
v -0.02562267 -0.02152537 0.20232143
v -0.02767352 -0.01947630 0.20211747
v -0.02984313 -0.01748843 0.20159127
v -0.01744492 -0.03175691 0.20030988
v -0.01932246 -0.03176875 0.19946371
v -0.01947331 -0.03023688 0.20058208
v -0.02154984 -0.02975324 0.19998763
v -0.02210508 -0.02838325 0.20073448
v -0.02501928 -0.02501550 0.20113179
v -0.02705088 -0.02296446 0.20111814
v -0.02294596 -0.02701917 0.20111283
v -0.02360711 -0.02566892 0.20149498
v -0.02770883 -0.02149576 0.20139792
v -0.01544862 -0.02966046 0.20257013
v -0.01744492 -0.02981839 0.20170121
v -0.01677735 -0.03106204 0.20113027
v -0.02357181 -0.02357642 0.20238815
v -0.02133480 -0.02543598 0.20248976
v -0.01928716 -0.02748307 0.20236844
v -0.01947331 -0.02921235 0.20131755
v -0.02567081 -0.02361787 0.20148891
v -0.02073784 -0.02888268 0.20100289
v -0.02146318 -0.02769035 0.20140399
f 1 2 6
f 1 6 10
f 1 10 18
f 1 18 29
f 1 29 48
f 1 48 72
f 1 72 95
f 1 95 125
f 1 125 150
f 1 150 177
f 1 177 174
f 1 174 173
f 1 173 164
f 1 164 137
f 1 137 107
f 1 107 77
f 1 77 50
f 1 50 32
f 1 32 31
f 1 31 21
f 1 21 20
f 1 20 13
f 1 13 11
f 1 11 7
f 1 7 3
f 1 3 4
f 1 4 5
f 1 5 2
f 2 5 6
f 3 7 8
f 3 8 4
f 4 8 12
f 4 12 19
f 4 19 30
f 4 30 49
f 4 49 75
f 4 75 102
f 4 102 109
f 4 109 108
f 4 108 78
f 4 78 51
f 4 51 33
f 4 33 22
f 4 22 14
f 4 14 9
f 4 9 5
f 5 9 6
f 6 9 14
f 6 14 24
f 6 24 38
f 6 38 60
f 6 60 66
f 6 66 44
f 6 44 43
f 6 43 42
f 6 42 27
f 6 27 15
f 6 15 10
f 7 11 8
f 8 11 13
f 8 13 12
f 10 15 16
f 10 16 17
f 10 17 18
f 12 13 20
f 12 20 21
f 12 21 19
f 14 22 23
f 14 23 24
f 15 25 26
f 15 26 16
f 15 27 25
f 16 26 28
f 16 28 17
f 17 28 29
f 17 29 18
f 19 21 31
f 19 31 32
f 19 32 30
f 22 33 34
f 22 34 23
f 23 34 35
f 23 35 24
f 24 36 37
f 24 37 38
f 24 35 36
f 25 39 40
f 25 40 41
f 25 41 26
f 25 27 42
f 25 42 43
f 25 43 44
f 25 44 39
f 26 45 28
f 26 41 45
f 28 45 46
f 28 46 47
f 28 47 29
f 29 47 46
f 29 46 48
f 30 32 49
f 32 50 49
f 33 51 34
f 34 51 52
f 34 52 53
f 34 53 54
f 34 54 55
f 34 55 56
f 34 56 57
f 34 57 35
f 35 57 36
f 36 57 56
f 36 56 37
f 37 56 55
f 37 55 58
f 37 58 59
f 37 59 60
f 37 60 38
f 39 61 40
f 39 44 62
f 39 62 63
f 39 63 64
f 39 64 61
f 40 65 41
f 40 61 65
f 41 65 45
f 44 66 62
f 45 65 67
f 45 67 46
f 46 68 69
f 46 69 70
f 46 70 71
f 46 71 72
f 46 72 48
f 46 67 73
f 46 73 68
f 49 74 75
f 49 50 76
f 49 76 74
f 50 77 76
f 51 78 52
f 52 78 108
f 52 108 79
f 52 79 80
f 52 80 53
f 53 80 111
f 53 111 81
f 53 81 54
f 54 81 82
f 54 82 83
f 54 83 84
f 54 84 55
f 55 84 85
f 55 85 58
f 58 85 59
f 59 85 86
f 59 86 63
f 59 63 60
f 60 63 66
f 61 64 87
f 61 87 65
f 62 66 63
f 63 86 64
f 64 86 88
f 64 88 87
f 65 89 90
f 65 90 67
f 65 87 91
f 65 91 92
f 65 92 89
f 67 90 93
f 67 93 73
f 68 73 93
f 68 93 69
f 69 93 70
f 70 94 95
f 70 95 71
f 70 93 122
f 70 122 94
f 71 95 72
f 74 96 97
f 74 97 75
f 74 76 98
f 74 98 99
f 74 99 100
f 74 100 101
f 74 101 96
f 75 97 103
f 75 103 102
f 76 77 104
f 76 104 105
f 76 105 106
f 76 106 98
f 77 107 104
f 79 108 109
f 79 109 80
f 80 109 110
f 80 110 111
f 81 111 138
f 81 138 112
f 81 112 83
f 81 83 82
f 83 112 113
f 83 113 114
f 83 114 115
f 83 115 116
f 83 116 117
f 83 117 85
f 83 85 84
f 85 117 86
f 86 117 88
f 87 118 119
f 87 119 120
f 87 120 91
f 87 88 117
f 87 117 116
f 87 116 118
f 89 92 120
f 89 120 141
f 89 141 121
f 89 121 122
f 89 122 93
f 89 93 90
f 91 120 92
f 94 123 124
f 94 124 95
f 94 122 123
f 95 124 125
f 96 101 126
f 96 126 127
f 96 127 128
f 96 128 97
f 97 129 103
f 97 128 129
f 98 106 130
f 98 130 99
f 99 130 100
f 100 130 131
f 100 131 132
f 100 132 101
f 101 132 126
f 102 103 110
f 102 110 109
f 103 129 110
f 104 107 133
f 104 133 105
f 105 133 134
f 105 134 106
f 106 135 130
f 106 134 135
f 107 136 133
f 107 137 136
f 110 129 111
f 111 129 138
f 112 114 113
f 112 138 139
f 112 139 115
f 112 115 114
f 115 139 140
f 115 140 118
f 115 118 116
f 118 140 141
f 118 141 120
f 118 120 119
f 121 141 142
f 121 142 143
f 121 143 144
f 121 144 122
f 122 144 145
f 122 145 146
f 122 146 123
f 123 147 148
f 123 148 124
f 123 146 149
f 123 149 147
f 124 150 125
f 124 148 150
f 126 151 127
f 126 132 151
f 127 151 152
f 127 152 128
f 128 152 129
f 129 152 153
f 129 153 154
f 129 154 155
f 129 155 138
f 130 135 156
f 130 156 157
f 130 157 131
f 131 157 158
f 131 158 132
f 132 158 159
f 132 159 151
f 133 136 160
f 133 160 161
f 133 161 134
f 134 161 135
f 135 161 156
f 136 162 160
f 136 137 163
f 136 163 162
f 137 164 163
f 138 155 165
f 138 165 139
f 139 165 166
f 139 166 140
f 140 166 167
f 140 167 141
f 141 167 168
f 141 168 142
f 142 168 169
f 142 169 143
f 143 170 145
f 143 145 144
f 143 169 171
f 143 171 170
f 145 172 146
f 145 170 172
f 146 172 149
f 147 173 174
f 147 174 148
f 147 149 172
f 147 172 175
f 147 175 176
f 147 176 173
f 148 177 150
f 148 174 177
f 151 159 178
f 151 178 179
f 151 179 180
f 151 180 153
f 151 153 152
f 153 181 154
f 153 180 179
f 153 179 182
f 153 182 183
f 153 183 181
f 154 181 183
f 154 183 155
f 155 183 165
f 156 184 158
f 156 158 157
f 156 161 185
f 156 185 184
f 158 184 186
f 158 186 159
f 159 186 178
f 160 162 161
f 161 162 187
f 161 187 185
f 162 163 188
f 162 188 187
f 163 164 189
f 163 189 188
f 164 173 190
f 164 190 189
f 165 183 182
f 165 182 166
f 166 179 191
f 166 191 192
f 166 192 167
f 166 182 179
f 167 192 193
f 167 193 194
f 167 194 168
f 168 195 169
f 168 194 195
f 169 195 171
f 170 171 196
f 170 196 197
f 170 197 172
f 171 195 198
f 171 198 199
f 171 199 196
f 172 197 200
f 172 200 175
f 173 176 190
f 175 200 189
f 175 189 176
f 176 189 190
f 178 186 201
f 178 201 179
f 179 201 202
f 179 202 203
f 179 203 191
f 184 185 204
f 184 204 205
f 184 205 206
f 184 206 186
f 185 187 188
f 185 188 204
f 186 206 207
f 186 207 201
f 188 208 204
f 188 189 200
f 188 200 208
f 191 193 192
f 191 203 193
f 193 203 207
f 193 207 209
f 193 209 194
f 194 209 195
f 195 209 210
f 195 210 198
f 196 208 197
f 196 199 208
f 197 208 200
f 198 210 199
f 199 210 206
f 199 206 205
f 199 205 204
f 199 204 208
f 201 207 202
f 202 207 203
f 206 210 207
f 207 210 209

