# https://github.com/mikedh/trimesh
v 0.07838237 0.00836308 0.03766736
v 0.07838237 0.00836137 0.03712382
v 0.06443663 0.00882551 0.02287494
v 0.07703067 0.00825386 0.03766736
v 0.07897584 0.00814124 0.03766736
v 0.07928555 0.00802691 0.03712382
v 0.07363310 0.00841597 0.02762626
v 0.06571968 0.00875726 0.02287494
v 0.07922757 0.00796889 0.03603674
v 0.07815658 0.00820950 0.03395571
v 0.07679877 0.00832041 0.03237419
v 0.06443663 0.00850129 0.02132052
v 0.06443663 0.00823680 0.02405007
v 0.07650738 0.00784774 0.03766736
v 0.07928097 0.00802521 0.03766736
v 0.07967153 0.00712422 0.03712382
v 0.06888688 0.00860709 0.02445984
v 0.07683081 0.00818390 0.03082146
v 0.07536774 0.00826410 0.02905877
v 0.07481852 0.00810541 0.02762626
v 0.07363310 0.00810541 0.02651209
v 0.07212884 0.00833065 0.02594823
v 0.06728192 0.00840915 0.02280891
v 0.07789875 0.00812588 0.03237419
v 0.07944879 0.00722660 0.03552029
v 0.07909789 0.00782044 0.03498014
v 0.06888688 0.00820438 0.02334736
v 0.06674338 0.00805933 0.02196904
v 0.06443663 0.00734434 0.02059580
v 0.06443663 0.00712422 0.02459023
v 0.07573847 0.00684436 0.03766736
v 0.07605885 0.00736482 0.03766736
v 0.07623734 0.00763614 0.03766736
v 0.07966237 0.00712422 0.03766736
v 0.07996903 0.00554066 0.03712382
v 0.07981341 0.00554066 0.03554061
v 0.07036674 0.00826581 0.02446831
v 0.07769889 0.00799961 0.03137008
v 0.07632583 0.00809517 0.02948886
v 0.07599630 0.00789552 0.02843734
v 0.07443406 0.00792282 0.02682704
v 0.07165437 0.00812418 0.02500169
v 0.07931148 0.00671638 0.03395571
v 0.07894686 0.00750816 0.03395571
v 0.06977327 0.00797913 0.02361321
v 0.06772283 0.00712422 0.02228060
v 0.06443663 0.00712422 0.02052468
v 0.07528536 0.00554066 0.03766736
v 0.06443663 0.00554066 0.02488147
v 0.07501227 0.00395882 0.03766736
v 0.07995682 0.00554066 0.03766736
v 0.07996903 0.00499973 0.03766736
v 0.07999954 0.00395882 0.03712382
v 0.07986376 0.00395882 0.03554061
v 0.07955863 0.00395882 0.03395571
v 0.07949608 0.00554066 0.03395571
v 0.07920164 0.00641264 0.03309891
v 0.07867682 0.00701330 0.03249103
v 0.07789570 0.00706279 0.03082146
v 0.07738004 0.00755082 0.03031348
v 0.07764855 0.00649455 0.02991387
v 0.07620378 0.00683925 0.02820875
v 0.07457441 0.00712422 0.02670343
v 0.07270552 0.00752011 0.02535728
v 0.07212884 0.00704572 0.02487808
v 0.07070390 0.00712422 0.02400943
v 0.06991210 0.00712422 0.02353363
v 0.06888688 0.00712422 0.02293929
v 0.07074204 0.00554066 0.02395864
v 0.06888688 0.00554066 0.02291050
v 0.06775182 0.00554066 0.02227214
v 0.06443663 0.00554066 0.02040785
v 0.06443663 0.00397417 0.02500169
v 0.07489785 0.00237526 0.03766736
v 0.07998886 0.00395882 0.03766736
v 0.08001479 0.00237526 0.03712382
v 0.07988817 0.00237526 0.03554061
v 0.07958304 0.00237526 0.03395571
v 0.07927334 0.00395882 0.03290419
v 0.07923978 0.00554066 0.03299562
v 0.07892855 0.00554066 0.03220487
v 0.07825117 0.00554066 0.03079099
v 0.07770805 0.00554066 0.02983429
v 0.07710390 0.00554066 0.02904353
v 0.07631057 0.00554066 0.02809868
v 0.07550200 0.00554066 0.02730623
v 0.07287639 0.00646554 0.02522690
v 0.07349427 0.00704572 0.02584325
v 0.07470867 0.00554066 0.02658998
v 0.07080612 -0.00554080 0.02393324
v 0.07001279 -0.00554080 0.02347097
v 0.06888536 -0.00554080 0.02283092
v 0.06444274 -0.00554080 0.02036890
v 0.06443663 0.00006477 0.02047558
v 0.06443663 0.00372674 0.02501354
v 0.06443663 0.00275750 0.02505418
v 0.06443663 0.00237526 0.02506773
v 0.07487649 0.00133264 0.03766736
v 0.08000259 0.00237526 0.03766736
v 0.08000564 0.00183262 0.03766736
v 0.08001175 0.00054257 0.03766736
v 0.08002242 0.00006477 0.03712382
v 0.07989732 0.00079171 0.03554061
v 0.07928249 0.00237526 0.03287710
v 0.07959220 0.00079171 0.03395571
v 0.07897432 0.00237526 0.03208464
v 0.07896364 0.00395882 0.03211343
v 0.07831372 0.00395882 0.03079099
v 0.07773398 0.00395882 0.02980381
v 0.07710543 0.00395882 0.02901474
v 0.07710390 -0.00395896 0.02901136
v 0.07630752 -0.00554080 0.02809868
v 0.07550504 -0.00554080 0.02730793
v 0.07471325 -0.00554080 0.02658998
v 0.07368650 -0.00554080 0.02579922
v 0.07289470 -0.00554080 0.02521335
v 0.07205255 -0.00554080 0.02468844
v 0.07289165 -0.00644520 0.02521504
v 0.06992278 -0.00682403 0.02352516
v 0.06444274 -0.00670458 0.02052807
v 0.06444274 -0.00712436 0.02058903
v 0.06444274 -0.00834956 0.02137640
v 0.06444274 -0.00842977 0.02160499
v 0.06444274 -0.00860723 0.02287494
v 0.06443663 0.00006477 0.02510837
v 0.06443663 0.00079171 0.02510498
v 0.07486581 0.00079171 0.03766736
v 0.08001175 0.00006477 0.03766736
v 0.07985307 -0.00554080 0.03551352
v 0.07989121 -0.00395896 0.03551352
v 0.07989732 -0.00237540 0.03551352
v 0.07989885 0.00006477 0.03554061
v 0.07960440 -0.00237540 0.03395740
v 0.07959525 0.00006477 0.03395571
v 0.07928860 0.00006477 0.03286355
v 0.07897584 0.00079171 0.03207449
v 0.07832135 0.00237526 0.03079099
v 0.07912230 0.00006307 0.03243685
v 0.07833050 -0.00237540 0.03079099
v 0.07774008 -0.00395896 0.02980211
v 0.07709780 -0.00554080 0.02904184
v 0.07619920 -0.00672164 0.02821044
v 0.07461713 -0.00670970 0.02667126
v 0.07258347 -0.00749977 0.02545887
v 0.07205713 -0.00703392 0.02490687
v 0.06965732 -0.00788030 0.02368602
v 0.06903182 -0.00726087 0.02314587
v 0.06762061 -0.00712436 0.02233310
v 0.06658014 -0.00795709 0.02204863
v 0.06571816 -0.00815162 0.02181326
v 0.06860007 -0.00814479 0.02337954
v 0.07046896 -0.00819940 0.02473923
v 0.06571816 -0.00852362 0.02287494
v 0.06444274 -0.00856116 0.02314079
v 0.07046896 -0.00835639 0.02604136
v 0.07680030 -0.00818063 0.03237419
v 0.07811386 -0.00815162 0.03395740
v 0.07847849 -0.00816356 0.03551352
v 0.07708102 -0.00819428 0.03551352
v 0.06444274 -0.00816186 0.02396033
v 0.06444274 -0.00795709 0.02412288
v 0.06444274 -0.00715507 0.02452080
v 0.06444274 -0.00660561 0.02464949
v 0.06444274 -0.00554080 0.02489163
v 0.06444274 -0.00512273 0.02492888
v 0.06444274 -0.00391459 0.02502709
v 0.06444274 -0.00237540 0.02508297
v 0.06444274 -0.00079185 0.02511345
v 0.07487649 0.00006477 0.03766736
v 0.07914518 -0.00788712 0.03551352
v 0.07943658 -0.00726599 0.03551352
v 0.07945794 -0.00721821 0.03551352
v 0.07954948 -0.00554080 0.03395740
v 0.07960134 -0.00395896 0.03395740
v 0.07934047 -0.00675236 0.03395740
v 0.07921994 -0.00645374 0.03304812
v 0.07929470 -0.00237540 0.03285678
v 0.07897737 -0.00079185 0.03206941
v 0.07897584 -0.00237540 0.03206433
v 0.07833050 -0.00395896 0.03079099
v 0.07771110 -0.00554080 0.02983259
v 0.07765465 -0.00647763 0.02990710
v 0.07525179 -0.00724381 0.02758224
v 0.07588950 -0.00777792 0.02856941
v 0.07430438 -0.00776426 0.02695403
v 0.07153231 -0.00805265 0.02507619
v 0.07205713 -0.00821817 0.02600919
v 0.07324712 -0.00810043 0.02651548
v 0.07371854 -0.00821134 0.02753990
v 0.07530366 -0.00816868 0.02914005
v 0.07679115 -0.00809189 0.03089935
v 0.07781637 -0.00804582 0.03237419
v 0.07629074 -0.00761581 0.03551352
v 0.07628159 -0.00760557 0.03551352
v 0.07572016 -0.00682573 0.03551352
v 0.07908416 -0.00782569 0.03502247
v 0.07926571 -0.00554080 0.03292789
v 0.07929164 -0.00395896 0.03286186
v 0.07890566 -0.00754414 0.03395740
v 0.07862190 -0.00703904 0.03246055
v 0.07786976 -0.00705269 0.03089935
v 0.07894991 -0.00554080 0.03213714
v 0.07897432 -0.00395896 0.03207110
v 0.07827710 -0.00554080 0.03079099
v 0.07731291 -0.00753219 0.03044386
v 0.07763024 -0.00794514 0.03149877
v 0.07625718 -0.00804923 0.02962432
v 0.07483377 -0.00809360 0.02800894
f 1 2 3
f 1 3 4
f 1 4 14
f 1 14 33
f 1 33 32
f 1 32 31
f 1 31 48
f 1 48 50
f 1 50 74
f 1 74 98
f 1 98 127
f 1 127 169
f 1 169 128
f 1 128 101
f 1 101 100
f 1 100 99
f 1 99 75
f 1 75 52
f 1 52 51
f 1 51 34
f 1 34 15
f 1 15 5
f 1 5 6
f 1 6 2
f 2 7 8
f 2 8 3
f 2 6 9
f 2 9 10
f 2 10 11
f 2 11 7
f 3 8 12
f 3 12 29
f 3 29 47
f 3 47 72
f 3 72 94
f 3 94 125
f 3 125 126
f 3 126 97
f 3 97 96
f 3 96 95
f 3 95 73
f 3 73 49
f 3 49 30
f 3 30 13
f 3 13 4
f 4 13 14
f 5 15 6
f 6 15 16
f 6 16 9
f 7 17 8
f 7 11 18
f 7 18 19
f 7 19 20
f 7 20 21
f 7 21 22
f 7 22 17
f 8 17 23
f 8 23 12
f 9 24 10
f 9 16 25
f 9 25 26
f 9 26 24
f 10 24 11
f 11 24 18
f 12 23 27
f 12 27 28
f 12 28 29
f 13 30 31
f 13 31 32
f 13 32 33
f 13 33 14
f 15 34 16
f 16 34 35
f 16 35 36
f 16 36 25
f 17 22 37
f 17 37 23
f 18 24 38
f 18 38 39
f 18 39 19
f 19 39 20
f 20 39 40
f 20 40 41
f 20 41 21
f 21 41 42
f 21 42 22
f 22 42 37
f 23 37 27
f 24 26 38
f 25 36 43
f 25 43 26
f 26 43 44
f 26 44 38
f 27 42 45
f 27 45 28
f 27 37 42
f 28 45 46
f 28 46 47
f 28 47 29
f 30 48 31
f 30 49 50
f 30 50 48
f 34 51 35
f 35 51 52
f 35 52 53
f 35 53 54
f 35 54 36
f 36 54 55
f 36 55 56
f 36 56 57
f 36 57 43
f 38 40 39
f 38 44 58
f 38 58 59
f 38 59 60
f 38 60 40
f 40 60 61
f 40 61 62
f 40 62 41
f 41 62 63
f 41 63 64
f 41 64 42
f 42 64 45
f 43 57 44
f 44 57 58
f 45 64 65
f 45 65 66
f 45 66 67
f 45 67 68
f 45 68 46
f 46 68 69
f 46 69 70
f 46 70 71
f 46 71 72
f 46 72 47
f 49 73 74
f 49 74 50
f 52 75 53
f 53 75 76
f 53 76 77
f 53 77 54
f 54 77 78
f 54 78 55
f 55 78 79
f 55 79 80
f 55 80 56
f 56 80 57
f 57 80 81
f 57 81 82
f 57 82 61
f 57 61 59
f 57 59 58
f 59 61 60
f 61 82 83
f 61 83 84
f 61 84 62
f 62 84 85
f 62 85 86
f 62 86 63
f 63 87 88
f 63 88 64
f 63 86 89
f 63 89 87
f 64 88 87
f 64 87 65
f 65 87 66
f 66 87 67
f 67 87 68
f 68 87 69
f 69 87 90
f 69 90 91
f 69 91 92
f 69 92 70
f 70 92 71
f 71 92 72
f 72 92 93
f 72 93 94
f 73 95 74
f 74 95 96
f 74 96 97
f 74 97 98
f 75 99 76
f 76 99 100
f 76 100 101
f 76 101 102
f 76 102 103
f 76 103 77
f 77 103 105
f 77 105 78
f 78 104 79
f 78 105 104
f 79 104 106
f 79 106 107
f 79 107 80
f 80 107 81
f 81 107 82
f 82 107 108
f 82 108 83
f 83 108 109
f 83 109 84
f 84 109 110
f 84 110 85
f 85 110 111
f 85 111 112
f 85 112 113
f 85 113 86
f 86 113 114
f 86 114 89
f 87 89 115
f 87 115 116
f 87 116 117
f 87 117 90
f 89 114 115
f 90 117 118
f 90 118 91
f 91 118 119
f 91 119 92
f 92 119 93
f 93 119 120
f 93 120 94
f 94 120 121
f 94 121 122
f 94 122 123
f 94 123 124
f 94 124 125
f 97 126 127
f 97 127 98
f 101 128 102
f 102 128 129
f 102 129 130
f 102 130 131
f 102 131 132
f 102 132 103
f 103 132 133
f 103 133 134
f 103 134 105
f 104 105 135
f 104 135 106
f 105 134 135
f 106 136 137
f 106 137 108
f 106 108 107
f 106 135 138
f 106 138 136
f 108 137 109
f 109 137 139
f 109 139 140
f 109 140 110
f 110 140 111
f 111 140 141
f 111 141 112
f 112 141 142
f 112 142 113
f 113 142 143
f 113 143 114
f 114 143 118
f 114 118 115
f 115 118 116
f 116 118 117
f 118 143 144
f 118 144 145
f 118 145 146
f 118 146 119
f 119 147 148
f 119 148 121
f 119 121 120
f 119 146 147
f 121 148 147
f 121 147 146
f 121 146 149
f 121 149 122
f 122 149 150
f 122 150 151
f 122 151 123
f 123 151 152
f 123 152 153
f 123 153 124
f 124 154 125
f 124 153 155
f 124 155 156
f 124 156 157
f 124 157 158
f 124 158 159
f 124 159 154
f 125 154 160
f 125 160 161
f 125 161 162
f 125 162 163
f 125 163 164
f 125 164 165
f 125 165 166
f 125 166 167
f 125 167 168
f 125 168 127
f 125 127 126
f 127 168 169
f 128 169 159
f 128 159 158
f 128 158 170
f 128 170 171
f 128 171 172
f 128 172 129
f 129 173 174
f 129 174 130
f 129 172 175
f 129 175 176
f 129 176 173
f 130 174 131
f 131 174 133
f 131 133 132
f 133 174 177
f 133 177 135
f 133 135 134
f 135 177 138
f 136 138 178
f 136 178 137
f 137 178 139
f 138 177 178
f 139 178 179
f 139 179 180
f 139 180 140
f 140 180 181
f 140 181 141
f 141 181 182
f 141 182 142
f 142 183 143
f 142 182 184
f 142 184 183
f 143 183 185
f 143 185 144
f 144 185 186
f 144 186 146
f 144 146 145
f 146 186 151
f 146 151 149
f 149 151 150
f 151 186 152
f 152 187 153
f 152 186 188
f 152 188 187
f 153 187 189
f 153 189 155
f 154 159 160
f 155 189 190
f 155 190 156
f 156 190 157
f 157 190 191
f 157 191 192
f 157 192 170
f 157 170 158
f 159 169 193
f 159 193 160
f 160 193 194
f 160 194 161
f 161 194 195
f 161 195 162
f 162 195 169
f 162 169 163
f 163 169 164
f 164 169 165
f 165 169 166
f 166 169 167
f 167 169 168
f 169 195 194
f 169 194 193
f 170 192 196
f 170 196 171
f 171 196 172
f 172 196 175
f 173 176 197
f 173 197 174
f 174 197 198
f 174 198 177
f 175 196 199
f 175 199 176
f 176 199 200
f 176 200 201
f 176 201 182
f 176 182 202
f 176 202 197
f 177 198 203
f 177 203 179
f 177 179 178
f 179 203 180
f 180 203 204
f 180 204 181
f 181 204 182
f 182 201 205
f 182 205 184
f 182 204 202
f 183 184 185
f 184 206 207
f 184 207 208
f 184 208 185
f 184 205 206
f 185 208 188
f 185 188 186
f 187 188 189
f 188 208 189
f 189 208 190
f 190 208 207
f 190 207 191
f 191 207 192
f 192 207 206
f 192 206 196
f 196 206 199
f 197 202 198
f 198 202 203
f 199 206 200
f 200 206 201
f 201 206 205
f 202 204 203

