# https://github.com/mikedh/trimesh
v 0.01274954 -0.00291603 0.15485251
v 0.01274406 -0.00209957 0.15485251
v 0.01255932 -0.00485073 0.15485251
v 0.01227033 -0.00346136 0.15381139
v 0.01230143 -0.00209344 0.15374493
v 0.01230143 -0.00202604 0.15374493
v 0.01274223 -0.00198468 0.15485251
v 0.01252823 -0.00512646 0.15485251
v 0.01162102 -0.00512646 0.15272395
v 0.01029862 -0.00449228 0.14955023
v 0.01088025 -0.00307534 0.15067392
v 0.01190086 -0.00289612 0.15292734
v 0.01229960 -0.00198468 0.15374896
v 0.01231789 -0.00198468 0.15378924
v 0.01032971 -0.00307534 0.14949184
v 0.01031142 -0.00198468 0.14953211
v 0.00866162 -0.00198468 0.15485251
v 0.01233984 -0.00594905 0.15485251
v 0.01021082 -0.00585867 0.14973550
v 0.01065345 -0.00515556 0.15052088
v 0.00981209 -0.00515556 0.14876889
v 0.00870734 -0.00512646 0.14678733
v 0.00978648 -0.00307534 0.14846682
v 0.00876221 -0.00307534 0.14671483
v 0.00867442 -0.00198468 0.14686184
v -0.00593603 -0.01763381 0.15043227
v 0.00385853 -0.01101939 0.15485251
v -0.00593603 -0.00198468 0.13890138
v 0.01196305 -0.00710711 0.15485251
v 0.01106316 -0.00717604 0.15272395
v 0.01044860 -0.00717604 0.15124986
v 0.00998585 -0.00717604 0.15022485
v 0.00920850 -0.00717604 0.14862390
v 0.00844579 -0.00717604 0.14719814
v 0.00780013 -0.00717604 0.14617313
v 0.00805437 -0.00512646 0.14576232
v 0.00810193 -0.00307534 0.14568982
v 0.00799950 -0.00198468 0.14583683
v 0.00057356 -0.01763381 0.15485251
v -0.00593603 -0.01763381 0.14291081
v -0.00593603 -0.00198468 0.13427976
v 0.01190269 -0.00724497 0.15485251
v 0.01025106 -0.00820236 0.15169692
v 0.00823728 -0.00825904 0.14753243
v 0.00644481 -0.00865885 0.14513402
v 0.00593450 -0.00764937 0.14377069
v 0.00667527 -0.00705043 0.14448156
v 0.00619240 -0.00628298 0.14345050
v 0.00715448 -0.00512646 0.14452586
v 0.00723130 -0.00307534 0.14452586
v 0.00639177 -0.00198468 0.14358744
v 0.00504376 -0.01763381 0.15485251
v -0.00593603 -0.01648035 0.14135617
v -0.00504345 -0.01763381 0.14287054
v -0.00512393 -0.00198468 0.13435225
v -0.00593603 -0.00307534 0.13443079
v 0.01086928 -0.00889015 0.15485251
v 0.01085648 -0.00887637 0.15477397
v 0.01045043 -0.00845358 0.15272395
v 0.00359881 -0.01763381 0.15145325
v 0.00850615 -0.00861902 0.14862390
v 0.00501998 -0.01763381 0.15477397
v 0.00434872 -0.01763381 0.15304615
v 0.00412923 -0.01763381 0.15257493
v 0.00235322 -0.01763381 0.14900248
v 0.00219958 -0.01661362 0.14734918
v 0.00600218 -0.01002370 0.14581468
v 0.00414386 -0.01031169 0.14344849
v 0.00448407 -0.00922562 0.14308802
v 0.00391889 -0.00770758 0.14163609
v 0.00416398 -0.00634119 0.14139041
v 0.00528885 -0.00512646 0.14233084
v 0.00627471 -0.00512646 0.14335585
v 0.00630397 -0.00307534 0.14332162
v 0.00624178 -0.00198468 0.14339210
v -0.00593603 -0.01626130 0.14112660
v -0.00557571 -0.01648495 0.14135215
v -0.00498492 -0.01715589 0.14228251
v -0.00420940 -0.01637925 0.14147096
v -0.00402650 -0.01763381 0.14310413
v -0.00452583 -0.00198468 0.13460398
v -0.00512393 -0.00307534 0.13452947
v -0.00593603 -0.00483081 0.13497653
v 0.00207521 -0.01763381 0.14854536
v 0.00125579 -0.01763381 0.14728876
v 0.00100156 -0.01739179 0.14663227
v 0.00174598 -0.01597791 0.14598182
v 0.00413472 -0.01234289 0.14549650
v 0.00446761 -0.01110670 0.14469703
v 0.00365551 -0.01167808 0.14413116
v 0.00229104 -0.01260023 0.14322899
v 0.00290377 -0.01103318 0.14265506
v 0.00215020 -0.01038675 0.14135819
v 0.00352565 -0.00922562 0.14206301
v 0.00250321 -0.00922562 0.14105612
v 0.00175147 -0.00717604 0.13962432
v 0.00317264 -0.00708566 0.14077419
v 0.00198559 -0.00580352 0.13944913
v 0.00290377 -0.00512186 0.14012777
v 0.00426458 -0.00512646 0.14129777
v 0.00534555 -0.00307534 0.14229661
v 0.00431945 -0.00307534 0.14123736
v 0.00476391 -0.00198468 0.14176094
v -0.00593603 -0.01444915 0.13931823
v -0.00585006 -0.01444762 0.13932025
v -0.00307357 -0.01609127 0.14172671
v -0.00307357 -0.01708082 0.14275172
v -0.00307357 -0.01763381 0.14338002
v -0.00448376 -0.01419487 0.13951155
v -0.00307357 -0.01506648 0.14084467
v -0.00373019 -0.00198468 0.13495840
v -0.00384725 -0.00307534 0.13506715
v -0.00403565 -0.00421655 0.13524839
v -0.00512393 -0.00466538 0.13504097
v -0.00562143 -0.01058435 0.13719571
v -0.00593603 -0.01030862 0.13705273
v 0.00085889 -0.01763381 0.14675511
v 0.00037968 -0.01680356 0.14509777
v 0.00106009 -0.01538663 0.14451176
v 0.00174049 -0.01396662 0.14392374
v 0.00037236 -0.01479687 0.14310615
v 0.00100887 -0.01329722 0.14248389
v 0.00164355 -0.01175467 0.14186364
v 0.00027725 -0.01262781 0.14121722
v 0.00098692 -0.01115266 0.14087689
v -0.00008124 -0.01013246 0.13945517
v 0.00103082 -0.00936042 0.13993646
v 0.00035042 -0.00876761 0.13915713
v 0.00072720 -0.00717604 0.13890339
v 0.00210630 -0.00443713 0.13935448
v 0.00119178 -0.00512186 0.13880472
v 0.00215935 -0.00307534 0.13931017
v 0.00318544 -0.00307534 0.14021235
v 0.00428470 -0.00198468 0.14126555
v 0.00372684 -0.00198468 0.14071982
v 0.00265136 -0.00198468 0.13972099
v -0.00593603 -0.01437562 0.13926789
v -0.00593603 -0.01279018 0.13835564
v -0.00514954 -0.01343661 0.13883492
v -0.00161581 -0.01672238 0.14316454
v -0.00171458 -0.01464063 0.14121521
v -0.00110917 -0.01763381 0.14463662
v -0.00307357 -0.01271818 0.13913095
v -0.00307357 -0.01374298 0.13981966
v 0.00036139 -0.00198468 0.13794685
v 0.00102533 -0.00307534 0.13847043
v -0.00111282 -0.00721893 0.13781394
v -0.00221025 -0.00793123 0.13741723
v -0.00296565 -0.00935736 0.13761055
v -0.00357655 -0.00876148 0.13713328
v -0.00425330 -0.01012634 0.13739709
v -0.00501236 -0.00935736 0.13685941
v -0.00501236 -0.01127061 0.13768103
v -0.00593603 -0.01148507 0.13764478
v -0.00593603 -0.01061805 0.13718161
v 0.00057539 -0.01763381 0.14640874
v -0.00083115 -0.01763381 0.14487626
v -0.00024951 -0.01616326 0.14373445
v -0.00034645 -0.01399420 0.14173879
v -0.00118416 -0.01316088 0.14053254
v -0.00202003 -0.01232757 0.13938267
v -0.00055131 -0.01127367 0.13977737
v -0.00157557 -0.01127367 0.13911685
v -0.00086773 -0.00936042 0.13866778
v 0.00217215 -0.00198468 0.13930011
v 0.00155759 -0.00198468 0.13882486
v -0.00099394 -0.01744540 0.14451579
v -0.00098113 -0.01540194 0.14245167
v -0.00307357 -0.01127367 0.13838182
v 0.00102533 -0.00198468 0.13843217
f 1 2 7
f 1 7 17
f 1 17 27
f 1 27 39
f 1 39 52
f 1 52 57
f 1 57 42
f 1 42 29
f 1 29 18
f 1 18 8
f 1 8 3
f 1 3 4
f 1 4 5
f 1 5 6
f 1 6 2
f 2 6 7
f 3 8 9
f 3 9 4
f 4 9 10
f 4 10 11
f 4 11 12
f 4 12 5
f 5 12 11
f 5 11 6
f 6 13 14
f 6 14 7
f 6 11 15
f 6 15 16
f 6 16 13
f 7 14 13
f 7 13 16
f 7 16 25
f 7 25 38
f 7 38 51
f 7 51 75
f 7 75 103
f 7 103 134
f 7 134 135
f 7 135 136
f 7 136 165
f 7 165 166
f 7 166 170
f 7 170 145
f 7 145 111
f 7 111 81
f 7 81 55
f 7 55 41
f 7 41 28
f 7 28 17
f 8 18 19
f 8 19 9
f 9 19 20
f 9 20 10
f 10 15 11
f 10 20 19
f 10 19 21
f 10 21 22
f 10 22 23
f 10 23 15
f 15 23 16
f 16 23 24
f 16 24 25
f 17 26 27
f 17 28 26
f 18 29 30
f 18 30 31
f 18 31 19
f 19 31 32
f 19 32 33
f 19 33 34
f 19 34 22
f 19 22 21
f 22 24 23
f 22 34 35
f 22 35 36
f 22 36 24
f 24 36 37
f 24 37 25
f 25 37 38
f 26 39 27
f 26 28 41
f 26 41 56
f 26 56 83
f 26 83 116
f 26 116 155
f 26 155 154
f 26 154 138
f 26 138 137
f 26 137 104
f 26 104 76
f 26 76 53
f 26 53 40
f 26 40 54
f 26 54 80
f 26 80 108
f 26 108 142
f 26 142 157
f 26 157 156
f 26 156 117
f 26 117 85
f 26 85 84
f 26 84 65
f 26 65 60
f 26 60 64
f 26 64 63
f 26 63 62
f 26 62 52
f 26 52 39
f 29 42 43
f 29 43 30
f 30 43 31
f 31 43 32
f 32 43 44
f 32 44 33
f 33 44 34
f 34 44 35
f 35 45 46
f 35 46 47
f 35 47 48
f 35 48 36
f 35 44 45
f 36 48 49
f 36 49 37
f 37 49 50
f 37 50 51
f 37 51 38
f 40 53 54
f 41 55 56
f 42 57 58
f 42 58 59
f 42 59 43
f 43 60 61
f 43 61 44
f 43 59 62
f 43 62 63
f 43 63 64
f 43 64 60
f 44 61 60
f 44 60 65
f 44 65 66
f 44 66 67
f 44 67 45
f 45 67 68
f 45 68 69
f 45 69 46
f 46 69 70
f 46 70 48
f 46 48 47
f 48 70 71
f 48 71 72
f 48 72 73
f 48 73 49
f 49 73 50
f 50 73 74
f 50 74 75
f 50 75 51
f 52 62 58
f 52 58 57
f 53 76 77
f 53 77 54
f 54 78 79
f 54 79 80
f 54 77 78
f 55 81 82
f 55 82 56
f 56 82 83
f 58 62 59
f 65 84 66
f 66 84 85
f 66 85 86
f 66 86 87
f 66 87 88
f 66 88 67
f 67 88 89
f 67 89 68
f 68 89 90
f 68 90 91
f 68 91 92
f 68 92 93
f 68 93 69
f 69 93 94
f 69 94 70
f 70 94 95
f 70 95 96
f 70 96 97
f 70 97 71
f 71 97 96
f 71 96 98
f 71 98 99
f 71 99 100
f 71 100 72
f 72 101 73
f 72 100 102
f 72 102 101
f 73 101 74
f 74 101 103
f 74 103 75
f 76 104 77
f 77 104 105
f 77 105 79
f 77 79 78
f 79 106 107
f 79 107 108
f 79 108 80
f 79 105 109
f 79 109 110
f 79 110 106
f 81 111 112
f 81 112 82
f 82 112 113
f 82 113 114
f 82 114 83
f 83 114 115
f 83 115 116
f 85 117 86
f 86 118 87
f 86 117 118
f 87 118 119
f 87 119 120
f 87 120 91
f 87 91 90
f 87 90 88
f 88 90 89
f 91 120 119
f 91 119 118
f 91 118 121
f 91 121 122
f 91 122 123
f 91 123 92
f 92 123 93
f 93 124 125
f 93 125 126
f 93 126 127
f 93 127 95
f 93 95 94
f 93 123 124
f 95 127 96
f 96 127 128
f 96 128 129
f 96 129 98
f 98 130 99
f 98 129 112
f 98 112 111
f 98 111 131
f 98 131 130
f 99 130 100
f 100 130 132
f 100 132 133
f 100 133 102
f 101 102 134
f 101 134 103
f 102 135 134
f 102 133 136
f 102 136 135
f 104 137 105
f 105 137 138
f 105 138 139
f 105 139 109
f 106 140 107
f 106 110 141
f 106 141 140
f 107 140 108
f 108 140 142
f 109 139 143
f 109 143 144
f 109 144 110
f 110 144 141
f 111 145 146
f 111 146 130
f 111 130 131
f 112 129 113
f 113 129 147
f 113 147 148
f 113 148 149
f 113 149 150
f 113 150 151
f 113 151 114
f 114 151 152
f 114 152 115
f 115 151 153
f 115 153 139
f 115 139 138
f 115 138 154
f 115 154 155
f 115 155 116
f 115 152 151
f 117 156 118
f 118 156 157
f 118 157 158
f 118 158 121
f 121 158 159
f 121 159 122
f 122 159 124
f 122 124 123
f 124 160 161
f 124 161 162
f 124 162 125
f 124 159 160
f 125 162 126
f 126 161 163
f 126 163 164
f 126 164 128
f 126 128 127
f 126 162 161
f 128 164 148
f 128 148 147
f 128 147 129
f 130 146 132
f 132 165 136
f 132 136 133
f 132 146 166
f 132 166 165
f 139 153 143
f 140 158 167
f 140 167 142
f 140 141 168
f 140 168 158
f 141 144 161
f 141 161 160
f 141 160 159
f 141 159 168
f 142 167 157
f 143 153 169
f 143 169 161
f 143 161 144
f 145 170 146
f 146 170 166
f 148 164 149
f 149 151 150
f 149 164 163
f 149 163 169
f 149 169 151
f 151 169 153
f 157 167 158
f 158 168 159
f 161 169 163

