# https://github.com/mikedh/trimesh
v -0.05854517 -0.00900272 0.02855689
v -0.05926770 -0.00410836 0.02851350
v -0.05890965 -0.00900272 0.02855689
v -0.04500170 -0.02665138 0.02854091
v -0.04500170 -0.02612884 0.02854091
v -0.04384404 -0.02694138 0.02853634
v -0.05877477 -0.00442572 0.02849752
v -0.05840066 -0.00410836 0.02802254
v -0.05742123 0.00005279 0.01900259
v -0.05930142 -0.00410836 0.02851350
v -0.04384404 -0.02685930 0.02853405
v -0.05885024 -0.00988091 0.02852264
v -0.05642895 -0.01566987 0.02850208
v -0.05648355 -0.01499960 0.02852264
v -0.05575138 -0.01611854 0.02852949
v -0.05334294 -0.01972980 0.02853862
v -0.04973830 -0.02334106 0.02854091
v -0.06003199 -0.00410836 0.02851122
v -0.06001593 -0.00490448 0.02849980
v -0.04740211 -0.02543395 0.02853405
v -0.04586713 -0.02648723 0.02852264
v -0.04430646 -0.02744750 0.02839019
v -0.04384404 -0.02699062 0.02852492
v -0.04409451 -0.02631214 0.02852035
v -0.05837979 -0.00410836 0.02799971
v -0.05563256 0.00005279 0.00522833
v -0.05945717 0.00005279 0.01900259
v -0.05770382 -0.00410836 0.02708401
v -0.05741963 -0.00410836 0.02648573
v -0.04384404 -0.02502905 0.02656108
v -0.04384404 -0.02465698 0.02548326
v -0.04384404 -0.02586894 0.02791293
v -0.06006088 -0.00631342 0.02751560
v -0.05897227 -0.01025024 0.02794719
v -0.05862866 -0.01068250 0.02839019
v -0.05773272 -0.01352226 0.02765946
v -0.05656061 -0.01590515 0.02788325
v -0.05532107 -0.01817313 0.02762293
v -0.05405102 -0.01928113 0.02851350
v -0.05532107 -0.01707060 0.02852264
v -0.05290460 -0.02052866 0.02852492
v -0.05053309 -0.02290060 0.02852492
v -0.04929675 -0.02407152 0.02852264
v -0.04850196 -0.02452019 0.02853405
v -0.06024553 -0.00410836 0.02788325
v -0.06023911 -0.00420138 0.02788325
v -0.06011708 -0.00534495 0.02790380
v -0.04803633 -0.02522329 0.02849980
v -0.04666673 -0.02628478 0.02837421
v -0.04384404 -0.02789617 0.02794719
v -0.04384404 -0.02787428 0.02798372
v -0.05794627 0.00005279 0.00522833
v -0.04384404 -0.02449283 0.02428212
v -0.04384404 -0.02435331 0.02302389
v -0.04384404 -0.02400039 0.01900488
v -0.04700552 -0.01986112 0.00522833
v -0.05945235 0.00005279 0.01893865
v -0.06020860 -0.00410836 0.02679172
v -0.06021502 -0.00410836 0.02689220
v -0.04384404 -0.02583885 0.02787868
v -0.04384404 -0.02508377 0.02665927
v -0.06006088 -0.00631342 0.02714567
v -0.05885666 -0.01093146 0.02758867
v -0.05773272 -0.01352226 0.02693101
v -0.05658309 -0.01593524 0.02689220
v -0.05532107 -0.01817313 0.02702236
v -0.05373471 -0.02007451 0.02668211
v -0.05371544 -0.02008545 0.02788325
v -0.05420997 -0.01948631 0.02788325
v -0.05311493 -0.02076940 0.02788325
v -0.05256902 -0.02137128 0.02788325
v -0.05172446 -0.02172420 0.02852264
v -0.05137765 -0.02257230 0.02788325
v -0.05077714 -0.02312220 0.02788325
v -0.05011402 -0.02372134 0.02788325
v -0.06020700 -0.00420138 0.02680999
v -0.06013314 -0.00540240 0.02698582
v -0.04879740 -0.02484575 0.02788325
v -0.04819690 -0.02534640 0.02788325
v -0.04689312 -0.02645714 0.02757497
v -0.04951351 -0.02424661 0.02788325
v -0.04456496 -0.02768278 0.02759096
v -0.04456496 -0.02768278 0.02711370
v -0.04384404 -0.02784145 0.02673691
v -0.05795269 -0.00052446 0.00522833
v -0.05831878 -0.00060107 0.00748674
v -0.05831075 0.00005279 0.00748674
v -0.04384404 -0.02647082 0.01900488
v -0.05009635 -0.01986112 0.00522833
v -0.05940097 0.00005279 0.01828328
v -0.05935762 0.00005279 0.01773751
v -0.05925646 0.00005279 0.01653866
v -0.05904934 0.00005279 0.01414095
v -0.05894497 0.00005279 0.01293981
v -0.05888717 0.00005279 0.01228444
v -0.05889199 -0.00060107 0.01228444
v -0.05881813 -0.00060107 0.01149205
v -0.05880849 -0.00131237 0.01159710
v -0.05761070 -0.00604258 0.00800282
v -0.05885666 -0.01093146 0.02714110
v -0.05859013 -0.00180208 0.00988673
v -0.05844723 -0.00300310 0.00988673
v -0.05823529 -0.00420412 0.00988673
v -0.05484901 -0.01259483 0.00522833
v -0.05542062 -0.01132815 0.00522833
v -0.05516372 -0.01192182 0.00522833
v -0.05422764 -0.01386150 0.00522833
v -0.05400445 -0.01440866 0.00564164
v -0.05370099 -0.01483271 0.00522833
v -0.05366727 -0.01489290 0.00522833
v -0.05310049 -0.01584222 0.00522833
v -0.05302823 -0.01595986 0.00522833
v -0.05264449 -0.01655627 0.00522833
v -0.05199902 -0.01748644 0.00522833
v -0.05182241 -0.01772993 0.00522833
v -0.05163134 -0.01803634 0.00544755
v -0.05139370 -0.01830171 0.00522833
v -0.05047689 -0.01943433 0.00522833
v -0.05313581 -0.02077488 0.02668211
v -0.05060855 -0.01927566 0.00522833
v -0.05258187 -0.02137402 0.02668211
v -0.05198297 -0.02198137 0.02668211
v -0.05136159 -0.02258051 0.02668211
v -0.05076108 -0.02311672 0.02668211
v -0.04822901 -0.02537103 0.02699039
v -0.04689312 -0.02645714 0.02717764
v -0.04395483 -0.02641337 0.01900488
v -0.05795269 -0.00060107 0.00522833
v -0.05789650 -0.00165982 0.00522833
v -0.05824652 -0.00180208 0.00748674
v -0.05843438 -0.00180208 0.00868559
v -0.05850503 -0.00060107 0.00868559
v -0.05850021 0.00005279 0.00868559
v -0.05841511 0.00005279 0.00814211
v -0.05007227 -0.02371860 0.02668211
v -0.04419406 -0.02628478 0.01900488
v -0.04500170 -0.02583064 0.01900488
v -0.04530516 -0.02565281 0.01900488
v -0.04582699 -0.02534367 0.01900488
v -0.05881652 0.00005279 0.01150347
v -0.05865275 -0.00060107 0.00988673
v -0.05865114 0.00005279 0.00988673
v -0.05754807 -0.00578268 0.00720358
v -0.05702625 -0.00660342 0.00522833
v -0.05668746 -0.00780170 0.00522833
v -0.05649478 -0.00845829 0.00522833
v -0.05768455 -0.00539146 0.00755753
v -0.05645785 -0.00857593 0.00522833
v -0.05625073 -0.00917507 0.00522833
v -0.05591034 -0.01010251 0.00522833
v -0.05587340 -0.01020100 0.00522833
v -0.05548484 -0.01116947 0.00522833
v -0.05828345 -0.00300310 0.00868559
v -0.05791255 -0.00420412 0.00748674
v -0.05807472 -0.00420412 0.00868559
v -0.05419552 -0.01392169 0.00522833
v -0.05788686 -0.00180208 0.00522833
v -0.05775681 -0.00306876 0.00522833
v -0.05792861 -0.00300310 0.00628788
v -0.05811004 -0.00300310 0.00748674
v -0.05858370 0.00005279 0.00934097
v -0.05748385 -0.00539146 0.00626277
v -0.05731044 -0.00539966 0.00522833
v -0.05706157 -0.00645568 0.00522833
v -0.05763478 -0.00498382 0.00664640
v -0.05772309 -0.00424789 0.00626277
v -0.05765405 -0.00387856 0.00534022
v -0.05767492 -0.00361866 0.00522833
v -0.05734095 -0.00526835 0.00522833
v -0.05760909 -0.00399893 0.00522833
f 1 2 10
f 1 10 3
f 1 3 4
f 1 4 5
f 1 5 6
f 1 6 2
f 2 7 8
f 2 8 9
f 2 9 27
f 2 27 10
f 2 6 11
f 2 11 7
f 3 12 13
f 3 13 14
f 3 14 15
f 3 15 16
f 3 16 17
f 3 17 4
f 3 10 18
f 3 18 19
f 3 19 12
f 4 20 21
f 4 21 22
f 4 22 23
f 4 23 6
f 4 6 5
f 4 17 20
f 6 23 51
f 6 51 50
f 6 50 84
f 6 84 88
f 6 88 55
f 6 55 54
f 6 54 53
f 6 53 31
f 6 31 30
f 6 30 61
f 6 61 60
f 6 60 32
f 6 32 11
f 7 11 24
f 7 24 8
f 8 24 25
f 8 25 9
f 9 26 52
f 9 52 87
f 9 87 134
f 9 134 133
f 9 133 161
f 9 161 142
f 9 142 140
f 9 140 95
f 9 95 94
f 9 94 93
f 9 93 92
f 9 92 91
f 9 91 90
f 9 90 57
f 9 57 27
f 9 25 28
f 9 28 29
f 9 29 30
f 9 30 31
f 9 31 26
f 10 27 18
f 11 32 24
f 12 19 33
f 12 33 34
f 12 34 35
f 12 35 13
f 13 35 36
f 13 36 37
f 13 37 38
f 13 38 39
f 13 39 40
f 13 40 15
f 13 15 14
f 15 40 16
f 16 40 39
f 16 39 41
f 16 41 17
f 17 41 42
f 17 42 43
f 17 43 44
f 17 44 20
f 18 45 19
f 18 27 45
f 19 45 46
f 19 46 47
f 19 47 33
f 20 44 43
f 20 43 48
f 20 48 21
f 21 49 22
f 21 48 49
f 22 50 51
f 22 51 23
f 22 49 50
f 24 32 25
f 25 32 28
f 26 31 53
f 26 53 54
f 26 54 55
f 26 55 56
f 26 56 89
f 26 89 118
f 26 118 120
f 26 120 117
f 26 117 115
f 26 115 114
f 26 114 113
f 26 113 112
f 26 112 111
f 26 111 110
f 26 110 109
f 26 109 156
f 26 156 107
f 26 107 104
f 26 104 106
f 26 106 105
f 26 105 152
f 26 152 151
f 26 151 150
f 26 150 149
f 26 149 148
f 26 148 146
f 26 146 145
f 26 145 144
f 26 144 164
f 26 164 163
f 26 163 169
f 26 169 170
f 26 170 168
f 26 168 158
f 26 158 157
f 26 157 129
f 26 129 128
f 26 128 85
f 26 85 52
f 27 57 58
f 27 58 59
f 27 59 45
f 28 32 60
f 28 60 29
f 29 60 61
f 29 61 30
f 33 62 100
f 33 100 63
f 33 63 34
f 33 47 46
f 33 46 62
f 34 63 35
f 35 63 36
f 36 64 65
f 36 65 37
f 36 63 100
f 36 100 64
f 37 65 38
f 38 66 67
f 38 67 68
f 38 68 69
f 38 69 39
f 38 65 66
f 39 69 68
f 39 68 70
f 39 70 71
f 39 71 41
f 41 71 72
f 41 72 42
f 42 72 73
f 42 73 43
f 43 73 74
f 43 74 75
f 43 75 48
f 45 59 76
f 45 76 77
f 45 77 46
f 46 77 62
f 48 78 79
f 48 79 80
f 48 80 49
f 48 75 81
f 48 81 78
f 49 80 82
f 49 82 50
f 50 82 83
f 50 83 84
f 52 85 86
f 52 86 87
f 55 88 56
f 56 88 89
f 57 90 58
f 58 76 59
f 58 90 91
f 58 91 92
f 58 92 93
f 58 93 94
f 58 94 95
f 58 95 96
f 58 96 97
f 58 97 98
f 58 98 76
f 62 99 100
f 62 77 101
f 62 101 102
f 62 102 103
f 62 103 99
f 64 104 65
f 64 100 105
f 64 105 106
f 64 106 104
f 65 104 107
f 65 107 108
f 65 108 109
f 65 109 110
f 65 110 66
f 66 110 111
f 66 111 112
f 66 112 113
f 66 113 114
f 66 114 115
f 66 115 116
f 66 116 117
f 66 117 67
f 67 118 119
f 67 119 68
f 67 117 120
f 67 120 118
f 68 119 70
f 70 119 71
f 71 119 121
f 71 121 122
f 71 122 73
f 71 73 72
f 73 122 123
f 73 123 74
f 74 123 75
f 75 123 124
f 75 124 125
f 75 125 81
f 76 98 101
f 76 101 77
f 78 81 80
f 78 80 79
f 80 81 125
f 80 125 126
f 80 126 83
f 80 83 82
f 83 88 84
f 83 126 127
f 83 127 88
f 85 128 86
f 86 128 129
f 86 129 130
f 86 130 131
f 86 131 132
f 86 132 133
f 86 133 134
f 86 134 87
f 88 127 89
f 89 135 124
f 89 124 123
f 89 123 122
f 89 122 121
f 89 121 119
f 89 119 118
f 89 127 136
f 89 136 137
f 89 137 138
f 89 138 139
f 89 139 126
f 89 126 125
f 89 125 135
f 95 140 96
f 96 140 97
f 97 141 98
f 97 140 142
f 97 142 141
f 98 141 101
f 99 143 144
f 99 144 145
f 99 145 146
f 99 146 100
f 99 103 147
f 99 147 143
f 100 146 148
f 100 148 149
f 100 149 150
f 100 150 151
f 100 151 152
f 100 152 105
f 101 141 132
f 101 132 131
f 101 131 102
f 102 131 153
f 102 153 154
f 102 154 155
f 102 155 103
f 103 155 147
f 107 156 108
f 108 156 109
f 115 117 116
f 124 135 125
f 126 139 138
f 126 138 137
f 126 137 136
f 126 136 127
f 129 157 130
f 130 157 158
f 130 158 131
f 131 158 159
f 131 159 160
f 131 160 153
f 132 141 142
f 132 142 161
f 132 161 133
f 143 162 163
f 143 163 164
f 143 164 144
f 143 147 165
f 143 165 162
f 147 155 154
f 147 154 165
f 153 160 154
f 154 166 165
f 154 160 167
f 154 167 166
f 158 168 167
f 158 167 159
f 159 167 160
f 162 165 169
f 162 169 163
f 165 166 167
f 165 167 169
f 167 168 170
f 167 170 169

