v 0.039700 0.000000 0.201500
v 0.039405 0.000000 0.202600
v 0.038600 0.000000 0.203405
v 0.037500 0.000000 0.203700
v 0.036400 0.000000 0.203405
v 0.035595 0.000000 0.202600
v 0.035300 0.000000 0.201500
v 0.035595 0.000000 0.200400
v 0.036400 0.000000 0.199595
v 0.037500 0.000000 0.199300
v 0.038600 0.000000 0.199595
v 0.039405 0.000000 0.200400
v 0.039700 0.000000 0.201500
v 0.039549 0.003460 0.201500
v 0.039255 0.003434 0.202600
v 0.038453 0.003364 0.203405
v 0.037357 0.003268 0.203700
v 0.036261 0.003172 0.203405
v 0.035459 0.003102 0.202600
v 0.035166 0.003077 0.201500
v 0.035459 0.003102 0.200400
v 0.036261 0.003172 0.199595
v 0.037357 0.003268 0.199300
v 0.038453 0.003364 0.199595
v 0.039255 0.003434 0.200400
v 0.039549 0.003460 0.201500
v 0.039097 0.006894 0.201500
v 0.038807 0.006843 0.202600
v 0.038014 0.006703 0.203405
v 0.036930 0.006512 0.203700
v 0.035847 0.006321 0.203405
v 0.035054 0.006181 0.202600
v 0.034764 0.006130 0.201500
v 0.035054 0.006181 0.200400
v 0.035847 0.006321 0.199595
v 0.036930 0.006512 0.199300
v 0.038014 0.006703 0.199595
v 0.038807 0.006843 0.200400
v 0.039097 0.006894 0.201500
v 0.038347 0.010275 0.201500
v 0.038063 0.010199 0.202600
v 0.037285 0.009990 0.203405
v 0.036222 0.009706 0.203700
v 0.035160 0.009421 0.203405
v 0.034382 0.009213 0.202600
v 0.034097 0.009136 0.201500
v 0.034382 0.009213 0.200400
v 0.035160 0.009421 0.199595
v 0.036222 0.009706 0.199300
v 0.037285 0.009990 0.199595
v 0.038063 0.010199 0.200400
v 0.038347 0.010275 0.201500
v 0.037306 0.013578 0.201500
v 0.037029 0.013477 0.202600
v 0.036272 0.013202 0.203405
v 0.035238 0.012826 0.203700
v 0.034205 0.012450 0.203405
v 0.033448 0.012174 0.202600
v 0.033171 0.012073 0.201500
v 0.033448 0.012174 0.200400
v 0.034205 0.012450 0.199595
v 0.035238 0.012826 0.199300
v 0.036272 0.013202 0.199595
v 0.037029 0.013477 0.200400
v 0.037306 0.013578 0.201500
v 0.035980 0.016778 0.201500
v 0.035713 0.016653 0.202600
v 0.034983 0.016313 0.203405
v 0.033987 0.015848 0.203700
v 0.032990 0.015383 0.203405
v 0.032260 0.015043 0.202600
v 0.031993 0.014918 0.201500
v 0.032260 0.015043 0.200400
v 0.032990 0.015383 0.199595
v 0.033987 0.015848 0.199300
v 0.034983 0.016313 0.199595
v 0.035713 0.016653 0.200400
v 0.035980 0.016778 0.201500
v 0.034381 0.019850 0.201500
v 0.034126 0.019703 0.202600
v 0.033429 0.019300 0.203405
v 0.032476 0.018750 0.203700
v 0.031523 0.018200 0.203405
v 0.030826 0.017797 0.202600
v 0.030571 0.017650 0.201500
v 0.030826 0.017797 0.200400
v 0.031523 0.018200 0.199595
v 0.032476 0.018750 0.199300
v 0.033429 0.019300 0.199595
v 0.034126 0.019703 0.200400
v 0.034381 0.019850 0.201500
v 0.032520 0.022771 0.201500
v 0.032279 0.022602 0.202600
v 0.031619 0.022140 0.203405
v 0.030718 0.021509 0.203700
v 0.029817 0.020878 0.203405
v 0.029158 0.020416 0.202600
v 0.028916 0.020247 0.201500
v 0.029158 0.020416 0.200400
v 0.029817 0.020878 0.199595
v 0.030718 0.021509 0.199300
v 0.031619 0.022140 0.199595
v 0.032279 0.022602 0.200400
v 0.032520 0.022771 0.201500
v 0.030412 0.025519 0.201500
v 0.030186 0.025329 0.202600
v 0.029569 0.024812 0.203405
v 0.028727 0.024105 0.203700
v 0.027884 0.023397 0.203405
v 0.027267 0.022880 0.202600
v 0.027041 0.022690 0.201500
v 0.027267 0.022880 0.200400
v 0.027884 0.023397 0.199595
v 0.028727 0.024105 0.199300
v 0.029569 0.024812 0.199595
v 0.030186 0.025329 0.200400
v 0.030412 0.025519 0.201500
v 0.028072 0.028072 0.201500
v 0.027864 0.027864 0.202600
v 0.027294 0.027294 0.203405
v 0.026517 0.026517 0.203700
v 0.025739 0.025739 0.203405
v 0.025169 0.025169 0.202600
v 0.024961 0.024961 0.201500
v 0.025169 0.025169 0.200400
v 0.025739 0.025739 0.199595
v 0.026517 0.026517 0.199300
v 0.027294 0.027294 0.199595
v 0.027864 0.027864 0.200400
v 0.028072 0.028072 0.201500
v 0.025519 0.030412 0.201500
v 0.025329 0.030186 0.202600
v 0.024812 0.029569 0.203405
v 0.024105 0.028727 0.203700
v 0.023397 0.027884 0.203405
v 0.022880 0.027267 0.202600
v 0.022690 0.027041 0.201500
v 0.022880 0.027267 0.200400
v 0.023397 0.027884 0.199595
v 0.024105 0.028727 0.199300
v 0.024812 0.029569 0.199595
v 0.025329 0.030186 0.200400
v 0.025519 0.030412 0.201500
v 0.022771 0.032520 0.201500
v 0.022602 0.032279 0.202600
v 0.022140 0.031619 0.203405
v 0.021509 0.030718 0.203700
v 0.020878 0.029817 0.203405
v 0.020416 0.029158 0.202600
v 0.020247 0.028916 0.201500
v 0.020416 0.029158 0.200400
v 0.020878 0.029817 0.199595
v 0.021509 0.030718 0.199300
v 0.022140 0.031619 0.199595
v 0.022602 0.032279 0.200400
v 0.022771 0.032520 0.201500
v 0.019850 0.034381 0.201500
v 0.019703 0.034126 0.202600
v 0.019300 0.033429 0.203405
v 0.018750 0.032476 0.203700
v 0.018200 0.031523 0.203405
v 0.017797 0.030826 0.202600
v 0.017650 0.030571 0.201500
v 0.017797 0.030826 0.200400
v 0.018200 0.031523 0.199595
v 0.018750 0.032476 0.199300
v 0.019300 0.033429 0.199595
v 0.019703 0.034126 0.200400
v 0.019850 0.034381 0.201500
v 0.016778 0.035980 0.201500
v 0.016653 0.035713 0.202600
v 0.016313 0.034983 0.203405
v 0.015848 0.033987 0.203700
v 0.015383 0.032990 0.203405
v 0.015043 0.032260 0.202600
v 0.014918 0.031993 0.201500
v 0.015043 0.032260 0.200400
v 0.015383 0.032990 0.199595
v 0.015848 0.033987 0.199300
v 0.016313 0.034983 0.199595
v 0.016653 0.035713 0.200400
v 0.016778 0.035980 0.201500
v 0.013578 0.037306 0.201500
v 0.013477 0.037029 0.202600
v 0.013202 0.036272 0.203405
v 0.012826 0.035238 0.203700
v 0.012450 0.034205 0.203405
v 0.012174 0.033448 0.202600
v 0.012073 0.033171 0.201500
v 0.012174 0.033448 0.200400
v 0.012450 0.034205 0.199595
v 0.012826 0.035238 0.199300
v 0.013202 0.036272 0.199595
v 0.013477 0.037029 0.200400
v 0.013578 0.037306 0.201500
v 0.010275 0.038347 0.201500
v 0.010199 0.038063 0.202600
v 0.009990 0.037285 0.203405
v 0.009706 0.036222 0.203700
v 0.009421 0.035160 0.203405
v 0.009213 0.034382 0.202600
v 0.009136 0.034097 0.201500
v 0.009213 0.034382 0.200400
v 0.009421 0.035160 0.199595
v 0.009706 0.036222 0.199300
v 0.009990 0.037285 0.199595
v 0.010199 0.038063 0.200400
v 0.010275 0.038347 0.201500
v 0.006894 0.039097 0.201500
v 0.006843 0.038807 0.202600
v 0.006703 0.038014 0.203405
v 0.006512 0.036930 0.203700
v 0.006321 0.035847 0.203405
v 0.006181 0.035054 0.202600
v 0.006130 0.034764 0.201500
v 0.006181 0.035054 0.200400
v 0.006321 0.035847 0.199595
v 0.006512 0.036930 0.199300
v 0.006703 0.038014 0.199595
v 0.006843 0.038807 0.200400
v 0.006894 0.039097 0.201500
v 0.003460 0.039549 0.201500
v 0.003434 0.039255 0.202600
v 0.003364 0.038453 0.203405
v 0.003268 0.037357 0.203700
v 0.003172 0.036261 0.203405
v 0.003102 0.035459 0.202600
v 0.003077 0.035166 0.201500
v 0.003102 0.035459 0.200400
v 0.003172 0.036261 0.199595
v 0.003268 0.037357 0.199300
v 0.003364 0.038453 0.199595
v 0.003434 0.039255 0.200400
v 0.003460 0.039549 0.201500
v 0.000000 0.039700 0.201500
v 0.000000 0.039405 0.202600
v 0.000000 0.038600 0.203405
v 0.000000 0.037500 0.203700
v 0.000000 0.036400 0.203405
v 0.000000 0.035595 0.202600
v 0.000000 0.035300 0.201500
v 0.000000 0.035595 0.200400
v 0.000000 0.036400 0.199595
v 0.000000 0.037500 0.199300
v 0.000000 0.038600 0.199595
v 0.000000 0.039405 0.200400
v 0.000000 0.039700 0.201500
v -0.003460 0.039549 0.201500
v -0.003434 0.039255 0.202600
v -0.003364 0.038453 0.203405
v -0.003268 0.037357 0.203700
v -0.003172 0.036261 0.203405
v -0.003102 0.035459 0.202600
v -0.003077 0.035166 0.201500
v -0.003102 0.035459 0.200400
v -0.003172 0.036261 0.199595
v -0.003268 0.037357 0.199300
v -0.003364 0.038453 0.199595
v -0.003434 0.039255 0.200400
v -0.003460 0.039549 0.201500
v -0.006894 0.039097 0.201500
v -0.006843 0.038807 0.202600
v -0.006703 0.038014 0.203405
v -0.006512 0.036930 0.203700
v -0.006321 0.035847 0.203405
v -0.006181 0.035054 0.202600
v -0.006130 0.034764 0.201500
v -0.006181 0.035054 0.200400
v -0.006321 0.035847 0.199595
v -0.006512 0.036930 0.199300
v -0.006703 0.038014 0.199595
v -0.006843 0.038807 0.200400
v -0.006894 0.039097 0.201500
v -0.010275 0.038347 0.201500
v -0.010199 0.038063 0.202600
v -0.009990 0.037285 0.203405
v -0.009706 0.036222 0.203700
v -0.009421 0.035160 0.203405
v -0.009213 0.034382 0.202600
v -0.009136 0.034097 0.201500
v -0.009213 0.034382 0.200400
v -0.009421 0.035160 0.199595
v -0.009706 0.036222 0.199300
v -0.009990 0.037285 0.199595
v -0.010199 0.038063 0.200400
v -0.010275 0.038347 0.201500
v -0.013578 0.037306 0.201500
v -0.013477 0.037029 0.202600
v -0.013202 0.036272 0.203405
v -0.012826 0.035238 0.203700
v -0.012450 0.034205 0.203405
v -0.012174 0.033448 0.202600
v -0.012073 0.033171 0.201500
v -0.012174 0.033448 0.200400
v -0.012450 0.034205 0.199595
v -0.012826 0.035238 0.199300
v -0.013202 0.036272 0.199595
v -0.013477 0.037029 0.200400
v -0.013578 0.037306 0.201500
v -0.016778 0.035980 0.201500
v -0.016653 0.035713 0.202600
v -0.016313 0.034983 0.203405
v -0.015848 0.033987 0.203700
v -0.015383 0.032990 0.203405
v -0.015043 0.032260 0.202600
v -0.014918 0.031993 0.201500
v -0.015043 0.032260 0.200400
v -0.015383 0.032990 0.199595
v -0.015848 0.033987 0.199300
v -0.016313 0.034983 0.199595
v -0.016653 0.035713 0.200400
v -0.016778 0.035980 0.201500
v -0.019850 0.034381 0.201500
v -0.019703 0.034126 0.202600
v -0.019300 0.033429 0.203405
v -0.018750 0.032476 0.203700
v -0.018200 0.031523 0.203405
v -0.017797 0.030826 0.202600
v -0.017650 0.030571 0.201500
v -0.017797 0.030826 0.200400
v -0.018200 0.031523 0.199595
v -0.018750 0.032476 0.199300
v -0.019300 0.033429 0.199595
v -0.019703 0.034126 0.200400
v -0.019850 0.034381 0.201500
v -0.022771 0.032520 0.201500
v -0.022602 0.032279 0.202600
v -0.022140 0.031619 0.203405
v -0.021509 0.030718 0.203700
v -0.020878 0.029817 0.203405
v -0.020416 0.029158 0.202600
v -0.020247 0.028916 0.201500
v -0.020416 0.029158 0.200400
v -0.020878 0.029817 0.199595
v -0.021509 0.030718 0.199300
v -0.022140 0.031619 0.199595
v -0.022602 0.032279 0.200400
v -0.022771 0.032520 0.201500
v -0.025519 0.030412 0.201500
v -0.025329 0.030186 0.202600
v -0.024812 0.029569 0.203405
v -0.024105 0.028727 0.203700
v -0.023397 0.027884 0.203405
v -0.022880 0.027267 0.202600
v -0.022690 0.027041 0.201500
v -0.022880 0.027267 0.200400
v -0.023397 0.027884 0.199595
v -0.024105 0.028727 0.199300
v -0.024812 0.029569 0.199595
v -0.025329 0.030186 0.200400
v -0.025519 0.030412 0.201500
v -0.028072 0.028072 0.201500
v -0.027864 0.027864 0.202600
v -0.027294 0.027294 0.203405
v -0.026517 0.026517 0.203700
v -0.025739 0.025739 0.203405
v -0.025169 0.025169 0.202600
v -0.024961 0.024961 0.201500
v -0.025169 0.025169 0.200400
v -0.025739 0.025739 0.199595
v -0.026517 0.026517 0.199300
v -0.027294 0.027294 0.199595
v -0.027864 0.027864 0.200400
v -0.028072 0.028072 0.201500
v -0.030412 0.025519 0.201500
v -0.030186 0.025329 0.202600
v -0.029569 0.024812 0.203405
v -0.028727 0.024105 0.203700
v -0.027884 0.023397 0.203405
v -0.027267 0.022880 0.202600
v -0.027041 0.022690 0.201500
v -0.027267 0.022880 0.200400
v -0.027884 0.023397 0.199595
v -0.028727 0.024105 0.199300
v -0.029569 0.024812 0.199595
v -0.030186 0.025329 0.200400
v -0.030412 0.025519 0.201500
v -0.032520 0.022771 0.201500
v -0.032279 0.022602 0.202600
v -0.031619 0.022140 0.203405
v -0.030718 0.021509 0.203700
v -0.029817 0.020878 0.203405
v -0.029158 0.020416 0.202600
v -0.028916 0.020247 0.201500
v -0.029158 0.020416 0.200400
v -0.029817 0.020878 0.199595
v -0.030718 0.021509 0.199300
v -0.031619 0.022140 0.199595
v -0.032279 0.022602 0.200400
v -0.032520 0.022771 0.201500
v -0.034381 0.019850 0.201500
v -0.034126 0.019703 0.202600
v -0.033429 0.019300 0.203405
v -0.032476 0.018750 0.203700
v -0.031523 0.018200 0.203405
v -0.030826 0.017797 0.202600
v -0.030571 0.017650 0.201500
v -0.030826 0.017797 0.200400
v -0.031523 0.018200 0.199595
v -0.032476 0.018750 0.199300
v -0.033429 0.019300 0.199595
v -0.034126 0.019703 0.200400
v -0.034381 0.019850 0.201500
v -0.035980 0.016778 0.201500
v -0.035713 0.016653 0.202600
v -0.034983 0.016313 0.203405
v -0.033987 0.015848 0.203700
v -0.032990 0.015383 0.203405
v -0.032260 0.015043 0.202600
v -0.031993 0.014918 0.201500
v -0.032260 0.015043 0.200400
v -0.032990 0.015383 0.199595
v -0.033987 0.015848 0.199300
v -0.034983 0.016313 0.199595
v -0.035713 0.016653 0.200400
v -0.035980 0.016778 0.201500
v -0.037306 0.013578 0.201500
v -0.037029 0.013477 0.202600
v -0.036272 0.013202 0.203405
v -0.035238 0.012826 0.203700
v -0.034205 0.012450 0.203405
v -0.033448 0.012174 0.202600
v -0.033171 0.012073 0.201500
v -0.033448 0.012174 0.200400
v -0.034205 0.012450 0.199595
v -0.035238 0.012826 0.199300
v -0.036272 0.013202 0.199595
v -0.037029 0.013477 0.200400
v -0.037306 0.013578 0.201500
v -0.038347 0.010275 0.201500
v -0.038063 0.010199 0.202600
v -0.037285 0.009990 0.203405
v -0.036222 0.009706 0.203700
v -0.035160 0.009421 0.203405
v -0.034382 0.009213 0.202600
v -0.034097 0.009136 0.201500
v -0.034382 0.009213 0.200400
v -0.035160 0.009421 0.199595
v -0.036222 0.009706 0.199300
v -0.037285 0.009990 0.199595
v -0.038063 0.010199 0.200400
v -0.038347 0.010275 0.201500
v -0.039097 0.006894 0.201500
v -0.038807 0.006843 0.202600
v -0.038014 0.006703 0.203405
v -0.036930 0.006512 0.203700
v -0.035847 0.006321 0.203405
v -0.035054 0.006181 0.202600
v -0.034764 0.006130 0.201500
v -0.035054 0.006181 0.200400
v -0.035847 0.006321 0.199595
v -0.036930 0.006512 0.199300
v -0.038014 0.006703 0.199595
v -0.038807 0.006843 0.200400
v -0.039097 0.006894 0.201500
v -0.039549 0.003460 0.201500
v -0.039255 0.003434 0.202600
v -0.038453 0.003364 0.203405
v -0.037357 0.003268 0.203700
v -0.036261 0.003172 0.203405
v -0.035459 0.003102 0.202600
v -0.035166 0.003077 0.201500
v -0.035459 0.003102 0.200400
v -0.036261 0.003172 0.199595
v -0.037357 0.003268 0.199300
v -0.038453 0.003364 0.199595
v -0.039255 0.003434 0.200400
v -0.039549 0.003460 0.201500
v -0.039700 0.000000 0.201500
v -0.039405 0.000000 0.202600
v -0.038600 0.000000 0.203405
v -0.037500 0.000000 0.203700
v -0.036400 0.000000 0.203405
v -0.035595 0.000000 0.202600
v -0.035300 0.000000 0.201500
v -0.035595 0.000000 0.200400
v -0.036400 0.000000 0.199595
v -0.037500 0.000000 0.199300
v -0.038600 0.000000 0.199595
v -0.039405 0.000000 0.200400
v -0.039700 0.000000 0.201500
v -0.039549 -0.003460 0.201500
v -0.039255 -0.003434 0.202600
v -0.038453 -0.003364 0.203405
v -0.037357 -0.003268 0.203700
v -0.036261 -0.003172 0.203405
v -0.035459 -0.003102 0.202600
v -0.035166 -0.003077 0.201500
v -0.035459 -0.003102 0.200400
v -0.036261 -0.003172 0.199595
v -0.037357 -0.003268 0.199300
v -0.038453 -0.003364 0.199595
v -0.039255 -0.003434 0.200400
v -0.039549 -0.003460 0.201500
v -0.039097 -0.006894 0.201500
v -0.038807 -0.006843 0.202600
v -0.038014 -0.006703 0.203405
v -0.036930 -0.006512 0.203700
v -0.035847 -0.006321 0.203405
v -0.035054 -0.006181 0.202600
v -0.034764 -0.006130 0.201500
v -0.035054 -0.006181 0.200400
v -0.035847 -0.006321 0.199595
v -0.036930 -0.006512 0.199300
v -0.038014 -0.006703 0.199595
v -0.038807 -0.006843 0.200400
v -0.039097 -0.006894 0.201500
v -0.038347 -0.010275 0.201500
v -0.038063 -0.010199 0.202600
v -0.037285 -0.009990 0.203405
v -0.036222 -0.009706 0.203700
v -0.035160 -0.009421 0.203405
v -0.034382 -0.009213 0.202600
v -0.034097 -0.009136 0.201500
v -0.034382 -0.009213 0.200400
v -0.035160 -0.009421 0.199595
v -0.036222 -0.009706 0.199300
v -0.037285 -0.009990 0.199595
v -0.038063 -0.010199 0.200400
v -0.038347 -0.010275 0.201500
v -0.037306 -0.013578 0.201500
v -0.037029 -0.013477 0.202600
v -0.036272 -0.013202 0.203405
v -0.035238 -0.012826 0.203700
v -0.034205 -0.012450 0.203405
v -0.033448 -0.012174 0.202600
v -0.033171 -0.012073 0.201500
v -0.033448 -0.012174 0.200400
v -0.034205 -0.012450 0.199595
v -0.035238 -0.012826 0.199300
v -0.036272 -0.013202 0.199595
v -0.037029 -0.013477 0.200400
v -0.037306 -0.013578 0.201500
v -0.035980 -0.016778 0.201500
v -0.035713 -0.016653 0.202600
v -0.034983 -0.016313 0.203405
v -0.033987 -0.015848 0.203700
v -0.032990 -0.015383 0.203405
v -0.032260 -0.015043 0.202600
v -0.031993 -0.014918 0.201500
v -0.032260 -0.015043 0.200400
v -0.032990 -0.015383 0.199595
v -0.033987 -0.015848 0.199300
v -0.034983 -0.016313 0.199595
v -0.035713 -0.016653 0.200400
v -0.035980 -0.016778 0.201500
v -0.034381 -0.019850 0.201500
v -0.034126 -0.019703 0.202600
v -0.033429 -0.019300 0.203405
v -0.032476 -0.018750 0.203700
v -0.031523 -0.018200 0.203405
v -0.030826 -0.017797 0.202600
v -0.030571 -0.017650 0.201500
v -0.030826 -0.017797 0.200400
v -0.031523 -0.018200 0.199595
v -0.032476 -0.018750 0.199300
v -0.033429 -0.019300 0.199595
v -0.034126 -0.019703 0.200400
v -0.034381 -0.019850 0.201500
v -0.032520 -0.022771 0.201500
v -0.032279 -0.022602 0.202600
v -0.031619 -0.022140 0.203405
v -0.030718 -0.021509 0.203700
v -0.029817 -0.020878 0.203405
v -0.029158 -0.020416 0.202600
v -0.028916 -0.020247 0.201500
v -0.029158 -0.020416 0.200400
v -0.029817 -0.020878 0.199595
v -0.030718 -0.021509 0.199300
v -0.031619 -0.022140 0.199595
v -0.032279 -0.022602 0.200400
v -0.032520 -0.022771 0.201500
v -0.030412 -0.025519 0.201500
v -0.030186 -0.025329 0.202600
v -0.029569 -0.024812 0.203405
v -0.028727 -0.024105 0.203700
v -0.027884 -0.023397 0.203405
v -0.027267 -0.022880 0.202600
v -0.027041 -0.022690 0.201500
v -0.027267 -0.022880 0.200400
v -0.027884 -0.023397 0.199595
v -0.028727 -0.024105 0.199300
v -0.029569 -0.024812 0.199595
v -0.030186 -0.025329 0.200400
v -0.030412 -0.025519 0.201500
v -0.028072 -0.028072 0.201500
v -0.027864 -0.027864 0.202600
v -0.027294 -0.027294 0.203405
v -0.026517 -0.026517 0.203700
v -0.025739 -0.025739 0.203405
v -0.025169 -0.025169 0.202600
v -0.024961 -0.024961 0.201500
v -0.025169 -0.025169 0.200400
v -0.025739 -0.025739 0.199595
v -0.026517 -0.026517 0.199300
v -0.027294 -0.027294 0.199595
v -0.027864 -0.027864 0.200400
v -0.028072 -0.028072 0.201500
v -0.025519 -0.030412 0.201500
v -0.025329 -0.030186 0.202600
v -0.024812 -0.029569 0.203405
v -0.024105 -0.028727 0.203700
v -0.023397 -0.027884 0.203405
v -0.022880 -0.027267 0.202600
v -0.022690 -0.027041 0.201500
v -0.022880 -0.027267 0.200400
v -0.023397 -0.027884 0.199595
v -0.024105 -0.028727 0.199300
v -0.024812 -0.029569 0.199595
v -0.025329 -0.030186 0.200400
v -0.025519 -0.030412 0.201500
v -0.022771 -0.032520 0.201500
v -0.022602 -0.032279 0.202600
v -0.022140 -0.031619 0.203405
v -0.021509 -0.030718 0.203700
v -0.020878 -0.029817 0.203405
v -0.020416 -0.029158 0.202600
v -0.020247 -0.028916 0.201500
v -0.020416 -0.029158 0.200400
v -0.020878 -0.029817 0.199595
v -0.021509 -0.030718 0.199300
v -0.022140 -0.031619 0.199595
v -0.022602 -0.032279 0.200400
v -0.022771 -0.032520 0.201500
v -0.019850 -0.034381 0.201500
v -0.019703 -0.034126 0.202600
v -0.019300 -0.033429 0.203405
v -0.018750 -0.032476 0.203700
v -0.018200 -0.031523 0.203405
v -0.017797 -0.030826 0.202600
v -0.017650 -0.030571 0.201500
v -0.017797 -0.030826 0.200400
v -0.018200 -0.031523 0.199595
v -0.018750 -0.032476 0.199300
v -0.019300 -0.033429 0.199595
v -0.019703 -0.034126 0.200400
v -0.019850 -0.034381 0.201500
v -0.016778 -0.035980 0.201500
v -0.016653 -0.035713 0.202600
v -0.016313 -0.034983 0.203405
v -0.015848 -0.033987 0.203700
v -0.015383 -0.032990 0.203405
v -0.015043 -0.032260 0.202600
v -0.014918 -0.031993 0.201500
v -0.015043 -0.032260 0.200400
v -0.015383 -0.032990 0.199595
v -0.015848 -0.033987 0.199300
v -0.016313 -0.034983 0.199595
v -0.016653 -0.035713 0.200400
v -0.016778 -0.035980 0.201500
v -0.013578 -0.037306 0.201500
v -0.013477 -0.037029 0.202600
v -0.013202 -0.036272 0.203405
v -0.012826 -0.035238 0.203700
v -0.012450 -0.034205 0.203405
v -0.012174 -0.033448 0.202600
v -0.012073 -0.033171 0.201500
v -0.012174 -0.033448 0.200400
v -0.012450 -0.034205 0.199595
v -0.012826 -0.035238 0.199300
v -0.013202 -0.036272 0.199595
v -0.013477 -0.037029 0.200400
v -0.013578 -0.037306 0.201500
v -0.010275 -0.038347 0.201500
v -0.010199 -0.038063 0.202600
v -0.009990 -0.037285 0.203405
v -0.009706 -0.036222 0.203700
v -0.009421 -0.035160 0.203405
v -0.009213 -0.034382 0.202600
v -0.009136 -0.034097 0.201500
v -0.009213 -0.034382 0.200400
v -0.009421 -0.035160 0.199595
v -0.009706 -0.036222 0.199300
v -0.009990 -0.037285 0.199595
v -0.010199 -0.038063 0.200400
v -0.010275 -0.038347 0.201500
v -0.006894 -0.039097 0.201500
v -0.006843 -0.038807 0.202600
v -0.006703 -0.038014 0.203405
v -0.006512 -0.036930 0.203700
v -0.006321 -0.035847 0.203405
v -0.006181 -0.035054 0.202600
v -0.006130 -0.034764 0.201500
v -0.006181 -0.035054 0.200400
v -0.006321 -0.035847 0.199595
v -0.006512 -0.036930 0.199300
v -0.006703 -0.038014 0.199595
v -0.006843 -0.038807 0.200400
v -0.006894 -0.039097 0.201500
v -0.003460 -0.039549 0.201500
v -0.003434 -0.039255 0.202600
v -0.003364 -0.038453 0.203405
v -0.003268 -0.037357 0.203700
v -0.003172 -0.036261 0.203405
v -0.003102 -0.035459 0.202600
v -0.003077 -0.035166 0.201500
v -0.003102 -0.035459 0.200400
v -0.003172 -0.036261 0.199595
v -0.003268 -0.037357 0.199300
v -0.003364 -0.038453 0.199595
v -0.003434 -0.039255 0.200400
v -0.003460 -0.039549 0.201500
v -0.000000 -0.039700 0.201500
v -0.000000 -0.039405 0.202600
v -0.000000 -0.038600 0.203405
v -0.000000 -0.037500 0.203700
v -0.000000 -0.036400 0.203405
v -0.000000 -0.035595 0.202600
v -0.000000 -0.035300 0.201500
v -0.000000 -0.035595 0.200400
v -0.000000 -0.036400 0.199595
v -0.000000 -0.037500 0.199300
v -0.000000 -0.038600 0.199595
v -0.000000 -0.039405 0.200400
v -0.000000 -0.039700 0.201500
v 0.003460 -0.039549 0.201500
v 0.003434 -0.039255 0.202600
v 0.003364 -0.038453 0.203405
v 0.003268 -0.037357 0.203700
v 0.003172 -0.036261 0.203405
v 0.003102 -0.035459 0.202600
v 0.003077 -0.035166 0.201500
v 0.003102 -0.035459 0.200400
v 0.003172 -0.036261 0.199595
v 0.003268 -0.037357 0.199300
v 0.003364 -0.038453 0.199595
v 0.003434 -0.039255 0.200400
v 0.003460 -0.039549 0.201500
v 0.006894 -0.039097 0.201500
v 0.006843 -0.038807 0.202600
v 0.006703 -0.038014 0.203405
v 0.006512 -0.036930 0.203700
v 0.006321 -0.035847 0.203405
v 0.006181 -0.035054 0.202600
v 0.006130 -0.034764 0.201500
v 0.006181 -0.035054 0.200400
v 0.006321 -0.035847 0.199595
v 0.006512 -0.036930 0.199300
v 0.006703 -0.038014 0.199595
v 0.006843 -0.038807 0.200400
v 0.006894 -0.039097 0.201500
v 0.010275 -0.038347 0.201500
v 0.010199 -0.038063 0.202600
v 0.009990 -0.037285 0.203405
v 0.009706 -0.036222 0.203700
v 0.009421 -0.035160 0.203405
v 0.009213 -0.034382 0.202600
v 0.009136 -0.034097 0.201500
v 0.009213 -0.034382 0.200400
v 0.009421 -0.035160 0.199595
v 0.009706 -0.036222 0.199300
v 0.009990 -0.037285 0.199595
v 0.010199 -0.038063 0.200400
v 0.010275 -0.038347 0.201500
v 0.013578 -0.037306 0.201500
v 0.013477 -0.037029 0.202600
v 0.013202 -0.036272 0.203405
v 0.012826 -0.035238 0.203700
v 0.012450 -0.034205 0.203405
v 0.012174 -0.033448 0.202600
v 0.012073 -0.033171 0.201500
v 0.012174 -0.033448 0.200400
v 0.012450 -0.034205 0.199595
v 0.012826 -0.035238 0.199300
v 0.013202 -0.036272 0.199595
v 0.013477 -0.037029 0.200400
v 0.013578 -0.037306 0.201500
v 0.016778 -0.035980 0.201500
v 0.016653 -0.035713 0.202600
v 0.016313 -0.034983 0.203405
v 0.015848 -0.033987 0.203700
v 0.015383 -0.032990 0.203405
v 0.015043 -0.032260 0.202600
v 0.014918 -0.031993 0.201500
v 0.015043 -0.032260 0.200400
v 0.015383 -0.032990 0.199595
v 0.015848 -0.033987 0.199300
v 0.016313 -0.034983 0.199595
v 0.016653 -0.035713 0.200400
v 0.016778 -0.035980 0.201500
v 0.019850 -0.034381 0.201500
v 0.019703 -0.034126 0.202600
v 0.019300 -0.033429 0.203405
v 0.018750 -0.032476 0.203700
v 0.018200 -0.031523 0.203405
v 0.017797 -0.030826 0.202600
v 0.017650 -0.030571 0.201500
v 0.017797 -0.030826 0.200400
v 0.018200 -0.031523 0.199595
v 0.018750 -0.032476 0.199300
v 0.019300 -0.033429 0.199595
v 0.019703 -0.034126 0.200400
v 0.019850 -0.034381 0.201500
v 0.022771 -0.032520 0.201500
v 0.022602 -0.032279 0.202600
v 0.022140 -0.031619 0.203405
v 0.021509 -0.030718 0.203700
v 0.020878 -0.029817 0.203405
v 0.020416 -0.029158 0.202600
v 0.020247 -0.028916 0.201500
v 0.020416 -0.029158 0.200400
v 0.020878 -0.029817 0.199595
v 0.021509 -0.030718 0.199300
v 0.022140 -0.031619 0.199595
v 0.022602 -0.032279 0.200400
v 0.022771 -0.032520 0.201500
v 0.025519 -0.030412 0.201500
v 0.025329 -0.030186 0.202600
v 0.024812 -0.029569 0.203405
v 0.024105 -0.028727 0.203700
v 0.023397 -0.027884 0.203405
v 0.022880 -0.027267 0.202600
v 0.022690 -0.027041 0.201500
v 0.022880 -0.027267 0.200400
v 0.023397 -0.027884 0.199595
v 0.024105 -0.028727 0.199300
v 0.024812 -0.029569 0.199595
v 0.025329 -0.030186 0.200400
v 0.025519 -0.030412 0.201500
v 0.028072 -0.028072 0.201500
v 0.027864 -0.027864 0.202600
v 0.027294 -0.027294 0.203405
v 0.026517 -0.026517 0.203700
v 0.025739 -0.025739 0.203405
v 0.025169 -0.025169 0.202600
v 0.024961 -0.024961 0.201500
v 0.025169 -0.025169 0.200400
v 0.025739 -0.025739 0.199595
v 0.026517 -0.026517 0.199300
v 0.027294 -0.027294 0.199595
v 0.027864 -0.027864 0.200400
v 0.028072 -0.028072 0.201500
v 0.030412 -0.025519 0.201500
v 0.030186 -0.025329 0.202600
v 0.029569 -0.024812 0.203405
v 0.028727 -0.024105 0.203700
v 0.027884 -0.023397 0.203405
v 0.027267 -0.022880 0.202600
v 0.027041 -0.022690 0.201500
v 0.027267 -0.022880 0.200400
v 0.027884 -0.023397 0.199595
v 0.028727 -0.024105 0.199300
v 0.029569 -0.024812 0.199595
v 0.030186 -0.025329 0.200400
v 0.030412 -0.025519 0.201500
v 0.032520 -0.022771 0.201500
v 0.032279 -0.022602 0.202600
v 0.031619 -0.022140 0.203405
v 0.030718 -0.021509 0.203700
v 0.029817 -0.020878 0.203405
v 0.029158 -0.020416 0.202600
v 0.028916 -0.020247 0.201500
v 0.029158 -0.020416 0.200400
v 0.029817 -0.020878 0.199595
v 0.030718 -0.021509 0.199300
v 0.031619 -0.022140 0.199595
v 0.032279 -0.022602 0.200400
v 0.032520 -0.022771 0.201500
v 0.034381 -0.019850 0.201500
v 0.034126 -0.019703 0.202600
v 0.033429 -0.019300 0.203405
v 0.032476 -0.018750 0.203700
v 0.031523 -0.018200 0.203405
v 0.030826 -0.017797 0.202600
v 0.030571 -0.017650 0.201500
v 0.030826 -0.017797 0.200400
v 0.031523 -0.018200 0.199595
v 0.032476 -0.018750 0.199300
v 0.033429 -0.019300 0.199595
v 0.034126 -0.019703 0.200400
v 0.034381 -0.019850 0.201500
v 0.035980 -0.016778 0.201500
v 0.035713 -0.016653 0.202600
v 0.034983 -0.016313 0.203405
v 0.033987 -0.015848 0.203700
v 0.032990 -0.015383 0.203405
v 0.032260 -0.015043 0.202600
v 0.031993 -0.014918 0.201500
v 0.032260 -0.015043 0.200400
v 0.032990 -0.015383 0.199595
v 0.033987 -0.015848 0.199300
v 0.034983 -0.016313 0.199595
v 0.035713 -0.016653 0.200400
v 0.035980 -0.016778 0.201500
v 0.037306 -0.013578 0.201500
v 0.037029 -0.013477 0.202600
v 0.036272 -0.013202 0.203405
v 0.035238 -0.012826 0.203700
v 0.034205 -0.012450 0.203405
v 0.033448 -0.012174 0.202600
v 0.033171 -0.012073 0.201500
v 0.033448 -0.012174 0.200400
v 0.034205 -0.012450 0.199595
v 0.035238 -0.012826 0.199300
v 0.036272 -0.013202 0.199595
v 0.037029 -0.013477 0.200400
v 0.037306 -0.013578 0.201500
v 0.038347 -0.010275 0.201500
v 0.038063 -0.010199 0.202600
v 0.037285 -0.009990 0.203405
v 0.036222 -0.009706 0.203700
v 0.035160 -0.009421 0.203405
v 0.034382 -0.009213 0.202600
v 0.034097 -0.009136 0.201500
v 0.034382 -0.009213 0.200400
v 0.035160 -0.009421 0.199595
v 0.036222 -0.009706 0.199300
v 0.037285 -0.009990 0.199595
v 0.038063 -0.010199 0.200400
v 0.038347 -0.010275 0.201500
v 0.039097 -0.006894 0.201500
v 0.038807 -0.006843 0.202600
v 0.038014 -0.006703 0.203405
v 0.036930 -0.006512 0.203700
v 0.035847 -0.006321 0.203405
v 0.035054 -0.006181 0.202600
v 0.034764 -0.006130 0.201500
v 0.035054 -0.006181 0.200400
v 0.035847 -0.006321 0.199595
v 0.036930 -0.006512 0.199300
v 0.038014 -0.006703 0.199595
v 0.038807 -0.006843 0.200400
v 0.039097 -0.006894 0.201500
v 0.039549 -0.003460 0.201500
v 0.039255 -0.003434 0.202600
v 0.038453 -0.003364 0.203405
v 0.037357 -0.003268 0.203700
v 0.036261 -0.003172 0.203405
v 0.035459 -0.003102 0.202600
v 0.035166 -0.003077 0.201500
v 0.035459 -0.003102 0.200400
v 0.036261 -0.003172 0.199595
v 0.037357 -0.003268 0.199300
v 0.038453 -0.003364 0.199595
v 0.039255 -0.003434 0.200400
v 0.039549 -0.003460 0.201500
f 1 15 2
f 1 14 15
f 2 16 3
f 2 15 16
f 3 17 4
f 3 16 17
f 4 18 5
f 4 17 18
f 5 19 6
f 5 18 19
f 6 20 7
f 6 19 20
f 7 21 8
f 7 20 21
f 8 22 9
f 8 21 22
f 9 23 10
f 9 22 23
f 10 24 11
f 10 23 24
f 11 25 12
f 11 24 25
f 12 26 13
f 12 25 26
f 14 28 15
f 14 27 28
f 15 29 16
f 15 28 29
f 16 30 17
f 16 29 30
f 17 31 18
f 17 30 31
f 18 32 19
f 18 31 32
f 19 33 20
f 19 32 33
f 20 34 21
f 20 33 34
f 21 35 22
f 21 34 35
f 22 36 23
f 22 35 36
f 23 37 24
f 23 36 37
f 24 38 25
f 24 37 38
f 25 39 26
f 25 38 39
f 27 41 28
f 27 40 41
f 28 42 29
f 28 41 42
f 29 43 30
f 29 42 43
f 30 44 31
f 30 43 44
f 31 45 32
f 31 44 45
f 32 46 33
f 32 45 46
f 33 47 34
f 33 46 47
f 34 48 35
f 34 47 48
f 35 49 36
f 35 48 49
f 36 50 37
f 36 49 50
f 37 51 38
f 37 50 51
f 38 52 39
f 38 51 52
f 40 54 41
f 40 53 54
f 41 55 42
f 41 54 55
f 42 56 43
f 42 55 56
f 43 57 44
f 43 56 57
f 44 58 45
f 44 57 58
f 45 59 46
f 45 58 59
f 46 60 47
f 46 59 60
f 47 61 48
f 47 60 61
f 48 62 49
f 48 61 62
f 49 63 50
f 49 62 63
f 50 64 51
f 50 63 64
f 51 65 52
f 51 64 65
f 53 67 54
f 53 66 67
f 54 68 55
f 54 67 68
f 55 69 56
f 55 68 69
f 56 70 57
f 56 69 70
f 57 71 58
f 57 70 71
f 58 72 59
f 58 71 72
f 59 73 60
f 59 72 73
f 60 74 61
f 60 73 74
f 61 75 62
f 61 74 75
f 62 76 63
f 62 75 76
f 63 77 64
f 63 76 77
f 64 78 65
f 64 77 78
f 66 80 67
f 66 79 80
f 67 81 68
f 67 80 81
f 68 82 69
f 68 81 82
f 69 83 70
f 69 82 83
f 70 84 71
f 70 83 84
f 71 85 72
f 71 84 85
f 72 86 73
f 72 85 86
f 73 87 74
f 73 86 87
f 74 88 75
f 74 87 88
f 75 89 76
f 75 88 89
f 76 90 77
f 76 89 90
f 77 91 78
f 77 90 91
f 79 93 80
f 79 92 93
f 80 94 81
f 80 93 94
f 81 95 82
f 81 94 95
f 82 96 83
f 82 95 96
f 83 97 84
f 83 96 97
f 84 98 85
f 84 97 98
f 85 99 86
f 85 98 99
f 86 100 87
f 86 99 100
f 87 101 88
f 87 100 101
f 88 102 89
f 88 101 102
f 89 103 90
f 89 102 103
f 90 104 91
f 90 103 104
f 92 106 93
f 92 105 106
f 93 107 94
f 93 106 107
f 94 108 95
f 94 107 108
f 95 109 96
f 95 108 109
f 96 110 97
f 96 109 110
f 97 111 98
f 97 110 111
f 98 112 99
f 98 111 112
f 99 113 100
f 99 112 113
f 100 114 101
f 100 113 114
f 101 115 102
f 101 114 115
f 102 116 103
f 102 115 116
f 103 117 104
f 103 116 117
f 105 119 106
f 105 118 119
f 106 120 107
f 106 119 120
f 107 121 108
f 107 120 121
f 108 122 109
f 108 121 122
f 109 123 110
f 109 122 123
f 110 124 111
f 110 123 124
f 111 125 112
f 111 124 125
f 112 126 113
f 112 125 126
f 113 127 114
f 113 126 127
f 114 128 115
f 114 127 128
f 115 129 116
f 115 128 129
f 116 130 117
f 116 129 130
f 118 132 119
f 118 131 132
f 119 133 120
f 119 132 133
f 120 134 121
f 120 133 134
f 121 135 122
f 121 134 135
f 122 136 123
f 122 135 136
f 123 137 124
f 123 136 137
f 124 138 125
f 124 137 138
f 125 139 126
f 125 138 139
f 126 140 127
f 126 139 140
f 127 141 128
f 127 140 141
f 128 142 129
f 128 141 142
f 129 143 130
f 129 142 143
f 131 145 132
f 131 144 145
f 132 146 133
f 132 145 146
f 133 147 134
f 133 146 147
f 134 148 135
f 134 147 148
f 135 149 136
f 135 148 149
f 136 150 137
f 136 149 150
f 137 151 138
f 137 150 151
f 138 152 139
f 138 151 152
f 139 153 140
f 139 152 153
f 140 154 141
f 140 153 154
f 141 155 142
f 141 154 155
f 142 156 143
f 142 155 156
f 144 158 145
f 144 157 158
f 145 159 146
f 145 158 159
f 146 160 147
f 146 159 160
f 147 161 148
f 147 160 161
f 148 162 149
f 148 161 162
f 149 163 150
f 149 162 163
f 150 164 151
f 150 163 164
f 151 165 152
f 151 164 165
f 152 166 153
f 152 165 166
f 153 167 154
f 153 166 167
f 154 168 155
f 154 167 168
f 155 169 156
f 155 168 169
f 157 171 158
f 157 170 171
f 158 172 159
f 158 171 172
f 159 173 160
f 159 172 173
f 160 174 161
f 160 173 174
f 161 175 162
f 161 174 175
f 162 176 163
f 162 175 176
f 163 177 164
f 163 176 177
f 164 178 165
f 164 177 178
f 165 179 166
f 165 178 179
f 166 180 167
f 166 179 180
f 167 181 168
f 167 180 181
f 168 182 169
f 168 181 182
f 170 184 171
f 170 183 184
f 171 185 172
f 171 184 185
f 172 186 173
f 172 185 186
f 173 187 174
f 173 186 187
f 174 188 175
f 174 187 188
f 175 189 176
f 175 188 189
f 176 190 177
f 176 189 190
f 177 191 178
f 177 190 191
f 178 192 179
f 178 191 192
f 179 193 180
f 179 192 193
f 180 194 181
f 180 193 194
f 181 195 182
f 181 194 195
f 183 197 184
f 183 196 197
f 184 198 185
f 184 197 198
f 185 199 186
f 185 198 199
f 186 200 187
f 186 199 200
f 187 201 188
f 187 200 201
f 188 202 189
f 188 201 202
f 189 203 190
f 189 202 203
f 190 204 191
f 190 203 204
f 191 205 192
f 191 204 205
f 192 206 193
f 192 205 206
f 193 207 194
f 193 206 207
f 194 208 195
f 194 207 208
f 196 210 197
f 196 209 210
f 197 211 198
f 197 210 211
f 198 212 199
f 198 211 212
f 199 213 200
f 199 212 213
f 200 214 201
f 200 213 214
f 201 215 202
f 201 214 215
f 202 216 203
f 202 215 216
f 203 217 204
f 203 216 217
f 204 218 205
f 204 217 218
f 205 219 206
f 205 218 219
f 206 220 207
f 206 219 220
f 207 221 208
f 207 220 221
f 209 223 210
f 209 222 223
f 210 224 211
f 210 223 224
f 211 225 212
f 211 224 225
f 212 226 213
f 212 225 226
f 213 227 214
f 213 226 227
f 214 228 215
f 214 227 228
f 215 229 216
f 215 228 229
f 216 230 217
f 216 229 230
f 217 231 218
f 217 230 231
f 218 232 219
f 218 231 232
f 219 233 220
f 219 232 233
f 220 234 221
f 220 233 234
f 222 236 223
f 222 235 236
f 223 237 224
f 223 236 237
f 224 238 225
f 224 237 238
f 225 239 226
f 225 238 239
f 226 240 227
f 226 239 240
f 227 241 228
f 227 240 241
f 228 242 229
f 228 241 242
f 229 243 230
f 229 242 243
f 230 244 231
f 230 243 244
f 231 245 232
f 231 244 245
f 232 246 233
f 232 245 246
f 233 247 234
f 233 246 247
f 235 249 236
f 235 248 249
f 236 250 237
f 236 249 250
f 237 251 238
f 237 250 251
f 238 252 239
f 238 251 252
f 239 253 240
f 239 252 253
f 240 254 241
f 240 253 254
f 241 255 242
f 241 254 255
f 242 256 243
f 242 255 256
f 243 257 244
f 243 256 257
f 244 258 245
f 244 257 258
f 245 259 246
f 245 258 259
f 246 260 247
f 246 259 260
f 248 262 249
f 248 261 262
f 249 263 250
f 249 262 263
f 250 264 251
f 250 263 264
f 251 265 252
f 251 264 265
f 252 266 253
f 252 265 266
f 253 267 254
f 253 266 267
f 254 268 255
f 254 267 268
f 255 269 256
f 255 268 269
f 256 270 257
f 256 269 270
f 257 271 258
f 257 270 271
f 258 272 259
f 258 271 272
f 259 273 260
f 259 272 273
f 261 275 262
f 261 274 275
f 262 276 263
f 262 275 276
f 263 277 264
f 263 276 277
f 264 278 265
f 264 277 278
f 265 279 266
f 265 278 279
f 266 280 267
f 266 279 280
f 267 281 268
f 267 280 281
f 268 282 269
f 268 281 282
f 269 283 270
f 269 282 283
f 270 284 271
f 270 283 284
f 271 285 272
f 271 284 285
f 272 286 273
f 272 285 286
f 274 288 275
f 274 287 288
f 275 289 276
f 275 288 289
f 276 290 277
f 276 289 290
f 277 291 278
f 277 290 291
f 278 292 279
f 278 291 292
f 279 293 280
f 279 292 293
f 280 294 281
f 280 293 294
f 281 295 282
f 281 294 295
f 282 296 283
f 282 295 296
f 283 297 284
f 283 296 297
f 284 298 285
f 284 297 298
f 285 299 286
f 285 298 299
f 287 301 288
f 287 300 301
f 288 302 289
f 288 301 302
f 289 303 290
f 289 302 303
f 290 304 291
f 290 303 304
f 291 305 292
f 291 304 305
f 292 306 293
f 292 305 306
f 293 307 294
f 293 306 307
f 294 308 295
f 294 307 308
f 295 309 296
f 295 308 309
f 296 310 297
f 296 309 310
f 297 311 298
f 297 310 311
f 298 312 299
f 298 311 312
f 300 314 301
f 300 313 314
f 301 315 302
f 301 314 315
f 302 316 303
f 302 315 316
f 303 317 304
f 303 316 317
f 304 318 305
f 304 317 318
f 305 319 306
f 305 318 319
f 306 320 307
f 306 319 320
f 307 321 308
f 307 320 321
f 308 322 309
f 308 321 322
f 309 323 310
f 309 322 323
f 310 324 311
f 310 323 324
f 311 325 312
f 311 324 325
f 313 327 314
f 313 326 327
f 314 328 315
f 314 327 328
f 315 329 316
f 315 328 329
f 316 330 317
f 316 329 330
f 317 331 318
f 317 330 331
f 318 332 319
f 318 331 332
f 319 333 320
f 319 332 333
f 320 334 321
f 320 333 334
f 321 335 322
f 321 334 335
f 322 336 323
f 322 335 336
f 323 337 324
f 323 336 337
f 324 338 325
f 324 337 338
f 326 340 327
f 326 339 340
f 327 341 328
f 327 340 341
f 328 342 329
f 328 341 342
f 329 343 330
f 329 342 343
f 330 344 331
f 330 343 344
f 331 345 332
f 331 344 345
f 332 346 333
f 332 345 346
f 333 347 334
f 333 346 347
f 334 348 335
f 334 347 348
f 335 349 336
f 335 348 349
f 336 350 337
f 336 349 350
f 337 351 338
f 337 350 351
f 339 353 340
f 339 352 353
f 340 354 341
f 340 353 354
f 341 355 342
f 341 354 355
f 342 356 343
f 342 355 356
f 343 357 344
f 343 356 357
f 344 358 345
f 344 357 358
f 345 359 346
f 345 358 359
f 346 360 347
f 346 359 360
f 347 361 348
f 347 360 361
f 348 362 349
f 348 361 362
f 349 363 350
f 349 362 363
f 350 364 351
f 350 363 364
f 352 366 353
f 352 365 366
f 353 367 354
f 353 366 367
f 354 368 355
f 354 367 368
f 355 369 356
f 355 368 369
f 356 370 357
f 356 369 370
f 357 371 358
f 357 370 371
f 358 372 359
f 358 371 372
f 359 373 360
f 359 372 373
f 360 374 361
f 360 373 374
f 361 375 362
f 361 374 375
f 362 376 363
f 362 375 376
f 363 377 364
f 363 376 377
f 365 379 366
f 365 378 379
f 366 380 367
f 366 379 380
f 367 381 368
f 367 380 381
f 368 382 369
f 368 381 382
f 369 383 370
f 369 382 383
f 370 384 371
f 370 383 384
f 371 385 372
f 371 384 385
f 372 386 373
f 372 385 386
f 373 387 374
f 373 386 387
f 374 388 375
f 374 387 388
f 375 389 376
f 375 388 389
f 376 390 377
f 376 389 390
f 378 392 379
f 378 391 392
f 379 393 380
f 379 392 393
f 380 394 381
f 380 393 394
f 381 395 382
f 381 394 395
f 382 396 383
f 382 395 396
f 383 397 384
f 383 396 397
f 384 398 385
f 384 397 398
f 385 399 386
f 385 398 399
f 386 400 387
f 386 399 400
f 387 401 388
f 387 400 401
f 388 402 389
f 388 401 402
f 389 403 390
f 389 402 403
f 391 405 392
f 391 404 405
f 392 406 393
f 392 405 406
f 393 407 394
f 393 406 407
f 394 408 395
f 394 407 408
f 395 409 396
f 395 408 409
f 396 410 397
f 396 409 410
f 397 411 398
f 397 410 411
f 398 412 399
f 398 411 412
f 399 413 400
f 399 412 413
f 400 414 401
f 400 413 414
f 401 415 402
f 401 414 415
f 402 416 403
f 402 415 416
f 404 418 405
f 404 417 418
f 405 419 406
f 405 418 419
f 406 420 407
f 406 419 420
f 407 421 408
f 407 420 421
f 408 422 409
f 408 421 422
f 409 423 410
f 409 422 423
f 410 424 411
f 410 423 424
f 411 425 412
f 411 424 425
f 412 426 413
f 412 425 426
f 413 427 414
f 413 426 427
f 414 428 415
f 414 427 428
f 415 429 416
f 415 428 429
f 417 431 418
f 417 430 431
f 418 432 419
f 418 431 432
f 419 433 420
f 419 432 433
f 420 434 421
f 420 433 434
f 421 435 422
f 421 434 435
f 422 436 423
f 422 435 436
f 423 437 424
f 423 436 437
f 424 438 425
f 424 437 438
f 425 439 426
f 425 438 439
f 426 440 427
f 426 439 440
f 427 441 428
f 427 440 441
f 428 442 429
f 428 441 442
f 430 444 431
f 430 443 444
f 431 445 432
f 431 444 445
f 432 446 433
f 432 445 446
f 433 447 434
f 433 446 447
f 434 448 435
f 434 447 448
f 435 449 436
f 435 448 449
f 436 450 437
f 436 449 450
f 437 451 438
f 437 450 451
f 438 452 439
f 438 451 452
f 439 453 440
f 439 452 453
f 440 454 441
f 440 453 454
f 441 455 442
f 441 454 455
f 443 457 444
f 443 456 457
f 444 458 445
f 444 457 458
f 445 459 446
f 445 458 459
f 446 460 447
f 446 459 460
f 447 461 448
f 447 460 461
f 448 462 449
f 448 461 462
f 449 463 450
f 449 462 463
f 450 464 451
f 450 463 464
f 451 465 452
f 451 464 465
f 452 466 453
f 452 465 466
f 453 467 454
f 453 466 467
f 454 468 455
f 454 467 468
f 456 470 457
f 456 469 470
f 457 471 458
f 457 470 471
f 458 472 459
f 458 471 472
f 459 473 460
f 459 472 473
f 460 474 461
f 460 473 474
f 461 475 462
f 461 474 475
f 462 476 463
f 462 475 476
f 463 477 464
f 463 476 477
f 464 478 465
f 464 477 478
f 465 479 466
f 465 478 479
f 466 480 467
f 466 479 480
f 467 481 468
f 467 480 481
f 469 483 470
f 469 482 483
f 470 484 471
f 470 483 484
f 471 485 472
f 471 484 485
f 472 486 473
f 472 485 486
f 473 487 474
f 473 486 487
f 474 488 475
f 474 487 488
f 475 489 476
f 475 488 489
f 476 490 477
f 476 489 490
f 477 491 478
f 477 490 491
f 478 492 479
f 478 491 492
f 479 493 480
f 479 492 493
f 480 494 481
f 480 493 494
f 482 496 483
f 482 495 496
f 483 497 484
f 483 496 497
f 484 498 485
f 484 497 498
f 485 499 486
f 485 498 499
f 486 500 487
f 486 499 500
f 487 501 488
f 487 500 501
f 488 502 489
f 488 501 502
f 489 503 490
f 489 502 503
f 490 504 491
f 490 503 504
f 491 505 492
f 491 504 505
f 492 506 493
f 492 505 506
f 493 507 494
f 493 506 507
f 495 509 496
f 495 508 509
f 496 510 497
f 496 509 510
f 497 511 498
f 497 510 511
f 498 512 499
f 498 511 512
f 499 513 500
f 499 512 513
f 500 514 501
f 500 513 514
f 501 515 502
f 501 514 515
f 502 516 503
f 502 515 516
f 503 517 504
f 503 516 517
f 504 518 505
f 504 517 518
f 505 519 506
f 505 518 519
f 506 520 507
f 506 519 520
f 508 522 509
f 508 521 522
f 509 523 510
f 509 522 523
f 510 524 511
f 510 523 524
f 511 525 512
f 511 524 525
f 512 526 513
f 512 525 526
f 513 527 514
f 513 526 527
f 514 528 515
f 514 527 528
f 515 529 516
f 515 528 529
f 516 530 517
f 516 529 530
f 517 531 518
f 517 530 531
f 518 532 519
f 518 531 532
f 519 533 520
f 519 532 533
f 521 535 522
f 521 534 535
f 522 536 523
f 522 535 536
f 523 537 524
f 523 536 537
f 524 538 525
f 524 537 538
f 525 539 526
f 525 538 539
f 526 540 527
f 526 539 540
f 527 541 528
f 527 540 541
f 528 542 529
f 528 541 542
f 529 543 530
f 529 542 543
f 530 544 531
f 530 543 544
f 531 545 532
f 531 544 545
f 532 546 533
f 532 545 546
f 534 548 535
f 534 547 548
f 535 549 536
f 535 548 549
f 536 550 537
f 536 549 550
f 537 551 538
f 537 550 551
f 538 552 539
f 538 551 552
f 539 553 540
f 539 552 553
f 540 554 541
f 540 553 554
f 541 555 542
f 541 554 555
f 542 556 543
f 542 555 556
f 543 557 544
f 543 556 557
f 544 558 545
f 544 557 558
f 545 559 546
f 545 558 559
f 547 561 548
f 547 560 561
f 548 562 549
f 548 561 562
f 549 563 550
f 549 562 563
f 550 564 551
f 550 563 564
f 551 565 552
f 551 564 565
f 552 566 553
f 552 565 566
f 553 567 554
f 553 566 567
f 554 568 555
f 554 567 568
f 555 569 556
f 555 568 569
f 556 570 557
f 556 569 570
f 557 571 558
f 557 570 571
f 558 572 559
f 558 571 572
f 560 574 561
f 560 573 574
f 561 575 562
f 561 574 575
f 562 576 563
f 562 575 576
f 563 577 564
f 563 576 577
f 564 578 565
f 564 577 578
f 565 579 566
f 565 578 579
f 566 580 567
f 566 579 580
f 567 581 568
f 567 580 581
f 568 582 569
f 568 581 582
f 569 583 570
f 569 582 583
f 570 584 571
f 570 583 584
f 571 585 572
f 571 584 585
f 573 587 574
f 573 586 587
f 574 588 575
f 574 587 588
f 575 589 576
f 575 588 589
f 576 590 577
f 576 589 590
f 577 591 578
f 577 590 591
f 578 592 579
f 578 591 592
f 579 593 580
f 579 592 593
f 580 594 581
f 580 593 594
f 581 595 582
f 581 594 595
f 582 596 583
f 582 595 596
f 583 597 584
f 583 596 597
f 584 598 585
f 584 597 598
f 586 600 587
f 586 599 600
f 587 601 588
f 587 600 601
f 588 602 589
f 588 601 602
f 589 603 590
f 589 602 603
f 590 604 591
f 590 603 604
f 591 605 592
f 591 604 605
f 592 606 593
f 592 605 606
f 593 607 594
f 593 606 607
f 594 608 595
f 594 607 608
f 595 609 596
f 595 608 609
f 596 610 597
f 596 609 610
f 597 611 598
f 597 610 611
f 599 613 600
f 599 612 613
f 600 614 601
f 600 613 614
f 601 615 602
f 601 614 615
f 602 616 603
f 602 615 616
f 603 617 604
f 603 616 617
f 604 618 605
f 604 617 618
f 605 619 606
f 605 618 619
f 606 620 607
f 606 619 620
f 607 621 608
f 607 620 621
f 608 622 609
f 608 621 622
f 609 623 610
f 609 622 623
f 610 624 611
f 610 623 624
f 612 626 613
f 612 625 626
f 613 627 614
f 613 626 627
f 614 628 615
f 614 627 628
f 615 629 616
f 615 628 629
f 616 630 617
f 616 629 630
f 617 631 618
f 617 630 631
f 618 632 619
f 618 631 632
f 619 633 620
f 619 632 633
f 620 634 621
f 620 633 634
f 621 635 622
f 621 634 635
f 622 636 623
f 622 635 636
f 623 637 624
f 623 636 637
f 625 639 626
f 625 638 639
f 626 640 627
f 626 639 640
f 627 641 628
f 627 640 641
f 628 642 629
f 628 641 642
f 629 643 630
f 629 642 643
f 630 644 631
f 630 643 644
f 631 645 632
f 631 644 645
f 632 646 633
f 632 645 646
f 633 647 634
f 633 646 647
f 634 648 635
f 634 647 648
f 635 649 636
f 635 648 649
f 636 650 637
f 636 649 650
f 638 652 639
f 638 651 652
f 639 653 640
f 639 652 653
f 640 654 641
f 640 653 654
f 641 655 642
f 641 654 655
f 642 656 643
f 642 655 656
f 643 657 644
f 643 656 657
f 644 658 645
f 644 657 658
f 645 659 646
f 645 658 659
f 646 660 647
f 646 659 660
f 647 661 648
f 647 660 661
f 648 662 649
f 648 661 662
f 649 663 650
f 649 662 663
f 651 665 652
f 651 664 665
f 652 666 653
f 652 665 666
f 653 667 654
f 653 666 667
f 654 668 655
f 654 667 668
f 655 669 656
f 655 668 669
f 656 670 657
f 656 669 670
f 657 671 658
f 657 670 671
f 658 672 659
f 658 671 672
f 659 673 660
f 659 672 673
f 660 674 661
f 660 673 674
f 661 675 662
f 661 674 675
f 662 676 663
f 662 675 676
f 664 678 665
f 664 677 678
f 665 679 666
f 665 678 679
f 666 680 667
f 666 679 680
f 667 681 668
f 667 680 681
f 668 682 669
f 668 681 682
f 669 683 670
f 669 682 683
f 670 684 671
f 670 683 684
f 671 685 672
f 671 684 685
f 672 686 673
f 672 685 686
f 673 687 674
f 673 686 687
f 674 688 675
f 674 687 688
f 675 689 676
f 675 688 689
f 677 691 678
f 677 690 691
f 678 692 679
f 678 691 692
f 679 693 680
f 679 692 693
f 680 694 681
f 680 693 694
f 681 695 682
f 681 694 695
f 682 696 683
f 682 695 696
f 683 697 684
f 683 696 697
f 684 698 685
f 684 697 698
f 685 699 686
f 685 698 699
f 686 700 687
f 686 699 700
f 687 701 688
f 687 700 701
f 688 702 689
f 688 701 702
f 690 704 691
f 690 703 704
f 691 705 692
f 691 704 705
f 692 706 693
f 692 705 706
f 693 707 694
f 693 706 707
f 694 708 695
f 694 707 708
f 695 709 696
f 695 708 709
f 696 710 697
f 696 709 710
f 697 711 698
f 697 710 711
f 698 712 699
f 698 711 712
f 699 713 700
f 699 712 713
f 700 714 701
f 700 713 714
f 701 715 702
f 701 714 715
f 703 717 704
f 703 716 717
f 704 718 705
f 704 717 718
f 705 719 706
f 705 718 719
f 706 720 707
f 706 719 720
f 707 721 708
f 707 720 721
f 708 722 709
f 708 721 722
f 709 723 710
f 709 722 723
f 710 724 711
f 710 723 724
f 711 725 712
f 711 724 725
f 712 726 713
f 712 725 726
f 713 727 714
f 713 726 727
f 714 728 715
f 714 727 728
f 716 730 717
f 716 729 730
f 717 731 718
f 717 730 731
f 718 732 719
f 718 731 732
f 719 733 720
f 719 732 733
f 720 734 721
f 720 733 734
f 721 735 722
f 721 734 735
f 722 736 723
f 722 735 736
f 723 737 724
f 723 736 737
f 724 738 725
f 724 737 738
f 725 739 726
f 725 738 739
f 726 740 727
f 726 739 740
f 727 741 728
f 727 740 741
f 729 743 730
f 729 742 743
f 730 744 731
f 730 743 744
f 731 745 732
f 731 744 745
f 732 746 733
f 732 745 746
f 733 747 734
f 733 746 747
f 734 748 735
f 734 747 748
f 735 749 736
f 735 748 749
f 736 750 737
f 736 749 750
f 737 751 738
f 737 750 751
f 738 752 739
f 738 751 752
f 739 753 740
f 739 752 753
f 740 754 741
f 740 753 754
f 742 756 743
f 742 755 756
f 743 757 744
f 743 756 757
f 744 758 745
f 744 757 758
f 745 759 746
f 745 758 759
f 746 760 747
f 746 759 760
f 747 761 748
f 747 760 761
f 748 762 749
f 748 761 762
f 749 763 750
f 749 762 763
f 750 764 751
f 750 763 764
f 751 765 752
f 751 764 765
f 752 766 753
f 752 765 766
f 753 767 754
f 753 766 767
f 755 769 756
f 755 768 769
f 756 770 757
f 756 769 770
f 757 771 758
f 757 770 771
f 758 772 759
f 758 771 772
f 759 773 760
f 759 772 773
f 760 774 761
f 760 773 774
f 761 775 762
f 761 774 775
f 762 776 763
f 762 775 776
f 763 777 764
f 763 776 777
f 764 778 765
f 764 777 778
f 765 779 766
f 765 778 779
f 766 780 767
f 766 779 780
f 768 782 769
f 768 781 782
f 769 783 770
f 769 782 783
f 770 784 771
f 770 783 784
f 771 785 772
f 771 784 785
f 772 786 773
f 772 785 786
f 773 787 774
f 773 786 787
f 774 788 775
f 774 787 788
f 775 789 776
f 775 788 789
f 776 790 777
f 776 789 790
f 777 791 778
f 777 790 791
f 778 792 779
f 778 791 792
f 779 793 780
f 779 792 793
f 781 795 782
f 781 794 795
f 782 796 783
f 782 795 796
f 783 797 784
f 783 796 797
f 784 798 785
f 784 797 798
f 785 799 786
f 785 798 799
f 786 800 787
f 786 799 800
f 787 801 788
f 787 800 801
f 788 802 789
f 788 801 802
f 789 803 790
f 789 802 803
f 790 804 791
f 790 803 804
f 791 805 792
f 791 804 805
f 792 806 793
f 792 805 806
f 794 808 795
f 794 807 808
f 795 809 796
f 795 808 809
f 796 810 797
f 796 809 810
f 797 811 798
f 797 810 811
f 798 812 799
f 798 811 812
f 799 813 800
f 799 812 813
f 800 814 801
f 800 813 814
f 801 815 802
f 801 814 815
f 802 816 803
f 802 815 816
f 803 817 804
f 803 816 817
f 804 818 805
f 804 817 818
f 805 819 806
f 805 818 819
f 807 821 808
f 807 820 821
f 808 822 809
f 808 821 822
f 809 823 810
f 809 822 823
f 810 824 811
f 810 823 824
f 811 825 812
f 811 824 825
f 812 826 813
f 812 825 826
f 813 827 814
f 813 826 827
f 814 828 815
f 814 827 828
f 815 829 816
f 815 828 829
f 816 830 817
f 816 829 830
f 817 831 818
f 817 830 831
f 818 832 819
f 818 831 832
f 820 834 821
f 820 833 834
f 821 835 822
f 821 834 835
f 822 836 823
f 822 835 836
f 823 837 824
f 823 836 837
f 824 838 825
f 824 837 838
f 825 839 826
f 825 838 839
f 826 840 827
f 826 839 840
f 827 841 828
f 827 840 841
f 828 842 829
f 828 841 842
f 829 843 830
f 829 842 843
f 830 844 831
f 830 843 844
f 831 845 832
f 831 844 845
f 833 847 834
f 833 846 847
f 834 848 835
f 834 847 848
f 835 849 836
f 835 848 849
f 836 850 837
f 836 849 850
f 837 851 838
f 837 850 851
f 838 852 839
f 838 851 852
f 839 853 840
f 839 852 853
f 840 854 841
f 840 853 854
f 841 855 842
f 841 854 855
f 842 856 843
f 842 855 856
f 843 857 844
f 843 856 857
f 844 858 845
f 844 857 858
f 846 860 847
f 846 859 860
f 847 861 848
f 847 860 861
f 848 862 849
f 848 861 862
f 849 863 850
f 849 862 863
f 850 864 851
f 850 863 864
f 851 865 852
f 851 864 865
f 852 866 853
f 852 865 866
f 853 867 854
f 853 866 867
f 854 868 855
f 854 867 868
f 855 869 856
f 855 868 869
f 856 870 857
f 856 869 870
f 857 871 858
f 857 870 871
f 859 873 860
f 859 872 873
f 860 874 861
f 860 873 874
f 861 875 862
f 861 874 875
f 862 876 863
f 862 875 876
f 863 877 864
f 863 876 877
f 864 878 865
f 864 877 878
f 865 879 866
f 865 878 879
f 866 880 867
f 866 879 880
f 867 881 868
f 867 880 881
f 868 882 869
f 868 881 882
f 869 883 870
f 869 882 883
f 870 884 871
f 870 883 884
f 872 886 873
f 872 885 886
f 873 887 874
f 873 886 887
f 874 888 875
f 874 887 888
f 875 889 876
f 875 888 889
f 876 890 877
f 876 889 890
f 877 891 878
f 877 890 891
f 878 892 879
f 878 891 892
f 879 893 880
f 879 892 893
f 880 894 881
f 880 893 894
f 881 895 882
f 881 894 895
f 882 896 883
f 882 895 896
f 883 897 884
f 883 896 897
f 885 899 886
f 885 898 899
f 886 900 887
f 886 899 900
f 887 901 888
f 887 900 901
f 888 902 889
f 888 901 902
f 889 903 890
f 889 902 903
f 890 904 891
f 890 903 904
f 891 905 892
f 891 904 905
f 892 906 893
f 892 905 906
f 893 907 894
f 893 906 907
f 894 908 895
f 894 907 908
f 895 909 896
f 895 908 909
f 896 910 897
f 896 909 910
f 898 912 899
f 898 911 912
f 899 913 900
f 899 912 913
f 900 914 901
f 900 913 914
f 901 915 902
f 901 914 915
f 902 916 903
f 902 915 916
f 903 917 904
f 903 916 917
f 904 918 905
f 904 917 918
f 905 919 906
f 905 918 919
f 906 920 907
f 906 919 920
f 907 921 908
f 907 920 921
f 908 922 909
f 908 921 922
f 909 923 910
f 909 922 923
f 911 925 912
f 911 924 925
f 912 926 913
f 912 925 926
f 913 927 914
f 913 926 927
f 914 928 915
f 914 927 928
f 915 929 916
f 915 928 929
f 916 930 917
f 916 929 930
f 917 931 918
f 917 930 931
f 918 932 919
f 918 931 932
f 919 933 920
f 919 932 933
f 920 934 921
f 920 933 934
f 921 935 922
f 921 934 935
f 922 936 923
f 922 935 936
f 924 2 925
f 924 1 2
f 925 3 926
f 925 2 3
f 926 4 927
f 926 3 4
f 927 5 928
f 927 4 5
f 928 6 929
f 928 5 6
f 929 7 930
f 929 6 7
f 930 8 931
f 930 7 8
f 931 9 932
f 931 8 9
f 932 10 933
f 932 9 10
f 933 11 934
f 933 10 11
f 934 12 935
f 934 11 12
f 935 13 936
f 935 12 13
