v 0.038632 0.000000 0.022485
v 0.038650 -0.001391 0.022265
v 0.038702 -0.002645 0.021628
v 0.038784 -0.003641 0.020636
v 0.038886 -0.004280 0.019386
v 0.039000 -0.004500 0.018000
v 0.039114 -0.004280 0.016614
v 0.039216 -0.003641 0.015364
v 0.039298 -0.002645 0.014372
v 0.039350 -0.001391 0.013735
v 0.039368 -0.000000 0.013515
v 0.039350 0.001391 0.013735
v 0.039298 0.002645 0.014372
v 0.039216 0.003641 0.015364
v 0.039114 0.004280 0.016614
v 0.039000 0.004500 0.018000
v 0.038886 0.004280 0.019386
v 0.038784 0.003641 0.020636
v 0.038702 0.002645 0.021628
v 0.038650 0.001391 0.022265
v 0.041672 0.000000 0.022719
v 0.041708 -0.001391 0.022502
v 0.041812 -0.002645 0.021871
v 0.041974 -0.003641 0.020889
v 0.042178 -0.004280 0.019651
v 0.042404 -0.004500 0.018279
v 0.042630 -0.004280 0.016907
v 0.042835 -0.003641 0.015670
v 0.042997 -0.002645 0.014687
v 0.043101 -0.001391 0.014057
v 0.043136 -0.000000 0.013839
v 0.043101 0.001391 0.014057
v 0.042997 0.002645 0.014687
v 0.042835 0.003641 0.015670
v 0.042630 0.004280 0.016907
v 0.042404 0.004500 0.018279
v 0.042178 0.004280 0.019651
v 0.041974 0.003641 0.020889
v 0.041812 0.002645 0.021871
v 0.041708 0.001391 0.022502
v 0.044311 0.000000 0.023378
v 0.044381 -0.001391 0.023169
v 0.044585 -0.002645 0.022563
v 0.044902 -0.003641 0.021620
v 0.045302 -0.004280 0.020431
v 0.045745 -0.004500 0.019112
v 0.046188 -0.004280 0.017794
v 0.046588 -0.003641 0.016605
v 0.046905 -0.002645 0.015662
v 0.047109 -0.001391 0.015056
v 0.047179 -0.000000 0.014847
v 0.047109 0.001391 0.015056
v 0.046905 0.002645 0.015662
v 0.046588 0.003641 0.016605
v 0.046188 0.004280 0.017794
v 0.045745 0.004500 0.019112
v 0.045302 0.004280 0.020431
v 0.044902 0.003641 0.021620
v 0.044585 0.002645 0.022563
v 0.044381 0.001391 0.023169
v 0.046880 0.000000 0.024474
v 0.046982 -0.001391 0.024279
v 0.047277 -0.002645 0.023712
v 0.047737 -0.003641 0.022829
v 0.048317 -0.004280 0.021717
v 0.048960 -0.004500 0.020484
v 0.049603 -0.004280 0.019251
v 0.050183 -0.003641 0.018138
v 0.050643 -0.002645 0.017255
v 0.050938 -0.001391 0.016689
v 0.051040 -0.000000 0.016493
v 0.050938 0.001391 0.016689
v 0.050643 0.002645 0.017255
v 0.050183 0.003641 0.018138
v 0.049603 0.004280 0.019251
v 0.048960 0.004500 0.020484
v 0.048317 0.004280 0.021717
v 0.047737 0.003641 0.022829
v 0.047277 0.002645 0.023712
v 0.046982 0.001391 0.024279
v 0.049337 0.000000 0.026002
v 0.049467 -0.001391 0.025825
v 0.049844 -0.002645 0.025308
v 0.050430 -0.003641 0.024504
v 0.051170 -0.004280 0.023491
v 0.051990 -0.004500 0.022367
v 0.052809 -0.004280 0.021244
v 0.053549 -0.003641 0.020231
v 0.054136 -0.002645 0.019427
v 0.054512 -0.001391 0.018910
v 0.054642 -0.000000 0.018732
v 0.054512 0.001391 0.018910
v 0.054136 0.002645 0.019427
v 0.053549 0.003641 0.020231
v 0.052809 0.004280 0.021244
v 0.051990 0.004500 0.022367
v 0.051170 0.004280 0.023491
v 0.050430 0.003641 0.024504
v 0.049844 0.002645 0.025308
v 0.049467 0.001391 0.025825
v 0.051634 0.000000 0.027949
v 0.051788 -0.001391 0.027791
v 0.052234 -0.002645 0.027334
v 0.052929 -0.003641 0.026621
v 0.053806 -0.004280 0.025724
v 0.054777 -0.004500 0.024729
v 0.055749 -0.004280 0.023734
v 0.056625 -0.003641 0.022836
v 0.057320 -0.002645 0.022124
v 0.057767 -0.001391 0.021666
v 0.057921 -0.000000 0.021509
v 0.057767 0.001391 0.021666
v 0.057320 0.002645 0.022124
v 0.056625 0.003641 0.022836
v 0.055749 0.004280 0.023734
v 0.054777 0.004500 0.024729
v 0.053806 0.004280 0.025724
v 0.052929 0.003641 0.026621
v 0.052234 0.002645 0.027334
v 0.051788 0.001391 0.027791
v 0.053720 0.000000 0.030287
v 0.053893 -0.001391 0.030152
v 0.054398 -0.002645 0.029759
v 0.055184 -0.003641 0.029148
v 0.056174 -0.004280 0.028377
v 0.057271 -0.004500 0.027523
v 0.058368 -0.004280 0.026669
v 0.059358 -0.003641 0.025899
v 0.060144 -0.002645 0.025287
v 0.060648 -0.001391 0.024895
v 0.060822 -0.000000 0.024760
v 0.060648 0.001391 0.024895
v 0.060144 0.002645 0.025287
v 0.059358 0.003641 0.025899
v 0.058368 0.004280 0.026669
v 0.057271 0.004500 0.027523
v 0.056174 0.004280 0.028377
v 0.055184 0.003641 0.029148
v 0.054398 0.002645 0.029759
v 0.053893 0.001391 0.030152
v 0.055546 0.000000 0.032981
v 0.055735 -0.001391 0.032869
v 0.056286 -0.002645 0.032545
v 0.057144 -0.003641 0.032041
v 0.058226 -0.004280 0.031405
v 0.059424 -0.004500 0.030700
v 0.060623 -0.004280 0.029995
v 0.061704 -0.003641 0.029359
v 0.062562 -0.002645 0.028854
v 0.063113 -0.001391 0.028530
v 0.063303 -0.000000 0.028418
v 0.063113 0.001391 0.028530
v 0.062562 0.002645 0.028854
v 0.061704 0.003641 0.029359
v 0.060623 0.004280 0.029995
v 0.059424 0.004500 0.030700
v 0.058226 0.004280 0.031405
v 0.057144 0.003641 0.032041
v 0.056286 0.002645 0.032545
v 0.055735 0.001391 0.032869
v 0.057066 0.000000 0.035982
v 0.057268 -0.001391 0.035895
v 0.057855 -0.002645 0.035641
v 0.058769 -0.003641 0.035247
v 0.059920 -0.004280 0.034749
v 0.061197 -0.004500 0.034198
v 0.062474 -0.004280 0.033647
v 0.063625 -0.003641 0.033150
v 0.064539 -0.002645 0.032755
v 0.065126 -0.001391 0.032501
v 0.065328 -0.000000 0.032414
v 0.065126 0.001391 0.032501
v 0.064539 0.002645 0.032755
v 0.063625 0.003641 0.033150
v 0.062474 0.004280 0.033647
v 0.061197 0.004500 0.034198
v 0.059920 0.004280 0.034749
v 0.058769 0.003641 0.035247
v 0.057855 0.002645 0.035641
v 0.057268 0.001391 0.035895
v 0.058242 0.000000 0.039231
v 0.058453 -0.001391 0.039169
v 0.059066 -0.002645 0.038987
v 0.060020 -0.003641 0.038705
v 0.061223 -0.004280 0.038348
v 0.062557 -0.004500 0.037954
v 0.063890 -0.004280 0.037559
v 0.065093 -0.003641 0.037202
v 0.066047 -0.002645 0.036920
v 0.066660 -0.001391 0.036738
v 0.066871 -0.000000 0.036676
v 0.066660 0.001391 0.036738
v 0.066047 0.002645 0.036920
v 0.065093 0.003641 0.037202
v 0.063890 0.004280 0.037559
v 0.062557 0.004500 0.037954
v 0.061223 0.004280 0.038348
v 0.060020 0.003641 0.038705
v 0.059066 0.002645 0.038987
v 0.058453 0.001391 0.039169
v 0.059043 0.000000 0.042664
v 0.059260 -0.001391 0.042627
v 0.059890 -0.002645 0.042518
v 0.060871 -0.003641 0.042348
v 0.062107 -0.004280 0.042134
v 0.063477 -0.004500 0.041896
v 0.064847 -0.004280 0.041659
v 0.066083 -0.003641 0.041445
v 0.067064 -0.002645 0.041275
v 0.067694 -0.001391 0.041166
v 0.067911 -0.000000 0.041128
v 0.067694 0.001391 0.041166
v 0.067064 0.002645 0.041275
v 0.066083 0.003641 0.041445
v 0.064847 0.004280 0.041659
v 0.063477 0.004500 0.041896
v 0.062107 0.004280 0.042134
v 0.060871 0.003641 0.042348
v 0.059890 0.002645 0.042518
v 0.059260 0.001391 0.042627
v 0.059449 0.000000 0.046209
v 0.059669 -0.001391 0.046196
v 0.060307 -0.002645 0.046160
v 0.061301 -0.003641 0.046103
v 0.062553 -0.004280 0.046032
v 0.063942 -0.004500 0.045953
v 0.065330 -0.004280 0.045874
v 0.066582 -0.003641 0.045802
v 0.067576 -0.002645 0.045746
v 0.068215 -0.001391 0.045709
v 0.068434 -0.000000 0.045697
v 0.068215 0.001391 0.045709
v 0.067576 0.002645 0.045746
v 0.066582 0.003641 0.045802
v 0.065330 0.004280 0.045874
v 0.063942 0.004500 0.045953
v 0.062553 0.004280 0.046032
v 0.061301 0.003641 0.046103
v 0.060307 0.002645 0.046160
v 0.059669 0.001391 0.046196
v 0.059449 0.000000 0.049791
v 0.059669 -0.001391 0.049804
v 0.060307 -0.002645 0.049840
v 0.061301 -0.003641 0.049897
v 0.062553 -0.004280 0.049968
v 0.063942 -0.004500 0.050047
v 0.065330 -0.004280 0.050126
v 0.066582 -0.003641 0.050198
v 0.067576 -0.002645 0.050254
v 0.068215 -0.001391 0.050291
v 0.068434 -0.000000 0.050303
v 0.068215 0.001391 0.050291
v 0.067576 0.002645 0.050254
v 0.066582 0.003641 0.050198
v 0.065330 0.004280 0.050126
v 0.063942 0.004500 0.050047
v 0.062553 0.004280 0.049968
v 0.061301 0.003641 0.049897
v 0.060307 0.002645 0.049840
v 0.059669 0.001391 0.049804
v 0.059043 0.000000 0.053336
v 0.059260 -0.001391 0.053373
v 0.059890 -0.002645 0.053482
v 0.060871 -0.003641 0.053652
v 0.062107 -0.004280 0.053866
v 0.063477 -0.004500 0.054104
v 0.064847 -0.004280 0.054341
v 0.066083 -0.003641 0.054555
v 0.067064 -0.002645 0.054725
v 0.067694 -0.001391 0.054834
v 0.067911 -0.000000 0.054872
v 0.067694 0.001391 0.054834
v 0.067064 0.002645 0.054725
v 0.066083 0.003641 0.054555
v 0.064847 0.004280 0.054341
v 0.063477 0.004500 0.054104
v 0.062107 0.004280 0.053866
v 0.060871 0.003641 0.053652
v 0.059890 0.002645 0.053482
v 0.059260 0.001391 0.053373
v 0.058242 0.000000 0.056769
v 0.058453 -0.001391 0.056831
v 0.059066 -0.002645 0.057013
v 0.060020 -0.003641 0.057295
v 0.061223 -0.004280 0.057652
v 0.062557 -0.004500 0.058046
v 0.063890 -0.004280 0.058441
v 0.065093 -0.003641 0.058798
v 0.066047 -0.002645 0.059080
v 0.066660 -0.001391 0.059262
v 0.066871 -0.000000 0.059324
v 0.066660 0.001391 0.059262
v 0.066047 0.002645 0.059080
v 0.065093 0.003641 0.058798
v 0.063890 0.004280 0.058441
v 0.062557 0.004500 0.058046
v 0.061223 0.004280 0.057652
v 0.060020 0.003641 0.057295
v 0.059066 0.002645 0.057013
v 0.058453 0.001391 0.056831
v 0.057066 0.000000 0.060018
v 0.057268 -0.001391 0.060105
v 0.057855 -0.002645 0.060359
v 0.058769 -0.003641 0.060753
v 0.059920 -0.004280 0.061251
v 0.061197 -0.004500 0.061802
v 0.062474 -0.004280 0.062353
v 0.063625 -0.003641 0.062850
v 0.064539 -0.002645 0.063245
v 0.065126 -0.001391 0.063499
v 0.065328 -0.000000 0.063586
v 0.065126 0.001391 0.063499
v 0.064539 0.002645 0.063245
v 0.063625 0.003641 0.062850
v 0.062474 0.004280 0.062353
v 0.061197 0.004500 0.061802
v 0.059920 0.004280 0.061251
v 0.058769 0.003641 0.060753
v 0.057855 0.002645 0.060359
v 0.057268 0.001391 0.060105
v 0.055546 0.000000 0.063019
v 0.055735 -0.001391 0.063131
v 0.056286 -0.002645 0.063455
v 0.057144 -0.003641 0.063959
v 0.058226 -0.004280 0.064595
v 0.059424 -0.004500 0.065300
v 0.060623 -0.004280 0.066005
v 0.061704 -0.003641 0.066641
v 0.062562 -0.002645 0.067146
v 0.063113 -0.001391 0.067470
v 0.063303 -0.000000 0.067582
v 0.063113 0.001391 0.067470
v 0.062562 0.002645 0.067146
v 0.061704 0.003641 0.066641
v 0.060623 0.004280 0.066005
v 0.059424 0.004500 0.065300
v 0.058226 0.004280 0.064595
v 0.057144 0.003641 0.063959
v 0.056286 0.002645 0.063455
v 0.055735 0.001391 0.063131
v 0.053720 0.000000 0.065713
v 0.053893 -0.001391 0.065848
v 0.054398 -0.002645 0.066241
v 0.055184 -0.003641 0.066852
v 0.056174 -0.004280 0.067623
v 0.057271 -0.004500 0.068477
v 0.058368 -0.004280 0.069331
v 0.059358 -0.003641 0.070101
v 0.060144 -0.002645 0.070713
v 0.060648 -0.001391 0.071105
v 0.060822 -0.000000 0.071240
v 0.060648 0.001391 0.071105
v 0.060144 0.002645 0.070713
v 0.059358 0.003641 0.070101
v 0.058368 0.004280 0.069331
v 0.057271 0.004500 0.068477
v 0.056174 0.004280 0.067623
v 0.055184 0.003641 0.066852
v 0.054398 0.002645 0.066241
v 0.053893 0.001391 0.065848
v 0.051634 0.000000 0.068051
v 0.051788 -0.001391 0.068209
v 0.052234 -0.002645 0.068666
v 0.052929 -0.003641 0.069379
v 0.053806 -0.004280 0.070276
v 0.054777 -0.004500 0.071271
v 0.055749 -0.004280 0.072266
v 0.056625 -0.003641 0.073164
v 0.057320 -0.002645 0.073876
v 0.057767 -0.001391 0.074334
v 0.057921 -0.000000 0.074491
v 0.057767 0.001391 0.074334
v 0.057320 0.002645 0.073876
v 0.056625 0.003641 0.073164
v 0.055749 0.004280 0.072266
v 0.054777 0.004500 0.071271
v 0.053806 0.004280 0.070276
v 0.052929 0.003641 0.069379
v 0.052234 0.002645 0.068666
v 0.051788 0.001391 0.068209
v 0.049337 0.000000 0.069998
v 0.049467 -0.001391 0.070175
v 0.049844 -0.002645 0.070692
v 0.050430 -0.003641 0.071496
v 0.051170 -0.004280 0.072509
v 0.051990 -0.004500 0.073633
v 0.052809 -0.004280 0.074756
v 0.053549 -0.003641 0.075769
v 0.054136 -0.002645 0.076573
v 0.054512 -0.001391 0.077090
v 0.054642 -0.000000 0.077268
v 0.054512 0.001391 0.077090
v 0.054136 0.002645 0.076573
v 0.053549 0.003641 0.075769
v 0.052809 0.004280 0.074756
v 0.051990 0.004500 0.073633
v 0.051170 0.004280 0.072509
v 0.050430 0.003641 0.071496
v 0.049844 0.002645 0.070692
v 0.049467 0.001391 0.070175
v 0.046880 0.000000 0.071526
v 0.046982 -0.001391 0.071721
v 0.047277 -0.002645 0.072288
v 0.047737 -0.003641 0.073171
v 0.048317 -0.004280 0.074283
v 0.048960 -0.004500 0.075516
v 0.049603 -0.004280 0.076749
v 0.050183 -0.003641 0.077862
v 0.050643 -0.002645 0.078745
v 0.050938 -0.001391 0.079311
v 0.051040 -0.000000 0.079507
v 0.050938 0.001391 0.079311
v 0.050643 0.002645 0.078745
v 0.050183 0.003641 0.077862
v 0.049603 0.004280 0.076749
v 0.048960 0.004500 0.075516
v 0.048317 0.004280 0.074283
v 0.047737 0.003641 0.073171
v 0.047277 0.002645 0.072288
v 0.046982 0.001391 0.071721
v 0.044311 0.000000 0.072622
v 0.044381 -0.001391 0.072831
v 0.044585 -0.002645 0.073437
v 0.044902 -0.003641 0.074380
v 0.045302 -0.004280 0.075569
v 0.045745 -0.004500 0.076888
v 0.046188 -0.004280 0.078206
v 0.046588 -0.003641 0.079395
v 0.046905 -0.002645 0.080338
v 0.047109 -0.001391 0.080944
v 0.047179 -0.000000 0.081153
v 0.047109 0.001391 0.080944
v 0.046905 0.002645 0.080338
v 0.046588 0.003641 0.079395
v 0.046188 0.004280 0.078206
v 0.045745 0.004500 0.076888
v 0.045302 0.004280 0.075569
v 0.044902 0.003641 0.074380
v 0.044585 0.002645 0.073437
v 0.044381 0.001391 0.072831
v 0.041672 0.000000 0.073281
v 0.041708 -0.001391 0.073498
v 0.041812 -0.002645 0.074129
v 0.041974 -0.003641 0.075111
v 0.042178 -0.004280 0.076349
v 0.042404 -0.004500 0.077721
v 0.042630 -0.004280 0.079093
v 0.042835 -0.003641 0.080330
v 0.042997 -0.002645 0.081313
v 0.043101 -0.001391 0.081943
v 0.043136 -0.000000 0.082161
v 0.043101 0.001391 0.081943
v 0.042997 0.002645 0.081313
v 0.042835 0.003641 0.080330
v 0.042630 0.004280 0.079093
v 0.042404 0.004500 0.077721
v 0.042178 0.004280 0.076349
v 0.041974 0.003641 0.075111
v 0.041812 0.002645 0.074129
v 0.041708 0.001391 0.073498
v 0.038632 0.000000 0.073515
v 0.038650 -0.001391 0.073735
v 0.038702 -0.002645 0.074372
v 0.038784 -0.003641 0.075364
v 0.038886 -0.004280 0.076614
v 0.039000 -0.004500 0.078000
v 0.039114 -0.004280 0.079386
v 0.039216 -0.003641 0.080636
v 0.039298 -0.002645 0.081628
v 0.039350 -0.001391 0.082265
v 0.039368 -0.000000 0.082485
v 0.039350 0.001391 0.082265
v 0.039298 0.002645 0.081628
v 0.039216 0.003641 0.080636
v 0.039114 0.004280 0.079386
v 0.039000 0.004500 0.078000
v 0.038886 0.004280 0.076614
v 0.038784 0.003641 0.075364
v 0.038702 0.002645 0.074372
v 0.038650 0.001391 0.073735
v 0.039000 0.000000 0.018000
v 0.039000 0.000000 0.078000
f 1 2 22
f 1 22 21
f 2 3 23
f 2 23 22
f 3 4 24
f 3 24 23
f 4 5 25
f 4 25 24
f 5 6 26
f 5 26 25
f 6 7 27
f 6 27 26
f 7 8 28
f 7 28 27
f 8 9 29
f 8 29 28
f 9 10 30
f 9 30 29
f 10 11 31
f 10 31 30
f 11 12 32
f 11 32 31
f 12 13 33
f 12 33 32
f 13 14 34
f 13 34 33
f 14 15 35
f 14 35 34
f 15 16 36
f 15 36 35
f 16 17 37
f 16 37 36
f 17 18 38
f 17 38 37
f 18 19 39
f 18 39 38
f 19 20 40
f 19 40 39
f 20 1 21
f 20 21 40
f 21 22 42
f 21 42 41
f 22 23 43
f 22 43 42
f 23 24 44
f 23 44 43
f 24 25 45
f 24 45 44
f 25 26 46
f 25 46 45
f 26 27 47
f 26 47 46
f 27 28 48
f 27 48 47
f 28 29 49
f 28 49 48
f 29 30 50
f 29 50 49
f 30 31 51
f 30 51 50
f 31 32 52
f 31 52 51
f 32 33 53
f 32 53 52
f 33 34 54
f 33 54 53
f 34 35 55
f 34 55 54
f 35 36 56
f 35 56 55
f 36 37 57
f 36 57 56
f 37 38 58
f 37 58 57
f 38 39 59
f 38 59 58
f 39 40 60
f 39 60 59
f 40 21 41
f 40 41 60
f 41 42 62
f 41 62 61
f 42 43 63
f 42 63 62
f 43 44 64
f 43 64 63
f 44 45 65
f 44 65 64
f 45 46 66
f 45 66 65
f 46 47 67
f 46 67 66
f 47 48 68
f 47 68 67
f 48 49 69
f 48 69 68
f 49 50 70
f 49 70 69
f 50 51 71
f 50 71 70
f 51 52 72
f 51 72 71
f 52 53 73
f 52 73 72
f 53 54 74
f 53 74 73
f 54 55 75
f 54 75 74
f 55 56 76
f 55 76 75
f 56 57 77
f 56 77 76
f 57 58 78
f 57 78 77
f 58 59 79
f 58 79 78
f 59 60 80
f 59 80 79
f 60 41 61
f 60 61 80
f 61 62 82
f 61 82 81
f 62 63 83
f 62 83 82
f 63 64 84
f 63 84 83
f 64 65 85
f 64 85 84
f 65 66 86
f 65 86 85
f 66 67 87
f 66 87 86
f 67 68 88
f 67 88 87
f 68 69 89
f 68 89 88
f 69 70 90
f 69 90 89
f 70 71 91
f 70 91 90
f 71 72 92
f 71 92 91
f 72 73 93
f 72 93 92
f 73 74 94
f 73 94 93
f 74 75 95
f 74 95 94
f 75 76 96
f 75 96 95
f 76 77 97
f 76 97 96
f 77 78 98
f 77 98 97
f 78 79 99
f 78 99 98
f 79 80 100
f 79 100 99
f 80 61 81
f 80 81 100
f 81 82 102
f 81 102 101
f 82 83 103
f 82 103 102
f 83 84 104
f 83 104 103
f 84 85 105
f 84 105 104
f 85 86 106
f 85 106 105
f 86 87 107
f 86 107 106
f 87 88 108
f 87 108 107
f 88 89 109
f 88 109 108
f 89 90 110
f 89 110 109
f 90 91 111
f 90 111 110
f 91 92 112
f 91 112 111
f 92 93 113
f 92 113 112
f 93 94 114
f 93 114 113
f 94 95 115
f 94 115 114
f 95 96 116
f 95 116 115
f 96 97 117
f 96 117 116
f 97 98 118
f 97 118 117
f 98 99 119
f 98 119 118
f 99 100 120
f 99 120 119
f 100 81 101
f 100 101 120
f 101 102 122
f 101 122 121
f 102 103 123
f 102 123 122
f 103 104 124
f 103 124 123
f 104 105 125
f 104 125 124
f 105 106 126
f 105 126 125
f 106 107 127
f 106 127 126
f 107 108 128
f 107 128 127
f 108 109 129
f 108 129 128
f 109 110 130
f 109 130 129
f 110 111 131
f 110 131 130
f 111 112 132
f 111 132 131
f 112 113 133
f 112 133 132
f 113 114 134
f 113 134 133
f 114 115 135
f 114 135 134
f 115 116 136
f 115 136 135
f 116 117 137
f 116 137 136
f 117 118 138
f 117 138 137
f 118 119 139
f 118 139 138
f 119 120 140
f 119 140 139
f 120 101 121
f 120 121 140
f 121 122 142
f 121 142 141
f 122 123 143
f 122 143 142
f 123 124 144
f 123 144 143
f 124 125 145
f 124 145 144
f 125 126 146
f 125 146 145
f 126 127 147
f 126 147 146
f 127 128 148
f 127 148 147
f 128 129 149
f 128 149 148
f 129 130 150
f 129 150 149
f 130 131 151
f 130 151 150
f 131 132 152
f 131 152 151
f 132 133 153
f 132 153 152
f 133 134 154
f 133 154 153
f 134 135 155
f 134 155 154
f 135 136 156
f 135 156 155
f 136 137 157
f 136 157 156
f 137 138 158
f 137 158 157
f 138 139 159
f 138 159 158
f 139 140 160
f 139 160 159
f 140 121 141
f 140 141 160
f 141 142 162
f 141 162 161
f 142 143 163
f 142 163 162
f 143 144 164
f 143 164 163
f 144 145 165
f 144 165 164
f 145 146 166
f 145 166 165
f 146 147 167
f 146 167 166
f 147 148 168
f 147 168 167
f 148 149 169
f 148 169 168
f 149 150 170
f 149 170 169
f 150 151 171
f 150 171 170
f 151 152 172
f 151 172 171
f 152 153 173
f 152 173 172
f 153 154 174
f 153 174 173
f 154 155 175
f 154 175 174
f 155 156 176
f 155 176 175
f 156 157 177
f 156 177 176
f 157 158 178
f 157 178 177
f 158 159 179
f 158 179 178
f 159 160 180
f 159 180 179
f 160 141 161
f 160 161 180
f 161 162 182
f 161 182 181
f 162 163 183
f 162 183 182
f 163 164 184
f 163 184 183
f 164 165 185
f 164 185 184
f 165 166 186
f 165 186 185
f 166 167 187
f 166 187 186
f 167 168 188
f 167 188 187
f 168 169 189
f 168 189 188
f 169 170 190
f 169 190 189
f 170 171 191
f 170 191 190
f 171 172 192
f 171 192 191
f 172 173 193
f 172 193 192
f 173 174 194
f 173 194 193
f 174 175 195
f 174 195 194
f 175 176 196
f 175 196 195
f 176 177 197
f 176 197 196
f 177 178 198
f 177 198 197
f 178 179 199
f 178 199 198
f 179 180 200
f 179 200 199
f 180 161 181
f 180 181 200
f 181 182 202
f 181 202 201
f 182 183 203
f 182 203 202
f 183 184 204
f 183 204 203
f 184 185 205
f 184 205 204
f 185 186 206
f 185 206 205
f 186 187 207
f 186 207 206
f 187 188 208
f 187 208 207
f 188 189 209
f 188 209 208
f 189 190 210
f 189 210 209
f 190 191 211
f 190 211 210
f 191 192 212
f 191 212 211
f 192 193 213
f 192 213 212
f 193 194 214
f 193 214 213
f 194 195 215
f 194 215 214
f 195 196 216
f 195 216 215
f 196 197 217
f 196 217 216
f 197 198 218
f 197 218 217
f 198 199 219
f 198 219 218
f 199 200 220
f 199 220 219
f 200 181 201
f 200 201 220
f 201 202 222
f 201 222 221
f 202 203 223
f 202 223 222
f 203 204 224
f 203 224 223
f 204 205 225
f 204 225 224
f 205 206 226
f 205 226 225
f 206 207 227
f 206 227 226
f 207 208 228
f 207 228 227
f 208 209 229
f 208 229 228
f 209 210 230
f 209 230 229
f 210 211 231
f 210 231 230
f 211 212 232
f 211 232 231
f 212 213 233
f 212 233 232
f 213 214 234
f 213 234 233
f 214 215 235
f 214 235 234
f 215 216 236
f 215 236 235
f 216 217 237
f 216 237 236
f 217 218 238
f 217 238 237
f 218 219 239
f 218 239 238
f 219 220 240
f 219 240 239
f 220 201 221
f 220 221 240
f 221 222 242
f 221 242 241
f 222 223 243
f 222 243 242
f 223 224 244
f 223 244 243
f 224 225 245
f 224 245 244
f 225 226 246
f 225 246 245
f 226 227 247
f 226 247 246
f 227 228 248
f 227 248 247
f 228 229 249
f 228 249 248
f 229 230 250
f 229 250 249
f 230 231 251
f 230 251 250
f 231 232 252
f 231 252 251
f 232 233 253
f 232 253 252
f 233 234 254
f 233 254 253
f 234 235 255
f 234 255 254
f 235 236 256
f 235 256 255
f 236 237 257
f 236 257 256
f 237 238 258
f 237 258 257
f 238 239 259
f 238 259 258
f 239 240 260
f 239 260 259
f 240 221 241
f 240 241 260
f 241 242 262
f 241 262 261
f 242 243 263
f 242 263 262
f 243 244 264
f 243 264 263
f 244 245 265
f 244 265 264
f 245 246 266
f 245 266 265
f 246 247 267
f 246 267 266
f 247 248 268
f 247 268 267
f 248 249 269
f 248 269 268
f 249 250 270
f 249 270 269
f 250 251 271
f 250 271 270
f 251 252 272
f 251 272 271
f 252 253 273
f 252 273 272
f 253 254 274
f 253 274 273
f 254 255 275
f 254 275 274
f 255 256 276
f 255 276 275
f 256 257 277
f 256 277 276
f 257 258 278
f 257 278 277
f 258 259 279
f 258 279 278
f 259 260 280
f 259 280 279
f 260 241 261
f 260 261 280
f 261 262 282
f 261 282 281
f 262 263 283
f 262 283 282
f 263 264 284
f 263 284 283
f 264 265 285
f 264 285 284
f 265 266 286
f 265 286 285
f 266 267 287
f 266 287 286
f 267 268 288
f 267 288 287
f 268 269 289
f 268 289 288
f 269 270 290
f 269 290 289
f 270 271 291
f 270 291 290
f 271 272 292
f 271 292 291
f 272 273 293
f 272 293 292
f 273 274 294
f 273 294 293
f 274 275 295
f 274 295 294
f 275 276 296
f 275 296 295
f 276 277 297
f 276 297 296
f 277 278 298
f 277 298 297
f 278 279 299
f 278 299 298
f 279 280 300
f 279 300 299
f 280 261 281
f 280 281 300
f 281 282 302
f 281 302 301
f 282 283 303
f 282 303 302
f 283 284 304
f 283 304 303
f 284 285 305
f 284 305 304
f 285 286 306
f 285 306 305
f 286 287 307
f 286 307 306
f 287 288 308
f 287 308 307
f 288 289 309
f 288 309 308
f 289 290 310
f 289 310 309
f 290 291 311
f 290 311 310
f 291 292 312
f 291 312 311
f 292 293 313
f 292 313 312
f 293 294 314
f 293 314 313
f 294 295 315
f 294 315 314
f 295 296 316
f 295 316 315
f 296 297 317
f 296 317 316
f 297 298 318
f 297 318 317
f 298 299 319
f 298 319 318
f 299 300 320
f 299 320 319
f 300 281 301
f 300 301 320
f 301 302 322
f 301 322 321
f 302 303 323
f 302 323 322
f 303 304 324
f 303 324 323
f 304 305 325
f 304 325 324
f 305 306 326
f 305 326 325
f 306 307 327
f 306 327 326
f 307 308 328
f 307 328 327
f 308 309 329
f 308 329 328
f 309 310 330
f 309 330 329
f 310 311 331
f 310 331 330
f 311 312 332
f 311 332 331
f 312 313 333
f 312 333 332
f 313 314 334
f 313 334 333
f 314 315 335
f 314 335 334
f 315 316 336
f 315 336 335
f 316 317 337
f 316 337 336
f 317 318 338
f 317 338 337
f 318 319 339
f 318 339 338
f 319 320 340
f 319 340 339
f 320 301 321
f 320 321 340
f 321 322 342
f 321 342 341
f 322 323 343
f 322 343 342
f 323 324 344
f 323 344 343
f 324 325 345
f 324 345 344
f 325 326 346
f 325 346 345
f 326 327 347
f 326 347 346
f 327 328 348
f 327 348 347
f 328 329 349
f 328 349 348
f 329 330 350
f 329 350 349
f 330 331 351
f 330 351 350
f 331 332 352
f 331 352 351
f 332 333 353
f 332 353 352
f 333 334 354
f 333 354 353
f 334 335 355
f 334 355 354
f 335 336 356
f 335 356 355
f 336 337 357
f 336 357 356
f 337 338 358
f 337 358 357
f 338 339 359
f 338 359 358
f 339 340 360
f 339 360 359
f 340 321 341
f 340 341 360
f 341 342 362
f 341 362 361
f 342 343 363
f 342 363 362
f 343 344 364
f 343 364 363
f 344 345 365
f 344 365 364
f 345 346 366
f 345 366 365
f 346 347 367
f 346 367 366
f 347 348 368
f 347 368 367
f 348 349 369
f 348 369 368
f 349 350 370
f 349 370 369
f 350 351 371
f 350 371 370
f 351 352 372
f 351 372 371
f 352 353 373
f 352 373 372
f 353 354 374
f 353 374 373
f 354 355 375
f 354 375 374
f 355 356 376
f 355 376 375
f 356 357 377
f 356 377 376
f 357 358 378
f 357 378 377
f 358 359 379
f 358 379 378
f 359 360 380
f 359 380 379
f 360 341 361
f 360 361 380
f 361 362 382
f 361 382 381
f 362 363 383
f 362 383 382
f 363 364 384
f 363 384 383
f 364 365 385
f 364 385 384
f 365 366 386
f 365 386 385
f 366 367 387
f 366 387 386
f 367 368 388
f 367 388 387
f 368 369 389
f 368 389 388
f 369 370 390
f 369 390 389
f 370 371 391
f 370 391 390
f 371 372 392
f 371 392 391
f 372 373 393
f 372 393 392
f 373 374 394
f 373 394 393
f 374 375 395
f 374 395 394
f 375 376 396
f 375 396 395
f 376 377 397
f 376 397 396
f 377 378 398
f 377 398 397
f 378 379 399
f 378 399 398
f 379 380 400
f 379 400 399
f 380 361 381
f 380 381 400
f 381 382 402
f 381 402 401
f 382 383 403
f 382 403 402
f 383 384 404
f 383 404 403
f 384 385 405
f 384 405 404
f 385 386 406
f 385 406 405
f 386 387 407
f 386 407 406
f 387 388 408
f 387 408 407
f 388 389 409
f 388 409 408
f 389 390 410
f 389 410 409
f 390 391 411
f 390 411 410
f 391 392 412
f 391 412 411
f 392 393 413
f 392 413 412
f 393 394 414
f 393 414 413
f 394 395 415
f 394 415 414
f 395 396 416
f 395 416 415
f 396 397 417
f 396 417 416
f 397 398 418
f 397 418 417
f 398 399 419
f 398 419 418
f 399 400 420
f 399 420 419
f 400 381 401
f 400 401 420
f 401 402 422
f 401 422 421
f 402 403 423
f 402 423 422
f 403 404 424
f 403 424 423
f 404 405 425
f 404 425 424
f 405 406 426
f 405 426 425
f 406 407 427
f 406 427 426
f 407 408 428
f 407 428 427
f 408 409 429
f 408 429 428
f 409 410 430
f 409 430 429
f 410 411 431
f 410 431 430
f 411 412 432
f 411 432 431
f 412 413 433
f 412 433 432
f 413 414 434
f 413 434 433
f 414 415 435
f 414 435 434
f 415 416 436
f 415 436 435
f 416 417 437
f 416 437 436
f 417 418 438
f 417 438 437
f 418 419 439
f 418 439 438
f 419 420 440
f 419 440 439
f 420 401 421
f 420 421 440
f 421 422 442
f 421 442 441
f 422 423 443
f 422 443 442
f 423 424 444
f 423 444 443
f 424 425 445
f 424 445 444
f 425 426 446
f 425 446 445
f 426 427 447
f 426 447 446
f 427 428 448
f 427 448 447
f 428 429 449
f 428 449 448
f 429 430 450
f 429 450 449
f 430 431 451
f 430 451 450
f 431 432 452
f 431 452 451
f 432 433 453
f 432 453 452
f 433 434 454
f 433 454 453
f 434 435 455
f 434 455 454
f 435 436 456
f 435 456 455
f 436 437 457
f 436 457 456
f 437 438 458
f 437 458 457
f 438 439 459
f 438 459 458
f 439 440 460
f 439 460 459
f 440 421 441
f 440 441 460
f 441 442 462
f 441 462 461
f 442 443 463
f 442 463 462
f 443 444 464
f 443 464 463
f 444 445 465
f 444 465 464
f 445 446 466
f 445 466 465
f 446 447 467
f 446 467 466
f 447 448 468
f 447 468 467
f 448 449 469
f 448 469 468
f 449 450 470
f 449 470 469
f 450 451 471
f 450 471 470
f 451 452 472
f 451 472 471
f 452 453 473
f 452 473 472
f 453 454 474
f 453 474 473
f 454 455 475
f 454 475 474
f 455 456 476
f 455 476 475
f 456 457 477
f 456 477 476
f 457 458 478
f 457 478 477
f 458 459 479
f 458 479 478
f 459 460 480
f 459 480 479
f 460 441 461
f 460 461 480
f 481 2 1
f 481 3 2
f 481 4 3
f 481 5 4
f 481 6 5
f 481 7 6
f 481 8 7
f 481 9 8
f 481 10 9
f 481 11 10
f 481 12 11
f 481 13 12
f 481 14 13
f 481 15 14
f 481 16 15
f 481 17 16
f 481 18 17
f 481 19 18
f 481 20 19
f 481 1 20
f 482 461 462
f 482 462 463
f 482 463 464
f 482 464 465
f 482 465 466
f 482 466 467
f 482 467 468
f 482 468 469
f 482 469 470
f 482 470 471
f 482 471 472
f 482 472 473
f 482 473 474
f 482 474 475
f 482 475 476
f 482 476 477
f 482 477 478
f 482 478 479
f 482 479 480
f 482 480 461
