v -0.048944 0.000000 0.165528
v -0.048507 -0.003090 0.165747
v -0.047236 -0.005878 0.166382
v -0.045257 -0.008090 0.167371
v -0.042764 -0.009511 0.168618
v -0.040000 -0.010000 0.170000
v -0.037236 -0.009511 0.171382
v -0.034743 -0.008090 0.172629
v -0.032764 -0.005878 0.173618
v -0.031493 -0.003090 0.174253
v -0.031056 -0.000000 0.174472
v -0.031493 0.003090 0.174253
v -0.032764 0.005878 0.173618
v -0.034743 0.008090 0.172629
v -0.037236 0.009511 0.171382
v -0.040000 0.010000 0.170000
v -0.042764 0.009511 0.168618
v -0.045257 0.008090 0.167371
v -0.047236 0.005878 0.166382
v -0.048507 0.003090 0.165747
v -0.056299 0.000000 0.186946
v -0.055990 -0.002163 0.187096
v -0.055096 -0.004114 0.187529
v -0.053702 -0.005663 0.188205
v -0.051946 -0.006657 0.189056
v -0.050000 -0.007000 0.190000
v -0.048054 -0.006657 0.190944
v -0.046298 -0.005663 0.191795
v -0.044904 -0.004114 0.192471
v -0.044010 -0.002163 0.192904
v -0.043701 -0.000000 0.193054
v -0.044010 0.002163 0.192904
v -0.044904 0.004114 0.192471
v -0.046298 0.005663 0.191795
v -0.048054 0.006657 0.190944
v -0.050000 0.007000 0.190000
v -0.051946 0.006657 0.189056
v -0.053702 0.005663 0.188205
v -0.055096 0.004114 0.187529
v -0.055990 0.002163 0.187096
v -0.059178 0.000000 0.201533
v -0.059022 -0.001082 0.201605
v -0.058571 -0.002057 0.201813
v -0.057868 -0.002832 0.202138
v -0.056982 -0.003329 0.202547
v -0.056000 -0.003500 0.203000
v -0.055018 -0.003329 0.203453
v -0.054132 -0.002832 0.203862
v -0.053429 -0.002057 0.204187
v -0.052978 -0.001082 0.204395
v -0.052822 -0.000000 0.204467
v -0.052978 0.001082 0.204395
v -0.053429 0.002057 0.204187
v -0.054132 0.002832 0.203862
v -0.055018 0.003329 0.203453
v -0.056000 0.003500 0.203000
v -0.056982 0.003329 0.202547
v -0.057868 0.002832 0.202138
v -0.058571 0.002057 0.201813
v -0.059022 0.001082 0.201605
v -0.040000 0.000000 0.170000
v -0.056000 0.000000 0.203000
f 1 2 22
f 1 22 21
f 2 3 23
f 2 23 22
f 3 4 24
f 3 24 23
f 4 5 25
f 4 25 24
f 5 6 26
f 5 26 25
f 6 7 27
f 6 27 26
f 7 8 28
f 7 28 27
f 8 9 29
f 8 29 28
f 9 10 30
f 9 30 29
f 10 11 31
f 10 31 30
f 11 12 32
f 11 32 31
f 12 13 33
f 12 33 32
f 13 14 34
f 13 34 33
f 14 15 35
f 14 35 34
f 15 16 36
f 15 36 35
f 16 17 37
f 16 37 36
f 17 18 38
f 17 38 37
f 18 19 39
f 18 39 38
f 19 20 40
f 19 40 39
f 20 1 21
f 20 21 40
f 21 22 42
f 21 42 41
f 22 23 43
f 22 43 42
f 23 24 44
f 23 44 43
f 24 25 45
f 24 45 44
f 25 26 46
f 25 46 45
f 26 27 47
f 26 47 46
f 27 28 48
f 27 48 47
f 28 29 49
f 28 49 48
f 29 30 50
f 29 50 49
f 30 31 51
f 30 51 50
f 31 32 52
f 31 52 51
f 32 33 53
f 32 53 52
f 33 34 54
f 33 54 53
f 34 35 55
f 34 55 54
f 35 36 56
f 35 56 55
f 36 37 57
f 36 57 56
f 37 38 58
f 37 58 57
f 38 39 59
f 38 59 58
f 39 40 60
f 39 60 59
f 40 21 41
f 40 41 60
f 61 2 1
f 61 3 2
f 61 4 3
f 61 5 4
f 61 6 5
f 61 7 6
f 61 8 7
f 61 9 8
f 61 10 9
f 61 11 10
f 61 12 11
f 61 13 12
f 61 14 13
f 61 15 14
f 61 16 15
f 61 17 16
f 61 18 17
f 61 19 18
f 61 20 19
f 61 1 20
f 62 41 42
f 62 42 43
f 62 43 44
f 62 44 45
f 62 45 46
f 62 46 47
f 62 47 48
f 62 48 49
f 62 49 50
f 62 50 51
f 62 51 52
f 62 52 53
f 62 53 54
f 62 54 55
f 62 55 56
f 62 56 57
f 62 57 58
f 62 58 59
f 62 59 60
f 62 60 41
