# https://github.com/mikedh/trimesh
v -0.05458133 -0.00470296 0.00923889
v -0.05457927 -0.00423410 0.00923889
v -0.05452663 -0.00544406 0.00600999
v -0.05454005 -0.00544406 0.00721954
v -0.05454314 -0.00544708 0.00923889
v -0.05448328 -0.00472110 0.00480045
v -0.05449876 -0.00377431 0.00923889
v -0.05445541 -0.00477555 0.00388836
v -0.05445541 -0.00524139 0.00388836
v -0.05448121 -0.00556505 0.00468034
v -0.05444199 -0.00612466 0.00500407
v -0.05444715 -0.00614281 0.00600999
v -0.05441722 -0.00602181 0.00923889
v -0.05257168 -0.01753761 0.00480045
v -0.05251079 -0.01753761 0.00600999
v -0.05235390 -0.01753761 0.00721954
v -0.05205663 -0.01828778 0.00801996
v -0.05444612 -0.00358979 0.00923889
v -0.05406834 -0.00544406 0.00117275
v -0.05431090 -0.00544406 0.00238230
v -0.05379791 -0.00423410 0.00238230
v -0.05355225 -0.00421595 0.00129192
v -0.05440380 -0.00556505 0.00352803
v -0.05442547 -0.00604904 0.00419896
v -0.05254795 -0.01753761 0.00359184
v -0.05196167 -0.01753761 0.00886354
v -0.05154983 -0.01873244 0.00923889
v -0.05223933 -0.01874454 0.00359184
v -0.05146623 -0.02116446 0.00600999
v -0.05212888 -0.01843903 0.00721954
v -0.05133411 -0.02116446 0.00721954
v -0.05143526 -0.01995450 0.00842815
v -0.05182336 -0.01871127 0.00842533
v -0.05382268 -0.00326613 0.00923889
v -0.05321783 -0.00362912 0.00177424
v -0.05341807 -0.00460918 0.00037421
v -0.05355122 -0.00544406 0.00021093
v -0.05353161 -0.00665402 0.00015181
v -0.05396616 -0.00665402 0.00117275
v -0.05415711 -0.00665402 0.00238230
v -0.05239622 -0.01753761 0.00238230
v -0.05212785 -0.01871429 0.00248458
v -0.05201431 -0.01936767 0.00295657
v -0.05142184 -0.01914383 0.00923889
v -0.05144765 -0.02116446 0.00480045
v -0.05077054 -0.02290983 0.00359184
v -0.05103890 -0.02220503 0.00600999
v -0.05097594 -0.02210520 0.00721954
v -0.05087479 -0.02193581 0.00804529
v -0.05102136 -0.02118563 0.00844034
v -0.05089233 -0.02079542 0.00921543
v -0.05090059 -0.02074702 0.00923889
v -0.05353883 -0.00323890 0.00923889
v -0.05321267 -0.00362912 0.00177424
v -0.05261091 -0.00454566 0.00033292
v -0.05261091 -0.00544406 -0.00003117
v -0.05261091 -0.00665402 -0.00019913
v -0.05261091 -0.00786398 -0.00024042
v -0.05261091 -0.00907394 -0.00020101
v -0.05245608 -0.01270079 -0.00000864
v -0.05235286 -0.01391075 0.00003170
v -0.05343252 -0.00786398 0.00019686
v -0.05334169 -0.00907394 0.00030570
v -0.05327047 -0.01002678 0.00044083
v -0.05320648 -0.01083140 0.00064445
v -0.05257168 -0.01512071 0.00117275
v -0.05235390 -0.01633067 0.00117275
v -0.05212888 -0.01747408 0.00120090
v -0.05205766 -0.01829080 0.00162316
v -0.05191419 -0.01909543 0.00215052
v -0.05090679 -0.02213243 0.00262064
v -0.05030400 -0.02358438 0.00238230
v -0.04961553 -0.02543864 0.00291341
v -0.05048669 -0.02358438 0.00359184
v -0.04963927 -0.02549309 0.00480045
v -0.04961450 -0.02544469 0.00600999
v -0.04958973 -0.02539932 0.00662274
v -0.05054243 -0.02235324 0.00844034
v -0.05072925 -0.02160307 0.00885228
v -0.04949374 -0.02520573 0.00742879
v -0.04968882 -0.02439808 0.00812130
v -0.04991796 -0.02365698 0.00848632
v -0.05087169 -0.02081660 0.00923889
v -0.05291746 -0.00332058 0.00923889
v -0.05189045 -0.00460616 0.00117275
v -0.05192038 -0.00467876 0.00044834
v -0.05184194 -0.00544406 0.00032541
v -0.04403766 -0.03093186 -0.00032018
v -0.04414603 -0.03084111 -0.00034364
v -0.05140223 -0.01512071 -0.00027232
v -0.04898384 -0.02237442 -0.00034739
v -0.05140223 -0.01633067 -0.00018693
v -0.05224139 -0.01512071 0.00012742
v -0.05211340 -0.01633067 0.00033479
v -0.05203186 -0.01702942 0.00050745
v -0.05176556 -0.01871429 0.00120090
v -0.05129385 -0.01995450 0.00117275
v -0.05192142 -0.01783405 0.00081711
v -0.05081802 -0.02061090 0.00051965
v -0.04985087 -0.02359345 0.00117463
v -0.04967540 -0.02435270 0.00157906
v -0.04979410 -0.02477014 0.00245924
v -0.04963515 -0.02547494 0.00359184
v -0.04995615 -0.02479131 0.00359184
v -0.04844711 -0.02676960 0.00159876
v -0.04827164 -0.02758935 0.00238230
v -0.04781335 -0.02842119 0.00238230
v -0.04745829 -0.02943756 0.00359184
v -0.04803424 -0.02842119 0.00359184
v -0.04746861 -0.02951318 0.00480045
v -0.04710115 -0.03010606 0.00600999
v -0.04922950 -0.02588330 0.00710318
v -0.04703200 -0.02993667 0.00721954
v -0.04954741 -0.02411071 0.00892829
v -0.04976313 -0.02333634 0.00923889
v -0.05062294 -0.02139435 0.00923889
v -0.04850182 -0.02680590 0.00813725
v -0.05244267 -0.00423410 0.00923889
v -0.04403766 -0.02885375 0.00901087
v -0.04403766 -0.02885678 0.00881850
v -0.04403766 -0.02902013 0.00115867
v -0.05200915 -0.00486328 0.00535126
v -0.04403766 -0.02885980 0.00923889
v -0.04403766 -0.02909272 0.00089312
v -0.04403766 -0.02970375 0.00007956
v -0.04403766 -0.02975517 0.00004766
v -0.04403766 -0.03224467 -0.00004337
v -0.04419558 -0.03206922 -0.00004149
v -0.04535575 -0.02963115 -0.00026482
v -0.04656546 -0.02721123 -0.00032300
v -0.05019252 -0.01995450 -0.00022822
v -0.04784329 -0.02602547 -0.00002272
v -0.04905506 -0.02359345 -0.00001991
v -0.04985087 -0.02237442 0.00014055
v -0.05116999 -0.01874454 0.00005892
v -0.05094807 -0.01995450 0.00031040
v -0.04968985 -0.02320022 0.00036482
v -0.04950509 -0.02400484 0.00077301
v -0.04930072 -0.02477014 0.00117463
v -0.04829332 -0.02644594 0.00079178
v -0.04866490 -0.02602547 0.00118589
v -0.04946484 -0.02515733 0.00210642
v -0.04806624 -0.02718704 0.00118589
v -0.04598021 -0.03026941 0.00052153
v -0.04731481 -0.02921069 0.00238230
v -0.04537536 -0.03204805 0.00238230
v -0.04498416 -0.03294342 0.00359184
v -0.04709599 -0.03011816 0.00480045
v -0.04502442 -0.03303417 0.00480045
v -0.04452381 -0.03359377 0.00600999
v -0.04642714 -0.03078364 0.00721954
v -0.04626096 -0.03062030 0.00842815
v -0.04689059 -0.02957671 0.00841219
v -0.04834286 -0.02652761 0.00894330
v -0.04826854 -0.02634309 0.00923889
v -0.04710941 -0.02891425 0.00880537
v -0.04735610 -0.02816408 0.00923889
v -0.04403766 -0.03302509 0.00923889
v -0.04403766 -0.03247456 0.00006361
v -0.04491501 -0.03167599 0.00029069
v -0.04533304 -0.03073827 0.00014149
v -0.04659023 -0.02837885 0.00002607
v -0.04871651 -0.02479131 0.00010584
v -0.04747067 -0.02721123 0.00016120
v -0.04850801 -0.02563829 0.00034042
v -0.04725392 -0.02794931 0.00040705
v -0.04463219 -0.03248363 0.00091282
v -0.04570565 -0.03104983 0.00117275
v -0.04615775 -0.02963115 0.00026536
v -0.04504403 -0.03206922 0.00125908
v -0.04477153 -0.03268025 0.00171888
v -0.04485411 -0.03278007 0.00238230
v -0.04435247 -0.03338505 0.00238230
v -0.04403766 -0.03376014 0.00238230
v -0.04403766 -0.03388114 0.00286743
v -0.04447117 -0.03354840 0.00359184
v -0.04454755 -0.03363915 0.00480045
v -0.04403766 -0.03408683 0.00600999
v -0.04403766 -0.03389324 0.00721954
v -0.04442369 -0.03345160 0.00721954
v -0.04487888 -0.03284662 0.00721954
v -0.04480043 -0.03272865 0.00797679
v -0.04609891 -0.03042670 0.00923889
v -0.04466109 -0.03254413 0.00878285
v -0.04454858 -0.03241406 0.00923889
v -0.04403766 -0.03340925 0.00860456
v -0.04403766 -0.03288292 0.00039203
v -0.04403766 -0.03334573 0.00110237
v -0.04403766 -0.03339413 0.00123750
v -0.04403766 -0.03364217 0.00197599
v -0.04403766 -0.03402028 0.00359184
v -0.04403766 -0.03406566 0.00389681
v -0.04403766 -0.03414128 0.00480045
v -0.04403766 -0.03349698 0.00841219
v -0.04417494 -0.03329128 0.00849383
v -0.04500687 -0.03182723 0.00923889
f 1 2 3
f 1 3 4
f 1 4 5
f 1 5 13
f 1 13 27
f 1 27 44
f 1 44 52
f 1 52 83
f 1 83 116
f 1 116 115
f 1 115 155
f 1 155 157
f 1 157 183
f 1 183 196
f 1 196 185
f 1 185 158
f 1 158 123
f 1 123 118
f 1 118 84
f 1 84 53
f 1 53 34
f 1 34 18
f 1 18 7
f 1 7 2
f 2 6 3
f 2 7 6
f 3 6 8
f 3 8 9
f 3 9 10
f 3 10 11
f 3 11 4
f 4 11 12
f 4 12 5
f 5 12 14
f 5 14 15
f 5 15 16
f 5 16 17
f 5 17 13
f 6 7 8
f 7 18 8
f 8 19 20
f 8 20 9
f 8 18 21
f 8 21 22
f 8 22 19
f 9 20 23
f 9 23 24
f 9 24 10
f 10 24 11
f 11 24 25
f 11 25 14
f 11 14 12
f 13 17 26
f 13 26 27
f 14 25 28
f 14 28 29
f 14 29 15
f 15 30 16
f 15 29 30
f 16 30 17
f 17 30 31
f 17 31 32
f 17 32 33
f 17 33 26
f 18 34 35
f 18 35 21
f 19 22 36
f 19 36 37
f 19 37 38
f 19 38 39
f 19 39 20
f 20 24 23
f 20 39 40
f 20 40 24
f 21 35 22
f 22 35 36
f 24 40 25
f 25 41 42
f 25 42 43
f 25 43 28
f 25 40 41
f 26 33 27
f 27 33 44
f 28 43 45
f 28 45 29
f 29 45 46
f 29 46 47
f 29 47 48
f 29 48 31
f 29 31 30
f 31 48 49
f 31 49 32
f 32 49 50
f 32 50 51
f 32 51 52
f 32 52 44
f 32 44 33
f 34 53 35
f 35 53 54
f 35 54 55
f 35 55 36
f 36 55 56
f 36 56 37
f 37 56 57
f 37 57 38
f 38 57 58
f 38 58 59
f 38 59 60
f 38 60 61
f 38 61 62
f 38 62 39
f 39 62 63
f 39 63 64
f 39 64 65
f 39 65 41
f 39 41 40
f 41 66 67
f 41 67 68
f 41 68 69
f 41 69 42
f 41 65 66
f 42 69 70
f 42 70 43
f 43 70 71
f 43 71 46
f 43 46 45
f 46 71 72
f 46 72 73
f 46 73 74
f 46 74 47
f 47 74 75
f 47 75 76
f 47 76 77
f 47 77 48
f 48 77 49
f 49 78 79
f 49 79 50
f 49 77 80
f 49 80 81
f 49 81 82
f 49 82 78
f 50 79 51
f 51 83 52
f 51 79 83
f 53 84 54
f 54 84 85
f 54 85 86
f 54 86 55
f 55 86 56
f 56 86 87
f 56 87 88
f 56 88 57
f 57 88 89
f 57 89 58
f 58 90 59
f 58 89 91
f 58 91 90
f 59 90 61
f 59 61 60
f 61 90 92
f 61 92 93
f 61 93 63
f 61 63 62
f 63 93 64
f 64 93 94
f 64 94 65
f 65 94 67
f 65 67 66
f 67 94 95
f 67 95 68
f 68 95 69
f 69 96 97
f 69 97 72
f 69 72 70
f 69 95 98
f 69 98 96
f 70 72 71
f 72 97 99
f 72 99 100
f 72 100 101
f 72 101 102
f 72 102 73
f 73 103 104
f 73 104 74
f 73 102 105
f 73 105 106
f 73 106 107
f 73 107 108
f 73 108 109
f 73 109 103
f 74 104 75
f 75 104 103
f 75 103 110
f 75 110 111
f 75 111 76
f 76 111 77
f 77 112 80
f 77 111 113
f 77 113 112
f 78 82 114
f 78 114 79
f 79 114 115
f 79 115 116
f 79 116 83
f 80 112 117
f 80 117 81
f 81 117 114
f 81 114 82
f 84 118 85
f 85 119 120
f 85 120 121
f 85 121 86
f 85 118 122
f 85 122 123
f 85 123 119
f 86 121 124
f 86 124 125
f 86 125 126
f 86 126 88
f 86 88 87
f 88 126 125
f 88 125 124
f 88 124 121
f 88 121 120
f 88 120 119
f 88 119 123
f 88 123 158
f 88 158 186
f 88 186 194
f 88 194 179
f 88 179 178
f 88 178 193
f 88 193 192
f 88 192 191
f 88 191 175
f 88 175 174
f 88 174 190
f 88 190 189
f 88 189 188
f 88 188 187
f 88 187 159
f 88 159 127
f 88 127 89
f 89 127 128
f 89 128 129
f 89 129 130
f 89 130 91
f 90 131 92
f 90 91 131
f 91 130 132
f 91 132 133
f 91 133 134
f 91 134 131
f 92 131 135
f 92 135 93
f 93 135 94
f 94 135 95
f 95 135 136
f 95 136 98
f 96 98 99
f 96 99 97
f 98 136 99
f 99 136 137
f 99 137 100
f 100 138 101
f 100 137 138
f 101 138 139
f 101 139 140
f 101 140 141
f 101 141 105
f 101 105 142
f 101 142 102
f 102 142 105
f 103 109 110
f 105 141 140
f 105 140 143
f 105 143 107
f 105 107 106
f 107 143 144
f 107 144 145
f 107 145 108
f 108 110 109
f 108 145 146
f 108 146 147
f 108 147 148
f 108 148 110
f 110 148 111
f 111 148 149
f 111 149 150
f 111 150 151
f 111 151 113
f 112 113 117
f 113 151 152
f 113 152 153
f 113 153 117
f 114 117 154
f 114 154 115
f 115 154 155
f 117 153 156
f 117 156 157
f 117 157 154
f 118 123 122
f 127 159 128
f 128 160 161
f 128 161 129
f 128 159 160
f 129 162 132
f 129 132 130
f 129 161 162
f 131 134 135
f 132 163 133
f 132 162 164
f 132 164 163
f 133 163 134
f 134 163 137
f 134 137 136
f 134 136 135
f 137 163 165
f 137 165 138
f 138 165 139
f 139 165 140
f 140 165 166
f 140 166 143
f 143 166 144
f 144 160 167
f 144 167 168
f 144 168 145
f 144 166 169
f 144 169 160
f 145 168 170
f 145 170 171
f 145 171 146
f 146 171 172
f 146 172 147
f 147 172 173
f 147 173 174
f 147 174 175
f 147 175 176
f 147 176 177
f 147 177 149
f 147 149 148
f 149 177 150
f 150 177 178
f 150 178 179
f 150 179 180
f 150 180 181
f 150 181 151
f 151 181 182
f 151 182 152
f 152 183 153
f 152 182 184
f 152 184 183
f 153 183 156
f 154 157 155
f 156 183 157
f 158 185 186
f 159 187 160
f 160 169 161
f 160 187 167
f 161 169 164
f 161 164 162
f 163 164 165
f 164 169 166
f 164 166 165
f 167 187 188
f 167 188 171
f 167 171 170
f 167 170 168
f 171 188 189
f 171 189 190
f 171 190 173
f 171 173 172
f 173 190 174
f 175 191 176
f 176 191 192
f 176 192 177
f 177 192 193
f 177 193 178
f 179 194 180
f 180 194 182
f 180 182 181
f 182 194 195
f 182 195 184
f 183 184 196
f 184 195 186
f 184 186 185
f 184 185 196
f 186 195 194

