# https://github.com/mikedh/trimesh
v 0.05491757 0.01773319 0.01812270
v 0.03646167 0.04516002 0.01812270
v 0.05959955 0.01774014 0.01812270
v 0.05959955 0.01773319 0.01814355
v 0.05349500 0.01773319 0.02921326
v 0.03646167 0.05078149 0.01812270
v 0.05329534 0.01773319 0.03083098
v 0.05311315 0.01773319 0.03237782
v 0.05275377 0.01773319 0.03563828
v 0.03646167 0.04230241 0.03554238
v 0.05945729 0.01821583 0.01812270
v 0.06188064 0.01786166 0.05667281
v 0.06192057 0.01773667 0.05678122
v 0.05962451 0.01773319 0.01969456
v 0.06195552 0.01773667 0.05771099
v 0.03731271 0.05017386 0.01812270
v 0.03646167 0.05320508 0.05771099
v 0.03714051 0.05274328 0.05771099
v 0.03792916 0.05220162 0.05771099
v 0.05260403 0.01773319 0.03712675
v 0.03646167 0.04205936 0.03712675
v 0.05896314 0.01979568 0.01812270
v 0.06135904 0.01979915 0.05771099
v 0.06190061 0.01793111 0.05771099
v 0.05953965 0.01773319 0.02129560
v 0.06184570 0.01773667 0.05836558
v 0.05604064 0.01773319 0.05289952
v 0.05924016 0.01773319 0.02446433
v 0.05940738 0.01773319 0.02287580
v 0.03839336 0.04937526 0.01812270
v 0.03646167 0.05269814 0.05901184
v 0.03687596 0.05256620 0.05887842
v 0.03967617 0.05073983 0.05859490
v 0.03879767 0.05154191 0.05771099
v 0.03972608 0.05077802 0.05676454
v 0.05245429 0.01773319 0.03870695
v 0.05215480 0.01773319 0.04191737
v 0.05187777 0.01773319 0.04504024
v 0.05174051 0.01773319 0.04662460
v 0.03646167 0.04186838 0.03870695
v 0.05864868 0.02075747 0.01812270
v 0.06084491 0.02137899 0.05771099
v 0.06027839 0.02244843 0.05865744
v 0.06170594 0.01773667 0.05871164
v 0.05163319 0.01773319 0.05289952
v 0.06100464 0.01773667 0.05940793
v 0.06030834 0.01773667 0.06002500
v 0.06014611 0.01773667 0.06013340
v 0.05945230 0.01773667 0.06031269
v 0.05779514 0.01773667 0.06062122
v 0.03918451 0.04876068 0.01812270
v 0.03646167 0.05228148 0.05943712
v 0.03793665 0.05060788 0.06005835
v 0.03879767 0.05108357 0.05894930
v 0.03879767 0.05026066 0.05974148
v 0.04019028 0.04970859 0.05917028
v 0.04134581 0.04922942 0.05868663
v 0.04147309 0.04934748 0.05771099
v 0.04054717 0.05013567 0.05771099
v 0.03975603 0.05080233 0.05771099
v 0.04015285 0.04797249 0.01812270
v 0.05163319 0.01773319 0.04819229
v 0.03646167 0.04170519 0.04028714
v 0.05836416 0.02154913 0.01812270
v 0.06037322 0.02269495 0.05771099
v 0.06006625 0.02348314 0.05771099
v 0.05856382 0.02686158 0.05824884
v 0.05879094 0.02580603 0.05878669
v 0.05906546 0.02454563 0.05907855
v 0.06046806 0.02137899 0.05890343
v 0.06072263 0.01979915 0.05915360
v 0.05161073 0.01773319 0.05247842
v 0.05621534 0.01773667 0.06053783
v 0.05513469 0.01773667 0.06022096
v 0.05434355 0.01773667 0.05971646
v 0.05343511 0.01773667 0.05892428
v 0.05266393 0.01773667 0.05771933
v 0.05236694 0.01773667 0.05699386
v 0.05221470 0.01773667 0.05653939
v 0.05208242 0.01773667 0.05592649
v 0.05183285 0.01773667 0.05454226
v 0.05177545 0.01773667 0.05409197
v 0.03646167 0.04134756 0.05613080
v 0.03646167 0.04117742 0.05511346
v 0.03646167 0.04106978 0.05412532
v 0.05991651 0.01979915 0.05994578
v 0.06007873 0.01873318 0.06005001
v 0.05886331 0.02137899 0.06020428
v 0.05912037 0.01979915 0.06027099
v 0.05779514 0.01979915 0.06055451
v 0.05779514 0.01821236 0.06061705
v 0.05304827 0.02771574 0.06066708
v 0.04829890 0.03562539 0.06070461
v 0.03721538 0.04670861 0.06071712
v 0.05621534 0.01821236 0.06056702
v 0.03646167 0.05190301 0.05980402
v 0.03688095 0.05097246 0.06021262
v 0.03964372 0.04913220 0.06010839
v 0.04069941 0.04865652 0.05974148
v 0.04296803 0.04770166 0.05873249
v 0.04312526 0.04784402 0.05771099
v 0.04226673 0.04863915 0.05771099
v 0.04184246 0.04817735 0.05923698
v 0.04094400 0.04729542 0.01812270
v 0.05158577 0.01773319 0.04933470
v 0.03646167 0.04108367 0.04807972
v 0.03646167 0.04128506 0.04504024
v 0.03646167 0.04144130 0.04308897
v 0.03646167 0.04155242 0.04187151
v 0.05784256 0.02296578 0.01812270
v 0.05861623 0.02698311 0.05686461
v 0.05861623 0.02698311 0.05718982
v 0.05962451 0.02454563 0.05771099
v 0.05727353 0.02441369 0.01812270
v 0.05699401 0.03007335 0.05841145
v 0.05888827 0.02625395 0.05771516
v 0.05828181 0.02759768 0.05771516
v 0.05727104 0.02901781 0.05884089
v 0.05758051 0.02771574 0.05914109
v 0.05823938 0.02454563 0.05987073
v 0.05965446 0.02137899 0.05969562
v 0.05155582 0.01773319 0.05137353
v 0.03646167 0.04670861 0.06062956
v 0.03646167 0.04525029 0.06031685
v 0.03646167 0.04443780 0.06003751
v 0.03646167 0.04248643 0.05869080
v 0.03646167 0.04352462 0.05942878
v 0.03646167 0.04187186 0.05771099
v 0.03646167 0.04172255 0.05727321
v 0.03646167 0.04099339 0.05295372
v 0.05846649 0.02351439 0.06003751
v 0.05867363 0.02245884 0.06012923
v 0.05718369 0.02579214 0.06016259
v 0.05744823 0.02454563 0.06023347
v 0.05779514 0.02137899 0.06045028
v 0.05621534 0.02296231 0.06059620
v 0.05621534 0.02454563 0.06050448
v 0.05462806 0.02771574 0.06055034
v 0.05462806 0.02613242 0.06063373
v 0.05304827 0.02929558 0.06065040
v 0.03879767 0.04670861 0.06070044
v 0.04829890 0.03721218 0.06066708
v 0.04671910 0.03879550 0.06068376
v 0.03646167 0.04829193 0.06070878
v 0.03646167 0.05113913 0.06024181
v 0.03733268 0.05000025 0.06037106
v 0.03879767 0.04946901 0.06021679
v 0.04025518 0.04819819 0.06022930
v 0.04128841 0.04760097 0.06013340
v 0.04234410 0.04710792 0.05978735
v 0.04345969 0.04662528 0.05926617
v 0.04456030 0.04613918 0.05874500
v 0.04472502 0.04630237 0.05771099
v 0.04391890 0.04709056 0.05771099
v 0.04259367 0.04576071 0.01812270
v 0.04180253 0.04650376 0.01812270
v 0.05156830 0.01773319 0.04978916
v 0.03646167 0.04101770 0.04978916
v 0.05704642 0.03016363 0.05684793
v 0.05694909 0.02520535 0.01812270
v 0.05650485 0.02619839 0.01812270
v 0.05572618 0.02788240 0.01812270
v 0.05543917 0.02855254 0.01862720
v 0.05704642 0.03016363 0.05735659
v 0.05737586 0.02944489 0.05781522
v 0.05666457 0.03076779 0.05781522
v 0.05579606 0.03230944 0.05771099
v 0.05532437 0.03309763 0.05771099
v 0.05394174 0.03500039 0.05865327
v 0.05565131 0.03206986 0.05882005
v 0.05598074 0.03088585 0.05912858
v 0.05515965 0.03088585 0.05992077
v 0.05675442 0.02771574 0.05993327
v 0.05696406 0.02684769 0.06007086
v 0.03646167 0.04096909 0.05136936
v 0.03646167 0.04096909 0.05156532
v 0.05565630 0.02899698 0.06018343
v 0.05596577 0.02771574 0.06026682
v 0.05477282 0.02943794 0.06033353
v 0.05304827 0.03088585 0.06052116
v 0.04988119 0.03562539 0.06060038
v 0.03721538 0.04829193 0.06068793
v 0.04355203 0.04354198 0.06054617
v 0.04196475 0.04512877 0.06054617
v 0.04995856 0.03727468 0.06035438
v 0.04671910 0.04037534 0.06050865
v 0.04513182 0.04196213 0.06052949
v 0.03646167 0.04993775 0.06050865
v 0.03879767 0.04829193 0.06050031
v 0.04187490 0.04663570 0.06025431
v 0.04289566 0.04604890 0.06014591
v 0.04395135 0.04553155 0.05979985
v 0.04504697 0.04503849 0.05926617
v 0.04612263 0.04455239 0.05873249
v 0.04551616 0.04550377 0.05771099
v 0.04420092 0.04418780 0.01812270
v 0.04340728 0.04496905 0.01812270
v 0.05509476 0.02914281 0.01812270
v 0.05425370 0.03072613 0.01812270
v 0.05377951 0.03157681 0.01812270
v 0.05326290 0.03246569 0.01812270
v 0.05252666 0.03369138 0.01812270
v 0.05471541 0.03405248 0.05771099
v 0.05067233 0.03958715 0.05850734
v 0.05253165 0.03680593 0.05885757
v 0.05200755 0.03605941 0.05991243
v 0.05425121 0.03405248 0.05898682
v 0.05402160 0.03512192 0.05771099
v 0.05349001 0.03590316 0.05771099
v 0.05269637 0.03703857 0.05771099
v 0.05374956 0.03313583 0.06005001
v 0.05539924 0.03005947 0.06007503
v 0.05404157 0.03207681 0.06016259
v 0.05436851 0.03088585 0.06025015
v 0.05146098 0.03405248 0.06047529
v 0.05147347 0.03556983 0.06027933
v 0.04038495 0.04670861 0.06053366
v 0.04505446 0.04345517 0.06025431
v 0.04347466 0.04504891 0.06026265
v 0.04845863 0.03894827 0.06038773
v 0.05095186 0.03679204 0.06020011
v 0.04948437 0.03852814 0.06022930
v 0.04795199 0.04037534 0.06022930
v 0.04661928 0.04184408 0.06023347
v 0.04447295 0.04447253 0.06014591
v 0.04552864 0.04392392 0.05978735
v 0.04708598 0.04229546 0.05973731
v 0.04765999 0.04292046 0.05868246
v 0.04627487 0.04471558 0.05771099
v 0.04496711 0.04339962 0.01812270
v 0.05202003 0.03447609 0.01812270
v 0.05202253 0.03447609 0.01812687
v 0.04918489 0.04127811 0.05861992
v 0.05099429 0.03879550 0.05884923
v 0.05212735 0.03782675 0.05771099
v 0.05138112 0.03879550 0.05771099
v 0.05071477 0.03963924 0.05771099
v 0.04927224 0.04138922 0.05771099
v 0.05154834 0.03732676 0.05943712
v 0.05054006 0.03784759 0.06001666
v 0.05235445 0.03500734 0.06013340
v 0.05345258 0.03405248 0.05977901
v 0.05126382 0.03562539 0.01812270
v 0.05070228 0.03646218 0.01812270
v 0.04603029 0.04286837 0.06013757
v 0.04909254 0.03958368 0.06008337
v 0.04757015 0.04123992 0.06011673
v 0.04874064 0.04037534 0.05977901
v 0.04814417 0.04178852 0.05917861
v 0.04707100 0.04385100 0.05771099
v 0.04575825 0.04257671 0.01812270
v 0.04858591 0.04217741 0.05771099
v 0.04778977 0.04305935 0.05771099
v 0.05013076 0.03725384 0.01812687
v 0.05072974 0.03965313 0.05683125
v 0.04727815 0.04090311 0.01812270
v 0.05012827 0.03725384 0.01812270
v 0.04648451 0.04177810 0.01812270
v 0.04933462 0.03833369 0.01812270
v 0.04873316 0.03912535 0.01812687
v 0.04794451 0.04010798 0.01812270
v 0.04872816 0.03912535 0.01812270
f 1 2 6
f 1 6 16
f 1 16 30
f 1 30 51
f 1 51 61
f 1 61 104
f 1 104 156
f 1 156 155
f 1 155 197
f 1 197 196
f 1 196 230
f 1 230 251
f 1 251 258
f 1 258 256
f 1 256 261
f 1 261 262
f 1 262 259
f 1 259 257
f 1 257 244
f 1 244 243
f 1 243 231
f 1 231 202
f 1 202 201
f 1 201 200
f 1 200 199
f 1 199 198
f 1 198 162
f 1 162 161
f 1 161 160
f 1 160 114
f 1 114 110
f 1 110 64
f 1 64 41
f 1 41 22
f 1 22 11
f 1 11 3
f 1 3 4
f 1 4 14
f 1 14 25
f 1 25 29
f 1 29 28
f 1 28 27
f 1 27 45
f 1 45 72
f 1 72 122
f 1 122 157
f 1 157 105
f 1 105 62
f 1 62 39
f 1 39 38
f 1 38 37
f 1 37 36
f 1 36 20
f 1 20 9
f 1 9 8
f 1 8 7
f 1 7 5
f 1 5 2
f 2 5 7
f 2 7 8
f 2 8 9
f 2 9 10
f 2 10 21
f 2 21 40
f 2 40 63
f 2 63 109
f 2 109 108
f 2 108 107
f 2 107 106
f 2 106 158
f 2 158 175
f 2 175 176
f 2 176 130
f 2 130 85
f 2 85 84
f 2 84 83
f 2 83 129
f 2 129 128
f 2 128 126
f 2 126 127
f 2 127 125
f 2 125 124
f 2 124 123
f 2 123 144
f 2 144 188
f 2 188 145
f 2 145 96
f 2 96 52
f 2 52 31
f 2 31 17
f 2 17 6
f 3 11 12
f 3 12 13
f 3 13 4
f 4 13 15
f 4 15 14
f 6 17 18
f 6 18 19
f 6 19 16
f 9 20 21
f 9 21 10
f 11 22 23
f 11 23 12
f 12 23 24
f 12 24 13
f 13 24 15
f 14 15 25
f 15 24 26
f 15 26 27
f 15 27 28
f 15 28 29
f 15 29 25
f 16 19 30
f 17 31 32
f 17 32 18
f 18 32 33
f 18 33 19
f 19 34 35
f 19 35 30
f 19 33 34
f 20 36 21
f 21 36 37
f 21 37 38
f 21 38 39
f 21 39 40
f 22 41 42
f 22 42 23
f 23 42 43
f 23 43 26
f 23 26 24
f 26 43 44
f 26 44 27
f 27 44 46
f 27 46 47
f 27 47 48
f 27 48 49
f 27 49 50
f 27 50 45
f 30 35 51
f 31 52 32
f 32 52 53
f 32 53 54
f 32 54 33
f 33 54 55
f 33 55 56
f 33 56 57
f 33 57 58
f 33 58 59
f 33 59 60
f 33 60 34
f 34 60 35
f 35 60 59
f 35 59 58
f 35 58 61
f 35 61 51
f 39 62 40
f 40 62 63
f 41 64 65
f 41 65 42
f 42 65 43
f 43 65 66
f 43 66 67
f 43 67 68
f 43 68 69
f 43 69 70
f 43 70 44
f 44 70 71
f 44 71 46
f 45 50 73
f 45 73 74
f 45 74 75
f 45 75 76
f 45 76 77
f 45 77 78
f 45 78 79
f 45 79 80
f 45 80 81
f 45 81 82
f 45 82 83
f 45 83 84
f 45 84 85
f 45 85 72
f 46 86 87
f 46 87 47
f 46 71 86
f 47 87 48
f 48 88 89
f 48 89 49
f 48 87 88
f 49 89 90
f 49 90 91
f 49 91 50
f 50 91 92
f 50 92 93
f 50 93 94
f 50 94 95
f 50 95 73
f 52 96 53
f 53 55 54
f 53 96 97
f 53 97 98
f 53 98 55
f 55 98 99
f 55 99 56
f 56 99 57
f 57 100 101
f 57 101 102
f 57 102 58
f 57 99 103
f 57 103 100
f 58 102 104
f 58 104 61
f 62 105 106
f 62 106 107
f 62 107 108
f 62 108 109
f 62 109 63
f 64 110 65
f 65 110 66
f 66 111 112
f 66 112 113
f 66 113 67
f 66 110 114
f 66 114 111
f 67 115 68
f 67 113 116
f 67 116 112
f 67 112 117
f 67 117 115
f 68 118 119
f 68 119 69
f 68 115 118
f 69 119 173
f 69 173 120
f 69 120 121
f 69 121 70
f 70 121 86
f 70 86 71
f 72 85 122
f 73 95 94
f 73 94 123
f 73 123 74
f 74 123 124
f 74 124 125
f 74 125 75
f 75 125 76
f 76 126 77
f 76 125 127
f 76 127 126
f 77 126 128
f 77 128 78
f 78 128 79
f 79 128 129
f 79 129 83
f 79 83 80
f 80 83 81
f 81 83 82
f 85 130 122
f 86 131 132
f 86 132 87
f 86 121 131
f 87 132 88
f 88 132 133
f 88 133 134
f 88 134 135
f 88 135 89
f 89 135 90
f 90 136 91
f 90 135 137
f 90 137 138
f 90 138 136
f 91 139 140
f 91 140 92
f 91 136 139
f 92 140 93
f 93 141 94
f 93 140 142
f 93 142 143
f 93 143 141
f 94 141 144
f 94 144 123
f 96 145 97
f 97 145 146
f 97 146 147
f 97 147 98
f 98 147 148
f 98 148 149
f 98 149 150
f 98 150 99
f 99 150 103
f 100 103 150
f 100 150 151
f 100 151 152
f 100 152 153
f 100 153 154
f 100 154 101
f 101 154 155
f 101 155 156
f 101 156 102
f 102 156 104
f 105 157 106
f 106 157 158
f 111 159 164
f 111 164 112
f 111 114 160
f 111 160 161
f 111 161 162
f 111 162 163
f 111 163 159
f 112 164 165
f 112 165 117
f 112 116 113
f 115 117 165
f 115 165 164
f 115 164 166
f 115 166 167
f 115 167 168
f 115 168 169
f 115 169 170
f 115 170 118
f 118 170 171
f 118 171 172
f 118 172 173
f 118 173 119
f 120 173 174
f 120 174 131
f 120 131 121
f 122 175 157
f 122 130 176
f 122 176 175
f 131 174 133
f 131 133 132
f 133 177 178
f 133 178 134
f 133 174 177
f 134 178 135
f 135 178 137
f 136 138 139
f 137 178 138
f 138 178 179
f 138 179 180
f 138 180 181
f 138 181 140
f 138 140 139
f 140 181 142
f 141 182 144
f 141 143 183
f 141 183 184
f 141 184 182
f 142 181 185
f 142 185 186
f 142 186 187
f 142 187 143
f 143 187 183
f 144 182 188
f 145 188 146
f 146 188 189
f 146 189 147
f 147 189 148
f 148 190 149
f 148 189 190
f 149 190 191
f 149 191 150
f 150 192 151
f 150 191 192
f 151 192 152
f 152 192 193
f 152 193 194
f 152 194 195
f 152 195 153
f 153 195 196
f 153 196 197
f 153 197 154
f 154 197 155
f 157 175 158
f 159 168 167
f 159 167 164
f 159 163 198
f 159 198 199
f 159 199 200
f 159 200 201
f 159 201 202
f 159 202 168
f 162 198 163
f 164 167 166
f 168 203 169
f 168 202 203
f 169 204 205
f 169 205 206
f 169 206 207
f 169 207 170
f 169 203 208
f 169 208 209
f 169 209 210
f 169 210 204
f 170 207 211
f 170 211 172
f 170 172 171
f 172 211 212
f 172 212 173
f 173 212 174
f 174 212 177
f 177 212 213
f 177 213 214
f 177 214 179
f 177 179 178
f 179 214 180
f 180 214 215
f 180 215 181
f 181 215 216
f 181 216 185
f 182 184 217
f 182 217 189
f 182 189 188
f 183 187 218
f 183 218 219
f 183 219 184
f 184 219 190
f 184 190 217
f 185 220 186
f 185 216 221
f 185 221 222
f 185 222 220
f 186 220 223
f 186 223 224
f 186 224 218
f 186 218 187
f 189 217 190
f 190 219 191
f 191 225 192
f 191 219 225
f 192 226 193
f 192 225 226
f 193 226 194
f 194 226 227
f 194 227 228
f 194 228 229
f 194 229 195
f 195 229 230
f 195 230 196
f 202 231 232
f 202 232 203
f 203 232 208
f 204 233 234
f 204 234 205
f 204 210 235
f 204 235 236
f 204 236 237
f 204 237 238
f 204 238 233
f 205 234 239
f 205 239 206
f 206 240 241
f 206 241 211
f 206 211 242
f 206 242 207
f 206 239 240
f 207 242 211
f 208 232 243
f 208 243 244
f 208 244 209
f 209 244 210
f 210 244 235
f 211 241 213
f 211 213 212
f 213 241 216
f 213 216 214
f 214 216 215
f 216 241 221
f 218 224 245
f 218 245 225
f 218 225 219
f 220 222 223
f 221 241 240
f 221 240 246
f 221 246 222
f 222 246 223
f 223 246 247
f 223 247 224
f 224 247 245
f 225 245 226
f 226 245 247
f 226 247 227
f 227 247 246
f 227 246 248
f 227 248 249
f 227 249 228
f 228 249 233
f 228 233 250
f 228 250 229
f 229 250 251
f 229 251 230
f 231 243 232
f 233 238 252
f 233 252 253
f 233 253 250
f 233 249 248
f 233 248 246
f 233 246 234
f 234 240 239
f 234 246 240
f 235 244 254
f 235 254 255
f 235 255 236
f 236 255 237
f 237 255 238
f 238 255 256
f 238 256 252
f 244 257 254
f 250 253 258
f 250 258 251
f 252 256 253
f 253 256 258
f 254 257 259
f 254 259 255
f 255 259 260
f 255 260 261
f 255 261 256
f 259 262 260
f 260 262 261

