# https://github.com/mikedh/trimesh
v -0.00060469 0.06110191 0.01205755
v -0.00060469 0.06092774 0.01084926
v -0.00181473 0.06107894 0.01205755
v -0.00181473 0.06082630 0.01326884
v -0.00059956 0.06089712 0.01302538
v 0.00000546 0.06110000 0.01205855
v 0.00000546 0.06110000 0.01205755
v 0.00000546 0.06101579 0.01144339
v -0.00060469 0.06060236 0.01006879
v -0.00181473 0.06057747 0.01010385
v -0.00181473 0.06088755 0.01084926
v -0.00302477 0.06104641 0.01205755
v 0.00060022 0.06093157 0.01084826
v 0.00000546 0.06076505 0.01045051
v 0.00000546 0.06060619 0.01006678
v -0.00301964 0.06079567 0.01326884
v -0.00422969 0.06049326 0.01390705
v -0.00181473 0.06052771 0.01394913
v -0.00059956 0.06084161 0.01326884
v 0.00000546 0.06083778 0.01326784
v 0.00001058 0.06089137 0.01302538
v 0.00000546 0.06097368 0.01265268
v 0.00060022 0.06109617 0.01205855
v -0.00060469 0.05986546 0.00948969
v -0.00181473 0.05986546 0.00953378
v -0.00302477 0.05986546 0.00959389
v -0.00422969 0.05986546 0.00965801
v -0.00542434 0.05997647 0.00982433
v -0.00422969 0.06050474 0.01019603
v -0.00302477 0.06083587 0.01084926
v -0.00422969 0.06097942 0.01205755
v -0.00399383 0.06080716 0.01302438
v 0.00181026 0.06090669 0.01084826
v 0.00000546 0.05986546 0.00948669
v 0.00302030 0.06087606 0.01084826
v 0.00423035 0.06083013 0.01084826
v 0.00544039 0.06074591 0.01084826
v 0.00681963 0.06060810 0.01084826
v 0.00786047 0.06048560 0.01084826
v -0.00422969 0.06074591 0.01326884
v -0.00496289 0.06047795 0.01388801
v -0.00422969 0.05986355 0.01447713
v -0.00191728 0.05975445 0.01465847
v -0.00059956 0.05989417 0.01456429
v -0.00059956 0.06053537 0.01396115
v 0.00000546 0.06068849 0.01360748
v 0.00060022 0.06083204 0.01326784
v 0.00181026 0.06107129 0.01205855
v -0.00181473 0.05865580 0.00910897
v -0.00422969 0.05865580 0.00912300
v -0.00543973 0.05865580 0.00914404
v -0.00664977 0.05865580 0.00918411
v -0.00785981 0.05865580 0.00923722
v -0.00906985 0.05865580 0.00930635
v -0.00664977 0.05979656 0.00977323
v -0.00500391 0.06048177 0.01022809
v -0.00422969 0.06076505 0.01084926
v -0.00422969 0.06079376 0.01302538
v -0.00664977 0.06062150 0.01100456
v -0.00543973 0.06088372 0.01205755
v -0.00657286 0.06064064 0.01302438
v 0.00302030 0.06104258 0.01205855
v 0.00000546 0.05865580 0.00910697
v -0.00060469 0.05865580 0.00910496
v 0.00901924 0.06030569 0.01084826
v 0.01027542 0.06008558 0.01084826
v 0.01087532 0.05996690 0.01084826
v 0.00423035 0.06099282 0.01205855
v 0.00544039 0.06090477 0.01205855
v 0.00786047 0.06057939 0.01111176
v 0.00876287 0.06051814 0.01130513
v -0.00664977 0.06062150 0.01309251
v -0.00539358 0.06063872 0.01335200
v -0.00576787 0.06043967 0.01381087
v -0.01027476 0.05956114 0.01420562
v -0.00906472 0.05963961 0.01426974
v -0.00785981 0.05971234 0.01432584
v -0.00664977 0.05978316 0.01437594
v -0.00539358 0.05996690 0.01431683
v -0.00543973 0.05915345 0.01502116
v -0.00422969 0.05919556 0.01504721
v -0.00238899 0.05925872 0.01508027
v -0.00158400 0.05927977 0.01509430
v -0.00059956 0.05928934 0.01510331
v 0.00001058 0.05928934 0.01510031
v 0.00060535 0.05928552 0.01509830
v 0.00060535 0.05988843 0.01455227
v 0.00001058 0.06053345 0.01395514
v 0.00060022 0.06052963 0.01394813
v 0.00181026 0.06050857 0.01392108
v 0.00181026 0.06079567 0.01326784
v -0.02180604 0.05442966 0.00903283
v -0.01269997 0.05744806 0.00915205
v -0.01390489 0.05744806 0.00921618
v -0.01027476 0.05865580 0.00938950
v -0.00785981 0.05971234 0.00982934
v -0.00580889 0.06045115 0.01028720
v -0.00542434 0.06064447 0.01075308
v -0.00664977 0.06040139 0.01039941
v -0.00785981 0.06054877 0.01121095
v -0.00664977 0.06077653 0.01205755
v -0.00871607 0.06050474 0.01276589
v -0.00785981 0.06055642 0.01291217
v -0.00709584 0.06059853 0.01302538
v 0.00302030 0.06075548 0.01326784
v 0.01087532 0.05138447 0.01084826
v -0.01308452 0.05063417 0.00902281
v -0.01259230 0.05144763 0.00902281
v -0.01269997 0.05199504 0.00902281
v -0.01278714 0.05237210 0.00902281
v -0.01390489 0.05282189 0.00902281
v -0.02152404 0.05442966 0.00903283
v 0.00912691 0.06029995 0.01088133
v 0.01087532 0.06016979 0.01205855
v 0.02216561 0.05597236 0.01415452
v 0.02233994 0.05590154 0.01415452
v 0.02342693 0.05544792 0.01415452
v 0.02503177 0.05474356 0.01415452
v 0.02583162 0.05436841 0.01415452
v 0.02619566 0.05414065 0.01415452
v 0.00544039 0.06066935 0.01313158
v 0.00665043 0.06061384 0.01300234
v 0.00786047 0.06054685 0.01283903
v 0.00863469 0.06049518 0.01272081
v 0.00665043 0.06078993 0.01205855
v 0.00881414 0.06052580 0.01205855
v 0.00941916 0.06043201 0.01205855
v 0.01027542 0.06028463 0.01205855
v 0.00786047 0.06065404 0.01205855
v -0.00785981 0.06051431 0.01302438
v -0.00664977 0.06038607 0.01369665
v -0.01148480 0.05947118 0.01412045
v -0.01148480 0.05876108 0.01472460
v -0.01027476 0.05883955 0.01480976
v -0.00906472 0.05892568 0.01487488
v -0.00785981 0.05900798 0.01493099
v -0.00664977 0.05909029 0.01498108
v -0.00543973 0.05854671 0.01532173
v -0.00785981 0.05840699 0.01526562
v -0.00664977 0.05848355 0.01529768
v -0.00422969 0.05858881 0.01534176
v -0.00301964 0.05862901 0.01535779
v -0.00191728 0.05877447 0.01531972
v -0.00059956 0.05865389 0.01540188
v 0.00001058 0.05865389 0.01539987
v 0.00060535 0.05865389 0.01539787
v 0.00185128 0.05877065 0.01531972
v 0.00147186 0.05926829 0.01508929
v 0.00227685 0.05925106 0.01507726
v 0.00185128 0.05974871 0.01463342
v 0.00182565 0.06026166 0.01415352
v 0.00136419 0.06028080 0.01415352
v 0.00365096 0.06047220 0.01387499
v -0.01511492 0.05271088 0.00902281
v -0.01633009 0.05238933 0.00902281
v -0.01725813 0.05210988 0.00902281
v -0.01757603 0.05200844 0.00902281
v -0.01815028 0.05180364 0.00902281
v -0.01992945 0.05115096 0.00902281
v -0.02052935 0.05092702 0.00902281
v -0.02071906 0.05085429 0.00902281
v -0.02477987 0.04911636 0.00902281
v -0.02519518 0.04892688 0.00902281
v -0.02618475 0.04846177 0.00902281
v -0.02600017 0.05260944 0.00915506
v -0.02479013 0.05381909 0.00927028
v -0.02227263 0.05491391 0.00926326
v -0.01874505 0.05623841 0.00928430
v -0.01753501 0.05623841 0.00916207
v -0.01511492 0.05744806 0.00933941
v -0.00906985 0.05962621 0.00989245
v -0.01148993 0.05865580 0.00951574
v -0.01027476 0.05952668 0.00996159
v -0.01148993 0.05941950 0.01006077
v -0.01241284 0.05932954 0.01016297
v -0.00785981 0.06032100 0.01060681
v -0.00865967 0.06049709 0.01136825
v -0.00785981 0.06063681 0.01205755
v -0.00833152 0.06045306 0.01302438
v -0.00879810 0.06051623 0.01205755
v -0.00940312 0.06043201 0.01205755
v -0.01027476 0.06029420 0.01205755
v -0.01148993 0.06007792 0.01205755
v -0.01245899 0.05970660 0.01326684
v -0.01148480 0.05988843 0.01326884
v -0.01027476 0.06008366 0.01326884
v -0.00893654 0.06037268 0.01302538
v 0.00412267 0.06066552 0.01335701
v 0.02619566 0.04919484 0.01415452
v 0.02619566 0.04395809 0.01429679
v 0.02619566 0.04294175 0.01438796
v 0.02619566 0.04274652 0.01441000
v 0.02619566 0.04155218 0.01459736
v -0.02618475 0.04559075 0.00902281
v -0.01390489 0.05029731 0.00902281
v -0.01349470 0.05046000 0.00902281
v 0.01087532 0.05984824 0.01326784
v 0.01731519 0.05764712 0.01415452
v 0.01897131 0.05713416 0.01415452
v 0.01994549 0.05680687 0.01415452
v 0.02096070 0.05644512 0.01415452
v 0.02116066 0.05536561 0.01492598
v 0.02248350 0.05498473 0.01480876
v 0.02108888 0.05627669 0.01425170
v 0.02362176 0.05511488 0.01435189
v 0.02479078 0.05479715 0.01419760
v 0.02479078 0.05398561 0.01480275
v 0.02600595 0.05382101 0.01450318
v 0.02619566 0.05401050 0.01429478
v 0.00445595 0.06043775 0.01381888
v 0.00544039 0.06039182 0.01373573
v 0.00665043 0.06031908 0.01360748
v 0.00786047 0.06023487 0.01344317
v 0.00905000 0.06019084 0.01318168
v 0.01027542 0.05995351 0.01326784
v -0.00785981 0.06031717 0.01351932
v -0.01269484 0.05936207 0.01400223
v -0.01245386 0.05860030 0.01469254
v -0.01309990 0.05799547 0.01505322
v -0.01245386 0.05807203 0.01509630
v -0.01228979 0.05808926 0.01510732
v -0.01148480 0.05815433 0.01514139
v -0.00906472 0.05832277 0.01522554
v -0.00543973 0.05744232 0.01573651
v -0.00422969 0.05744232 0.01577258
v -0.00785981 0.05744232 0.01563131
v -0.01027476 0.05744232 0.01549806
v -0.00906472 0.05744232 0.01556719
v -0.00664977 0.05744232 0.01568842
v -0.00301964 0.05744232 0.01579863
v -0.00181473 0.05744232 0.01582167
v -0.00059956 0.05744232 0.01584071
v 0.00060535 0.05744232 0.01584071
v 0.00181539 0.05744232 0.01582668
v 0.00302543 0.05744232 0.01580564
v 0.00302543 0.05861178 0.01536180
v 0.00423035 0.05855436 0.01533676
v 0.00302543 0.05921853 0.01505723
v 0.00412780 0.05996690 0.01430981
v 0.00302543 0.05986355 0.01447212
v 0.00302543 0.06020424 0.01415452
v 0.00260499 0.06022530 0.01415352
v 0.00544039 0.05978316 0.01436492
v 0.00665043 0.05971234 0.01430280
v -0.02618475 0.05260944 0.00917911
v -0.02600017 0.05381909 0.00956984
v -0.02358008 0.05502875 0.00959489
v -0.01994996 0.05623841 0.00948969
v -0.01632497 0.05744806 0.00952676
v -0.01390489 0.05853905 0.00981531
v -0.01511492 0.05837444 0.00992452
v -0.01632497 0.05820793 0.01007380
v -0.01321270 0.05923958 0.01028520
v -0.01148993 0.05981953 0.01084926
v -0.01027476 0.06003581 0.01084926
v -0.00906472 0.06025783 0.01091940
v -0.01245899 0.05988652 0.01205755
v -0.01269997 0.05965684 0.01326684
v -0.01340241 0.05929126 0.01391406
v -0.00909549 0.06027697 0.01321073
v -0.01244873 0.05947118 0.01385395
v 0.02619566 0.04155218 0.01683058
v 0.00001058 0.04155218 0.01653502
v -0.02618475 0.04213787 0.01201848
v -0.02618475 0.04243454 0.01128208
v 0.01087532 0.05940227 0.01402628
v 0.01484897 0.05833616 0.01415452
v 0.01506431 0.05827683 0.01415452
v 0.01743825 0.05749592 0.01425070
v 0.01874058 0.05716862 0.01418658
v 0.01753567 0.05660207 0.01493900
v 0.01874058 0.05639727 0.01479072
v 0.01991986 0.05614079 0.01468452
v 0.02030440 0.05555127 0.01503619
v 0.02297060 0.05442009 0.01508027
v 0.02358074 0.05426889 0.01499311
v 0.02619566 0.05324297 0.01486186
v 0.02619566 0.05379038 0.01445909
v 0.00786047 0.05963004 0.01423367
v 0.00914742 0.05953625 0.01415352
v 0.01027542 0.05945012 0.01407537
v -0.01269484 0.05856010 0.01468452
v -0.01390489 0.05787106 0.01497607
v -0.01599682 0.05694659 0.01514139
v -0.01511492 0.05708440 0.01521352
v -0.01390489 0.05726815 0.01528265
v -0.01269484 0.05753228 0.01529468
v -0.01148480 0.05744232 0.01542392
v -0.00906472 0.05623458 0.01588880
v -0.00785981 0.05623458 0.01593489
v -0.00664977 0.05623458 0.01597396
v 0.00001058 0.04155218 0.01925517
v -0.01245386 0.05623649 0.01573250
v -0.01148480 0.05623458 0.01578260
v -0.01244873 0.05648340 0.01565937
v -0.01027476 0.05623458 0.01583770
v 0.00043102 0.04155218 0.01925617
v 0.00060535 0.04155218 0.01925617
v 0.00164106 0.04155218 0.01924715
v 0.00181539 0.04155218 0.01924415
v 0.00423035 0.05744232 0.01576857
v 0.00665043 0.05623458 0.01599500
v 0.00786047 0.05623458 0.01595893
v 0.00544039 0.05744232 0.01571347
v 0.00665043 0.05744232 0.01564834
v 0.00786047 0.05744232 0.01557921
v 0.00544039 0.05847206 0.01529868
v 0.00423035 0.05915919 0.01502216
v 0.00544039 0.05907880 0.01497106
v -0.02618475 0.05381718 0.00963196
v -0.02467220 0.05502492 0.00993554
v -0.02237004 0.05599150 0.00991149
v -0.02116000 0.05631114 0.00981932
v -0.01874505 0.05723369 0.00987442
v -0.01751450 0.05752462 0.00982232
v -0.01709919 0.05810074 0.01018601
v -0.01375619 0.05916493 0.01045853
v -0.01336139 0.05927212 0.01045853
v -0.01277175 0.05952477 0.01075308
v -0.01245899 0.05959942 0.01077613
v -0.01790930 0.05797825 0.01039741
v -0.01390489 0.05939270 0.01111176
v -0.01462783 0.05929509 0.01136023
v -0.01269997 0.05983675 0.01205755
v -0.01466885 0.05930657 0.01280497
v -0.01384848 0.05939653 0.01323177
v -0.01377670 0.05922810 0.01377480
v -0.01841690 0.05814094 0.01285105
v -0.01698639 0.05806820 0.01389603
v -0.01632497 0.05817922 0.01401826
v -0.01511492 0.05838784 0.01421964
v -0.01384848 0.05871131 0.01429679
v 0.02619566 0.04769425 0.01632763
v 0.01976604 0.04155218 0.01779941
v -0.02618475 0.04210724 0.01428877
v 0.01027542 0.05935442 0.01415352
v 0.01138804 0.05853714 0.01465446
v 0.01145983 0.05913622 0.01415452
v 0.01249554 0.05891803 0.01415452
v 0.01390042 0.05845484 0.01425571
v 0.01390042 0.05770837 0.01485985
v 0.01511046 0.05754759 0.01473061
v 0.01625897 0.05733705 0.01464945
v 0.01661788 0.05675519 0.01503118
v 0.01753567 0.05600107 0.01526963
v 0.01991986 0.05509957 0.01531371
v 0.02116066 0.05476270 0.01525159
v 0.02358074 0.05366597 0.01528967
v 0.02479078 0.05337887 0.01516743
v 0.02544195 0.05323532 0.01509530
v 0.02619566 0.05296544 0.01503719
v 0.00907051 0.05878787 0.01476467
v 0.01027542 0.05870366 0.01468051
v -0.01511492 0.05768923 0.01482378
v -0.01680180 0.05678390 0.01504921
v -0.02290328 0.05439138 0.01506324
v -0.02209830 0.05454642 0.01515241
v -0.02116000 0.05472442 0.01524158
v -0.01637111 0.05632262 0.01533175
v -0.01511492 0.05623649 0.01553513
v -0.01390489 0.05623649 0.01564434
v -0.00422969 0.04210724 0.01896963
v -0.00543973 0.04210724 0.01891853
v -0.00664977 0.04210724 0.01885341
v -0.00810592 0.04210724 0.01876825
v -0.00906472 0.04210724 0.01870413
v -0.01027476 0.04210724 0.01861997
v -0.01148480 0.04210724 0.01852980
v -0.01272048 0.04210724 0.01842660
v -0.01390489 0.04210724 0.01831840
v -0.01511492 0.04210724 0.01820117
v -0.01632497 0.04210724 0.01807293
v -0.01754526 0.04210724 0.01792766
v -0.02618475 0.04210724 0.01677848
v -0.01269484 0.05623649 0.01571848
v -0.01511492 0.05502684 0.01583971
v -0.01390489 0.05502684 0.01590483
v 0.00285110 0.04155218 0.01921910
v 0.00907051 0.05623458 0.01590984
v 0.00302543 0.04155218 0.01921409
v 0.00423035 0.04155218 0.01916901
v 0.00526606 0.04155218 0.01912893
v 0.01027542 0.05623458 0.01585173
v 0.01148546 0.05623458 0.01578861
v 0.01269550 0.05623458 0.01571447
v 0.00907051 0.05744232 0.01550407
v 0.01027542 0.05744232 0.01541991
v 0.01138804 0.05752271 0.01529969
v 0.01027542 0.05810074 0.01511233
v 0.01091121 0.05805481 0.01508428
v -0.02618475 0.05453493 0.01013291
v -0.02600017 0.05457704 0.01009183
v -0.02419023 0.05563549 0.01024111
v -0.02358008 0.05575033 0.01012089
v -0.02075495 0.05690831 0.01016798
v -0.01994996 0.05703464 0.01003973
v -0.02155993 0.05676093 0.01039741
v -0.02150353 0.05681070 0.01045853
v -0.01994996 0.05750357 0.01084826
v -0.01795032 0.05799164 0.01045853
v -0.01471500 0.05931997 0.01205755
v -0.01390489 0.05954582 0.01205755
v -0.01751450 0.05825961 0.01082021
v -0.01845792 0.05814285 0.01120394
v -0.01753501 0.05850460 0.01205755
v -0.01632497 0.05885678 0.01205755
v -0.01858098 0.05818878 0.01205755
v -0.01918600 0.05799739 0.01205755
v -0.01994996 0.05774856 0.01205755
v -0.02116000 0.05733131 0.01205755
v -0.02195473 0.05691980 0.01281298
v -0.02116000 0.05707292 0.01306345
v -0.02051909 0.05682601 0.01385395
v -0.01970898 0.05696956 0.01400223
v -0.01637111 0.05738681 0.01469454
v 0.02619566 0.04839478 0.01623646
v 0.01608464 0.04155218 0.01829936
v 0.01633075 0.04155218 0.01827031
v 0.01737159 0.04155218 0.01814006
v 0.01856625 0.04155218 0.01797475
v 0.01171619 0.05798207 0.01504019
v 0.01269550 0.05787106 0.01497006
v 0.01264423 0.05872854 0.01428476
v 0.01581290 0.05686620 0.01509630
v 0.01625897 0.05630540 0.01530570
v 0.01753567 0.05502684 0.01565736
v 0.01874058 0.05502684 0.01550608
v 0.02116066 0.05381718 0.01562129
v 0.02248350 0.05393585 0.01536381
v 0.02479078 0.05260752 0.01548604
v 0.02590854 0.05262475 0.01526963
v 0.02619566 0.05253479 0.01525059
v -0.02116000 0.05609294 0.01427475
v -0.02116000 0.05532734 0.01487889
v -0.02245208 0.05497899 0.01475766
v -0.02358008 0.05424592 0.01496505
v -0.02545667 0.05324106 0.01509830
v -0.02479013 0.05338270 0.01517445
v -0.02358008 0.05364300 0.01529367
v -0.02245208 0.05392054 0.01535880
v -0.02116000 0.05381718 0.01558923
v -0.01753501 0.05502684 0.01563532
v -0.01632497 0.05502684 0.01575354
v -0.01753501 0.05381718 0.01590683
v -0.01874505 0.05381718 0.01582067
v -0.02237004 0.05260752 0.01578260
v -0.02479013 0.05139786 0.01580163
v -0.02618475 0.05019586 0.01588680
v 0.01269550 0.05502684 0.01601404
v 0.01390042 0.05502684 0.01596294
v 0.00647610 0.04155218 0.01907583
v 0.01511046 0.05502684 0.01588579
v 0.01632050 0.05502684 0.01578560
v 0.01390042 0.05623458 0.01560326
v 0.01269550 0.05726815 0.01530570
v -0.02618475 0.05490625 0.01084826
v -0.02428252 0.05567760 0.01045853
v -0.02200601 0.05694085 0.01120394
v -0.02159582 0.05677433 0.01045853
v -0.02116000 0.05708632 0.01082021
v -0.02208804 0.05697530 0.01205755
v -0.02269306 0.05672074 0.01205755
v -0.02358008 0.05633985 0.01205755
v -0.02467732 0.05585561 0.01205755
v -0.02450300 0.05577139 0.01291417
v -0.02355445 0.05594556 0.01329690
v -0.02394925 0.05551874 0.01372070
v -0.02235979 0.05648340 0.01323678
v -0.02116000 0.05669777 0.01366860
v -0.02079084 0.05677241 0.01377480
v -0.02314426 0.05570440 0.01394813
v -0.02237004 0.05585752 0.01408639
v 0.02619566 0.04891348 0.01616833
v 0.01511046 0.04155218 0.01841157
v 0.01390042 0.05710354 0.01523055
v 0.01511046 0.05623458 0.01547001
v 0.01995062 0.05381718 0.01577959
v 0.02358074 0.05260752 0.01567940
v 0.02600083 0.05139978 0.01570345
v 0.02619566 0.05139978 0.01567039
v -0.02355958 0.05508043 0.01430681
v -0.02479013 0.05398752 0.01475766
v -0.02618475 0.05306497 0.01498409
v -0.02618475 0.05254053 0.01525660
v -0.02591813 0.05262858 0.01527564
v -0.02479013 0.05260752 0.01548504
v -0.01994996 0.05381718 0.01571848
v -0.02358008 0.05260752 0.01566037
v -0.02600017 0.05139786 0.01568642
v -0.02618475 0.05122369 0.01570545
v 0.00768101 0.04155218 0.01901371
v 0.00878338 0.04155218 0.01895260
v 0.01753567 0.05381718 0.01598498
v 0.01874058 0.05381718 0.01589581
v -0.02618475 0.05515699 0.01205755
v -0.02444660 0.05575225 0.01084826
v -0.02528235 0.05557998 0.01205755
v -0.02600017 0.05524503 0.01205755
v -0.02618475 0.05511871 0.01223088
v -0.02618475 0.05477419 0.01326884
v -0.02618475 0.05464403 0.01349026
v -0.02295455 0.05589389 0.01377480
v -0.02618475 0.05445646 0.01377480
v -0.02618475 0.05440861 0.01384393
v -0.02564638 0.05453493 0.01398319
v -0.02479013 0.05472442 0.01415352
v 0.02619566 0.05019586 0.01596595
v 0.02600083 0.05019586 0.01598699
v 0.01269550 0.04155218 0.01866505
v 0.01382351 0.04155218 0.01854983
v 0.02237070 0.05260752 0.01583770
v 0.02479078 0.05139978 0.01586175
v -0.02595402 0.05379421 0.01447613
v -0.02618475 0.05324297 0.01483981
v -0.02618475 0.05237592 0.01531972
v -0.02618475 0.05139786 0.01565836
v 0.01024466 0.04155218 0.01885541
v 0.02116066 0.05260752 0.01594891
v 0.01148546 0.04155218 0.01876725
v -0.02618475 0.05375019 0.01442403
v 0.02358074 0.05139978 0.01598198
v 0.02479078 0.05019586 0.01609218
f 1 2 3
f 1 3 4
f 1 4 5
f 1 5 6
f 1 6 7
f 1 7 8
f 1 8 2
f 2 9 10
f 2 10 11
f 2 11 12
f 2 12 3
f 2 8 13
f 2 13 14
f 2 14 15
f 2 15 9
f 3 16 4
f 3 12 16
f 4 16 17
f 4 17 18
f 4 18 19
f 4 19 5
f 5 19 20
f 5 20 21
f 5 21 22
f 5 22 6
f 6 22 23
f 6 23 7
f 7 23 13
f 7 13 8
f 9 24 25
f 9 25 10
f 9 15 24
f 10 25 26
f 10 26 27
f 10 27 28
f 10 28 29
f 10 29 30
f 10 30 11
f 11 30 12
f 12 30 31
f 12 31 32
f 12 32 16
f 13 23 48
f 13 48 33
f 13 33 15
f 13 15 14
f 15 34 24
f 15 33 35
f 15 35 36
f 15 36 37
f 15 37 38
f 15 38 39
f 15 39 34
f 16 32 40
f 16 40 41
f 16 41 17
f 17 41 42
f 17 42 43
f 17 43 18
f 18 43 44
f 18 44 45
f 18 45 19
f 19 45 46
f 19 46 20
f 20 46 47
f 20 47 21
f 21 47 22
f 22 47 23
f 23 47 48
f 24 49 50
f 24 50 51
f 24 51 52
f 24 52 25
f 24 34 49
f 25 52 53
f 25 53 26
f 26 53 27
f 27 53 54
f 27 54 55
f 27 55 28
f 28 56 29
f 28 55 56
f 29 56 30
f 30 56 57
f 30 57 31
f 31 58 32
f 31 57 59
f 31 59 60
f 31 60 61
f 31 61 58
f 32 58 40
f 33 48 62
f 33 62 35
f 34 63 64
f 34 64 49
f 34 39 65
f 34 65 66
f 34 66 67
f 34 67 63
f 35 62 36
f 36 62 68
f 36 68 37
f 37 69 70
f 37 70 38
f 37 68 69
f 38 70 39
f 39 70 71
f 39 71 65
f 40 58 61
f 40 61 72
f 40 72 73
f 40 73 41
f 41 73 74
f 41 74 75
f 41 75 76
f 41 76 77
f 41 77 78
f 41 78 79
f 41 79 42
f 42 79 80
f 42 80 81
f 42 81 82
f 42 82 83
f 42 83 43
f 43 83 44
f 44 83 84
f 44 84 85
f 44 85 86
f 44 86 87
f 44 87 88
f 44 88 45
f 45 88 46
f 46 88 89
f 46 89 47
f 47 89 90
f 47 90 91
f 47 91 62
f 47 62 48
f 49 64 92
f 49 92 50
f 50 92 93
f 50 93 51
f 51 93 52
f 52 93 53
f 53 93 94
f 53 94 54
f 54 95 55
f 54 94 95
f 55 95 96
f 55 96 97
f 55 97 56
f 56 97 57
f 57 97 98
f 57 98 59
f 59 99 100
f 59 100 60
f 59 98 97
f 59 97 99
f 60 101 102
f 60 102 103
f 60 103 61
f 60 100 101
f 61 103 104
f 61 104 72
f 62 91 105
f 62 105 68
f 63 67 106
f 63 106 107
f 63 107 108
f 63 108 109
f 63 109 110
f 63 110 64
f 64 110 111
f 64 111 112
f 64 112 92
f 65 71 113
f 65 113 66
f 66 113 71
f 66 71 67
f 67 71 114
f 67 114 115
f 67 115 116
f 67 116 117
f 67 117 118
f 67 118 119
f 67 119 120
f 67 120 189
f 67 189 106
f 68 121 122
f 68 122 69
f 68 105 121
f 69 122 123
f 69 123 124
f 69 124 125
f 69 125 71
f 69 71 70
f 71 126 127
f 71 127 128
f 71 128 114
f 71 125 129
f 71 129 126
f 72 74 73
f 72 104 74
f 74 104 130
f 74 130 131
f 74 131 132
f 74 132 75
f 75 132 133
f 75 133 134
f 75 134 135
f 75 135 76
f 76 135 136
f 76 136 137
f 76 137 77
f 77 137 78
f 78 137 79
f 79 137 80
f 80 138 81
f 80 137 139
f 80 139 140
f 80 140 138
f 81 138 82
f 82 138 141
f 82 141 83
f 83 141 142
f 83 142 143
f 83 143 144
f 83 144 84
f 84 144 145
f 84 145 146
f 84 146 85
f 85 146 86
f 86 146 147
f 86 147 148
f 86 148 87
f 87 148 149
f 87 149 150
f 87 150 151
f 87 151 152
f 87 152 89
f 87 89 88
f 89 152 90
f 90 152 151
f 90 151 153
f 90 153 91
f 91 153 105
f 92 112 111
f 92 111 154
f 92 154 155
f 92 155 156
f 92 156 157
f 92 157 158
f 92 158 159
f 92 159 160
f 92 160 161
f 92 161 162
f 92 162 163
f 92 163 164
f 92 164 165
f 92 165 166
f 92 166 167
f 92 167 168
f 92 168 169
f 92 169 93
f 93 169 94
f 94 170 95
f 94 169 168
f 94 168 170
f 95 171 96
f 95 170 172
f 95 172 171
f 96 171 97
f 97 171 173
f 97 173 174
f 97 174 99
f 99 174 175
f 99 175 176
f 99 176 100
f 100 176 177
f 100 177 101
f 101 177 178
f 101 178 102
f 102 179 130
f 102 130 103
f 102 178 180
f 102 180 181
f 102 181 182
f 102 182 183
f 102 183 184
f 102 184 185
f 102 185 186
f 102 186 187
f 102 187 179
f 103 130 104
f 105 153 188
f 105 188 121
f 106 189 190
f 106 190 191
f 106 191 192
f 106 192 193
f 106 193 194
f 106 194 195
f 106 195 196
f 106 196 107
f 107 196 195
f 107 195 194
f 107 194 164
f 107 164 163
f 107 163 162
f 107 162 161
f 107 161 160
f 107 160 159
f 107 159 158
f 107 158 157
f 107 157 156
f 107 156 155
f 107 155 154
f 107 154 111
f 107 111 110
f 107 110 109
f 107 109 108
f 114 128 124
f 114 124 197
f 114 197 198
f 114 198 199
f 114 199 200
f 114 200 201
f 114 201 115
f 115 202 203
f 115 203 116
f 115 201 204
f 115 204 202
f 116 203 205
f 116 205 117
f 117 205 206
f 117 206 118
f 118 206 207
f 118 207 208
f 118 208 209
f 118 209 119
f 119 209 120
f 120 209 278
f 120 278 277
f 120 277 351
f 120 351 432
f 120 432 480
f 120 480 507
f 120 507 473
f 120 473 416
f 120 416 333
f 120 333 262
f 120 262 193
f 120 193 192
f 120 192 191
f 120 191 190
f 120 190 189
f 121 188 153
f 121 153 210
f 121 210 211
f 121 211 122
f 122 211 212
f 122 212 123
f 123 212 213
f 123 213 124
f 124 214 215
f 124 215 197
f 124 128 127
f 124 127 126
f 124 126 129
f 124 129 125
f 124 213 214
f 130 179 216
f 130 216 131
f 131 216 132
f 132 216 217
f 132 217 218
f 132 218 133
f 133 218 219
f 133 219 220
f 133 220 221
f 133 221 134
f 134 221 135
f 135 221 222
f 135 222 136
f 136 222 137
f 137 222 223
f 137 223 139
f 138 224 225
f 138 225 141
f 138 140 224
f 139 226 140
f 139 223 227
f 139 227 228
f 139 228 226
f 140 226 229
f 140 229 224
f 141 225 142
f 142 144 143
f 142 225 144
f 144 225 230
f 144 230 231
f 144 231 232
f 144 232 233
f 144 233 145
f 145 233 146
f 146 233 234
f 146 234 235
f 146 235 236
f 146 236 147
f 147 236 149
f 147 149 148
f 149 236 237
f 149 237 238
f 149 238 239
f 149 239 240
f 149 240 150
f 150 240 241
f 150 241 242
f 150 242 151
f 151 242 153
f 153 239 243
f 153 243 244
f 153 244 210
f 153 242 241
f 153 241 240
f 153 240 239
f 164 194 265
f 164 265 264
f 164 264 335
f 164 335 374
f 164 374 448
f 164 448 490
f 164 490 516
f 164 516 515
f 164 515 484
f 164 484 483
f 164 483 514
f 164 514 520
f 164 520 504
f 164 504 503
f 164 503 501
f 164 501 500
f 164 500 499
f 164 499 495
f 164 495 456
f 164 456 391
f 164 391 310
f 164 310 245
f 164 245 165
f 165 245 166
f 166 245 246
f 166 246 247
f 166 247 167
f 167 248 168
f 167 247 248
f 168 249 170
f 168 248 249
f 170 250 172
f 170 249 250
f 171 172 173
f 172 250 174
f 172 174 173
f 174 250 175
f 175 250 251
f 175 251 252
f 175 252 253
f 175 253 254
f 175 254 255
f 175 255 176
f 176 255 256
f 176 256 177
f 177 180 178
f 177 256 255
f 177 255 254
f 177 254 257
f 177 257 183
f 177 183 182
f 177 182 181
f 177 181 180
f 179 187 216
f 183 257 184
f 184 257 324
f 184 324 258
f 184 258 259
f 184 259 185
f 185 259 186
f 186 216 260
f 186 260 187
f 186 259 261
f 186 261 217
f 186 217 216
f 187 260 216
f 193 262 334
f 193 334 420
f 193 420 419
f 193 419 418
f 193 418 417
f 193 417 474
f 193 474 510
f 193 510 509
f 193 509 519
f 193 519 517
f 193 517 492
f 193 492 491
f 193 491 451
f 193 451 382
f 193 382 381
f 193 381 380
f 193 380 378
f 193 378 300
f 193 300 299
f 193 299 298
f 193 298 297
f 193 297 292
f 193 292 263
f 193 263 264
f 193 264 265
f 193 265 194
f 197 215 266
f 197 266 267
f 197 267 268
f 197 268 198
f 198 269 270
f 198 270 199
f 198 268 269
f 199 270 271
f 199 271 272
f 199 272 273
f 199 273 200
f 200 204 201
f 200 273 204
f 202 204 274
f 202 274 275
f 202 275 203
f 203 275 205
f 204 273 274
f 205 275 276
f 205 276 207
f 205 207 206
f 207 276 277
f 207 277 208
f 208 277 278
f 208 278 209
f 210 244 279
f 210 279 211
f 211 279 280
f 211 280 281
f 211 281 212
f 212 281 266
f 212 266 213
f 213 266 215
f 213 215 214
f 217 282 218
f 217 261 259
f 217 259 282
f 218 282 219
f 219 282 283
f 219 283 284
f 219 284 285
f 219 285 286
f 219 286 220
f 220 286 221
f 221 286 287
f 221 287 288
f 221 288 222
f 222 288 223
f 223 288 227
f 224 229 289
f 224 289 290
f 224 290 291
f 224 291 225
f 225 291 292
f 225 292 230
f 226 228 293
f 226 293 294
f 226 294 229
f 227 288 295
f 227 295 228
f 228 295 293
f 229 294 296
f 229 296 289
f 230 292 231
f 231 292 232
f 232 292 297
f 232 297 298
f 232 298 233
f 233 298 299
f 233 299 234
f 234 300 235
f 234 299 300
f 235 301 236
f 235 300 302
f 235 302 303
f 235 303 301
f 236 301 237
f 237 301 304
f 237 304 305
f 237 305 306
f 237 306 307
f 237 307 308
f 237 308 238
f 238 308 239
f 239 308 243
f 243 308 309
f 243 309 244
f 244 309 279
f 245 310 246
f 246 310 311
f 246 311 247
f 247 311 312
f 247 312 313
f 247 313 248
f 248 313 314
f 248 314 249
f 249 314 315
f 249 315 251
f 249 251 250
f 251 315 314
f 251 314 252
f 252 314 316
f 252 316 253
f 253 317 318
f 253 318 319
f 253 319 320
f 253 320 254
f 253 316 321
f 253 321 317
f 254 320 322
f 254 322 257
f 257 322 323
f 257 323 324
f 258 324 325
f 258 325 326
f 258 326 259
f 259 326 325
f 259 325 327
f 259 327 328
f 259 328 329
f 259 329 330
f 259 330 331
f 259 331 332
f 259 332 282
f 262 333 334
f 263 292 374
f 263 374 335
f 263 335 264
f 266 281 336
f 266 336 337
f 266 337 338
f 266 338 339
f 266 339 267
f 267 340 341
f 267 341 342
f 267 342 343
f 267 343 268
f 267 339 340
f 268 343 269
f 269 343 344
f 269 344 271
f 269 271 270
f 271 344 274
f 271 274 272
f 272 274 273
f 274 344 345
f 274 345 346
f 274 346 347
f 274 347 275
f 275 348 349
f 275 349 350
f 275 350 276
f 275 347 348
f 276 350 277
f 277 350 351
f 279 309 280
f 280 309 352
f 280 352 353
f 280 353 336
f 280 336 281
f 282 332 283
f 283 332 354
f 283 354 284
f 284 355 356
f 284 356 357
f 284 357 358
f 284 358 359
f 284 359 285
f 284 354 355
f 285 360 286
f 285 359 360
f 286 360 361
f 286 361 287
f 287 361 288
f 288 361 295
f 289 296 363
f 289 363 362
f 289 362 292
f 289 292 290
f 290 292 291
f 292 362 363
f 292 363 364
f 292 364 365
f 292 365 366
f 292 366 367
f 292 367 368
f 292 368 369
f 292 369 370
f 292 370 371
f 292 371 372
f 292 372 373
f 292 373 374
f 293 295 375
f 293 375 376
f 293 376 377
f 293 377 294
f 294 377 363
f 294 363 296
f 295 361 375
f 300 378 302
f 301 303 379
f 301 379 304
f 302 378 380
f 302 380 303
f 303 380 381
f 303 381 382
f 303 382 379
f 304 379 383
f 304 383 384
f 304 384 305
f 305 384 306
f 306 384 385
f 306 385 386
f 306 386 307
f 307 309 308
f 307 386 387
f 307 387 388
f 307 388 389
f 307 389 309
f 309 389 390
f 309 390 352
f 310 391 392
f 310 392 311
f 311 393 394
f 311 394 312
f 311 392 393
f 312 394 395
f 312 395 396
f 312 396 313
f 313 396 314
f 314 396 316
f 316 396 395
f 316 395 321
f 317 323 322
f 317 322 318
f 317 321 323
f 318 322 319
f 319 322 320
f 321 395 397
f 321 397 398
f 321 398 399
f 321 399 400
f 321 400 323
f 323 401 402
f 323 402 324
f 323 400 403
f 323 403 404
f 323 404 405
f 323 405 406
f 323 406 401
f 324 402 325
f 325 402 401
f 325 401 406
f 325 406 405
f 325 405 407
f 325 407 328
f 325 328 327
f 328 407 408
f 328 408 409
f 328 409 410
f 328 410 411
f 328 411 412
f 328 412 329
f 329 412 413
f 329 413 414
f 329 414 330
f 330 414 331
f 331 354 332
f 331 414 415
f 331 415 354
f 333 416 417
f 333 417 418
f 333 418 419
f 333 419 420
f 333 420 334
f 336 353 337
f 337 421 422
f 337 422 423
f 337 423 338
f 337 353 421
f 338 423 339
f 339 423 340
f 340 423 422
f 340 422 341
f 341 422 344
f 341 344 342
f 342 344 343
f 344 422 424
f 344 424 345
f 345 424 425
f 345 425 426
f 345 426 427
f 345 427 346
f 346 428 347
f 346 427 428
f 347 428 429
f 347 429 348
f 348 430 431
f 348 431 432
f 348 432 349
f 348 429 428
f 348 428 430
f 349 432 350
f 350 432 351
f 352 390 353
f 353 390 421
f 354 415 355
f 355 415 433
f 355 433 434
f 355 434 356
f 356 435 436
f 356 436 437
f 356 437 438
f 356 438 357
f 356 434 435
f 357 438 439
f 357 439 358
f 358 439 440
f 358 440 441
f 358 441 359
f 359 441 360
f 360 441 442
f 360 442 443
f 360 443 361
f 361 443 376
f 361 376 375
f 363 377 376
f 363 376 364
f 364 376 365
f 365 376 366
f 366 376 444
f 366 444 367
f 367 444 445
f 367 445 446
f 367 446 368
f 368 446 447
f 368 447 369
f 369 447 448
f 369 448 370
f 370 448 371
f 371 448 372
f 372 448 373
f 373 448 374
f 376 443 445
f 376 445 444
f 379 382 449
f 379 449 450
f 379 450 383
f 382 451 450
f 382 450 449
f 383 450 384
f 384 450 385
f 385 450 452
f 385 452 453
f 385 453 454
f 385 454 455
f 385 455 387
f 385 387 386
f 387 455 388
f 388 455 390
f 388 390 389
f 390 455 421
f 391 456 393
f 391 393 392
f 393 456 457
f 393 457 458
f 393 458 459
f 393 459 397
f 393 397 395
f 393 395 394
f 397 459 398
f 398 459 458
f 398 458 460
f 398 460 399
f 399 460 404
f 399 404 400
f 400 404 403
f 404 460 458
f 404 458 409
f 404 409 408
f 404 408 407
f 404 407 405
f 409 458 410
f 410 458 461
f 410 461 411
f 411 461 462
f 411 462 463
f 411 463 464
f 411 464 465
f 411 465 466
f 411 466 467
f 411 467 468
f 411 468 469
f 411 469 412
f 412 469 470
f 412 470 413
f 413 470 471
f 413 471 472
f 413 472 414
f 414 472 433
f 414 433 415
f 416 473 474
f 416 474 417
f 421 455 422
f 422 455 475
f 422 475 424
f 424 475 425
f 425 475 455
f 425 455 476
f 425 476 426
f 426 476 454
f 426 454 453
f 426 453 477
f 426 477 427
f 427 477 428
f 428 477 511
f 428 511 478
f 428 478 430
f 430 478 479
f 430 479 480
f 430 480 432
f 430 432 431
f 433 472 435
f 433 435 434
f 435 472 436
f 436 472 481
f 436 481 482
f 436 482 437
f 437 482 483
f 437 483 484
f 437 484 485
f 437 485 438
f 438 485 439
f 439 485 486
f 439 486 441
f 439 441 440
f 441 487 442
f 441 486 488
f 441 488 487
f 442 487 443
f 443 487 445
f 445 487 446
f 446 487 488
f 446 488 489
f 446 489 490
f 446 490 447
f 447 490 448
f 450 451 491
f 450 491 492
f 450 492 493
f 450 493 452
f 452 493 494
f 452 494 453
f 453 494 477
f 454 476 455
f 456 495 496
f 456 496 457
f 457 496 458
f 458 496 497
f 458 497 464
f 458 464 463
f 458 463 462
f 458 462 461
f 464 497 465
f 465 497 498
f 465 498 495
f 465 495 499
f 465 499 500
f 465 500 501
f 465 501 467
f 465 467 466
f 467 471 502
f 467 502 468
f 467 501 503
f 467 503 504
f 467 504 471
f 468 502 469
f 469 502 471
f 469 471 470
f 471 481 472
f 471 504 505
f 471 505 506
f 471 506 482
f 471 482 481
f 473 507 508
f 473 508 509
f 473 509 510
f 473 510 474
f 477 494 511
f 478 511 512
f 478 512 479
f 479 512 507
f 479 507 480
f 482 506 513
f 482 513 514
f 482 514 483
f 484 515 485
f 485 515 486
f 486 515 516
f 486 516 489
f 486 489 488
f 489 516 490
f 492 517 493
f 493 518 494
f 493 517 519
f 493 519 518
f 494 518 511
f 495 498 496
f 496 498 497
f 504 520 505
f 505 520 513
f 505 513 506
f 507 512 508
f 508 512 521
f 508 521 522
f 508 522 509
f 509 522 521
f 509 521 519
f 511 518 521
f 511 521 512
f 513 520 514
f 518 519 521

