v 0.037500 0.000000 0.200000
v 0.036000 0.000000 0.185000
v 0.030000 0.000000 0.165000
v 0.019000 0.000000 0.146000
v 0.006000 0.000000 0.132000
v 0.000000 0.000000 0.130000
v 0.000000 0.000000 0.132500
v 0.004500 0.000000 0.134000
v 0.017000 0.000000 0.148000
v 0.028000 0.000000 0.167000
v 0.034000 0.000000 0.185000
v 0.035500 0.000000 0.200000
v 0.037357 0.003268 0.200000
v 0.035863 0.003138 0.185000
v 0.029886 0.002615 0.165000
v 0.018928 0.001656 0.146000
v 0.005977 0.000523 0.132000
v 0.000000 0.000000 0.130000
v 0.000000 0.000000 0.132500
v 0.004483 0.000392 0.134000
v 0.016935 0.001482 0.148000
v 0.027893 0.002440 0.167000
v 0.033871 0.002963 0.185000
v 0.035365 0.003094 0.200000
v 0.036930 0.006512 0.200000
v 0.035453 0.006251 0.185000
v 0.029544 0.005209 0.165000
v 0.018711 0.003299 0.146000
v 0.005909 0.001042 0.132000
v 0.000000 0.000000 0.130000
v 0.000000 0.000000 0.132500
v 0.004432 0.000781 0.134000
v 0.016742 0.002952 0.148000
v 0.027575 0.004862 0.167000
v 0.033483 0.005904 0.185000
v 0.034961 0.006165 0.200000
v 0.036222 0.009706 0.200000
v 0.034773 0.009317 0.185000
v 0.028978 0.007765 0.165000
v 0.018353 0.004918 0.146000
v 0.005796 0.001553 0.132000
v 0.000000 0.000000 0.130000
v 0.000000 0.000000 0.132500
v 0.004347 0.001165 0.134000
v 0.016421 0.004400 0.148000
v 0.027046 0.007247 0.167000
v 0.032841 0.008800 0.185000
v 0.034290 0.009188 0.200000
v 0.035238 0.012826 0.200000
v 0.033829 0.012313 0.185000
v 0.028191 0.010261 0.165000
v 0.017854 0.006498 0.146000
v 0.005638 0.002052 0.132000
v 0.000000 0.000000 0.130000
v 0.000000 0.000000 0.132500
v 0.004229 0.001539 0.134000
v 0.015975 0.005814 0.148000
v 0.026311 0.009577 0.167000
v 0.031950 0.011629 0.185000
v 0.033359 0.012142 0.200000
v 0.033987 0.015848 0.200000
v 0.032627 0.015214 0.185000
v 0.027189 0.012679 0.165000
v 0.017220 0.008030 0.146000
v 0.005438 0.002536 0.132000
v 0.000000 0.000000 0.130000
v 0.000000 0.000000 0.132500
v 0.004078 0.001902 0.134000
v 0.015407 0.007185 0.148000
v 0.025377 0.011833 0.167000
v 0.030814 0.014369 0.185000
v 0.032174 0.015003 0.200000
v 0.032476 0.018750 0.200000
v 0.031177 0.018000 0.185000
v 0.025981 0.015000 0.165000
v 0.016454 0.009500 0.146000
v 0.005196 0.003000 0.132000
v 0.000000 0.000000 0.130000
v 0.000000 0.000000 0.132500
v 0.003897 0.002250 0.134000
v 0.014722 0.008500 0.148000
v 0.024249 0.014000 0.167000
v 0.029445 0.017000 0.185000
v 0.030744 0.017750 0.200000
v 0.030718 0.021509 0.200000
v 0.029489 0.020649 0.185000
v 0.024575 0.017207 0.165000
v 0.015564 0.010898 0.146000
v 0.004915 0.003441 0.132000
v 0.000000 0.000000 0.130000
v 0.000000 0.000000 0.132500
v 0.003686 0.002581 0.134000
v 0.013926 0.009751 0.148000
v 0.022936 0.016060 0.167000
v 0.027851 0.019502 0.185000
v 0.029080 0.020362 0.200000
v 0.028727 0.024105 0.200000
v 0.027578 0.023140 0.185000
v 0.022981 0.019284 0.165000
v 0.014555 0.012213 0.146000
v 0.004596 0.003857 0.132000
v 0.000000 0.000000 0.130000
v 0.000000 0.000000 0.132500
v 0.003447 0.002893 0.134000
v 0.013023 0.010927 0.148000
v 0.021449 0.017998 0.167000
v 0.026046 0.021855 0.185000
v 0.027195 0.022819 0.200000
v 0.026517 0.026517 0.200000
v 0.025456 0.025456 0.185000
v 0.021213 0.021213 0.165000
v 0.013435 0.013435 0.146000
v 0.004243 0.004243 0.132000
v 0.000000 0.000000 0.130000
v 0.000000 0.000000 0.132500
v 0.003182 0.003182 0.134000
v 0.012021 0.012021 0.148000
v 0.019799 0.019799 0.167000
v 0.024042 0.024042 0.185000
v 0.025102 0.025102 0.200000
v 0.024105 0.028727 0.200000
v 0.023140 0.027578 0.185000
v 0.019284 0.022981 0.165000
v 0.012213 0.014555 0.146000
v 0.003857 0.004596 0.132000
v 0.000000 0.000000 0.130000
v 0.000000 0.000000 0.132500
v 0.002893 0.003447 0.134000
v 0.010927 0.013023 0.148000
v 0.017998 0.021449 0.167000
v 0.021855 0.026046 0.185000
v 0.022819 0.027195 0.200000
v 0.021509 0.030718 0.200000
v 0.020649 0.029489 0.185000
v 0.017207 0.024575 0.165000
v 0.010898 0.015564 0.146000
v 0.003441 0.004915 0.132000
v 0.000000 0.000000 0.130000
v 0.000000 0.000000 0.132500
v 0.002581 0.003686 0.134000
v 0.009751 0.013926 0.148000
v 0.016060 0.022936 0.167000
v 0.019502 0.027851 0.185000
v 0.020362 0.029080 0.200000
v 0.018750 0.032476 0.200000
v 0.018000 0.031177 0.185000
v 0.015000 0.025981 0.165000
v 0.009500 0.016454 0.146000
v 0.003000 0.005196 0.132000
v 0.000000 0.000000 0.130000
v 0.000000 0.000000 0.132500
v 0.002250 0.003897 0.134000
v 0.008500 0.014722 0.148000
v 0.014000 0.024249 0.167000
v 0.017000 0.029445 0.185000
v 0.017750 0.030744 0.200000
v 0.015848 0.033987 0.200000
v 0.015214 0.032627 0.185000
v 0.012679 0.027189 0.165000
v 0.008030 0.017220 0.146000
v 0.002536 0.005438 0.132000
v 0.000000 0.000000 0.130000
v 0.000000 0.000000 0.132500
v 0.001902 0.004078 0.134000
v 0.007185 0.015407 0.148000
v 0.011833 0.025377 0.167000
v 0.014369 0.030814 0.185000
v 0.015003 0.032174 0.200000
v 0.012826 0.035238 0.200000
v 0.012313 0.033829 0.185000
v 0.010261 0.028191 0.165000
v 0.006498 0.017854 0.146000
v 0.002052 0.005638 0.132000
v 0.000000 0.000000 0.130000
v 0.000000 0.000000 0.132500
v 0.001539 0.004229 0.134000
v 0.005814 0.015975 0.148000
v 0.009577 0.026311 0.167000
v 0.011629 0.031950 0.185000
v 0.012142 0.033359 0.200000
v 0.009706 0.036222 0.200000
v 0.009317 0.034773 0.185000
v 0.007765 0.028978 0.165000
v 0.004918 0.018353 0.146000
v 0.001553 0.005796 0.132000
v 0.000000 0.000000 0.130000
v 0.000000 0.000000 0.132500
v 0.001165 0.004347 0.134000
v 0.004400 0.016421 0.148000
v 0.007247 0.027046 0.167000
v 0.008800 0.032841 0.185000
v 0.009188 0.034290 0.200000
v 0.006512 0.036930 0.200000
v 0.006251 0.035453 0.185000
v 0.005209 0.029544 0.165000
v 0.003299 0.018711 0.146000
v 0.001042 0.005909 0.132000
v 0.000000 0.000000 0.130000
v 0.000000 0.000000 0.132500
v 0.000781 0.004432 0.134000
v 0.002952 0.016742 0.148000
v 0.004862 0.027575 0.167000
v 0.005904 0.033483 0.185000
v 0.006165 0.034961 0.200000
v 0.003268 0.037357 0.200000
v 0.003138 0.035863 0.185000
v 0.002615 0.029886 0.165000
v 0.001656 0.018928 0.146000
v 0.000523 0.005977 0.132000
v 0.000000 0.000000 0.130000
v 0.000000 0.000000 0.132500
v 0.000392 0.004483 0.134000
v 0.001482 0.016935 0.148000
v 0.002440 0.027893 0.167000
v 0.002963 0.033871 0.185000
v 0.003094 0.035365 0.200000
v 0.000000 0.037500 0.200000
v 0.000000 0.036000 0.185000
v 0.000000 0.030000 0.165000
v 0.000000 0.019000 0.146000
v 0.000000 0.006000 0.132000
v 0.000000 0.000000 0.130000
v 0.000000 0.000000 0.132500
v 0.000000 0.004500 0.134000
v 0.000000 0.017000 0.148000
v 0.000000 0.028000 0.167000
v 0.000000 0.034000 0.185000
v 0.000000 0.035500 0.200000
v -0.003268 0.037357 0.200000
v -0.003138 0.035863 0.185000
v -0.002615 0.029886 0.165000
v -0.001656 0.018928 0.146000
v -0.000523 0.005977 0.132000
v -0.000000 0.000000 0.130000
v -0.000000 0.000000 0.132500
v -0.000392 0.004483 0.134000
v -0.001482 0.016935 0.148000
v -0.002440 0.027893 0.167000
v -0.002963 0.033871 0.185000
v -0.003094 0.035365 0.200000
v -0.006512 0.036930 0.200000
v -0.006251 0.035453 0.185000
v -0.005209 0.029544 0.165000
v -0.003299 0.018711 0.146000
v -0.001042 0.005909 0.132000
v -0.000000 0.000000 0.130000
v -0.000000 0.000000 0.132500
v -0.000781 0.004432 0.134000
v -0.002952 0.016742 0.148000
v -0.004862 0.027575 0.167000
v -0.005904 0.033483 0.185000
v -0.006165 0.034961 0.200000
v -0.009706 0.036222 0.200000
v -0.009317 0.034773 0.185000
v -0.007765 0.028978 0.165000
v -0.004918 0.018353 0.146000
v -0.001553 0.005796 0.132000
v -0.000000 0.000000 0.130000
v -0.000000 0.000000 0.132500
v -0.001165 0.004347 0.134000
v -0.004400 0.016421 0.148000
v -0.007247 0.027046 0.167000
v -0.008800 0.032841 0.185000
v -0.009188 0.034290 0.200000
v -0.012826 0.035238 0.200000
v -0.012313 0.033829 0.185000
v -0.010261 0.028191 0.165000
v -0.006498 0.017854 0.146000
v -0.002052 0.005638 0.132000
v -0.000000 0.000000 0.130000
v -0.000000 0.000000 0.132500
v -0.001539 0.004229 0.134000
v -0.005814 0.015975 0.148000
v -0.009577 0.026311 0.167000
v -0.011629 0.031950 0.185000
v -0.012142 0.033359 0.200000
v -0.015848 0.033987 0.200000
v -0.015214 0.032627 0.185000
v -0.012679 0.027189 0.165000
v -0.008030 0.017220 0.146000
v -0.002536 0.005438 0.132000
v -0.000000 0.000000 0.130000
v -0.000000 0.000000 0.132500
v -0.001902 0.004078 0.134000
v -0.007185 0.015407 0.148000
v -0.011833 0.025377 0.167000
v -0.014369 0.030814 0.185000
v -0.015003 0.032174 0.200000
v -0.018750 0.032476 0.200000
v -0.018000 0.031177 0.185000
v -0.015000 0.025981 0.165000
v -0.009500 0.016454 0.146000
v -0.003000 0.005196 0.132000
v -0.000000 0.000000 0.130000
v -0.000000 0.000000 0.132500
v -0.002250 0.003897 0.134000
v -0.008500 0.014722 0.148000
v -0.014000 0.024249 0.167000
v -0.017000 0.029445 0.185000
v -0.017750 0.030744 0.200000
v -0.021509 0.030718 0.200000
v -0.020649 0.029489 0.185000
v -0.017207 0.024575 0.165000
v -0.010898 0.015564 0.146000
v -0.003441 0.004915 0.132000
v -0.000000 0.000000 0.130000
v -0.000000 0.000000 0.132500
v -0.002581 0.003686 0.134000
v -0.009751 0.013926 0.148000
v -0.016060 0.022936 0.167000
v -0.019502 0.027851 0.185000
v -0.020362 0.029080 0.200000
v -0.024105 0.028727 0.200000
v -0.023140 0.027578 0.185000
v -0.019284 0.022981 0.165000
v -0.012213 0.014555 0.146000
v -0.003857 0.004596 0.132000
v -0.000000 0.000000 0.130000
v -0.000000 0.000000 0.132500
v -0.002893 0.003447 0.134000
v -0.010927 0.013023 0.148000
v -0.017998 0.021449 0.167000
v -0.021855 0.026046 0.185000
v -0.022819 0.027195 0.200000
v -0.026517 0.026517 0.200000
v -0.025456 0.025456 0.185000
v -0.021213 0.021213 0.165000
v -0.013435 0.013435 0.146000
v -0.004243 0.004243 0.132000
v -0.000000 0.000000 0.130000
v -0.000000 0.000000 0.132500
v -0.003182 0.003182 0.134000
v -0.012021 0.012021 0.148000
v -0.019799 0.019799 0.167000
v -0.024042 0.024042 0.185000
v -0.025102 0.025102 0.200000
v -0.028727 0.024105 0.200000
v -0.027578 0.023140 0.185000
v -0.022981 0.019284 0.165000
v -0.014555 0.012213 0.146000
v -0.004596 0.003857 0.132000
v -0.000000 0.000000 0.130000
v -0.000000 0.000000 0.132500
v -0.003447 0.002893 0.134000
v -0.013023 0.010927 0.148000
v -0.021449 0.017998 0.167000
v -0.026046 0.021855 0.185000
v -0.027195 0.022819 0.200000
v -0.030718 0.021509 0.200000
v -0.029489 0.020649 0.185000
v -0.024575 0.017207 0.165000
v -0.015564 0.010898 0.146000
v -0.004915 0.003441 0.132000
v -0.000000 0.000000 0.130000
v -0.000000 0.000000 0.132500
v -0.003686 0.002581 0.134000
v -0.013926 0.009751 0.148000
v -0.022936 0.016060 0.167000
v -0.027851 0.019502 0.185000
v -0.029080 0.020362 0.200000
v -0.032476 0.018750 0.200000
v -0.031177 0.018000 0.185000
v -0.025981 0.015000 0.165000
v -0.016454 0.009500 0.146000
v -0.005196 0.003000 0.132000
v -0.000000 0.000000 0.130000
v -0.000000 0.000000 0.132500
v -0.003897 0.002250 0.134000
v -0.014722 0.008500 0.148000
v -0.024249 0.014000 0.167000
v -0.029445 0.017000 0.185000
v -0.030744 0.017750 0.200000
v -0.033987 0.015848 0.200000
v -0.032627 0.015214 0.185000
v -0.027189 0.012679 0.165000
v -0.017220 0.008030 0.146000
v -0.005438 0.002536 0.132000
v -0.000000 0.000000 0.130000
v -0.000000 0.000000 0.132500
v -0.004078 0.001902 0.134000
v -0.015407 0.007185 0.148000
v -0.025377 0.011833 0.167000
v -0.030814 0.014369 0.185000
v -0.032174 0.015003 0.200000
v -0.035238 0.012826 0.200000
v -0.033829 0.012313 0.185000
v -0.028191 0.010261 0.165000
v -0.017854 0.006498 0.146000
v -0.005638 0.002052 0.132000
v -0.000000 0.000000 0.130000
v -0.000000 0.000000 0.132500
v -0.004229 0.001539 0.134000
v -0.015975 0.005814 0.148000
v -0.026311 0.009577 0.167000
v -0.031950 0.011629 0.185000
v -0.033359 0.012142 0.200000
v -0.036222 0.009706 0.200000
v -0.034773 0.009317 0.185000
v -0.028978 0.007765 0.165000
v -0.018353 0.004918 0.146000
v -0.005796 0.001553 0.132000
v -0.000000 0.000000 0.130000
v -0.000000 0.000000 0.132500
v -0.004347 0.001165 0.134000
v -0.016421 0.004400 0.148000
v -0.027046 0.007247 0.167000
v -0.032841 0.008800 0.185000
v -0.034290 0.009188 0.200000
v -0.036930 0.006512 0.200000
v -0.035453 0.006251 0.185000
v -0.029544 0.005209 0.165000
v -0.018711 0.003299 0.146000
v -0.005909 0.001042 0.132000
v -0.000000 0.000000 0.130000
v -0.000000 0.000000 0.132500
v -0.004432 0.000781 0.134000
v -0.016742 0.002952 0.148000
v -0.027575 0.004862 0.167000
v -0.033483 0.005904 0.185000
v -0.034961 0.006165 0.200000
v -0.037357 0.003268 0.200000
v -0.035863 0.003138 0.185000
v -0.029886 0.002615 0.165000
v -0.018928 0.001656 0.146000
v -0.005977 0.000523 0.132000
v -0.000000 0.000000 0.130000
v -0.000000 0.000000 0.132500
v -0.004483 0.000392 0.134000
v -0.016935 0.001482 0.148000
v -0.027893 0.002440 0.167000
v -0.033871 0.002963 0.185000
v -0.035365 0.003094 0.200000
v -0.037500 0.000000 0.200000
v -0.036000 0.000000 0.185000
v -0.030000 0.000000 0.165000
v -0.019000 0.000000 0.146000
v -0.006000 0.000000 0.132000
v -0.000000 0.000000 0.130000
v -0.000000 0.000000 0.132500
v -0.004500 0.000000 0.134000
v -0.017000 0.000000 0.148000
v -0.028000 0.000000 0.167000
v -0.034000 0.000000 0.185000
v -0.035500 0.000000 0.200000
v -0.037357 -0.003268 0.200000
v -0.035863 -0.003138 0.185000
v -0.029886 -0.002615 0.165000
v -0.018928 -0.001656 0.146000
v -0.005977 -0.000523 0.132000
v -0.000000 -0.000000 0.130000
v -0.000000 -0.000000 0.132500
v -0.004483 -0.000392 0.134000
v -0.016935 -0.001482 0.148000
v -0.027893 -0.002440 0.167000
v -0.033871 -0.002963 0.185000
v -0.035365 -0.003094 0.200000
v -0.036930 -0.006512 0.200000
v -0.035453 -0.006251 0.185000
v -0.029544 -0.005209 0.165000
v -0.018711 -0.003299 0.146000
v -0.005909 -0.001042 0.132000
v -0.000000 -0.000000 0.130000
v -0.000000 -0.000000 0.132500
v -0.004432 -0.000781 0.134000
v -0.016742 -0.002952 0.148000
v -0.027575 -0.004862 0.167000
v -0.033483 -0.005904 0.185000
v -0.034961 -0.006165 0.200000
v -0.036222 -0.009706 0.200000
v -0.034773 -0.009317 0.185000
v -0.028978 -0.007765 0.165000
v -0.018353 -0.004918 0.146000
v -0.005796 -0.001553 0.132000
v -0.000000 -0.000000 0.130000
v -0.000000 -0.000000 0.132500
v -0.004347 -0.001165 0.134000
v -0.016421 -0.004400 0.148000
v -0.027046 -0.007247 0.167000
v -0.032841 -0.008800 0.185000
v -0.034290 -0.009188 0.200000
v -0.035238 -0.012826 0.200000
v -0.033829 -0.012313 0.185000
v -0.028191 -0.010261 0.165000
v -0.017854 -0.006498 0.146000
v -0.005638 -0.002052 0.132000
v -0.000000 -0.000000 0.130000
v -0.000000 -0.000000 0.132500
v -0.004229 -0.001539 0.134000
v -0.015975 -0.005814 0.148000
v -0.026311 -0.009577 0.167000
v -0.031950 -0.011629 0.185000
v -0.033359 -0.012142 0.200000
v -0.033987 -0.015848 0.200000
v -0.032627 -0.015214 0.185000
v -0.027189 -0.012679 0.165000
v -0.017220 -0.008030 0.146000
v -0.005438 -0.002536 0.132000
v -0.000000 -0.000000 0.130000
v -0.000000 -0.000000 0.132500
v -0.004078 -0.001902 0.134000
v -0.015407 -0.007185 0.148000
v -0.025377 -0.011833 0.167000
v -0.030814 -0.014369 0.185000
v -0.032174 -0.015003 0.200000
v -0.032476 -0.018750 0.200000
v -0.031177 -0.018000 0.185000
v -0.025981 -0.015000 0.165000
v -0.016454 -0.009500 0.146000
v -0.005196 -0.003000 0.132000
v -0.000000 -0.000000 0.130000
v -0.000000 -0.000000 0.132500
v -0.003897 -0.002250 0.134000
v -0.014722 -0.008500 0.148000
v -0.024249 -0.014000 0.167000
v -0.029445 -0.017000 0.185000
v -0.030744 -0.017750 0.200000
v -0.030718 -0.021509 0.200000
v -0.029489 -0.020649 0.185000
v -0.024575 -0.017207 0.165000
v -0.015564 -0.010898 0.146000
v -0.004915 -0.003441 0.132000
v -0.000000 -0.000000 0.130000
v -0.000000 -0.000000 0.132500
v -0.003686 -0.002581 0.134000
v -0.013926 -0.009751 0.148000
v -0.022936 -0.016060 0.167000
v -0.027851 -0.019502 0.185000
v -0.029080 -0.020362 0.200000
v -0.028727 -0.024105 0.200000
v -0.027578 -0.023140 0.185000
v -0.022981 -0.019284 0.165000
v -0.014555 -0.012213 0.146000
v -0.004596 -0.003857 0.132000
v -0.000000 -0.000000 0.130000
v -0.000000 -0.000000 0.132500
v -0.003447 -0.002893 0.134000
v -0.013023 -0.010927 0.148000
v -0.021449 -0.017998 0.167000
v -0.026046 -0.021855 0.185000
v -0.027195 -0.022819 0.200000
v -0.026517 -0.026517 0.200000
v -0.025456 -0.025456 0.185000
v -0.021213 -0.021213 0.165000
v -0.013435 -0.013435 0.146000
v -0.004243 -0.004243 0.132000
v -0.000000 -0.000000 0.130000
v -0.000000 -0.000000 0.132500
v -0.003182 -0.003182 0.134000
v -0.012021 -0.012021 0.148000
v -0.019799 -0.019799 0.167000
v -0.024042 -0.024042 0.185000
v -0.025102 -0.025102 0.200000
v -0.024105 -0.028727 0.200000
v -0.023140 -0.027578 0.185000
v -0.019284 -0.022981 0.165000
v -0.012213 -0.014555 0.146000
v -0.003857 -0.004596 0.132000
v -0.000000 -0.000000 0.130000
v -0.000000 -0.000000 0.132500
v -0.002893 -0.003447 0.134000
v -0.010927 -0.013023 0.148000
v -0.017998 -0.021449 0.167000
v -0.021855 -0.026046 0.185000
v -0.022819 -0.027195 0.200000
v -0.021509 -0.030718 0.200000
v -0.020649 -0.029489 0.185000
v -0.017207 -0.024575 0.165000
v -0.010898 -0.015564 0.146000
v -0.003441 -0.004915 0.132000
v -0.000000 -0.000000 0.130000
v -0.000000 -0.000000 0.132500
v -0.002581 -0.003686 0.134000
v -0.009751 -0.013926 0.148000
v -0.016060 -0.022936 0.167000
v -0.019502 -0.027851 0.185000
v -0.020362 -0.029080 0.200000
v -0.018750 -0.032476 0.200000
v -0.018000 -0.031177 0.185000
v -0.015000 -0.025981 0.165000
v -0.009500 -0.016454 0.146000
v -0.003000 -0.005196 0.132000
v -0.000000 -0.000000 0.130000
v -0.000000 -0.000000 0.132500
v -0.002250 -0.003897 0.134000
v -0.008500 -0.014722 0.148000
v -0.014000 -0.024249 0.167000
v -0.017000 -0.029445 0.185000
v -0.017750 -0.030744 0.200000
v -0.015848 -0.033987 0.200000
v -0.015214 -0.032627 0.185000
v -0.012679 -0.027189 0.165000
v -0.008030 -0.017220 0.146000
v -0.002536 -0.005438 0.132000
v -0.000000 -0.000000 0.130000
v -0.000000 -0.000000 0.132500
v -0.001902 -0.004078 0.134000
v -0.007185 -0.015407 0.148000
v -0.011833 -0.025377 0.167000
v -0.014369 -0.030814 0.185000
v -0.015003 -0.032174 0.200000
v -0.012826 -0.035238 0.200000
v -0.012313 -0.033829 0.185000
v -0.010261 -0.028191 0.165000
v -0.006498 -0.017854 0.146000
v -0.002052 -0.005638 0.132000
v -0.000000 -0.000000 0.130000
v -0.000000 -0.000000 0.132500
v -0.001539 -0.004229 0.134000
v -0.005814 -0.015975 0.148000
v -0.009577 -0.026311 0.167000
v -0.011629 -0.031950 0.185000
v -0.012142 -0.033359 0.200000
v -0.009706 -0.036222 0.200000
v -0.009317 -0.034773 0.185000
v -0.007765 -0.028978 0.165000
v -0.004918 -0.018353 0.146000
v -0.001553 -0.005796 0.132000
v -0.000000 -0.000000 0.130000
v -0.000000 -0.000000 0.132500
v -0.001165 -0.004347 0.134000
v -0.004400 -0.016421 0.148000
v -0.007247 -0.027046 0.167000
v -0.008800 -0.032841 0.185000
v -0.009188 -0.034290 0.200000
v -0.006512 -0.036930 0.200000
v -0.006251 -0.035453 0.185000
v -0.005209 -0.029544 0.165000
v -0.003299 -0.018711 0.146000
v -0.001042 -0.005909 0.132000
v -0.000000 -0.000000 0.130000
v -0.000000 -0.000000 0.132500
v -0.000781 -0.004432 0.134000
v -0.002952 -0.016742 0.148000
v -0.004862 -0.027575 0.167000
v -0.005904 -0.033483 0.185000
v -0.006165 -0.034961 0.200000
v -0.003268 -0.037357 0.200000
v -0.003138 -0.035863 0.185000
v -0.002615 -0.029886 0.165000
v -0.001656 -0.018928 0.146000
v -0.000523 -0.005977 0.132000
v -0.000000 -0.000000 0.130000
v -0.000000 -0.000000 0.132500
v -0.000392 -0.004483 0.134000
v -0.001482 -0.016935 0.148000
v -0.002440 -0.027893 0.167000
v -0.002963 -0.033871 0.185000
v -0.003094 -0.035365 0.200000
v -0.000000 -0.037500 0.200000
v -0.000000 -0.036000 0.185000
v -0.000000 -0.030000 0.165000
v -0.000000 -0.019000 0.146000
v -0.000000 -0.006000 0.132000
v -0.000000 -0.000000 0.130000
v -0.000000 -0.000000 0.132500
v -0.000000 -0.004500 0.134000
v -0.000000 -0.017000 0.148000
v -0.000000 -0.028000 0.167000
v -0.000000 -0.034000 0.185000
v -0.000000 -0.035500 0.200000
v 0.003268 -0.037357 0.200000
v 0.003138 -0.035863 0.185000
v 0.002615 -0.029886 0.165000
v 0.001656 -0.018928 0.146000
v 0.000523 -0.005977 0.132000
v 0.000000 -0.000000 0.130000
v 0.000000 -0.000000 0.132500
v 0.000392 -0.004483 0.134000
v 0.001482 -0.016935 0.148000
v 0.002440 -0.027893 0.167000
v 0.002963 -0.033871 0.185000
v 0.003094 -0.035365 0.200000
v 0.006512 -0.036930 0.200000
v 0.006251 -0.035453 0.185000
v 0.005209 -0.029544 0.165000
v 0.003299 -0.018711 0.146000
v 0.001042 -0.005909 0.132000
v 0.000000 -0.000000 0.130000
v 0.000000 -0.000000 0.132500
v 0.000781 -0.004432 0.134000
v 0.002952 -0.016742 0.148000
v 0.004862 -0.027575 0.167000
v 0.005904 -0.033483 0.185000
v 0.006165 -0.034961 0.200000
v 0.009706 -0.036222 0.200000
v 0.009317 -0.034773 0.185000
v 0.007765 -0.028978 0.165000
v 0.004918 -0.018353 0.146000
v 0.001553 -0.005796 0.132000
v 0.000000 -0.000000 0.130000
v 0.000000 -0.000000 0.132500
v 0.001165 -0.004347 0.134000
v 0.004400 -0.016421 0.148000
v 0.007247 -0.027046 0.167000
v 0.008800 -0.032841 0.185000
v 0.009188 -0.034290 0.200000
v 0.012826 -0.035238 0.200000
v 0.012313 -0.033829 0.185000
v 0.010261 -0.028191 0.165000
v 0.006498 -0.017854 0.146000
v 0.002052 -0.005638 0.132000
v 0.000000 -0.000000 0.130000
v 0.000000 -0.000000 0.132500
v 0.001539 -0.004229 0.134000
v 0.005814 -0.015975 0.148000
v 0.009577 -0.026311 0.167000
v 0.011629 -0.031950 0.185000
v 0.012142 -0.033359 0.200000
v 0.015848 -0.033987 0.200000
v 0.015214 -0.032627 0.185000
v 0.012679 -0.027189 0.165000
v 0.008030 -0.017220 0.146000
v 0.002536 -0.005438 0.132000
v 0.000000 -0.000000 0.130000
v 0.000000 -0.000000 0.132500
v 0.001902 -0.004078 0.134000
v 0.007185 -0.015407 0.148000
v 0.011833 -0.025377 0.167000
v 0.014369 -0.030814 0.185000
v 0.015003 -0.032174 0.200000
v 0.018750 -0.032476 0.200000
v 0.018000 -0.031177 0.185000
v 0.015000 -0.025981 0.165000
v 0.009500 -0.016454 0.146000
v 0.003000 -0.005196 0.132000
v 0.000000 -0.000000 0.130000
v 0.000000 -0.000000 0.132500
v 0.002250 -0.003897 0.134000
v 0.008500 -0.014722 0.148000
v 0.014000 -0.024249 0.167000
v 0.017000 -0.029445 0.185000
v 0.017750 -0.030744 0.200000
v 0.021509 -0.030718 0.200000
v 0.020649 -0.029489 0.185000
v 0.017207 -0.024575 0.165000
v 0.010898 -0.015564 0.146000
v 0.003441 -0.004915 0.132000
v 0.000000 -0.000000 0.130000
v 0.000000 -0.000000 0.132500
v 0.002581 -0.003686 0.134000
v 0.009751 -0.013926 0.148000
v 0.016060 -0.022936 0.167000
v 0.019502 -0.027851 0.185000
v 0.020362 -0.029080 0.200000
v 0.024105 -0.028727 0.200000
v 0.023140 -0.027578 0.185000
v 0.019284 -0.022981 0.165000
v 0.012213 -0.014555 0.146000
v 0.003857 -0.004596 0.132000
v 0.000000 -0.000000 0.130000
v 0.000000 -0.000000 0.132500
v 0.002893 -0.003447 0.134000
v 0.010927 -0.013023 0.148000
v 0.017998 -0.021449 0.167000
v 0.021855 -0.026046 0.185000
v 0.022819 -0.027195 0.200000
v 0.026517 -0.026517 0.200000
v 0.025456 -0.025456 0.185000
v 0.021213 -0.021213 0.165000
v 0.013435 -0.013435 0.146000
v 0.004243 -0.004243 0.132000
v 0.000000 -0.000000 0.130000
v 0.000000 -0.000000 0.132500
v 0.003182 -0.003182 0.134000
v 0.012021 -0.012021 0.148000
v 0.019799 -0.019799 0.167000
v 0.024042 -0.024042 0.185000
v 0.025102 -0.025102 0.200000
v 0.028727 -0.024105 0.200000
v 0.027578 -0.023140 0.185000
v 0.022981 -0.019284 0.165000
v 0.014555 -0.012213 0.146000
v 0.004596 -0.003857 0.132000
v 0.000000 -0.000000 0.130000
v 0.000000 -0.000000 0.132500
v 0.003447 -0.002893 0.134000
v 0.013023 -0.010927 0.148000
v 0.021449 -0.017998 0.167000
v 0.026046 -0.021855 0.185000
v 0.027195 -0.022819 0.200000
v 0.030718 -0.021509 0.200000
v 0.029489 -0.020649 0.185000
v 0.024575 -0.017207 0.165000
v 0.015564 -0.010898 0.146000
v 0.004915 -0.003441 0.132000
v 0.000000 -0.000000 0.130000
v 0.000000 -0.000000 0.132500
v 0.003686 -0.002581 0.134000
v 0.013926 -0.009751 0.148000
v 0.022936 -0.016060 0.167000
v 0.027851 -0.019502 0.185000
v 0.029080 -0.020362 0.200000
v 0.032476 -0.018750 0.200000
v 0.031177 -0.018000 0.185000
v 0.025981 -0.015000 0.165000
v 0.016454 -0.009500 0.146000
v 0.005196 -0.003000 0.132000
v 0.000000 -0.000000 0.130000
v 0.000000 -0.000000 0.132500
v 0.003897 -0.002250 0.134000
v 0.014722 -0.008500 0.148000
v 0.024249 -0.014000 0.167000
v 0.029445 -0.017000 0.185000
v 0.030744 -0.017750 0.200000
v 0.033987 -0.015848 0.200000
v 0.032627 -0.015214 0.185000
v 0.027189 -0.012679 0.165000
v 0.017220 -0.008030 0.146000
v 0.005438 -0.002536 0.132000
v 0.000000 -0.000000 0.130000
v 0.000000 -0.000000 0.132500
v 0.004078 -0.001902 0.134000
v 0.015407 -0.007185 0.148000
v 0.025377 -0.011833 0.167000
v 0.030814 -0.014369 0.185000
v 0.032174 -0.015003 0.200000
v 0.035238 -0.012826 0.200000
v 0.033829 -0.012313 0.185000
v 0.028191 -0.010261 0.165000
v 0.017854 -0.006498 0.146000
v 0.005638 -0.002052 0.132000
v 0.000000 -0.000000 0.130000
v 0.000000 -0.000000 0.132500
v 0.004229 -0.001539 0.134000
v 0.015975 -0.005814 0.148000
v 0.026311 -0.009577 0.167000
v 0.031950 -0.011629 0.185000
v 0.033359 -0.012142 0.200000
v 0.036222 -0.009706 0.200000
v 0.034773 -0.009317 0.185000
v 0.028978 -0.007765 0.165000
v 0.018353 -0.004918 0.146000
v 0.005796 -0.001553 0.132000
v 0.000000 -0.000000 0.130000
v 0.000000 -0.000000 0.132500
v 0.004347 -0.001165 0.134000
v 0.016421 -0.004400 0.148000
v 0.027046 -0.007247 0.167000
v 0.032841 -0.008800 0.185000
v 0.034290 -0.009188 0.200000
v 0.036930 -0.006512 0.200000
v 0.035453 -0.006251 0.185000
v 0.029544 -0.005209 0.165000
v 0.018711 -0.003299 0.146000
v 0.005909 -0.001042 0.132000
v 0.000000 -0.000000 0.130000
v 0.000000 -0.000000 0.132500
v 0.004432 -0.000781 0.134000
v 0.016742 -0.002952 0.148000
v 0.027575 -0.004862 0.167000
v 0.033483 -0.005904 0.185000
v 0.034961 -0.006165 0.200000
v 0.037357 -0.003268 0.200000
v 0.035863 -0.003138 0.185000
v 0.029886 -0.002615 0.165000
v 0.018928 -0.001656 0.146000
v 0.005977 -0.000523 0.132000
v 0.000000 -0.000000 0.130000
v 0.000000 -0.000000 0.132500
v 0.004483 -0.000392 0.134000
v 0.016935 -0.001482 0.148000
v 0.027893 -0.002440 0.167000
v 0.033871 -0.002963 0.185000
v 0.035365 -0.003094 0.200000
f 1 14 2
f 1 13 14
f 2 15 3
f 2 14 15
f 3 16 4
f 3 15 16
f 4 17 5
f 4 16 17
f 5 18 6
f 5 17 18
f 6 19 7
f 6 18 19
f 7 20 8
f 7 19 20
f 8 21 9
f 8 20 21
f 9 22 10
f 9 21 22
f 10 23 11
f 10 22 23
f 11 24 12
f 11 23 24
f 13 26 14
f 13 25 26
f 14 27 15
f 14 26 27
f 15 28 16
f 15 27 28
f 16 29 17
f 16 28 29
f 17 30 18
f 17 29 30
f 18 31 19
f 18 30 31
f 19 32 20
f 19 31 32
f 20 33 21
f 20 32 33
f 21 34 22
f 21 33 34
f 22 35 23
f 22 34 35
f 23 36 24
f 23 35 36
f 25 38 26
f 25 37 38
f 26 39 27
f 26 38 39
f 27 40 28
f 27 39 40
f 28 41 29
f 28 40 41
f 29 42 30
f 29 41 42
f 30 43 31
f 30 42 43
f 31 44 32
f 31 43 44
f 32 45 33
f 32 44 45
f 33 46 34
f 33 45 46
f 34 47 35
f 34 46 47
f 35 48 36
f 35 47 48
f 37 50 38
f 37 49 50
f 38 51 39
f 38 50 51
f 39 52 40
f 39 51 52
f 40 53 41
f 40 52 53
f 41 54 42
f 41 53 54
f 42 55 43
f 42 54 55
f 43 56 44
f 43 55 56
f 44 57 45
f 44 56 57
f 45 58 46
f 45 57 58
f 46 59 47
f 46 58 59
f 47 60 48
f 47 59 60
f 49 62 50
f 49 61 62
f 50 63 51
f 50 62 63
f 51 64 52
f 51 63 64
f 52 65 53
f 52 64 65
f 53 66 54
f 53 65 66
f 54 67 55
f 54 66 67
f 55 68 56
f 55 67 68
f 56 69 57
f 56 68 69
f 57 70 58
f 57 69 70
f 58 71 59
f 58 70 71
f 59 72 60
f 59 71 72
f 61 74 62
f 61 73 74
f 62 75 63
f 62 74 75
f 63 76 64
f 63 75 76
f 64 77 65
f 64 76 77
f 65 78 66
f 65 77 78
f 66 79 67
f 66 78 79
f 67 80 68
f 67 79 80
f 68 81 69
f 68 80 81
f 69 82 70
f 69 81 82
f 70 83 71
f 70 82 83
f 71 84 72
f 71 83 84
f 73 86 74
f 73 85 86
f 74 87 75
f 74 86 87
f 75 88 76
f 75 87 88
f 76 89 77
f 76 88 89
f 77 90 78
f 77 89 90
f 78 91 79
f 78 90 91
f 79 92 80
f 79 91 92
f 80 93 81
f 80 92 93
f 81 94 82
f 81 93 94
f 82 95 83
f 82 94 95
f 83 96 84
f 83 95 96
f 85 98 86
f 85 97 98
f 86 99 87
f 86 98 99
f 87 100 88
f 87 99 100
f 88 101 89
f 88 100 101
f 89 102 90
f 89 101 102
f 90 103 91
f 90 102 103
f 91 104 92
f 91 103 104
f 92 105 93
f 92 104 105
f 93 106 94
f 93 105 106
f 94 107 95
f 94 106 107
f 95 108 96
f 95 107 108
f 97 110 98
f 97 109 110
f 98 111 99
f 98 110 111
f 99 112 100
f 99 111 112
f 100 113 101
f 100 112 113
f 101 114 102
f 101 113 114
f 102 115 103
f 102 114 115
f 103 116 104
f 103 115 116
f 104 117 105
f 104 116 117
f 105 118 106
f 105 117 118
f 106 119 107
f 106 118 119
f 107 120 108
f 107 119 120
f 109 122 110
f 109 121 122
f 110 123 111
f 110 122 123
f 111 124 112
f 111 123 124
f 112 125 113
f 112 124 125
f 113 126 114
f 113 125 126
f 114 127 115
f 114 126 127
f 115 128 116
f 115 127 128
f 116 129 117
f 116 128 129
f 117 130 118
f 117 129 130
f 118 131 119
f 118 130 131
f 119 132 120
f 119 131 132
f 121 134 122
f 121 133 134
f 122 135 123
f 122 134 135
f 123 136 124
f 123 135 136
f 124 137 125
f 124 136 137
f 125 138 126
f 125 137 138
f 126 139 127
f 126 138 139
f 127 140 128
f 127 139 140
f 128 141 129
f 128 140 141
f 129 142 130
f 129 141 142
f 130 143 131
f 130 142 143
f 131 144 132
f 131 143 144
f 133 146 134
f 133 145 146
f 134 147 135
f 134 146 147
f 135 148 136
f 135 147 148
f 136 149 137
f 136 148 149
f 137 150 138
f 137 149 150
f 138 151 139
f 138 150 151
f 139 152 140
f 139 151 152
f 140 153 141
f 140 152 153
f 141 154 142
f 141 153 154
f 142 155 143
f 142 154 155
f 143 156 144
f 143 155 156
f 145 158 146
f 145 157 158
f 146 159 147
f 146 158 159
f 147 160 148
f 147 159 160
f 148 161 149
f 148 160 161
f 149 162 150
f 149 161 162
f 150 163 151
f 150 162 163
f 151 164 152
f 151 163 164
f 152 165 153
f 152 164 165
f 153 166 154
f 153 165 166
f 154 167 155
f 154 166 167
f 155 168 156
f 155 167 168
f 157 170 158
f 157 169 170
f 158 171 159
f 158 170 171
f 159 172 160
f 159 171 172
f 160 173 161
f 160 172 173
f 161 174 162
f 161 173 174
f 162 175 163
f 162 174 175
f 163 176 164
f 163 175 176
f 164 177 165
f 164 176 177
f 165 178 166
f 165 177 178
f 166 179 167
f 166 178 179
f 167 180 168
f 167 179 180
f 169 182 170
f 169 181 182
f 170 183 171
f 170 182 183
f 171 184 172
f 171 183 184
f 172 185 173
f 172 184 185
f 173 186 174
f 173 185 186
f 174 187 175
f 174 186 187
f 175 188 176
f 175 187 188
f 176 189 177
f 176 188 189
f 177 190 178
f 177 189 190
f 178 191 179
f 178 190 191
f 179 192 180
f 179 191 192
f 181 194 182
f 181 193 194
f 182 195 183
f 182 194 195
f 183 196 184
f 183 195 196
f 184 197 185
f 184 196 197
f 185 198 186
f 185 197 198
f 186 199 187
f 186 198 199
f 187 200 188
f 187 199 200
f 188 201 189
f 188 200 201
f 189 202 190
f 189 201 202
f 190 203 191
f 190 202 203
f 191 204 192
f 191 203 204
f 193 206 194
f 193 205 206
f 194 207 195
f 194 206 207
f 195 208 196
f 195 207 208
f 196 209 197
f 196 208 209
f 197 210 198
f 197 209 210
f 198 211 199
f 198 210 211
f 199 212 200
f 199 211 212
f 200 213 201
f 200 212 213
f 201 214 202
f 201 213 214
f 202 215 203
f 202 214 215
f 203 216 204
f 203 215 216
f 205 218 206
f 205 217 218
f 206 219 207
f 206 218 219
f 207 220 208
f 207 219 220
f 208 221 209
f 208 220 221
f 209 222 210
f 209 221 222
f 210 223 211
f 210 222 223
f 211 224 212
f 211 223 224
f 212 225 213
f 212 224 225
f 213 226 214
f 213 225 226
f 214 227 215
f 214 226 227
f 215 228 216
f 215 227 228
f 217 230 218
f 217 229 230
f 218 231 219
f 218 230 231
f 219 232 220
f 219 231 232
f 220 233 221
f 220 232 233
f 221 234 222
f 221 233 234
f 222 235 223
f 222 234 235
f 223 236 224
f 223 235 236
f 224 237 225
f 224 236 237
f 225 238 226
f 225 237 238
f 226 239 227
f 226 238 239
f 227 240 228
f 227 239 240
f 229 242 230
f 229 241 242
f 230 243 231
f 230 242 243
f 231 244 232
f 231 243 244
f 232 245 233
f 232 244 245
f 233 246 234
f 233 245 246
f 234 247 235
f 234 246 247
f 235 248 236
f 235 247 248
f 236 249 237
f 236 248 249
f 237 250 238
f 237 249 250
f 238 251 239
f 238 250 251
f 239 252 240
f 239 251 252
f 241 254 242
f 241 253 254
f 242 255 243
f 242 254 255
f 243 256 244
f 243 255 256
f 244 257 245
f 244 256 257
f 245 258 246
f 245 257 258
f 246 259 247
f 246 258 259
f 247 260 248
f 247 259 260
f 248 261 249
f 248 260 261
f 249 262 250
f 249 261 262
f 250 263 251
f 250 262 263
f 251 264 252
f 251 263 264
f 253 266 254
f 253 265 266
f 254 267 255
f 254 266 267
f 255 268 256
f 255 267 268
f 256 269 257
f 256 268 269
f 257 270 258
f 257 269 270
f 258 271 259
f 258 270 271
f 259 272 260
f 259 271 272
f 260 273 261
f 260 272 273
f 261 274 262
f 261 273 274
f 262 275 263
f 262 274 275
f 263 276 264
f 263 275 276
f 265 278 266
f 265 277 278
f 266 279 267
f 266 278 279
f 267 280 268
f 267 279 280
f 268 281 269
f 268 280 281
f 269 282 270
f 269 281 282
f 270 283 271
f 270 282 283
f 271 284 272
f 271 283 284
f 272 285 273
f 272 284 285
f 273 286 274
f 273 285 286
f 274 287 275
f 274 286 287
f 275 288 276
f 275 287 288
f 277 290 278
f 277 289 290
f 278 291 279
f 278 290 291
f 279 292 280
f 279 291 292
f 280 293 281
f 280 292 293
f 281 294 282
f 281 293 294
f 282 295 283
f 282 294 295
f 283 296 284
f 283 295 296
f 284 297 285
f 284 296 297
f 285 298 286
f 285 297 298
f 286 299 287
f 286 298 299
f 287 300 288
f 287 299 300
f 289 302 290
f 289 301 302
f 290 303 291
f 290 302 303
f 291 304 292
f 291 303 304
f 292 305 293
f 292 304 305
f 293 306 294
f 293 305 306
f 294 307 295
f 294 306 307
f 295 308 296
f 295 307 308
f 296 309 297
f 296 308 309
f 297 310 298
f 297 309 310
f 298 311 299
f 298 310 311
f 299 312 300
f 299 311 312
f 301 314 302
f 301 313 314
f 302 315 303
f 302 314 315
f 303 316 304
f 303 315 316
f 304 317 305
f 304 316 317
f 305 318 306
f 305 317 318
f 306 319 307
f 306 318 319
f 307 320 308
f 307 319 320
f 308 321 309
f 308 320 321
f 309 322 310
f 309 321 322
f 310 323 311
f 310 322 323
f 311 324 312
f 311 323 324
f 313 326 314
f 313 325 326
f 314 327 315
f 314 326 327
f 315 328 316
f 315 327 328
f 316 329 317
f 316 328 329
f 317 330 318
f 317 329 330
f 318 331 319
f 318 330 331
f 319 332 320
f 319 331 332
f 320 333 321
f 320 332 333
f 321 334 322
f 321 333 334
f 322 335 323
f 322 334 335
f 323 336 324
f 323 335 336
f 325 338 326
f 325 337 338
f 326 339 327
f 326 338 339
f 327 340 328
f 327 339 340
f 328 341 329
f 328 340 341
f 329 342 330
f 329 341 342
f 330 343 331
f 330 342 343
f 331 344 332
f 331 343 344
f 332 345 333
f 332 344 345
f 333 346 334
f 333 345 346
f 334 347 335
f 334 346 347
f 335 348 336
f 335 347 348
f 337 350 338
f 337 349 350
f 338 351 339
f 338 350 351
f 339 352 340
f 339 351 352
f 340 353 341
f 340 352 353
f 341 354 342
f 341 353 354
f 342 355 343
f 342 354 355
f 343 356 344
f 343 355 356
f 344 357 345
f 344 356 357
f 345 358 346
f 345 357 358
f 346 359 347
f 346 358 359
f 347 360 348
f 347 359 360
f 349 362 350
f 349 361 362
f 350 363 351
f 350 362 363
f 351 364 352
f 351 363 364
f 352 365 353
f 352 364 365
f 353 366 354
f 353 365 366
f 354 367 355
f 354 366 367
f 355 368 356
f 355 367 368
f 356 369 357
f 356 368 369
f 357 370 358
f 357 369 370
f 358 371 359
f 358 370 371
f 359 372 360
f 359 371 372
f 361 374 362
f 361 373 374
f 362 375 363
f 362 374 375
f 363 376 364
f 363 375 376
f 364 377 365
f 364 376 377
f 365 378 366
f 365 377 378
f 366 379 367
f 366 378 379
f 367 380 368
f 367 379 380
f 368 381 369
f 368 380 381
f 369 382 370
f 369 381 382
f 370 383 371
f 370 382 383
f 371 384 372
f 371 383 384
f 373 386 374
f 373 385 386
f 374 387 375
f 374 386 387
f 375 388 376
f 375 387 388
f 376 389 377
f 376 388 389
f 377 390 378
f 377 389 390
f 378 391 379
f 378 390 391
f 379 392 380
f 379 391 392
f 380 393 381
f 380 392 393
f 381 394 382
f 381 393 394
f 382 395 383
f 382 394 395
f 383 396 384
f 383 395 396
f 385 398 386
f 385 397 398
f 386 399 387
f 386 398 399
f 387 400 388
f 387 399 400
f 388 401 389
f 388 400 401
f 389 402 390
f 389 401 402
f 390 403 391
f 390 402 403
f 391 404 392
f 391 403 404
f 392 405 393
f 392 404 405
f 393 406 394
f 393 405 406
f 394 407 395
f 394 406 407
f 395 408 396
f 395 407 408
f 397 410 398
f 397 409 410
f 398 411 399
f 398 410 411
f 399 412 400
f 399 411 412
f 400 413 401
f 400 412 413
f 401 414 402
f 401 413 414
f 402 415 403
f 402 414 415
f 403 416 404
f 403 415 416
f 404 417 405
f 404 416 417
f 405 418 406
f 405 417 418
f 406 419 407
f 406 418 419
f 407 420 408
f 407 419 420
f 409 422 410
f 409 421 422
f 410 423 411
f 410 422 423
f 411 424 412
f 411 423 424
f 412 425 413
f 412 424 425
f 413 426 414
f 413 425 426
f 414 427 415
f 414 426 427
f 415 428 416
f 415 427 428
f 416 429 417
f 416 428 429
f 417 430 418
f 417 429 430
f 418 431 419
f 418 430 431
f 419 432 420
f 419 431 432
f 421 434 422
f 421 433 434
f 422 435 423
f 422 434 435
f 423 436 424
f 423 435 436
f 424 437 425
f 424 436 437
f 425 438 426
f 425 437 438
f 426 439 427
f 426 438 439
f 427 440 428
f 427 439 440
f 428 441 429
f 428 440 441
f 429 442 430
f 429 441 442
f 430 443 431
f 430 442 443
f 431 444 432
f 431 443 444
f 433 446 434
f 433 445 446
f 434 447 435
f 434 446 447
f 435 448 436
f 435 447 448
f 436 449 437
f 436 448 449
f 437 450 438
f 437 449 450
f 438 451 439
f 438 450 451
f 439 452 440
f 439 451 452
f 440 453 441
f 440 452 453
f 441 454 442
f 441 453 454
f 442 455 443
f 442 454 455
f 443 456 444
f 443 455 456
f 445 458 446
f 445 457 458
f 446 459 447
f 446 458 459
f 447 460 448
f 447 459 460
f 448 461 449
f 448 460 461
f 449 462 450
f 449 461 462
f 450 463 451
f 450 462 463
f 451 464 452
f 451 463 464
f 452 465 453
f 452 464 465
f 453 466 454
f 453 465 466
f 454 467 455
f 454 466 467
f 455 468 456
f 455 467 468
f 457 470 458
f 457 469 470
f 458 471 459
f 458 470 471
f 459 472 460
f 459 471 472
f 460 473 461
f 460 472 473
f 461 474 462
f 461 473 474
f 462 475 463
f 462 474 475
f 463 476 464
f 463 475 476
f 464 477 465
f 464 476 477
f 465 478 466
f 465 477 478
f 466 479 467
f 466 478 479
f 467 480 468
f 467 479 480
f 469 482 470
f 469 481 482
f 470 483 471
f 470 482 483
f 471 484 472
f 471 483 484
f 472 485 473
f 472 484 485
f 473 486 474
f 473 485 486
f 474 487 475
f 474 486 487
f 475 488 476
f 475 487 488
f 476 489 477
f 476 488 489
f 477 490 478
f 477 489 490
f 478 491 479
f 478 490 491
f 479 492 480
f 479 491 492
f 481 494 482
f 481 493 494
f 482 495 483
f 482 494 495
f 483 496 484
f 483 495 496
f 484 497 485
f 484 496 497
f 485 498 486
f 485 497 498
f 486 499 487
f 486 498 499
f 487 500 488
f 487 499 500
f 488 501 489
f 488 500 501
f 489 502 490
f 489 501 502
f 490 503 491
f 490 502 503
f 491 504 492
f 491 503 504
f 493 506 494
f 493 505 506
f 494 507 495
f 494 506 507
f 495 508 496
f 495 507 508
f 496 509 497
f 496 508 509
f 497 510 498
f 497 509 510
f 498 511 499
f 498 510 511
f 499 512 500
f 499 511 512
f 500 513 501
f 500 512 513
f 501 514 502
f 501 513 514
f 502 515 503
f 502 514 515
f 503 516 504
f 503 515 516
f 505 518 506
f 505 517 518
f 506 519 507
f 506 518 519
f 507 520 508
f 507 519 520
f 508 521 509
f 508 520 521
f 509 522 510
f 509 521 522
f 510 523 511
f 510 522 523
f 511 524 512
f 511 523 524
f 512 525 513
f 512 524 525
f 513 526 514
f 513 525 526
f 514 527 515
f 514 526 527
f 515 528 516
f 515 527 528
f 517 530 518
f 517 529 530
f 518 531 519
f 518 530 531
f 519 532 520
f 519 531 532
f 520 533 521
f 520 532 533
f 521 534 522
f 521 533 534
f 522 535 523
f 522 534 535
f 523 536 524
f 523 535 536
f 524 537 525
f 524 536 537
f 525 538 526
f 525 537 538
f 526 539 527
f 526 538 539
f 527 540 528
f 527 539 540
f 529 542 530
f 529 541 542
f 530 543 531
f 530 542 543
f 531 544 532
f 531 543 544
f 532 545 533
f 532 544 545
f 533 546 534
f 533 545 546
f 534 547 535
f 534 546 547
f 535 548 536
f 535 547 548
f 536 549 537
f 536 548 549
f 537 550 538
f 537 549 550
f 538 551 539
f 538 550 551
f 539 552 540
f 539 551 552
f 541 554 542
f 541 553 554
f 542 555 543
f 542 554 555
f 543 556 544
f 543 555 556
f 544 557 545
f 544 556 557
f 545 558 546
f 545 557 558
f 546 559 547
f 546 558 559
f 547 560 548
f 547 559 560
f 548 561 549
f 548 560 561
f 549 562 550
f 549 561 562
f 550 563 551
f 550 562 563
f 551 564 552
f 551 563 564
f 553 566 554
f 553 565 566
f 554 567 555
f 554 566 567
f 555 568 556
f 555 567 568
f 556 569 557
f 556 568 569
f 557 570 558
f 557 569 570
f 558 571 559
f 558 570 571
f 559 572 560
f 559 571 572
f 560 573 561
f 560 572 573
f 561 574 562
f 561 573 574
f 562 575 563
f 562 574 575
f 563 576 564
f 563 575 576
f 565 578 566
f 565 577 578
f 566 579 567
f 566 578 579
f 567 580 568
f 567 579 580
f 568 581 569
f 568 580 581
f 569 582 570
f 569 581 582
f 570 583 571
f 570 582 583
f 571 584 572
f 571 583 584
f 572 585 573
f 572 584 585
f 573 586 574
f 573 585 586
f 574 587 575
f 574 586 587
f 575 588 576
f 575 587 588
f 577 590 578
f 577 589 590
f 578 591 579
f 578 590 591
f 579 592 580
f 579 591 592
f 580 593 581
f 580 592 593
f 581 594 582
f 581 593 594
f 582 595 583
f 582 594 595
f 583 596 584
f 583 595 596
f 584 597 585
f 584 596 597
f 585 598 586
f 585 597 598
f 586 599 587
f 586 598 599
f 587 600 588
f 587 599 600
f 589 602 590
f 589 601 602
f 590 603 591
f 590 602 603
f 591 604 592
f 591 603 604
f 592 605 593
f 592 604 605
f 593 606 594
f 593 605 606
f 594 607 595
f 594 606 607
f 595 608 596
f 595 607 608
f 596 609 597
f 596 608 609
f 597 610 598
f 597 609 610
f 598 611 599
f 598 610 611
f 599 612 600
f 599 611 612
f 601 614 602
f 601 613 614
f 602 615 603
f 602 614 615
f 603 616 604
f 603 615 616
f 604 617 605
f 604 616 617
f 605 618 606
f 605 617 618
f 606 619 607
f 606 618 619
f 607 620 608
f 607 619 620
f 608 621 609
f 608 620 621
f 609 622 610
f 609 621 622
f 610 623 611
f 610 622 623
f 611 624 612
f 611 623 624
f 613 626 614
f 613 625 626
f 614 627 615
f 614 626 627
f 615 628 616
f 615 627 628
f 616 629 617
f 616 628 629
f 617 630 618
f 617 629 630
f 618 631 619
f 618 630 631
f 619 632 620
f 619 631 632
f 620 633 621
f 620 632 633
f 621 634 622
f 621 633 634
f 622 635 623
f 622 634 635
f 623 636 624
f 623 635 636
f 625 638 626
f 625 637 638
f 626 639 627
f 626 638 639
f 627 640 628
f 627 639 640
f 628 641 629
f 628 640 641
f 629 642 630
f 629 641 642
f 630 643 631
f 630 642 643
f 631 644 632
f 631 643 644
f 632 645 633
f 632 644 645
f 633 646 634
f 633 645 646
f 634 647 635
f 634 646 647
f 635 648 636
f 635 647 648
f 637 650 638
f 637 649 650
f 638 651 639
f 638 650 651
f 639 652 640
f 639 651 652
f 640 653 641
f 640 652 653
f 641 654 642
f 641 653 654
f 642 655 643
f 642 654 655
f 643 656 644
f 643 655 656
f 644 657 645
f 644 656 657
f 645 658 646
f 645 657 658
f 646 659 647
f 646 658 659
f 647 660 648
f 647 659 660
f 649 662 650
f 649 661 662
f 650 663 651
f 650 662 663
f 651 664 652
f 651 663 664
f 652 665 653
f 652 664 665
f 653 666 654
f 653 665 666
f 654 667 655
f 654 666 667
f 655 668 656
f 655 667 668
f 656 669 657
f 656 668 669
f 657 670 658
f 657 669 670
f 658 671 659
f 658 670 671
f 659 672 660
f 659 671 672
f 661 674 662
f 661 673 674
f 662 675 663
f 662 674 675
f 663 676 664
f 663 675 676
f 664 677 665
f 664 676 677
f 665 678 666
f 665 677 678
f 666 679 667
f 666 678 679
f 667 680 668
f 667 679 680
f 668 681 669
f 668 680 681
f 669 682 670
f 669 681 682
f 670 683 671
f 670 682 683
f 671 684 672
f 671 683 684
f 673 686 674
f 673 685 686
f 674 687 675
f 674 686 687
f 675 688 676
f 675 687 688
f 676 689 677
f 676 688 689
f 677 690 678
f 677 689 690
f 678 691 679
f 678 690 691
f 679 692 680
f 679 691 692
f 680 693 681
f 680 692 693
f 681 694 682
f 681 693 694
f 682 695 683
f 682 694 695
f 683 696 684
f 683 695 696
f 685 698 686
f 685 697 698
f 686 699 687
f 686 698 699
f 687 700 688
f 687 699 700
f 688 701 689
f 688 700 701
f 689 702 690
f 689 701 702
f 690 703 691
f 690 702 703
f 691 704 692
f 691 703 704
f 692 705 693
f 692 704 705
f 693 706 694
f 693 705 706
f 694 707 695
f 694 706 707
f 695 708 696
f 695 707 708
f 697 710 698
f 697 709 710
f 698 711 699
f 698 710 711
f 699 712 700
f 699 711 712
f 700 713 701
f 700 712 713
f 701 714 702
f 701 713 714
f 702 715 703
f 702 714 715
f 703 716 704
f 703 715 716
f 704 717 705
f 704 716 717
f 705 718 706
f 705 717 718
f 706 719 707
f 706 718 719
f 707 720 708
f 707 719 720
f 709 722 710
f 709 721 722
f 710 723 711
f 710 722 723
f 711 724 712
f 711 723 724
f 712 725 713
f 712 724 725
f 713 726 714
f 713 725 726
f 714 727 715
f 714 726 727
f 715 728 716
f 715 727 728
f 716 729 717
f 716 728 729
f 717 730 718
f 717 729 730
f 718 731 719
f 718 730 731
f 719 732 720
f 719 731 732
f 721 734 722
f 721 733 734
f 722 735 723
f 722 734 735
f 723 736 724
f 723 735 736
f 724 737 725
f 724 736 737
f 725 738 726
f 725 737 738
f 726 739 727
f 726 738 739
f 727 740 728
f 727 739 740
f 728 741 729
f 728 740 741
f 729 742 730
f 729 741 742
f 730 743 731
f 730 742 743
f 731 744 732
f 731 743 744
f 733 746 734
f 733 745 746
f 734 747 735
f 734 746 747
f 735 748 736
f 735 747 748
f 736 749 737
f 736 748 749
f 737 750 738
f 737 749 750
f 738 751 739
f 738 750 751
f 739 752 740
f 739 751 752
f 740 753 741
f 740 752 753
f 741 754 742
f 741 753 754
f 742 755 743
f 742 754 755
f 743 756 744
f 743 755 756
f 745 758 746
f 745 757 758
f 746 759 747
f 746 758 759
f 747 760 748
f 747 759 760
f 748 761 749
f 748 760 761
f 749 762 750
f 749 761 762
f 750 763 751
f 750 762 763
f 751 764 752
f 751 763 764
f 752 765 753
f 752 764 765
f 753 766 754
f 753 765 766
f 754 767 755
f 754 766 767
f 755 768 756
f 755 767 768
f 757 770 758
f 757 769 770
f 758 771 759
f 758 770 771
f 759 772 760
f 759 771 772
f 760 773 761
f 760 772 773
f 761 774 762
f 761 773 774
f 762 775 763
f 762 774 775
f 763 776 764
f 763 775 776
f 764 777 765
f 764 776 777
f 765 778 766
f 765 777 778
f 766 779 767
f 766 778 779
f 767 780 768
f 767 779 780
f 769 782 770
f 769 781 782
f 770 783 771
f 770 782 783
f 771 784 772
f 771 783 784
f 772 785 773
f 772 784 785
f 773 786 774
f 773 785 786
f 774 787 775
f 774 786 787
f 775 788 776
f 775 787 788
f 776 789 777
f 776 788 789
f 777 790 778
f 777 789 790
f 778 791 779
f 778 790 791
f 779 792 780
f 779 791 792
f 781 794 782
f 781 793 794
f 782 795 783
f 782 794 795
f 783 796 784
f 783 795 796
f 784 797 785
f 784 796 797
f 785 798 786
f 785 797 798
f 786 799 787
f 786 798 799
f 787 800 788
f 787 799 800
f 788 801 789
f 788 800 801
f 789 802 790
f 789 801 802
f 790 803 791
f 790 802 803
f 791 804 792
f 791 803 804
f 793 806 794
f 793 805 806
f 794 807 795
f 794 806 807
f 795 808 796
f 795 807 808
f 796 809 797
f 796 808 809
f 797 810 798
f 797 809 810
f 798 811 799
f 798 810 811
f 799 812 800
f 799 811 812
f 800 813 801
f 800 812 813
f 801 814 802
f 801 813 814
f 802 815 803
f 802 814 815
f 803 816 804
f 803 815 816
f 805 818 806
f 805 817 818
f 806 819 807
f 806 818 819
f 807 820 808
f 807 819 820
f 808 821 809
f 808 820 821
f 809 822 810
f 809 821 822
f 810 823 811
f 810 822 823
f 811 824 812
f 811 823 824
f 812 825 813
f 812 824 825
f 813 826 814
f 813 825 826
f 814 827 815
f 814 826 827
f 815 828 816
f 815 827 828
f 817 830 818
f 817 829 830
f 818 831 819
f 818 830 831
f 819 832 820
f 819 831 832
f 820 833 821
f 820 832 833
f 821 834 822
f 821 833 834
f 822 835 823
f 822 834 835
f 823 836 824
f 823 835 836
f 824 837 825
f 824 836 837
f 825 838 826
f 825 837 838
f 826 839 827
f 826 838 839
f 827 840 828
f 827 839 840
f 829 842 830
f 829 841 842
f 830 843 831
f 830 842 843
f 831 844 832
f 831 843 844
f 832 845 833
f 832 844 845
f 833 846 834
f 833 845 846
f 834 847 835
f 834 846 847
f 835 848 836
f 835 847 848
f 836 849 837
f 836 848 849
f 837 850 838
f 837 849 850
f 838 851 839
f 838 850 851
f 839 852 840
f 839 851 852
f 841 854 842
f 841 853 854
f 842 855 843
f 842 854 855
f 843 856 844
f 843 855 856
f 844 857 845
f 844 856 857
f 845 858 846
f 845 857 858
f 846 859 847
f 846 858 859
f 847 860 848
f 847 859 860
f 848 861 849
f 848 860 861
f 849 862 850
f 849 861 862
f 850 863 851
f 850 862 863
f 851 864 852
f 851 863 864
f 853 2 854
f 853 1 2
f 854 3 855
f 854 2 3
f 855 4 856
f 855 3 4
f 856 5 857
f 856 4 5
f 857 6 858
f 857 5 6
f 858 7 859
f 858 6 7
f 859 8 860
f 859 7 8
f 860 9 861
f 860 8 9
f 861 10 862
f 861 9 10
f 862 11 863
f 862 10 11
f 863 12 864
f 863 11 12
