# https://github.com/mikedh/trimesh
v -0.01130203 0.05887687 0.01093615
v -0.01130203 0.05876441 0.01076576
v -0.01187793 0.05871250 0.01083443
v -0.01187793 0.05877883 0.01093615
v -0.01130203 0.05380157 0.01093615
v -0.01130203 0.05813288 0.00997407
v -0.01187793 0.05808097 0.01004210
v -0.01441913 0.05703996 0.00937609
v -0.01263505 0.05863464 0.01093615
v -0.01130203 0.03652825 0.00431823
v -0.04658496 0.02941706 0.01093615
v -0.01130203 0.05733986 0.00907678
v -0.01187793 0.05728796 0.00912602
v -0.01346064 0.05713512 0.00927762
v -0.01498698 0.05632480 0.00883318
v -0.01547428 0.05692461 0.00951020
v -0.01282836 0.05859427 0.01093615
v -0.01130203 0.05000375 0.00431823
v -0.02570355 0.02941706 0.00431823
v -0.05244464 0.02941706 0.01093615
v -0.01130203 0.05702266 0.00878978
v -0.01187793 0.05640555 0.00833433
v -0.01355327 0.05610276 0.00836478
v -0.01504739 0.05530110 0.00792423
v -0.01663011 0.05597299 0.00888890
v -0.01821283 0.05573365 0.00910529
v -0.01663011 0.05676601 0.00969614
v -0.01663011 0.05738600 0.01048782
v -0.01498698 0.05748693 0.01010494
v -0.01374658 0.05838665 0.01093615
v -0.01130203 0.05063816 0.00462143
v -0.01147520 0.04996915 0.00431823
v -0.04237647 0.02941706 0.00431823
v -0.05218287 0.02997073 0.01093615
v -0.05186472 0.02941706 0.01018398
v -0.01130203 0.05645746 0.00828509
v -0.01413723 0.05539914 0.00784714
v -0.01504739 0.05450808 0.00734440
v -0.01663011 0.05430045 0.00749081
v -0.01663011 0.05509346 0.00809721
v -0.01821283 0.05485124 0.00831360
v -0.01940893 0.05554909 0.00928280
v -0.02046407 0.05538184 0.00946031
v -0.01821283 0.05652378 0.00999675
v -0.01821283 0.05716107 0.01078843
v -0.01663011 0.05770032 0.01093615
v -0.01502725 0.05808963 0.01093615
v -0.01130203 0.05076216 0.00468104
v -0.01230884 0.05059779 0.00469853
v -0.01181752 0.04999510 0.00436358
v -0.01346064 0.05048244 0.00475424
v -0.01334385 0.04958561 0.00431823
v -0.01346064 0.04968943 0.00437719
v -0.04299264 0.02941706 0.00456701
v -0.04225967 0.02959874 0.00431823
v -0.05096664 0.03207295 0.01093615
v -0.05087401 0.03200374 0.01075021
v -0.05112370 0.03077817 0.01021572
v -0.05072500 0.03018413 0.00936054
v -0.05184458 0.02942572 0.01016648
v -0.05185666 0.02941706 0.01017491
v -0.01130203 0.05566732 0.00764565
v -0.01187793 0.05561253 0.00768582
v -0.01355327 0.05477626 0.00731395
v -0.01346064 0.05353916 0.00643674
v -0.01504739 0.05336613 0.00655271
v -0.01675898 0.05297684 0.00661361
v -0.01821283 0.05304605 0.00696216
v -0.01821283 0.05405822 0.00766444
v -0.01921159 0.05390539 0.00777976
v -0.02026673 0.05373237 0.00791322
v -0.01983984 0.05464361 0.00859801
v -0.02137826 0.05352762 0.00808749
v -0.02137826 0.05440427 0.00887983
v -0.02296501 0.05408706 0.00916230
v -0.02390336 0.05390250 0.00934564
v -0.02137826 0.05519728 0.00967476
v -0.02261866 0.05559523 0.01077029
v -0.02137826 0.05583458 0.01046644
v -0.02002913 0.05667085 0.01093615
v -0.01905050 0.05701401 0.01093615
v -0.01819269 0.05726489 0.01093615
v -0.01892968 0.05705149 0.01093615
v -0.01130203 0.05141388 0.00500626
v -0.01504739 0.05027770 0.00484624
v -0.01504739 0.05146290 0.00544487
v -0.01346064 0.05146290 0.00524986
v -0.01181752 0.05132448 0.00501274
v -0.01346064 0.04955966 0.00431823
v -0.01470910 0.04923380 0.00431823
v -0.01504739 0.04948757 0.00447631
v -0.04276711 0.03010915 0.00465771
v -0.04378601 0.02941706 0.00489353
v -0.04192138 0.03073491 0.00448020
v -0.04166766 0.03050133 0.00431823
v -0.05041893 0.03295536 0.01093615
v -0.04995176 0.03257471 0.01012049
v -0.05041490 0.03123956 0.00969419
v -0.05093845 0.02941706 0.00916748
v -0.05179223 0.02941706 0.01010364
v -0.04935976 0.03208737 0.00917267
v -0.04988330 0.03077817 0.00894980
v -0.01130203 0.05458305 0.00687470
v -0.01187793 0.05463208 0.00698160
v -0.01346064 0.05274903 0.00595084
v -0.01504739 0.05257312 0.00605386
v -0.01187793 0.05369776 0.00633438
v -0.01632001 0.05240298 0.00615751
v -0.01737515 0.05224150 0.00625534
v -0.01821283 0.05210596 0.00633568
v -0.01979554 0.05184066 0.00649699
v -0.01976333 0.05314121 0.00736707
v -0.02137826 0.05273461 0.00748239
v -0.02296501 0.05243182 0.00770072
v -0.02379060 0.05227033 0.00781863
v -0.02296501 0.05322195 0.00837061
v -0.02437455 0.05297107 0.00868159
v -0.02613044 0.05261061 0.00907160
v -0.02495851 0.05367181 0.00960349
v -0.02447926 0.05433506 0.01016130
v -0.02359729 0.05533570 0.01093615
v -0.02307374 0.05496947 0.01022803
v -0.02266699 0.05569039 0.01093615
v -0.02137826 0.05617485 0.01093615
v -0.01130203 0.05242893 0.00554917
v -0.01663011 0.05002682 0.00496350
v -0.01675898 0.05161285 0.00579989
v -0.01187793 0.05290763 0.00586533
v -0.01504739 0.04914152 0.00431823
v -0.01663011 0.04923668 0.00459617
v -0.04242076 0.03116458 0.00479895
v -0.04513112 0.02941706 0.00549151
v -0.04339536 0.03073491 0.00509243
v -0.04136562 0.03194318 0.00458386
v -0.04097900 0.03152793 0.00431823
v -0.04148644 0.03077528 0.00431823
v -0.04942419 0.03404827 0.01061740
v -0.04913422 0.03490473 0.01093615
v -0.04901341 0.03314568 0.00949141
v -0.04990343 0.02941706 0.00832202
v -0.04790993 0.03404827 0.00906771
v -0.04728974 0.03292652 0.00797865
v -0.04873150 0.03087910 0.00808166
v -0.04986316 0.02941706 0.00828963
v -0.01130203 0.05415915 0.00657927
v -0.01130203 0.05375543 0.00629939
v -0.01821283 0.05131294 0.00588606
v -0.01979554 0.05104765 0.00603183
v -0.02098762 0.05083137 0.00615622
v -0.02145881 0.05139946 0.00662009
v -0.02296501 0.05146290 0.00705545
v -0.02441080 0.05147732 0.00748628
v -0.02613044 0.05090635 0.00766768
v -0.02696812 0.05069872 0.00781151
v -0.02484575 0.05201368 0.00801688
v -0.02613044 0.05169936 0.00827991
v -0.02713726 0.05236549 0.00929835
v -0.02613044 0.05340074 0.00992354
v -0.02613044 0.05406110 0.01071522
v -0.02689965 0.05388809 0.01093615
v -0.01130203 0.05300856 0.00586209
v -0.01745570 0.04910115 0.00465836
v -0.01851487 0.04892525 0.00473805
v -0.01807590 0.04972980 0.00505226
v -0.01663011 0.04862534 0.00431823
v -0.01752013 0.04833409 0.00431823
v -0.01807590 0.04835716 0.00441217
v -0.04192138 0.03246801 0.00496545
v -0.04629903 0.02941706 0.00605386
v -0.04515528 0.03083007 0.00592558
v -0.04367727 0.03258336 0.00577398
v -0.04096692 0.03299861 0.00473999
v -0.04041518 0.03246801 0.00437071
v -0.04041115 0.03228922 0.00431823
v -0.04778106 0.03675606 0.01093615
v -0.04770454 0.03668974 0.01077418
v -0.04817574 0.03546417 0.01032975
v -0.04870331 0.03404827 0.00982571
v -0.04759178 0.03496241 0.00933204
v -0.04669370 0.03554780 0.00894462
v -0.04674203 0.03416362 0.00820735
v -0.04763206 0.03187109 0.00774607
v -0.04586811 0.03476632 0.00786398
v -0.04623459 0.03371088 0.00762751
v -0.04901743 0.02996497 0.00787888
v -0.04980678 0.02941706 0.00824622
v -0.01979554 0.04987975 0.00541960
v -0.02145881 0.05000663 0.00582322
v -0.02296501 0.04962887 0.00595603
v -0.02204276 0.05061798 0.00627737
v -0.02296501 0.05041900 0.00639269
v -0.02468868 0.04986821 0.00654753
v -0.02613044 0.04987975 0.00700751
v -0.02758429 0.04987110 0.00750183
v -0.02893343 0.04933762 0.00766120
v -0.02998857 0.04902618 0.00787305
v -0.02802326 0.05039305 0.00803826
v -0.02758026 0.05139081 0.00866798
v -0.02929588 0.05098997 0.00912278
v -0.03020604 0.05074197 0.00934564
v -0.02819644 0.05208289 0.00960155
v -0.02758832 0.05297972 0.01028051
v -0.02700033 0.05383618 0.01093615
v -0.01979554 0.04790154 0.00448279
v -0.01979554 0.04869455 0.00484365
v -0.01809603 0.04814377 0.00431823
v -0.04196166 0.03404827 0.00548309
v -0.04603323 0.03026775 0.00618796
v -0.04709240 0.02941706 0.00647691
v -0.04464382 0.03213639 0.00608754
v -0.04429344 0.03319182 0.00626959
v -0.04319400 0.03404827 0.00603053
v -0.04041518 0.03411460 0.00488900
v -0.03991177 0.03363014 0.00454304
v -0.03958959 0.03329275 0.00431823
v -0.04027423 0.03246801 0.00431823
v -0.04033463 0.03239015 0.00431823
v -0.04714475 0.03760387 0.01093615
v -0.04625070 0.03840554 0.01062841
v -0.04672994 0.03724341 0.01017361
v -0.04720919 0.03601784 0.00971816
v -0.04615404 0.03674164 0.00920635
v -0.04554996 0.03563142 0.00809656
v -0.04674203 0.03242476 0.00741372
v -0.04794215 0.03087910 0.00754783
v -0.04442232 0.03652537 0.00777458
v -0.04476061 0.03563142 0.00756726
v -0.04525597 0.03416362 0.00722843
v -0.04515528 0.03258336 0.00652809
v -0.04840126 0.02941706 0.00727702
v -0.04844959 0.02941706 0.00730941
v -0.02145075 0.04823604 0.00494536
v -0.02296501 0.04829660 0.00528549
v -0.02425776 0.04933473 0.00611152
v -0.02531291 0.04907520 0.00625404
v -0.02613044 0.04885316 0.00637779
v -0.02779371 0.04827642 0.00658770
v -0.02939656 0.04841772 0.00725953
v -0.02939656 0.04987110 0.00825659
v -0.03088263 0.04795344 0.00754329
v -0.03187334 0.04763624 0.00774348
v -0.03088263 0.04874358 0.00807583
v -0.03003287 0.05222131 0.01093615
v -0.02945294 0.05187527 0.01016001
v -0.03079403 0.04988263 0.00893619
v -0.03211900 0.04935780 0.00917137
v -0.03317414 0.04903771 0.00946485
v -0.03126119 0.05041323 0.00969743
v -0.03079403 0.05115146 0.01021702
v -0.02902605 0.05253563 0.01065692
v -0.01979554 0.04753531 0.00431823
v -0.02047213 0.04726424 0.00431823
v -0.02096748 0.04766796 0.00458969
v -0.04285973 0.03496529 0.00619379
v -0.04190527 0.03554780 0.00600138
v -0.04037893 0.03563142 0.00539563
v -0.04569896 0.03132319 0.00636742
v -0.04662121 0.03083007 0.00672634
v -0.04398737 0.03404827 0.00643804
v -0.03887274 0.03573235 0.00484818
v -0.03945266 0.03468557 0.00471343
v -0.03887676 0.03411748 0.00431823
v -0.04639971 0.03853818 0.01093615
v -0.04570702 0.03936581 0.01093615
v -0.04525194 0.03893325 0.01007643
v -0.04575131 0.03779708 0.00957304
v -0.04469617 0.03840265 0.00913314
v -0.04508682 0.03716266 0.00864207
v -0.04395113 0.03758080 0.00807713
v -0.04289598 0.03816042 0.00774542
v -0.04347188 0.03711941 0.00753811
v -0.04344772 0.03554780 0.00677752
v -0.02202665 0.04744015 0.00469205
v -0.02296501 0.04722387 0.00478534
v -0.02464438 0.04668462 0.00491168
v -0.02468868 0.04844655 0.00576685
v -0.02613044 0.04806302 0.00595149
v -0.02732252 0.04773428 0.00612382
v -0.02837766 0.04742573 0.00628838
v -0.02929588 0.04713447 0.00645164
v -0.03083430 0.04662406 0.00672245
v -0.03242104 0.04673941 0.00741696
v -0.03368561 0.04622899 0.00763464
v -0.03292445 0.04728443 0.00797930
v -0.03252173 0.04833698 0.00857533
v -0.03201026 0.05088039 0.01075280
v -0.03297278 0.05043630 0.01093615
v -0.03404404 0.04794479 0.00905670
v -0.03498239 0.04761317 0.00931649
v -0.03404404 0.04873492 0.00978360
v -0.03493809 0.04916171 0.01091153
v -0.03404404 0.04945297 0.01057529
v -0.02145075 0.04685187 0.00431823
v -0.04239257 0.03602072 0.00642702
v -0.04133743 0.03660899 0.00616788
v -0.04034672 0.03716843 0.00596056
v -0.03879622 0.03721457 0.00533732
v -0.03791827 0.03632928 0.00469464
v -0.03839349 0.03527385 0.00451972
v -0.03748333 0.03566314 0.00431823
v -0.04417665 0.04101239 0.01093615
v -0.04474853 0.04003482 0.01057982
v -0.04421693 0.03945808 0.00952445
v -0.04315775 0.04001752 0.00910593
v -0.04355645 0.03880925 0.00859153
v -0.04240465 0.03921585 0.00804992
v -0.04134951 0.03977818 0.00772599
v -0.04190930 0.03873139 0.00749211
v -0.04190527 0.03716843 0.00671208
v -0.02154741 0.04680862 0.00431823
v -0.02296501 0.04643374 0.00443938
v -0.02418124 0.04613960 0.00457025
v -0.02523639 0.04586853 0.00468687
v -0.02613044 0.04671346 0.00529197
v -0.02779371 0.04682304 0.00581350
v -0.02929588 0.04634434 0.00603377
v -0.03027048 0.04603579 0.00618732
v -0.03132965 0.04569263 0.00636742
v -0.03256603 0.04515049 0.00653846
v -0.03414472 0.04524565 0.00724916
v -0.03474075 0.04585123 0.00787564
v -0.03414472 0.04673941 0.00820541
v -0.03495420 0.04917036 0.01093615
v -0.03555829 0.04669327 0.00894850
v -0.03672217 0.04615113 0.00921802
v -0.03777732 0.04573877 0.00959118
v -0.03603753 0.04720657 0.00971363
v -0.03548580 0.04818991 0.01031290
v -0.03668593 0.04771121 0.01076964
v -0.04085416 0.03766443 0.00639917
v -0.03979901 0.03822675 0.00614974
v -0.03876803 0.03877176 0.00593918
v -0.03720947 0.03879772 0.00533602
v -0.03731821 0.03732415 0.00482616
v -0.03686313 0.03686853 0.00450287
v -0.03724169 0.03592268 0.00431823
v -0.03737056 0.03578714 0.00431823
v -0.04261810 0.04262150 0.01093615
v -0.04320205 0.04163527 0.01055520
v -0.04370949 0.04055389 0.01004015
v -0.04265434 0.04107295 0.00949983
v -0.04159920 0.04160932 0.00909298
v -0.04200193 0.04042701 0.00857145
v -0.04082194 0.04083361 0.00803696
v -0.03976679 0.04134402 0.00773117
v -0.04033061 0.04033473 0.00747915
v -0.04034672 0.03877176 0.00667904
v -0.02274753 0.04625207 0.00431823
v -0.02296501 0.04615113 0.00431823
v -0.02373824 0.04577049 0.00431823
v -0.02464438 0.04531486 0.00431823
v -0.02471687 0.04527449 0.00431823
v -0.02613044 0.04448148 0.00431823
v -0.02613044 0.04481598 0.00445752
v -0.02613044 0.04560900 0.00479571
v -0.02770914 0.04506975 0.00498100
v -0.02929588 0.04513031 0.00545977
v -0.03083430 0.04515049 0.00593595
v -0.03210692 0.04463720 0.00609726
v -0.03316206 0.04427385 0.00627931
v -0.03404404 0.04394511 0.00645812
v -0.03551802 0.04342893 0.00680019
v -0.03562675 0.04472371 0.00759447
v -0.03649262 0.04439496 0.00779336
v -0.03562675 0.04551672 0.00811341
v -0.03675439 0.04779196 0.01093615
v -0.03713698 0.04506687 0.00864919
v -0.03839752 0.04468334 0.00913574
v -0.03945266 0.04421329 0.00952705
v -0.03892509 0.04524565 0.01008680
v -0.03936003 0.04570416 0.01093615
v -0.03839752 0.04624053 0.01064720
v -0.03759206 0.04713159 0.01093615
v -0.03927949 0.03928218 0.00639204
v -0.03822435 0.03980124 0.00614909
v -0.03716114 0.04034915 0.00596056
v -0.03562675 0.04038086 0.00539757
v -0.03573146 0.03887558 0.00484754
v -0.03632750 0.03792396 0.00469335
v -0.03592074 0.03724917 0.00431823
v -0.03659330 0.03659746 0.00431823
v -0.04101121 0.04418157 0.01093615
v -0.04163142 0.04320689 0.01054937
v -0.04214288 0.04214857 0.01002460
v -0.04107565 0.04266475 0.00949400
v -0.04002051 0.04316074 0.00911047
v -0.04041921 0.04200439 0.00857404
v -0.03920700 0.04239945 0.00805510
v -0.03815185 0.04289544 0.00774931
v -0.03872373 0.04190922 0.00750053
v -0.03876803 0.04034915 0.00668552
v -0.02674662 0.04410948 0.00431823
v -0.02718156 0.04450166 0.00459422
v -0.02823671 0.04416427 0.00473610
v -0.02929588 0.04382399 0.00488187
v -0.03073362 0.04339721 0.00510539
v -0.03256603 0.04366827 0.00578953
v -0.03404404 0.04315209 0.00605450
v -0.03491795 0.04282047 0.00621452
v -0.03597712 0.04239368 0.00642897
v -0.03709671 0.04347507 0.00755236
v -0.03754776 0.04395088 0.00808037
v -0.03880024 0.04355581 0.00859542
v -0.04055211 0.04371153 0.01003821
v -0.04003259 0.04474966 0.01058306
v -0.03852236 0.04638183 0.01093615
v -0.03765650 0.04085668 0.00640435
v -0.03660135 0.04133825 0.00616917
v -0.03551802 0.04190634 0.00601563
v -0.03404404 0.04196401 0.00551678
v -0.03410444 0.04040393 0.00489677
v -0.03467632 0.03945232 0.00471408
v -0.03527235 0.03839688 0.00452037
v -0.03566300 0.03748852 0.00431823
v -0.03578382 0.03737894 0.00431823
v -0.03716114 0.04190634 0.00671856
v -0.02764873 0.04353274 0.00431823
v -0.02770914 0.04360195 0.00436229
v -0.02929588 0.04303386 0.00454952
v -0.03010939 0.04277145 0.00465836
v -0.03116453 0.04241675 0.00480283
v -0.03244924 0.04191788 0.00498100
v -0.03297278 0.04094895 0.00474971
v -0.03362117 0.03989352 0.00454822
v -0.03410444 0.03887558 0.00432018
v -0.03497031 0.03810563 0.00431823
v -0.02886899 0.04274261 0.00431823
v -0.02929588 0.04246289 0.00431823
v -0.03008925 0.04194094 0.00431823
v -0.03073362 0.04191788 0.00448344
v -0.03191764 0.04136132 0.00458774
v -0.03245326 0.04023091 0.00431823
v -0.03327080 0.03956190 0.00431823
v -0.03410444 0.03886693 0.00431823
v -0.03050004 0.04166411 0.00431823
v -0.03077792 0.04147378 0.00431823
v -0.03150685 0.04096914 0.00431823
f 1 2 3
f 1 3 4
f 1 4 9
f 1 9 17
f 1 17 30
f 1 30 47
f 1 47 46
f 1 46 82
f 1 82 83
f 1 83 81
f 1 81 80
f 1 80 124
f 1 124 123
f 1 123 121
f 1 121 160
f 1 160 203
f 1 203 243
f 1 243 287
f 1 287 323
f 1 323 366
f 1 366 373
f 1 373 406
f 1 406 371
f 1 371 382
f 1 382 338
f 1 338 301
f 1 301 264
f 1 264 263
f 1 263 218
f 1 218 175
f 1 175 138
f 1 138 96
f 1 96 56
f 1 56 34
f 1 34 20
f 1 20 11
f 1 11 5
f 1 5 10
f 1 10 18
f 1 18 31
f 1 31 48
f 1 48 84
f 1 84 125
f 1 125 161
f 1 161 146
f 1 146 145
f 1 145 103
f 1 103 62
f 1 62 36
f 1 36 21
f 1 21 12
f 1 12 6
f 1 6 2
f 2 6 7
f 2 7 3
f 3 7 8
f 3 8 9
f 3 9 4
f 5 11 10
f 6 12 13
f 6 13 14
f 6 14 8
f 6 8 7
f 8 14 15
f 8 15 16
f 8 16 17
f 8 17 9
f 10 11 19
f 10 19 33
f 10 33 55
f 10 55 95
f 10 95 136
f 10 136 135
f 10 135 174
f 10 174 217
f 10 217 216
f 10 216 215
f 10 215 262
f 10 262 300
f 10 300 337
f 10 337 336
f 10 336 381
f 10 381 380
f 10 380 415
f 10 415 414
f 10 414 426
f 10 426 434
f 10 434 433
f 10 433 432
f 10 432 437
f 10 437 436
f 10 436 435
f 10 435 429
f 10 429 428
f 10 428 427
f 10 427 417
f 10 417 392
f 10 392 353
f 10 353 352
f 10 352 351
f 10 351 350
f 10 350 349
f 10 349 348
f 10 348 310
f 10 310 293
f 10 293 252
f 10 252 251
f 10 251 206
f 10 206 166
f 10 166 165
f 10 165 129
f 10 129 90
f 10 90 89
f 10 89 52
f 10 52 32
f 10 32 18
f 11 20 35
f 11 35 61
f 11 61 100
f 11 100 99
f 11 99 140
f 11 140 144
f 11 144 186
f 11 186 231
f 11 231 230
f 11 230 209
f 11 209 169
f 11 169 132
f 11 132 93
f 11 93 54
f 11 54 33
f 11 33 19
f 12 21 13
f 13 21 22
f 13 22 23
f 13 23 14
f 14 23 15
f 15 23 24
f 15 24 25
f 15 25 16
f 16 25 26
f 16 26 27
f 16 27 28
f 16 28 29
f 16 29 17
f 17 29 30
f 18 32 31
f 20 34 35
f 21 36 22
f 22 36 37
f 22 37 23
f 23 37 24
f 24 37 38
f 24 38 39
f 24 39 40
f 24 40 25
f 25 40 26
f 26 40 41
f 26 41 42
f 26 42 27
f 27 42 43
f 27 43 44
f 27 44 45
f 27 45 28
f 28 45 46
f 28 46 47
f 28 47 29
f 29 47 30
f 31 32 49
f 31 49 48
f 32 50 51
f 32 51 49
f 32 52 53
f 32 53 50
f 33 54 55
f 34 56 57
f 34 57 58
f 34 58 35
f 35 58 59
f 35 59 60
f 35 60 61
f 36 62 63
f 36 63 37
f 37 64 38
f 37 63 64
f 38 64 65
f 38 65 66
f 38 66 39
f 39 67 68
f 39 68 69
f 39 69 40
f 39 66 67
f 40 69 70
f 40 70 71
f 40 71 41
f 41 71 72
f 41 72 42
f 42 72 43
f 43 72 71
f 43 71 73
f 43 73 74
f 43 74 75
f 43 75 76
f 43 76 77
f 43 77 78
f 43 78 79
f 43 79 80
f 43 80 81
f 43 81 45
f 43 45 44
f 45 82 46
f 45 81 83
f 45 83 82
f 48 49 51
f 48 51 84
f 50 53 51
f 51 53 85
f 51 85 86
f 51 86 87
f 51 87 88
f 51 88 84
f 52 89 53
f 53 89 90
f 53 90 91
f 53 91 85
f 54 92 55
f 54 93 92
f 55 92 94
f 55 94 95
f 56 96 57
f 57 96 97
f 57 97 98
f 57 98 58
f 58 98 59
f 59 99 100
f 59 100 61
f 59 61 60
f 59 98 101
f 59 101 102
f 59 102 99
f 62 103 104
f 62 104 64
f 62 64 63
f 64 104 65
f 65 105 106
f 65 106 66
f 65 104 107
f 65 107 105
f 66 106 108
f 66 108 67
f 67 109 110
f 67 110 68
f 67 108 109
f 68 110 111
f 68 111 112
f 68 112 69
f 69 112 70
f 70 112 71
f 71 112 113
f 71 113 114
f 71 114 115
f 71 115 73
f 73 116 74
f 73 115 116
f 74 116 75
f 75 116 76
f 76 115 117
f 76 117 118
f 76 118 119
f 76 119 120
f 76 120 121
f 76 121 122
f 76 122 77
f 76 116 115
f 77 122 78
f 78 122 121
f 78 121 123
f 78 123 124
f 78 124 79
f 79 124 80
f 84 88 87
f 84 87 125
f 85 91 126
f 85 126 86
f 86 126 127
f 86 127 108
f 86 108 106
f 86 106 105
f 86 105 87
f 87 105 128
f 87 128 125
f 90 129 91
f 91 129 130
f 91 130 126
f 92 131 94
f 92 93 131
f 93 132 133
f 93 133 131
f 94 131 134
f 94 134 135
f 94 135 136
f 94 136 95
f 96 137 97
f 96 138 137
f 97 137 139
f 97 139 98
f 98 139 101
f 99 102 140
f 101 139 141
f 101 141 142
f 101 142 143
f 101 143 102
f 102 144 140
f 102 143 144
f 103 145 104
f 104 145 146
f 104 146 107
f 105 107 146
f 105 146 128
f 108 127 147
f 108 147 109
f 109 147 148
f 109 148 110
f 110 148 111
f 111 148 149
f 111 149 150
f 111 150 113
f 111 113 112
f 113 150 151
f 113 151 114
f 114 151 115
f 115 152 153
f 115 153 154
f 115 154 155
f 115 155 117
f 115 151 152
f 117 155 118
f 118 155 156
f 118 156 157
f 118 157 119
f 119 157 158
f 119 158 159
f 119 159 120
f 120 159 121
f 121 159 160
f 125 128 161
f 126 130 162
f 126 162 163
f 126 163 164
f 126 164 147
f 126 147 127
f 128 146 161
f 129 165 130
f 130 165 166
f 130 166 167
f 130 167 162
f 131 168 134
f 131 133 168
f 132 169 170
f 132 170 171
f 132 171 133
f 133 171 168
f 134 172 173
f 134 173 174
f 134 174 135
f 134 168 172
f 137 138 139
f 138 175 176
f 138 176 177
f 138 177 178
f 138 178 139
f 139 178 179
f 139 179 141
f 141 179 180
f 141 180 181
f 141 181 142
f 142 182 143
f 142 181 183
f 142 183 184
f 142 184 182
f 143 182 185
f 143 185 144
f 144 185 186
f 147 164 187
f 147 187 148
f 148 187 149
f 149 187 188
f 149 188 189
f 149 189 190
f 149 190 150
f 150 190 191
f 150 191 151
f 151 191 152
f 152 191 192
f 152 192 193
f 152 193 153
f 153 193 154
f 154 194 195
f 154 195 196
f 154 196 197
f 154 197 198
f 154 198 156
f 154 156 155
f 154 193 194
f 156 198 157
f 157 198 199
f 157 199 200
f 157 200 201
f 157 201 202
f 157 202 160
f 157 160 158
f 158 160 159
f 160 202 203
f 162 167 163
f 163 204 205
f 163 205 164
f 163 167 206
f 163 206 204
f 164 205 187
f 166 206 167
f 168 207 172
f 168 171 207
f 169 208 170
f 169 209 208
f 170 208 210
f 170 210 171
f 171 210 211
f 171 211 212
f 171 212 207
f 172 207 213
f 172 213 214
f 172 214 215
f 172 215 216
f 172 216 173
f 173 216 217
f 173 217 174
f 175 218 176
f 176 218 219
f 176 219 220
f 176 220 221
f 176 221 177
f 177 221 178
f 178 221 179
f 179 221 222
f 179 222 180
f 180 222 223
f 180 223 181
f 181 223 183
f 182 184 224
f 182 224 225
f 182 225 185
f 183 223 226
f 183 226 227
f 183 227 228
f 183 228 184
f 184 228 229
f 184 229 224
f 185 225 230
f 185 230 231
f 185 231 186
f 187 205 232
f 187 232 233
f 187 233 188
f 188 233 189
f 189 191 190
f 189 233 234
f 189 234 191
f 191 234 192
f 192 234 235
f 192 235 193
f 193 236 237
f 193 237 194
f 193 235 236
f 194 237 195
f 195 238 196
f 195 237 238
f 196 239 197
f 196 238 240
f 196 240 241
f 196 241 242
f 196 242 239
f 197 239 200
f 197 200 199
f 197 199 198
f 200 243 244
f 200 244 201
f 200 239 245
f 200 245 246
f 200 246 247
f 200 247 248
f 200 248 249
f 200 249 243
f 201 244 250
f 201 250 202
f 202 250 203
f 203 250 243
f 204 251 252
f 204 252 253
f 204 253 205
f 204 206 251
f 205 253 232
f 207 212 254
f 207 254 255
f 207 255 256
f 207 256 213
f 208 257 210
f 208 209 257
f 209 230 225
f 209 225 258
f 209 258 257
f 210 257 211
f 211 259 254
f 211 254 212
f 211 257 229
f 211 229 228
f 211 228 259
f 213 256 260
f 213 260 261
f 213 261 214
f 214 261 262
f 214 262 215
f 218 263 219
f 219 263 264
f 219 264 265
f 219 265 266
f 219 266 220
f 220 266 221
f 221 266 222
f 222 266 267
f 222 267 268
f 222 268 223
f 223 268 226
f 224 229 258
f 224 258 225
f 226 269 270
f 226 270 271
f 226 271 272
f 226 272 227
f 226 268 269
f 227 272 259
f 227 259 228
f 229 257 258
f 232 273 233
f 232 253 273
f 233 273 274
f 233 274 275
f 233 275 276
f 233 276 234
f 234 276 235
f 235 276 277
f 235 277 278
f 235 278 236
f 236 278 279
f 236 279 237
f 237 279 238
f 238 279 280
f 238 280 281
f 238 281 240
f 239 242 245
f 240 281 282
f 240 282 241
f 241 282 283
f 241 283 284
f 241 284 242
f 242 284 285
f 242 285 246
f 242 246 245
f 243 250 244
f 243 249 286
f 243 286 287
f 246 285 247
f 247 288 289
f 247 289 290
f 247 290 291
f 247 291 292
f 247 292 287
f 247 287 286
f 247 286 248
f 247 285 288
f 248 286 249
f 252 293 253
f 253 293 273
f 254 294 295
f 254 295 255
f 254 259 272
f 254 272 294
f 255 295 296
f 255 296 256
f 256 296 297
f 256 297 260
f 260 297 298
f 260 298 261
f 261 298 299
f 261 299 262
f 262 299 300
f 264 301 302
f 264 302 265
f 265 302 303
f 265 303 266
f 266 303 267
f 267 303 304
f 267 304 305
f 267 305 269
f 267 269 268
f 269 305 306
f 269 306 270
f 270 306 307
f 270 307 308
f 270 308 271
f 271 308 309
f 271 309 294
f 271 294 272
f 273 293 310
f 273 310 274
f 274 310 311
f 274 311 312
f 274 312 275
f 275 312 313
f 275 313 314
f 275 314 276
f 276 314 277
f 277 314 278
f 278 314 315
f 278 315 279
f 279 316 317
f 279 317 318
f 279 318 280
f 279 315 316
f 280 318 281
f 281 318 282
f 282 318 319
f 282 319 283
f 283 320 321
f 283 321 284
f 283 319 320
f 284 321 322
f 284 322 288
f 284 288 285
f 287 292 291
f 287 291 323
f 288 322 289
f 289 324 325
f 289 325 326
f 289 326 327
f 289 327 328
f 289 328 291
f 289 291 290
f 289 322 324
f 291 328 329
f 291 329 323
f 294 309 330
f 294 330 295
f 295 330 331
f 295 331 296
f 296 331 297
f 297 331 332
f 297 332 333
f 297 333 334
f 297 334 298
f 298 334 335
f 298 335 336
f 298 336 337
f 298 337 300
f 298 300 299
f 301 338 339
f 301 339 302
f 302 339 340
f 302 340 303
f 303 340 341
f 303 341 304
f 304 341 342
f 304 342 343
f 304 343 306
f 304 306 305
f 306 343 344
f 306 344 307
f 307 344 345
f 307 345 346
f 307 346 347
f 307 347 308
f 308 347 309
f 309 347 330
f 310 348 311
f 311 349 350
f 311 350 312
f 311 348 349
f 312 351 313
f 312 350 351
f 313 351 352
f 313 352 353
f 313 353 354
f 313 354 355
f 313 355 314
f 314 355 356
f 314 356 315
f 315 356 357
f 315 357 316
f 316 357 358
f 316 358 317
f 317 358 359
f 317 359 318
f 318 359 360
f 318 360 319
f 319 360 320
f 320 360 361
f 320 361 362
f 320 362 363
f 320 363 321
f 321 363 364
f 321 364 365
f 321 365 322
f 322 365 324
f 323 329 366
f 324 365 367
f 324 367 325
f 325 367 368
f 325 368 326
f 326 329 327
f 326 368 369
f 326 369 370
f 326 370 371
f 326 371 372
f 326 372 329
f 327 329 328
f 329 372 373
f 329 373 366
f 330 347 374
f 330 374 331
f 331 374 375
f 331 375 332
f 332 375 333
f 333 376 377
f 333 377 378
f 333 378 379
f 333 379 334
f 333 375 376
f 334 379 335
f 335 379 380
f 335 380 381
f 335 381 336
f 338 382 383
f 338 383 384
f 338 384 339
f 339 384 341
f 339 341 340
f 341 384 385
f 341 385 342
f 342 385 386
f 342 386 387
f 342 387 344
f 342 344 343
f 344 387 388
f 344 388 345
f 345 388 389
f 345 389 390
f 345 390 391
f 345 391 346
f 346 391 374
f 346 374 347
f 353 392 354
f 354 392 393
f 354 393 355
f 355 393 356
f 356 394 395
f 356 395 357
f 356 393 394
f 357 395 396
f 357 396 358
f 358 397 359
f 358 396 397
f 359 397 360
f 360 397 398
f 360 398 399
f 360 399 361
f 361 399 400
f 361 400 362
f 362 400 401
f 362 401 364
f 362 364 363
f 364 401 389
f 364 389 402
f 364 402 367
f 364 367 365
f 367 402 368
f 368 403 386
f 368 386 369
f 368 402 403
f 369 386 385
f 369 385 404
f 369 404 405
f 369 405 370
f 370 405 371
f 371 406 372
f 371 405 382
f 372 406 373
f 374 391 407
f 374 407 375
f 375 407 408
f 375 408 376
f 376 408 377
f 377 409 410
f 377 410 411
f 377 411 412
f 377 412 378
f 377 408 409
f 378 412 413
f 378 413 379
f 379 413 414
f 379 414 415
f 379 415 380
f 382 404 383
f 382 405 404
f 383 404 385
f 383 385 384
f 386 403 388
f 386 388 387
f 388 403 402
f 388 402 389
f 389 401 416
f 389 416 390
f 390 416 391
f 391 416 407
f 392 417 418
f 392 418 393
f 393 418 419
f 393 419 394
f 394 419 420
f 394 420 395
f 395 420 421
f 395 421 396
f 396 421 397
f 397 421 422
f 397 422 410
f 397 410 398
f 398 410 399
f 399 410 409
f 399 409 408
f 399 408 400
f 400 408 416
f 400 416 401
f 407 416 408
f 410 422 423
f 410 423 411
f 411 423 424
f 411 424 412
f 412 424 425
f 412 425 413
f 413 425 426
f 413 426 414
f 417 427 418
f 418 427 419
f 419 427 420
f 420 427 428
f 420 428 429
f 420 429 430
f 420 430 421
f 421 431 422
f 421 430 431
f 422 431 423
f 423 431 432
f 423 432 424
f 424 433 425
f 424 432 433
f 425 433 434
f 425 434 426
f 429 435 430
f 430 435 436
f 430 436 431
f 431 436 437
f 431 437 432

