# https://github.com/mikedh/trimesh
v 0.00062380 0.06093378 0.01085019
v 0.00304064 0.06086417 0.01085019
v 0.00304064 0.06056831 0.01010265
v 0.00182923 0.06058571 0.01007970
v 0.00062380 0.06059731 0.01006658
v 0.00002108 0.06059152 0.01006658
v 0.00002108 0.06075395 0.01045019
v 0.00002108 0.06091638 0.01085019
v 0.01089387 0.05983156 0.01326657
v 0.00425204 0.06081776 0.01085019
v 0.00425204 0.06053930 0.01013216
v 0.01633623 0.05210437 0.00044040
v 0.01513080 0.05210437 0.00045680
v 0.00002108 0.05985476 0.00948626
v 0.00002108 0.01429799 0.03314843
v 0.01089387 0.05923403 0.01415509
v 0.01089387 0.05938486 0.01402394
v 0.01089387 0.06015643 0.01205674
v 0.01150256 0.05933845 0.01397476
v 0.01223059 0.05927464 0.01390263
v 0.01150256 0.05972713 0.01326657
v 0.00545748 0.06049869 0.01019117
v 0.00545748 0.06073074 0.01085019
v 0.00613777 0.06046969 0.01023380
v 0.01704040 0.05202895 0.00051909
v 0.01875904 0.05113557 0.00014860
v 0.01748796 0.05145463 0.00018139
v 0.01633623 0.05139082 0.00006663
v 0.00694338 0.06042328 0.01034199
v 0.01150256 0.05943127 0.01003052
v 0.01448631 0.05202895 0.00054204
v 0.00002108 0.05864231 0.00910593
v 0.00002108 0.00991228 0.03314843
v 0.00062380 0.01429799 0.03314843
v 0.01147869 0.05912381 0.01415509
v 0.00142344 0.01421677 0.03314843
v 0.00182923 0.01416456 0.03314843
v 0.01029712 0.06007521 0.01084691
v 0.00903798 0.06029565 0.01084691
v 0.00788028 0.06047549 0.01084691
v 0.00684194 0.06059731 0.01084691
v 0.01392536 0.05936746 0.01292231
v 0.01150256 0.06004040 0.01205674
v 0.01251106 0.05890337 0.01415509
v 0.01486823 0.05832325 0.01415509
v 0.01513677 0.05828844 0.01412558
v 0.01634817 0.05813180 0.01397476
v 0.01699266 0.05805059 0.01388624
v 0.01303024 0.05916442 0.01374525
v 0.01266025 0.05946608 0.01331247
v 0.00659130 0.06060312 0.01078789
v 0.01243349 0.05932685 0.01014855
v 0.01323910 0.05922823 0.01028625
v 0.01712394 0.05809120 0.01017806
v 0.02078202 0.05690195 0.01016166
v 0.01996448 0.05091512 0.00036827
v 0.02238131 0.04984770 0.00016827
v 0.01996448 0.05018417 -0.00013992
v 0.01875904 0.05018417 -0.00024484
v 0.01754764 0.05018417 -0.00006123
v 0.01513080 0.05139082 0.00027319
v 0.00788028 0.06035366 0.01050593
v 0.01445647 0.05139082 0.00051909
v 0.00002108 0.01392091 0.02515831
v 0.01448034 0.05074109 0.00053221
v 0.00973021 0.00166879 0.03314843
v 0.00002108 0.01073025 0.02787961
v 0.01060146 0.00166879 0.02777469
v 0.00245582 0.01404273 0.03314843
v 0.01470711 0.05929785 0.01133215
v 0.01150256 0.05983156 0.01085019
v 0.01392536 0.05904839 0.01352558
v 0.01463550 0.05927464 0.01273214
v 0.01271993 0.05977935 0.01205674
v 0.00299886 0.01392091 0.03314843
v 0.01513677 0.05825363 0.01415509
v 0.01733281 0.05763290 0.01415509
v 0.01898581 0.05712240 0.01415509
v 0.01996448 0.05697157 0.01401410
v 0.02065671 0.05685554 0.01390263
v 0.01780424 0.05791716 0.01367968
v 0.01745812 0.05822463 0.01327312
v 0.01278557 0.05951829 0.01075183
v 0.01391939 0.05913541 0.01048297
v 0.01792956 0.05796357 0.01039773
v 0.01498161 0.05900199 0.01084691
v 0.02158764 0.05675692 0.01039445
v 0.02323467 0.04967947 0.00037811
v 0.02479815 0.04872807 0.00011581
v 0.02238131 0.04897172 -0.00030058
v 0.05260672 0.00786446 -0.00019894
v 0.05260672 0.00665781 -0.00013336
v 0.01513080 0.05056705 0.00038467
v 0.00002108 0.01287089 0.02567306
v 0.05200401 0.00484204 0.00056827
v 0.05260672 0.00544536 0.00009614
v 0.01395520 0.00166879 0.03314843
v 0.00002108 0.01083467 0.02758125
v 0.01085210 0.00166879 0.02711240
v 0.01062533 0.00166879 0.02769600
v 0.01474291 0.05930365 0.01205674
v 0.01534563 0.05913541 0.01205674
v 0.01634817 0.05885115 0.01205674
v 0.01755361 0.05850308 0.01205674
v 0.01862775 0.05818402 0.01205674
v 0.01847857 0.05813180 0.01120428
v 0.01753570 0.05825943 0.01082068
v 0.01392536 0.05950669 0.01205674
v 0.01846066 0.05813180 0.01287313
v 0.00413866 0.01355543 0.03314843
v 0.02620052 0.05252785 0.01525344
v 0.02626616 0.05303836 0.01499115
v 0.01995851 0.05679173 0.01415509
v 0.02097895 0.05643206 0.01415509
v 0.02238728 0.05588095 0.01415509
v 0.02327047 0.05572431 0.01398132
v 0.02407609 0.05556768 0.01379443
v 0.02146232 0.05669311 0.01366656
v 0.02111024 0.05704118 0.01326657
v 0.01880678 0.05787655 0.01084691
v 0.01996448 0.05749948 0.01085019
v 0.02125346 0.05707019 0.01084691
v 0.02201730 0.05692516 0.01120100
v 0.02419544 0.05561989 0.01024363
v 0.02569328 0.04851343 0.00033221
v 0.02722096 0.04750402 0.00012893
v 0.02606327 0.04784629 0.00000434
v 0.02722096 0.04655262 -0.00031697
v 0.03083130 0.04413352 -0.00034648
v 0.05260672 0.00907691 -0.00018254
v 0.05356749 0.00665781 0.00014860
v 0.05357346 0.00544536 0.00021090
v 0.04897848 0.02237905 -0.00029402
v 0.05018988 0.01874750 -0.00026451
v 0.01218285 0.00166879 0.02599765
v 0.00002108 0.01226757 0.02607961
v 0.05260672 0.00469121 0.00042729
v 0.05342427 0.00465060 0.00038467
v 0.05856229 0.00166879 0.01534852
v 0.05854439 0.00303787 0.01534524
v 0.05850262 0.00424452 0.01532557
v 0.05845488 0.00545696 0.01530590
v 0.01393730 0.00187183 0.03314843
v 0.00002108 0.01095070 0.02727633
v 0.01092968 0.00166879 0.02704027
v 0.01923047 0.05799258 0.01205674
v 0.01996448 0.05775473 0.01205674
v 0.02201133 0.05691936 0.01285673
v 0.00487266 0.01327698 0.03314843
v 0.02620052 0.05139082 0.01567639
v 0.02722693 0.05139082 0.01550262
v 0.02722693 0.05219138 0.01518459
v 0.02620052 0.05400716 0.01429607
v 0.02504879 0.05473231 0.01415509
v 0.02343756 0.05543425 0.01415509
v 0.02787739 0.05202315 0.01510262
v 0.02722693 0.05279471 0.01482721
v 0.02722693 0.05361848 0.01422066
v 0.02658841 0.05440164 0.01385673
v 0.02456542 0.05577652 0.01299116
v 0.02117588 0.05732544 0.01205674
v 0.02213068 0.05697157 0.01205674
v 0.02359272 0.05636824 0.01205674
v 0.02475638 0.05586934 0.01205674
v 0.02536507 0.05559668 0.01205674
v 0.02448784 0.05574751 0.01085019
v 0.02508460 0.05546906 0.01085019
v 0.02620052 0.05485413 0.01066330
v 0.02666598 0.05443064 0.01022068
v 0.02801464 0.04728357 0.00034860
v 0.02963183 0.04619295 0.00021418
v 0.03076566 0.04534017 0.00008959
v 0.02842640 0.04659903 -0.00000222
v 0.02963183 0.04534017 -0.00029730
v 0.03446551 0.04172023 -0.00022189
v 0.03566498 0.04051358 -0.00026123
v 0.03688235 0.03930693 -0.00026123
v 0.04535024 0.02963054 -0.00026123
v 0.04656164 0.02721144 -0.00028418
v 0.05238592 0.01391511 0.00006336
v 0.05249334 0.01270266 0.00002401
v 0.05140129 0.01512176 -0.00019894
v 0.05140129 0.01633420 -0.00015959
v 0.05346605 0.00786446 0.00019778
v 0.06028690 0.00666941 0.01057806
v 0.06033464 0.00545696 0.01047314
v 0.06037641 0.00425032 0.01039445
v 0.06041222 0.00303787 0.01032560
v 0.06044206 0.00182542 0.01026986
v 0.06044206 0.00166879 0.01026658
v 0.04879946 0.02479815 0.00009286
v 0.05018988 0.01995995 -0.00021533
v 0.01267219 0.00166879 0.02575831
v 0.01174722 0.00166879 0.02633535
v 0.00002108 0.01155402 0.02668289
v 0.05260672 0.00440115 0.00117483
v 0.05994078 0.00166879 0.00984035
v 0.05985127 0.00166879 0.00977150
v 0.05864583 0.00166879 0.00927315
v 0.05916501 0.00166879 0.01504033
v 0.05914711 0.00303787 0.01502721
v 0.05910533 0.00424452 0.01500098
v 0.05905760 0.00545696 0.01496820
v 0.05838923 0.00666361 0.01527639
v 0.05743443 0.00787026 0.01561410
v 0.05743443 0.00666361 0.01566655
v 0.01380601 0.00259698 0.03314843
v 0.05743443 0.00908271 0.01554524
v 0.00002108 0.01124656 0.02698125
v 0.01160400 0.00166879 0.02645010
v 0.00547538 0.01299852 0.03314843
v 0.02973925 0.05028859 0.01539442
v 0.02834285 0.05139082 0.01526656
v 0.00648389 0.01246481 0.03314843
v 0.02939910 0.05098474 0.01518787
v 0.03020471 0.05076429 0.01507311
v 0.02868300 0.05179110 0.01496492
v 0.02973925 0.05139082 0.01483049
v 0.02842043 0.05259167 0.01449279
v 0.02815786 0.05336903 0.01402722
v 0.02685098 0.05452927 0.01337148
v 0.02896347 0.05316018 0.01382066
v 0.02701807 0.05460468 0.01304690
v 0.02601553 0.05528922 0.01205674
v 0.02620052 0.05493535 0.01085019
v 0.02695839 0.05456987 0.01085019
v 0.02755514 0.05425081 0.01085019
v 0.02901121 0.05318919 0.01026003
v 0.03132660 0.05192453 0.01036822
v 0.03031809 0.04600151 0.00046008
v 0.03170852 0.04493409 0.00026008
v 0.03208448 0.04419734 -0.00005140
v 0.03558740 0.04165642 0.00019450
v 0.03681671 0.04045557 0.00016172
v 0.03802811 0.03924892 0.00015188
v 0.04045092 0.03683562 0.00015516
v 0.03929919 0.03688783 -0.00024484
v 0.04421641 0.03211345 0.00003057
v 0.04536814 0.03078498 0.00010598
v 0.04662131 0.02844710 0.00002401
v 0.04050462 0.03567538 -0.00023500
v 0.04292743 0.03325629 -0.00012353
v 0.05227254 0.01512176 0.00015516
v 0.05336459 0.00907691 0.00029942
v 0.05118049 0.01874750 0.00008959
v 0.05943951 0.01028936 0.01003052
v 0.06021529 0.00787606 0.01073871
v 0.06050173 0.00787606 0.01134199
v 0.06056737 0.00666941 0.01118461
v 0.06061511 0.00545696 0.01107641
v 0.06065689 0.00425032 0.01100100
v 0.06068076 0.00303787 0.01092887
v 0.06070462 0.00182542 0.01087642
v 0.06069866 0.00166879 0.01085674
v 0.04755225 0.02721144 0.00013877
v 0.04856672 0.02574954 0.00030926
v 0.04971248 0.02330724 0.00037155
v 0.04989748 0.02237905 0.00016172
v 0.01391939 0.00166879 0.02523700
v 0.05136548 0.00166879 0.01127969
v 0.06001240 0.00166879 0.01427968
v 0.05981547 0.00303787 0.01442394
v 0.05978563 0.00424452 0.01439443
v 0.05974386 0.00545696 0.01436492
v 0.05899195 0.00666361 0.01492557
v 0.05969015 0.00666361 0.01432230
v 0.05830569 0.00787026 0.01524033
v 0.01372247 0.00303787 0.03314843
v 0.05743443 0.01028936 0.01545672
v 0.03083727 0.04897172 0.01563377
v 0.03205464 0.04902973 0.01534852
v 0.03083727 0.04995793 0.01526656
v 0.00716418 0.01204132 0.03314843
v 0.03326008 0.04776507 0.01553213
v 0.03165482 0.04970267 0.01515508
v 0.03246043 0.04945322 0.01501738
v 0.03083727 0.05056125 0.01494853
v 0.02964377 0.05234222 0.01416820
v 0.03205464 0.05013776 0.01472885
v 0.03084324 0.05144303 0.01431574
v 0.03045535 0.05211597 0.01398460
v 0.02918427 0.05328781 0.01337148
v 0.03272300 0.05082810 0.01391574
v 0.03124903 0.05187812 0.01370591
v 0.03164885 0.05211017 0.01289608
v 0.02722096 0.05470330 0.01205674
v 0.02934539 0.05338063 0.01300755
v 0.02781174 0.05440744 0.01205674
v 0.02933943 0.05338063 0.01106658
v 0.03164288 0.05211017 0.01117477
v 0.03321830 0.05101954 0.01093215
v 0.03360022 0.05061346 0.01058789
v 0.03502646 0.04954604 0.01028625
v 0.03279461 0.05087451 0.01015183
v 0.03304524 0.04383766 0.00019778
v 0.03636914 0.04844381 0.01017150
v 0.03384489 0.04352440 0.00059450
v 0.03446551 0.04266002 0.00020434
v 0.03512790 0.04237577 0.00046335
v 0.03636318 0.04120392 0.00042073
v 0.03758652 0.04000888 0.00040762
v 0.03880389 0.03880803 0.00040106
v 0.04122669 0.03640053 0.00040106
v 0.04165635 0.03560577 0.00017483
v 0.04379869 0.03325629 0.00028631
v 0.04497429 0.03174798 0.00027647
v 0.04284985 0.03436431 0.00025352
v 0.04623940 0.02963054 0.00022401
v 0.05322734 0.01100871 0.00053876
v 0.05213529 0.01633420 0.00034204
v 0.05926049 0.01218055 0.01022724
v 0.05096566 0.01995995 0.00031582
v 0.05203981 0.01706515 0.00049614
v 0.05932613 0.01150181 0.01014855
v 0.05992288 0.01028936 0.01085019
v 0.06016755 0.00898409 0.01096494
v 0.06045996 0.00851419 0.01144035
v 0.06080010 0.00545696 0.01206002
v 0.06088365 0.00425032 0.01206002
v 0.06093736 0.00303787 0.01206002
v 0.06098510 0.00166879 0.01206002
v 0.06074043 0.00166879 0.01102396
v 0.04730758 0.02805842 0.00036827
v 0.04955136 0.02410780 0.00066991
v 0.04834593 0.02655591 0.00065680
v 0.05320347 0.02905622 0.01023380
v 0.05444471 0.02668934 0.01020757
v 0.05563225 0.02422963 0.01023380
v 0.05083437 0.02066189 0.00049942
v 0.06065092 0.00166879 0.01343050
v 0.06044206 0.00205166 0.01386001
v 0.06042415 0.00303787 0.01382394
v 0.06038835 0.00424452 0.01376492
v 0.05890841 0.00787026 0.01486656
v 0.05821618 0.00908271 0.01519115
v 0.05961854 0.00787026 0.01426328
v 0.06034658 0.00545696 0.01367968
v 0.01345393 0.00398926 0.03314843
v 0.05622899 0.01270846 0.01572229
v 0.05622899 0.01391511 0.01561410
v 0.05811473 0.01028936 0.01513541
v 0.05750604 0.01142639 0.01531574
v 0.05723751 0.01270846 0.01530590
v 0.03326008 0.04859464 0.01520426
v 0.00747449 0.01183248 0.03314843
v 0.00788625 0.01154242 0.03314843
v 0.03446551 0.04654102 0.01564032
v 0.03564708 0.04655262 0.01531574
v 0.03435810 0.04771866 0.01524033
v 0.03326008 0.04920377 0.01485016
v 0.03317653 0.05016097 0.01419443
v 0.03204867 0.05103115 0.01407968
v 0.03306315 0.05095573 0.01337148
v 0.03412536 0.04976068 0.01403378
v 0.03493694 0.04947062 0.01375181
v 0.03352861 0.05056705 0.01352558
v 0.03174433 0.05217398 0.01205674
v 0.03010327 0.05312538 0.01205674
v 0.02950055 0.05346765 0.01205674
v 0.02842640 0.05407677 0.01205674
v 0.03317056 0.05099634 0.01318132
v 0.03389263 0.05080490 0.01271575
v 0.03389263 0.05080490 0.01139445
v 0.03530096 0.04973748 0.01109609
v 0.03568885 0.04929078 0.01075510
v 0.03662575 0.04863525 0.01085019
v 0.03723443 0.04815955 0.01085019
v 0.03847567 0.04697611 0.01056822
v 0.03975869 0.04581587 0.01045675
v 0.04101783 0.04464983 0.01037150
v 0.04224714 0.04346059 0.01033871
v 0.04345257 0.04225394 0.01034527
v 0.04463414 0.04101248 0.01038789
v 0.04240229 0.03515908 0.00044040
v 0.04355402 0.03389442 0.00052237
v 0.04602457 0.03034989 0.00045680
v 0.04952749 0.03501405 0.01031576
v 0.05807892 0.01711157 0.01019773
v 0.05916501 0.01298692 0.01038134
v 0.05945145 0.01263304 0.01081084
v 0.05969612 0.01150181 0.01085019
v 0.05675414 0.02157848 0.01037478
v 0.05689139 0.02077792 0.01017150
v 0.05796554 0.01790633 0.01038134
v 0.06046592 0.00857801 0.01206002
v 0.06056140 0.00787606 0.01206002
v 0.06069269 0.00666941 0.01206002
v 0.05935597 0.01391511 0.01120100
v 0.05930226 0.01439661 0.01132231
v 0.05927242 0.01465186 0.01138461
v 0.05998256 0.01150181 0.01206002
v 0.06020336 0.01028936 0.01206002
v 0.06038238 0.00918133 0.01206002
v 0.06046592 0.00856641 0.01270264
v 0.06050770 0.00787606 0.01280100
v 0.06057930 0.00666941 0.01295837
v 0.06064495 0.00545696 0.01307640
v 0.06068076 0.00425032 0.01315837
v 0.06070462 0.00303787 0.01322067
v 0.06067479 0.00166879 0.01337804
v 0.05192643 0.03134769 0.01035183
v 0.05335266 0.02931728 0.01085019
v 0.05394345 0.02833107 0.01095510
v 0.05422392 0.02750150 0.01062068
v 0.05456406 0.02714763 0.01095510
v 0.05563821 0.02544788 0.01140756
v 0.05543532 0.02503599 0.01060101
v 0.05575756 0.02469372 0.01094199
v 0.05693913 0.02207158 0.01118461
v 0.06065092 0.00281162 0.01337148
v 0.06058527 0.00425032 0.01337148
v 0.06053754 0.00494646 0.01337148
v 0.05953500 0.00908271 0.01418787
v 0.05881889 0.00908271 0.01479115
v 0.06029287 0.00666361 0.01356493
v 0.01322120 0.00462159 0.03314843
v 0.05622899 0.01513916 0.01547967
v 0.05501163 0.01754665 0.01566328
v 0.05501163 0.01875910 0.01549606
v 0.05804909 0.01097390 0.01509279
v 0.05707638 0.01391511 0.01523049
v 0.05796554 0.01178027 0.01504033
v 0.03522935 0.04727197 0.01515508
v 0.03388070 0.04836840 0.01509279
v 0.00860832 0.01100291 0.03314843
v 0.03567692 0.04534597 0.01572229
v 0.03691815 0.04539238 0.01537147
v 0.03654220 0.04616974 0.01519443
v 0.03468034 0.04808994 0.01492230
v 0.03440584 0.04893111 0.01447640
v 0.03336749 0.05076429 0.01337148
v 0.03567692 0.04861204 0.01406656
v 0.03630350 0.04837420 0.01389279
v 0.03559934 0.04924438 0.01337148
v 0.03510403 0.04960405 0.01337148
v 0.03360022 0.05061346 0.01337148
v 0.03235301 0.05180851 0.01205674
v 0.03528903 0.04973168 0.01294526
v 0.03601109 0.04938361 0.01205674
v 0.03540838 0.04981289 0.01205674
v 0.03451922 0.05042202 0.01205674
v 0.03391053 0.05082230 0.01205674
v 0.03681671 0.04877448 0.01205674
v 0.03873228 0.04719075 0.01137477
v 0.04000336 0.04603632 0.01126330
v 0.04126250 0.04487608 0.01117805
v 0.04248584 0.04369844 0.01114199
v 0.04296920 0.04298489 0.01074199
v 0.04369127 0.04249759 0.01115182
v 0.04487881 0.04126773 0.01119445
v 0.04604247 0.04002048 0.01126330
v 0.04580377 0.03975362 0.01045675
v 0.04696146 0.03848316 0.01057806
v 0.04841753 0.03636573 0.01018462
v 0.04861446 0.03661518 0.01085019
v 0.04925895 0.03569859 0.01076822
v 0.04973635 0.03530991 0.01111904
v 0.05081647 0.03391762 0.01137149
v 0.05060164 0.03359856 0.01056494
v 0.05859810 0.01634001 0.01085019
v 0.05895018 0.01508115 0.01093215
v 0.05906356 0.01391511 0.01059773
v 0.05708832 0.02117820 0.01081084
v 0.05814456 0.01851545 0.01118461
v 0.05785812 0.01885192 0.01081084
v 0.05826392 0.01752345 0.01081084
v 0.05852649 0.01754665 0.01206002
v 0.05886067 0.01634001 0.01206002
v 0.05913517 0.01531899 0.01206002
v 0.05929032 0.01470987 0.01206002
v 0.05936790 0.01439661 0.01206002
v 0.05934403 0.01439661 0.01161739
v 0.05973789 0.01270846 0.01206002
v 0.05927839 0.01464026 0.01273214
v 0.05930823 0.01439661 0.01279116
v 0.05936194 0.01391511 0.01290591
v 0.05968418 0.01150181 0.01327312
v 0.05991094 0.01028936 0.01327312
v 0.06017352 0.00901310 0.01316821
v 0.06021529 0.00805590 0.01337148
v 0.06023916 0.00787606 0.01337148
v 0.06035254 0.00697688 0.01337148
v 0.06038835 0.00666361 0.01337148
v 0.05169966 0.03206704 0.01079117
v 0.05212335 0.03167256 0.01115510
v 0.05442085 0.02784957 0.01142723
v 0.05533984 0.02605700 0.01205674
v 0.05563821 0.02544208 0.01206002
v 0.05591869 0.02479815 0.01206002
v 0.05642592 0.02359730 0.01206002
v 0.05674817 0.02279093 0.01206002
v 0.05698687 0.02218761 0.01206002
v 0.05736282 0.02117240 0.01206002
v 0.05777458 0.01996575 0.01206002
v 0.05942758 0.01028936 0.01408623
v 0.05871745 0.01028936 0.01468951
v 0.06022126 0.00787026 0.01340427
v 0.01284524 0.00550337 0.03314843
v 0.05380619 0.02117820 0.01561410
v 0.05259479 0.02360310 0.01568623
v 0.05627674 0.01624138 0.01530590
v 0.05595449 0.01754665 0.01527639
v 0.05692123 0.01513916 0.01514197
v 0.05684365 0.01578309 0.01509279
v 0.05505340 0.01987873 0.01529934
v 0.05784022 0.01270846 0.01496492
v 0.05853245 0.01142639 0.01464033
v 0.05870551 0.01260984 0.01426984
v 0.03603496 0.04696451 0.01498131
v 0.00922894 0.01045759 0.03314843
v 0.03929919 0.04292688 0.01551246
v 0.03817730 0.04422635 0.01540098
v 0.03929919 0.04379706 0.01520426
v 0.03863680 0.04469624 0.01506328
v 0.03564708 0.04771866 0.01469279
v 0.03677494 0.04770126 0.01411574
v 0.03651833 0.04855403 0.01337148
v 0.03761039 0.04725457 0.01395837
v 0.03824294 0.04715595 0.01337148
v 0.03793860 0.04740540 0.01337148
v 0.03872034 0.04717915 0.01271247
v 0.03741943 0.04831038 0.01205674
v 0.03935290 0.04669185 0.01205674
v 0.04006303 0.04608853 0.01205674
v 0.03808779 0.04775347 0.01205674
v 0.04133411 0.04493989 0.01205674
v 0.04194279 0.04438298 0.01205674
v 0.04257535 0.04377965 0.01205674
v 0.04317807 0.04318793 0.01205674
v 0.04376885 0.04258461 0.01205674
v 0.04437753 0.04195228 0.01205674
v 0.04493848 0.04134315 0.01205674
v 0.04554120 0.04068181 0.01205674
v 0.04608424 0.04007849 0.01205674
v 0.04718226 0.03873841 0.01138461
v 0.04748064 0.03808868 0.01092887
v 0.04814303 0.03722430 0.01085019
v 0.04876962 0.03680662 0.01205674
v 0.04936637 0.03600605 0.01205674
v 0.04980199 0.03540273 0.01205674
v 0.05041068 0.03452675 0.01205674
v 0.05081647 0.03392342 0.01205674
v 0.05181304 0.03237451 0.01205674
v 0.05273204 0.03085459 0.01205674
v 0.05800134 0.01927541 0.01206002
v 0.05819827 0.01866048 0.01206002
v 0.05813860 0.01846904 0.01286985
v 0.05947532 0.01391511 0.01206002
v 0.05827585 0.01754665 0.01310591
v 0.05819231 0.01732621 0.01337148
v 0.05919485 0.01439661 0.01299444
v 0.05915307 0.01295211 0.01372558
v 0.05925452 0.01213994 0.01388624
v 0.05942758 0.01255763 0.01337148
v 0.05985724 0.01028936 0.01337148
v 0.05932016 0.01150181 0.01396164
v 0.05442085 0.02784957 0.01177149
v 0.05348991 0.02954932 0.01205674
v 0.05562628 0.02541887 0.01267968
v 0.05440294 0.02782637 0.01257805
v 0.05692123 0.02202518 0.01284690
v 0.01236784 0.00650118 0.03314843
v 0.05138935 0.02602220 0.01570918
v 0.05469535 0.02117820 0.01524033
v 0.05390167 0.02244866 0.01536820
v 0.05360330 0.02360310 0.01528623
v 0.05242770 0.02602220 0.01530262
v 0.05138935 0.02721724 0.01548951
v 0.05671833 0.01658946 0.01501738
v 0.05575756 0.01875910 0.01516492
v 0.05767910 0.01391511 0.01485344
v 0.05752394 0.01513916 0.01471574
v 0.05842504 0.01391511 0.01424689
v 0.03691815 0.04655262 0.01479115
v 0.00985553 0.00986587 0.03314843
v 0.04051059 0.04172023 0.01553213
v 0.04161458 0.04161581 0.01520426
v 0.04039124 0.04281085 0.01519115
v 0.03990787 0.04353600 0.01508623
v 0.03929919 0.04439458 0.01488623
v 0.03929322 0.04535758 0.01427640
v 0.03804601 0.04652362 0.01420427
v 0.03817730 0.04539238 0.01486328
v 0.03804005 0.04744601 0.01317476
v 0.03888147 0.04610593 0.01400099
v 0.03968708 0.04576366 0.01363050
v 0.03841600 0.04690069 0.01352558
v 0.04000336 0.04603632 0.01282395
v 0.04125653 0.04487028 0.01288296
v 0.04247987 0.04369263 0.01291575
v 0.04369724 0.04250339 0.01292231
v 0.04487284 0.04126773 0.01287640
v 0.04603650 0.04002048 0.01282395
v 0.04669293 0.03934754 0.01205674
v 0.04717033 0.03872681 0.01269280
v 0.04829222 0.03740414 0.01205674
v 0.04970652 0.03528090 0.01289936
v 0.05079260 0.03388862 0.01268952
v 0.05211142 0.03164936 0.01286985
v 0.05700477 0.02098676 0.01337148
v 0.05740460 0.01996575 0.01327312
v 0.05778652 0.01882292 0.01327312
v 0.05781635 0.01855606 0.01337148
v 0.05792974 0.01754665 0.01371574
v 0.05802522 0.01690272 0.01386001
v 0.05902776 0.01391511 0.01351247
v 0.05813860 0.01609636 0.01398460
v 0.05826392 0.01513916 0.01411246
v 0.05415230 0.02833107 0.01212887
v 0.05536371 0.02480395 0.01350919
v 0.05563821 0.02440947 0.01337148
v 0.05575756 0.02479815 0.01290263
v 0.05338250 0.02936369 0.01296165
v 0.05460584 0.02702000 0.01299116
v 0.05421795 0.02731006 0.01337148
v 0.05434923 0.02650370 0.01379771
v 0.05597239 0.02360890 0.01337148
v 0.05676607 0.02163069 0.01337148
v 0.01200979 0.00710451 0.03314843
v 0.05017795 0.02841809 0.01568623
v 0.04897251 0.03084879 0.01562721
v 0.05563821 0.01942624 0.01509934
v 0.05452229 0.02208319 0.01515508
v 0.05337056 0.02458350 0.01518131
v 0.05436714 0.02289535 0.01506328
v 0.05214126 0.02721724 0.01516492
v 0.05136548 0.02829627 0.01525344
v 0.05027343 0.02970016 0.01538131
v 0.05656318 0.01754665 0.01492230
v 0.05732702 0.01754665 0.01431574
v 0.01044034 0.00921614 0.03314843
v 0.04292743 0.03929533 0.01551574
v 0.04172199 0.04050778 0.01553541
v 0.04282598 0.04039175 0.01519443
v 0.04235455 0.04113431 0.01509934
v 0.04114315 0.04234676 0.01509607
v 0.04071349 0.04315312 0.01487312
v 0.04014658 0.04495729 0.01404033
v 0.04095219 0.04459762 0.01369279
v 0.04025399 0.04545040 0.01337148
v 0.04160861 0.04421474 0.01337148
v 0.04108347 0.04470204 0.01337148
v 0.04232471 0.04353600 0.01337148
v 0.04354208 0.04232935 0.01337148
v 0.04458640 0.04096027 0.01369279
v 0.04299904 0.04287467 0.01337148
v 0.04513541 0.04060640 0.01337148
v 0.04545169 0.04025833 0.01336493
v 0.04585151 0.03980584 0.01336493
v 0.04672873 0.03872681 0.01336493
v 0.04741499 0.03803647 0.01316493
v 0.04862043 0.03661518 0.01304362
v 0.04694953 0.03845416 0.01336493
v 0.04955733 0.03505466 0.01336493
v 0.04990344 0.03454415 0.01337148
v 0.04905009 0.03575660 0.01336493
v 0.05091792 0.03301263 0.01337148
v 0.05057181 0.03354054 0.01337148
v 0.05165192 0.03185820 0.01336493
v 0.05184288 0.03120847 0.01367968
v 0.05221883 0.03091840 0.01336493
v 0.05683768 0.02059228 0.01388624
v 0.05693913 0.01996575 0.01398787
v 0.05713606 0.01875910 0.01417148
v 0.05553677 0.02404399 0.01377804
v 0.05311993 0.02887639 0.01377148
v 0.05359136 0.02850511 0.01336493
v 0.05454616 0.02569153 0.01400427
v 0.05334072 0.02809903 0.01400755
v 0.05667656 0.02139865 0.01365345
v 0.01150256 0.00785866 0.03314843
v 0.04775514 0.03323888 0.01551574
v 0.04654971 0.03446293 0.01565016
v 0.04991538 0.03084879 0.01525344
v 0.04900235 0.03202643 0.01532557
v 0.05548306 0.02023261 0.01500754
v 0.05636028 0.01875910 0.01477148
v 0.05319154 0.02538987 0.01507639
v 0.05529807 0.02117820 0.01489607
v 0.05496388 0.02244866 0.01478131
v 0.05420601 0.02360310 0.01496820
v 0.05199207 0.02783797 0.01508623
v 0.05073293 0.03015265 0.01506328
v 0.01098935 0.00859541 0.03314843
v 0.04533830 0.03566958 0.01572557
v 0.04422835 0.03818150 0.01540754
v 0.04504590 0.03784503 0.01522721
v 0.04381062 0.03929533 0.01520426
v 0.04354208 0.03991025 0.01508951
v 0.04194876 0.04194647 0.01488623
v 0.04316016 0.04071662 0.01487639
v 0.04166829 0.04288047 0.01447640
v 0.04138781 0.04379126 0.01406656
v 0.04219343 0.04340258 0.01372558
v 0.04341080 0.04219013 0.01373214
v 0.04495638 0.04014810 0.01405673
v 0.04576797 0.03968981 0.01363050
v 0.04690776 0.03838454 0.01350919
v 0.04813706 0.03695745 0.01336493
v 0.04851301 0.03647595 0.01336493
v 0.04944991 0.03487482 0.01371574
v 0.04834593 0.03624970 0.01385345
v 0.05079260 0.03266456 0.01388624
v 0.05208158 0.03039050 0.01396492
v 0.05625287 0.02107958 0.01421082
v 0.05571579 0.02323762 0.01397476
v 0.05587692 0.02238485 0.01411574
v 0.05475503 0.02480395 0.01417476
v 0.05356152 0.02721724 0.01418132
v 0.05230238 0.02963634 0.01414197
v 0.05136548 0.02970016 0.01480099
v 0.05274398 0.02721724 0.01478787
v 0.04771934 0.03433531 0.01524033
v 0.04656164 0.03565218 0.01532229
v 0.04540394 0.03692844 0.01537147
v 0.04967668 0.03160295 0.01514197
v 0.04836979 0.03387121 0.01508951
v 0.04856075 0.03323888 0.01518459
v 0.05303638 0.02602220 0.01499115
v 0.05508324 0.02362050 0.01432230
v 0.05378829 0.02490837 0.01483377
v 0.05051810 0.03084879 0.01492557
v 0.04943201 0.03241511 0.01500098
v 0.04469978 0.03863979 0.01506656
v 0.04616779 0.03655717 0.01519115
v 0.04585748 0.03736933 0.01503705
v 0.04441334 0.03929533 0.01490262
v 0.04287969 0.04166802 0.01447640
v 0.04260518 0.04258461 0.01407968
v 0.04377482 0.04138376 0.01406984
v 0.04535621 0.03928953 0.01428951
v 0.04610214 0.03888344 0.01400755
v 0.04723597 0.03757238 0.01394525
v 0.04971845 0.03408006 0.01401083
v 0.04864430 0.03544334 0.01410919
v 0.05014214 0.03314026 0.01415837
v 0.05098356 0.03204384 0.01404689
v 0.05141919 0.03081979 0.01428623
v 0.04728371 0.03523449 0.01515508
v 0.04808932 0.03466598 0.01491902
v 0.04916944 0.03323888 0.01482394
v 0.05011827 0.03202643 0.01468951
v 0.04697340 0.03605246 0.01498459
v 0.04656164 0.03692844 0.01480099
v 0.04651987 0.03802487 0.01421082
v 0.04540394 0.03818150 0.01487967
v 0.04750451 0.03686463 0.01415837
v 0.04890687 0.03437592 0.01446328
f 1 2 3
f 1 3 4
f 1 4 5
f 1 5 6
f 1 6 7
f 1 7 8
f 1 8 9
f 1 9 2
f 2 10 11
f 2 11 3
f 2 9 10
f 3 11 12
f 3 12 4
f 4 12 5
f 5 12 6
f 6 12 13
f 6 13 14
f 6 14 32
f 6 32 64
f 6 64 94
f 6 94 136
f 6 136 195
f 6 195 209
f 6 209 144
f 6 144 98
f 6 98 67
f 6 67 33
f 6 33 15
f 6 15 8
f 6 8 7
f 8 15 16
f 8 16 17
f 8 17 9
f 9 18 10
f 9 17 19
f 9 19 20
f 9 20 21
f 9 21 18
f 10 22 11
f 10 18 23
f 10 23 24
f 10 24 22
f 11 22 12
f 12 25 26
f 12 26 27
f 12 27 28
f 12 28 13
f 12 22 24
f 12 24 29
f 12 29 30
f 12 30 25
f 13 28 31
f 13 31 14
f 14 31 32
f 15 33 66
f 15 66 97
f 15 97 143
f 15 143 207
f 15 207 268
f 15 268 338
f 15 338 416
f 15 416 498
f 15 498 562
f 15 562 619
f 15 619 671
f 15 671 684
f 15 684 631
f 15 631 575
f 15 575 510
f 15 510 425
f 15 425 346
f 15 346 345
f 15 345 273
f 15 273 214
f 15 214 211
f 15 211 149
f 15 149 110
f 15 110 75
f 15 75 69
f 15 69 37
f 15 37 36
f 15 36 34
f 15 34 16
f 16 35 19
f 16 19 17
f 16 34 36
f 16 36 37
f 16 37 35
f 18 38 39
f 18 39 40
f 18 40 41
f 18 41 23
f 18 21 42
f 18 42 43
f 18 43 38
f 19 35 20
f 20 44 45
f 20 45 46
f 20 46 47
f 20 47 48
f 20 48 49
f 20 49 42
f 20 42 50
f 20 50 21
f 20 35 44
f 21 50 42
f 23 41 51
f 23 51 24
f 24 51 41
f 24 41 29
f 25 30 52
f 25 52 53
f 25 53 54
f 25 54 55
f 25 55 56
f 25 56 26
f 26 56 57
f 26 57 58
f 26 58 59
f 26 59 27
f 27 59 28
f 28 59 60
f 28 60 61
f 28 61 31
f 29 41 40
f 29 40 62
f 29 62 30
f 30 62 52
f 31 61 63
f 31 63 32
f 32 63 65
f 32 65 64
f 33 67 68
f 33 68 66
f 35 37 69
f 35 69 44
f 38 62 39
f 38 43 70
f 38 70 71
f 38 71 53
f 38 53 52
f 38 52 62
f 39 62 40
f 42 49 72
f 42 72 48
f 42 48 73
f 42 73 43
f 43 73 74
f 43 74 70
f 44 69 75
f 44 75 45
f 45 76 46
f 45 75 76
f 46 76 47
f 47 76 77
f 47 77 48
f 48 77 78
f 48 78 79
f 48 79 80
f 48 80 81
f 48 81 82
f 48 82 73
f 48 72 49
f 53 71 83
f 53 83 70
f 53 70 84
f 53 84 54
f 54 85 55
f 54 84 86
f 54 86 85
f 55 87 56
f 55 85 87
f 56 87 88
f 56 88 57
f 57 88 89
f 57 89 90
f 57 90 58
f 58 90 59
f 59 90 91
f 59 91 92
f 59 92 60
f 60 93 61
f 60 92 93
f 61 93 65
f 61 65 63
f 64 65 95
f 64 95 94
f 65 93 96
f 65 96 95
f 66 68 100
f 66 100 99
f 66 99 145
f 66 145 210
f 66 210 194
f 66 194 135
f 66 135 193
f 66 193 259
f 66 259 260
f 66 260 199
f 66 199 198
f 66 198 197
f 66 197 190
f 66 190 254
f 66 254 322
f 66 322 321
f 66 321 400
f 66 400 330
f 66 330 261
f 66 261 200
f 66 200 139
f 66 139 97
f 67 98 99
f 67 99 100
f 67 100 68
f 70 101 102
f 70 102 103
f 70 103 104
f 70 104 105
f 70 105 106
f 70 106 107
f 70 107 85
f 70 85 86
f 70 86 84
f 70 83 71
f 70 74 108
f 70 108 101
f 73 82 109
f 73 109 104
f 73 104 103
f 73 103 102
f 73 102 101
f 73 101 108
f 73 108 74
f 75 110 111
f 75 111 76
f 76 111 77
f 77 111 78
f 78 111 112
f 78 112 113
f 78 113 79
f 79 113 114
f 79 114 80
f 80 109 81
f 80 114 115
f 80 115 116
f 80 116 117
f 80 117 118
f 80 118 119
f 80 119 109
f 81 109 82
f 85 107 106
f 85 106 120
f 85 120 121
f 85 121 87
f 87 121 122
f 87 122 123
f 87 123 124
f 87 124 88
f 88 124 125
f 88 125 89
f 89 125 126
f 89 126 127
f 89 127 128
f 89 128 90
f 90 128 129
f 90 129 91
f 91 130 131
f 91 131 132
f 91 132 92
f 91 129 133
f 91 133 134
f 91 134 130
f 92 132 96
f 92 96 93
f 94 135 136
f 94 95 135
f 95 96 137
f 95 137 135
f 96 132 138
f 96 138 137
f 97 139 140
f 97 140 141
f 97 141 142
f 97 142 143
f 98 144 99
f 99 144 145
f 104 109 105
f 105 109 146
f 105 146 106
f 106 146 147
f 106 147 123
f 106 123 122
f 106 122 121
f 106 121 120
f 109 119 148
f 109 148 147
f 109 147 146
f 110 149 111
f 111 150 151
f 111 151 152
f 111 152 112
f 111 149 150
f 112 153 154
f 112 154 155
f 112 155 115
f 112 115 114
f 112 114 113
f 112 152 156
f 112 156 157
f 112 157 158
f 112 158 153
f 115 155 116
f 116 155 154
f 116 154 159
f 116 159 117
f 117 159 160
f 117 160 148
f 117 148 118
f 118 148 119
f 123 147 161
f 123 161 162
f 123 162 163
f 123 163 164
f 123 164 165
f 123 165 166
f 123 166 124
f 124 166 167
f 124 167 168
f 124 168 169
f 124 169 125
f 125 169 170
f 125 170 126
f 126 170 171
f 126 171 172
f 126 172 173
f 126 173 127
f 127 173 174
f 127 174 128
f 128 174 129
f 129 174 175
f 129 175 176
f 129 176 177
f 129 177 178
f 129 178 179
f 129 179 133
f 130 180 181
f 130 181 131
f 130 134 182
f 130 182 183
f 130 183 180
f 131 181 180
f 131 180 184
f 131 184 185
f 131 185 186
f 131 186 187
f 131 187 188
f 131 188 189
f 131 189 190
f 131 190 132
f 132 190 138
f 133 191 192
f 133 192 134
f 133 179 191
f 134 192 183
f 134 183 182
f 135 194 195
f 135 195 136
f 135 137 193
f 137 138 196
f 137 196 193
f 138 190 197
f 138 197 198
f 138 198 199
f 138 199 196
f 139 200 140
f 140 200 201
f 140 201 141
f 141 201 142
f 142 201 202
f 142 202 203
f 142 203 204
f 142 204 205
f 142 205 206
f 142 206 143
f 143 206 205
f 143 205 208
f 143 208 207
f 144 209 210
f 144 210 145
f 147 148 161
f 148 162 161
f 148 160 164
f 148 164 163
f 148 163 162
f 149 211 150
f 150 211 151
f 151 212 213
f 151 213 152
f 151 211 214
f 151 214 212
f 152 213 156
f 153 158 159
f 153 159 154
f 156 213 215
f 156 215 216
f 156 216 217
f 156 217 157
f 157 217 218
f 157 218 219
f 157 219 220
f 157 220 158
f 158 220 159
f 159 221 160
f 159 220 222
f 159 222 221
f 160 221 223
f 160 223 224
f 160 224 165
f 160 165 164
f 165 224 167
f 165 167 166
f 167 224 225
f 167 225 168
f 168 225 226
f 168 226 169
f 169 226 227
f 169 227 228
f 169 228 170
f 170 228 229
f 170 229 230
f 170 230 171
f 171 230 231
f 171 231 172
f 172 231 232
f 172 232 174
f 172 174 173
f 174 232 175
f 175 233 234
f 175 234 176
f 175 232 233
f 176 234 235
f 176 235 177
f 177 235 236
f 177 236 237
f 177 237 178
f 178 238 239
f 178 239 240
f 178 240 191
f 178 191 179
f 178 237 241
f 178 241 242
f 178 242 238
f 180 183 243
f 180 243 244
f 180 244 184
f 183 192 245
f 183 245 243
f 184 244 246
f 184 246 185
f 185 246 247
f 185 247 248
f 185 248 249
f 185 249 250
f 185 250 186
f 186 250 187
f 187 250 251
f 187 251 188
f 188 251 252
f 188 252 189
f 189 252 253
f 189 253 254
f 189 254 190
f 191 255 256
f 191 256 257
f 191 257 258
f 191 258 192
f 191 240 255
f 192 258 245
f 193 196 259
f 194 210 195
f 195 210 209
f 196 199 260
f 196 260 259
f 200 261 201
f 201 261 262
f 201 262 263
f 201 263 202
f 202 263 264
f 202 264 203
f 203 265 204
f 203 264 266
f 203 266 265
f 204 267 208
f 204 208 205
f 204 265 267
f 207 208 269
f 207 269 268
f 208 267 269
f 212 215 213
f 212 214 270
f 212 270 271
f 212 271 272
f 212 272 215
f 214 273 274
f 214 274 270
f 215 272 216
f 216 218 217
f 216 272 275
f 216 275 276
f 216 276 277
f 216 277 218
f 218 278 219
f 218 277 279
f 218 279 280
f 218 280 278
f 219 278 220
f 220 278 281
f 220 281 222
f 221 222 282
f 221 282 223
f 222 281 283
f 222 283 284
f 222 284 285
f 222 285 282
f 223 286 224
f 223 282 287
f 223 287 288
f 223 288 286
f 224 286 226
f 224 226 225
f 226 286 288
f 226 288 289
f 226 289 227
f 227 289 228
f 228 289 229
f 229 290 291
f 229 291 292
f 229 292 293
f 229 293 294
f 229 294 230
f 229 289 290
f 230 294 293
f 230 293 231
f 231 295 232
f 231 293 296
f 231 296 297
f 231 297 295
f 232 295 298
f 232 298 233
f 233 298 299
f 233 299 300
f 233 300 234
f 234 300 301
f 234 301 302
f 234 302 235
f 235 302 303
f 235 303 236
f 236 303 304
f 236 304 241
f 236 241 237
f 238 305 306
f 238 306 239
f 238 242 304
f 238 304 307
f 238 307 305
f 239 308 255
f 239 255 240
f 239 306 308
f 241 304 242
f 243 309 244
f 243 245 310
f 243 310 311
f 243 311 309
f 244 309 246
f 245 312 313
f 245 313 310
f 245 258 312
f 246 314 315
f 246 315 247
f 246 309 314
f 247 315 316
f 247 316 317
f 247 317 248
f 248 317 318
f 248 318 249
f 249 318 319
f 249 319 250
f 250 319 251
f 251 319 320
f 251 320 321
f 251 321 252
f 252 321 253
f 253 321 322
f 253 322 254
f 255 323 256
f 255 308 323
f 256 324 257
f 256 323 325
f 256 325 326
f 256 326 327
f 256 327 328
f 256 328 324
f 257 329 312
f 257 312 258
f 257 324 328
f 257 328 329
f 261 330 331
f 261 331 262
f 262 331 263
f 263 331 332
f 263 332 264
f 264 332 333
f 264 333 266
f 265 334 335
f 265 335 267
f 265 266 336
f 265 336 334
f 266 333 337
f 266 337 336
f 267 335 269
f 268 269 339
f 268 339 340
f 268 340 338
f 269 335 341
f 269 341 342
f 269 342 343
f 269 343 340
f 269 340 339
f 270 274 271
f 271 275 272
f 271 274 344
f 271 344 275
f 273 345 274
f 274 345 346
f 274 346 347
f 274 347 348
f 274 348 349
f 274 349 344
f 275 344 276
f 276 344 350
f 276 350 279
f 276 279 277
f 278 280 281
f 279 350 351
f 279 351 352
f 279 352 280
f 280 352 281
f 281 352 283
f 282 285 287
f 283 353 284
f 283 352 351
f 283 351 354
f 283 354 355
f 283 355 356
f 283 356 353
f 284 353 285
f 285 357 358
f 285 358 359
f 285 359 360
f 285 360 287
f 285 353 361
f 285 361 362
f 285 362 357
f 287 360 288
f 288 360 289
f 289 360 290
f 290 360 359
f 290 359 358
f 290 358 357
f 290 357 363
f 290 363 291
f 291 363 292
f 292 363 293
f 293 363 364
f 293 364 365
f 293 365 366
f 293 366 296
f 295 297 299
f 295 299 298
f 296 366 367
f 296 367 368
f 296 368 299
f 296 299 297
f 299 368 369
f 299 369 370
f 299 370 300
f 300 370 371
f 300 371 301
f 301 371 302
f 302 371 303
f 303 371 372
f 303 372 373
f 303 373 374
f 303 374 304
f 304 374 307
f 305 375 306
f 305 307 375
f 306 376 308
f 306 375 377
f 306 377 376
f 307 374 375
f 308 376 323
f 309 311 314
f 310 313 378
f 310 378 311
f 311 378 379
f 311 379 380
f 311 380 381
f 311 381 315
f 311 315 314
f 312 329 382
f 312 382 313
f 313 382 383
f 313 383 384
f 313 384 378
f 315 317 316
f 315 381 317
f 317 385 386
f 317 386 387
f 317 387 318
f 317 381 388
f 317 388 389
f 317 389 390
f 317 390 391
f 317 391 392
f 317 392 393
f 317 393 385
f 318 387 394
f 318 394 395
f 318 395 396
f 318 396 319
f 319 396 397
f 319 397 320
f 320 397 398
f 320 398 321
f 321 398 399
f 321 399 400
f 323 326 325
f 323 376 326
f 326 376 401
f 326 401 402
f 326 402 403
f 326 403 404
f 326 404 327
f 327 404 405
f 327 405 406
f 327 406 407
f 327 407 328
f 328 407 406
f 328 406 408
f 328 408 409
f 328 409 382
f 328 382 329
f 330 400 410
f 330 410 331
f 331 410 332
f 332 410 411
f 332 411 333
f 333 411 412
f 333 412 337
f 334 336 413
f 334 413 414
f 334 414 341
f 334 341 335
f 336 337 413
f 337 412 397
f 337 397 415
f 337 415 413
f 338 340 417
f 338 417 418
f 338 418 419
f 338 419 416
f 340 343 417
f 341 420 342
f 341 414 420
f 342 420 343
f 343 421 417
f 343 420 422
f 343 422 421
f 344 349 423
f 344 423 424
f 344 424 350
f 346 425 347
f 347 426 427
f 347 427 348
f 347 425 426
f 348 423 349
f 348 427 428
f 348 428 423
f 350 424 429
f 350 429 430
f 350 430 354
f 350 354 351
f 353 356 431
f 353 431 361
f 354 430 432
f 354 432 433
f 354 433 355
f 355 434 435
f 355 435 356
f 355 433 434
f 356 435 436
f 356 436 431
f 357 362 437
f 357 437 363
f 361 431 362
f 362 436 435
f 362 435 438
f 362 438 439
f 362 439 440
f 362 440 441
f 362 441 442
f 362 442 437
f 362 431 436
f 363 437 442
f 363 442 441
f 363 441 440
f 363 440 439
f 363 439 364
f 364 366 365
f 364 439 443
f 364 443 444
f 364 444 366
f 366 444 367
f 367 444 368
f 368 444 369
f 369 444 445
f 369 445 446
f 369 446 370
f 370 446 447
f 370 447 371
f 371 447 448
f 371 448 372
f 372 449 450
f 372 450 373
f 372 448 449
f 373 450 451
f 373 451 452
f 373 452 374
f 374 452 375
f 375 452 453
f 375 453 454
f 375 454 377
f 376 377 401
f 377 454 455
f 377 455 456
f 377 456 457
f 377 457 458
f 377 458 459
f 377 459 401
f 378 384 460
f 378 460 461
f 378 461 462
f 378 462 379
f 379 462 388
f 379 388 380
f 380 388 381
f 382 409 463
f 382 463 464
f 382 464 465
f 382 465 384
f 382 384 383
f 384 465 464
f 384 464 466
f 384 466 460
f 385 393 394
f 385 394 386
f 386 394 387
f 388 462 389
f 389 462 390
f 390 462 461
f 390 461 460
f 390 460 466
f 390 466 464
f 390 464 467
f 390 467 468
f 390 468 469
f 390 469 470
f 390 470 471
f 390 471 472
f 390 472 473
f 390 473 391
f 391 394 392
f 391 473 474
f 391 474 394
f 392 394 393
f 394 474 475
f 394 475 476
f 394 476 477
f 394 477 478
f 394 478 479
f 394 479 480
f 394 480 481
f 394 481 395
f 395 481 482
f 395 482 396
f 396 482 483
f 396 483 397
f 397 483 415
f 397 412 411
f 397 411 398
f 398 410 399
f 398 411 410
f 399 410 400
f 401 459 484
f 401 484 485
f 401 485 402
f 402 485 486
f 402 486 403
f 403 486 404
f 404 486 405
f 405 486 406
f 406 486 487
f 406 487 488
f 406 488 489
f 406 489 490
f 406 490 491
f 406 491 492
f 406 492 409
f 406 409 408
f 409 492 493
f 409 493 494
f 409 494 464
f 409 464 463
f 413 495 496
f 413 496 414
f 413 415 495
f 414 496 422
f 414 422 420
f 415 483 482
f 415 482 481
f 415 481 480
f 415 480 497
f 415 497 495
f 416 419 499
f 416 499 500
f 416 500 498
f 417 501 502
f 417 502 418
f 417 421 503
f 417 503 504
f 417 504 501
f 418 502 419
f 419 505 499
f 419 502 505
f 421 422 503
f 422 506 504
f 422 504 503
f 422 496 507
f 422 507 508
f 422 508 506
f 423 429 424
f 423 428 509
f 423 509 429
f 425 510 511
f 425 511 426
f 426 511 427
f 427 511 512
f 427 512 513
f 427 513 428
f 428 513 514
f 428 514 509
f 429 509 515
f 429 515 432
f 429 432 430
f 432 516 433
f 432 515 516
f 433 517 434
f 433 516 518
f 433 518 519
f 433 519 520
f 433 520 517
f 434 438 435
f 434 517 438
f 438 443 439
f 438 517 521
f 438 521 443
f 443 521 522
f 443 522 444
f 444 523 524
f 444 524 445
f 444 522 525
f 444 525 523
f 445 524 526
f 445 526 446
f 446 526 527
f 446 527 528
f 446 528 447
f 447 528 529
f 447 529 449
f 447 449 448
f 449 529 530
f 449 530 531
f 449 531 450
f 450 531 451
f 451 453 452
f 451 531 532
f 451 532 533
f 451 533 534
f 451 534 535
f 451 535 453
f 453 535 536
f 453 536 537
f 453 537 454
f 454 537 455
f 455 537 457
f 455 457 456
f 457 537 535
f 457 535 538
f 457 538 458
f 458 538 539
f 458 539 540
f 458 540 541
f 458 541 542
f 458 542 543
f 458 543 544
f 458 544 485
f 458 485 484
f 458 484 459
f 464 494 545
f 464 545 546
f 464 546 467
f 467 474 468
f 467 546 547
f 467 547 474
f 468 474 469
f 469 474 470
f 470 474 471
f 471 474 548
f 471 548 472
f 472 548 473
f 473 548 474
f 474 547 549
f 474 549 550
f 474 550 551
f 474 551 475
f 475 551 552
f 475 552 476
f 476 552 553
f 476 553 554
f 476 554 477
f 477 554 553
f 477 553 478
f 478 555 479
f 478 553 555
f 479 555 480
f 480 555 556
f 480 556 495
f 480 495 497
f 485 544 486
f 486 557 487
f 486 544 558
f 486 558 557
f 487 559 488
f 487 557 560
f 487 560 559
f 488 559 489
f 489 559 490
f 490 559 491
f 491 559 492
f 492 559 561
f 492 561 493
f 493 547 494
f 493 561 547
f 494 547 545
f 495 556 496
f 496 556 507
f 498 500 563
f 498 563 562
f 499 505 564
f 499 564 565
f 499 565 500
f 500 565 566
f 500 566 567
f 500 567 568
f 500 568 563
f 501 504 502
f 502 504 569
f 502 569 570
f 502 570 505
f 504 506 571
f 504 571 572
f 504 572 569
f 505 570 564
f 506 508 573
f 506 573 571
f 507 556 508
f 508 556 573
f 509 574 515
f 509 514 574
f 510 575 576
f 510 576 511
f 511 576 577
f 511 577 578
f 511 578 513
f 511 513 512
f 513 578 579
f 513 579 514
f 514 579 580
f 514 580 581
f 514 581 582
f 514 582 583
f 514 583 574
f 515 574 516
f 516 574 582
f 516 582 518
f 517 520 584
f 517 584 521
f 518 582 581
f 518 581 585
f 518 585 586
f 518 586 587
f 518 587 519
f 519 584 520
f 519 587 586
f 519 586 588
f 519 588 521
f 519 521 584
f 521 588 524
f 521 524 523
f 521 523 525
f 521 525 522
f 524 588 526
f 526 588 527
f 527 588 589
f 527 589 528
f 528 589 590
f 528 590 591
f 528 591 529
f 529 591 530
f 530 591 531
f 531 592 593
f 531 593 532
f 531 591 592
f 532 593 533
f 533 593 534
f 534 594 535
f 534 593 595
f 534 595 594
f 535 596 538
f 535 537 536
f 535 594 596
f 538 596 595
f 538 595 597
f 538 597 539
f 539 597 598
f 539 598 540
f 540 598 541
f 541 598 542
f 542 598 543
f 543 598 544
f 544 598 599
f 544 599 560
f 544 560 558
f 545 547 546
f 547 550 549
f 547 561 600
f 547 600 601
f 547 601 602
f 547 602 603
f 547 603 604
f 547 604 550
f 550 604 605
f 550 605 606
f 550 606 551
f 551 606 552
f 552 606 605
f 552 605 553
f 553 556 555
f 553 605 607
f 553 607 608
f 553 608 573
f 553 573 556
f 557 558 609
f 557 609 560
f 558 560 609
f 559 610 611
f 559 611 612
f 559 612 561
f 559 560 613
f 559 613 614
f 559 614 615
f 559 615 616
f 559 616 610
f 560 599 613
f 561 617 618
f 561 618 600
f 561 612 617
f 562 563 568
f 562 568 620
f 562 620 621
f 562 621 619
f 564 570 622
f 564 622 623
f 564 623 565
f 565 623 566
f 566 624 567
f 566 623 625
f 566 625 624
f 567 624 626
f 567 626 568
f 568 626 627
f 568 627 628
f 568 628 621
f 568 621 620
f 569 629 570
f 569 572 629
f 570 629 622
f 571 573 572
f 572 573 608
f 572 608 630
f 572 630 629
f 574 583 582
f 575 631 632
f 575 632 633
f 575 633 576
f 576 633 577
f 577 633 634
f 577 634 635
f 577 635 636
f 577 636 578
f 578 636 579
f 579 636 637
f 579 637 580
f 580 637 581
f 581 637 638
f 581 638 585
f 585 638 639
f 585 639 586
f 586 639 640
f 586 640 588
f 588 640 589
f 589 641 590
f 589 640 642
f 589 642 641
f 590 641 643
f 590 643 591
f 591 644 645
f 591 645 592
f 591 643 646
f 591 646 644
f 592 645 647
f 592 647 593
f 593 647 648
f 593 648 649
f 593 649 650
f 593 650 595
f 594 595 596
f 595 651 652
f 595 652 597
f 595 650 653
f 595 653 651
f 597 654 655
f 597 655 598
f 597 652 656
f 597 656 654
f 598 657 599
f 598 655 658
f 598 658 657
f 599 657 659
f 599 659 660
f 599 660 661
f 599 661 613
f 600 618 662
f 600 662 601
f 601 662 602
f 602 662 603
f 603 662 604
f 604 662 605
f 605 662 663
f 605 663 664
f 605 664 607
f 607 664 630
f 607 630 608
f 610 665 611
f 610 616 665
f 611 665 617
f 611 617 612
f 613 661 660
f 613 660 666
f 613 666 667
f 613 667 614
f 614 667 615
f 615 667 666
f 615 666 616
f 616 668 665
f 616 666 669
f 616 669 668
f 617 665 618
f 618 665 670
f 618 670 662
f 619 621 672
f 619 672 673
f 619 673 671
f 621 628 674
f 621 674 675
f 621 675 672
f 622 676 625
f 622 625 623
f 622 629 677
f 622 677 676
f 624 678 626
f 624 625 678
f 625 676 679
f 625 679 680
f 625 680 681
f 625 681 678
f 626 682 627
f 626 678 682
f 627 682 683
f 627 683 674
f 627 674 628
f 629 630 664
f 629 664 677
f 631 684 632
f 632 634 633
f 632 684 685
f 632 685 686
f 632 686 687
f 632 687 688
f 632 688 634
f 634 688 689
f 634 689 635
f 635 690 636
f 635 689 691
f 635 691 690
f 636 690 637
f 637 690 692
f 637 692 693
f 637 693 638
f 638 693 639
f 639 642 640
f 639 693 694
f 639 694 641
f 639 641 642
f 641 694 643
f 643 694 646
f 644 646 695
f 644 695 645
f 645 696 697
f 645 697 648
f 645 648 647
f 645 695 696
f 646 694 695
f 648 697 649
f 649 697 650
f 650 698 653
f 650 697 698
f 651 699 652
f 651 653 699
f 652 699 700
f 652 700 656
f 653 698 699
f 654 656 701
f 654 701 655
f 655 701 658
f 656 700 702
f 656 702 701
f 657 658 703
f 657 703 659
f 658 701 703
f 659 703 660
f 660 704 666
f 660 703 704
f 662 705 663
f 662 670 665
f 662 665 706
f 662 706 707
f 662 707 705
f 663 705 664
f 664 705 677
f 665 668 706
f 666 704 669
f 668 708 706
f 668 669 709
f 668 709 708
f 669 704 710
f 669 710 711
f 669 711 682
f 669 682 712
f 669 712 709
f 671 673 684
f 672 675 713
f 672 713 673
f 673 714 715
f 673 715 685
f 673 685 684
f 673 713 714
f 674 683 716
f 674 716 717
f 674 717 718
f 674 718 675
f 675 718 713
f 676 677 679
f 677 705 679
f 678 719 682
f 678 681 719
f 679 705 680
f 680 705 707
f 680 707 706
f 680 706 720
f 680 720 681
f 681 720 708
f 681 708 721
f 681 721 719
f 682 719 712
f 682 711 683
f 683 722 723
f 683 723 717
f 683 717 716
f 683 711 722
f 685 715 686
f 686 715 687
f 687 724 689
f 687 689 688
f 687 715 714
f 687 714 725
f 687 725 726
f 687 726 724
f 689 724 727
f 689 727 691
f 690 691 728
f 690 728 729
f 690 729 692
f 691 727 696
f 691 696 730
f 691 730 728
f 692 729 693
f 693 729 694
f 694 729 695
f 695 729 730
f 695 730 696
f 696 727 731
f 696 731 732
f 696 732 697
f 697 732 733
f 697 733 698
f 698 733 702
f 698 702 699
f 699 702 700
f 701 702 734
f 701 734 703
f 702 733 735
f 702 735 734
f 703 734 736
f 703 736 737
f 703 737 704
f 704 737 738
f 704 738 710
f 706 708 720
f 708 709 712
f 708 712 719
f 708 719 721
f 710 738 711
f 711 738 722
f 713 718 717
f 713 717 739
f 713 739 714
f 714 739 725
f 717 740 739
f 717 723 741
f 717 741 740
f 722 742 741
f 722 741 723
f 722 738 742
f 724 726 727
f 725 739 726
f 726 739 743
f 726 743 744
f 726 744 745
f 726 745 731
f 726 731 746
f 726 746 727
f 727 746 731
f 728 730 729
f 731 745 732
f 732 745 733
f 733 747 735
f 733 745 747
f 734 735 748
f 734 748 736
f 735 747 743
f 735 743 740
f 735 740 748
f 736 748 741
f 736 741 742
f 736 742 737
f 737 742 738
f 739 740 743
f 740 741 748
f 743 747 744
f 744 747 745

