# https://github.com/mikedh/trimesh
v -0.01936558 -0.02195081 0.18128127
v -0.02357570 -0.01932889 0.17937727
v -0.01936558 -0.02194874 0.18126971
v -0.01936558 -0.02179317 0.18348797
v -0.02223316 -0.02038056 0.18142684
v -0.02468119 -0.01854687 0.17937727
v -0.02462560 -0.01847634 0.17825890
v -0.02359562 -0.01882276 0.17747558
v -0.02292540 -0.01861532 0.17584192
v -0.02353584 -0.01696417 0.17224188
v -0.02234329 -0.01732510 0.17224188
v -0.02152518 -0.01751594 0.17224188
v -0.01936558 -0.01735622 0.17224188
v -0.01936558 -0.01952595 0.19584549
v -0.02377078 -0.01923554 0.18157472
v -0.03007967 -0.01186760 0.19584549
v -0.02468329 -0.01855102 0.18099243
v -0.03007967 -0.00763808 0.17322623
v -0.03007967 -0.00741405 0.17226268
v -0.02495494 -0.01691854 0.17527580
v -0.02477664 -0.01662191 0.17360749
v -0.02458155 -0.01637922 0.17224188
v -0.02429207 -0.01823573 0.17689097
v -0.01936558 -0.01408503 0.17224188
v -0.01936558 -0.01186345 0.19584549
v -0.03007967 -0.00075967 0.19584549
v -0.03007967 -0.00727300 0.17224188
v -0.03007547 -0.00741198 0.17224188
v -0.02762849 -0.00075967 0.17224188
v -0.02376030 -0.00075967 0.19584549
v -0.03007967 -0.00075967 0.17224188
f 1 2 3
f 1 3 13
f 1 13 24
f 1 24 25
f 1 25 14
f 1 14 4
f 1 4 5
f 1 5 2
f 2 6 7
f 2 7 8
f 2 8 3
f 2 5 6
f 3 8 9
f 3 9 10
f 3 10 11
f 3 11 12
f 3 12 13
f 4 14 5
f 5 15 6
f 5 14 16
f 5 16 15
f 6 15 17
f 6 17 16
f 6 16 7
f 7 16 18
f 7 18 19
f 7 19 20
f 7 20 21
f 7 21 22
f 7 22 23
f 7 23 8
f 8 23 9
f 9 23 10
f 10 22 28
f 10 28 27
f 10 27 31
f 10 31 29
f 10 29 24
f 10 24 13
f 10 13 12
f 10 12 11
f 10 23 22
f 14 25 30
f 14 30 26
f 14 26 16
f 15 16 17
f 16 26 31
f 16 31 27
f 16 27 19
f 16 19 18
f 19 27 28
f 19 28 22
f 19 22 21
f 19 21 20
f 24 29 30
f 24 30 25
f 26 30 29
f 26 29 31

