v 0.000000 0.000000 0.199000
v 0.046000 0.000000 0.199000
v 0.046500 0.000000 0.222000
v 0.042000 0.000000 0.231000
v 0.020000 0.000000 0.232000
v 0.000000 0.000000 0.232000
v 0.000000 0.000000 0.199000
v 0.045825 0.004009 0.199000
v 0.046323 0.004053 0.222000
v 0.041840 0.003661 0.231000
v 0.019924 0.001743 0.232000
v 0.000000 0.000000 0.232000
v 0.000000 0.000000 0.199000
v 0.045301 0.007988 0.199000
v 0.045794 0.008075 0.222000
v 0.041362 0.007293 0.231000
v 0.019696 0.003473 0.232000
v 0.000000 0.000000 0.232000
v 0.000000 0.000000 0.199000
v 0.044433 0.011906 0.199000
v 0.044916 0.012035 0.222000
v 0.040569 0.010870 0.231000
v 0.019319 0.005176 0.232000
v 0.000000 0.000000 0.232000
v 0.000000 0.000000 0.199000
v 0.043226 0.015733 0.199000
v 0.043696 0.015904 0.222000
v 0.039467 0.014365 0.231000
v 0.018794 0.006840 0.232000
v 0.000000 0.000000 0.232000
v 0.000000 0.000000 0.199000
v 0.041690 0.019440 0.199000
v 0.042143 0.019652 0.222000
v 0.038065 0.017750 0.231000
v 0.018126 0.008452 0.232000
v 0.000000 0.000000 0.232000
v 0.000000 0.000000 0.199000
v 0.039837 0.023000 0.199000
v 0.040270 0.023250 0.222000
v 0.036373 0.021000 0.231000
v 0.017321 0.010000 0.232000
v 0.000000 0.000000 0.232000
v 0.000000 0.000000 0.199000
v 0.037681 0.026385 0.199000
v 0.038091 0.026671 0.222000
v 0.034404 0.024090 0.231000
v 0.016383 0.011472 0.232000
v 0.000000 0.000000 0.232000
v 0.000000 0.000000 0.199000
v 0.035238 0.029568 0.199000
v 0.035621 0.029890 0.222000
v 0.032174 0.026997 0.231000
v 0.015321 0.012856 0.232000
v 0.000000 0.000000 0.232000
v 0.000000 0.000000 0.199000
v 0.032527 0.032527 0.199000
v 0.032880 0.032880 0.222000
v 0.029698 0.029698 0.231000
v 0.014142 0.014142 0.232000
v 0.000000 0.000000 0.232000
v 0.000000 0.000000 0.199000
v 0.029568 0.035238 0.199000
v 0.029890 0.035621 0.222000
v 0.026997 0.032174 0.231000
v 0.012856 0.015321 0.232000
v 0.000000 0.000000 0.232000
v 0.000000 0.000000 0.199000
v 0.026385 0.037681 0.199000
v 0.026671 0.038091 0.222000
v 0.024090 0.034404 0.231000
v 0.011472 0.016383 0.232000
v 0.000000 0.000000 0.232000
v 0.000000 0.000000 0.199000
v 0.023000 0.039837 0.199000
v 0.023250 0.040270 0.222000
v 0.021000 0.036373 0.231000
v 0.010000 0.017321 0.232000
v 0.000000 0.000000 0.232000
v 0.000000 0.000000 0.199000
v 0.019440 0.041690 0.199000
v 0.019652 0.042143 0.222000
v 0.017750 0.038065 0.231000
v 0.008452 0.018126 0.232000
v 0.000000 0.000000 0.232000
v 0.000000 0.000000 0.199000
v 0.015733 0.043226 0.199000
v 0.015904 0.043696 0.222000
v 0.014365 0.039467 0.231000
v 0.006840 0.018794 0.232000
v 0.000000 0.000000 0.232000
v 0.000000 0.000000 0.199000
v 0.011906 0.044433 0.199000
v 0.012035 0.044916 0.222000
v 0.010870 0.040569 0.231000
v 0.005176 0.019319 0.232000
v 0.000000 0.000000 0.232000
v 0.000000 0.000000 0.199000
v 0.007988 0.045301 0.199000
v 0.008075 0.045794 0.222000
v 0.007293 0.041362 0.231000
v 0.003473 0.019696 0.232000
v 0.000000 0.000000 0.232000
v 0.000000 0.000000 0.199000
v 0.004009 0.045825 0.199000
v 0.004053 0.046323 0.222000
v 0.003661 0.041840 0.231000
v 0.001743 0.019924 0.232000
v 0.000000 0.000000 0.232000
v 0.000000 0.000000 0.199000
v 0.000000 0.046000 0.199000
v 0.000000 0.046500 0.222000
v 0.000000 0.042000 0.231000
v 0.000000 0.020000 0.232000
v 0.000000 0.000000 0.232000
v -0.000000 0.000000 0.199000
v -0.004009 0.045825 0.199000
v -0.004053 0.046323 0.222000
v -0.003661 0.041840 0.231000
v -0.001743 0.019924 0.232000
v -0.000000 0.000000 0.232000
v -0.000000 0.000000 0.199000
v -0.007988 0.045301 0.199000
v -0.008075 0.045794 0.222000
v -0.007293 0.041362 0.231000
v -0.003473 0.019696 0.232000
v -0.000000 0.000000 0.232000
v -0.000000 0.000000 0.199000
v -0.011906 0.044433 0.199000
v -0.012035 0.044916 0.222000
v -0.010870 0.040569 0.231000
v -0.005176 0.019319 0.232000
v -0.000000 0.000000 0.232000
v -0.000000 0.000000 0.199000
v -0.015733 0.043226 0.199000
v -0.015904 0.043696 0.222000
v -0.014365 0.039467 0.231000
v -0.006840 0.018794 0.232000
v -0.000000 0.000000 0.232000
v -0.000000 0.000000 0.199000
v -0.019440 0.041690 0.199000
v -0.019652 0.042143 0.222000
v -0.017750 0.038065 0.231000
v -0.008452 0.018126 0.232000
v -0.000000 0.000000 0.232000
v -0.000000 0.000000 0.199000
v -0.023000 0.039837 0.199000
v -0.023250 0.040270 0.222000
v -0.021000 0.036373 0.231000
v -0.010000 0.017321 0.232000
v -0.000000 0.000000 0.232000
v -0.000000 0.000000 0.199000
v -0.026385 0.037681 0.199000
v -0.026671 0.038091 0.222000
v -0.024090 0.034404 0.231000
v -0.011472 0.016383 0.232000
v -0.000000 0.000000 0.232000
v -0.000000 0.000000 0.199000
v -0.029568 0.035238 0.199000
v -0.029890 0.035621 0.222000
v -0.026997 0.032174 0.231000
v -0.012856 0.015321 0.232000
v -0.000000 0.000000 0.232000
v -0.000000 0.000000 0.199000
v -0.032527 0.032527 0.199000
v -0.032880 0.032880 0.222000
v -0.029698 0.029698 0.231000
v -0.014142 0.014142 0.232000
v -0.000000 0.000000 0.232000
v -0.000000 0.000000 0.199000
v -0.035238 0.029568 0.199000
v -0.035621 0.029890 0.222000
v -0.032174 0.026997 0.231000
v -0.015321 0.012856 0.232000
v -0.000000 0.000000 0.232000
v -0.000000 0.000000 0.199000
v -0.037681 0.026385 0.199000
v -0.038091 0.026671 0.222000
v -0.034404 0.024090 0.231000
v -0.016383 0.011472 0.232000
v -0.000000 0.000000 0.232000
v -0.000000 0.000000 0.199000
v -0.039837 0.023000 0.199000
v -0.040270 0.023250 0.222000
v -0.036373 0.021000 0.231000
v -0.017321 0.010000 0.232000
v -0.000000 0.000000 0.232000
v -0.000000 0.000000 0.199000
v -0.041690 0.019440 0.199000
v -0.042143 0.019652 0.222000
v -0.038065 0.017750 0.231000
v -0.018126 0.008452 0.232000
v -0.000000 0.000000 0.232000
v -0.000000 0.000000 0.199000
v -0.043226 0.015733 0.199000
v -0.043696 0.015904 0.222000
v -0.039467 0.014365 0.231000
v -0.018794 0.006840 0.232000
v -0.000000 0.000000 0.232000
v -0.000000 0.000000 0.199000
v -0.044433 0.011906 0.199000
v -0.044916 0.012035 0.222000
v -0.040569 0.010870 0.231000
v -0.019319 0.005176 0.232000
v -0.000000 0.000000 0.232000
v -0.000000 0.000000 0.199000
v -0.045301 0.007988 0.199000
v -0.045794 0.008075 0.222000
v -0.041362 0.007293 0.231000
v -0.019696 0.003473 0.232000
v -0.000000 0.000000 0.232000
v -0.000000 0.000000 0.199000
v -0.045825 0.004009 0.199000
v -0.046323 0.004053 0.222000
v -0.041840 0.003661 0.231000
v -0.019924 0.001743 0.232000
v -0.000000 0.000000 0.232000
v -0.000000 0.000000 0.199000
v -0.046000 0.000000 0.199000
v -0.046500 0.000000 0.222000
v -0.042000 0.000000 0.231000
v -0.020000 0.000000 0.232000
v -0.000000 0.000000 0.232000
v -0.000000 -0.000000 0.199000
v -0.045825 -0.004009 0.199000
v -0.046323 -0.004053 0.222000
v -0.041840 -0.003661 0.231000
v -0.019924 -0.001743 0.232000
v -0.000000 -0.000000 0.232000
v -0.000000 -0.000000 0.199000
v -0.045301 -0.007988 0.199000
v -0.045794 -0.008075 0.222000
v -0.041362 -0.007293 0.231000
v -0.019696 -0.003473 0.232000
v -0.000000 -0.000000 0.232000
v -0.000000 -0.000000 0.199000
v -0.044433 -0.011906 0.199000
v -0.044916 -0.012035 0.222000
v -0.040569 -0.010870 0.231000
v -0.019319 -0.005176 0.232000
v -0.000000 -0.000000 0.232000
v -0.000000 -0.000000 0.199000
v -0.043226 -0.015733 0.199000
v -0.043696 -0.015904 0.222000
v -0.039467 -0.014365 0.231000
v -0.018794 -0.006840 0.232000
v -0.000000 -0.000000 0.232000
v -0.000000 -0.000000 0.199000
v -0.041690 -0.019440 0.199000
v -0.042143 -0.019652 0.222000
v -0.038065 -0.017750 0.231000
v -0.018126 -0.008452 0.232000
v -0.000000 -0.000000 0.232000
v -0.000000 -0.000000 0.199000
v -0.039837 -0.023000 0.199000
v -0.040270 -0.023250 0.222000
v -0.036373 -0.021000 0.231000
v -0.017321 -0.010000 0.232000
v -0.000000 -0.000000 0.232000
v -0.000000 -0.000000 0.199000
v -0.037681 -0.026385 0.199000
v -0.038091 -0.026671 0.222000
v -0.034404 -0.024090 0.231000
v -0.016383 -0.011472 0.232000
v -0.000000 -0.000000 0.232000
v -0.000000 -0.000000 0.199000
v -0.035238 -0.029568 0.199000
v -0.035621 -0.029890 0.222000
v -0.032174 -0.026997 0.231000
v -0.015321 -0.012856 0.232000
v -0.000000 -0.000000 0.232000
v -0.000000 -0.000000 0.199000
v -0.032527 -0.032527 0.199000
v -0.032880 -0.032880 0.222000
v -0.029698 -0.029698 0.231000
v -0.014142 -0.014142 0.232000
v -0.000000 -0.000000 0.232000
v -0.000000 -0.000000 0.199000
v -0.029568 -0.035238 0.199000
v -0.029890 -0.035621 0.222000
v -0.026997 -0.032174 0.231000
v -0.012856 -0.015321 0.232000
v -0.000000 -0.000000 0.232000
v -0.000000 -0.000000 0.199000
v -0.026385 -0.037681 0.199000
v -0.026671 -0.038091 0.222000
v -0.024090 -0.034404 0.231000
v -0.011472 -0.016383 0.232000
v -0.000000 -0.000000 0.232000
v -0.000000 -0.000000 0.199000
v -0.023000 -0.039837 0.199000
v -0.023250 -0.040270 0.222000
v -0.021000 -0.036373 0.231000
v -0.010000 -0.017321 0.232000
v -0.000000 -0.000000 0.232000
v -0.000000 -0.000000 0.199000
v -0.019440 -0.041690 0.199000
v -0.019652 -0.042143 0.222000
v -0.017750 -0.038065 0.231000
v -0.008452 -0.018126 0.232000
v -0.000000 -0.000000 0.232000
v -0.000000 -0.000000 0.199000
v -0.015733 -0.043226 0.199000
v -0.015904 -0.043696 0.222000
v -0.014365 -0.039467 0.231000
v -0.006840 -0.018794 0.232000
v -0.000000 -0.000000 0.232000
v -0.000000 -0.000000 0.199000
v -0.011906 -0.044433 0.199000
v -0.012035 -0.044916 0.222000
v -0.010870 -0.040569 0.231000
v -0.005176 -0.019319 0.232000
v -0.000000 -0.000000 0.232000
v -0.000000 -0.000000 0.199000
v -0.007988 -0.045301 0.199000
v -0.008075 -0.045794 0.222000
v -0.007293 -0.041362 0.231000
v -0.003473 -0.019696 0.232000
v -0.000000 -0.000000 0.232000
v -0.000000 -0.000000 0.199000
v -0.004009 -0.045825 0.199000
v -0.004053 -0.046323 0.222000
v -0.003661 -0.041840 0.231000
v -0.001743 -0.019924 0.232000
v -0.000000 -0.000000 0.232000
v -0.000000 -0.000000 0.199000
v -0.000000 -0.046000 0.199000
v -0.000000 -0.046500 0.222000
v -0.000000 -0.042000 0.231000
v -0.000000 -0.020000 0.232000
v -0.000000 -0.000000 0.232000
v 0.000000 -0.000000 0.199000
v 0.004009 -0.045825 0.199000
v 0.004053 -0.046323 0.222000
v 0.003661 -0.041840 0.231000
v 0.001743 -0.019924 0.232000
v 0.000000 -0.000000 0.232000
v 0.000000 -0.000000 0.199000
v 0.007988 -0.045301 0.199000
v 0.008075 -0.045794 0.222000
v 0.007293 -0.041362 0.231000
v 0.003473 -0.019696 0.232000
v 0.000000 -0.000000 0.232000
v 0.000000 -0.000000 0.199000
v 0.011906 -0.044433 0.199000
v 0.012035 -0.044916 0.222000
v 0.010870 -0.040569 0.231000
v 0.005176 -0.019319 0.232000
v 0.000000 -0.000000 0.232000
v 0.000000 -0.000000 0.199000
v 0.015733 -0.043226 0.199000
v 0.015904 -0.043696 0.222000
v 0.014365 -0.039467 0.231000
v 0.006840 -0.018794 0.232000
v 0.000000 -0.000000 0.232000
v 0.000000 -0.000000 0.199000
v 0.019440 -0.041690 0.199000
v 0.019652 -0.042143 0.222000
v 0.017750 -0.038065 0.231000
v 0.008452 -0.018126 0.232000
v 0.000000 -0.000000 0.232000
v 0.000000 -0.000000 0.199000
v 0.023000 -0.039837 0.199000
v 0.023250 -0.040270 0.222000
v 0.021000 -0.036373 0.231000
v 0.010000 -0.017321 0.232000
v 0.000000 -0.000000 0.232000
v 0.000000 -0.000000 0.199000
v 0.026385 -0.037681 0.199000
v 0.026671 -0.038091 0.222000
v 0.024090 -0.034404 0.231000
v 0.011472 -0.016383 0.232000
v 0.000000 -0.000000 0.232000
v 0.000000 -0.000000 0.199000
v 0.029568 -0.035238 0.199000
v 0.029890 -0.035621 0.222000
v 0.026997 -0.032174 0.231000
v 0.012856 -0.015321 0.232000
v 0.000000 -0.000000 0.232000
v 0.000000 -0.000000 0.199000
v 0.032527 -0.032527 0.199000
v 0.032880 -0.032880 0.222000
v 0.029698 -0.029698 0.231000
v 0.014142 -0.014142 0.232000
v 0.000000 -0.000000 0.232000
v 0.000000 -0.000000 0.199000
v 0.035238 -0.029568 0.199000
v 0.035621 -0.029890 0.222000
v 0.032174 -0.026997 0.231000
v 0.015321 -0.012856 0.232000
v 0.000000 -0.000000 0.232000
v 0.000000 -0.000000 0.199000
v 0.037681 -0.026385 0.199000
v 0.038091 -0.026671 0.222000
v 0.034404 -0.024090 0.231000
v 0.016383 -0.011472 0.232000
v 0.000000 -0.000000 0.232000
v 0.000000 -0.000000 0.199000
v 0.039837 -0.023000 0.199000
v 0.040270 -0.023250 0.222000
v 0.036373 -0.021000 0.231000
v 0.017321 -0.010000 0.232000
v 0.000000 -0.000000 0.232000
v 0.000000 -0.000000 0.199000
v 0.041690 -0.019440 0.199000
v 0.042143 -0.019652 0.222000
v 0.038065 -0.017750 0.231000
v 0.018126 -0.008452 0.232000
v 0.000000 -0.000000 0.232000
v 0.000000 -0.000000 0.199000
v 0.043226 -0.015733 0.199000
v 0.043696 -0.015904 0.222000
v 0.039467 -0.014365 0.231000
v 0.018794 -0.006840 0.232000
v 0.000000 -0.000000 0.232000
v 0.000000 -0.000000 0.199000
v 0.044433 -0.011906 0.199000
v 0.044916 -0.012035 0.222000
v 0.040569 -0.010870 0.231000
v 0.019319 -0.005176 0.232000
v 0.000000 -0.000000 0.232000
v 0.000000 -0.000000 0.199000
v 0.045301 -0.007988 0.199000
v 0.045794 -0.008075 0.222000
v 0.041362 -0.007293 0.231000
v 0.019696 -0.003473 0.232000
v 0.000000 -0.000000 0.232000
v 0.000000 -0.000000 0.199000
v 0.045825 -0.004009 0.199000
v 0.046323 -0.004053 0.222000
v 0.041840 -0.003661 0.231000
v 0.019924 -0.001743 0.232000
v 0.000000 -0.000000 0.232000
f 1 8 2
f 1 7 8
f 2 9 3
f 2 8 9
f 3 10 4
f 3 9 10
f 4 11 5
f 4 10 11
f 5 12 6
f 5 11 12
f 7 14 8
f 7 13 14
f 8 15 9
f 8 14 15
f 9 16 10
f 9 15 16
f 10 17 11
f 10 16 17
f 11 18 12
f 11 17 18
f 13 20 14
f 13 19 20
f 14 21 15
f 14 20 21
f 15 22 16
f 15 21 22
f 16 23 17
f 16 22 23
f 17 24 18
f 17 23 24
f 19 26 20
f 19 25 26
f 20 27 21
f 20 26 27
f 21 28 22
f 21 27 28
f 22 29 23
f 22 28 29
f 23 30 24
f 23 29 30
f 25 32 26
f 25 31 32
f 26 33 27
f 26 32 33
f 27 34 28
f 27 33 34
f 28 35 29
f 28 34 35
f 29 36 30
f 29 35 36
f 31 38 32
f 31 37 38
f 32 39 33
f 32 38 39
f 33 40 34
f 33 39 40
f 34 41 35
f 34 40 41
f 35 42 36
f 35 41 42
f 37 44 38
f 37 43 44
f 38 45 39
f 38 44 45
f 39 46 40
f 39 45 46
f 40 47 41
f 40 46 47
f 41 48 42
f 41 47 48
f 43 50 44
f 43 49 50
f 44 51 45
f 44 50 51
f 45 52 46
f 45 51 52
f 46 53 47
f 46 52 53
f 47 54 48
f 47 53 54
f 49 56 50
f 49 55 56
f 50 57 51
f 50 56 57
f 51 58 52
f 51 57 58
f 52 59 53
f 52 58 59
f 53 60 54
f 53 59 60
f 55 62 56
f 55 61 62
f 56 63 57
f 56 62 63
f 57 64 58
f 57 63 64
f 58 65 59
f 58 64 65
f 59 66 60
f 59 65 66
f 61 68 62
f 61 67 68
f 62 69 63
f 62 68 69
f 63 70 64
f 63 69 70
f 64 71 65
f 64 70 71
f 65 72 66
f 65 71 72
f 67 74 68
f 67 73 74
f 68 75 69
f 68 74 75
f 69 76 70
f 69 75 76
f 70 77 71
f 70 76 77
f 71 78 72
f 71 77 78
f 73 80 74
f 73 79 80
f 74 81 75
f 74 80 81
f 75 82 76
f 75 81 82
f 76 83 77
f 76 82 83
f 77 84 78
f 77 83 84
f 79 86 80
f 79 85 86
f 80 87 81
f 80 86 87
f 81 88 82
f 81 87 88
f 82 89 83
f 82 88 89
f 83 90 84
f 83 89 90
f 85 92 86
f 85 91 92
f 86 93 87
f 86 92 93
f 87 94 88
f 87 93 94
f 88 95 89
f 88 94 95
f 89 96 90
f 89 95 96
f 91 98 92
f 91 97 98
f 92 99 93
f 92 98 99
f 93 100 94
f 93 99 100
f 94 101 95
f 94 100 101
f 95 102 96
f 95 101 102
f 97 104 98
f 97 103 104
f 98 105 99
f 98 104 105
f 99 106 100
f 99 105 106
f 100 107 101
f 100 106 107
f 101 108 102
f 101 107 108
f 103 110 104
f 103 109 110
f 104 111 105
f 104 110 111
f 105 112 106
f 105 111 112
f 106 113 107
f 106 112 113
f 107 114 108
f 107 113 114
f 109 116 110
f 109 115 116
f 110 117 111
f 110 116 117
f 111 118 112
f 111 117 118
f 112 119 113
f 112 118 119
f 113 120 114
f 113 119 120
f 115 122 116
f 115 121 122
f 116 123 117
f 116 122 123
f 117 124 118
f 117 123 124
f 118 125 119
f 118 124 125
f 119 126 120
f 119 125 126
f 121 128 122
f 121 127 128
f 122 129 123
f 122 128 129
f 123 130 124
f 123 129 130
f 124 131 125
f 124 130 131
f 125 132 126
f 125 131 132
f 127 134 128
f 127 133 134
f 128 135 129
f 128 134 135
f 129 136 130
f 129 135 136
f 130 137 131
f 130 136 137
f 131 138 132
f 131 137 138
f 133 140 134
f 133 139 140
f 134 141 135
f 134 140 141
f 135 142 136
f 135 141 142
f 136 143 137
f 136 142 143
f 137 144 138
f 137 143 144
f 139 146 140
f 139 145 146
f 140 147 141
f 140 146 147
f 141 148 142
f 141 147 148
f 142 149 143
f 142 148 149
f 143 150 144
f 143 149 150
f 145 152 146
f 145 151 152
f 146 153 147
f 146 152 153
f 147 154 148
f 147 153 154
f 148 155 149
f 148 154 155
f 149 156 150
f 149 155 156
f 151 158 152
f 151 157 158
f 152 159 153
f 152 158 159
f 153 160 154
f 153 159 160
f 154 161 155
f 154 160 161
f 155 162 156
f 155 161 162
f 157 164 158
f 157 163 164
f 158 165 159
f 158 164 165
f 159 166 160
f 159 165 166
f 160 167 161
f 160 166 167
f 161 168 162
f 161 167 168
f 163 170 164
f 163 169 170
f 164 171 165
f 164 170 171
f 165 172 166
f 165 171 172
f 166 173 167
f 166 172 173
f 167 174 168
f 167 173 174
f 169 176 170
f 169 175 176
f 170 177 171
f 170 176 177
f 171 178 172
f 171 177 178
f 172 179 173
f 172 178 179
f 173 180 174
f 173 179 180
f 175 182 176
f 175 181 182
f 176 183 177
f 176 182 183
f 177 184 178
f 177 183 184
f 178 185 179
f 178 184 185
f 179 186 180
f 179 185 186
f 181 188 182
f 181 187 188
f 182 189 183
f 182 188 189
f 183 190 184
f 183 189 190
f 184 191 185
f 184 190 191
f 185 192 186
f 185 191 192
f 187 194 188
f 187 193 194
f 188 195 189
f 188 194 195
f 189 196 190
f 189 195 196
f 190 197 191
f 190 196 197
f 191 198 192
f 191 197 198
f 193 200 194
f 193 199 200
f 194 201 195
f 194 200 201
f 195 202 196
f 195 201 202
f 196 203 197
f 196 202 203
f 197 204 198
f 197 203 204
f 199 206 200
f 199 205 206
f 200 207 201
f 200 206 207
f 201 208 202
f 201 207 208
f 202 209 203
f 202 208 209
f 203 210 204
f 203 209 210
f 205 212 206
f 205 211 212
f 206 213 207
f 206 212 213
f 207 214 208
f 207 213 214
f 208 215 209
f 208 214 215
f 209 216 210
f 209 215 216
f 211 218 212
f 211 217 218
f 212 219 213
f 212 218 219
f 213 220 214
f 213 219 220
f 214 221 215
f 214 220 221
f 215 222 216
f 215 221 222
f 217 224 218
f 217 223 224
f 218 225 219
f 218 224 225
f 219 226 220
f 219 225 226
f 220 227 221
f 220 226 227
f 221 228 222
f 221 227 228
f 223 230 224
f 223 229 230
f 224 231 225
f 224 230 231
f 225 232 226
f 225 231 232
f 226 233 227
f 226 232 233
f 227 234 228
f 227 233 234
f 229 236 230
f 229 235 236
f 230 237 231
f 230 236 237
f 231 238 232
f 231 237 238
f 232 239 233
f 232 238 239
f 233 240 234
f 233 239 240
f 235 242 236
f 235 241 242
f 236 243 237
f 236 242 243
f 237 244 238
f 237 243 244
f 238 245 239
f 238 244 245
f 239 246 240
f 239 245 246
f 241 248 242
f 241 247 248
f 242 249 243
f 242 248 249
f 243 250 244
f 243 249 250
f 244 251 245
f 244 250 251
f 245 252 246
f 245 251 252
f 247 254 248
f 247 253 254
f 248 255 249
f 248 254 255
f 249 256 250
f 249 255 256
f 250 257 251
f 250 256 257
f 251 258 252
f 251 257 258
f 253 260 254
f 253 259 260
f 254 261 255
f 254 260 261
f 255 262 256
f 255 261 262
f 256 263 257
f 256 262 263
f 257 264 258
f 257 263 264
f 259 266 260
f 259 265 266
f 260 267 261
f 260 266 267
f 261 268 262
f 261 267 268
f 262 269 263
f 262 268 269
f 263 270 264
f 263 269 270
f 265 272 266
f 265 271 272
f 266 273 267
f 266 272 273
f 267 274 268
f 267 273 274
f 268 275 269
f 268 274 275
f 269 276 270
f 269 275 276
f 271 278 272
f 271 277 278
f 272 279 273
f 272 278 279
f 273 280 274
f 273 279 280
f 274 281 275
f 274 280 281
f 275 282 276
f 275 281 282
f 277 284 278
f 277 283 284
f 278 285 279
f 278 284 285
f 279 286 280
f 279 285 286
f 280 287 281
f 280 286 287
f 281 288 282
f 281 287 288
f 283 290 284
f 283 289 290
f 284 291 285
f 284 290 291
f 285 292 286
f 285 291 292
f 286 293 287
f 286 292 293
f 287 294 288
f 287 293 294
f 289 296 290
f 289 295 296
f 290 297 291
f 290 296 297
f 291 298 292
f 291 297 298
f 292 299 293
f 292 298 299
f 293 300 294
f 293 299 300
f 295 302 296
f 295 301 302
f 296 303 297
f 296 302 303
f 297 304 298
f 297 303 304
f 298 305 299
f 298 304 305
f 299 306 300
f 299 305 306
f 301 308 302
f 301 307 308
f 302 309 303
f 302 308 309
f 303 310 304
f 303 309 310
f 304 311 305
f 304 310 311
f 305 312 306
f 305 311 312
f 307 314 308
f 307 313 314
f 308 315 309
f 308 314 315
f 309 316 310
f 309 315 316
f 310 317 311
f 310 316 317
f 311 318 312
f 311 317 318
f 313 320 314
f 313 319 320
f 314 321 315
f 314 320 321
f 315 322 316
f 315 321 322
f 316 323 317
f 316 322 323
f 317 324 318
f 317 323 324
f 319 326 320
f 319 325 326
f 320 327 321
f 320 326 327
f 321 328 322
f 321 327 328
f 322 329 323
f 322 328 329
f 323 330 324
f 323 329 330
f 325 332 326
f 325 331 332
f 326 333 327
f 326 332 333
f 327 334 328
f 327 333 334
f 328 335 329
f 328 334 335
f 329 336 330
f 329 335 336
f 331 338 332
f 331 337 338
f 332 339 333
f 332 338 339
f 333 340 334
f 333 339 340
f 334 341 335
f 334 340 341
f 335 342 336
f 335 341 342
f 337 344 338
f 337 343 344
f 338 345 339
f 338 344 345
f 339 346 340
f 339 345 346
f 340 347 341
f 340 346 347
f 341 348 342
f 341 347 348
f 343 350 344
f 343 349 350
f 344 351 345
f 344 350 351
f 345 352 346
f 345 351 352
f 346 353 347
f 346 352 353
f 347 354 348
f 347 353 354
f 349 356 350
f 349 355 356
f 350 357 351
f 350 356 357
f 351 358 352
f 351 357 358
f 352 359 353
f 352 358 359
f 353 360 354
f 353 359 360
f 355 362 356
f 355 361 362
f 356 363 357
f 356 362 363
f 357 364 358
f 357 363 364
f 358 365 359
f 358 364 365
f 359 366 360
f 359 365 366
f 361 368 362
f 361 367 368
f 362 369 363
f 362 368 369
f 363 370 364
f 363 369 370
f 364 371 365
f 364 370 371
f 365 372 366
f 365 371 372
f 367 374 368
f 367 373 374
f 368 375 369
f 368 374 375
f 369 376 370
f 369 375 376
f 370 377 371
f 370 376 377
f 371 378 372
f 371 377 378
f 373 380 374
f 373 379 380
f 374 381 375
f 374 380 381
f 375 382 376
f 375 381 382
f 376 383 377
f 376 382 383
f 377 384 378
f 377 383 384
f 379 386 380
f 379 385 386
f 380 387 381
f 380 386 387
f 381 388 382
f 381 387 388
f 382 389 383
f 382 388 389
f 383 390 384
f 383 389 390
f 385 392 386
f 385 391 392
f 386 393 387
f 386 392 393
f 387 394 388
f 387 393 394
f 388 395 389
f 388 394 395
f 389 396 390
f 389 395 396
f 391 398 392
f 391 397 398
f 392 399 393
f 392 398 399
f 393 400 394
f 393 399 400
f 394 401 395
f 394 400 401
f 395 402 396
f 395 401 402
f 397 404 398
f 397 403 404
f 398 405 399
f 398 404 405
f 399 406 400
f 399 405 406
f 400 407 401
f 400 406 407
f 401 408 402
f 401 407 408
f 403 410 404
f 403 409 410
f 404 411 405
f 404 410 411
f 405 412 406
f 405 411 412
f 406 413 407
f 406 412 413
f 407 414 408
f 407 413 414
f 409 416 410
f 409 415 416
f 410 417 411
f 410 416 417
f 411 418 412
f 411 417 418
f 412 419 413
f 412 418 419
f 413 420 414
f 413 419 420
f 415 422 416
f 415 421 422
f 416 423 417
f 416 422 423
f 417 424 418
f 417 423 424
f 418 425 419
f 418 424 425
f 419 426 420
f 419 425 426
f 421 428 422
f 421 427 428
f 422 429 423
f 422 428 429
f 423 430 424
f 423 429 430
f 424 431 425
f 424 430 431
f 425 432 426
f 425 431 432
f 427 2 428
f 427 1 2
f 428 3 429
f 428 2 3
f 429 4 430
f 429 3 4
f 430 5 431
f 430 4 5
f 431 6 432
f 431 5 6
