# https://github.com/mikedh/trimesh
v -0.01404478 0.01202644 0.14801752
v -0.01458001 -0.00075842 0.14801752
v -0.01577760 0.01203270 0.14801752
v -0.01415151 0.01203270 0.14862149
v -0.01636934 0.01037355 0.16421134
v -0.01636934 0.01017070 0.16421134
v -0.01547153 -0.00075842 0.15076431
v -0.02004217 -0.00075842 0.14801752
v -0.01821203 0.00988645 0.17165568
v -0.01835800 0.01203270 0.14801752
v -0.01824028 0.01203270 0.17117436
v -0.01718866 0.01127388 0.16707384
v -0.01675860 0.01114365 0.16494490
v -0.01757164 0.01127388 0.16912410
v -0.01803153 0.01127388 0.17117436
v -0.01814611 0.01083937 0.17165568
v -0.01549665 -0.00075842 0.15082910
v -0.02075633 0.00046873 0.14801752
v -0.03007810 -0.00075842 0.15739642
v -0.03007810 -0.00067827 0.15732931
v -0.02751340 -0.00075842 0.17165568
v -0.01554374 -0.00075842 0.15093324
v -0.01849299 0.01203270 0.14827438
v -0.02096195 0.00498538 0.14801752
v -0.03007810 0.00050379 0.15732931
v -0.01835957 0.01203270 0.17165568
v -0.01815867 0.01127388 0.17165568
v -0.02105298 0.00117246 0.14801752
v -0.03007810 -0.00075842 0.17165568
v -0.02135905 0.00307579 0.14801752
v -0.02126959 0.00236705 0.14801752
v -0.01900153 0.01203270 0.14949157
v -0.03007810 0.00192378 0.15923610
v -0.02522023 0.01203270 0.17165568
v -0.03007810 0.00461974 0.17165568
v -0.01977691 0.01203270 0.15155572
v -0.03007810 0.00212538 0.15963181
v -0.02835313 0.00771390 0.17165568
v -0.02502403 0.01203270 0.16998956
v -0.02833743 0.00768135 0.17117436
v -0.03006083 0.00465856 0.17165568
v -0.03007810 0.00437056 0.17017005
v -0.02443544 0.01006051 0.16028437
v -0.02469913 0.01035978 0.16165198
v -0.02082068 0.01203270 0.15458020
v -0.03007810 0.00227188 0.16006917
v -0.02613373 0.00951706 0.16502358
v -0.02597363 0.00907128 0.16306588
v -0.02852264 0.00747223 0.17165568
v -0.02720419 0.00890223 0.16912410
v -0.02418431 0.01203270 0.16527581
v -0.02510879 0.01082559 0.16502358
v -0.02629383 0.00978628 0.16707384
v -0.02705351 0.00876073 0.16707384
v -0.02822913 0.00745846 0.16912410
v -0.02901706 0.00665705 0.17117436
v -0.02983481 0.00512563 0.17165568
v -0.03007810 0.00390850 0.16757367
v -0.02488277 0.01055888 0.16297332
v -0.02379662 0.01203270 0.16350092
v -0.02364908 0.01203270 0.16297563
v -0.02328336 0.01203270 0.16178851
v -0.02161332 0.01203270 0.15689427
v -0.03007810 0.00296184 0.16307513
v -0.02887109 0.00643291 0.16912410
v -0.02684789 0.00849276 0.16502358
v -0.02904217 0.00668836 0.17165568
v -0.02412937 0.01203270 0.16502358
f 1 2 8
f 1 8 18
f 1 18 28
f 1 28 31
f 1 31 30
f 1 30 24
f 1 24 10
f 1 10 3
f 1 3 4
f 1 4 5
f 1 5 6
f 1 6 2
f 2 7 17
f 2 17 22
f 2 22 21
f 2 21 29
f 2 29 19
f 2 19 8
f 2 6 9
f 2 9 7
f 3 10 23
f 3 23 32
f 3 32 36
f 3 36 45
f 3 45 63
f 3 63 62
f 3 62 61
f 3 61 60
f 3 60 68
f 3 68 51
f 3 51 39
f 3 39 34
f 3 34 26
f 3 26 11
f 3 11 4
f 4 11 12
f 4 12 13
f 4 13 5
f 5 13 12
f 5 12 14
f 5 14 15
f 5 15 16
f 5 16 6
f 6 16 9
f 7 9 17
f 8 19 20
f 8 20 18
f 9 16 27
f 9 27 26
f 9 26 34
f 9 34 38
f 9 38 49
f 9 49 67
f 9 67 57
f 9 57 41
f 9 41 35
f 9 35 29
f 9 29 21
f 9 21 22
f 9 22 17
f 10 24 25
f 10 25 23
f 11 26 15
f 11 15 14
f 11 14 12
f 15 26 27
f 15 27 16
f 18 20 28
f 19 29 35
f 19 35 42
f 19 42 58
f 19 58 64
f 19 64 46
f 19 46 37
f 19 37 33
f 19 33 25
f 19 25 20
f 20 25 30
f 20 30 31
f 20 31 28
f 23 25 33
f 23 33 32
f 24 30 25
f 32 33 36
f 33 37 36
f 34 39 40
f 34 40 38
f 35 41 42
f 36 37 43
f 36 43 44
f 36 44 45
f 37 46 47
f 37 47 48
f 37 48 44
f 37 44 43
f 38 40 49
f 39 50 40
f 39 51 52
f 39 52 53
f 39 53 54
f 39 54 50
f 40 50 54
f 40 54 55
f 40 55 56
f 40 56 49
f 41 57 42
f 42 57 58
f 44 59 60
f 44 60 61
f 44 61 62
f 44 62 63
f 44 63 45
f 44 48 59
f 46 64 56
f 46 56 65
f 46 65 55
f 46 55 54
f 46 54 66
f 46 66 47
f 47 66 54
f 47 54 53
f 47 53 52
f 47 52 59
f 47 59 48
f 49 56 67
f 51 68 59
f 51 59 52
f 55 65 56
f 56 58 57
f 56 57 67
f 56 64 58
f 59 68 60

