# https://github.com/mikedh/trimesh
v -0.03865081 0.00717235 0.00330022
v -0.03861920 0.00764714 0.00330022
v -0.03832679 0.00717235 0.00286404
v -0.03830308 -0.00512382 0.00292629
v -0.03857178 -0.00512382 0.00330022
v -0.03492853 0.01263642 -0.00007642
v -0.03712554 0.00922440 0.00179368
v -0.03730731 0.00717235 0.00160823
v -0.03808970 0.00899907 0.00330022
v -0.03296070 0.01884084 -0.00016460
v -0.03726780 -0.00716781 0.00162552
v -0.03829518 -0.00716781 0.00296778
v -0.03854807 -0.00647575 0.00330022
v -0.03318198 0.01742453 -0.00032455
v -0.03347439 0.01537248 -0.00040755
v -0.03504707 0.01126839 -0.00015164
v -0.03612187 0.00717235 0.00058369
v -0.03615348 -0.00716781 0.00060098
v -0.03694378 0.01028663 0.00330022
v -0.02357202 0.02972070 0.00294141
v -0.02561888 0.02766865 0.00290986
v -0.02767364 0.02562466 0.00281778
v -0.02979953 0.02360480 0.00259039
v -0.02908036 0.02562466 0.00232713
v -0.03098497 0.02294493 0.00228606
v -0.03107190 0.02310587 0.00102507
v -0.03309505 0.01913054 0.00102507
v -0.03093755 0.02289664 -0.00018925
v -0.03126947 0.02152057 -0.00036562
v -0.03513401 -0.00921986 -0.00019141
v -0.03502337 -0.01127190 -0.00014082
v -0.03490482 -0.01250313 -0.00006042
v -0.03712554 -0.00864850 0.00177293
v -0.03853227 -0.00716781 0.00330022
v -0.03176736 0.01742453 -0.00077629
v -0.03187009 0.01950071 -0.00045943
v -0.03382212 0.01126839 -0.00056491
v -0.03512610 0.00922440 -0.00017714
v -0.03605865 0.01095455 0.00330022
v -0.01742354 0.03382478 0.00303177
v -0.01947039 0.03177274 0.00304689
v -0.02151725 0.03177274 0.00288219
v -0.02345347 0.03170032 0.00243693
v -0.02555565 0.02964023 0.00246373
v -0.02757090 0.02749966 0.00236863
v -0.02874053 0.02670299 0.00209715
v -0.02874053 0.02671103 0.00102507
v -0.02871683 0.02667884 -0.00002368
v -0.02904084 0.02562466 -0.00023291
v -0.02978372 0.02357261 -0.00046073
v -0.02972050 0.02152057 -0.00080656
v -0.03382212 -0.00921986 -0.00059776
v -0.03382212 -0.01127190 -0.00055496
v -0.03382212 0.00922440 -0.00059085
v -0.03338746 -0.01536794 -0.00041360
v -0.03310295 -0.01741999 -0.00027917
v -0.03289748 -0.01868340 -0.00011144
v -0.03790003 -0.00871288 0.00330022
v -0.03176736 0.01537248 -0.00084892
v -0.02972050 0.01946852 -0.00089691
v -0.03391696 0.01221797 0.00330022
v -0.01536877 0.03382478 0.00304862
v -0.01332191 0.03586878 0.00301966
v -0.01536877 0.03586878 0.00285539
v -0.01962055 0.03396963 0.00263232
v -0.02151725 0.03332585 0.00238376
v -0.02482858 0.03097606 0.00224629
v -0.02269479 0.03290740 0.00216891
v -0.02682012 0.02889988 0.00221603
v -0.02689915 0.02899645 0.00102507
v -0.02792653 0.02773303 0.00102507
v -0.02681222 0.02889183 -0.00014256
v -0.02756300 0.02748356 -0.00027786
v -0.02767364 0.02562466 -0.00067515
v -0.02561888 0.02766865 -0.00077716
v -0.02767364 0.02357261 -0.00087054
v -0.03176736 -0.01332395 -0.00087962
v -0.03176736 -0.01536794 -0.00086492
v -0.03176736 -0.01741999 -0.00072918
v -0.03183058 -0.01940765 -0.00042571
v -0.03115093 -0.02152407 -0.00030510
v -0.03084271 -0.02271506 -0.00010798
v -0.03243911 -0.01984220 0.00102507
v -0.03295280 -0.01881216 0.00102507
v -0.03383002 -0.01100634 0.00330022
v -0.03290538 -0.01869950 0.00217712
v -0.03085062 -0.02271506 0.00217194
v -0.02904084 -0.02510509 0.00234572
v -0.02778428 -0.02572473 0.00262238
v -0.02561888 -0.02767216 0.00278838
v -0.02767364 -0.02356807 0.00301966
v -0.02561888 -0.02562012 0.00303522
v -0.01947039 -0.03176820 0.00300410
v -0.02972050 0.01742453 -0.00089950
v -0.02561888 0.02562466 -0.00088049
v -0.02357202 0.02766865 -0.00088956
v -0.01947039 0.03177274 -0.00090685
v -0.01332191 0.03586878 -0.00093193
v -0.03212299 0.01297441 0.00330022
v -0.01126715 0.03586878 0.00302615
v -0.00717343 0.03792083 0.00297470
v -0.00922029 0.03792083 0.00292369
v -0.01332191 0.03765527 0.00252036
v -0.01536877 0.03723681 0.00235652
v -0.01732080 0.03590097 0.00249745
v -0.01903573 0.03524110 0.00236041
v -0.02493132 0.03107263 0.00102507
v -0.02595870 0.03001845 0.00102507
v -0.01657002 0.03698735 0.00215464
v -0.01933605 0.03541009 0.00102507
v -0.02036343 0.03471803 0.00102507
v -0.02276592 0.03297178 0.00102507
v -0.02379330 0.03209463 0.00102507
v -0.02481278 0.03095193 -0.00015942
v -0.02554775 0.02963217 -0.00036260
v -0.02357202 0.02972070 -0.00079704
v -0.02972050 -0.00921986 -0.00090382
v -0.02972050 -0.01127190 -0.00090382
v -0.02972050 -0.01332395 -0.00090253
v -0.02972050 -0.01536794 -0.00090079
v -0.02972050 -0.01947203 -0.00089474
v -0.02972050 -0.02152407 -0.00074950
v -0.02972840 -0.02347150 -0.00041145
v -0.02905665 -0.02512119 -0.00028176
v -0.02667787 -0.02872635 -0.00002930
v -0.02922261 -0.02537065 0.00102507
v -0.03024999 -0.02382558 0.00102507
v -0.03089803 -0.02280358 0.00102507
v -0.03201235 -0.00921986 0.00330022
v -0.01536877 -0.03382025 0.00300020
v -0.01126715 -0.03587229 0.00298723
v -0.00307181 -0.03792433 0.00295568
v 0.00921725 -0.03792433 0.00293190
v 0.01946735 -0.03382025 0.00291677
v 0.02152211 -0.03176820 0.00292153
v -0.02665416 -0.02870220 0.00205565
v -0.02704931 -0.02767216 0.00229903
v -0.02544501 -0.02952302 0.00227957
v -0.02357202 -0.02972420 0.00281562
v -0.02357202 -0.02767216 0.00302442
v -0.01742354 -0.03382025 0.00292715
v -0.01332191 -0.03587229 0.00295568
v -0.00307181 -0.03792433 -0.00102660
v -0.00511867 -0.03792433 -0.00101882
v -0.02151725 -0.02972420 -0.00095008
v -0.01742354 0.03382478 -0.00090641
v -0.01536877 0.03586878 -0.00078236
v -0.00922029 0.03792083 -0.00086880
v -0.00717343 0.03792083 -0.00094186
v 0.03587384 0.01537248 -0.00108106
v 0.03587384 0.01332044 -0.00108452
v 0.03792070 -0.00307177 -0.00110743
v 0.03792070 -0.01127190 -0.00111608
v -0.03182268 0.01121206 0.00330022
v 0.03792070 0.00922440 0.00290553
v 0.03381907 0.01946852 0.00291202
v 0.02152211 0.03177274 0.00295309
v 0.01742049 0.03382478 0.00297124
v 0.01331887 0.03586878 0.00297124
v 0.01127201 0.03586878 0.00297859
v 0.00512353 0.03792083 0.00297816
v 0.00306877 0.03792083 0.00298032
v 0.00102981 0.03792083 0.00298032
v 0.00306877 0.03994068 0.00251042
v 0.00102981 0.03994068 0.00250869
v -0.00102495 0.03993264 0.00250739
v -0.00307181 0.03988435 0.00250609
v -0.00511867 0.03972340 0.00250566
v -0.00717343 0.03954636 0.00250350
v -0.00922029 0.03936933 0.00244774
v -0.01087201 0.03916010 0.00227957
v -0.02269479 0.03291545 -0.00011532
v -0.01219180 0.03887845 0.00102507
v -0.01536877 0.03759089 0.00102507
v -0.01665695 0.03703563 0.00102507
v -0.01767643 0.03643209 0.00102507
v -0.01656212 0.03698735 -0.00011316
v -0.02345347 0.03169227 -0.00034703
v -0.02151725 0.03177274 -0.00076982
v -0.02767364 -0.02356807 -0.00087616
v -0.02561888 -0.02767216 -0.00070670
v -0.02778428 -0.02573278 -0.00052384
v -0.02707302 -0.02767216 -0.00024415
v -0.02545291 -0.02953912 -0.00023766
v -0.02465472 -0.03080253 -0.00005567
v -0.02467843 -0.03082668 0.00102507
v -0.02570581 -0.02974835 0.00102507
v -0.02666996 -0.02872635 0.00102507
v -0.02847184 -0.02640070 0.00102507
v 0.03792070 -0.00921986 0.00290726
v 0.03792070 -0.00716781 0.00291159
v -0.03179107 -0.00716781 0.00330022
v 0.02356897 -0.02972420 0.00292023
v 0.03177221 -0.02152407 0.00291245
v -0.00717343 -0.03792433 0.00294185
v -0.00511867 -0.03792433 0.00295655
v 0.00102981 -0.03996833 0.00260250
v 0.00306877 -0.03996833 0.00258434
v 0.00717039 -0.03981543 0.00249053
v 0.00921725 -0.03955792 0.00249010
v 0.01127201 -0.03792433 0.00285755
v 0.01537363 -0.03587229 0.00291332
v 0.02356897 -0.03176820 0.00282988
v 0.02562373 -0.02972420 0.00288478
v 0.01742049 -0.03587229 0.00273262
v 0.02767059 -0.02767216 0.00288911
v -0.02464681 -0.03079448 0.00210147
v -0.02357202 -0.03123709 0.00232972
v -0.02110630 -0.03322475 0.00236604
v -0.02168322 -0.03192914 0.00262368
v -0.01947039 -0.03387657 0.00256099
v -0.01742354 -0.03544579 0.00245076
v -0.01549522 -0.03601714 0.00258780
v -0.01332191 -0.03748173 0.00248146
v -0.00922029 -0.03792433 0.00283161
v -0.00102495 -0.03792433 -0.00102962
v 0.00102981 -0.03996833 -0.00063754
v -0.00717343 -0.03792433 -0.00098985
v -0.01947039 -0.03176820 -0.00095527
v -0.02357202 -0.02972420 -0.00075296
v -0.01962845 0.03397768 -0.00054157
v -0.01732080 0.03587683 -0.00042959
v -0.01536877 0.03725290 -0.00031678
v -0.01332191 0.03765527 -0.00046981
v -0.00922029 0.03936128 -0.00039718
v -0.00717343 0.03956246 -0.00047412
v -0.00511867 0.03974755 -0.00048320
v -0.00102495 0.03997287 -0.00053335
v 0.00102981 0.03997287 -0.00054329
v -0.00511867 0.03792083 -0.00094489
v 0.03792070 0.01126839 -0.00108581
v 0.03177221 0.02152057 -0.00105340
v 0.03177221 0.02357261 -0.00103999
v 0.03587384 0.01742453 -0.00102486
v 0.03996755 0.00102427 -0.00107113
v 0.03996755 -0.00101973 -0.00106464
v 0.03996755 -0.00307177 -0.00104561
v 0.03996755 -0.00512382 -0.00100022
v 0.03996755 -0.00716781 -0.00087703
v 0.03792070 -0.01332395 -0.00098509
v 0.03587384 -0.01741999 -0.00098509
v 0.03381907 -0.01947203 -0.00107675
v 0.03177221 -0.02152407 -0.00109404
v 0.01331887 -0.03587229 -0.00105210
v -0.03156188 0.00738158 0.00330022
v 0.03996755 0.00102427 0.00289127
v 0.03996755 0.00306827 0.00288781
v 0.03792070 0.01126839 0.00290078
v 0.03587384 0.01537248 0.00290683
v 0.03587384 0.01742453 0.00287571
v 0.03177221 0.02357261 0.00289776
v 0.02971745 0.02562466 0.00291159
v 0.02767059 0.02766865 0.00291894
v 0.02562373 0.02972070 0.00292585
v 0.01946735 0.03382478 0.00295741
v 0.01537363 0.03586878 0.00295870
v 0.00921725 0.03792083 0.00296259
v 0.00717039 0.03792083 0.00297167
v 0.00512353 0.03989240 0.00250955
v 0.00102981 0.04096268 0.00177682
v -0.00102495 0.04096268 0.00166399
v -0.00511867 0.04052813 0.00102507
v -0.00717343 0.04016601 0.00102507
v -0.00922029 0.03977973 0.00102507
v -0.01117232 0.03924862 0.00102507
v -0.01904364 0.03520086 -0.00029084
v -0.02151725 0.03334195 -0.00031678
v -0.01085620 0.03914401 -0.00021950
v -0.02357202 -0.03126122 -0.00028435
v -0.02112211 -0.03324889 -0.00031807
v -0.01883026 -0.03509171 -0.00023333
v -0.02142242 -0.03345812 0.00102507
v -0.02244190 -0.03269363 0.00102507
v -0.02357202 -0.03175211 0.00102507
v 0.03792070 -0.01127190 0.00289300
v 0.03996755 -0.00307177 0.00289041
v 0.03381907 -0.01947203 0.00289905
v -0.03170413 -0.00512382 0.00330022
v 0.03996755 -0.00101973 0.00289170
v 0.02971745 -0.02562012 0.00287787
v -0.00717343 -0.03946135 0.00248016
v -0.00102495 -0.03996833 0.00255754
v 0.00102981 -0.04107885 0.00215680
v 0.00306877 -0.04106275 0.00214038
v 0.00531320 -0.04017756 0.00242872
v 0.00476790 -0.04103056 0.00209153
v 0.01127201 -0.03934869 0.00241791
v 0.01537363 -0.03756221 0.00247713
v 0.02171178 -0.03401338 0.00257007
v 0.02356897 -0.03342593 0.00239327
v 0.02555261 -0.03176015 0.00247411
v 0.02768640 -0.02974835 0.00253073
v 0.02115858 -0.03521242 0.00233620
v 0.01742049 -0.03716789 0.00229773
v 0.01931719 -0.03588838 0.00242656
v 0.02974906 -0.02769630 0.00253204
v -0.01879074 -0.03506756 0.00226747
v -0.01489460 -0.03715984 0.00231200
v -0.01060331 -0.03906704 0.00219744
v -0.00922029 -0.03925213 0.00236776
v 0.00102981 -0.03792433 -0.00103091
v 0.00306877 -0.03996833 -0.00062240
v 0.00102981 -0.04108689 -0.00012353
v -0.00102495 -0.03996833 -0.00059776
v 0.00306877 -0.03792433 -0.00103135
v 0.00921725 -0.03792433 -0.00103049
v -0.00717343 -0.03950159 -0.00048839
v -0.00922029 -0.03792433 -0.00085454
v -0.01332191 -0.03587229 -0.00093278
v -0.01742354 -0.03382025 -0.00089258
v -0.01949410 -0.03389267 -0.00052168
v -0.02169112 -0.03194524 -0.00057744
v -0.00216297 0.04100292 -0.00001373
v -0.00102495 0.04103510 -0.00005177
v -0.00293746 0.04012577 -0.00039415
v 0.00102981 0.04104315 -0.00006215
v 0.00512353 0.03990849 -0.00048061
v 0.00921725 0.03792083 -0.00095527
v 0.03792070 0.01332044 -0.00101795
v 0.03996755 0.00512031 -0.00101536
v 0.03996755 0.00306827 -0.00106205
v 0.02971745 0.02562466 -0.00102962
v 0.02783655 0.02988969 -0.00060597
v 0.02986761 0.02782155 -0.00062197
v 0.03187495 0.02571318 -0.00062154
v 0.03381907 0.02152057 -0.00095830
v 0.03758877 0.01742453 -0.00049142
v 0.04156395 0.00102427 -0.00051779
v 0.04155604 -0.00101973 -0.00051001
v 0.04150863 -0.00307177 -0.00048839
v 0.04142960 -0.00512382 -0.00044690
v 0.04127154 -0.00716781 -0.00032887
v 0.03969095 -0.01127190 -0.00055971
v 0.03936693 -0.01332395 -0.00042874
v 0.03743862 -0.01741999 -0.00043954
v 0.03596867 -0.01952031 -0.00056448
v 0.03381907 -0.02152407 -0.00088350
v 0.03177221 -0.02356807 -0.00102270
v 0.02971745 -0.02562012 -0.00105556
v 0.02767059 -0.02767216 -0.00105123
v 0.02152211 -0.03176820 -0.00104691
v 0.01537363 -0.03587229 -0.00103870
v 0.04150863 0.00102427 0.00246848
v 0.04147701 0.00306827 0.00246373
v 0.03996755 0.00512031 0.00285496
v 0.03792070 0.01332044 0.00283637
v 0.03753345 0.01742453 0.00244557
v 0.03600028 0.01958923 0.00253939
v 0.03381907 0.02152057 0.00282729
v 0.03185124 0.02568903 0.00254587
v 0.02987551 0.02782155 0.00255711
v 0.02782865 0.02987360 0.00256272
v 0.02356897 0.03177274 0.00291980
v 0.01742049 0.03586878 0.00285625
v 0.01127201 0.03792083 0.00290813
v 0.00717039 0.03972340 0.00250480
v 0.00512353 0.04085806 0.00102507
v 0.00324263 0.04097073 0.00109855
v 0.00102981 0.04104315 0.00075228
v 0.00921725 0.03953832 0.00249659
v 0.01127201 0.03936128 0.00244385
v -0.00102495 0.04103510 0.00063946
v -0.00216297 0.04100292 0.00031438
v -0.00293746 0.04087416 0.00100864
v -0.01742354 -0.03549407 -0.00041491
v -0.01494202 -0.03718399 -0.00027830
v -0.01623810 -0.03676553 0.00102507
v -0.01742354 -0.03609761 0.00102507
v -0.01898832 -0.03519632 0.00102507
v -0.02001570 -0.03448816 0.00102507
v 0.03587384 -0.01741999 0.00281129
v 0.03792070 -0.01332395 0.00279055
v 0.03996755 -0.00512382 0.00286490
v 0.04146911 -0.00307177 0.00246633
v 0.04150072 -0.00101973 0.00246892
v 0.03177221 -0.02356807 0.00284415
v -0.00213136 -0.04100642 0.00206646
v -0.00102495 -0.04103861 0.00211012
v -0.00291375 -0.04008904 0.00241877
v 0.00102981 -0.04116737 0.00102507
v 0.00306877 -0.04114322 0.00102507
v 0.00498128 -0.04105471 0.00102507
v 0.00600866 -0.04097423 0.00102507
v 0.01127201 -0.03977519 0.00102507
v 0.01280518 -0.03913141 0.00224715
v 0.02483344 -0.03297529 0.00221732
v 0.02701465 -0.03106809 0.00229816
v 0.02909312 -0.02908847 0.00231718
v 0.01853480 -0.03693452 0.00210190
v 0.03110047 -0.02702838 0.00230421
v 0.03178012 -0.02559597 0.00249313
v -0.01521072 -0.03730469 0.00102507
v -0.01081668 -0.03914751 0.00102507
v -0.00922029 -0.03959815 0.00102507
v 0.01127201 -0.03792433 -0.00095656
v 0.00921725 -0.03961425 -0.00050265
v 0.00717039 -0.03982348 -0.00050525
v 0.00522627 -0.04016146 -0.00044170
v 0.00306877 -0.04107885 -0.00011100
v -0.00102495 -0.04105471 -0.00008204
v -0.00296907 -0.04010513 -0.00043305
v -0.00511867 -0.03969472 -0.00051173
v -0.00221830 -0.04102252 -0.00003405
v -0.00922029 -0.03928432 -0.00036216
v -0.01332191 -0.03750588 -0.00044819
v -0.01552683 -0.03603323 -0.00055194
v 0.00267362 0.04101901 -0.00002757
v 0.00921725 0.03954636 -0.00048710
v 0.01127201 0.03792083 -0.00090253
v 0.01537363 0.03586878 -0.00096262
v 0.03945386 0.01332044 -0.00047153
v 0.03996755 0.00717235 -0.00088912
v 0.04145331 0.00512031 -0.00046764
v 0.04153233 0.00306827 -0.00051087
v 0.02562373 0.02972070 -0.00098250
v 0.02356897 0.03177274 -0.00095224
v 0.02570276 0.03186931 -0.00058003
v 0.02726754 0.03124967 -0.00033795
v 0.02928279 0.02931834 -0.00034357
v 0.03126643 0.02724215 -0.00035568
v 0.03317894 0.02509354 -0.00033104
v 0.03384278 0.02353238 -0.00054242
v 0.03602399 0.01961337 -0.00059776
v 0.03543917 0.02152057 -0.00041750
v 0.03720943 0.01902593 -0.00029991
v 0.03917726 0.01492184 -0.00026706
v 0.04206973 0.00102427 0.00102507
v 0.04206183 -0.00101973 0.00102507
v 0.04198280 -0.00307177 0.00102507
v 0.04182474 -0.00512382 0.00102507
v 0.04111348 -0.00864850 -0.00015942
v 0.03910614 -0.01472416 -0.00019919
v 0.03711460 -0.01886849 -0.00023507
v 0.03528902 -0.02152407 -0.00033061
v 0.03377166 -0.02343127 -0.00043998
v 0.03180382 -0.02562012 -0.00057356
v 0.02978067 -0.02772849 -0.00061160
v 0.02771011 -0.02977249 -0.00059344
v 0.02562373 -0.02972420 -0.00101362
v 0.01946735 -0.03382025 -0.00103394
v 0.01742049 -0.03587229 -0.00083163
v 0.04201441 0.00306827 0.00102507
v 0.04139008 0.00512031 0.00242958
v 0.03996755 0.00717235 0.00277239
v 0.03938274 0.01332044 0.00241013
v 0.03716992 0.01897764 0.00229298
v 0.03539966 0.02152057 0.00239500
v 0.03914565 0.01487355 0.00224888
v 0.03381907 0.02351628 0.00248405
v 0.03313942 0.02506135 0.00231156
v 0.03121901 0.02724215 0.00232410
v 0.02929069 0.02929419 0.00232886
v 0.02724383 0.03120943 0.00233188
v 0.02568696 0.03184517 0.00255711
v 0.02152211 0.03382478 0.00280784
v 0.01945945 0.03593316 0.00250999
v 0.01742049 0.03732533 0.00239543
v 0.01331887 0.03792083 0.00270668
v 0.00717039 0.04051203 0.00102507
v 0.00267362 0.04101901 0.00046524
v 0.01331887 0.03912791 0.00224888
v -0.01065072 -0.03908313 -0.00017022
v 0.03738329 -0.01741999 0.00238938
v 0.03381907 -0.02152407 0.00274083
v 0.03592125 -0.01946398 0.00249010
v 0.03930371 -0.01332395 0.00236647
v 0.03996755 -0.00716781 0.00275639
v 0.04139008 -0.00512382 0.00243693
v -0.00223410 -0.04102252 0.00102507
v -0.00102495 -0.04109494 0.00102507
v -0.00717343 -0.04001661 0.00102507
v 0.00460984 -0.04103861 -0.00005826
v 0.01283679 -0.03914751 -0.00023377
v 0.01308178 -0.03923603 0.00102507
v 0.02252578 -0.03482615 0.00102507
v 0.02356897 -0.03408580 0.00102507
v 0.02496779 -0.03307990 0.00102507
v 0.02599517 -0.03226713 0.00102507
v 0.02722803 -0.03124513 0.00102507
v 0.02824751 -0.03033579 0.00102507
v 0.02933021 -0.02931379 0.00102507
v 0.03034969 -0.02828375 0.00102507
v 0.01742049 -0.03746564 0.00102507
v 0.01859803 -0.03696671 0.00102507
v 0.01962541 -0.03643560 0.00102507
v 0.02149840 -0.03541360 0.00102507
v 0.03131384 -0.02726175 0.00102507
v 0.03302088 -0.02489586 0.00225018
v 0.03374795 -0.02341517 0.00238203
v 0.01537363 -0.03760244 -0.00051519
v 0.01127201 -0.03938088 -0.00042614
v 0.01127201 0.03936933 -0.00042441
v 0.01331887 0.03911986 -0.00020437
v 0.01331887 0.03792083 -0.00069070
v 0.01742049 0.03586878 -0.00087442
v 0.01946735 0.03382478 -0.00095743
v 0.04113719 0.00885423 -0.00017627
v 0.04130315 0.00717235 -0.00034790
v 0.04184845 0.00512031 0.00102507
v 0.02152211 0.03382478 -0.00083681
v 0.02348204 0.03382478 -0.00046073
v 0.02507843 0.03314882 -0.00030164
v 0.02858733 0.03063808 0.00102507
v 0.03061048 0.02856189 0.00102507
v 0.03333699 0.02531886 0.00102507
v 0.03503613 0.02281617 -0.00021042
v 0.03148771 0.02753990 0.00102507
v 0.03251509 0.02634086 0.00102507
v 0.03733588 0.01928344 0.00102507
v 0.03822891 0.01742453 0.00102507
v 0.03881373 0.01620135 0.00102507
v 0.03927210 0.01517130 0.00102507
v 0.03988853 0.01332044 0.00102507
v 0.04124783 -0.00716781 0.00232626
v 0.04110558 -0.00859217 0.00217799
v 0.04152443 -0.00716781 0.00102507
v 0.04116880 -0.00883359 0.00102507
v 0.03972256 -0.01332395 0.00102507
v 0.03916936 -0.01488511 0.00102507
v 0.03719363 -0.01900529 0.00102507
v 0.03492548 -0.02265873 -0.00009544
v 0.03306039 -0.02493610 -0.00026619
v 0.03114788 -0.02708471 -0.00032499
v 0.02914054 -0.02912871 -0.00033363
v 0.02704626 -0.03109223 -0.00030078
v 0.02557632 -0.03176820 -0.00051779
v 0.02356897 -0.03176820 -0.00094532
v 0.02171969 -0.03402142 -0.00061505
v 0.02117438 -0.03522851 -0.00032282
v 0.01933300 -0.03589643 -0.00045035
v 0.01742049 -0.03720008 -0.00030121
v 0.04127154 0.00717235 0.00234485
v 0.04113719 0.00869328 0.00221041
v 0.03502032 0.02280008 0.00222381
v 0.02504682 0.03313272 0.00231848
v 0.02346623 0.03381674 0.00245898
v 0.02152211 0.03526524 0.00235782
v 0.01442528 0.03897501 0.00208504
v 0.01877189 0.03705172 0.00221776
v 0.01127201 0.03978779 0.00102507
v 0.01442528 0.03896697 -0.00003535
v 0.03908243 -0.01468393 0.00220090
v 0.03707508 -0.01877192 0.00222208
v 0.03521789 -0.02152407 0.00230941
v 0.01856642 -0.03695062 -0.00007166
v 0.02485715 -0.03299942 -0.00021259
v 0.03233332 -0.02610295 0.00102507
v 0.03490968 -0.02262654 0.00211574
v 0.01742049 0.03734947 -0.00039415
v 0.01949106 0.03596535 -0.00050871
v 0.04120041 0.00906345 0.00102507
v 0.04157185 0.00717235 0.00102507
v 0.04091591 0.01008545 0.00102507
v 0.02152211 0.03531352 -0.00035611
v 0.02529181 0.03330976 0.00102507
v 0.02631919 0.03249699 0.00102507
v 0.02273916 0.03496749 -0.00014040
v 0.03436438 0.02396693 0.00102507
v 0.03512306 0.02293688 0.00102507
v 0.03674316 0.02030544 0.00102507
v 0.03657720 -0.02002729 0.00102507
v 0.03494919 -0.02269092 0.00102507
v 0.03419051 -0.02371292 0.00102507
v 0.03316313 -0.02508095 0.00102507
v 0.02356897 -0.03345812 -0.00042312
v 0.02271546 0.03495944 0.00216761
v 0.01445689 0.03898306 0.00102507
v 0.01331887 0.03929690 0.00102507
v 0.01897737 0.03714024 0.00102507
v 0.01742049 0.03777598 0.00102507
v 0.01881931 0.03705977 -0.00018838
v 0.02384557 0.03433176 0.00102507
v 0.01999685 0.03658498 0.00102507
v 0.02281819 0.03502382 0.00102507
f 1 2 3
f 1 3 4
f 1 4 5
f 1 5 13
f 1 13 34
f 1 34 58
f 1 58 85
f 1 85 129
f 1 129 192
f 1 192 278
f 1 278 245
f 1 245 154
f 1 154 99
f 1 99 61
f 1 61 39
f 1 39 19
f 1 19 9
f 1 9 2
f 2 6 7
f 2 7 8
f 2 8 3
f 2 9 10
f 2 10 6
f 3 8 11
f 3 11 4
f 4 11 12
f 4 12 13
f 4 13 5
f 6 14 15
f 6 15 16
f 6 16 8
f 6 8 7
f 6 10 14
f 8 16 17
f 8 17 18
f 8 18 11
f 9 19 20
f 9 20 21
f 9 21 22
f 9 22 23
f 9 23 24
f 9 24 25
f 9 25 26
f 9 26 27
f 9 27 10
f 10 27 28
f 10 28 29
f 10 29 14
f 11 18 30
f 11 30 31
f 11 31 32
f 11 32 33
f 11 33 12
f 12 34 13
f 12 33 34
f 14 35 15
f 14 29 36
f 14 36 35
f 15 35 37
f 15 37 16
f 16 37 38
f 16 38 17
f 17 38 30
f 17 30 18
f 19 39 40
f 19 40 41
f 19 41 20
f 20 41 40
f 20 40 42
f 20 42 43
f 20 43 44
f 20 44 21
f 21 44 22
f 22 44 45
f 22 45 24
f 22 24 23
f 24 45 46
f 24 46 25
f 25 46 26
f 26 46 47
f 26 47 48
f 26 48 28
f 26 28 27
f 28 48 49
f 28 49 50
f 28 50 29
f 29 51 35
f 29 35 36
f 29 50 51
f 30 52 53
f 30 53 31
f 30 38 54
f 30 54 52
f 31 53 55
f 31 55 32
f 32 34 33
f 32 55 56
f 32 56 57
f 32 57 34
f 34 57 58
f 35 59 37
f 35 51 60
f 35 60 59
f 37 59 54
f 37 54 38
f 39 61 40
f 40 61 62
f 40 62 63
f 40 63 64
f 40 64 42
f 42 64 65
f 42 65 66
f 42 66 43
f 43 67 44
f 43 66 68
f 43 68 67
f 44 69 45
f 44 67 69
f 45 69 46
f 46 69 70
f 46 70 71
f 46 71 47
f 47 71 48
f 48 71 70
f 48 70 72
f 48 72 73
f 48 73 49
f 49 74 50
f 49 73 74
f 50 74 51
f 51 74 75
f 51 75 76
f 51 76 60
f 52 77 78
f 52 78 53
f 52 54 77
f 53 78 55
f 54 59 77
f 55 78 79
f 55 79 56
f 56 79 80
f 56 80 81
f 56 81 57
f 57 81 82
f 57 82 83
f 57 83 84
f 57 84 58
f 58 84 83
f 58 83 86
f 58 86 87
f 58 87 88
f 58 88 89
f 58 89 90
f 58 90 91
f 58 91 92
f 58 92 93
f 58 93 85
f 59 60 94
f 59 94 77
f 60 76 95
f 60 95 96
f 60 96 97
f 60 97 98
f 60 98 94
f 61 99 62
f 62 100 63
f 62 99 100
f 63 100 101
f 63 101 102
f 63 102 64
f 64 102 103
f 64 103 104
f 64 104 105
f 64 105 65
f 65 105 106
f 65 106 66
f 66 106 68
f 67 68 107
f 67 107 108
f 67 108 69
f 68 106 109
f 68 109 110
f 68 110 111
f 68 111 112
f 68 112 113
f 68 113 107
f 69 108 70
f 70 108 72
f 72 108 114
f 72 114 115
f 72 115 73
f 73 115 74
f 74 115 75
f 75 115 116
f 75 116 76
f 76 116 95
f 77 117 118
f 77 118 119
f 77 119 120
f 77 120 121
f 77 121 78
f 77 94 117
f 78 121 79
f 79 121 122
f 79 122 80
f 80 122 81
f 81 122 123
f 81 123 124
f 81 124 82
f 82 124 125
f 82 125 126
f 82 126 127
f 82 127 128
f 82 128 83
f 83 128 87
f 83 87 86
f 85 93 130
f 85 130 131
f 85 131 132
f 85 132 133
f 85 133 134
f 85 134 135
f 85 135 129
f 87 128 127
f 87 127 126
f 87 126 136
f 87 136 88
f 88 136 137
f 88 137 89
f 89 137 90
f 90 137 138
f 90 138 139
f 90 139 91
f 91 139 92
f 92 139 140
f 92 140 93
f 93 140 139
f 93 139 141
f 93 141 142
f 93 142 130
f 94 98 143
f 94 143 144
f 94 144 145
f 94 145 117
f 95 116 96
f 96 116 97
f 97 116 146
f 97 146 98
f 98 146 147
f 98 147 148
f 98 148 149
f 98 149 150
f 98 150 151
f 98 151 152
f 98 152 153
f 98 153 143
f 99 154 155
f 99 155 156
f 99 156 157
f 99 157 158
f 99 158 159
f 99 159 160
f 99 160 161
f 99 161 100
f 100 161 162
f 100 162 163
f 100 163 101
f 101 163 164
f 101 164 165
f 101 165 166
f 101 166 167
f 101 167 168
f 101 168 102
f 102 168 169
f 102 169 170
f 102 170 103
f 103 170 171
f 103 171 104
f 104 109 105
f 104 171 109
f 105 109 106
f 107 114 108
f 107 113 172
f 107 172 114
f 109 171 173
f 109 173 174
f 109 174 175
f 109 175 176
f 109 176 110
f 110 176 177
f 110 177 172
f 110 172 111
f 111 172 112
f 112 172 113
f 114 172 178
f 114 178 115
f 115 178 116
f 116 178 179
f 116 179 146
f 117 145 118
f 118 145 119
f 119 145 120
f 120 145 121
f 121 145 180
f 121 180 122
f 122 180 181
f 122 181 182
f 122 182 123
f 123 182 124
f 124 182 181
f 124 181 183
f 124 183 125
f 125 183 184
f 125 184 185
f 125 185 186
f 125 186 187
f 125 187 188
f 125 188 189
f 125 189 126
f 126 189 136
f 129 190 191
f 129 191 192
f 129 135 193
f 129 193 194
f 129 194 190
f 130 142 131
f 131 142 195
f 131 195 196
f 131 196 132
f 132 196 197
f 132 197 133
f 133 197 198
f 133 198 199
f 133 199 200
f 133 200 201
f 133 201 202
f 133 202 134
f 134 203 204
f 134 204 135
f 134 202 205
f 134 205 203
f 135 204 206
f 135 206 193
f 136 188 187
f 136 187 186
f 136 186 207
f 136 207 138
f 136 138 137
f 136 189 188
f 138 207 208
f 138 208 139
f 139 208 209
f 139 209 210
f 139 210 211
f 139 211 141
f 141 211 212
f 141 212 213
f 141 213 142
f 142 213 214
f 142 214 215
f 142 215 195
f 143 153 216
f 143 216 217
f 143 217 144
f 144 217 218
f 144 218 219
f 144 219 145
f 145 219 220
f 145 220 180
f 146 179 147
f 147 179 221
f 147 221 222
f 147 222 223
f 147 223 224
f 147 224 148
f 148 224 225
f 148 225 226
f 148 226 149
f 149 226 227
f 149 227 228
f 149 228 229
f 149 229 230
f 149 230 150
f 150 231 151
f 150 230 232
f 150 232 233
f 150 233 234
f 150 234 231
f 151 231 152
f 152 231 235
f 152 235 153
f 153 235 236
f 153 236 237
f 153 237 238
f 153 238 239
f 153 239 240
f 153 240 241
f 153 241 242
f 153 242 243
f 153 243 244
f 153 244 216
f 154 245 155
f 155 246 247
f 155 247 248
f 155 248 249
f 155 249 156
f 155 245 191
f 155 191 246
f 156 250 251
f 156 251 252
f 156 252 253
f 156 253 254
f 156 254 157
f 156 249 250
f 157 254 255
f 157 255 158
f 158 255 256
f 158 256 159
f 159 256 257
f 159 257 258
f 159 258 160
f 160 258 161
f 161 258 164
f 161 164 162
f 162 164 163
f 164 259 260
f 164 260 165
f 164 258 257
f 164 257 259
f 165 260 166
f 166 260 167
f 167 260 261
f 167 261 168
f 168 261 169
f 169 261 170
f 170 261 262
f 170 262 171
f 171 262 263
f 171 263 264
f 171 264 265
f 171 265 173
f 172 177 266
f 172 266 267
f 172 267 178
f 173 268 177
f 173 177 174
f 173 265 268
f 174 177 175
f 175 177 176
f 177 268 223
f 177 223 266
f 178 267 179
f 179 267 221
f 180 220 181
f 181 220 184
f 181 184 183
f 184 220 269
f 184 269 185
f 185 269 270
f 185 270 271
f 185 271 272
f 185 272 273
f 185 273 274
f 185 274 186
f 186 274 207
f 190 275 276
f 190 276 191
f 190 194 277
f 190 277 275
f 191 278 192
f 191 276 279
f 191 279 246
f 191 245 278
f 193 206 194
f 194 206 280
f 194 280 277
f 195 215 281
f 195 281 282
f 195 282 197
f 195 197 196
f 197 282 283
f 197 283 198
f 198 283 284
f 198 284 285
f 198 285 199
f 199 285 286
f 199 286 200
f 200 286 287
f 200 287 201
f 201 288 205
f 201 205 202
f 201 287 288
f 203 205 289
f 203 289 290
f 203 290 291
f 203 291 292
f 203 292 204
f 204 292 206
f 205 293 289
f 205 288 294
f 205 294 295
f 205 295 293
f 206 292 296
f 206 296 280
f 207 274 273
f 207 273 272
f 207 272 297
f 207 297 209
f 207 209 208
f 209 297 211
f 209 211 210
f 211 297 212
f 212 297 298
f 212 298 214
f 212 214 213
f 214 299 300
f 214 300 215
f 214 298 299
f 215 300 281
f 216 244 301
f 216 301 217
f 217 302 303
f 217 303 304
f 217 304 218
f 217 301 305
f 217 305 306
f 217 306 302
f 218 304 307
f 218 307 308
f 218 308 309
f 218 309 219
f 219 309 310
f 219 310 220
f 220 310 311
f 220 311 312
f 220 312 269
f 221 266 222
f 221 267 266
f 222 266 223
f 223 268 225
f 223 225 224
f 225 313 226
f 225 268 313
f 226 313 227
f 227 313 314
f 227 314 315
f 227 315 228
f 228 315 314
f 228 314 316
f 228 316 229
f 229 316 317
f 229 317 318
f 229 318 230
f 230 318 232
f 231 234 319
f 231 319 320
f 231 320 321
f 231 321 235
f 232 318 322
f 232 322 233
f 233 322 323
f 233 323 324
f 233 324 325
f 233 325 326
f 233 326 234
f 234 326 327
f 234 327 319
f 235 321 328
f 235 328 236
f 236 329 237
f 236 328 329
f 237 329 330
f 237 330 238
f 238 330 331
f 238 331 239
f 239 331 332
f 239 332 333
f 239 333 240
f 240 333 334
f 240 334 335
f 240 335 241
f 241 335 336
f 241 336 337
f 241 337 338
f 241 338 242
f 242 338 339
f 242 339 243
f 243 339 340
f 243 340 341
f 243 341 244
f 244 341 342
f 244 342 306
f 244 306 305
f 244 305 301
f 246 343 247
f 246 279 343
f 247 343 344
f 247 344 345
f 247 345 248
f 248 346 250
f 248 250 249
f 248 345 346
f 250 347 348
f 250 348 349
f 250 349 251
f 250 346 347
f 251 350 351
f 251 351 252
f 251 349 350
f 252 351 254
f 252 254 253
f 254 352 353
f 254 353 255
f 254 351 352
f 255 354 256
f 255 353 354
f 256 354 355
f 256 355 257
f 257 355 356
f 257 356 259
f 259 356 260
f 260 357 358
f 260 358 359
f 260 359 261
f 260 356 360
f 260 360 361
f 260 361 357
f 261 359 362
f 261 362 363
f 261 363 364
f 261 364 262
f 262 364 363
f 262 363 313
f 262 313 263
f 263 313 264
f 264 313 268
f 264 268 265
f 269 312 270
f 270 312 311
f 270 311 271
f 271 365 366
f 271 366 367
f 271 367 368
f 271 368 369
f 271 369 370
f 271 370 272
f 271 311 365
f 272 370 297
f 275 371 372
f 275 372 373
f 275 373 276
f 275 277 371
f 276 374 375
f 276 375 343
f 276 343 279
f 276 373 374
f 277 280 376
f 277 376 371
f 280 296 376
f 281 377 378
f 281 378 379
f 281 379 282
f 281 300 377
f 282 379 378
f 282 378 283
f 283 378 380
f 283 380 284
f 284 380 381
f 284 381 286
f 284 286 285
f 286 381 382
f 286 382 383
f 286 383 384
f 286 384 385
f 286 385 287
f 287 385 294
f 287 294 288
f 289 293 290
f 290 386 291
f 290 293 386
f 291 387 292
f 291 386 387
f 292 387 388
f 292 388 296
f 293 295 294
f 293 294 389
f 293 389 386
f 294 385 389
f 296 388 390
f 296 390 391
f 296 391 376
f 297 369 368
f 297 368 367
f 297 367 298
f 297 370 369
f 298 367 392
f 298 392 299
f 299 393 394
f 299 394 377
f 299 377 300
f 299 392 393
f 302 306 395
f 302 395 396
f 302 396 397
f 302 397 398
f 302 398 399
f 302 399 303
f 303 399 380
f 303 380 400
f 303 400 304
f 304 400 401
f 304 401 402
f 304 402 307
f 306 342 395
f 307 402 403
f 307 403 404
f 307 404 308
f 308 404 405
f 308 405 309
f 309 405 406
f 309 406 310
f 310 406 365
f 310 365 311
f 313 363 362
f 313 362 314
f 314 362 359
f 314 359 316
f 316 359 460
f 316 460 407
f 316 407 317
f 317 408 318
f 317 407 408
f 318 408 409
f 318 409 410
f 318 410 322
f 319 411 412
f 319 412 320
f 319 327 411
f 320 412 413
f 320 413 414
f 320 414 321
f 321 414 328
f 322 410 415
f 322 415 323
f 323 415 416
f 323 416 417
f 323 417 418
f 323 418 419
f 323 419 324
f 324 419 420
f 324 420 325
f 325 420 421
f 325 421 422
f 325 422 326
f 326 423 327
f 326 422 424
f 326 424 423
f 327 423 424
f 327 424 425
f 327 425 426
f 327 426 411
f 328 427 428
f 328 428 329
f 328 414 427
f 329 428 330
f 330 429 331
f 330 428 429
f 331 429 430
f 331 430 332
f 332 431 334
f 332 334 333
f 332 430 431
f 334 432 433
f 334 433 335
f 334 431 432
f 335 433 336
f 336 433 434
f 336 434 435
f 336 435 337
f 337 435 436
f 337 436 338
f 338 436 437
f 338 437 339
f 339 437 340
f 340 437 438
f 340 438 439
f 340 439 440
f 340 440 341
f 341 440 342
f 342 441 395
f 342 440 441
f 343 375 427
f 343 427 344
f 344 427 442
f 344 442 443
f 344 443 345
f 345 443 444
f 345 444 346
f 346 444 445
f 346 445 347
f 347 446 447
f 347 447 348
f 347 445 448
f 347 448 446
f 348 447 349
f 349 447 449
f 349 449 350
f 350 449 450
f 350 450 451
f 350 451 351
f 351 452 352
f 351 451 452
f 352 453 454
f 352 454 353
f 352 452 453
f 353 454 455
f 353 455 354
f 354 455 456
f 354 456 457
f 354 457 458
f 354 458 355
f 355 458 361
f 355 361 360
f 355 360 356
f 357 459 407
f 357 407 460
f 357 460 358
f 357 361 461
f 357 461 459
f 358 460 359
f 361 458 457
f 361 457 461
f 365 406 405
f 365 405 366
f 366 405 462
f 366 462 392
f 366 392 367
f 371 463 372
f 371 376 464
f 371 464 465
f 371 465 463
f 372 463 466
f 372 466 467
f 372 467 373
f 373 467 468
f 373 468 374
f 374 468 429
f 374 429 428
f 374 428 375
f 375 428 427
f 376 391 464
f 377 469 470
f 377 470 380
f 377 380 378
f 377 394 471
f 377 471 469
f 380 470 403
f 380 403 400
f 380 399 381
f 381 399 472
f 381 472 382
f 382 472 383
f 383 472 473
f 383 473 384
f 384 473 474
f 384 474 385
f 385 474 389
f 386 389 475
f 386 475 476
f 386 476 477
f 386 477 478
f 386 478 479
f 386 479 387
f 387 479 480
f 387 480 481
f 387 481 388
f 388 481 482
f 388 482 390
f 389 474 483
f 389 483 484
f 389 484 485
f 389 485 486
f 389 486 475
f 390 487 488
f 390 488 391
f 390 482 487
f 391 488 489
f 391 489 464
f 392 462 393
f 393 462 394
f 394 403 471
f 394 462 403
f 395 441 490
f 395 490 491
f 395 491 396
f 396 491 472
f 396 472 397
f 397 472 398
f 398 472 399
f 400 403 401
f 401 403 402
f 403 470 469
f 403 469 471
f 403 462 404
f 404 462 405
f 407 492 408
f 407 459 493
f 407 493 492
f 408 492 409
f 409 492 494
f 409 494 495
f 409 495 410
f 410 495 496
f 410 496 415
f 411 426 497
f 411 497 498
f 411 498 412
f 412 498 413
f 413 499 442
f 413 442 414
f 413 498 499
f 414 442 427
f 415 496 416
f 416 496 495
f 416 495 500
f 416 500 417
f 417 500 501
f 417 501 502
f 417 502 418
f 418 503 419
f 418 502 503
f 419 504 420
f 419 503 504
f 420 504 421
f 421 505 506
f 421 506 422
f 421 504 507
f 421 507 508
f 421 508 505
f 422 506 424
f 424 506 425
f 425 509 510
f 425 510 511
f 425 511 426
f 425 506 509
f 426 511 512
f 426 512 513
f 426 513 497
f 429 468 430
f 430 468 514
f 430 514 515
f 430 515 516
f 430 516 431
f 431 516 517
f 431 517 518
f 431 518 432
f 432 518 519
f 432 519 520
f 432 520 433
f 433 520 521
f 433 521 434
f 434 521 522
f 434 522 435
f 435 522 436
f 436 522 523
f 436 523 437
f 437 524 438
f 437 523 524
f 438 525 526
f 438 526 527
f 438 527 439
f 438 524 525
f 439 527 440
f 440 527 441
f 441 528 529
f 441 529 530
f 441 530 531
f 441 531 490
f 441 527 528
f 442 499 532
f 442 532 443
f 443 532 444
f 444 532 445
f 445 532 533
f 445 533 448
f 446 448 510
f 446 510 509
f 446 509 534
f 446 534 447
f 447 534 449
f 448 533 513
f 448 513 512
f 448 512 511
f 448 511 510
f 449 534 450
f 450 534 508
f 450 508 507
f 450 507 504
f 450 504 451
f 451 504 452
f 452 504 503
f 452 503 453
f 453 503 535
f 453 535 454
f 454 535 536
f 454 536 455
f 455 537 456
f 455 536 537
f 456 537 457
f 457 538 461
f 457 537 539
f 457 539 538
f 459 540 541
f 459 541 493
f 459 461 538
f 459 538 540
f 463 542 466
f 463 465 543
f 463 543 542
f 464 489 544
f 464 544 465
f 465 544 543
f 466 542 515
f 466 515 514
f 466 514 467
f 467 514 468
f 472 491 473
f 473 491 490
f 473 490 531
f 473 531 545
f 473 545 474
f 474 545 483
f 475 486 545
f 475 545 546
f 475 546 476
f 476 546 477
f 477 546 478
f 478 546 479
f 479 546 525
f 479 525 480
f 480 525 524
f 480 524 481
f 481 524 482
f 482 524 523
f 482 523 487
f 483 545 484
f 484 545 485
f 485 545 486
f 487 523 522
f 487 522 547
f 487 547 488
f 488 548 489
f 488 547 548
f 489 548 544
f 492 493 549
f 492 549 494
f 493 541 549
f 494 549 495
f 495 550 500
f 495 549 550
f 497 551 552
f 497 552 499
f 497 499 498
f 497 513 553
f 497 553 551
f 499 552 533
f 499 533 532
f 500 550 554
f 500 554 501
f 501 554 502
f 502 555 556
f 502 556 503
f 502 554 557
f 502 557 555
f 503 556 535
f 505 534 558
f 505 558 506
f 505 508 534
f 506 558 559
f 506 559 560
f 506 560 509
f 509 560 534
f 513 533 553
f 515 517 516
f 515 542 518
f 515 518 517
f 518 542 519
f 519 542 520
f 520 561 521
f 520 542 543
f 520 543 548
f 520 548 561
f 521 562 563
f 521 563 564
f 521 564 522
f 521 561 562
f 522 564 547
f 525 546 526
f 526 546 565
f 526 565 527
f 527 565 528
f 528 565 529
f 529 545 531
f 529 531 530
f 529 565 546
f 529 546 545
f 533 552 551
f 533 551 553
f 534 559 558
f 534 560 559
f 535 555 566
f 535 566 536
f 535 556 555
f 536 566 537
f 537 566 539
f 538 567 568
f 538 568 540
f 538 539 569
f 538 569 570
f 538 570 567
f 539 566 569
f 540 568 541
f 541 568 567
f 541 567 570
f 541 570 569
f 541 569 571
f 541 571 549
f 543 544 548
f 547 564 548
f 548 564 563
f 548 563 562
f 548 562 561
f 549 571 554
f 549 554 550
f 554 571 557
f 555 557 572
f 555 572 566
f 557 571 569
f 557 569 573
f 557 573 574
f 557 574 572
f 566 572 574
f 566 574 573
f 566 573 569

