v 0.015000 0.000000 0.000000
v 0.023250 0.000000 0.001200
v 0.028200 0.000000 0.004500
v 0.030000 0.000000 0.009000
v 0.028950 0.000000 0.009000
v 0.027300 0.000000 0.005000
v 0.022500 0.000000 0.002000
v 0.015000 0.000000 0.001100
v 0.015000 0.000000 0.000000
v 0.023179 0.000897 0.001200
v 0.028087 0.001436 0.004500
v 0.029872 0.001632 0.009000
v 0.028831 0.001517 0.009000
v 0.027195 0.001338 0.005000
v 0.022436 0.000816 0.002000
v 0.015000 0.000000 0.001100
v 0.015000 0.000000 0.000000
v 0.022969 0.001779 0.001200
v 0.027750 0.002847 0.004500
v 0.029489 0.003235 0.009000
v 0.028475 0.003009 0.009000
v 0.026881 0.002653 0.005000
v 0.022244 0.001618 0.002000
v 0.015000 0.000000 0.001100
v 0.015000 0.000000 0.000000
v 0.022622 0.002631 0.001200
v 0.027195 0.004210 0.004500
v 0.028858 0.004784 0.009000
v 0.027888 0.004449 0.009000
v 0.026364 0.003923 0.005000
v 0.021929 0.002392 0.002000
v 0.015000 0.000000 0.001100
v 0.015000 0.000000 0.000000
v 0.022145 0.003437 0.001200
v 0.026432 0.005500 0.004500
v 0.027990 0.006250 0.009000
v 0.027081 0.005812 0.009000
v 0.025652 0.005125 0.005000
v 0.021495 0.003125 0.002000
v 0.015000 0.000000 0.001100
v 0.015000 0.000000 0.000000
v 0.021545 0.004185 0.001200
v 0.025472 0.006696 0.004500
v 0.026900 0.007610 0.009000
v 0.026067 0.007077 0.009000
v 0.024758 0.006240 0.005000
v 0.020950 0.003805 0.002000
v 0.015000 0.000000 0.001100
v 0.015000 0.000000 0.000000
v 0.020834 0.004861 0.001200
v 0.024334 0.007778 0.004500
v 0.025607 0.008839 0.009000
v 0.024864 0.008220 0.009000
v 0.023697 0.007248 0.005000
v 0.020303 0.004419 0.002000
v 0.015000 0.000000 0.001100
v 0.015000 0.000000 0.000000
v 0.020022 0.005454 0.001200
v 0.023036 0.008727 0.004500
v 0.024131 0.009917 0.009000
v 0.023492 0.009223 0.009000
v 0.022488 0.008132 0.005000
v 0.019566 0.004958 0.002000
v 0.015000 0.000000 0.001100
v 0.015000 0.000000 0.000000
v 0.019125 0.005954 0.001200
v 0.021600 0.009526 0.004500
v 0.022500 0.010825 0.009000
v 0.021975 0.010068 0.009000
v 0.021150 0.008877 0.005000
v 0.018750 0.005413 0.002000
v 0.015000 0.000000 0.001100
v 0.015000 0.000000 0.000000
v 0.018157 0.006352 0.001200
v 0.020051 0.010163 0.004500
v 0.020740 0.011548 0.009000
v 0.020338 0.010740 0.009000
v 0.019707 0.009470 0.005000
v 0.017870 0.005774 0.002000
v 0.015000 0.000000 0.001100
v 0.015000 0.000000 0.000000
v 0.017135 0.006641 0.001200
v 0.018416 0.010625 0.004500
v 0.018882 0.012074 0.009000
v 0.018611 0.011229 0.009000
v 0.018183 0.009901 0.005000
v 0.016941 0.006037 0.002000
v 0.015000 0.000000 0.001100
v 0.015000 0.000000 0.000000
v 0.016077 0.006816 0.001200
v 0.016723 0.010906 0.004500
v 0.016958 0.012393 0.009000
v 0.016821 0.011526 0.009000
v 0.016605 0.010162 0.005000
v 0.015979 0.006197 0.002000
v 0.015000 0.000000 0.001100
v 0.015000 0.000000 0.000000
v 0.015000 0.006875 0.001200
v 0.015000 0.011000 0.004500
v 0.015000 0.012500 0.009000
v 0.015000 0.011625 0.009000
v 0.015000 0.010250 0.005000
v 0.015000 0.006250 0.002000
v 0.015000 0.000000 0.001100
v 0.015000 0.000000 0.000000
v 0.013923 0.006816 0.001200
v 0.013277 0.010906 0.004500
v 0.013042 0.012393 0.009000
v 0.013179 0.011526 0.009000
v 0.013395 0.010162 0.005000
v 0.014021 0.006197 0.002000
v 0.015000 0.000000 0.001100
v 0.015000 0.000000 0.000000
v 0.012865 0.006641 0.001200
v 0.011584 0.010625 0.004500
v 0.011118 0.012074 0.009000
v 0.011389 0.011229 0.009000
v 0.011817 0.009901 0.005000
v 0.013059 0.006037 0.002000
v 0.015000 0.000000 0.001100
v 0.015000 0.000000 0.000000
v 0.011843 0.006352 0.001200
v 0.009949 0.010163 0.004500
v 0.009260 0.011548 0.009000
v 0.009662 0.010740 0.009000
v 0.010293 0.009470 0.005000
v 0.012130 0.005774 0.002000
v 0.015000 0.000000 0.001100
v 0.015000 0.000000 0.000000
v 0.010875 0.005954 0.001200
v 0.008400 0.009526 0.004500
v 0.007500 0.010825 0.009000
v 0.008025 0.010068 0.009000
v 0.008850 0.008877 0.005000
v 0.011250 0.005413 0.002000
v 0.015000 0.000000 0.001100
v 0.015000 0.000000 0.000000
v 0.009978 0.005454 0.001200
v 0.006964 0.008727 0.004500
v 0.005869 0.009917 0.009000
v 0.006508 0.009223 0.009000
v 0.007512 0.008132 0.005000
v 0.010434 0.004958 0.002000
v 0.015000 0.000000 0.001100
v 0.015000 0.000000 0.000000
v 0.009166 0.004861 0.001200
v 0.005666 0.007778 0.004500
v 0.004393 0.008839 0.009000
v 0.005136 0.008220 0.009000
v 0.006303 0.007248 0.005000
v 0.009697 0.004419 0.002000
v 0.015000 0.000000 0.001100
v 0.015000 0.000000 0.000000
v 0.008455 0.004185 0.001200
v 0.004528 0.006696 0.004500
v 0.003100 0.007610 0.009000
v 0.003933 0.007077 0.009000
v 0.005242 0.006240 0.005000
v 0.009050 0.003805 0.002000
v 0.015000 0.000000 0.001100
v 0.015000 0.000000 0.000000
v 0.007855 0.003438 0.001200
v 0.003568 0.005500 0.004500
v 0.002010 0.006250 0.009000
v 0.002919 0.005813 0.009000
v 0.004348 0.005125 0.005000
v 0.008505 0.003125 0.002000
v 0.015000 0.000000 0.001100
v 0.015000 0.000000 0.000000
v 0.007378 0.002631 0.001200
v 0.002805 0.004210 0.004500
v 0.001142 0.004784 0.009000
v 0.002112 0.004449 0.009000
v 0.003636 0.003923 0.005000
v 0.008071 0.002392 0.002000
v 0.015000 0.000000 0.001100
v 0.015000 0.000000 0.000000
v 0.007031 0.001779 0.001200
v 0.002250 0.002847 0.004500
v 0.000511 0.003235 0.009000
v 0.001525 0.003009 0.009000
v 0.003119 0.002653 0.005000
v 0.007756 0.001618 0.002000
v 0.015000 0.000000 0.001100
v 0.015000 0.000000 0.000000
v 0.006821 0.000897 0.001200
v 0.001913 0.001436 0.004500
v 0.000128 0.001632 0.009000
v 0.001169 0.001517 0.009000
v 0.002805 0.001338 0.005000
v 0.007564 0.000816 0.002000
v 0.015000 0.000000 0.001100
v 0.015000 0.000000 0.000000
v 0.006750 0.000000 0.001200
v 0.001800 0.000000 0.004500
v 0.000000 0.000000 0.009000
v 0.001050 0.000000 0.009000
v 0.002700 0.000000 0.005000
v 0.007500 0.000000 0.002000
v 0.015000 0.000000 0.001100
v 0.015000 0.000000 0.000000
v 0.006821 -0.000897 0.001200
v 0.001913 -0.001436 0.004500
v 0.000128 -0.001632 0.009000
v 0.001169 -0.001517 0.009000
v 0.002805 -0.001338 0.005000
v 0.007564 -0.000816 0.002000
v 0.015000 0.000000 0.001100
v 0.015000 0.000000 0.000000
v 0.007031 -0.001779 0.001200
v 0.002250 -0.002847 0.004500
v 0.000511 -0.003235 0.009000
v 0.001525 -0.003009 0.009000
v 0.003119 -0.002653 0.005000
v 0.007756 -0.001618 0.002000
v 0.015000 0.000000 0.001100
v 0.015000 0.000000 0.000000
v 0.007378 -0.002631 0.001200
v 0.002805 -0.004210 0.004500
v 0.001142 -0.004784 0.009000
v 0.002112 -0.004449 0.009000
v 0.003636 -0.003923 0.005000
v 0.008071 -0.002392 0.002000
v 0.015000 0.000000 0.001100
v 0.015000 0.000000 0.000000
v 0.007855 -0.003437 0.001200
v 0.003568 -0.005500 0.004500
v 0.002010 -0.006250 0.009000
v 0.002919 -0.005812 0.009000
v 0.004348 -0.005125 0.005000
v 0.008505 -0.003125 0.002000
v 0.015000 0.000000 0.001100
v 0.015000 0.000000 0.000000
v 0.008455 -0.004185 0.001200
v 0.004528 -0.006696 0.004500
v 0.003100 -0.007610 0.009000
v 0.003933 -0.007077 0.009000
v 0.005242 -0.006240 0.005000
v 0.009050 -0.003805 0.002000
v 0.015000 0.000000 0.001100
v 0.015000 0.000000 0.000000
v 0.009166 -0.004861 0.001200
v 0.005666 -0.007778 0.004500
v 0.004393 -0.008839 0.009000
v 0.005136 -0.008220 0.009000
v 0.006303 -0.007248 0.005000
v 0.009697 -0.004419 0.002000
v 0.015000 0.000000 0.001100
v 0.015000 0.000000 0.000000
v 0.009978 -0.005454 0.001200
v 0.006964 -0.008727 0.004500
v 0.005869 -0.009917 0.009000
v 0.006508 -0.009223 0.009000
v 0.007512 -0.008132 0.005000
v 0.010434 -0.004958 0.002000
v 0.015000 0.000000 0.001100
v 0.015000 0.000000 0.000000
v 0.010875 -0.005954 0.001200
v 0.008400 -0.009526 0.004500
v 0.007500 -0.010825 0.009000
v 0.008025 -0.010068 0.009000
v 0.008850 -0.008877 0.005000
v 0.011250 -0.005413 0.002000
v 0.015000 0.000000 0.001100
v 0.015000 0.000000 0.000000
v 0.011843 -0.006352 0.001200
v 0.009949 -0.010163 0.004500
v 0.009260 -0.011548 0.009000
v 0.009662 -0.010740 0.009000
v 0.010293 -0.009470 0.005000
v 0.012130 -0.005774 0.002000
v 0.015000 0.000000 0.001100
v 0.015000 0.000000 0.000000
v 0.012865 -0.006641 0.001200
v 0.011584 -0.010625 0.004500
v 0.011118 -0.012074 0.009000
v 0.011389 -0.011229 0.009000
v 0.011817 -0.009901 0.005000
v 0.013059 -0.006037 0.002000
v 0.015000 0.000000 0.001100
v 0.015000 0.000000 0.000000
v 0.013923 -0.006816 0.001200
v 0.013277 -0.010906 0.004500
v 0.013042 -0.012393 0.009000
v 0.013179 -0.011526 0.009000
v 0.013395 -0.010162 0.005000
v 0.014021 -0.006197 0.002000
v 0.015000 0.000000 0.001100
v 0.015000 0.000000 0.000000
v 0.015000 -0.006875 0.001200
v 0.015000 -0.011000 0.004500
v 0.015000 -0.012500 0.009000
v 0.015000 -0.011625 0.009000
v 0.015000 -0.010250 0.005000
v 0.015000 -0.006250 0.002000
v 0.015000 0.000000 0.001100
v 0.015000 0.000000 0.000000
v 0.016077 -0.006816 0.001200
v 0.016723 -0.010906 0.004500
v 0.016958 -0.012393 0.009000
v 0.016821 -0.011526 0.009000
v 0.016605 -0.010162 0.005000
v 0.015979 -0.006197 0.002000
v 0.015000 0.000000 0.001100
v 0.015000 0.000000 0.000000
v 0.017135 -0.006641 0.001200
v 0.018416 -0.010625 0.004500
v 0.018882 -0.012074 0.009000
v 0.018611 -0.011229 0.009000
v 0.018183 -0.009901 0.005000
v 0.016941 -0.006037 0.002000
v 0.015000 0.000000 0.001100
v 0.015000 0.000000 0.000000
v 0.018157 -0.006352 0.001200
v 0.020051 -0.010163 0.004500
v 0.020740 -0.011548 0.009000
v 0.020338 -0.010740 0.009000
v 0.019707 -0.009470 0.005000
v 0.017870 -0.005774 0.002000
v 0.015000 0.000000 0.001100
v 0.015000 0.000000 0.000000
v 0.019125 -0.005954 0.001200
v 0.021600 -0.009526 0.004500
v 0.022500 -0.010825 0.009000
v 0.021975 -0.010068 0.009000
v 0.021150 -0.008877 0.005000
v 0.018750 -0.005413 0.002000
v 0.015000 0.000000 0.001100
v 0.015000 0.000000 0.000000
v 0.020022 -0.005454 0.001200
v 0.023036 -0.008727 0.004500
v 0.024131 -0.009917 0.009000
v 0.023492 -0.009223 0.009000
v 0.022488 -0.008132 0.005000
v 0.019566 -0.004958 0.002000
v 0.015000 0.000000 0.001100
v 0.015000 0.000000 0.000000
v 0.020834 -0.004861 0.001200
v 0.024334 -0.007778 0.004500
v 0.025607 -0.008839 0.009000
v 0.024864 -0.008220 0.009000
v 0.023697 -0.007248 0.005000
v 0.020303 -0.004419 0.002000
v 0.015000 0.000000 0.001100
v 0.015000 0.000000 0.000000
v 0.021545 -0.004185 0.001200
v 0.025472 -0.006696 0.004500
v 0.026900 -0.007610 0.009000
v 0.026067 -0.007077 0.009000
v 0.024758 -0.006240 0.005000
v 0.020950 -0.003805 0.002000
v 0.015000 0.000000 0.001100
v 0.015000 0.000000 0.000000
v 0.022145 -0.003438 0.001200
v 0.026432 -0.005500 0.004500
v 0.027990 -0.006250 0.009000
v 0.027081 -0.005813 0.009000
v 0.025652 -0.005125 0.005000
v 0.021495 -0.003125 0.002000
v 0.015000 0.000000 0.001100
v 0.015000 0.000000 0.000000
v 0.022622 -0.002631 0.001200
v 0.027195 -0.004210 0.004500
v 0.028858 -0.004784 0.009000
v 0.027888 -0.004449 0.009000
v 0.026364 -0.003923 0.005000
v 0.021929 -0.002392 0.002000
v 0.015000 0.000000 0.001100
v 0.015000 0.000000 0.000000
v 0.022969 -0.001779 0.001200
v 0.027750 -0.002847 0.004500
v 0.029489 -0.003235 0.009000
v 0.028475 -0.003009 0.009000
v 0.026881 -0.002653 0.005000
v 0.022244 -0.001618 0.002000
v 0.015000 0.000000 0.001100
v 0.015000 0.000000 0.000000
v 0.023179 -0.000897 0.001200
v 0.028087 -0.001436 0.004500
v 0.029872 -0.001632 0.009000
v 0.028831 -0.001517 0.009000
v 0.027195 -0.001338 0.005000
v 0.022436 -0.000816 0.002000
v 0.015000 0.000000 0.001100
f 1 10 2
f 1 9 10
f 2 11 3
f 2 10 11
f 3 12 4
f 3 11 12
f 4 13 5
f 4 12 13
f 5 14 6
f 5 13 14
f 6 15 7
f 6 14 15
f 7 16 8
f 7 15 16
f 9 18 10
f 9 17 18
f 10 19 11
f 10 18 19
f 11 20 12
f 11 19 20
f 12 21 13
f 12 20 21
f 13 22 14
f 13 21 22
f 14 23 15
f 14 22 23
f 15 24 16
f 15 23 24
f 17 26 18
f 17 25 26
f 18 27 19
f 18 26 27
f 19 28 20
f 19 27 28
f 20 29 21
f 20 28 29
f 21 30 22
f 21 29 30
f 22 31 23
f 22 30 31
f 23 32 24
f 23 31 32
f 25 34 26
f 25 33 34
f 26 35 27
f 26 34 35
f 27 36 28
f 27 35 36
f 28 37 29
f 28 36 37
f 29 38 30
f 29 37 38
f 30 39 31
f 30 38 39
f 31 40 32
f 31 39 40
f 33 42 34
f 33 41 42
f 34 43 35
f 34 42 43
f 35 44 36
f 35 43 44
f 36 45 37
f 36 44 45
f 37 46 38
f 37 45 46
f 38 47 39
f 38 46 47
f 39 48 40
f 39 47 48
f 41 50 42
f 41 49 50
f 42 51 43
f 42 50 51
f 43 52 44
f 43 51 52
f 44 53 45
f 44 52 53
f 45 54 46
f 45 53 54
f 46 55 47
f 46 54 55
f 47 56 48
f 47 55 56
f 49 58 50
f 49 57 58
f 50 59 51
f 50 58 59
f 51 60 52
f 51 59 60
f 52 61 53
f 52 60 61
f 53 62 54
f 53 61 62
f 54 63 55
f 54 62 63
f 55 64 56
f 55 63 64
f 57 66 58
f 57 65 66
f 58 67 59
f 58 66 67
f 59 68 60
f 59 67 68
f 60 69 61
f 60 68 69
f 61 70 62
f 61 69 70
f 62 71 63
f 62 70 71
f 63 72 64
f 63 71 72
f 65 74 66
f 65 73 74
f 66 75 67
f 66 74 75
f 67 76 68
f 67 75 76
f 68 77 69
f 68 76 77
f 69 78 70
f 69 77 78
f 70 79 71
f 70 78 79
f 71 80 72
f 71 79 80
f 73 82 74
f 73 81 82
f 74 83 75
f 74 82 83
f 75 84 76
f 75 83 84
f 76 85 77
f 76 84 85
f 77 86 78
f 77 85 86
f 78 87 79
f 78 86 87
f 79 88 80
f 79 87 88
f 81 90 82
f 81 89 90
f 82 91 83
f 82 90 91
f 83 92 84
f 83 91 92
f 84 93 85
f 84 92 93
f 85 94 86
f 85 93 94
f 86 95 87
f 86 94 95
f 87 96 88
f 87 95 96
f 89 98 90
f 89 97 98
f 90 99 91
f 90 98 99
f 91 100 92
f 91 99 100
f 92 101 93
f 92 100 101
f 93 102 94
f 93 101 102
f 94 103 95
f 94 102 103
f 95 104 96
f 95 103 104
f 97 106 98
f 97 105 106
f 98 107 99
f 98 106 107
f 99 108 100
f 99 107 108
f 100 109 101
f 100 108 109
f 101 110 102
f 101 109 110
f 102 111 103
f 102 110 111
f 103 112 104
f 103 111 112
f 105 114 106
f 105 113 114
f 106 115 107
f 106 114 115
f 107 116 108
f 107 115 116
f 108 117 109
f 108 116 117
f 109 118 110
f 109 117 118
f 110 119 111
f 110 118 119
f 111 120 112
f 111 119 120
f 113 122 114
f 113 121 122
f 114 123 115
f 114 122 123
f 115 124 116
f 115 123 124
f 116 125 117
f 116 124 125
f 117 126 118
f 117 125 126
f 118 127 119
f 118 126 127
f 119 128 120
f 119 127 128
f 121 130 122
f 121 129 130
f 122 131 123
f 122 130 131
f 123 132 124
f 123 131 132
f 124 133 125
f 124 132 133
f 125 134 126
f 125 133 134
f 126 135 127
f 126 134 135
f 127 136 128
f 127 135 136
f 129 138 130
f 129 137 138
f 130 139 131
f 130 138 139
f 131 140 132
f 131 139 140
f 132 141 133
f 132 140 141
f 133 142 134
f 133 141 142
f 134 143 135
f 134 142 143
f 135 144 136
f 135 143 144
f 137 146 138
f 137 145 146
f 138 147 139
f 138 146 147
f 139 148 140
f 139 147 148
f 140 149 141
f 140 148 149
f 141 150 142
f 141 149 150
f 142 151 143
f 142 150 151
f 143 152 144
f 143 151 152
f 145 154 146
f 145 153 154
f 146 155 147
f 146 154 155
f 147 156 148
f 147 155 156
f 148 157 149
f 148 156 157
f 149 158 150
f 149 157 158
f 150 159 151
f 150 158 159
f 151 160 152
f 151 159 160
f 153 162 154
f 153 161 162
f 154 163 155
f 154 162 163
f 155 164 156
f 155 163 164
f 156 165 157
f 156 164 165
f 157 166 158
f 157 165 166
f 158 167 159
f 158 166 167
f 159 168 160
f 159 167 168
f 161 170 162
f 161 169 170
f 162 171 163
f 162 170 171
f 163 172 164
f 163 171 172
f 164 173 165
f 164 172 173
f 165 174 166
f 165 173 174
f 166 175 167
f 166 174 175
f 167 176 168
f 167 175 176
f 169 178 170
f 169 177 178
f 170 179 171
f 170 178 179
f 171 180 172
f 171 179 180
f 172 181 173
f 172 180 181
f 173 182 174
f 173 181 182
f 174 183 175
f 174 182 183
f 175 184 176
f 175 183 184
f 177 186 178
f 177 185 186
f 178 187 179
f 178 186 187
f 179 188 180
f 179 187 188
f 180 189 181
f 180 188 189
f 181 190 182
f 181 189 190
f 182 191 183
f 182 190 191
f 183 192 184
f 183 191 192
f 185 194 186
f 185 193 194
f 186 195 187
f 186 194 195
f 187 196 188
f 187 195 196
f 188 197 189
f 188 196 197
f 189 198 190
f 189 197 198
f 190 199 191
f 190 198 199
f 191 200 192
f 191 199 200
f 193 202 194
f 193 201 202
f 194 203 195
f 194 202 203
f 195 204 196
f 195 203 204
f 196 205 197
f 196 204 205
f 197 206 198
f 197 205 206
f 198 207 199
f 198 206 207
f 199 208 200
f 199 207 208
f 201 210 202
f 201 209 210
f 202 211 203
f 202 210 211
f 203 212 204
f 203 211 212
f 204 213 205
f 204 212 213
f 205 214 206
f 205 213 214
f 206 215 207
f 206 214 215
f 207 216 208
f 207 215 216
f 209 218 210
f 209 217 218
f 210 219 211
f 210 218 219
f 211 220 212
f 211 219 220
f 212 221 213
f 212 220 221
f 213 222 214
f 213 221 222
f 214 223 215
f 214 222 223
f 215 224 216
f 215 223 224
f 217 226 218
f 217 225 226
f 218 227 219
f 218 226 227
f 219 228 220
f 219 227 228
f 220 229 221
f 220 228 229
f 221 230 222
f 221 229 230
f 222 231 223
f 222 230 231
f 223 232 224
f 223 231 232
f 225 234 226
f 225 233 234
f 226 235 227
f 226 234 235
f 227 236 228
f 227 235 236
f 228 237 229
f 228 236 237
f 229 238 230
f 229 237 238
f 230 239 231
f 230 238 239
f 231 240 232
f 231 239 240
f 233 242 234
f 233 241 242
f 234 243 235
f 234 242 243
f 235 244 236
f 235 243 244
f 236 245 237
f 236 244 245
f 237 246 238
f 237 245 246
f 238 247 239
f 238 246 247
f 239 248 240
f 239 247 248
f 241 250 242
f 241 249 250
f 242 251 243
f 242 250 251
f 243 252 244
f 243 251 252
f 244 253 245
f 244 252 253
f 245 254 246
f 245 253 254
f 246 255 247
f 246 254 255
f 247 256 248
f 247 255 256
f 249 258 250
f 249 257 258
f 250 259 251
f 250 258 259
f 251 260 252
f 251 259 260
f 252 261 253
f 252 260 261
f 253 262 254
f 253 261 262
f 254 263 255
f 254 262 263
f 255 264 256
f 255 263 264
f 257 266 258
f 257 265 266
f 258 267 259
f 258 266 267
f 259 268 260
f 259 267 268
f 260 269 261
f 260 268 269
f 261 270 262
f 261 269 270
f 262 271 263
f 262 270 271
f 263 272 264
f 263 271 272
f 265 274 266
f 265 273 274
f 266 275 267
f 266 274 275
f 267 276 268
f 267 275 276
f 268 277 269
f 268 276 277
f 269 278 270
f 269 277 278
f 270 279 271
f 270 278 279
f 271 280 272
f 271 279 280
f 273 282 274
f 273 281 282
f 274 283 275
f 274 282 283
f 275 284 276
f 275 283 284
f 276 285 277
f 276 284 285
f 277 286 278
f 277 285 286
f 278 287 279
f 278 286 287
f 279 288 280
f 279 287 288
f 281 290 282
f 281 289 290
f 282 291 283
f 282 290 291
f 283 292 284
f 283 291 292
f 284 293 285
f 284 292 293
f 285 294 286
f 285 293 294
f 286 295 287
f 286 294 295
f 287 296 288
f 287 295 296
f 289 298 290
f 289 297 298
f 290 299 291
f 290 298 299
f 291 300 292
f 291 299 300
f 292 301 293
f 292 300 301
f 293 302 294
f 293 301 302
f 294 303 295
f 294 302 303
f 295 304 296
f 295 303 304
f 297 306 298
f 297 305 306
f 298 307 299
f 298 306 307
f 299 308 300
f 299 307 308
f 300 309 301
f 300 308 309
f 301 310 302
f 301 309 310
f 302 311 303
f 302 310 311
f 303 312 304
f 303 311 312
f 305 314 306
f 305 313 314
f 306 315 307
f 306 314 315
f 307 316 308
f 307 315 316
f 308 317 309
f 308 316 317
f 309 318 310
f 309 317 318
f 310 319 311
f 310 318 319
f 311 320 312
f 311 319 320
f 313 322 314
f 313 321 322
f 314 323 315
f 314 322 323
f 315 324 316
f 315 323 324
f 316 325 317
f 316 324 325
f 317 326 318
f 317 325 326
f 318 327 319
f 318 326 327
f 319 328 320
f 319 327 328
f 321 330 322
f 321 329 330
f 322 331 323
f 322 330 331
f 323 332 324
f 323 331 332
f 324 333 325
f 324 332 333
f 325 334 326
f 325 333 334
f 326 335 327
f 326 334 335
f 327 336 328
f 327 335 336
f 329 338 330
f 329 337 338
f 330 339 331
f 330 338 339
f 331 340 332
f 331 339 340
f 332 341 333
f 332 340 341
f 333 342 334
f 333 341 342
f 334 343 335
f 334 342 343
f 335 344 336
f 335 343 344
f 337 346 338
f 337 345 346
f 338 347 339
f 338 346 347
f 339 348 340
f 339 347 348
f 340 349 341
f 340 348 349
f 341 350 342
f 341 349 350
f 342 351 343
f 342 350 351
f 343 352 344
f 343 351 352
f 345 354 346
f 345 353 354
f 346 355 347
f 346 354 355
f 347 356 348
f 347 355 356
f 348 357 349
f 348 356 357
f 349 358 350
f 349 357 358
f 350 359 351
f 350 358 359
f 351 360 352
f 351 359 360
f 353 362 354
f 353 361 362
f 354 363 355
f 354 362 363
f 355 364 356
f 355 363 364
f 356 365 357
f 356 364 365
f 357 366 358
f 357 365 366
f 358 367 359
f 358 366 367
f 359 368 360
f 359 367 368
f 361 370 362
f 361 369 370
f 362 371 363
f 362 370 371
f 363 372 364
f 363 371 372
f 364 373 365
f 364 372 373
f 365 374 366
f 365 373 374
f 366 375 367
f 366 374 375
f 367 376 368
f 367 375 376
f 369 378 370
f 369 377 378
f 370 379 371
f 370 378 379
f 371 380 372
f 371 379 380
f 372 381 373
f 372 380 381
f 373 382 374
f 373 381 382
f 374 383 375
f 374 382 383
f 375 384 376
f 375 383 384
f 377 2 378
f 377 1 2
f 378 3 379
f 378 2 3
f 379 4 380
f 379 3 4
f 380 5 381
f 380 4 5
f 381 6 382
f 381 5 6
f 382 7 383
f 382 6 7
f 383 8 384
f 383 7 8
