v 0.000000 0.000000 0.000000
v 0.054000 0.000000 0.000000
v 0.056500 0.000000 0.006000
v 0.057500 0.000000 0.045000
v 0.056000 0.000000 0.100000
v 0.052500 0.000000 0.150000
v 0.048000 0.000000 0.185000
v 0.045000 0.000000 0.200000
v 0.000000 0.000000 0.200000
v 0.000000 0.000000 0.000000
v 0.053795 0.004706 0.000000
v 0.056285 0.004924 0.006000
v 0.057281 0.005011 0.045000
v 0.055787 0.004881 0.100000
v 0.052300 0.004576 0.150000
v 0.047817 0.004183 0.185000
v 0.044829 0.003922 0.200000
v 0.000000 0.000000 0.200000
v 0.000000 0.000000 0.000000
v 0.053180 0.009377 0.000000
v 0.055642 0.009811 0.006000
v 0.056626 0.009985 0.045000
v 0.055149 0.009724 0.100000
v 0.051702 0.009117 0.150000
v 0.047271 0.008335 0.185000
v 0.044316 0.007814 0.200000
v 0.000000 0.000000 0.200000
v 0.000000 0.000000 0.000000
v 0.052160 0.013976 0.000000
v 0.054575 0.014623 0.006000
v 0.055541 0.014882 0.045000
v 0.054092 0.014494 0.100000
v 0.050711 0.013588 0.150000
v 0.046364 0.012423 0.185000
v 0.043467 0.011647 0.200000
v 0.000000 0.000000 0.200000
v 0.000000 0.000000 0.000000
v 0.050743 0.018469 0.000000
v 0.053093 0.019324 0.006000
v 0.054032 0.019666 0.045000
v 0.052623 0.019153 0.100000
v 0.049334 0.017956 0.150000
v 0.045105 0.016417 0.185000
v 0.042286 0.015391 0.200000
v 0.000000 0.000000 0.200000
v 0.000000 0.000000 0.000000
v 0.048941 0.022821 0.000000
v 0.051206 0.023878 0.006000
v 0.052113 0.024301 0.045000
v 0.050753 0.023667 0.100000
v 0.047581 0.022187 0.150000
v 0.043503 0.020286 0.185000
v 0.040784 0.019018 0.200000
v 0.000000 0.000000 0.200000
v 0.000000 0.000000 0.000000
v 0.046765 0.027000 0.000000
v 0.048930 0.028250 0.006000
v 0.049796 0.028750 0.045000
v 0.048497 0.028000 0.100000
v 0.045466 0.026250 0.150000
v 0.041569 0.024000 0.185000
v 0.038971 0.022500 0.200000
v 0.000000 0.000000 0.200000
v 0.000000 0.000000 0.000000
v 0.044234 0.030973 0.000000
v 0.046282 0.032407 0.006000
v 0.047101 0.032981 0.045000
v 0.045873 0.032120 0.100000
v 0.043005 0.030113 0.150000
v 0.039319 0.027532 0.185000
v 0.036862 0.025811 0.200000
v 0.000000 0.000000 0.200000
v 0.000000 0.000000 0.000000
v 0.041366 0.034711 0.000000
v 0.043282 0.036317 0.006000
v 0.044048 0.036960 0.045000
v 0.042898 0.035996 0.100000
v 0.040217 0.033746 0.150000
v 0.036770 0.030854 0.185000
v 0.034472 0.028925 0.200000
v 0.000000 0.000000 0.200000
v 0.000000 0.000000 0.000000
v 0.038184 0.038184 0.000000
v 0.039952 0.039952 0.006000
v 0.040659 0.040659 0.045000
v 0.039598 0.039598 0.100000
v 0.037123 0.037123 0.150000
v 0.033941 0.033941 0.185000
v 0.031820 0.031820 0.200000
v 0.000000 0.000000 0.200000
v 0.000000 0.000000 0.000000
v 0.034711 0.041366 0.000000
v 0.036317 0.043282 0.006000
v 0.036960 0.044048 0.045000
v 0.035996 0.042898 0.100000
v 0.033746 0.040217 0.150000
v 0.030854 0.036770 0.185000
v 0.028925 0.034472 0.200000
v 0.000000 0.000000 0.200000
v 0.000000 0.000000 0.000000
v 0.030973 0.044234 0.000000
v 0.032407 0.046282 0.006000
v 0.032981 0.047101 0.045000
v 0.032120 0.045873 0.100000
v 0.030113 0.043005 0.150000
v 0.027532 0.039319 0.185000
v 0.025811 0.036862 0.200000
v 0.000000 0.000000 0.200000
v 0.000000 0.000000 0.000000
v 0.027000 0.046765 0.000000
v 0.028250 0.048930 0.006000
v 0.028750 0.049796 0.045000
v 0.028000 0.048497 0.100000
v 0.026250 0.045466 0.150000
v 0.024000 0.041569 0.185000
v 0.022500 0.038971 0.200000
v 0.000000 0.000000 0.200000
v 0.000000 0.000000 0.000000
v 0.022821 0.048941 0.000000
v 0.023878 0.051206 0.006000
v 0.024301 0.052113 0.045000
v 0.023667 0.050753 0.100000
v 0.022187 0.047581 0.150000
v 0.020286 0.043503 0.185000
v 0.019018 0.040784 0.200000
v 0.000000 0.000000 0.200000
v 0.000000 0.000000 0.000000
v 0.018469 0.050743 0.000000
v 0.019324 0.053093 0.006000
v 0.019666 0.054032 0.045000
v 0.019153 0.052623 0.100000
v 0.017956 0.049334 0.150000
v 0.016417 0.045105 0.185000
v 0.015391 0.042286 0.200000
v 0.000000 0.000000 0.200000
v 0.000000 0.000000 0.000000
v 0.013976 0.052160 0.000000
v 0.014623 0.054575 0.006000
v 0.014882 0.055541 0.045000
v 0.014494 0.054092 0.100000
v 0.013588 0.050711 0.150000
v 0.012423 0.046364 0.185000
v 0.011647 0.043467 0.200000
v 0.000000 0.000000 0.200000
v 0.000000 0.000000 0.000000
v 0.009377 0.053180 0.000000
v 0.009811 0.055642 0.006000
v 0.009985 0.056626 0.045000
v 0.009724 0.055149 0.100000
v 0.009117 0.051702 0.150000
v 0.008335 0.047271 0.185000
v 0.007814 0.044316 0.200000
v 0.000000 0.000000 0.200000
v 0.000000 0.000000 0.000000
v 0.004706 0.053795 0.000000
v 0.004924 0.056285 0.006000
v 0.005011 0.057281 0.045000
v 0.004881 0.055787 0.100000
v 0.004576 0.052300 0.150000
v 0.004183 0.047817 0.185000
v 0.003922 0.044829 0.200000
v 0.000000 0.000000 0.200000
v 0.000000 0.000000 0.000000
v 0.000000 0.054000 0.000000
v 0.000000 0.056500 0.006000
v 0.000000 0.057500 0.045000
v 0.000000 0.056000 0.100000
v 0.000000 0.052500 0.150000
v 0.000000 0.048000 0.185000
v 0.000000 0.045000 0.200000
v 0.000000 0.000000 0.200000
v -0.000000 0.000000 0.000000
v -0.004706 0.053795 0.000000
v -0.004924 0.056285 0.006000
v -0.005011 0.057281 0.045000
v -0.004881 0.055787 0.100000
v -0.004576 0.052300 0.150000
v -0.004183 0.047817 0.185000
v -0.003922 0.044829 0.200000
v -0.000000 0.000000 0.200000
v -0.000000 0.000000 0.000000
v -0.009377 0.053180 0.000000
v -0.009811 0.055642 0.006000
v -0.009985 0.056626 0.045000
v -0.009724 0.055149 0.100000
v -0.009117 0.051702 0.150000
v -0.008335 0.047271 0.185000
v -0.007814 0.044316 0.200000
v -0.000000 0.000000 0.200000
v -0.000000 0.000000 0.000000
v -0.013976 0.052160 0.000000
v -0.014623 0.054575 0.006000
v -0.014882 0.055541 0.045000
v -0.014494 0.054092 0.100000
v -0.013588 0.050711 0.150000
v -0.012423 0.046364 0.185000
v -0.011647 0.043467 0.200000
v -0.000000 0.000000 0.200000
v -0.000000 0.000000 0.000000
v -0.018469 0.050743 0.000000
v -0.019324 0.053093 0.006000
v -0.019666 0.054032 0.045000
v -0.019153 0.052623 0.100000
v -0.017956 0.049334 0.150000
v -0.016417 0.045105 0.185000
v -0.015391 0.042286 0.200000
v -0.000000 0.000000 0.200000
v -0.000000 0.000000 0.000000
v -0.022821 0.048941 0.000000
v -0.023878 0.051206 0.006000
v -0.024301 0.052113 0.045000
v -0.023667 0.050753 0.100000
v -0.022187 0.047581 0.150000
v -0.020286 0.043503 0.185000
v -0.019018 0.040784 0.200000
v -0.000000 0.000000 0.200000
v -0.000000 0.000000 0.000000
v -0.027000 0.046765 0.000000
v -0.028250 0.048930 0.006000
v -0.028750 0.049796 0.045000
v -0.028000 0.048497 0.100000
v -0.026250 0.045466 0.150000
v -0.024000 0.041569 0.185000
v -0.022500 0.038971 0.200000
v -0.000000 0.000000 0.200000
v -0.000000 0.000000 0.000000
v -0.030973 0.044234 0.000000
v -0.032407 0.046282 0.006000
v -0.032981 0.047101 0.045000
v -0.032120 0.045873 0.100000
v -0.030113 0.043005 0.150000
v -0.027532 0.039319 0.185000
v -0.025811 0.036862 0.200000
v -0.000000 0.000000 0.200000
v -0.000000 0.000000 0.000000
v -0.034711 0.041366 0.000000
v -0.036317 0.043282 0.006000
v -0.036960 0.044048 0.045000
v -0.035996 0.042898 0.100000
v -0.033746 0.040217 0.150000
v -0.030854 0.036770 0.185000
v -0.028925 0.034472 0.200000
v -0.000000 0.000000 0.200000
v -0.000000 0.000000 0.000000
v -0.038184 0.038184 0.000000
v -0.039952 0.039952 0.006000
v -0.040659 0.040659 0.045000
v -0.039598 0.039598 0.100000
v -0.037123 0.037123 0.150000
v -0.033941 0.033941 0.185000
v -0.031820 0.031820 0.200000
v -0.000000 0.000000 0.200000
v -0.000000 0.000000 0.000000
v -0.041366 0.034711 0.000000
v -0.043282 0.036317 0.006000
v -0.044048 0.036960 0.045000
v -0.042898 0.035996 0.100000
v -0.040217 0.033746 0.150000
v -0.036770 0.030854 0.185000
v -0.034472 0.028925 0.200000
v -0.000000 0.000000 0.200000
v -0.000000 0.000000 0.000000
v -0.044234 0.030973 0.000000
v -0.046282 0.032407 0.006000
v -0.047101 0.032981 0.045000
v -0.045873 0.032120 0.100000
v -0.043005 0.030113 0.150000
v -0.039319 0.027532 0.185000
v -0.036862 0.025811 0.200000
v -0.000000 0.000000 0.200000
v -0.000000 0.000000 0.000000
v -0.046765 0.027000 0.000000
v -0.048930 0.028250 0.006000
v -0.049796 0.028750 0.045000
v -0.048497 0.028000 0.100000
v -0.045466 0.026250 0.150000
v -0.041569 0.024000 0.185000
v -0.038971 0.022500 0.200000
v -0.000000 0.000000 0.200000
v -0.000000 0.000000 0.000000
v -0.048941 0.022821 0.000000
v -0.051206 0.023878 0.006000
v -0.052113 0.024301 0.045000
v -0.050753 0.023667 0.100000
v -0.047581 0.022187 0.150000
v -0.043503 0.020286 0.185000
v -0.040784 0.019018 0.200000
v -0.000000 0.000000 0.200000
v -0.000000 0.000000 0.000000
v -0.050743 0.018469 0.000000
v -0.053093 0.019324 0.006000
v -0.054032 0.019666 0.045000
v -0.052623 0.019153 0.100000
v -0.049334 0.017956 0.150000
v -0.045105 0.016417 0.185000
v -0.042286 0.015391 0.200000
v -0.000000 0.000000 0.200000
v -0.000000 0.000000 0.000000
v -0.052160 0.013976 0.000000
v -0.054575 0.014623 0.006000
v -0.055541 0.014882 0.045000
v -0.054092 0.014494 0.100000
v -0.050711 0.013588 0.150000
v -0.046364 0.012423 0.185000
v -0.043467 0.011647 0.200000
v -0.000000 0.000000 0.200000
v -0.000000 0.000000 0.000000
v -0.053180 0.009377 0.000000
v -0.055642 0.009811 0.006000
v -0.056626 0.009985 0.045000
v -0.055149 0.009724 0.100000
v -0.051702 0.009117 0.150000
v -0.047271 0.008335 0.185000
v -0.044316 0.007814 0.200000
v -0.000000 0.000000 0.200000
v -0.000000 0.000000 0.000000
v -0.053795 0.004706 0.000000
v -0.056285 0.004924 0.006000
v -0.057281 0.005011 0.045000
v -0.055787 0.004881 0.100000
v -0.052300 0.004576 0.150000
v -0.047817 0.004183 0.185000
v -0.044829 0.003922 0.200000
v -0.000000 0.000000 0.200000
v -0.000000 0.000000 0.000000
v -0.054000 0.000000 0.000000
v -0.056500 0.000000 0.006000
v -0.057500 0.000000 0.045000
v -0.056000 0.000000 0.100000
v -0.052500 0.000000 0.150000
v -0.048000 0.000000 0.185000
v -0.045000 0.000000 0.200000
v -0.000000 0.000000 0.200000
v -0.000000 -0.000000 0.000000
v -0.053795 -0.004706 0.000000
v -0.056285 -0.004924 0.006000
v -0.057281 -0.005011 0.045000
v -0.055787 -0.004881 0.100000
v -0.052300 -0.004576 0.150000
v -0.047817 -0.004183 0.185000
v -0.044829 -0.003922 0.200000
v -0.000000 -0.000000 0.200000
v -0.000000 -0.000000 0.000000
v -0.053180 -0.009377 0.000000
v -0.055642 -0.009811 0.006000
v -0.056626 -0.009985 0.045000
v -0.055149 -0.009724 0.100000
v -0.051702 -0.009117 0.150000
v -0.047271 -0.008335 0.185000
v -0.044316 -0.007814 0.200000
v -0.000000 -0.000000 0.200000
v -0.000000 -0.000000 0.000000
v -0.052160 -0.013976 0.000000
v -0.054575 -0.014623 0.006000
v -0.055541 -0.014882 0.045000
v -0.054092 -0.014494 0.100000
v -0.050711 -0.013588 0.150000
v -0.046364 -0.012423 0.185000
v -0.043467 -0.011647 0.200000
v -0.000000 -0.000000 0.200000
v -0.000000 -0.000000 0.000000
v -0.050743 -0.018469 0.000000
v -0.053093 -0.019324 0.006000
v -0.054032 -0.019666 0.045000
v -0.052623 -0.019153 0.100000
v -0.049334 -0.017956 0.150000
v -0.045105 -0.016417 0.185000
v -0.042286 -0.015391 0.200000
v -0.000000 -0.000000 0.200000
v -0.000000 -0.000000 0.000000
v -0.048941 -0.022821 0.000000
v -0.051206 -0.023878 0.006000
v -0.052113 -0.024301 0.045000
v -0.050753 -0.023667 0.100000
v -0.047581 -0.022187 0.150000
v -0.043503 -0.020286 0.185000
v -0.040784 -0.019018 0.200000
v -0.000000 -0.000000 0.200000
v -0.000000 -0.000000 0.000000
v -0.046765 -0.027000 0.000000
v -0.048930 -0.028250 0.006000
v -0.049796 -0.028750 0.045000
v -0.048497 -0.028000 0.100000
v -0.045466 -0.026250 0.150000
v -0.041569 -0.024000 0.185000
v -0.038971 -0.022500 0.200000
v -0.000000 -0.000000 0.200000
v -0.000000 -0.000000 0.000000
v -0.044234 -0.030973 0.000000
v -0.046282 -0.032407 0.006000
v -0.047101 -0.032981 0.045000
v -0.045873 -0.032120 0.100000
v -0.043005 -0.030113 0.150000
v -0.039319 -0.027532 0.185000
v -0.036862 -0.025811 0.200000
v -0.000000 -0.000000 0.200000
v -0.000000 -0.000000 0.000000
v -0.041366 -0.034711 0.000000
v -0.043282 -0.036317 0.006000
v -0.044048 -0.036960 0.045000
v -0.042898 -0.035996 0.100000
v -0.040217 -0.033746 0.150000
v -0.036770 -0.030854 0.185000
v -0.034472 -0.028925 0.200000
v -0.000000 -0.000000 0.200000
v -0.000000 -0.000000 0.000000
v -0.038184 -0.038184 0.000000
v -0.039952 -0.039952 0.006000
v -0.040659 -0.040659 0.045000
v -0.039598 -0.039598 0.100000
v -0.037123 -0.037123 0.150000
v -0.033941 -0.033941 0.185000
v -0.031820 -0.031820 0.200000
v -0.000000 -0.000000 0.200000
v -0.000000 -0.000000 0.000000
v -0.034711 -0.041366 0.000000
v -0.036317 -0.043282 0.006000
v -0.036960 -0.044048 0.045000
v -0.035996 -0.042898 0.100000
v -0.033746 -0.040217 0.150000
v -0.030854 -0.036770 0.185000
v -0.028925 -0.034472 0.200000
v -0.000000 -0.000000 0.200000
v -0.000000 -0.000000 0.000000
v -0.030973 -0.044234 0.000000
v -0.032407 -0.046282 0.006000
v -0.032981 -0.047101 0.045000
v -0.032120 -0.045873 0.100000
v -0.030113 -0.043005 0.150000
v -0.027532 -0.039319 0.185000
v -0.025811 -0.036862 0.200000
v -0.000000 -0.000000 0.200000
v -0.000000 -0.000000 0.000000
v -0.027000 -0.046765 0.000000
v -0.028250 -0.048930 0.006000
v -0.028750 -0.049796 0.045000
v -0.028000 -0.048497 0.100000
v -0.026250 -0.045466 0.150000
v -0.024000 -0.041569 0.185000
v -0.022500 -0.038971 0.200000
v -0.000000 -0.000000 0.200000
v -0.000000 -0.000000 0.000000
v -0.022821 -0.048941 0.000000
v -0.023878 -0.051206 0.006000
v -0.024301 -0.052113 0.045000
v -0.023667 -0.050753 0.100000
v -0.022187 -0.047581 0.150000
v -0.020286 -0.043503 0.185000
v -0.019018 -0.040784 0.200000
v -0.000000 -0.000000 0.200000
v -0.000000 -0.000000 0.000000
v -0.018469 -0.050743 0.000000
v -0.019324 -0.053093 0.006000
v -0.019666 -0.054032 0.045000
v -0.019153 -0.052623 0.100000
v -0.017956 -0.049334 0.150000
v -0.016417 -0.045105 0.185000
v -0.015391 -0.042286 0.200000
v -0.000000 -0.000000 0.200000
v -0.000000 -0.000000 0.000000
v -0.013976 -0.052160 0.000000
v -0.014623 -0.054575 0.006000
v -0.014882 -0.055541 0.045000
v -0.014494 -0.054092 0.100000
v -0.013588 -0.050711 0.150000
v -0.012423 -0.046364 0.185000
v -0.011647 -0.043467 0.200000
v -0.000000 -0.000000 0.200000
v -0.000000 -0.000000 0.000000
v -0.009377 -0.053180 0.000000
v -0.009811 -0.055642 0.006000
v -0.009985 -0.056626 0.045000
v -0.009724 -0.055149 0.100000
v -0.009117 -0.051702 0.150000
v -0.008335 -0.047271 0.185000
v -0.007814 -0.044316 0.200000
v -0.000000 -0.000000 0.200000
v -0.000000 -0.000000 0.000000
v -0.004706 -0.053795 0.000000
v -0.004924 -0.056285 0.006000
v -0.005011 -0.057281 0.045000
v -0.004881 -0.055787 0.100000
v -0.004576 -0.052300 0.150000
v -0.004183 -0.047817 0.185000
v -0.003922 -0.044829 0.200000
v -0.000000 -0.000000 0.200000
v -0.000000 -0.000000 0.000000
v -0.000000 -0.054000 0.000000
v -0.000000 -0.056500 0.006000
v -0.000000 -0.057500 0.045000
v -0.000000 -0.056000 0.100000
v -0.000000 -0.052500 0.150000
v -0.000000 -0.048000 0.185000
v -0.000000 -0.045000 0.200000
v -0.000000 -0.000000 0.200000
v 0.000000 -0.000000 0.000000
v 0.004706 -0.053795 0.000000
v 0.004924 -0.056285 0.006000
v 0.005011 -0.057281 0.045000
v 0.004881 -0.055787 0.100000
v 0.004576 -0.052300 0.150000
v 0.004183 -0.047817 0.185000
v 0.003922 -0.044829 0.200000
v 0.000000 -0.000000 0.200000
v 0.000000 -0.000000 0.000000
v 0.009377 -0.053180 0.000000
v 0.009811 -0.055642 0.006000
v 0.009985 -0.056626 0.045000
v 0.009724 -0.055149 0.100000
v 0.009117 -0.051702 0.150000
v 0.008335 -0.047271 0.185000
v 0.007814 -0.044316 0.200000
v 0.000000 -0.000000 0.200000
v 0.000000 -0.000000 0.000000
v 0.013976 -0.052160 0.000000
v 0.014623 -0.054575 0.006000
v 0.014882 -0.055541 0.045000
v 0.014494 -0.054092 0.100000
v 0.013588 -0.050711 0.150000
v 0.012423 -0.046364 0.185000
v 0.011647 -0.043467 0.200000
v 0.000000 -0.000000 0.200000
v 0.000000 -0.000000 0.000000
v 0.018469 -0.050743 0.000000
v 0.019324 -0.053093 0.006000
v 0.019666 -0.054032 0.045000
v 0.019153 -0.052623 0.100000
v 0.017956 -0.049334 0.150000
v 0.016417 -0.045105 0.185000
v 0.015391 -0.042286 0.200000
v 0.000000 -0.000000 0.200000
v 0.000000 -0.000000 0.000000
v 0.022821 -0.048941 0.000000
v 0.023878 -0.051206 0.006000
v 0.024301 -0.052113 0.045000
v 0.023667 -0.050753 0.100000
v 0.022187 -0.047581 0.150000
v 0.020286 -0.043503 0.185000
v 0.019018 -0.040784 0.200000
v 0.000000 -0.000000 0.200000
v 0.000000 -0.000000 0.000000
v 0.027000 -0.046765 0.000000
v 0.028250 -0.048930 0.006000
v 0.028750 -0.049796 0.045000
v 0.028000 -0.048497 0.100000
v 0.026250 -0.045466 0.150000
v 0.024000 -0.041569 0.185000
v 0.022500 -0.038971 0.200000
v 0.000000 -0.000000 0.200000
v 0.000000 -0.000000 0.000000
v 0.030973 -0.044234 0.000000
v 0.032407 -0.046282 0.006000
v 0.032981 -0.047101 0.045000
v 0.032120 -0.045873 0.100000
v 0.030113 -0.043005 0.150000
v 0.027532 -0.039319 0.185000
v 0.025811 -0.036862 0.200000
v 0.000000 -0.000000 0.200000
v 0.000000 -0.000000 0.000000
v 0.034711 -0.041366 0.000000
v 0.036317 -0.043282 0.006000
v 0.036960 -0.044048 0.045000
v 0.035996 -0.042898 0.100000
v 0.033746 -0.040217 0.150000
v 0.030854 -0.036770 0.185000
v 0.028925 -0.034472 0.200000
v 0.000000 -0.000000 0.200000
v 0.000000 -0.000000 0.000000
v 0.038184 -0.038184 0.000000
v 0.039952 -0.039952 0.006000
v 0.040659 -0.040659 0.045000
v 0.039598 -0.039598 0.100000
v 0.037123 -0.037123 0.150000
v 0.033941 -0.033941 0.185000
v 0.031820 -0.031820 0.200000
v 0.000000 -0.000000 0.200000
v 0.000000 -0.000000 0.000000
v 0.041366 -0.034711 0.000000
v 0.043282 -0.036317 0.006000
v 0.044048 -0.036960 0.045000
v 0.042898 -0.035996 0.100000
v 0.040217 -0.033746 0.150000
v 0.036770 -0.030854 0.185000
v 0.034472 -0.028925 0.200000
v 0.000000 -0.000000 0.200000
v 0.000000 -0.000000 0.000000
v 0.044234 -0.030973 0.000000
v 0.046282 -0.032407 0.006000
v 0.047101 -0.032981 0.045000
v 0.045873 -0.032120 0.100000
v 0.043005 -0.030113 0.150000
v 0.039319 -0.027532 0.185000
v 0.036862 -0.025811 0.200000
v 0.000000 -0.000000 0.200000
v 0.000000 -0.000000 0.000000
v 0.046765 -0.027000 0.000000
v 0.048930 -0.028250 0.006000
v 0.049796 -0.028750 0.045000
v 0.048497 -0.028000 0.100000
v 0.045466 -0.026250 0.150000
v 0.041569 -0.024000 0.185000
v 0.038971 -0.022500 0.200000
v 0.000000 -0.000000 0.200000
v 0.000000 -0.000000 0.000000
v 0.048941 -0.022821 0.000000
v 0.051206 -0.023878 0.006000
v 0.052113 -0.024301 0.045000
v 0.050753 -0.023667 0.100000
v 0.047581 -0.022187 0.150000
v 0.043503 -0.020286 0.185000
v 0.040784 -0.019018 0.200000
v 0.000000 -0.000000 0.200000
v 0.000000 -0.000000 0.000000
v 0.050743 -0.018469 0.000000
v 0.053093 -0.019324 0.006000
v 0.054032 -0.019666 0.045000
v 0.052623 -0.019153 0.100000
v 0.049334 -0.017956 0.150000
v 0.045105 -0.016417 0.185000
v 0.042286 -0.015391 0.200000
v 0.000000 -0.000000 0.200000
v 0.000000 -0.000000 0.000000
v 0.052160 -0.013976 0.000000
v 0.054575 -0.014623 0.006000
v 0.055541 -0.014882 0.045000
v 0.054092 -0.014494 0.100000
v 0.050711 -0.013588 0.150000
v 0.046364 -0.012423 0.185000
v 0.043467 -0.011647 0.200000
v 0.000000 -0.000000 0.200000
v 0.000000 -0.000000 0.000000
v 0.053180 -0.009377 0.000000
v 0.055642 -0.009811 0.006000
v 0.056626 -0.009985 0.045000
v 0.055149 -0.009724 0.100000
v 0.051702 -0.009117 0.150000
v 0.047271 -0.008335 0.185000
v 0.044316 -0.007814 0.200000
v 0.000000 -0.000000 0.200000
v 0.000000 -0.000000 0.000000
v 0.053795 -0.004706 0.000000
v 0.056285 -0.004924 0.006000
v 0.057281 -0.005011 0.045000
v 0.055787 -0.004881 0.100000
v 0.052300 -0.004576 0.150000
v 0.047817 -0.004183 0.185000
v 0.044829 -0.003922 0.200000
v 0.000000 -0.000000 0.200000
f 1 11 2
f 1 10 11
f 2 12 3
f 2 11 12
f 3 13 4
f 3 12 13
f 4 14 5
f 4 13 14
f 5 15 6
f 5 14 15
f 6 16 7
f 6 15 16
f 7 17 8
f 7 16 17
f 8 18 9
f 8 17 18
f 10 20 11
f 10 19 20
f 11 21 12
f 11 20 21
f 12 22 13
f 12 21 22
f 13 23 14
f 13 22 23
f 14 24 15
f 14 23 24
f 15 25 16
f 15 24 25
f 16 26 17
f 16 25 26
f 17 27 18
f 17 26 27
f 19 29 20
f 19 28 29
f 20 30 21
f 20 29 30
f 21 31 22
f 21 30 31
f 22 32 23
f 22 31 32
f 23 33 24
f 23 32 33
f 24 34 25
f 24 33 34
f 25 35 26
f 25 34 35
f 26 36 27
f 26 35 36
f 28 38 29
f 28 37 38
f 29 39 30
f 29 38 39
f 30 40 31
f 30 39 40
f 31 41 32
f 31 40 41
f 32 42 33
f 32 41 42
f 33 43 34
f 33 42 43
f 34 44 35
f 34 43 44
f 35 45 36
f 35 44 45
f 37 47 38
f 37 46 47
f 38 48 39
f 38 47 48
f 39 49 40
f 39 48 49
f 40 50 41
f 40 49 50
f 41 51 42
f 41 50 51
f 42 52 43
f 42 51 52
f 43 53 44
f 43 52 53
f 44 54 45
f 44 53 54
f 46 56 47
f 46 55 56
f 47 57 48
f 47 56 57
f 48 58 49
f 48 57 58
f 49 59 50
f 49 58 59
f 50 60 51
f 50 59 60
f 51 61 52
f 51 60 61
f 52 62 53
f 52 61 62
f 53 63 54
f 53 62 63
f 55 65 56
f 55 64 65
f 56 66 57
f 56 65 66
f 57 67 58
f 57 66 67
f 58 68 59
f 58 67 68
f 59 69 60
f 59 68 69
f 60 70 61
f 60 69 70
f 61 71 62
f 61 70 71
f 62 72 63
f 62 71 72
f 64 74 65
f 64 73 74
f 65 75 66
f 65 74 75
f 66 76 67
f 66 75 76
f 67 77 68
f 67 76 77
f 68 78 69
f 68 77 78
f 69 79 70
f 69 78 79
f 70 80 71
f 70 79 80
f 71 81 72
f 71 80 81
f 73 83 74
f 73 82 83
f 74 84 75
f 74 83 84
f 75 85 76
f 75 84 85
f 76 86 77
f 76 85 86
f 77 87 78
f 77 86 87
f 78 88 79
f 78 87 88
f 79 89 80
f 79 88 89
f 80 90 81
f 80 89 90
f 82 92 83
f 82 91 92
f 83 93 84
f 83 92 93
f 84 94 85
f 84 93 94
f 85 95 86
f 85 94 95
f 86 96 87
f 86 95 96
f 87 97 88
f 87 96 97
f 88 98 89
f 88 97 98
f 89 99 90
f 89 98 99
f 91 101 92
f 91 100 101
f 92 102 93
f 92 101 102
f 93 103 94
f 93 102 103
f 94 104 95
f 94 103 104
f 95 105 96
f 95 104 105
f 96 106 97
f 96 105 106
f 97 107 98
f 97 106 107
f 98 108 99
f 98 107 108
f 100 110 101
f 100 109 110
f 101 111 102
f 101 110 111
f 102 112 103
f 102 111 112
f 103 113 104
f 103 112 113
f 104 114 105
f 104 113 114
f 105 115 106
f 105 114 115
f 106 116 107
f 106 115 116
f 107 117 108
f 107 116 117
f 109 119 110
f 109 118 119
f 110 120 111
f 110 119 120
f 111 121 112
f 111 120 121
f 112 122 113
f 112 121 122
f 113 123 114
f 113 122 123
f 114 124 115
f 114 123 124
f 115 125 116
f 115 124 125
f 116 126 117
f 116 125 126
f 118 128 119
f 118 127 128
f 119 129 120
f 119 128 129
f 120 130 121
f 120 129 130
f 121 131 122
f 121 130 131
f 122 132 123
f 122 131 132
f 123 133 124
f 123 132 133
f 124 134 125
f 124 133 134
f 125 135 126
f 125 134 135
f 127 137 128
f 127 136 137
f 128 138 129
f 128 137 138
f 129 139 130
f 129 138 139
f 130 140 131
f 130 139 140
f 131 141 132
f 131 140 141
f 132 142 133
f 132 141 142
f 133 143 134
f 133 142 143
f 134 144 135
f 134 143 144
f 136 146 137
f 136 145 146
f 137 147 138
f 137 146 147
f 138 148 139
f 138 147 148
f 139 149 140
f 139 148 149
f 140 150 141
f 140 149 150
f 141 151 142
f 141 150 151
f 142 152 143
f 142 151 152
f 143 153 144
f 143 152 153
f 145 155 146
f 145 154 155
f 146 156 147
f 146 155 156
f 147 157 148
f 147 156 157
f 148 158 149
f 148 157 158
f 149 159 150
f 149 158 159
f 150 160 151
f 150 159 160
f 151 161 152
f 151 160 161
f 152 162 153
f 152 161 162
f 154 164 155
f 154 163 164
f 155 165 156
f 155 164 165
f 156 166 157
f 156 165 166
f 157 167 158
f 157 166 167
f 158 168 159
f 158 167 168
f 159 169 160
f 159 168 169
f 160 170 161
f 160 169 170
f 161 171 162
f 161 170 171
f 163 173 164
f 163 172 173
f 164 174 165
f 164 173 174
f 165 175 166
f 165 174 175
f 166 176 167
f 166 175 176
f 167 177 168
f 167 176 177
f 168 178 169
f 168 177 178
f 169 179 170
f 169 178 179
f 170 180 171
f 170 179 180
f 172 182 173
f 172 181 182
f 173 183 174
f 173 182 183
f 174 184 175
f 174 183 184
f 175 185 176
f 175 184 185
f 176 186 177
f 176 185 186
f 177 187 178
f 177 186 187
f 178 188 179
f 178 187 188
f 179 189 180
f 179 188 189
f 181 191 182
f 181 190 191
f 182 192 183
f 182 191 192
f 183 193 184
f 183 192 193
f 184 194 185
f 184 193 194
f 185 195 186
f 185 194 195
f 186 196 187
f 186 195 196
f 187 197 188
f 187 196 197
f 188 198 189
f 188 197 198
f 190 200 191
f 190 199 200
f 191 201 192
f 191 200 201
f 192 202 193
f 192 201 202
f 193 203 194
f 193 202 203
f 194 204 195
f 194 203 204
f 195 205 196
f 195 204 205
f 196 206 197
f 196 205 206
f 197 207 198
f 197 206 207
f 199 209 200
f 199 208 209
f 200 210 201
f 200 209 210
f 201 211 202
f 201 210 211
f 202 212 203
f 202 211 212
f 203 213 204
f 203 212 213
f 204 214 205
f 204 213 214
f 205 215 206
f 205 214 215
f 206 216 207
f 206 215 216
f 208 218 209
f 208 217 218
f 209 219 210
f 209 218 219
f 210 220 211
f 210 219 220
f 211 221 212
f 211 220 221
f 212 222 213
f 212 221 222
f 213 223 214
f 213 222 223
f 214 224 215
f 214 223 224
f 215 225 216
f 215 224 225
f 217 227 218
f 217 226 227
f 218 228 219
f 218 227 228
f 219 229 220
f 219 228 229
f 220 230 221
f 220 229 230
f 221 231 222
f 221 230 231
f 222 232 223
f 222 231 232
f 223 233 224
f 223 232 233
f 224 234 225
f 224 233 234
f 226 236 227
f 226 235 236
f 227 237 228
f 227 236 237
f 228 238 229
f 228 237 238
f 229 239 230
f 229 238 239
f 230 240 231
f 230 239 240
f 231 241 232
f 231 240 241
f 232 242 233
f 232 241 242
f 233 243 234
f 233 242 243
f 235 245 236
f 235 244 245
f 236 246 237
f 236 245 246
f 237 247 238
f 237 246 247
f 238 248 239
f 238 247 248
f 239 249 240
f 239 248 249
f 240 250 241
f 240 249 250
f 241 251 242
f 241 250 251
f 242 252 243
f 242 251 252
f 244 254 245
f 244 253 254
f 245 255 246
f 245 254 255
f 246 256 247
f 246 255 256
f 247 257 248
f 247 256 257
f 248 258 249
f 248 257 258
f 249 259 250
f 249 258 259
f 250 260 251
f 250 259 260
f 251 261 252
f 251 260 261
f 253 263 254
f 253 262 263
f 254 264 255
f 254 263 264
f 255 265 256
f 255 264 265
f 256 266 257
f 256 265 266
f 257 267 258
f 257 266 267
f 258 268 259
f 258 267 268
f 259 269 260
f 259 268 269
f 260 270 261
f 260 269 270
f 262 272 263
f 262 271 272
f 263 273 264
f 263 272 273
f 264 274 265
f 264 273 274
f 265 275 266
f 265 274 275
f 266 276 267
f 266 275 276
f 267 277 268
f 267 276 277
f 268 278 269
f 268 277 278
f 269 279 270
f 269 278 279
f 271 281 272
f 271 280 281
f 272 282 273
f 272 281 282
f 273 283 274
f 273 282 283
f 274 284 275
f 274 283 284
f 275 285 276
f 275 284 285
f 276 286 277
f 276 285 286
f 277 287 278
f 277 286 287
f 278 288 279
f 278 287 288
f 280 290 281
f 280 289 290
f 281 291 282
f 281 290 291
f 282 292 283
f 282 291 292
f 283 293 284
f 283 292 293
f 284 294 285
f 284 293 294
f 285 295 286
f 285 294 295
f 286 296 287
f 286 295 296
f 287 297 288
f 287 296 297
f 289 299 290
f 289 298 299
f 290 300 291
f 290 299 300
f 291 301 292
f 291 300 301
f 292 302 293
f 292 301 302
f 293 303 294
f 293 302 303
f 294 304 295
f 294 303 304
f 295 305 296
f 295 304 305
f 296 306 297
f 296 305 306
f 298 308 299
f 298 307 308
f 299 309 300
f 299 308 309
f 300 310 301
f 300 309 310
f 301 311 302
f 301 310 311
f 302 312 303
f 302 311 312
f 303 313 304
f 303 312 313
f 304 314 305
f 304 313 314
f 305 315 306
f 305 314 315
f 307 317 308
f 307 316 317
f 308 318 309
f 308 317 318
f 309 319 310
f 309 318 319
f 310 320 311
f 310 319 320
f 311 321 312
f 311 320 321
f 312 322 313
f 312 321 322
f 313 323 314
f 313 322 323
f 314 324 315
f 314 323 324
f 316 326 317
f 316 325 326
f 317 327 318
f 317 326 327
f 318 328 319
f 318 327 328
f 319 329 320
f 319 328 329
f 320 330 321
f 320 329 330
f 321 331 322
f 321 330 331
f 322 332 323
f 322 331 332
f 323 333 324
f 323 332 333
f 325 335 326
f 325 334 335
f 326 336 327
f 326 335 336
f 327 337 328
f 327 336 337
f 328 338 329
f 328 337 338
f 329 339 330
f 329 338 339
f 330 340 331
f 330 339 340
f 331 341 332
f 331 340 341
f 332 342 333
f 332 341 342
f 334 344 335
f 334 343 344
f 335 345 336
f 335 344 345
f 336 346 337
f 336 345 346
f 337 347 338
f 337 346 347
f 338 348 339
f 338 347 348
f 339 349 340
f 339 348 349
f 340 350 341
f 340 349 350
f 341 351 342
f 341 350 351
f 343 353 344
f 343 352 353
f 344 354 345
f 344 353 354
f 345 355 346
f 345 354 355
f 346 356 347
f 346 355 356
f 347 357 348
f 347 356 357
f 348 358 349
f 348 357 358
f 349 359 350
f 349 358 359
f 350 360 351
f 350 359 360
f 352 362 353
f 352 361 362
f 353 363 354
f 353 362 363
f 354 364 355
f 354 363 364
f 355 365 356
f 355 364 365
f 356 366 357
f 356 365 366
f 357 367 358
f 357 366 367
f 358 368 359
f 358 367 368
f 359 369 360
f 359 368 369
f 361 371 362
f 361 370 371
f 362 372 363
f 362 371 372
f 363 373 364
f 363 372 373
f 364 374 365
f 364 373 374
f 365 375 366
f 365 374 375
f 366 376 367
f 366 375 376
f 367 377 368
f 367 376 377
f 368 378 369
f 368 377 378
f 370 380 371
f 370 379 380
f 371 381 372
f 371 380 381
f 372 382 373
f 372 381 382
f 373 383 374
f 373 382 383
f 374 384 375
f 374 383 384
f 375 385 376
f 375 384 385
f 376 386 377
f 376 385 386
f 377 387 378
f 377 386 387
f 379 389 380
f 379 388 389
f 380 390 381
f 380 389 390
f 381 391 382
f 381 390 391
f 382 392 383
f 382 391 392
f 383 393 384
f 383 392 393
f 384 394 385
f 384 393 394
f 385 395 386
f 385 394 395
f 386 396 387
f 386 395 396
f 388 398 389
f 388 397 398
f 389 399 390
f 389 398 399
f 390 400 391
f 390 399 400
f 391 401 392
f 391 400 401
f 392 402 393
f 392 401 402
f 393 403 394
f 393 402 403
f 394 404 395
f 394 403 404
f 395 405 396
f 395 404 405
f 397 407 398
f 397 406 407
f 398 408 399
f 398 407 408
f 399 409 400
f 399 408 409
f 400 410 401
f 400 409 410
f 401 411 402
f 401 410 411
f 402 412 403
f 402 411 412
f 403 413 404
f 403 412 413
f 404 414 405
f 404 413 414
f 406 416 407
f 406 415 416
f 407 417 408
f 407 416 417
f 408 418 409
f 408 417 418
f 409 419 410
f 409 418 419
f 410 420 411
f 410 419 420
f 411 421 412
f 411 420 421
f 412 422 413
f 412 421 422
f 413 423 414
f 413 422 423
f 415 425 416
f 415 424 425
f 416 426 417
f 416 425 426
f 417 427 418
f 417 426 427
f 418 428 419
f 418 427 428
f 419 429 420
f 419 428 429
f 420 430 421
f 420 429 430
f 421 431 422
f 421 430 431
f 422 432 423
f 422 431 432
f 424 434 425
f 424 433 434
f 425 435 426
f 425 434 435
f 426 436 427
f 426 435 436
f 427 437 428
f 427 436 437
f 428 438 429
f 428 437 438
f 429 439 430
f 429 438 439
f 430 440 431
f 430 439 440
f 431 441 432
f 431 440 441
f 433 443 434
f 433 442 443
f 434 444 435
f 434 443 444
f 435 445 436
f 435 444 445
f 436 446 437
f 436 445 446
f 437 447 438
f 437 446 447
f 438 448 439
f 438 447 448
f 439 449 440
f 439 448 449
f 440 450 441
f 440 449 450
f 442 452 443
f 442 451 452
f 443 453 444
f 443 452 453
f 444 454 445
f 444 453 454
f 445 455 446
f 445 454 455
f 446 456 447
f 446 455 456
f 447 457 448
f 447 456 457
f 448 458 449
f 448 457 458
f 449 459 450
f 449 458 459
f 451 461 452
f 451 460 461
f 452 462 453
f 452 461 462
f 453 463 454
f 453 462 463
f 454 464 455
f 454 463 464
f 455 465 456
f 455 464 465
f 456 466 457
f 456 465 466
f 457 467 458
f 457 466 467
f 458 468 459
f 458 467 468
f 460 470 461
f 460 469 470
f 461 471 462
f 461 470 471
f 462 472 463
f 462 471 472
f 463 473 464
f 463 472 473
f 464 474 465
f 464 473 474
f 465 475 466
f 465 474 475
f 466 476 467
f 466 475 476
f 467 477 468
f 467 476 477
f 469 479 470
f 469 478 479
f 470 480 471
f 470 479 480
f 471 481 472
f 471 480 481
f 472 482 473
f 472 481 482
f 473 483 474
f 473 482 483
f 474 484 475
f 474 483 484
f 475 485 476
f 475 484 485
f 476 486 477
f 476 485 486
f 478 488 479
f 478 487 488
f 479 489 480
f 479 488 489
f 480 490 481
f 480 489 490
f 481 491 482
f 481 490 491
f 482 492 483
f 482 491 492
f 483 493 484
f 483 492 493
f 484 494 485
f 484 493 494
f 485 495 486
f 485 494 495
f 487 497 488
f 487 496 497
f 488 498 489
f 488 497 498
f 489 499 490
f 489 498 499
f 490 500 491
f 490 499 500
f 491 501 492
f 491 500 501
f 492 502 493
f 492 501 502
f 493 503 494
f 493 502 503
f 494 504 495
f 494 503 504
f 496 506 497
f 496 505 506
f 497 507 498
f 497 506 507
f 498 508 499
f 498 507 508
f 499 509 500
f 499 508 509
f 500 510 501
f 500 509 510
f 501 511 502
f 501 510 511
f 502 512 503
f 502 511 512
f 503 513 504
f 503 512 513
f 505 515 506
f 505 514 515
f 506 516 507
f 506 515 516
f 507 517 508
f 507 516 517
f 508 518 509
f 508 517 518
f 509 519 510
f 509 518 519
f 510 520 511
f 510 519 520
f 511 521 512
f 511 520 521
f 512 522 513
f 512 521 522
f 514 524 515
f 514 523 524
f 515 525 516
f 515 524 525
f 516 526 517
f 516 525 526
f 517 527 518
f 517 526 527
f 518 528 519
f 518 527 528
f 519 529 520
f 519 528 529
f 520 530 521
f 520 529 530
f 521 531 522
f 521 530 531
f 523 533 524
f 523 532 533
f 524 534 525
f 524 533 534
f 525 535 526
f 525 534 535
f 526 536 527
f 526 535 536
f 527 537 528
f 527 536 537
f 528 538 529
f 528 537 538
f 529 539 530
f 529 538 539
f 530 540 531
f 530 539 540
f 532 542 533
f 532 541 542
f 533 543 534
f 533 542 543
f 534 544 535
f 534 543 544
f 535 545 536
f 535 544 545
f 536 546 537
f 536 545 546
f 537 547 538
f 537 546 547
f 538 548 539
f 538 547 548
f 539 549 540
f 539 548 549
f 541 551 542
f 541 550 551
f 542 552 543
f 542 551 552
f 543 553 544
f 543 552 553
f 544 554 545
f 544 553 554
f 545 555 546
f 545 554 555
f 546 556 547
f 546 555 556
f 547 557 548
f 547 556 557
f 548 558 549
f 548 557 558
f 550 560 551
f 550 559 560
f 551 561 552
f 551 560 561
f 552 562 553
f 552 561 562
f 553 563 554
f 553 562 563
f 554 564 555
f 554 563 564
f 555 565 556
f 555 564 565
f 556 566 557
f 556 565 566
f 557 567 558
f 557 566 567
f 559 569 560
f 559 568 569
f 560 570 561
f 560 569 570
f 561 571 562
f 561 570 571
f 562 572 563
f 562 571 572
f 563 573 564
f 563 572 573
f 564 574 565
f 564 573 574
f 565 575 566
f 565 574 575
f 566 576 567
f 566 575 576
f 568 578 569
f 568 577 578
f 569 579 570
f 569 578 579
f 570 580 571
f 570 579 580
f 571 581 572
f 571 580 581
f 572 582 573
f 572 581 582
f 573 583 574
f 573 582 583
f 574 584 575
f 574 583 584
f 575 585 576
f 575 584 585
f 577 587 578
f 577 586 587
f 578 588 579
f 578 587 588
f 579 589 580
f 579 588 589
f 580 590 581
f 580 589 590
f 581 591 582
f 581 590 591
f 582 592 583
f 582 591 592
f 583 593 584
f 583 592 593
f 584 594 585
f 584 593 594
f 586 596 587
f 586 595 596
f 587 597 588
f 587 596 597
f 588 598 589
f 588 597 598
f 589 599 590
f 589 598 599
f 590 600 591
f 590 599 600
f 591 601 592
f 591 600 601
f 592 602 593
f 592 601 602
f 593 603 594
f 593 602 603
f 595 605 596
f 595 604 605
f 596 606 597
f 596 605 606
f 597 607 598
f 597 606 607
f 598 608 599
f 598 607 608
f 599 609 600
f 599 608 609
f 600 610 601
f 600 609 610
f 601 611 602
f 601 610 611
f 602 612 603
f 602 611 612
f 604 614 605
f 604 613 614
f 605 615 606
f 605 614 615
f 606 616 607
f 606 615 616
f 607 617 608
f 607 616 617
f 608 618 609
f 608 617 618
f 609 619 610
f 609 618 619
f 610 620 611
f 610 619 620
f 611 621 612
f 611 620 621
f 613 623 614
f 613 622 623
f 614 624 615
f 614 623 624
f 615 625 616
f 615 624 625
f 616 626 617
f 616 625 626
f 617 627 618
f 617 626 627
f 618 628 619
f 618 627 628
f 619 629 620
f 619 628 629
f 620 630 621
f 620 629 630
f 622 632 623
f 622 631 632
f 623 633 624
f 623 632 633
f 624 634 625
f 624 633 634
f 625 635 626
f 625 634 635
f 626 636 627
f 626 635 636
f 627 637 628
f 627 636 637
f 628 638 629
f 628 637 638
f 629 639 630
f 629 638 639
f 631 641 632
f 631 640 641
f 632 642 633
f 632 641 642
f 633 643 634
f 633 642 643
f 634 644 635
f 634 643 644
f 635 645 636
f 635 644 645
f 636 646 637
f 636 645 646
f 637 647 638
f 637 646 647
f 638 648 639
f 638 647 648
f 640 2 641
f 640 1 2
f 641 3 642
f 641 2 3
f 642 4 643
f 642 3 4
f 643 5 644
f 643 4 5
f 644 6 645
f 644 5 6
f 645 7 646
f 645 6 7
f 646 8 647
f 646 7 8
f 647 9 648
f 647 8 9
