# https://github.com/mikedh/trimesh
v 0.03645700 0.04830032 0.06070904
v 0.03562575 0.04830032 0.06073143
v 0.03645700 0.04671772 0.06062845
v 0.03645700 0.04994295 0.06050755
v 0.03562575 0.04988291 0.06063740
v 0.03404377 0.04988291 0.06070456
v 0.01663104 0.05779802 0.06063292
v 0.01504688 0.05779802 0.06061501
v 0.01422869 0.05779802 0.06058815
v 0.03645700 0.04525950 0.06031502
v 0.03645700 0.05114384 0.06023890
v 0.03558658 0.05149123 0.06030158
v 0.02929346 0.05304595 0.06063740
v 0.03404377 0.05146765 0.06051651
v 0.02770930 0.05462854 0.06053889
v 0.02612513 0.05462854 0.06062397
v 0.01821303 0.05779802 0.06061054
v 0.01422869 0.05938061 0.06053889
v 0.01422869 0.05649635 0.06029263
v 0.03645700 0.04444462 0.06003741
v 0.03608708 0.05202734 0.05993442
v 0.03503169 0.05236616 0.06014487
v 0.03645700 0.05191154 0.05980458
v 0.03404377 0.05264923 0.06022546
v 0.02937615 0.05473791 0.06032397
v 0.02770930 0.05588732 0.06024337
v 0.02454750 0.05621543 0.06048964
v 0.02296334 0.05621543 0.06058815
v 0.01979719 0.05779802 0.06053889
v 0.01504688 0.05938061 0.06049859
v 0.01422869 0.06060508 0.06024337
v 0.01422869 0.05570505 0.05991651
v 0.03645700 0.04352680 0.05942846
v 0.03306672 0.05372574 0.06003293
v 0.03645700 0.05228038 0.05943741
v 0.03645700 0.05270070 0.05901205
v 0.03555612 0.05299448 0.05929861
v 0.03404377 0.05425327 0.05898070
v 0.03404377 0.05344267 0.05977323
v 0.03201134 0.05398950 0.06015382
v 0.02890395 0.05560855 0.06016726
v 0.02568122 0.05713110 0.06014039
v 0.02454750 0.05737128 0.06021203
v 0.02138135 0.05779802 0.06041352
v 0.01979719 0.05906752 0.06025233
v 0.01663104 0.05938061 0.06039113
v 0.01504688 0.06050215 0.06021651
v 0.01422869 0.06139638 0.05988069
v 0.01422869 0.05520540 0.05950906
v 0.03645700 0.04249318 0.05869414
v 0.03204398 0.05563857 0.05877026
v 0.03087545 0.05595595 0.05907473
v 0.03087545 0.05507673 0.05986726
v 0.02995933 0.05534050 0.06005532
v 0.03645700 0.05320249 0.05770907
v 0.03502517 0.05395734 0.05866279
v 0.02673660 0.05691022 0.06005084
v 0.02336591 0.05842205 0.06001502
v 0.02231052 0.05862792 0.06010457
v 0.02138135 0.05879733 0.06016726
v 0.01756456 0.06020193 0.06010009
v 0.01861995 0.06004539 0.06003293
v 0.01504688 0.06129345 0.05980458
v 0.01422869 0.06181669 0.05950010
v 0.01422869 0.05469502 0.05908369
v 0.01422869 0.05394661 0.05818369
v 0.03645700 0.04187988 0.05770907
v 0.03001808 0.05697027 0.05818817
v 0.02896270 0.05724476 0.05880160
v 0.02770930 0.05756213 0.05909712
v 0.02770930 0.05667862 0.05988965
v 0.03595651 0.05353917 0.05770907
v 0.03645700 0.05078357 0.01812742
v 0.03516443 0.05404311 0.05770907
v 0.03404377 0.05472933 0.05770907
v 0.03307978 0.05531905 0.05770907
v 0.03228987 0.05578011 0.05770907
v 0.02454750 0.05816257 0.05983592
v 0.01979719 0.05986096 0.05992994
v 0.02138135 0.05959076 0.05969263
v 0.01979719 0.06075519 0.05913742
v 0.01504688 0.06216194 0.05901205
v 0.01422869 0.06225630 0.05908816
v 0.01422869 0.05383939 0.05790161
v 0.01422869 0.05366569 0.05743594
v 0.03645700 0.04172547 0.05727027
v 0.02686281 0.05856358 0.05829564
v 0.03074270 0.05663788 0.05768221
v 0.03012688 0.05702602 0.05713595
v 0.02941096 0.05734126 0.05768221
v 0.02759397 0.05826551 0.05774490
v 0.02580743 0.05879518 0.05876578
v 0.02454750 0.05906538 0.05904339
v 0.03562575 0.05134112 0.01812742
v 0.03453338 0.05206165 0.01812742
v 0.03645700 0.05070637 0.01711549
v 0.03374130 0.05256345 0.01812742
v 0.03012688 0.05702602 0.05687625
v 0.03231163 0.05343838 0.01818563
v 0.03168711 0.05384797 0.01875428
v 0.02138135 0.06049572 0.05890010
v 0.01772124 0.06183385 0.05861354
v 0.01663104 0.06197109 0.05879265
v 0.01422869 0.06288462 0.05764191
v 0.01422869 0.05332473 0.05617327
v 0.03645700 0.04135449 0.05612849
v 0.02245850 0.06028985 0.05866279
v 0.02698902 0.05862148 0.05723893
v 0.02625134 0.05889597 0.05774490
v 0.02454750 0.05964009 0.05770907
v 0.02351605 0.06007326 0.05770907
v 0.03440934 0.05198016 0.01654684
v 0.03361726 0.05248625 0.01654684
v 0.03574544 0.05110524 0.01657371
v 0.03645700 0.05056698 0.01613490
v 0.03635255 0.05063131 0.01606326
v 0.03162618 0.05381366 0.01770205
v 0.02698902 0.05862148 0.05684490
v 0.03100818 0.05419108 0.01818563
v 0.02938703 0.05506172 0.01812742
v 0.02859495 0.05547131 0.01812742
v 0.01877662 0.06169446 0.05804937
v 0.01663104 0.06230347 0.05770907
v 0.01504688 0.06268733 0.05770907
v 0.01903557 0.06176522 0.05699267
v 0.01903557 0.06176522 0.05689416
v 0.01422869 0.06058364 0.01806473
v 0.01422869 0.05316818 0.05530910
v 0.01422869 0.05303308 0.05454344
v 0.03645700 0.04118293 0.05511209
v 0.02272397 0.06039278 0.05770907
v 0.02138135 0.06090745 0.05770907
v 0.03343883 0.05237259 0.01534685
v 0.03245961 0.05318319 0.01654684
v 0.03645700 0.05052195 0.01594685
v 0.03615018 0.05049193 0.01498865
v 0.03538204 0.05100659 0.01498865
v 0.03149779 0.05374289 0.01654684
v 0.03070571 0.05418465 0.01654684
v 0.02770930 0.05590234 0.01812742
v 0.02538092 0.05702602 0.01867816
v 0.02851661 0.05542842 0.01728116
v 0.01965575 0.06149717 0.05759713
v 0.01823479 0.06190032 0.05759713
v 0.02172299 0.05842419 0.01812742
v 0.02093309 0.05870940 0.01812742
v 0.01979719 0.05907825 0.01812742
v 0.01821303 0.05956932 0.01812742
v 0.01654182 0.06002823 0.01798414
v 0.01583243 0.06016976 0.01736176
v 0.01520138 0.06035419 0.01798414
v 0.01422869 0.06050858 0.01724534
v 0.01422869 0.05294087 0.05372404
v 0.01422869 0.05285509 0.05295838
v 0.03645700 0.04107786 0.05412255
v 0.02296334 0.05794598 0.01812742
v 0.03385880 0.05199518 0.01498865
v 0.03279254 0.05265352 0.01498865
v 0.03118879 0.05357348 0.01498865
v 0.03645700 0.05026247 0.01498865
v 0.03039889 0.05401309 0.01498865
v 0.02926952 0.05461568 0.01498865
v 0.02836864 0.05535765 0.01622445
v 0.02914331 0.05502526 0.01666773
v 0.02612513 0.05647061 0.01654684
v 0.02599457 0.05670436 0.01814085
v 0.02527865 0.05698099 0.01762145
v 0.02466936 0.05726834 0.01814085
v 0.02778981 0.05570076 0.01666773
v 0.02076771 0.05865365 0.01683340
v 0.01821303 0.05941707 0.01654684
v 0.01663104 0.05986311 0.01654684
v 0.01562571 0.06012044 0.01654684
v 0.01483363 0.06030701 0.01654684
v 0.01422869 0.06044425 0.01654684
v 0.01422869 0.05279720 0.05137332
v 0.03645700 0.04100066 0.05294942
v 0.02296334 0.05777443 0.01654684
v 0.03645700 0.04467193 0.01498865
v 0.02809663 0.05522040 0.01498865
v 0.02727409 0.05562356 0.01498865
v 0.02612513 0.05615752 0.01498865
v 0.02512415 0.05691880 0.01654684
v 0.02433207 0.05723403 0.01654684
v 0.02132913 0.05838559 0.01640356
v 0.02057622 0.05858503 0.01577670
v 0.01994734 0.05886380 0.01640356
v 0.01818039 0.05911899 0.01498865
v 0.01660928 0.05956504 0.01498865
v 0.01450504 0.06023195 0.01553043
v 0.01422869 0.06033274 0.01579909
v 0.01422869 0.05280363 0.05055393
v 0.03645700 0.04097921 0.05137332
v 0.03645700 0.04097921 0.05156138
v 0.02405789 0.05712467 0.01527521
v 0.01422869 0.05567932 0.01498865
v 0.03645700 0.04187773 0.03870630
v 0.02438647 0.05691451 0.01498865
v 0.02344207 0.05728979 0.01498865
v 0.02134871 0.05808323 0.01498865
v 0.02025198 0.05847995 0.01498865
v 0.01949037 0.05872227 0.01498865
v 0.01504253 0.05996176 0.01498865
v 0.01422869 0.06025554 0.01539611
v 0.01422869 0.05281220 0.04978827
v 0.01422869 0.05284009 0.04820769
v 0.03645700 0.04101995 0.04994946
v 0.01422869 0.06011830 0.01498865
v 0.03645700 0.04171261 0.04028688
v 0.03645700 0.04155821 0.04187193
v 0.01422869 0.05307812 0.04345699
v 0.01423304 0.06013974 0.01498865
v 0.01422869 0.05289370 0.04662263
v 0.03645700 0.04108858 0.04808231
v 0.03645700 0.04141882 0.04345699
v 0.03645700 0.04129444 0.04497041
v 0.01422869 0.05297519 0.04503757
f 1 2 3
f 1 3 10
f 1 10 20
f 1 20 33
f 1 33 50
f 1 50 67
f 1 67 86
f 1 86 106
f 1 106 130
f 1 130 155
f 1 155 177
f 1 177 194
f 1 194 193
f 1 193 207
f 1 207 214
f 1 214 216
f 1 216 215
f 1 215 210
f 1 210 209
f 1 209 197
f 1 197 179
f 1 179 160
f 1 160 135
f 1 135 115
f 1 115 96
f 1 96 73
f 1 73 55
f 1 55 36
f 1 36 35
f 1 35 23
f 1 23 11
f 1 11 4
f 1 4 5
f 1 5 6
f 1 6 2
f 2 6 7
f 2 7 8
f 2 8 9
f 2 9 3
f 3 9 10
f 4 11 12
f 4 12 5
f 5 13 6
f 5 12 14
f 5 14 15
f 5 15 13
f 6 13 16
f 6 16 17
f 6 17 7
f 7 17 18
f 7 18 8
f 8 18 9
f 9 18 31
f 9 31 48
f 9 48 64
f 9 64 83
f 9 83 104
f 9 104 127
f 9 127 152
f 9 152 175
f 9 175 191
f 9 191 204
f 9 204 208
f 9 208 196
f 9 196 211
f 9 211 217
f 9 217 213
f 9 213 206
f 9 206 205
f 9 205 192
f 9 192 176
f 9 176 154
f 9 154 153
f 9 153 129
f 9 129 128
f 9 128 105
f 9 105 85
f 9 85 84
f 9 84 66
f 9 66 65
f 9 65 49
f 9 49 32
f 9 32 19
f 9 19 10
f 10 19 20
f 11 21 22
f 11 22 12
f 11 23 21
f 12 22 24
f 12 24 14
f 13 15 16
f 14 25 15
f 14 24 25
f 15 25 26
f 15 26 27
f 15 27 28
f 15 28 16
f 16 28 17
f 17 28 29
f 17 29 18
f 18 29 30
f 18 30 31
f 19 32 20
f 20 32 33
f 21 34 22
f 21 23 35
f 21 35 36
f 21 36 37
f 21 37 38
f 21 38 39
f 21 39 34
f 22 34 40
f 22 40 24
f 24 40 41
f 24 41 25
f 25 41 26
f 26 41 42
f 26 42 43
f 26 43 27
f 27 44 29
f 27 29 28
f 27 43 44
f 29 44 45
f 29 45 30
f 30 46 47
f 30 47 31
f 30 45 46
f 31 47 48
f 32 49 50
f 32 50 33
f 34 39 51
f 34 51 52
f 34 52 53
f 34 53 54
f 34 54 40
f 36 55 56
f 36 56 37
f 37 56 38
f 38 56 51
f 38 51 39
f 40 54 41
f 41 54 57
f 41 57 42
f 42 57 58
f 42 58 59
f 42 59 43
f 43 59 60
f 43 60 44
f 44 60 45
f 45 60 61
f 45 61 47
f 45 47 46
f 47 61 48
f 48 61 62
f 48 62 63
f 48 63 64
f 49 65 50
f 50 66 67
f 50 65 66
f 51 56 68
f 51 68 69
f 51 69 52
f 52 69 54
f 52 54 53
f 54 69 70
f 54 70 71
f 54 71 57
f 55 72 56
f 55 73 72
f 56 72 74
f 56 74 75
f 56 75 76
f 56 76 77
f 56 77 68
f 57 71 78
f 57 78 58
f 58 79 59
f 58 78 80
f 58 80 79
f 59 79 62
f 59 62 60
f 60 62 61
f 62 79 63
f 63 81 82
f 63 82 64
f 63 79 81
f 64 82 83
f 66 84 67
f 67 84 85
f 67 85 86
f 68 87 69
f 68 77 88
f 68 88 89
f 68 89 90
f 68 90 91
f 68 91 87
f 69 87 92
f 69 92 70
f 70 92 93
f 70 93 71
f 71 93 78
f 72 73 94
f 72 94 95
f 72 95 74
f 73 96 94
f 74 95 97
f 74 97 75
f 75 97 76
f 76 98 77
f 76 97 99
f 76 99 100
f 76 100 98
f 77 98 89
f 77 89 88
f 78 93 101
f 78 101 80
f 79 80 101
f 79 101 81
f 81 101 102
f 81 102 103
f 81 103 82
f 82 103 104
f 82 104 83
f 85 105 106
f 85 106 86
f 87 107 92
f 87 91 108
f 87 108 109
f 87 109 110
f 87 110 111
f 87 111 107
f 89 98 118
f 89 118 108
f 89 108 91
f 89 91 90
f 92 107 93
f 93 107 101
f 94 96 95
f 95 96 112
f 95 112 113
f 95 113 97
f 96 114 112
f 96 115 116
f 96 116 114
f 97 113 117
f 97 117 99
f 98 100 119
f 98 119 120
f 98 120 121
f 98 121 118
f 99 117 100
f 100 117 119
f 101 107 102
f 102 107 122
f 102 122 123
f 102 123 124
f 102 124 104
f 102 104 103
f 104 124 125
f 104 125 126
f 104 126 127
f 105 128 106
f 106 128 129
f 106 129 130
f 107 111 131
f 107 131 132
f 107 132 122
f 108 118 111
f 108 111 110
f 108 110 109
f 111 118 131
f 112 114 116
f 112 116 133
f 112 133 113
f 113 133 134
f 113 134 117
f 115 135 116
f 116 135 136
f 116 136 137
f 116 137 133
f 117 120 119
f 117 134 138
f 117 138 139
f 117 139 120
f 118 121 140
f 118 140 141
f 118 141 131
f 120 139 142
f 120 142 121
f 121 142 140
f 122 132 143
f 122 143 125
f 122 125 144
f 122 144 123
f 123 144 125
f 123 125 124
f 125 143 132
f 125 132 126
f 126 132 131
f 126 131 145
f 126 145 146
f 126 146 147
f 126 147 148
f 126 148 149
f 126 149 150
f 126 150 151
f 126 151 127
f 127 151 150
f 127 150 152
f 129 153 130
f 130 153 154
f 130 154 155
f 131 141 156
f 131 156 145
f 133 138 134
f 133 137 157
f 133 157 158
f 133 158 159
f 133 159 138
f 135 160 136
f 136 160 179
f 136 179 196
f 136 196 208
f 136 208 212
f 136 212 203
f 136 203 189
f 136 189 188
f 136 188 202
f 136 202 201
f 136 201 200
f 136 200 199
f 136 199 198
f 136 198 182
f 136 182 181
f 136 181 180
f 136 180 162
f 136 162 161
f 136 161 159
f 136 159 158
f 136 158 157
f 136 157 137
f 138 159 139
f 139 159 161
f 139 161 162
f 139 162 163
f 139 163 164
f 139 164 142
f 140 142 165
f 140 165 166
f 140 166 141
f 141 166 167
f 141 167 168
f 141 168 156
f 142 164 163
f 142 163 169
f 142 169 165
f 145 156 170
f 145 170 146
f 146 170 147
f 147 170 148
f 148 170 171
f 148 171 150
f 148 150 149
f 150 171 172
f 150 172 173
f 150 173 174
f 150 174 175
f 150 175 152
f 154 176 177
f 154 177 155
f 156 168 167
f 156 167 178
f 156 178 170
f 162 180 163
f 163 165 169
f 163 180 181
f 163 181 165
f 165 181 182
f 165 182 183
f 165 183 167
f 165 167 166
f 167 183 184
f 167 184 178
f 170 178 185
f 170 185 186
f 170 186 187
f 170 187 171
f 171 187 186
f 171 186 188
f 171 188 189
f 171 189 172
f 172 190 173
f 172 189 190
f 173 190 174
f 174 190 175
f 175 190 191
f 176 192 193
f 176 193 194
f 176 194 177
f 178 184 195
f 178 195 186
f 178 186 185
f 179 197 196
f 182 198 195
f 182 195 183
f 183 195 184
f 186 195 199
f 186 199 200
f 186 200 201
f 186 201 202
f 186 202 188
f 189 203 190
f 190 204 191
f 190 203 204
f 192 205 193
f 193 205 206
f 193 206 207
f 195 198 199
f 196 197 209
f 196 209 210
f 196 210 211
f 203 212 204
f 204 212 208
f 206 213 207
f 207 213 214
f 210 215 211
f 211 215 216
f 211 216 214
f 211 214 217
f 213 217 214

