# https://github.com/mikedh/trimesh
v -0.03007967 -0.00829323 0.17937455
v -0.03055152 -0.00743164 0.17937455
v -0.03047961 -0.00751021 0.17732495
v -0.03007967 -0.00813875 0.17739155
v -0.03007967 -0.00815207 0.18147866
v -0.03081233 -0.00640759 0.17937455
v -0.03085935 -0.00648483 0.17732495
v -0.03089603 -0.00648217 0.17527231
v -0.03090411 -0.00642491 0.17322270
v -0.03057608 -0.00704679 0.18153315
v -0.03088488 -0.00634367 0.17117612
v -0.03085160 -0.00627176 0.16912651
v -0.03007967 -0.00792302 0.17527231
v -0.03080473 -0.00620918 0.16750075
v -0.03007967 -0.00796564 0.18268057
v -0.03038249 -0.00717463 0.18347377
v -0.03077581 -0.00627842 0.18092463
v -0.03162223 -0.00307445 0.16912651
v -0.03122859 -0.00512387 0.17117612
v -0.03123877 -0.00512387 0.16912651
v -0.03109641 -0.00531830 0.16692250
v -0.03007967 -0.00763538 0.17322270
v -0.03007967 -0.00677247 0.16853312
v -0.03111450 -0.00496407 0.16502729
v -0.03106409 -0.00467644 0.16297769
v -0.03094693 -0.00437015 0.16092505
v -0.03082590 -0.00417839 0.15970195
v -0.03007967 -0.00780051 0.18350102
v -0.03007967 -0.00717463 0.18535989
v -0.03041449 -0.00512387 0.18552338
v -0.03076724 -0.00024334 0.18480284
v -0.03162788 -0.00102502 0.17117612
v -0.03153965 -0.00307445 0.17117612
v -0.03171272 -0.00102502 0.16912651
v -0.03164549 -0.00307445 0.16707691
v -0.03159540 -0.00307445 0.16502729
v -0.03053794 -0.00417839 0.15970195
v -0.03007967 -0.00438214 0.16098863
v -0.03149198 -0.00307445 0.16297769
v -0.03131617 -0.00307445 0.16092505
v -0.03097618 -0.00307445 0.15924177
v -0.03092641 -0.00068012 0.15736473
v -0.03007967 -0.00068012 0.15733142
v -0.03007967 -0.00702415 0.18552338
v -0.03007967 -0.00512387 0.18707951
v -0.03020700 -0.00307445 0.18757299
v -0.03032803 -0.00102502 0.18757299
v -0.03063199 -0.00096643 0.18549916
v -0.03068693 0.00108167 0.18549916
v -0.03076724 0.00043581 0.18480284
v -0.03148649 0.00102440 0.17117612
v -0.03073363 0.00180343 0.18429119
v -0.03077241 0.00236805 0.18292580
v -0.03154385 0.00102440 0.16912651
v -0.03173049 -0.00102502 0.16707691
v -0.03169527 -0.00102502 0.16502729
v -0.03161140 -0.00102502 0.16297769
v -0.03007967 -0.00348460 0.15939920
v -0.03007967 -0.00435950 0.16092505
v -0.03009858 -0.00437015 0.16092505
v -0.03149231 -0.00102502 0.16092505
v -0.03112614 -0.00122877 0.15867260
v -0.03092641 0.00047177 0.15736473
v -0.03007967 0.00050239 0.15733142
v -0.03007967 -0.00419171 0.18757299
v -0.03007967 -0.00307445 0.18792417
v -0.03007967 -0.00102502 0.18825720
v -0.03029346 0.00102440 0.18757299
v -0.03041869 0.00307383 0.18552338
v -0.03065380 0.00306051 0.18355551
v -0.03072103 0.00376097 0.18142416
v -0.03073816 0.00400333 0.17937455
v -0.03153497 0.00102440 0.16707691
v -0.03150184 0.00102440 0.16502729
v -0.03144367 0.00102440 0.16297769
v -0.03132845 0.00102440 0.16092505
v -0.03105649 0.00110297 0.15885122
v -0.03085983 0.00216830 0.15951727
v -0.03035906 0.00216830 0.15951727
v -0.03007967 0.00192328 0.15923571
v -0.03007967 0.00102440 0.18810885
v -0.03007967 0.00222823 0.18757299
v -0.03007967 0.00307383 0.18694327
v -0.03007967 0.00398202 0.18552338
v -0.03007967 0.00492883 0.18318010
v -0.03012815 0.00512459 0.18142416
v -0.03018648 0.00512459 0.17937455
v -0.03018971 0.00512459 0.17732495
v -0.03072523 0.00398602 0.17732495
v -0.03105795 0.00248923 0.16707691
v -0.03100995 0.00236272 0.16297769
v -0.03103726 0.00242132 0.16502729
v -0.03095534 0.00228149 0.16092505
v -0.03007967 0.00512459 0.17438828
v -0.03007967 0.00494615 0.17322270
v -0.03007967 0.00489022 0.17289573
v -0.03007967 0.00390745 0.16757644
v -0.03007967 0.00296064 0.16307759
v -0.03007967 0.00227084 0.16007130
v -0.03007967 0.00212436 0.15963231
v -0.03007967 0.00512459 0.18205993
v -0.03007967 0.00518984 0.18151498
v -0.03007967 0.00519916 0.18142416
v -0.03007967 0.00529637 0.17937455
v -0.03007967 0.00531102 0.17732495
v -0.03007967 0.00523112 0.17527231
v -0.03013930 0.00512459 0.17527231
f 1 2 3
f 1 3 4
f 1 4 13
f 1 13 22
f 1 22 23
f 1 23 38
f 1 38 59
f 1 59 58
f 1 58 43
f 1 43 64
f 1 64 80
f 1 80 100
f 1 100 99
f 1 99 98
f 1 98 97
f 1 97 96
f 1 96 95
f 1 95 94
f 1 94 106
f 1 106 105
f 1 105 104
f 1 104 103
f 1 103 102
f 1 102 101
f 1 101 85
f 1 85 84
f 1 84 83
f 1 83 82
f 1 82 81
f 1 81 67
f 1 67 66
f 1 66 65
f 1 65 45
f 1 45 44
f 1 44 29
f 1 29 28
f 1 28 15
f 1 15 5
f 1 5 2
f 2 6 7
f 2 7 8
f 2 8 9
f 2 9 3
f 2 5 10
f 2 10 6
f 3 9 11
f 3 11 12
f 3 12 4
f 4 12 14
f 4 14 13
f 5 15 16
f 5 16 10
f 6 10 17
f 6 17 18
f 6 18 7
f 7 18 19
f 7 19 8
f 8 19 20
f 8 20 9
f 9 20 11
f 10 16 17
f 11 20 12
f 12 20 21
f 12 21 14
f 13 14 22
f 14 23 22
f 14 21 24
f 14 24 25
f 14 25 26
f 14 26 27
f 14 27 23
f 15 28 16
f 16 28 29
f 16 29 30
f 16 30 17
f 17 30 31
f 17 31 32
f 17 32 33
f 17 33 18
f 18 33 34
f 18 34 35
f 18 35 19
f 19 35 20
f 20 35 36
f 20 36 24
f 20 24 21
f 23 27 37
f 23 37 38
f 24 36 39
f 24 39 25
f 25 39 40
f 25 40 26
f 26 40 27
f 27 40 41
f 27 41 42
f 27 42 43
f 27 43 37
f 29 44 30
f 30 44 45
f 30 45 46
f 30 46 47
f 30 47 48
f 30 48 31
f 31 48 47
f 31 47 49
f 31 49 50
f 31 50 32
f 32 51 34
f 32 34 33
f 32 50 52
f 32 52 53
f 32 53 51
f 34 51 54
f 34 54 55
f 34 55 35
f 35 55 56
f 35 56 36
f 36 56 57
f 36 57 39
f 37 43 58
f 37 58 59
f 37 59 60
f 37 60 38
f 38 60 59
f 39 57 61
f 39 61 40
f 40 61 62
f 40 62 41
f 41 62 42
f 42 62 61
f 42 61 63
f 42 63 64
f 42 64 43
f 45 65 46
f 46 65 66
f 46 66 47
f 47 66 67
f 47 67 68
f 47 68 49
f 49 69 70
f 49 70 52
f 49 52 50
f 49 68 69
f 51 53 71
f 51 71 72
f 51 72 54
f 52 70 53
f 53 70 71
f 54 73 55
f 54 72 73
f 55 73 74
f 55 74 56
f 56 74 75
f 56 75 57
f 57 75 76
f 57 76 61
f 61 76 63
f 63 77 78
f 63 78 64
f 63 76 77
f 64 78 79
f 64 79 80
f 67 81 68
f 68 81 82
f 68 82 69
f 69 82 83
f 69 83 84
f 69 84 85
f 69 85 71
f 69 71 70
f 71 85 86
f 71 86 72
f 72 86 87
f 72 87 88
f 72 88 89
f 72 89 73
f 73 90 74
f 73 89 90
f 74 91 75
f 74 90 92
f 74 92 91
f 75 91 93
f 75 93 76
f 76 93 78
f 76 78 77
f 78 93 94
f 78 94 95
f 78 95 96
f 78 96 97
f 78 97 98
f 78 98 79
f 79 99 100
f 79 100 80
f 79 98 99
f 85 101 86
f 86 101 102
f 86 102 103
f 86 103 104
f 86 104 87
f 87 104 105
f 87 105 88
f 88 105 106
f 88 106 107
f 88 107 89
f 89 107 91
f 89 91 92
f 89 92 90
f 91 107 93
f 93 107 106
f 93 106 94

