v 0.027746 0.000000 0.011289
v 0.027759 -0.000865 0.011152
v 0.027795 -0.001646 0.010756
v 0.027851 -0.002265 0.010139
v 0.027922 -0.002663 0.009362
v 0.028000 -0.002800 0.008500
v 0.028078 -0.002663 0.007638
v 0.028149 -0.002265 0.006861
v 0.028205 -0.001646 0.006244
v 0.028241 -0.000865 0.005848
v 0.028254 -0.000000 0.005711
v 0.028241 0.000865 0.005848
v 0.028205 0.001646 0.006244
v 0.028149 0.002265 0.006861
v 0.028078 0.002663 0.007638
v 0.028000 0.002800 0.008500
v 0.027922 0.002663 0.009362
v 0.027851 0.002265 0.010139
v 0.027795 0.001646 0.010756
v 0.027759 0.000865 0.011152
v 0.049845 0.000000 0.012895
v 0.049853 -0.000742 0.012778
v 0.049875 -0.001411 0.012438
v 0.049909 -0.001942 0.011908
v 0.049952 -0.002283 0.011240
v 0.050000 -0.002400 0.010500
v 0.050048 -0.002283 0.009760
v 0.050091 -0.001942 0.009092
v 0.050125 -0.001411 0.008562
v 0.050147 -0.000742 0.008222
v 0.050155 -0.000000 0.008105
v 0.050147 0.000742 0.008222
v 0.050125 0.001411 0.008562
v 0.050091 0.001942 0.009092
v 0.050048 0.002283 0.009760
v 0.050000 0.002400 0.010500
v 0.049952 0.002283 0.011240
v 0.049909 0.001942 0.011908
v 0.049875 0.001411 0.012438
v 0.049853 0.000742 0.012778
v 0.089855 0.000000 0.015496
v 0.089862 -0.000927 0.015350
v 0.089883 -0.001763 0.014924
v 0.089915 -0.002427 0.014261
v 0.089955 -0.002853 0.013426
v 0.090000 -0.003000 0.012500
v 0.090045 -0.002853 0.011574
v 0.090085 -0.002427 0.010739
v 0.090117 -0.001763 0.010076
v 0.090138 -0.000927 0.009650
v 0.090145 -0.000000 0.009504
v 0.090138 0.000927 0.009650
v 0.090117 0.001763 0.010076
v 0.090085 0.002427 0.010739
v 0.090045 0.002853 0.011574
v 0.090000 0.003000 0.012500
v 0.089955 0.002853 0.013426
v 0.089915 0.002427 0.014261
v 0.089883 0.001763 0.014924
v 0.089862 0.000927 0.015350
v 0.111836 0.000000 0.017997
v 0.111844 -0.001391 0.017777
v 0.111868 -0.002645 0.017138
v 0.111904 -0.003641 0.016143
v 0.111949 -0.004280 0.014890
v 0.112000 -0.004500 0.013500
v 0.112051 -0.004280 0.012110
v 0.112096 -0.003641 0.010857
v 0.112132 -0.002645 0.009862
v 0.112156 -0.001391 0.009223
v 0.112164 -0.000000 0.009003
v 0.112156 0.001391 0.009223
v 0.112132 0.002645 0.009862
v 0.112096 0.003641 0.010857
v 0.112051 0.004280 0.012110
v 0.112000 0.004500 0.013500
v 0.111949 0.004280 0.014890
v 0.111904 0.003641 0.016143
v 0.111868 0.002645 0.017138
v 0.111844 0.001391 0.017777
v 0.117500 0.000000 0.017500
v 0.117500 -0.001236 0.017304
v 0.117500 -0.002351 0.016736
v 0.117500 -0.003236 0.015851
v 0.117500 -0.003804 0.014736
v 0.117500 -0.004000 0.013500
v 0.117500 -0.003804 0.012264
v 0.117500 -0.003236 0.011149
v 0.117500 -0.002351 0.010264
v 0.117500 -0.001236 0.009696
v 0.117500 -0.000000 0.009500
v 0.117500 0.001236 0.009696
v 0.117500 0.002351 0.010264
v 0.117500 0.003236 0.011149
v 0.117500 0.003804 0.012264
v 0.117500 0.004000 0.013500
v 0.117500 0.003804 0.014736
v 0.117500 0.003236 0.015851
v 0.117500 0.002351 0.016736
v 0.117500 0.001236 0.017304
v 0.028000 0.000000 0.008500
v 0.117500 0.000000 0.013500
f 1 2 22
f 1 22 21
f 2 3 23
f 2 23 22
f 3 4 24
f 3 24 23
f 4 5 25
f 4 25 24
f 5 6 26
f 5 26 25
f 6 7 27
f 6 27 26
f 7 8 28
f 7 28 27
f 8 9 29
f 8 29 28
f 9 10 30
f 9 30 29
f 10 11 31
f 10 31 30
f 11 12 32
f 11 32 31
f 12 13 33
f 12 33 32
f 13 14 34
f 13 34 33
f 14 15 35
f 14 35 34
f 15 16 36
f 15 36 35
f 16 17 37
f 16 37 36
f 17 18 38
f 17 38 37
f 18 19 39
f 18 39 38
f 19 20 40
f 19 40 39
f 20 1 21
f 20 21 40
f 21 22 42
f 21 42 41
f 22 23 43
f 22 43 42
f 23 24 44
f 23 44 43
f 24 25 45
f 24 45 44
f 25 26 46
f 25 46 45
f 26 27 47
f 26 47 46
f 27 28 48
f 27 48 47
f 28 29 49
f 28 49 48
f 29 30 50
f 29 50 49
f 30 31 51
f 30 51 50
f 31 32 52
f 31 52 51
f 32 33 53
f 32 53 52
f 33 34 54
f 33 54 53
f 34 35 55
f 34 55 54
f 35 36 56
f 35 56 55
f 36 37 57
f 36 57 56
f 37 38 58
f 37 58 57
f 38 39 59
f 38 59 58
f 39 40 60
f 39 60 59
f 40 21 41
f 40 41 60
f 41 42 62
f 41 62 61
f 42 43 63
f 42 63 62
f 43 44 64
f 43 64 63
f 44 45 65
f 44 65 64
f 45 46 66
f 45 66 65
f 46 47 67
f 46 67 66
f 47 48 68
f 47 68 67
f 48 49 69
f 48 69 68
f 49 50 70
f 49 70 69
f 50 51 71
f 50 71 70
f 51 52 72
f 51 72 71
f 52 53 73
f 52 73 72
f 53 54 74
f 53 74 73
f 54 55 75
f 54 75 74
f 55 56 76
f 55 76 75
f 56 57 77
f 56 77 76
f 57 58 78
f 57 78 77
f 58 59 79
f 58 79 78
f 59 60 80
f 59 80 79
f 60 41 61
f 60 61 80
f 61 62 82
f 61 82 81
f 62 63 83
f 62 83 82
f 63 64 84
f 63 84 83
f 64 65 85
f 64 85 84
f 65 66 86
f 65 86 85
f 66 67 87
f 66 87 86
f 67 68 88
f 67 88 87
f 68 69 89
f 68 89 88
f 69 70 90
f 69 90 89
f 70 71 91
f 70 91 90
f 71 72 92
f 71 92 91
f 72 73 93
f 72 93 92
f 73 74 94
f 73 94 93
f 74 75 95
f 74 95 94
f 75 76 96
f 75 96 95
f 76 77 97
f 76 97 96
f 77 78 98
f 77 98 97
f 78 79 99
f 78 99 98
f 79 80 100
f 79 100 99
f 80 61 81
f 80 81 100
f 101 2 1
f 101 3 2
f 101 4 3
f 101 5 4
f 101 6 5
f 101 7 6
f 101 8 7
f 101 9 8
f 101 10 9
f 101 11 10
f 101 12 11
f 101 13 12
f 101 14 13
f 101 15 14
f 101 16 15
f 101 17 16
f 101 18 17
f 101 19 18
f 101 20 19
f 101 1 20
f 102 81 82
f 102 82 83
f 102 83 84
f 102 84 85
f 102 85 86
f 102 86 87
f 102 87 88
f 102 88 89
f 102 89 90
f 102 90 91
f 102 91 92
f 102 92 93
f 102 93 94
f 102 94 95
f 102 95 96
f 102 96 97
f 102 97 98
f 102 98 99
f 102 99 100
f 102 100 81
