v -0.042000 0.000000 0.196000
v -0.041878 -0.000773 0.196000
v -0.041523 -0.001469 0.196000
v -0.040969 -0.002023 0.196000
v -0.040273 -0.002378 0.196000
v -0.039500 -0.002500 0.196000
v -0.038727 -0.002378 0.196000
v -0.038031 -0.002023 0.196000
v -0.037477 -0.001469 0.196000
v -0.037122 -0.000773 0.196000
v -0.037000 -0.000000 0.196000
v -0.037122 0.000773 0.196000
v -0.037477 0.001469 0.196000
v -0.038031 0.002023 0.196000
v -0.038727 0.002378 0.196000
v -0.039500 0.002500 0.196000
v -0.040273 0.002378 0.196000
v -0.040969 0.002023 0.196000
v -0.041523 0.001469 0.196000
v -0.041878 0.000773 0.196000
v -0.041849 0.000000 0.202354
v -0.041734 -0.000773 0.202313
v -0.041401 -0.001469 0.202191
v -0.040881 -0.002023 0.202002
v -0.040226 -0.002378 0.201764
v -0.039500 -0.002500 0.201500
v -0.038774 -0.002378 0.201236
v -0.038119 -0.002023 0.200998
v -0.037599 -0.001469 0.200809
v -0.037266 -0.000773 0.200687
v -0.037151 -0.000000 0.200646
v -0.037266 0.000773 0.200687
v -0.037599 0.001469 0.200809
v -0.038119 0.002023 0.200998
v -0.038774 0.002378 0.201236
v -0.039500 0.002500 0.201500
v -0.040226 0.002378 0.201764
v -0.040881 0.002023 0.202002
v -0.041401 0.001469 0.202191
v -0.041734 0.000773 0.202313
v -0.037500 0.000000 0.204000
v -0.037500 -0.000773 0.203878
v -0.037500 -0.001469 0.203523
v -0.037500 -0.002023 0.202969
v -0.037500 -0.002378 0.202273
v -0.037500 -0.002500 0.201500
v -0.037500 -0.002378 0.200727
v -0.037500 -0.002023 0.200031
v -0.037500 -0.001469 0.199477
v -0.037500 -0.000773 0.199122
v -0.037500 -0.000000 0.199000
v -0.037500 0.000773 0.199122
v -0.037500 0.001469 0.199477
v -0.037500 0.002023 0.200031
v -0.037500 0.002378 0.200727
v -0.037500 0.002500 0.201500
v -0.037500 0.002378 0.202273
v -0.037500 0.002023 0.202969
v -0.037500 0.001469 0.203523
v -0.037500 0.000773 0.203878
v -0.039500 0.000000 0.196000
v -0.037500 0.000000 0.201500
f 1 2 22
f 1 22 21
f 2 3 23
f 2 23 22
f 3 4 24
f 3 24 23
f 4 5 25
f 4 25 24
f 5 6 26
f 5 26 25
f 6 7 27
f 6 27 26
f 7 8 28
f 7 28 27
f 8 9 29
f 8 29 28
f 9 10 30
f 9 30 29
f 10 11 31
f 10 31 30
f 11 12 32
f 11 32 31
f 12 13 33
f 12 33 32
f 13 14 34
f 13 34 33
f 14 15 35
f 14 35 34
f 15 16 36
f 15 36 35
f 16 17 37
f 16 37 36
f 17 18 38
f 17 38 37
f 18 19 39
f 18 39 38
f 19 20 40
f 19 40 39
f 20 1 21
f 20 21 40
f 21 22 42
f 21 42 41
f 22 23 43
f 22 43 42
f 23 24 44
f 23 44 43
f 24 25 45
f 24 45 44
f 25 26 46
f 25 46 45
f 26 27 47
f 26 47 46
f 27 28 48
f 27 48 47
f 28 29 49
f 28 49 48
f 29 30 50
f 29 50 49
f 30 31 51
f 30 51 50
f 31 32 52
f 31 52 51
f 32 33 53
f 32 53 52
f 33 34 54
f 33 54 53
f 34 35 55
f 34 55 54
f 35 36 56
f 35 56 55
f 36 37 57
f 36 57 56
f 37 38 58
f 37 58 57
f 38 39 59
f 38 59 58
f 39 40 60
f 39 60 59
f 40 21 41
f 40 41 60
f 61 2 1
f 61 3 2
f 61 4 3
f 61 5 4
f 61 6 5
f 61 7 6
f 61 8 7
f 61 9 8
f 61 10 9
f 61 11 10
f 61 12 11
f 61 13 12
f 61 14 13
f 61 15 14
f 61 16 15
f 61 17 16
f 61 18 17
f 61 19 18
f 61 20 19
f 61 1 20
f 62 41 42
f 62 42 43
f 62 43 44
f 62 44 45
f 62 45 46
f 62 46 47
f 62 47 48
f 62 48 49
f 62 49 50
f 62 50 51
f 62 51 52
f 62 52 53
f 62 53 54
f 62 54 55
f 62 55 56
f 62 56 57
f 62 57 58
f 62 58 59
f 62 59 60
f 62 60 41
