# https://github.com/mikedh/trimesh
v -0.03007967 -0.00075967 0.17166036
v -0.03007967 0.00461979 0.17166036
v -0.02751374 -0.00075967 0.17166036
v -0.03007967 -0.00075967 0.19584549
v -0.02424632 0.01741572 0.17166036
v -0.03007967 0.01315041 0.19584549
v -0.01821238 0.00988805 0.17166036
v -0.02376021 -0.00075967 0.19584549
v -0.02324948 0.01946165 0.17166036
v -0.01852866 0.02063361 0.19584549
v -0.02255170 0.02050018 0.17835833
v -0.02260215 0.02054243 0.17732605
v -0.02264031 0.02057579 0.17527570
v -0.02260215 0.02054243 0.17359707
v -0.02254801 0.02049573 0.17223096
v -0.02324579 0.01967736 0.17303831
v -0.01750844 0.01801616 0.17166036
v -0.01750844 0.01418672 0.19577447
v -0.01750844 0.01418227 0.19581471
v -0.01750844 0.01418005 0.19584549
v -0.02249386 0.02045126 0.17166036
v -0.01750844 0.02121848 0.19584549
v -0.02152532 0.02110062 0.17732605
v -0.02152532 0.02118290 0.17527570
v -0.02172838 0.02100499 0.17303831
v -0.02150317 0.02102723 0.17166036
v -0.01750844 0.02193678 0.17166036
v -0.01750844 0.02190564 0.17527570
v -0.01947504 0.02187451 0.17527570
v -0.01947504 0.02177444 0.17732605
v -0.01947504 0.02188785 0.17322535
v -0.01947504 0.02182558 0.17166036
v -0.02005960 0.02159875 0.17166036
v -0.01790840 0.02192343 0.17166036
v -0.01750844 0.02193900 0.17172192
v -0.01750844 0.02195901 0.17322535
f 1 2 5
f 1 5 9
f 1 9 21
f 1 21 26
f 1 26 33
f 1 33 32
f 1 32 34
f 1 34 27
f 1 27 17
f 1 17 7
f 1 7 3
f 1 3 8
f 1 8 4
f 1 4 6
f 1 6 2
f 2 6 5
f 3 7 8
f 4 8 20
f 4 20 22
f 4 22 10
f 4 10 6
f 5 6 9
f 6 10 11
f 6 11 12
f 6 12 13
f 6 13 14
f 6 14 15
f 6 15 16
f 6 16 9
f 7 17 18
f 7 18 19
f 7 19 20
f 7 20 8
f 9 16 15
f 9 15 21
f 10 22 11
f 11 23 12
f 11 22 23
f 12 23 24
f 12 24 13
f 13 24 25
f 13 25 14
f 14 25 15
f 15 26 21
f 15 25 26
f 17 27 35
f 17 35 36
f 17 36 28
f 17 28 22
f 17 22 20
f 17 20 19
f 17 19 18
f 22 28 29
f 22 29 30
f 22 30 23
f 23 30 29
f 23 29 24
f 24 29 31
f 24 31 32
f 24 32 33
f 24 33 25
f 25 33 26
f 27 34 35
f 28 36 29
f 29 36 31
f 31 36 35
f 31 35 34
f 31 34 32

