# https://github.com/mikedh/trimesh
v -0.00593603 -0.02476495 0.17223957
v -0.00990329 -0.01805924 0.17117296
v -0.01010078 -0.01827757 0.17223957
v -0.00593603 -0.02847282 0.17223957
v -0.00593603 -0.00984910 0.14112382
v -0.01112732 -0.01724465 0.17223957
v -0.00717525 -0.02859023 0.17223957
v -0.00593603 -0.02839026 0.17117296
v -0.00593603 -0.00984910 0.13689214
v -0.02329604 -0.00984910 0.17223957
v -0.01415268 -0.01422295 0.17054759
v -0.01244250 -0.01445045 0.16778900
v -0.01213216 -0.01625760 0.17223957
v -0.00930429 -0.02819761 0.17223957
v -0.00717525 -0.02840493 0.17117296
v -0.00593603 -0.02801965 0.16912313
v -0.00593603 -0.01031144 0.13705196
v -0.00646557 -0.00984910 0.13681223
v -0.02810753 -0.00984910 0.17223957
v -0.01476253 -0.01449081 0.17223957
v -0.01459759 -0.01444861 0.17191298
v -0.01331061 -0.01538063 0.17223957
v -0.00717525 -0.02794626 0.16912313
v -0.00993801 -0.02781967 0.17223957
v -0.00838192 -0.02472276 0.15952019
v -0.00832984 -0.02672621 0.16579476
v -0.00717525 -0.02741054 0.16707330
v -0.00593603 -0.02752613 0.16707330
v -0.00662183 -0.00984910 0.13679833
v -0.00593603 -0.01061966 0.13718050
v -0.02458084 -0.01638236 0.17223957
v -0.02781889 -0.00984910 0.17117296
v -0.02479570 -0.01465593 0.16948098
v -0.02500838 -0.01507791 0.17117296
v -0.00636791 -0.02670603 0.16380399
v -0.01096672 -0.02714452 0.17223957
v -0.01037641 -0.02677208 0.16982494
v -0.00857508 -0.02283305 0.15477431
v -0.00828426 -0.02260555 0.15361390
v -0.00786757 -0.02449159 0.15815480
v -0.00773518 -0.02651156 0.16442936
v -0.00710146 -0.02688032 0.16507558
v -0.00593603 -0.02683262 0.16422786
v -0.00717525 -0.00984910 0.13674969
v -0.00717525 -0.01074809 0.13712492
v -0.00593603 -0.01148563 0.13764606
v -0.00717525 -0.01177367 0.13759742
v -0.02245180 -0.01427249 0.16212938
v -0.02459386 -0.01434037 0.16811559
v -0.02255814 -0.01231306 0.15782126
v -0.02051375 -0.00984910 0.14960457
v -0.02047902 -0.01017384 0.14969490
v -0.00593603 -0.02671153 0.16378662
v -0.00717525 -0.02560156 0.16092381
v -0.00650030 -0.02469524 0.15758849
v -0.00593603 -0.02490622 0.15811658
v -0.02084363 -0.01258459 0.15477431
v -0.02055281 -0.01234609 0.15365212
v -0.01028308 -0.01643006 0.14344465
v -0.00834069 -0.02061126 0.14942738
v -0.00753552 -0.02229549 0.15224850
v -0.00616825 -0.02255418 0.15168914
v -0.00698210 -0.02275049 0.15284955
v -0.00717525 -0.02343115 0.15477431
v -0.00718176 -0.02422372 0.15687279
v -0.00718176 -0.02493374 0.15885313
v -0.00911331 -0.00984910 0.13700679
v -0.00874870 -0.01057747 0.13720482
v -0.00593603 -0.01279191 0.13835481
v -0.00717525 -0.01332580 0.13852158
v -0.00833201 -0.01441192 0.13934499
v -0.00593603 -0.01437706 0.13926855
v -0.01846501 -0.01026924 0.14552575
v -0.02036834 -0.00984910 0.14925366
v -0.01881008 -0.00984910 0.14594961
v -0.00593603 -0.02264775 0.15191844
v -0.00593603 -0.02470624 0.15755722
v -0.01196722 -0.01407251 0.14198892
v -0.01059994 -0.01465777 0.14109256
v -0.00956906 -0.01602460 0.14207925
v -0.00902216 -0.01667957 0.14264904
v -0.00836022 -0.01855827 0.14534856
v -0.00764186 -0.02025534 0.14806198
v -0.00704504 -0.02082959 0.14869778
v -0.00698210 -0.02187902 0.15087268
v -0.00593603 -0.02255785 0.15167872
v -0.00627459 -0.02054522 0.14751652
v -0.00593603 -0.02074336 0.14784310
v -0.00980996 -0.00984910 0.13718745
v -0.00934987 -0.01126730 0.13776766
v -0.01011597 -0.01016100 0.13739243
v -0.00593603 -0.01445045 0.13931719
v -0.00717525 -0.01447063 0.13929982
v -0.01060862 -0.01261211 0.13920254
v -0.00910029 -0.01330745 0.13893849
v -0.00717525 -0.01549621 0.14035253
v -0.00717525 -0.01646492 0.14137745
v -0.00820179 -0.01640070 0.14145041
v -0.00895054 -0.01521918 0.14058878
v -0.00969928 -0.01397894 0.13972716
v -0.01853446 -0.00984910 0.14540762
v -0.01671577 -0.00984910 0.14313891
v -0.01656385 -0.01039400 0.14333000
v -0.01266387 -0.01270568 0.14099528
v -0.01128792 -0.01334231 0.14036295
v -0.00717525 -0.01879494 0.14499071
v -0.00717525 -0.01819501 0.14396579
v -0.00593603 -0.01868119 0.14442440
v -0.00593603 -0.02056173 0.14748525
v -0.01026355 -0.00984910 0.13732642
v -0.01128575 -0.01130216 0.13874046
v -0.01135520 -0.00984910 0.13794137
v -0.01061731 -0.00984910 0.13751056
v -0.00593603 -0.01626310 0.14112730
v -0.01197590 -0.01200300 0.13962988
v -0.00593603 -0.01648143 0.14135660
v -0.00593603 -0.01788311 0.14321534
v -0.00717525 -0.01723548 0.14247532
v -0.01360143 -0.00984910 0.13970631
v -0.01257706 -0.01063618 0.13913653
v -0.01292430 -0.00984910 0.13901146
f 1 2 3
f 1 3 6
f 1 6 13
f 1 13 22
f 1 22 20
f 1 20 10
f 1 10 19
f 1 19 31
f 1 31 36
f 1 36 24
f 1 24 14
f 1 14 7
f 1 7 4
f 1 4 8
f 1 8 16
f 1 16 28
f 1 28 43
f 1 43 53
f 1 53 56
f 1 56 77
f 1 77 76
f 1 76 86
f 1 86 88
f 1 88 109
f 1 109 108
f 1 108 117
f 1 117 116
f 1 116 114
f 1 114 92
f 1 92 72
f 1 72 69
f 1 69 46
f 1 46 30
f 1 30 17
f 1 17 9
f 1 9 5
f 1 5 2
f 2 5 3
f 3 5 6
f 4 7 8
f 5 9 18
f 5 18 29
f 5 29 44
f 5 44 67
f 5 67 89
f 5 89 110
f 5 110 113
f 5 113 112
f 5 112 121
f 5 121 119
f 5 119 102
f 5 102 101
f 5 101 75
f 5 75 74
f 5 74 51
f 5 51 32
f 5 32 19
f 5 19 10
f 5 10 11
f 5 11 12
f 5 12 13
f 5 13 6
f 7 14 15
f 7 15 8
f 8 15 16
f 9 17 18
f 10 20 21
f 10 21 11
f 11 21 22
f 11 22 12
f 12 22 13
f 14 23 15
f 14 24 25
f 14 25 26
f 14 26 27
f 14 27 23
f 15 23 16
f 16 23 28
f 17 29 18
f 17 30 29
f 19 32 33
f 19 33 34
f 19 34 31
f 20 22 21
f 23 27 35
f 23 35 28
f 24 36 37
f 24 37 25
f 25 37 31
f 25 31 38
f 25 38 39
f 25 39 40
f 25 40 26
f 26 40 41
f 26 41 42
f 26 42 27
f 27 42 35
f 28 35 43
f 29 30 45
f 29 45 44
f 30 46 47
f 30 47 45
f 31 48 38
f 31 37 36
f 31 34 33
f 31 33 49
f 31 49 50
f 31 50 48
f 32 49 33
f 32 51 52
f 32 52 50
f 32 50 49
f 35 53 43
f 35 42 41
f 35 41 54
f 35 54 55
f 35 55 56
f 35 56 53
f 38 48 39
f 39 57 58
f 39 58 59
f 39 59 60
f 39 60 61
f 39 61 62
f 39 62 63
f 39 63 64
f 39 64 40
f 39 48 57
f 40 64 65
f 40 65 55
f 40 55 66
f 40 66 54
f 40 54 41
f 44 45 68
f 44 68 67
f 45 47 68
f 46 69 47
f 47 70 71
f 47 71 68
f 47 69 72
f 47 72 70
f 48 50 57
f 50 52 73
f 50 73 58
f 50 58 57
f 51 74 52
f 52 74 75
f 52 75 73
f 54 66 55
f 55 65 64
f 55 64 62
f 55 62 76
f 55 76 77
f 55 77 56
f 58 73 59
f 59 73 78
f 59 78 79
f 59 79 80
f 59 80 81
f 59 81 82
f 59 82 60
f 60 82 83
f 60 83 84
f 60 84 61
f 61 84 85
f 61 85 62
f 62 86 76
f 62 64 63
f 62 85 84
f 62 84 87
f 62 87 88
f 62 88 86
f 67 68 89
f 68 90 91
f 68 91 89
f 68 71 90
f 70 72 92
f 70 92 93
f 70 93 71
f 71 94 95
f 71 95 90
f 71 93 96
f 71 96 97
f 71 97 98
f 71 98 99
f 71 99 100
f 71 100 94
f 73 75 101
f 73 101 102
f 73 102 103
f 73 103 104
f 73 104 78
f 78 104 79
f 79 104 105
f 79 105 100
f 79 100 99
f 79 99 98
f 79 98 80
f 80 98 81
f 81 98 82
f 82 106 87
f 82 87 83
f 82 98 106
f 83 87 84
f 87 106 107
f 87 107 108
f 87 108 109
f 87 109 88
f 89 91 110
f 90 95 91
f 91 95 94
f 91 94 111
f 91 111 112
f 91 112 113
f 91 113 110
f 92 114 93
f 93 114 96
f 94 100 115
f 94 115 111
f 96 114 116
f 96 116 97
f 97 116 117
f 97 117 118
f 97 118 98
f 98 118 107
f 98 107 106
f 100 105 115
f 102 119 103
f 103 119 120
f 103 120 115
f 103 115 104
f 104 115 105
f 107 118 108
f 108 118 117
f 111 115 120
f 111 120 112
f 112 120 121
f 119 121 120

