v 0.000000 0.000000 0.000000
v 0.038500 0.000000 0.000000
v 0.040000 0.000000 0.002000
v 0.040000 0.000000 0.089000
v 0.038500 0.000000 0.090000
v 0.037000 0.000000 0.089000
v 0.037000 0.000000 0.006000
v 0.000000 0.000000 0.006000
v 0.000000 0.000000 0.000000
v 0.038353 0.003355 0.000000
v 0.039848 0.003486 0.002000
v 0.039848 0.003486 0.089000
v 0.038353 0.003355 0.090000
v 0.036859 0.003225 0.089000
v 0.036859 0.003225 0.006000
v 0.000000 0.000000 0.006000
v 0.000000 0.000000 0.000000
v 0.037915 0.006685 0.000000
v 0.039392 0.006946 0.002000
v 0.039392 0.006946 0.089000
v 0.037915 0.006685 0.090000
v 0.036438 0.006425 0.089000
v 0.036438 0.006425 0.006000
v 0.000000 0.000000 0.006000
v 0.000000 0.000000 0.000000
v 0.037188 0.009965 0.000000
v 0.038637 0.010353 0.002000
v 0.038637 0.010353 0.089000
v 0.037188 0.009965 0.090000
v 0.035739 0.009576 0.089000
v 0.035739 0.009576 0.006000
v 0.000000 0.000000 0.006000
v 0.000000 0.000000 0.000000
v 0.036178 0.013168 0.000000
v 0.037588 0.013681 0.002000
v 0.037588 0.013681 0.089000
v 0.036178 0.013168 0.090000
v 0.034769 0.012655 0.089000
v 0.034769 0.012655 0.006000
v 0.000000 0.000000 0.006000
v 0.000000 0.000000 0.000000
v 0.034893 0.016271 0.000000
v 0.036252 0.016905 0.002000
v 0.036252 0.016905 0.089000
v 0.034893 0.016271 0.090000
v 0.033533 0.015637 0.089000
v 0.033533 0.015637 0.006000
v 0.000000 0.000000 0.006000
v 0.000000 0.000000 0.000000
v 0.033342 0.019250 0.000000
v 0.034641 0.020000 0.002000
v 0.034641 0.020000 0.089000
v 0.033342 0.019250 0.090000
v 0.032043 0.018500 0.089000
v 0.032043 0.018500 0.006000
v 0.000000 0.000000 0.006000
v 0.000000 0.000000 0.000000
v 0.031537 0.022083 0.000000
v 0.032766 0.022943 0.002000
v 0.032766 0.022943 0.089000
v 0.031537 0.022083 0.090000
v 0.030309 0.021222 0.089000
v 0.030309 0.021222 0.006000
v 0.000000 0.000000 0.006000
v 0.000000 0.000000 0.000000
v 0.029493 0.024747 0.000000
v 0.030642 0.025712 0.002000
v 0.030642 0.025712 0.089000
v 0.029493 0.024747 0.090000
v 0.028344 0.023783 0.089000
v 0.028344 0.023783 0.006000
v 0.000000 0.000000 0.006000
v 0.000000 0.000000 0.000000
v 0.027224 0.027224 0.000000
v 0.028284 0.028284 0.002000
v 0.028284 0.028284 0.089000
v 0.027224 0.027224 0.090000
v 0.026163 0.026163 0.089000
v 0.026163 0.026163 0.006000
v 0.000000 0.000000 0.006000
v 0.000000 0.000000 0.000000
v 0.024747 0.029493 0.000000
v 0.025712 0.030642 0.002000
v 0.025712 0.030642 0.089000
v 0.024747 0.029493 0.090000
v 0.023783 0.028344 0.089000
v 0.023783 0.028344 0.006000
v 0.000000 0.000000 0.006000
v 0.000000 0.000000 0.000000
v 0.022083 0.031537 0.000000
v 0.022943 0.032766 0.002000
v 0.022943 0.032766 0.089000
v 0.022083 0.031537 0.090000
v 0.021222 0.030309 0.089000
v 0.021222 0.030309 0.006000
v 0.000000 0.000000 0.006000
v 0.000000 0.000000 0.000000
v 0.019250 0.033342 0.000000
v 0.020000 0.034641 0.002000
v 0.020000 0.034641 0.089000
v 0.019250 0.033342 0.090000
v 0.018500 0.032043 0.089000
v 0.018500 0.032043 0.006000
v 0.000000 0.000000 0.006000
v 0.000000 0.000000 0.000000
v 0.016271 0.034893 0.000000
v 0.016905 0.036252 0.002000
v 0.016905 0.036252 0.089000
v 0.016271 0.034893 0.090000
v 0.015637 0.033533 0.089000
v 0.015637 0.033533 0.006000
v 0.000000 0.000000 0.006000
v 0.000000 0.000000 0.000000
v 0.013168 0.036178 0.000000
v 0.013681 0.037588 0.002000
v 0.013681 0.037588 0.089000
v 0.013168 0.036178 0.090000
v 0.012655 0.034769 0.089000
v 0.012655 0.034769 0.006000
v 0.000000 0.000000 0.006000
v 0.000000 0.000000 0.000000
v 0.009965 0.037188 0.000000
v 0.010353 0.038637 0.002000
v 0.010353 0.038637 0.089000
v 0.009965 0.037188 0.090000
v 0.009576 0.035739 0.089000
v 0.009576 0.035739 0.006000
v 0.000000 0.000000 0.006000
v 0.000000 0.000000 0.000000
v 0.006685 0.037915 0.000000
v 0.006946 0.039392 0.002000
v 0.006946 0.039392 0.089000
v 0.006685 0.037915 0.090000
v 0.006425 0.036438 0.089000
v 0.006425 0.036438 0.006000
v 0.000000 0.000000 0.006000
v 0.000000 0.000000 0.000000
v 0.003355 0.038353 0.000000
v 0.003486 0.039848 0.002000
v 0.003486 0.039848 0.089000
v 0.003355 0.038353 0.090000
v 0.003225 0.036859 0.089000
v 0.003225 0.036859 0.006000
v 0.000000 0.000000 0.006000
v 0.000000 0.000000 0.000000
v 0.000000 0.038500 0.000000
v 0.000000 0.040000 0.002000
v 0.000000 0.040000 0.089000
v 0.000000 0.038500 0.090000
v 0.000000 0.037000 0.089000
v 0.000000 0.037000 0.006000
v 0.000000 0.000000 0.006000
v -0.000000 0.000000 0.000000
v -0.003355 0.038353 0.000000
v -0.003486 0.039848 0.002000
v -0.003486 0.039848 0.089000
v -0.003355 0.038353 0.090000
v -0.003225 0.036859 0.089000
v -0.003225 0.036859 0.006000
v -0.000000 0.000000 0.006000
v -0.000000 0.000000 0.000000
v -0.006685 0.037915 0.000000
v -0.006946 0.039392 0.002000
v -0.006946 0.039392 0.089000
v -0.006685 0.037915 0.090000
v -0.006425 0.036438 0.089000
v -0.006425 0.036438 0.006000
v -0.000000 0.000000 0.006000
v -0.000000 0.000000 0.000000
v -0.009965 0.037188 0.000000
v -0.010353 0.038637 0.002000
v -0.010353 0.038637 0.089000
v -0.009965 0.037188 0.090000
v -0.009576 0.035739 0.089000
v -0.009576 0.035739 0.006000
v -0.000000 0.000000 0.006000
v -0.000000 0.000000 0.000000
v -0.013168 0.036178 0.000000
v -0.013681 0.037588 0.002000
v -0.013681 0.037588 0.089000
v -0.013168 0.036178 0.090000
v -0.012655 0.034769 0.089000
v -0.012655 0.034769 0.006000
v -0.000000 0.000000 0.006000
v -0.000000 0.000000 0.000000
v -0.016271 0.034893 0.000000
v -0.016905 0.036252 0.002000
v -0.016905 0.036252 0.089000
v -0.016271 0.034893 0.090000
v -0.015637 0.033533 0.089000
v -0.015637 0.033533 0.006000
v -0.000000 0.000000 0.006000
v -0.000000 0.000000 0.000000
v -0.019250 0.033342 0.000000
v -0.020000 0.034641 0.002000
v -0.020000 0.034641 0.089000
v -0.019250 0.033342 0.090000
v -0.018500 0.032043 0.089000
v -0.018500 0.032043 0.006000
v -0.000000 0.000000 0.006000
v -0.000000 0.000000 0.000000
v -0.022083 0.031537 0.000000
v -0.022943 0.032766 0.002000
v -0.022943 0.032766 0.089000
v -0.022083 0.031537 0.090000
v -0.021222 0.030309 0.089000
v -0.021222 0.030309 0.006000
v -0.000000 0.000000 0.006000
v -0.000000 0.000000 0.000000
v -0.024747 0.029493 0.000000
v -0.025712 0.030642 0.002000
v -0.025712 0.030642 0.089000
v -0.024747 0.029493 0.090000
v -0.023783 0.028344 0.089000
v -0.023783 0.028344 0.006000
v -0.000000 0.000000 0.006000
v -0.000000 0.000000 0.000000
v -0.027224 0.027224 0.000000
v -0.028284 0.028284 0.002000
v -0.028284 0.028284 0.089000
v -0.027224 0.027224 0.090000
v -0.026163 0.026163 0.089000
v -0.026163 0.026163 0.006000
v -0.000000 0.000000 0.006000
v -0.000000 0.000000 0.000000
v -0.029493 0.024747 0.000000
v -0.030642 0.025712 0.002000
v -0.030642 0.025712 0.089000
v -0.029493 0.024747 0.090000
v -0.028344 0.023783 0.089000
v -0.028344 0.023783 0.006000
v -0.000000 0.000000 0.006000
v -0.000000 0.000000 0.000000
v -0.031537 0.022083 0.000000
v -0.032766 0.022943 0.002000
v -0.032766 0.022943 0.089000
v -0.031537 0.022083 0.090000
v -0.030309 0.021222 0.089000
v -0.030309 0.021222 0.006000
v -0.000000 0.000000 0.006000
v -0.000000 0.000000 0.000000
v -0.033342 0.019250 0.000000
v -0.034641 0.020000 0.002000
v -0.034641 0.020000 0.089000
v -0.033342 0.019250 0.090000
v -0.032043 0.018500 0.089000
v -0.032043 0.018500 0.006000
v -0.000000 0.000000 0.006000
v -0.000000 0.000000 0.000000
v -0.034893 0.016271 0.000000
v -0.036252 0.016905 0.002000
v -0.036252 0.016905 0.089000
v -0.034893 0.016271 0.090000
v -0.033533 0.015637 0.089000
v -0.033533 0.015637 0.006000
v -0.000000 0.000000 0.006000
v -0.000000 0.000000 0.000000
v -0.036178 0.013168 0.000000
v -0.037588 0.013681 0.002000
v -0.037588 0.013681 0.089000
v -0.036178 0.013168 0.090000
v -0.034769 0.012655 0.089000
v -0.034769 0.012655 0.006000
v -0.000000 0.000000 0.006000
v -0.000000 0.000000 0.000000
v -0.037188 0.009965 0.000000
v -0.038637 0.010353 0.002000
v -0.038637 0.010353 0.089000
v -0.037188 0.009965 0.090000
v -0.035739 0.009576 0.089000
v -0.035739 0.009576 0.006000
v -0.000000 0.000000 0.006000
v -0.000000 0.000000 0.000000
v -0.037915 0.006685 0.000000
v -0.039392 0.006946 0.002000
v -0.039392 0.006946 0.089000
v -0.037915 0.006685 0.090000
v -0.036438 0.006425 0.089000
v -0.036438 0.006425 0.006000
v -0.000000 0.000000 0.006000
v -0.000000 0.000000 0.000000
v -0.038353 0.003355 0.000000
v -0.039848 0.003486 0.002000
v -0.039848 0.003486 0.089000
v -0.038353 0.003355 0.090000
v -0.036859 0.003225 0.089000
v -0.036859 0.003225 0.006000
v -0.000000 0.000000 0.006000
v -0.000000 0.000000 0.000000
v -0.038500 0.000000 0.000000
v -0.040000 0.000000 0.002000
v -0.040000 0.000000 0.089000
v -0.038500 0.000000 0.090000
v -0.037000 0.000000 0.089000
v -0.037000 0.000000 0.006000
v -0.000000 0.000000 0.006000
v -0.000000 -0.000000 0.000000
v -0.038353 -0.003355 0.000000
v -0.039848 -0.003486 0.002000
v -0.039848 -0.003486 0.089000
v -0.038353 -0.003355 0.090000
v -0.036859 -0.003225 0.089000
v -0.036859 -0.003225 0.006000
v -0.000000 -0.000000 0.006000
v -0.000000 -0.000000 0.000000
v -0.037915 -0.006685 0.000000
v -0.039392 -0.006946 0.002000
v -0.039392 -0.006946 0.089000
v -0.037915 -0.006685 0.090000
v -0.036438 -0.006425 0.089000
v -0.036438 -0.006425 0.006000
v -0.000000 -0.000000 0.006000
v -0.000000 -0.000000 0.000000
v -0.037188 -0.009965 0.000000
v -0.038637 -0.010353 0.002000
v -0.038637 -0.010353 0.089000
v -0.037188 -0.009965 0.090000
v -0.035739 -0.009576 0.089000
v -0.035739 -0.009576 0.006000
v -0.000000 -0.000000 0.006000
v -0.000000 -0.000000 0.000000
v -0.036178 -0.013168 0.000000
v -0.037588 -0.013681 0.002000
v -0.037588 -0.013681 0.089000
v -0.036178 -0.013168 0.090000
v -0.034769 -0.012655 0.089000
v -0.034769 -0.012655 0.006000
v -0.000000 -0.000000 0.006000
v -0.000000 -0.000000 0.000000
v -0.034893 -0.016271 0.000000
v -0.036252 -0.016905 0.002000
v -0.036252 -0.016905 0.089000
v -0.034893 -0.016271 0.090000
v -0.033533 -0.015637 0.089000
v -0.033533 -0.015637 0.006000
v -0.000000 -0.000000 0.006000
v -0.000000 -0.000000 0.000000
v -0.033342 -0.019250 0.000000
v -0.034641 -0.020000 0.002000
v -0.034641 -0.020000 0.089000
v -0.033342 -0.019250 0.090000
v -0.032043 -0.018500 0.089000
v -0.032043 -0.018500 0.006000
v -0.000000 -0.000000 0.006000
v -0.000000 -0.000000 0.000000
v -0.031537 -0.022083 0.000000
v -0.032766 -0.022943 0.002000
v -0.032766 -0.022943 0.089000
v -0.031537 -0.022083 0.090000
v -0.030309 -0.021222 0.089000
v -0.030309 -0.021222 0.006000
v -0.000000 -0.000000 0.006000
v -0.000000 -0.000000 0.000000
v -0.029493 -0.024747 0.000000
v -0.030642 -0.025712 0.002000
v -0.030642 -0.025712 0.089000
v -0.029493 -0.024747 0.090000
v -0.028344 -0.023783 0.089000
v -0.028344 -0.023783 0.006000
v -0.000000 -0.000000 0.006000
v -0.000000 -0.000000 0.000000
v -0.027224 -0.027224 0.000000
v -0.028284 -0.028284 0.002000
v -0.028284 -0.028284 0.089000
v -0.027224 -0.027224 0.090000
v -0.026163 -0.026163 0.089000
v -0.026163 -0.026163 0.006000
v -0.000000 -0.000000 0.006000
v -0.000000 -0.000000 0.000000
v -0.024747 -0.029493 0.000000
v -0.025712 -0.030642 0.002000
v -0.025712 -0.030642 0.089000
v -0.024747 -0.029493 0.090000
v -0.023783 -0.028344 0.089000
v -0.023783 -0.028344 0.006000
v -0.000000 -0.000000 0.006000
v -0.000000 -0.000000 0.000000
v -0.022083 -0.031537 0.000000
v -0.022943 -0.032766 0.002000
v -0.022943 -0.032766 0.089000
v -0.022083 -0.031537 0.090000
v -0.021222 -0.030309 0.089000
v -0.021222 -0.030309 0.006000
v -0.000000 -0.000000 0.006000
v -0.000000 -0.000000 0.000000
v -0.019250 -0.033342 0.000000
v -0.020000 -0.034641 0.002000
v -0.020000 -0.034641 0.089000
v -0.019250 -0.033342 0.090000
v -0.018500 -0.032043 0.089000
v -0.018500 -0.032043 0.006000
v -0.000000 -0.000000 0.006000
v -0.000000 -0.000000 0.000000
v -0.016271 -0.034893 0.000000
v -0.016905 -0.036252 0.002000
v -0.016905 -0.036252 0.089000
v -0.016271 -0.034893 0.090000
v -0.015637 -0.033533 0.089000
v -0.015637 -0.033533 0.006000
v -0.000000 -0.000000 0.006000
v -0.000000 -0.000000 0.000000
v -0.013168 -0.036178 0.000000
v -0.013681 -0.037588 0.002000
v -0.013681 -0.037588 0.089000
v -0.013168 -0.036178 0.090000
v -0.012655 -0.034769 0.089000
v -0.012655 -0.034769 0.006000
v -0.000000 -0.000000 0.006000
v -0.000000 -0.000000 0.000000
v -0.009965 -0.037188 0.000000
v -0.010353 -0.038637 0.002000
v -0.010353 -0.038637 0.089000
v -0.009965 -0.037188 0.090000
v -0.009576 -0.035739 0.089000
v -0.009576 -0.035739 0.006000
v -0.000000 -0.000000 0.006000
v -0.000000 -0.000000 0.000000
v -0.006685 -0.037915 0.000000
v -0.006946 -0.039392 0.002000
v -0.006946 -0.039392 0.089000
v -0.006685 -0.037915 0.090000
v -0.006425 -0.036438 0.089000
v -0.006425 -0.036438 0.006000
v -0.000000 -0.000000 0.006000
v -0.000000 -0.000000 0.000000
v -0.003355 -0.038353 0.000000
v -0.003486 -0.039848 0.002000
v -0.003486 -0.039848 0.089000
v -0.003355 -0.038353 0.090000
v -0.003225 -0.036859 0.089000
v -0.003225 -0.036859 0.006000
v -0.000000 -0.000000 0.006000
v -0.000000 -0.000000 0.000000
v -0.000000 -0.038500 0.000000
v -0.000000 -0.040000 0.002000
v -0.000000 -0.040000 0.089000
v -0.000000 -0.038500 0.090000
v -0.000000 -0.037000 0.089000
v -0.000000 -0.037000 0.006000
v -0.000000 -0.000000 0.006000
v 0.000000 -0.000000 0.000000
v 0.003355 -0.038353 0.000000
v 0.003486 -0.039848 0.002000
v 0.003486 -0.039848 0.089000
v 0.003355 -0.038353 0.090000
v 0.003225 -0.036859 0.089000
v 0.003225 -0.036859 0.006000
v 0.000000 -0.000000 0.006000
v 0.000000 -0.000000 0.000000
v 0.006685 -0.037915 0.000000
v 0.006946 -0.039392 0.002000
v 0.006946 -0.039392 0.089000
v 0.006685 -0.037915 0.090000
v 0.006425 -0.036438 0.089000
v 0.006425 -0.036438 0.006000
v 0.000000 -0.000000 0.006000
v 0.000000 -0.000000 0.000000
v 0.009965 -0.037188 0.000000
v 0.010353 -0.038637 0.002000
v 0.010353 -0.038637 0.089000
v 0.009965 -0.037188 0.090000
v 0.009576 -0.035739 0.089000
v 0.009576 -0.035739 0.006000
v 0.000000 -0.000000 0.006000
v 0.000000 -0.000000 0.000000
v 0.013168 -0.036178 0.000000
v 0.013681 -0.037588 0.002000
v 0.013681 -0.037588 0.089000
v 0.013168 -0.036178 0.090000
v 0.012655 -0.034769 0.089000
v 0.012655 -0.034769 0.006000
v 0.000000 -0.000000 0.006000
v 0.000000 -0.000000 0.000000
v 0.016271 -0.034893 0.000000
v 0.016905 -0.036252 0.002000
v 0.016905 -0.036252 0.089000
v 0.016271 -0.034893 0.090000
v 0.015637 -0.033533 0.089000
v 0.015637 -0.033533 0.006000
v 0.000000 -0.000000 0.006000
v 0.000000 -0.000000 0.000000
v 0.019250 -0.033342 0.000000
v 0.020000 -0.034641 0.002000
v 0.020000 -0.034641 0.089000
v 0.019250 -0.033342 0.090000
v 0.018500 -0.032043 0.089000
v 0.018500 -0.032043 0.006000
v 0.000000 -0.000000 0.006000
v 0.000000 -0.000000 0.000000
v 0.022083 -0.031537 0.000000
v 0.022943 -0.032766 0.002000
v 0.022943 -0.032766 0.089000
v 0.022083 -0.031537 0.090000
v 0.021222 -0.030309 0.089000
v 0.021222 -0.030309 0.006000
v 0.000000 -0.000000 0.006000
v 0.000000 -0.000000 0.000000
v 0.024747 -0.029493 0.000000
v 0.025712 -0.030642 0.002000
v 0.025712 -0.030642 0.089000
v 0.024747 -0.029493 0.090000
v 0.023783 -0.028344 0.089000
v 0.023783 -0.028344 0.006000
v 0.000000 -0.000000 0.006000
v 0.000000 -0.000000 0.000000
v 0.027224 -0.027224 0.000000
v 0.028284 -0.028284 0.002000
v 0.028284 -0.028284 0.089000
v 0.027224 -0.027224 0.090000
v 0.026163 -0.026163 0.089000
v 0.026163 -0.026163 0.006000
v 0.000000 -0.000000 0.006000
v 0.000000 -0.000000 0.000000
v 0.029493 -0.024747 0.000000
v 0.030642 -0.025712 0.002000
v 0.030642 -0.025712 0.089000
v 0.029493 -0.024747 0.090000
v 0.028344 -0.023783 0.089000
v 0.028344 -0.023783 0.006000
v 0.000000 -0.000000 0.006000
v 0.000000 -0.000000 0.000000
v 0.031537 -0.022083 0.000000
v 0.032766 -0.022943 0.002000
v 0.032766 -0.022943 0.089000
v 0.031537 -0.022083 0.090000
v 0.030309 -0.021222 0.089000
v 0.030309 -0.021222 0.006000
v 0.000000 -0.000000 0.006000
v 0.000000 -0.000000 0.000000
v 0.033342 -0.019250 0.000000
v 0.034641 -0.020000 0.002000
v 0.034641 -0.020000 0.089000
v 0.033342 -0.019250 0.090000
v 0.032043 -0.018500 0.089000
v 0.032043 -0.018500 0.006000
v 0.000000 -0.000000 0.006000
v 0.000000 -0.000000 0.000000
v 0.034893 -0.016271 0.000000
v 0.036252 -0.016905 0.002000
v 0.036252 -0.016905 0.089000
v 0.034893 -0.016271 0.090000
v 0.033533 -0.015637 0.089000
v 0.033533 -0.015637 0.006000
v 0.000000 -0.000000 0.006000
v 0.000000 -0.000000 0.000000
v 0.036178 -0.013168 0.000000
v 0.037588 -0.013681 0.002000
v 0.037588 -0.013681 0.089000
v 0.036178 -0.013168 0.090000
v 0.034769 -0.012655 0.089000
v 0.034769 -0.012655 0.006000
v 0.000000 -0.000000 0.006000
v 0.000000 -0.000000 0.000000
v 0.037188 -0.009965 0.000000
v 0.038637 -0.010353 0.002000
v 0.038637 -0.010353 0.089000
v 0.037188 -0.009965 0.090000
v 0.035739 -0.009576 0.089000
v 0.035739 -0.009576 0.006000
v 0.000000 -0.000000 0.006000
v 0.000000 -0.000000 0.000000
v 0.037915 -0.006685 0.000000
v 0.039392 -0.006946 0.002000
v 0.039392 -0.006946 0.089000
v 0.037915 -0.006685 0.090000
v 0.036438 -0.006425 0.089000
v 0.036438 -0.006425 0.006000
v 0.000000 -0.000000 0.006000
v 0.000000 -0.000000 0.000000
v 0.038353 -0.003355 0.000000
v 0.039848 -0.003486 0.002000
v 0.039848 -0.003486 0.089000
v 0.038353 -0.003355 0.090000
v 0.036859 -0.003225 0.089000
v 0.036859 -0.003225 0.006000
v 0.000000 -0.000000 0.006000
f 1 10 2
f 1 9 10
f 2 11 3
f 2 10 11
f 3 12 4
f 3 11 12
f 4 13 5
f 4 12 13
f 5 14 6
f 5 13 14
f 6 15 7
f 6 14 15
f 7 16 8
f 7 15 16
f 9 18 10
f 9 17 18
f 10 19 11
f 10 18 19
f 11 20 12
f 11 19 20
f 12 21 13
f 12 20 21
f 13 22 14
f 13 21 22
f 14 23 15
f 14 22 23
f 15 24 16
f 15 23 24
f 17 26 18
f 17 25 26
f 18 27 19
f 18 26 27
f 19 28 20
f 19 27 28
f 20 29 21
f 20 28 29
f 21 30 22
f 21 29 30
f 22 31 23
f 22 30 31
f 23 32 24
f 23 31 32
f 25 34 26
f 25 33 34
f 26 35 27
f 26 34 35
f 27 36 28
f 27 35 36
f 28 37 29
f 28 36 37
f 29 38 30
f 29 37 38
f 30 39 31
f 30 38 39
f 31 40 32
f 31 39 40
f 33 42 34
f 33 41 42
f 34 43 35
f 34 42 43
f 35 44 36
f 35 43 44
f 36 45 37
f 36 44 45
f 37 46 38
f 37 45 46
f 38 47 39
f 38 46 47
f 39 48 40
f 39 47 48
f 41 50 42
f 41 49 50
f 42 51 43
f 42 50 51
f 43 52 44
f 43 51 52
f 44 53 45
f 44 52 53
f 45 54 46
f 45 53 54
f 46 55 47
f 46 54 55
f 47 56 48
f 47 55 56
f 49 58 50
f 49 57 58
f 50 59 51
f 50 58 59
f 51 60 52
f 51 59 60
f 52 61 53
f 52 60 61
f 53 62 54
f 53 61 62
f 54 63 55
f 54 62 63
f 55 64 56
f 55 63 64
f 57 66 58
f 57 65 66
f 58 67 59
f 58 66 67
f 59 68 60
f 59 67 68
f 60 69 61
f 60 68 69
f 61 70 62
f 61 69 70
f 62 71 63
f 62 70 71
f 63 72 64
f 63 71 72
f 65 74 66
f 65 73 74
f 66 75 67
f 66 74 75
f 67 76 68
f 67 75 76
f 68 77 69
f 68 76 77
f 69 78 70
f 69 77 78
f 70 79 71
f 70 78 79
f 71 80 72
f 71 79 80
f 73 82 74
f 73 81 82
f 74 83 75
f 74 82 83
f 75 84 76
f 75 83 84
f 76 85 77
f 76 84 85
f 77 86 78
f 77 85 86
f 78 87 79
f 78 86 87
f 79 88 80
f 79 87 88
f 81 90 82
f 81 89 90
f 82 91 83
f 82 90 91
f 83 92 84
f 83 91 92
f 84 93 85
f 84 92 93
f 85 94 86
f 85 93 94
f 86 95 87
f 86 94 95
f 87 96 88
f 87 95 96
f 89 98 90
f 89 97 98
f 90 99 91
f 90 98 99
f 91 100 92
f 91 99 100
f 92 101 93
f 92 100 101
f 93 102 94
f 93 101 102
f 94 103 95
f 94 102 103
f 95 104 96
f 95 103 104
f 97 106 98
f 97 105 106
f 98 107 99
f 98 106 107
f 99 108 100
f 99 107 108
f 100 109 101
f 100 108 109
f 101 110 102
f 101 109 110
f 102 111 103
f 102 110 111
f 103 112 104
f 103 111 112
f 105 114 106
f 105 113 114
f 106 115 107
f 106 114 115
f 107 116 108
f 107 115 116
f 108 117 109
f 108 116 117
f 109 118 110
f 109 117 118
f 110 119 111
f 110 118 119
f 111 120 112
f 111 119 120
f 113 122 114
f 113 121 122
f 114 123 115
f 114 122 123
f 115 124 116
f 115 123 124
f 116 125 117
f 116 124 125
f 117 126 118
f 117 125 126
f 118 127 119
f 118 126 127
f 119 128 120
f 119 127 128
f 121 130 122
f 121 129 130
f 122 131 123
f 122 130 131
f 123 132 124
f 123 131 132
f 124 133 125
f 124 132 133
f 125 134 126
f 125 133 134
f 126 135 127
f 126 134 135
f 127 136 128
f 127 135 136
f 129 138 130
f 129 137 138
f 130 139 131
f 130 138 139
f 131 140 132
f 131 139 140
f 132 141 133
f 132 140 141
f 133 142 134
f 133 141 142
f 134 143 135
f 134 142 143
f 135 144 136
f 135 143 144
f 137 146 138
f 137 145 146
f 138 147 139
f 138 146 147
f 139 148 140
f 139 147 148
f 140 149 141
f 140 148 149
f 141 150 142
f 141 149 150
f 142 151 143
f 142 150 151
f 143 152 144
f 143 151 152
f 145 154 146
f 145 153 154
f 146 155 147
f 146 154 155
f 147 156 148
f 147 155 156
f 148 157 149
f 148 156 157
f 149 158 150
f 149 157 158
f 150 159 151
f 150 158 159
f 151 160 152
f 151 159 160
f 153 162 154
f 153 161 162
f 154 163 155
f 154 162 163
f 155 164 156
f 155 163 164
f 156 165 157
f 156 164 165
f 157 166 158
f 157 165 166
f 158 167 159
f 158 166 167
f 159 168 160
f 159 167 168
f 161 170 162
f 161 169 170
f 162 171 163
f 162 170 171
f 163 172 164
f 163 171 172
f 164 173 165
f 164 172 173
f 165 174 166
f 165 173 174
f 166 175 167
f 166 174 175
f 167 176 168
f 167 175 176
f 169 178 170
f 169 177 178
f 170 179 171
f 170 178 179
f 171 180 172
f 171 179 180
f 172 181 173
f 172 180 181
f 173 182 174
f 173 181 182
f 174 183 175
f 174 182 183
f 175 184 176
f 175 183 184
f 177 186 178
f 177 185 186
f 178 187 179
f 178 186 187
f 179 188 180
f 179 187 188
f 180 189 181
f 180 188 189
f 181 190 182
f 181 189 190
f 182 191 183
f 182 190 191
f 183 192 184
f 183 191 192
f 185 194 186
f 185 193 194
f 186 195 187
f 186 194 195
f 187 196 188
f 187 195 196
f 188 197 189
f 188 196 197
f 189 198 190
f 189 197 198
f 190 199 191
f 190 198 199
f 191 200 192
f 191 199 200
f 193 202 194
f 193 201 202
f 194 203 195
f 194 202 203
f 195 204 196
f 195 203 204
f 196 205 197
f 196 204 205
f 197 206 198
f 197 205 206
f 198 207 199
f 198 206 207
f 199 208 200
f 199 207 208
f 201 210 202
f 201 209 210
f 202 211 203
f 202 210 211
f 203 212 204
f 203 211 212
f 204 213 205
f 204 212 213
f 205 214 206
f 205 213 214
f 206 215 207
f 206 214 215
f 207 216 208
f 207 215 216
f 209 218 210
f 209 217 218
f 210 219 211
f 210 218 219
f 211 220 212
f 211 219 220
f 212 221 213
f 212 220 221
f 213 222 214
f 213 221 222
f 214 223 215
f 214 222 223
f 215 224 216
f 215 223 224
f 217 226 218
f 217 225 226
f 218 227 219
f 218 226 227
f 219 228 220
f 219 227 228
f 220 229 221
f 220 228 229
f 221 230 222
f 221 229 230
f 222 231 223
f 222 230 231
f 223 232 224
f 223 231 232
f 225 234 226
f 225 233 234
f 226 235 227
f 226 234 235
f 227 236 228
f 227 235 236
f 228 237 229
f 228 236 237
f 229 238 230
f 229 237 238
f 230 239 231
f 230 238 239
f 231 240 232
f 231 239 240
f 233 242 234
f 233 241 242
f 234 243 235
f 234 242 243
f 235 244 236
f 235 243 244
f 236 245 237
f 236 244 245
f 237 246 238
f 237 245 246
f 238 247 239
f 238 246 247
f 239 248 240
f 239 247 248
f 241 250 242
f 241 249 250
f 242 251 243
f 242 250 251
f 243 252 244
f 243 251 252
f 244 253 245
f 244 252 253
f 245 254 246
f 245 253 254
f 246 255 247
f 246 254 255
f 247 256 248
f 247 255 256
f 249 258 250
f 249 257 258
f 250 259 251
f 250 258 259
f 251 260 252
f 251 259 260
f 252 261 253
f 252 260 261
f 253 262 254
f 253 261 262
f 254 263 255
f 254 262 263
f 255 264 256
f 255 263 264
f 257 266 258
f 257 265 266
f 258 267 259
f 258 266 267
f 259 268 260
f 259 267 268
f 260 269 261
f 260 268 269
f 261 270 262
f 261 269 270
f 262 271 263
f 262 270 271
f 263 272 264
f 263 271 272
f 265 274 266
f 265 273 274
f 266 275 267
f 266 274 275
f 267 276 268
f 267 275 276
f 268 277 269
f 268 276 277
f 269 278 270
f 269 277 278
f 270 279 271
f 270 278 279
f 271 280 272
f 271 279 280
f 273 282 274
f 273 281 282
f 274 283 275
f 274 282 283
f 275 284 276
f 275 283 284
f 276 285 277
f 276 284 285
f 277 286 278
f 277 285 286
f 278 287 279
f 278 286 287
f 279 288 280
f 279 287 288
f 281 290 282
f 281 289 290
f 282 291 283
f 282 290 291
f 283 292 284
f 283 291 292
f 284 293 285
f 284 292 293
f 285 294 286
f 285 293 294
f 286 295 287
f 286 294 295
f 287 296 288
f 287 295 296
f 289 298 290
f 289 297 298
f 290 299 291
f 290 298 299
f 291 300 292
f 291 299 300
f 292 301 293
f 292 300 301
f 293 302 294
f 293 301 302
f 294 303 295
f 294 302 303
f 295 304 296
f 295 303 304
f 297 306 298
f 297 305 306
f 298 307 299
f 298 306 307
f 299 308 300
f 299 307 308
f 300 309 301
f 300 308 309
f 301 310 302
f 301 309 310
f 302 311 303
f 302 310 311
f 303 312 304
f 303 311 312
f 305 314 306
f 305 313 314
f 306 315 307
f 306 314 315
f 307 316 308
f 307 315 316
f 308 317 309
f 308 316 317
f 309 318 310
f 309 317 318
f 310 319 311
f 310 318 319
f 311 320 312
f 311 319 320
f 313 322 314
f 313 321 322
f 314 323 315
f 314 322 323
f 315 324 316
f 315 323 324
f 316 325 317
f 316 324 325
f 317 326 318
f 317 325 326
f 318 327 319
f 318 326 327
f 319 328 320
f 319 327 328
f 321 330 322
f 321 329 330
f 322 331 323
f 322 330 331
f 323 332 324
f 323 331 332
f 324 333 325
f 324 332 333
f 325 334 326
f 325 333 334
f 326 335 327
f 326 334 335
f 327 336 328
f 327 335 336
f 329 338 330
f 329 337 338
f 330 339 331
f 330 338 339
f 331 340 332
f 331 339 340
f 332 341 333
f 332 340 341
f 333 342 334
f 333 341 342
f 334 343 335
f 334 342 343
f 335 344 336
f 335 343 344
f 337 346 338
f 337 345 346
f 338 347 339
f 338 346 347
f 339 348 340
f 339 347 348
f 340 349 341
f 340 348 349
f 341 350 342
f 341 349 350
f 342 351 343
f 342 350 351
f 343 352 344
f 343 351 352
f 345 354 346
f 345 353 354
f 346 355 347
f 346 354 355
f 347 356 348
f 347 355 356
f 348 357 349
f 348 356 357
f 349 358 350
f 349 357 358
f 350 359 351
f 350 358 359
f 351 360 352
f 351 359 360
f 353 362 354
f 353 361 362
f 354 363 355
f 354 362 363
f 355 364 356
f 355 363 364
f 356 365 357
f 356 364 365
f 357 366 358
f 357 365 366
f 358 367 359
f 358 366 367
f 359 368 360
f 359 367 368
f 361 370 362
f 361 369 370
f 362 371 363
f 362 370 371
f 363 372 364
f 363 371 372
f 364 373 365
f 364 372 373
f 365 374 366
f 365 373 374
f 366 375 367
f 366 374 375
f 367 376 368
f 367 375 376
f 369 378 370
f 369 377 378
f 370 379 371
f 370 378 379
f 371 380 372
f 371 379 380
f 372 381 373
f 372 380 381
f 373 382 374
f 373 381 382
f 374 383 375
f 374 382 383
f 375 384 376
f 375 383 384
f 377 386 378
f 377 385 386
f 378 387 379
f 378 386 387
f 379 388 380
f 379 387 388
f 380 389 381
f 380 388 389
f 381 390 382
f 381 389 390
f 382 391 383
f 382 390 391
f 383 392 384
f 383 391 392
f 385 394 386
f 385 393 394
f 386 395 387
f 386 394 395
f 387 396 388
f 387 395 396
f 388 397 389
f 388 396 397
f 389 398 390
f 389 397 398
f 390 399 391
f 390 398 399
f 391 400 392
f 391 399 400
f 393 402 394
f 393 401 402
f 394 403 395
f 394 402 403
f 395 404 396
f 395 403 404
f 396 405 397
f 396 404 405
f 397 406 398
f 397 405 406
f 398 407 399
f 398 406 407
f 399 408 400
f 399 407 408
f 401 410 402
f 401 409 410
f 402 411 403
f 402 410 411
f 403 412 404
f 403 411 412
f 404 413 405
f 404 412 413
f 405 414 406
f 405 413 414
f 406 415 407
f 406 414 415
f 407 416 408
f 407 415 416
f 409 418 410
f 409 417 418
f 410 419 411
f 410 418 419
f 411 420 412
f 411 419 420
f 412 421 413
f 412 420 421
f 413 422 414
f 413 421 422
f 414 423 415
f 414 422 423
f 415 424 416
f 415 423 424
f 417 426 418
f 417 425 426
f 418 427 419
f 418 426 427
f 419 428 420
f 419 427 428
f 420 429 421
f 420 428 429
f 421 430 422
f 421 429 430
f 422 431 423
f 422 430 431
f 423 432 424
f 423 431 432
f 425 434 426
f 425 433 434
f 426 435 427
f 426 434 435
f 427 436 428
f 427 435 436
f 428 437 429
f 428 436 437
f 429 438 430
f 429 437 438
f 430 439 431
f 430 438 439
f 431 440 432
f 431 439 440
f 433 442 434
f 433 441 442
f 434 443 435
f 434 442 443
f 435 444 436
f 435 443 444
f 436 445 437
f 436 444 445
f 437 446 438
f 437 445 446
f 438 447 439
f 438 446 447
f 439 448 440
f 439 447 448
f 441 450 442
f 441 449 450
f 442 451 443
f 442 450 451
f 443 452 444
f 443 451 452
f 444 453 445
f 444 452 453
f 445 454 446
f 445 453 454
f 446 455 447
f 446 454 455
f 447 456 448
f 447 455 456
f 449 458 450
f 449 457 458
f 450 459 451
f 450 458 459
f 451 460 452
f 451 459 460
f 452 461 453
f 452 460 461
f 453 462 454
f 453 461 462
f 454 463 455
f 454 462 463
f 455 464 456
f 455 463 464
f 457 466 458
f 457 465 466
f 458 467 459
f 458 466 467
f 459 468 460
f 459 467 468
f 460 469 461
f 460 468 469
f 461 470 462
f 461 469 470
f 462 471 463
f 462 470 471
f 463 472 464
f 463 471 472
f 465 474 466
f 465 473 474
f 466 475 467
f 466 474 475
f 467 476 468
f 467 475 476
f 468 477 469
f 468 476 477
f 469 478 470
f 469 477 478
f 470 479 471
f 470 478 479
f 471 480 472
f 471 479 480
f 473 482 474
f 473 481 482
f 474 483 475
f 474 482 483
f 475 484 476
f 475 483 484
f 476 485 477
f 476 484 485
f 477 486 478
f 477 485 486
f 478 487 479
f 478 486 487
f 479 488 480
f 479 487 488
f 481 490 482
f 481 489 490
f 482 491 483
f 482 490 491
f 483 492 484
f 483 491 492
f 484 493 485
f 484 492 493
f 485 494 486
f 485 493 494
f 486 495 487
f 486 494 495
f 487 496 488
f 487 495 496
f 489 498 490
f 489 497 498
f 490 499 491
f 490 498 499
f 491 500 492
f 491 499 500
f 492 501 493
f 492 500 501
f 493 502 494
f 493 501 502
f 494 503 495
f 494 502 503
f 495 504 496
f 495 503 504
f 497 506 498
f 497 505 506
f 498 507 499
f 498 506 507
f 499 508 500
f 499 507 508
f 500 509 501
f 500 508 509
f 501 510 502
f 501 509 510
f 502 511 503
f 502 510 511
f 503 512 504
f 503 511 512
f 505 514 506
f 505 513 514
f 506 515 507
f 506 514 515
f 507 516 508
f 507 515 516
f 508 517 509
f 508 516 517
f 509 518 510
f 509 517 518
f 510 519 511
f 510 518 519
f 511 520 512
f 511 519 520
f 513 522 514
f 513 521 522
f 514 523 515
f 514 522 523
f 515 524 516
f 515 523 524
f 516 525 517
f 516 524 525
f 517 526 518
f 517 525 526
f 518 527 519
f 518 526 527
f 519 528 520
f 519 527 528
f 521 530 522
f 521 529 530
f 522 531 523
f 522 530 531
f 523 532 524
f 523 531 532
f 524 533 525
f 524 532 533
f 525 534 526
f 525 533 534
f 526 535 527
f 526 534 535
f 527 536 528
f 527 535 536
f 529 538 530
f 529 537 538
f 530 539 531
f 530 538 539
f 531 540 532
f 531 539 540
f 532 541 533
f 532 540 541
f 533 542 534
f 533 541 542
f 534 543 535
f 534 542 543
f 535 544 536
f 535 543 544
f 537 546 538
f 537 545 546
f 538 547 539
f 538 546 547
f 539 548 540
f 539 547 548
f 540 549 541
f 540 548 549
f 541 550 542
f 541 549 550
f 542 551 543
f 542 550 551
f 543 552 544
f 543 551 552
f 545 554 546
f 545 553 554
f 546 555 547
f 546 554 555
f 547 556 548
f 547 555 556
f 548 557 549
f 548 556 557
f 549 558 550
f 549 557 558
f 550 559 551
f 550 558 559
f 551 560 552
f 551 559 560
f 553 562 554
f 553 561 562
f 554 563 555
f 554 562 563
f 555 564 556
f 555 563 564
f 556 565 557
f 556 564 565
f 557 566 558
f 557 565 566
f 558 567 559
f 558 566 567
f 559 568 560
f 559 567 568
f 561 570 562
f 561 569 570
f 562 571 563
f 562 570 571
f 563 572 564
f 563 571 572
f 564 573 565
f 564 572 573
f 565 574 566
f 565 573 574
f 566 575 567
f 566 574 575
f 567 576 568
f 567 575 576
f 569 2 570
f 569 1 2
f 570 3 571
f 570 2 3
f 571 4 572
f 571 3 4
f 572 5 573
f 572 4 5
f 573 6 574
f 573 5 6
f 574 7 575
f 574 6 7
f 575 8 576
f 575 7 8
