# https://github.com/mikedh/trimesh
v -0.02298241 -0.00309119 0.19784425
v -0.02298241 -0.00309119 0.19782517
v -0.02316733 -0.00309119 0.19987551
v -0.01482139 -0.01704229 0.19782517
v -0.02352484 -0.00309119 0.19584550
v -0.01482139 -0.01704229 0.19764431
v -0.01484358 -0.01704229 0.19584550
v -0.02408206 -0.00309119 0.20134366
v -0.01537121 -0.01704229 0.20005426
v -0.04000222 -0.00309119 0.19584550
v -0.02173484 -0.01704229 0.19584550
v -0.02562797 -0.00309119 0.20234692
v -0.01642648 -0.01642503 0.20086322
v -0.01539833 -0.01704229 0.20008746
v -0.04000715 -0.00512595 0.19584550
v -0.03920584 -0.00309119 0.19703882
v -0.03174010 -0.01704229 0.19665023
v -0.03394925 -0.01314620 0.19584550
v -0.02564276 -0.00309119 0.20235399
v -0.01730422 -0.01704229 0.20157186
v -0.01704287 -0.01704229 0.20143409
v -0.03948691 -0.00720988 0.19584550
v -0.03911708 -0.00660491 0.19696393
v -0.03920091 -0.00512595 0.19704729
v -0.03298521 -0.01264365 0.20101795
v -0.03177462 -0.01127394 0.20171741
v -0.03383583 -0.00309119 0.20026904
v -0.03192256 -0.01704229 0.19667071
v -0.03217651 -0.01704229 0.19669968
v -0.03504396 -0.01266141 0.19584550
v -0.02695198 -0.00309119 0.20292698
v -0.01957007 -0.01704229 0.20244866
v -0.03943513 -0.00730684 0.19584550
v -0.03315287 -0.01704229 0.19926931
v -0.03500205 -0.01288536 0.19911670
v -0.03389994 -0.01344800 0.19995605
v -0.03244772 -0.01537488 0.20063784
v -0.03142205 -0.01537488 0.20138181
v -0.03190283 -0.01332509 0.20152806
v -0.02972327 -0.01332373 0.20256665
v -0.02952356 -0.01111690 0.20268959
v -0.02977258 -0.00922552 0.20260198
v -0.02980957 -0.00717574 0.20258148
v -0.02980217 -0.00512595 0.20253486
v -0.02979724 -0.00309119 0.20247551
v -0.03169326 -0.00309119 0.20145035
v -0.03382351 -0.00309119 0.20027610
v -0.03271154 -0.01704229 0.19698229
v -0.03287180 -0.01658618 0.19675196
v -0.03889764 -0.00811528 0.19584550
v -0.02797518 -0.00309119 0.20297996
v -0.02668076 -0.00412496 0.20294888
v -0.02179894 -0.01704229 0.20302307
v -0.02111105 -0.01704229 0.20290507
v -0.02093846 -0.01687022 0.20285774
v -0.02057356 -0.01704229 0.20278497
v -0.03315780 -0.01704229 0.19797849
v -0.03294823 -0.01704229 0.19946007
v -0.03354243 -0.01537488 0.19961268
v -0.03191516 -0.01704229 0.20037007
v -0.03129630 -0.01704229 0.20086464
v -0.03108673 -0.01684701 0.20111263
v -0.03070950 -0.01704229 0.20125817
v -0.02981943 -0.01704229 0.20173366
v -0.02972327 -0.01537488 0.20226779
v -0.02765466 -0.01704229 0.20262529
v -0.02757823 -0.01542950 0.20283159
v -0.02813051 -0.01332373 0.20289448
v -0.02844118 -0.01169592 0.20292980
v -0.02870746 -0.01032894 0.20295241
v -0.02874937 -0.00922552 0.20296442
v -0.02878389 -0.00717574 0.20297573
v -0.02877896 -0.00512595 0.20297785
v -0.02877156 -0.00309119 0.20297996
v -0.03298275 -0.01704229 0.19751854
v -0.02767439 -0.00717574 0.20301388
v -0.02562550 -0.01332373 0.20305062
v -0.02356675 -0.01704229 0.20306263
v -0.02626655 -0.01704229 0.20290931
v -0.02650571 -0.01614918 0.20293899
v -0.02683363 -0.01478220 0.20296866
v -0.02710731 -0.01332373 0.20298844
v -0.02772370 -0.01111690 0.20299056
v -0.02767439 -0.00922552 0.20300823
v -0.02574385 -0.01542950 0.20301176
v -0.02525320 -0.01704229 0.20299763
f 1 2 5
f 1 5 10
f 1 10 16
f 1 16 27
f 1 27 47
f 1 47 46
f 1 46 45
f 1 45 74
f 1 74 51
f 1 51 31
f 1 31 19
f 1 19 12
f 1 12 8
f 1 8 3
f 1 3 4
f 1 4 6
f 1 6 2
f 2 6 7
f 2 7 5
f 3 8 9
f 3 9 4
f 4 9 14
f 4 14 21
f 4 21 20
f 4 20 32
f 4 32 56
f 4 56 54
f 4 54 53
f 4 53 78
f 4 78 86
f 4 86 79
f 4 79 66
f 4 66 64
f 4 64 63
f 4 63 61
f 4 61 60
f 4 60 58
f 4 58 34
f 4 34 57
f 4 57 75
f 4 75 48
f 4 48 29
f 4 29 28
f 4 28 17
f 4 17 11
f 4 11 7
f 4 7 6
f 5 7 11
f 5 11 18
f 5 18 30
f 5 30 50
f 5 50 33
f 5 33 22
f 5 22 15
f 5 15 10
f 8 12 13
f 8 13 14
f 8 14 9
f 10 15 16
f 11 17 18
f 12 19 20
f 12 20 21
f 12 21 13
f 13 21 14
f 15 22 23
f 15 23 24
f 15 24 16
f 16 24 25
f 16 25 26
f 16 26 27
f 17 28 18
f 18 28 29
f 18 29 30
f 19 31 20
f 20 31 32
f 22 33 34
f 22 34 23
f 23 34 35
f 23 35 25
f 23 25 24
f 25 35 36
f 25 36 37
f 25 37 38
f 25 38 39
f 25 39 26
f 26 39 40
f 26 40 41
f 26 41 42
f 26 42 43
f 26 43 44
f 26 44 45
f 26 45 46
f 26 46 47
f 26 47 27
f 29 48 49
f 29 49 30
f 30 49 50
f 31 51 52
f 31 52 53
f 31 53 54
f 31 54 55
f 31 55 56
f 31 56 32
f 33 57 34
f 33 50 57
f 34 58 37
f 34 37 59
f 34 59 35
f 35 59 36
f 36 59 37
f 37 60 61
f 37 61 62
f 37 62 38
f 37 58 60
f 38 62 63
f 38 63 64
f 38 64 65
f 38 65 39
f 39 65 40
f 40 66 67
f 40 67 68
f 40 68 69
f 40 69 70
f 40 70 41
f 40 65 66
f 41 70 71
f 41 71 72
f 41 72 42
f 42 72 73
f 42 73 74
f 42 74 43
f 43 74 44
f 44 74 45
f 48 75 50
f 48 50 49
f 50 75 57
f 51 74 76
f 51 76 77
f 51 77 78
f 51 78 53
f 51 53 52
f 54 56 55
f 61 63 62
f 64 66 65
f 66 79 67
f 67 79 80
f 67 80 68
f 68 80 81
f 68 81 69
f 69 81 70
f 70 81 82
f 70 82 83
f 70 83 71
f 71 83 84
f 71 84 72
f 72 84 76
f 72 76 73
f 73 76 74
f 76 84 77
f 77 85 78
f 77 84 83
f 77 83 82
f 77 82 85
f 78 85 86
f 79 86 80
f 80 86 81
f 81 86 85
f 81 85 82

