# https://github.com/mikedh/trimesh
v 0.04293275 -0.03373392 0.05279095
v 0.04831476 -0.03373392 0.05279095
v 0.04293485 -0.03373392 0.05296260
v 0.05460745 0.00005867 0.05396398
v 0.05341075 -0.01117907 0.05279095
v 0.04933059 -0.03219895 0.05279095
v 0.05299642 -0.03373392 0.05504772
v 0.04306946 -0.03373392 0.05454587
v 0.05467896 0.00005867 0.05454511
v 0.06261211 0.00005867 0.05396398
v 0.05784843 -0.01117907 0.05279095
v 0.05408376 -0.03246029 0.05516779
v 0.05024758 -0.03078968 0.05279095
v 0.05319832 -0.03373392 0.05514855
v 0.04334077 -0.03373392 0.05612992
v 0.05485142 0.00005867 0.05540101
v 0.06358378 0.00005867 0.05507851
v 0.06358167 -0.00079483 0.05507928
v 0.06260370 -0.00079483 0.05396398
v 0.05779796 -0.01170837 0.05279095
v 0.05383979 -0.03325424 0.05533636
v 0.05069766 -0.03009167 0.05279095
v 0.05466844 -0.03084261 0.05495689
v 0.05554546 -0.03029346 0.05523707
v 0.05405642 -0.03373392 0.05600985
v 0.04339756 -0.03373392 0.05633389
v 0.05499864 0.00005867 0.05612915
v 0.06385929 0.00005867 0.05556188
v 0.06418528 -0.00079483 0.05612915
v 0.06354382 -0.00237612 0.05511545
v 0.06349965 -0.00396072 0.05515471
v 0.06344286 -0.00554531 0.05521628
v 0.06338608 -0.00668662 0.05528325
v 0.06239338 -0.00224380 0.05396398
v 0.05745514 -0.01352784 0.05279095
v 0.05522158 -0.03134876 0.05555726
v 0.05563379 -0.03201369 0.05661329
v 0.05107412 -0.02940027 0.05279095
v 0.05581257 -0.02929441 0.05506696
v 0.05714808 -0.02720036 0.05522398
v 0.05687677 -0.02825565 0.05547644
v 0.05421416 -0.03373392 0.05621382
v 0.04377192 -0.03373392 0.05757465
v 0.05530781 0.00005867 0.05720365
v 0.06417897 0.00005867 0.05612915
v 0.06441663 -0.00079483 0.05771166
v 0.06436195 -0.00237612 0.05771166
v 0.06410957 -0.00237612 0.05612915
v 0.06428834 0.00005867 0.05685729
v 0.06402124 -0.00396072 0.05612915
v 0.06391397 -0.00554531 0.05612915
v 0.06368473 -0.00717953 0.05599676
v 0.06331036 -0.00774191 0.05538023
v 0.06227981 -0.01029249 0.05490840
v 0.06096533 -0.01346168 0.05461515
v 0.06072978 -0.01663087 0.05491918
v 0.05743621 -0.01359400 0.05279095
v 0.05667907 -0.02943997 0.05605372
v 0.05593245 -0.03084261 0.05610221
v 0.05727637 -0.02900991 0.05653170
v 0.05859296 -0.02692578 0.05691194
v 0.05695248 -0.02998581 0.05771166
v 0.05644141 -0.03087570 0.05771166
v 0.05570110 -0.03212286 0.05771166
v 0.05520896 -0.03291681 0.05771166
v 0.05469158 -0.03373392 0.05771166
v 0.05235285 -0.02701841 0.05279095
v 0.05740677 -0.02612522 0.05505542
v 0.05869181 -0.02399478 0.05524784
v 0.05845415 -0.02505007 0.05548491
v 0.05819756 -0.02612522 0.05583974
v 0.05773907 -0.02759072 0.05619458
v 0.04382660 -0.03373392 0.05771628
v 0.05568427 0.00005867 0.05799491
v 0.04394648 -0.03373392 0.05800491
v 0.06381723 -0.00079483 0.05908173
v 0.06379620 -0.00237612 0.05907095
v 0.06375834 -0.00396072 0.05904786
v 0.06441032 0.00005867 0.05771166
v 0.06381302 0.00005867 0.05907865
v 0.06428203 -0.00396072 0.05771166
v 0.06370786 -0.00554531 0.05900014
v 0.06417687 -0.00554531 0.05771166
v 0.06403385 -0.00712660 0.05771166
v 0.06363426 -0.00871120 0.05631311
v 0.06322624 -0.00871120 0.05552032
v 0.06179819 -0.01445081 0.05529248
v 0.06191386 -0.01346168 0.05518627
v 0.06210104 -0.01187708 0.05503156
v 0.06218096 -0.01117907 0.05497614
v 0.06050684 -0.01821216 0.05505850
v 0.05937954 -0.01821216 0.05449354
v 0.05601237 -0.01804014 0.05279095
v 0.05859296 -0.02692578 0.05695889
v 0.05877593 -0.02612522 0.05663100
v 0.06030914 -0.02254912 0.05668257
v 0.06004414 -0.02341255 0.05771166
v 0.05958355 -0.02454062 0.05771166
v 0.05558332 -0.03192768 0.05872689
v 0.05737522 -0.02919516 0.05771166
v 0.05723010 -0.02892059 0.05879309
v 0.05443289 -0.03373392 0.05855371
v 0.05412582 -0.02306188 0.05279095
v 0.05787577 -0.02453069 0.05492457
v 0.05889161 -0.02295933 0.05510391
v 0.06015982 -0.02055432 0.05534867
v 0.05999367 -0.02137804 0.05556342
v 0.05908299 -0.02453069 0.05605911
v 0.05647717 0.00005867 0.05904170
v 0.04425354 -0.03373392 0.05852985
v 0.06294652 -0.00079483 0.05987375
v 0.06294021 -0.00237612 0.05986220
v 0.06341342 0.00005867 0.05944272
v 0.06291287 -0.00396072 0.05983911
v 0.06286870 -0.00554531 0.05979216
v 0.06363636 -0.00712660 0.05892240
v 0.06281402 -0.00712660 0.05971442
v 0.06353751 -0.00871120 0.05880156
v 0.06383195 -0.00871120 0.05771166
v 0.06340291 -0.01139079 0.05678648
v 0.06342393 -0.01117907 0.05674645
v 0.06350386 -0.01029249 0.05657712
v 0.06341342 -0.01029249 0.05861990
v 0.06334402 -0.01110629 0.05850907
v 0.06307271 -0.01029249 0.05578509
v 0.06166989 -0.01550610 0.05544797
v 0.06031966 -0.01949902 0.05520397
v 0.05920077 -0.02137804 0.05493534
v 0.05953307 -0.01993239 0.05484991
v 0.05595558 -0.01821216 0.05279095
v 0.05885375 -0.02622115 0.05757619
v 0.05854038 -0.02681000 0.05801569
v 0.05822280 -0.02755433 0.05757619
v 0.05974970 -0.02302880 0.05614455
v 0.06051736 -0.02137804 0.05635467
v 0.06184867 -0.01773909 0.05673106
v 0.06129132 -0.01979345 0.05771166
v 0.06078235 -0.02137804 0.05771166
v 0.06033648 -0.02262190 0.05771166
v 0.06025446 -0.02239033 0.05862452
v 0.05589669 -0.03087570 0.05904016
v 0.05366943 -0.03300283 0.06000383
v 0.05423098 -0.03373392 0.05897320
v 0.05878224 -0.02575470 0.05876307
v 0.05753296 -0.02770981 0.05909635
v 0.05670010 -0.02770981 0.05988914
v 0.05532884 -0.02995603 0.06005155
v 0.05505753 -0.03087570 0.05983296
v 0.05415947 -0.02298249 0.05279095
v 0.06073398 -0.01993239 0.05597752
v 0.06152267 -0.01663087 0.05567580
v 0.05697351 0.00005867 0.05946889
v 0.04518315 -0.03373392 0.05925953
v 0.05739835 0.00005867 0.05983372
v 0.06215362 -0.00079483 0.06025629
v 0.06214731 -0.00237612 0.06025552
v 0.06293810 0.00005867 0.05986990
v 0.06257426 0.00005867 0.06004616
v 0.06212207 -0.00396072 0.06024398
v 0.06207791 -0.00554531 0.06022935
v 0.06202112 -0.00712660 0.06021319
v 0.06194120 -0.00871120 0.06018086
v 0.06273410 -0.00871120 0.05959358
v 0.06182763 -0.01029249 0.06012467
v 0.06176243 -0.01111952 0.06008927
v 0.06230084 -0.01346168 0.05916178
v 0.06357747 -0.01029249 0.05771166
v 0.06341763 -0.01117907 0.05771166
v 0.06339029 -0.01132793 0.05771166
v 0.06322834 -0.01212188 0.05771166
v 0.06292338 -0.01346168 0.05771166
v 0.06254481 -0.01504627 0.05771166
v 0.06215783 -0.01663087 0.05771166
v 0.06199378 -0.01663087 0.05646705
v 0.06295282 -0.01190355 0.05620843
v 0.06300751 -0.01117907 0.05601754
v 0.06333560 -0.01117907 0.05845365
v 0.06211156 -0.01504627 0.05899013
v 0.06192017 -0.01663087 0.05874229
v 0.06180029 -0.01759354 0.05857295
v 0.06212838 -0.01500658 0.05603756
v 0.05421205 -0.02284686 0.05279095
v 0.05557070 -0.01932700 0.05279095
v 0.06185918 -0.01778872 0.05771166
v 0.06163834 -0.01858267 0.05771166
v 0.06043743 -0.02137804 0.05885851
v 0.05904093 -0.02454062 0.05904709
v 0.05289126 -0.03373392 0.06013160
v 0.05344229 -0.03373392 0.05976830
v 0.05397650 -0.03194753 0.06014853
v 0.05693566 -0.02678353 0.06006156
v 0.05561276 -0.02890074 0.06016932
v 0.04538715 -0.03373392 0.05940808
v 0.05818915 0.00005867 0.06028708
v 0.04591084 -0.03373392 0.05977215
v 0.04616743 -0.03373392 0.05994533
v 0.06096533 -0.00079483 0.06058188
v 0.06096533 -0.00237612 0.06058111
v 0.06214521 0.00005867 0.06025090
v 0.06096533 0.00005867 0.06057649
v 0.06096533 -0.00396072 0.06056263
v 0.06096533 -0.00554531 0.06053492
v 0.06096533 -0.00712660 0.06050183
v 0.06096533 -0.00871120 0.06044795
v 0.06096533 -0.01029249 0.06036713
v 0.06070664 -0.01346168 0.06027399
v 0.06175612 -0.01117576 0.06008696
v 0.06163834 -0.01217812 0.06003770
v 0.06149533 -0.01346168 0.05995303
v 0.06050895 -0.01504627 0.06022473
v 0.06130184 -0.01504627 0.05978138
v 0.06070033 -0.01979345 0.05913099
v 0.05960248 -0.02137804 0.05965131
v 0.05844573 -0.02342578 0.06002461
v 0.05986958 -0.01979345 0.05992147
v 0.05818915 -0.02454062 0.05983988
v 0.05266412 -0.03373392 0.06020472
v 0.05426673 -0.03087570 0.06022473
v 0.05310578 -0.03247022 0.06028169
v 0.05864553 -0.02237379 0.06011621
v 0.05714387 -0.02572824 0.06014622
v 0.05590721 -0.02770981 0.06024552
v 0.05473154 -0.02937380 0.06030863
v 0.05938164 0.00005867 0.06061189
v 0.04689092 -0.03373392 0.06026938
v 0.04705707 -0.03373392 0.06031556
v 0.05938164 -0.00237612 0.06061959
v 0.05938164 -0.00396072 0.06062190
v 0.05938164 -0.00554531 0.06062344
v 0.05938164 -0.00712660 0.06062421
v 0.05938164 -0.01029249 0.06062190
v 0.05937954 -0.01187708 0.06061266
v 0.05937954 -0.01346168 0.06057341
v 0.05937954 -0.01504627 0.06049644
v 0.06021450 -0.01762993 0.06011005
v 0.06005886 -0.01868522 0.06004154
v 0.05937954 -0.01663087 0.06039330
v 0.05907879 -0.01979345 0.06024936
v 0.05179130 -0.03373392 0.06040561
v 0.05305110 -0.03087570 0.06048874
v 0.05880958 -0.02137804 0.06017932
v 0.05739625 -0.02454062 0.06022089
v 0.05463058 -0.02770981 0.06051799
v 0.05621217 -0.02454062 0.06048258
v 0.04828532 -0.03373392 0.06057803
v 0.04861341 -0.03373392 0.06063268
v 0.04988373 -0.03246029 0.06065423
v 0.05305110 -0.02770981 0.06064730
v 0.05779796 -0.01821216 0.06059265
v 0.05779796 -0.01979345 0.06052877
v 0.05779796 -0.02137804 0.06041793
v 0.05146742 -0.03373392 0.06046565
v 0.05146742 -0.03246029 0.06058341
v 0.05786947 -0.02292294 0.06026399
v 0.05305110 -0.02929441 0.06060958
v 0.05621217 -0.02295933 0.06058264
v 0.05463058 -0.02612522 0.06060651
v 0.04988373 -0.03373392 0.06065115
v 0.05146742 -0.03087570 0.06064730
v 0.05019500 -0.03373392 0.06063806
f 1 2 7
f 1 7 14
f 1 14 25
f 1 25 42
f 1 42 66
f 1 66 102
f 1 102 143
f 1 143 189
f 1 189 188
f 1 188 217
f 1 217 239
f 1 239 252
f 1 252 260
f 1 260 258
f 1 258 246
f 1 246 245
f 1 245 226
f 1 226 225
f 1 225 196
f 1 196 195
f 1 195 193
f 1 193 153
f 1 153 110
f 1 110 75
f 1 75 73
f 1 73 43
f 1 43 26
f 1 26 15
f 1 15 8
f 1 8 3
f 1 3 4
f 1 4 5
f 1 5 11
f 1 11 20
f 1 20 35
f 1 35 57
f 1 57 93
f 1 93 130
f 1 130 183
f 1 183 182
f 1 182 149
f 1 149 103
f 1 103 67
f 1 67 38
f 1 38 22
f 1 22 13
f 1 13 6
f 1 6 2
f 2 6 7
f 3 8 4
f 4 9 16
f 4 16 27
f 4 27 44
f 4 44 74
f 4 74 109
f 4 109 152
f 4 152 154
f 4 154 194
f 4 194 224
f 4 224 200
f 4 200 199
f 4 199 158
f 4 158 157
f 4 157 113
f 4 113 80
f 4 80 79
f 4 79 49
f 4 49 45
f 4 45 28
f 4 28 17
f 4 17 10
f 4 10 11
f 4 11 5
f 4 8 9
f 6 12 7
f 6 13 12
f 7 12 14
f 8 15 9
f 9 15 16
f 10 17 18
f 10 18 19
f 10 19 11
f 11 19 20
f 12 21 14
f 12 13 22
f 12 22 23
f 12 23 24
f 12 24 21
f 14 21 25
f 15 26 27
f 15 27 16
f 17 28 29
f 17 29 18
f 18 29 30
f 18 30 19
f 19 30 31
f 19 31 32
f 19 32 33
f 19 33 34
f 19 34 20
f 20 34 35
f 21 24 36
f 21 36 37
f 21 37 25
f 22 38 39
f 22 39 23
f 23 39 24
f 24 39 40
f 24 40 41
f 24 41 36
f 25 37 42
f 26 43 44
f 26 44 27
f 28 45 29
f 29 46 47
f 29 47 48
f 29 48 31
f 29 31 30
f 29 45 49
f 29 49 46
f 31 50 32
f 31 48 50
f 32 50 51
f 32 51 33
f 33 51 52
f 33 52 53
f 33 53 54
f 33 54 34
f 34 54 55
f 34 55 35
f 35 55 56
f 35 56 57
f 36 41 58
f 36 58 59
f 36 59 37
f 37 59 60
f 37 60 61
f 37 61 62
f 37 62 63
f 37 63 64
f 37 64 65
f 37 65 66
f 37 66 42
f 38 67 39
f 39 67 68
f 39 68 40
f 40 68 69
f 40 69 70
f 40 70 41
f 41 70 71
f 41 71 72
f 41 72 60
f 41 60 58
f 43 73 44
f 44 73 75
f 44 75 74
f 46 76 77
f 46 77 78
f 46 78 47
f 46 49 79
f 46 79 80
f 46 80 76
f 47 81 48
f 47 78 82
f 47 82 81
f 48 81 50
f 50 81 83
f 50 83 51
f 51 83 84
f 51 84 85
f 51 85 52
f 52 85 53
f 53 85 86
f 53 86 87
f 53 87 88
f 53 88 89
f 53 89 90
f 53 90 54
f 54 90 56
f 54 56 55
f 56 91 92
f 56 92 57
f 56 90 89
f 56 89 88
f 56 88 91
f 57 92 93
f 58 60 59
f 60 72 61
f 61 94 62
f 61 72 71
f 61 71 95
f 61 95 96
f 61 96 97
f 61 97 98
f 61 98 94
f 62 99 63
f 62 94 100
f 62 100 101
f 62 101 99
f 63 99 64
f 64 99 65
f 65 99 66
f 66 99 102
f 67 103 104
f 67 104 68
f 68 104 105
f 68 105 69
f 69 105 106
f 69 106 70
f 70 106 107
f 70 107 108
f 70 108 95
f 70 95 71
f 74 75 110
f 74 110 109
f 76 111 112
f 76 112 77
f 76 80 113
f 76 113 111
f 77 112 114
f 77 114 78
f 78 114 115
f 78 115 82
f 81 82 116
f 81 116 83
f 82 115 117
f 82 117 116
f 83 116 118
f 83 118 84
f 84 119 120
f 84 120 121
f 84 121 122
f 84 122 85
f 84 118 123
f 84 123 124
f 84 124 119
f 85 122 86
f 86 122 125
f 86 125 87
f 87 126 127
f 87 127 91
f 87 91 88
f 87 125 126
f 91 127 128
f 91 128 129
f 91 129 92
f 92 129 93
f 93 129 130
f 94 98 131
f 94 131 132
f 94 132 133
f 94 133 100
f 95 108 96
f 96 108 134
f 96 134 107
f 96 107 106
f 96 106 135
f 96 135 136
f 96 136 137
f 96 137 138
f 96 138 139
f 96 139 97
f 97 139 140
f 97 140 98
f 98 140 132
f 98 132 131
f 99 101 141
f 99 141 142
f 99 142 143
f 99 143 102
f 100 133 132
f 100 132 101
f 101 132 144
f 101 144 145
f 101 145 146
f 101 146 147
f 101 147 148
f 101 148 141
f 103 149 104
f 104 149 105
f 105 149 128
f 105 128 127
f 105 127 106
f 106 150 135
f 106 127 126
f 106 126 151
f 106 151 150
f 107 134 108
f 109 110 152
f 110 153 154
f 110 154 152
f 111 155 156
f 111 156 112
f 111 113 157
f 111 157 158
f 111 158 155
f 112 156 159
f 112 159 114
f 114 159 160
f 114 160 161
f 114 161 115
f 115 161 162
f 115 162 117
f 116 117 163
f 116 163 118
f 117 162 164
f 117 164 165
f 117 165 163
f 118 163 166
f 118 166 123
f 119 167 120
f 119 124 167
f 120 167 168
f 120 168 169
f 120 169 170
f 120 170 171
f 120 171 172
f 120 172 173
f 120 173 136
f 120 136 174
f 120 174 175
f 120 175 176
f 120 176 125
f 120 125 121
f 121 125 122
f 123 166 124
f 124 177 169
f 124 169 168
f 124 168 167
f 124 166 178
f 124 178 179
f 124 179 180
f 124 180 171
f 124 171 177
f 125 176 126
f 126 176 175
f 126 175 181
f 126 181 174
f 126 174 151
f 128 149 182
f 128 182 183
f 128 183 129
f 129 183 130
f 132 140 144
f 135 150 136
f 136 173 184
f 136 184 185
f 136 185 137
f 136 150 151
f 136 151 174
f 137 185 180
f 137 180 140
f 137 140 138
f 138 140 139
f 140 180 186
f 140 186 187
f 140 187 144
f 141 148 142
f 142 188 189
f 142 189 143
f 142 148 147
f 142 147 190
f 142 190 188
f 144 187 146
f 144 146 145
f 146 187 191
f 146 191 147
f 147 191 192
f 147 192 190
f 153 193 154
f 154 193 195
f 154 195 196
f 154 196 194
f 155 197 198
f 155 198 156
f 155 158 199
f 155 199 200
f 155 200 197
f 156 198 201
f 156 201 159
f 159 201 160
f 160 202 161
f 160 201 202
f 161 202 203
f 161 203 204
f 161 204 162
f 162 204 205
f 162 205 206
f 162 206 164
f 163 165 207
f 163 207 208
f 163 208 209
f 163 209 166
f 164 206 165
f 165 206 210
f 165 210 207
f 166 209 178
f 169 177 170
f 170 177 171
f 171 180 172
f 172 180 173
f 173 180 184
f 174 181 175
f 178 209 211
f 178 211 212
f 178 212 179
f 179 212 180
f 180 212 186
f 180 185 184
f 186 213 214
f 186 214 187
f 186 212 215
f 186 215 213
f 187 214 216
f 187 216 191
f 188 190 217
f 190 192 218
f 190 218 219
f 190 219 217
f 191 216 214
f 191 214 220
f 191 220 221
f 191 221 192
f 192 221 222
f 192 222 223
f 192 223 218
f 194 196 225
f 194 225 226
f 194 226 224
f 197 227 228
f 197 228 229
f 197 229 230
f 197 230 198
f 197 200 224
f 197 224 227
f 198 230 231
f 198 231 232
f 198 232 201
f 201 232 202
f 202 232 203
f 203 232 233
f 203 233 204
f 204 233 234
f 204 234 206
f 204 206 205
f 206 234 210
f 207 210 235
f 207 235 208
f 208 235 209
f 209 235 236
f 209 236 211
f 210 234 237
f 210 237 238
f 210 238 235
f 211 236 212
f 212 236 215
f 213 215 214
f 214 215 236
f 214 236 220
f 217 219 239
f 218 223 219
f 219 223 240
f 219 240 239
f 220 241 242
f 220 242 221
f 220 236 241
f 221 242 222
f 222 243 223
f 222 242 244
f 222 244 243
f 223 243 240
f 224 226 245
f 224 245 246
f 224 246 247
f 224 247 227
f 227 247 228
f 228 247 229
f 229 247 248
f 229 248 230
f 230 248 231
f 231 248 232
f 232 248 249
f 232 249 233
f 233 249 250
f 233 250 234
f 234 250 237
f 235 238 241
f 235 241 236
f 237 250 238
f 238 250 251
f 238 251 241
f 239 240 252
f 240 243 253
f 240 253 252
f 241 251 254
f 241 254 242
f 242 254 244
f 243 255 253
f 243 244 256
f 243 256 257
f 243 257 255
f 244 254 251
f 244 251 250
f 244 250 256
f 246 258 247
f 247 258 248
f 248 258 259
f 248 259 255
f 248 255 257
f 248 257 249
f 249 257 256
f 249 256 250
f 252 253 260
f 253 255 260
f 255 259 260
f 258 260 259

