# https://github.com/mikedh/trimesh
v -0.04000046 -0.00309003 0.19584586
v -0.03639570 -0.00447841 0.19153385
v -0.03639570 -0.00512236 0.19154190
v -0.03639570 -0.00672082 0.19212703
v -0.03639570 -0.00733280 0.19235924
v -0.03639570 -0.00881252 0.19338694
v -0.03639570 -0.00907741 0.19372147
v -0.03506579 -0.01260772 0.19577574
v -0.03506798 -0.01262599 0.19584586
v -0.03920427 -0.00309003 0.19703910
v -0.04000046 -0.00295759 0.19584586
v -0.03639570 0.00512606 0.19149017
v -0.03639570 -0.00307176 0.19151661
v -0.01765444 0.01403633 0.19584586
v -0.03177382 -0.00512236 0.19302138
v -0.03177382 -0.00717296 0.19329498
v -0.03430021 -0.01126958 0.19438361
v -0.03479674 -0.01232457 0.19471354
v -0.03488862 -0.01232457 0.19471354
v -0.03504392 -0.01265796 0.19584586
v -0.02980958 -0.00309003 0.20246734
v -0.03169070 -0.00309003 0.20144997
v -0.03382337 -0.00309003 0.20027627
v -0.03919770 -0.00307176 0.19704830
v -0.03919114 0.00308003 0.19704600
v -0.03999609 -0.00090699 0.19584586
v -0.03996765 0.00513062 0.19584586
v -0.03995890 0.00522196 0.19584586
v -0.03639570 0.00572890 0.19159363
v -0.01765444 0.03298495 0.19672068
v -0.01765444 0.03176098 0.19659997
v -0.01765444 0.02113350 0.19584586
v -0.03998953 0.00114361 0.19584586
v -0.03998078 0.00308003 0.19584586
v -0.01765444 0.01388562 0.19739662
v -0.02298284 -0.00309003 0.19782540
v -0.02316439 -0.00309003 0.19716096
v -0.02352530 -0.00309003 0.19584586
v -0.03007862 -0.00717296 0.19393644
v -0.03014424 -0.00875772 0.19439856
v -0.03007862 -0.01186787 0.19584586
v -0.03084638 -0.01220126 0.19584586
v -0.03226816 -0.01264883 0.19584586
v -0.03395024 -0.01314663 0.19584586
v -0.02877496 -0.00309003 0.20297889
v -0.02979427 -0.00309003 0.20247538
v -0.03382337 -0.00102117 0.20033260
v -0.03293093 0.01199487 0.20098670
v -0.03293093 0.01262969 0.20098670
v -0.03918458 0.00513062 0.19704370
v -0.03910146 0.00673822 0.19696093
v -0.03982985 0.00606230 0.19584586
v -0.03639570 0.00717665 0.19184308
v -0.01852064 0.03282966 0.19677585
v -0.01765444 0.03349645 0.19782540
v -0.01765444 0.01386735 0.19782540
v -0.02316876 -0.00309003 0.19987507
v -0.03007862 -0.00882165 0.19446178
v -0.03007862 -0.00845173 0.19432959
v -0.02408308 -0.00309003 0.20134306
v -0.02562954 -0.00309003 0.20234663
v -0.02564485 -0.00309003 0.20235353
v -0.02695289 -0.00309003 0.20292601
v -0.02797876 -0.00309003 0.20297889
v -0.01765444 0.02333937 0.20323294
v -0.02562735 0.01332844 0.20310649
v -0.02876621 0.00102943 0.20298349
v -0.02972208 0.01332844 0.20250527
v -0.03192037 0.01331931 0.20144652
v -0.03146978 0.01536991 0.20144422
v -0.03249565 0.01536991 0.20067172
v -0.03369651 0.01331931 0.20016131
v -0.03887835 0.00810376 0.19673677
v -0.03958049 0.00732737 0.19594242
v -0.03485580 0.01436973 0.19886461
v -0.03963299 0.00731823 0.19584586
v -0.03639570 0.00820424 0.19244545
v -0.02870715 0.02459988 0.19679654
v -0.02666634 0.02665961 0.19679310
v -0.02462336 0.02871477 0.19678850
v -0.02261099 0.03078820 0.19862320
v -0.01878312 0.03297581 0.19782540
v -0.01765444 0.03351015 0.19803577
v -0.01765444 0.01420988 0.19889105
v -0.01765444 0.01467572 0.19981874
v -0.01765444 0.01484013 0.20007510
v -0.01765444 0.01502281 0.20028661
v -0.01765444 0.01595449 0.20108096
v -0.01765444 0.01650253 0.20135226
v -0.01765444 0.01696837 0.20156493
v -0.01765444 0.01937976 0.20255929
v -0.01765444 0.02051238 0.20294325
v -0.01765444 0.02122484 0.20306050
v -0.01765444 0.02136185 0.20307890
v -0.01765444 0.02356773 0.20323294
v -0.02785189 0.01139659 0.20302027
v -0.01765444 0.02539454 0.20322719
v -0.02562735 0.01536991 0.20309499
v -0.02875527 0.00308003 0.20298004
v -0.02873777 0.01078917 0.20296509
v -0.02865028 0.01215472 0.20294440
v -0.02972208 0.01536991 0.20234778
v -0.02988395 0.01754838 0.20166264
v -0.02938960 0.01947110 0.20137065
v -0.03112199 0.01695467 0.20116488
v -0.03386056 0.01518266 0.19949686
v -0.03179351 0.01754838 0.20040387
v -0.03316935 0.01742050 0.19929684
v -0.03288718 0.01861706 0.19898991
v -0.03953456 0.00751005 0.19584586
v -0.03639570 0.00851479 0.19264548
v -0.03117230 0.02125681 0.19782540
v -0.03048328 0.02227982 0.19782540
v -0.02881870 0.02473232 0.19782540
v -0.02785845 0.02575990 0.19782540
v -0.02683258 0.02682859 0.19782540
v -0.03507891 0.01269819 0.19429165
v -0.02579359 0.02785617 0.19782540
v -0.02476991 0.02883808 0.19782540
v -0.02480272 0.02887005 0.19906923
v -0.02261099 0.03078820 0.19891174
v -0.01882468 0.03300321 0.19910946
v -0.01765444 0.03331377 0.19935432
v -0.02739255 0.01332844 0.20302142
v -0.01765444 0.02561376 0.20321340
v -0.02146044 0.02347182 0.20303751
v -0.02318408 0.02152170 0.20301912
v -0.02152825 0.02152170 0.20314098
v -0.02565579 0.01735200 0.20302717
v -0.02698789 0.01536991 0.20299613
v -0.02674509 0.01662127 0.20296624
v -0.02841842 0.01332844 0.20291221
v -0.02801376 0.01536991 0.20282830
v -0.02752816 0.01735200 0.20271219
v -0.02767690 0.01947110 0.20226501
v -0.02771190 0.02150343 0.20152125
v -0.02900900 0.02080924 0.20108556
v -0.03041329 0.01947110 0.20068666
v -0.03181319 0.01937063 0.19958308
v -0.03115699 0.02117460 0.19930489
v -0.02884714 0.02477799 0.19904738
v -0.03288718 0.01861706 0.19841283
v -0.02687852 0.02687426 0.19910831
v -0.02340719 0.02961904 0.19931753
v -0.02554423 0.02760498 0.19943939
v -0.02149544 0.02768719 0.20155573
v -0.02152825 0.03115813 0.19923477
v -0.01949620 0.03187059 0.19966355
v -0.01765444 0.03179751 0.20046940
v -0.01765444 0.02725332 0.20306050
v -0.01943057 0.02555439 0.20305591
v -0.02271379 0.02272739 0.20297544
v -0.02459930 0.02048955 0.20294900
v -0.02499302 0.01912401 0.20299613
v -0.02378122 0.01967205 0.20306166
v -0.02636012 0.01799138 0.20291336
v -0.02565579 0.01967205 0.20284439
v -0.02562735 0.02152170 0.20249262
v -0.02567329 0.02360883 0.20163965
v -0.02705351 0.02295118 0.20120396
v -0.02931961 0.02356773 0.19938306
v -0.02987738 0.02167241 0.20001647
v -0.02760910 0.02552242 0.19943364
v -0.02502145 0.02499721 0.20123845
v -0.02149544 0.02967385 0.20027512
v -0.02359530 0.02565943 0.20164310
v -0.02292597 0.02701127 0.20119592
v -0.01943057 0.02758671 0.20252941
v -0.01947870 0.02937699 0.20146032
v -0.02078892 0.02896139 0.20109590
v -0.01765444 0.02970582 0.20198452
v -0.01765444 0.02740403 0.20304556
v -0.02073205 0.02482823 0.20298693
v -0.01871531 0.02684685 0.20299498
v -0.02420776 0.02152170 0.20287888
v -0.02209696 0.02409293 0.20286968
v -0.02346843 0.02347182 0.20263977
v -0.02146044 0.02555439 0.20262022
v -0.02008241 0.02619377 0.20286738
v -0.01791474 0.02821240 0.20281680
v -0.01765444 0.02908470 0.20237307
v -0.01765444 0.02832200 0.20284784
f 1 2 3
f 1 3 4
f 1 4 5
f 1 5 6
f 1 6 7
f 1 7 8
f 1 8 9
f 1 9 10
f 1 10 11
f 1 11 12
f 1 12 13
f 1 13 2
f 2 13 14
f 2 14 3
f 3 15 16
f 3 16 4
f 3 14 15
f 4 16 5
f 5 16 17
f 5 17 18
f 5 18 19
f 5 19 6
f 6 19 7
f 7 19 8
f 8 19 20
f 8 20 9
f 9 20 21
f 9 21 22
f 9 22 23
f 9 23 10
f 10 23 24
f 10 24 25
f 10 25 11
f 11 25 26
f 11 26 12
f 12 27 28
f 12 28 29
f 12 29 30
f 12 30 31
f 12 31 32
f 12 32 14
f 12 14 13
f 12 26 33
f 12 33 34
f 12 34 27
f 14 35 36
f 14 36 37
f 14 37 38
f 14 38 15
f 14 32 31
f 14 31 30
f 14 30 55
f 14 55 83
f 14 83 123
f 14 123 149
f 14 149 171
f 14 171 181
f 14 181 182
f 14 182 172
f 14 172 150
f 14 150 125
f 14 125 97
f 14 97 95
f 14 95 65
f 14 65 94
f 14 94 93
f 14 93 92
f 14 92 91
f 14 91 90
f 14 90 89
f 14 89 88
f 14 88 87
f 14 87 86
f 14 86 85
f 14 85 84
f 14 84 56
f 14 56 35
f 15 38 16
f 16 39 40
f 16 40 17
f 16 38 39
f 17 40 18
f 18 40 41
f 18 41 42
f 18 42 43
f 18 43 44
f 18 44 19
f 19 44 20
f 20 44 45
f 20 45 46
f 20 46 21
f 21 47 22
f 21 46 48
f 21 48 47
f 22 47 23
f 23 47 24
f 24 47 48
f 24 48 49
f 24 49 25
f 25 33 26
f 25 49 50
f 25 50 33
f 27 50 51
f 27 51 28
f 27 34 50
f 28 51 52
f 28 52 53
f 28 53 29
f 29 53 30
f 30 54 55
f 30 53 54
f 33 50 34
f 35 56 36
f 36 57 41
f 36 41 37
f 36 56 57
f 37 41 38
f 38 41 58
f 38 58 40
f 38 40 59
f 38 59 39
f 39 59 40
f 40 58 41
f 41 57 60
f 41 60 61
f 41 61 62
f 41 62 63
f 41 63 42
f 42 63 43
f 43 63 44
f 44 63 64
f 44 64 45
f 45 64 65
f 45 65 66
f 45 66 67
f 45 67 48
f 45 48 46
f 48 67 49
f 49 68 69
f 49 69 70
f 49 70 71
f 49 71 72
f 49 72 51
f 49 51 50
f 49 67 68
f 51 73 74
f 51 74 52
f 51 72 75
f 51 75 73
f 52 74 76
f 52 76 53
f 53 76 77
f 53 77 78
f 53 78 79
f 53 79 80
f 53 80 54
f 54 80 81
f 54 81 82
f 54 82 55
f 55 82 83
f 56 84 57
f 57 84 85
f 57 85 86
f 57 86 87
f 57 87 88
f 57 88 60
f 60 88 89
f 60 89 90
f 60 90 91
f 60 91 92
f 60 92 61
f 61 92 62
f 62 92 63
f 63 92 93
f 63 93 94
f 63 94 65
f 63 65 64
f 65 95 66
f 66 96 67
f 66 95 97
f 66 97 98
f 66 98 96
f 67 96 99
f 67 99 100
f 67 100 68
f 68 100 101
f 68 101 102
f 68 102 69
f 69 102 70
f 70 102 103
f 70 103 104
f 70 104 105
f 70 105 71
f 71 106 75
f 71 75 72
f 71 105 107
f 71 107 108
f 71 108 106
f 73 76 74
f 73 75 109
f 73 109 76
f 75 106 108
f 75 108 109
f 76 110 77
f 76 109 110
f 77 110 111
f 77 111 78
f 78 112 113
f 78 113 114
f 78 114 115
f 78 115 116
f 78 116 79
f 78 111 117
f 78 117 110
f 78 110 112
f 79 116 80
f 80 116 118
f 80 118 119
f 80 119 81
f 81 119 120
f 81 120 121
f 81 121 122
f 81 122 82
f 82 122 83
f 83 122 123
f 96 98 124
f 96 124 100
f 96 100 99
f 97 125 126
f 97 126 127
f 97 127 128
f 97 128 98
f 98 128 129
f 98 129 130
f 98 130 124
f 100 124 101
f 101 124 130
f 101 130 131
f 101 131 132
f 101 132 102
f 102 133 134
f 102 134 135
f 102 135 103
f 102 132 133
f 103 135 104
f 104 135 136
f 104 136 137
f 104 137 138
f 104 138 105
f 105 138 107
f 107 138 139
f 107 139 108
f 108 139 109
f 109 139 140
f 109 140 141
f 109 141 112
f 109 112 142
f 109 142 110
f 110 117 111
f 110 142 112
f 112 141 113
f 113 141 114
f 114 141 115
f 115 143 116
f 115 141 143
f 116 143 118
f 118 120 119
f 118 143 120
f 120 144 121
f 120 143 145
f 120 145 146
f 120 146 144
f 121 147 122
f 121 144 147
f 122 147 148
f 122 148 149
f 122 149 123
f 125 150 151
f 125 151 126
f 126 152 127
f 126 151 152
f 127 152 153
f 127 153 154
f 127 154 155
f 127 155 128
f 128 155 129
f 129 154 131
f 129 131 130
f 129 155 154
f 131 154 153
f 131 153 156
f 131 156 133
f 131 133 132
f 133 156 134
f 134 156 157
f 134 157 135
f 135 157 158
f 135 158 136
f 136 158 159
f 136 159 160
f 136 160 137
f 137 140 138
f 137 160 141
f 137 141 161
f 137 161 162
f 137 162 140
f 138 140 139
f 140 162 161
f 140 161 141
f 141 163 143
f 141 160 163
f 143 163 160
f 143 160 159
f 143 159 164
f 143 164 145
f 144 165 147
f 144 146 165
f 145 164 166
f 145 166 167
f 145 167 146
f 146 167 166
f 146 166 168
f 146 168 169
f 146 169 170
f 146 170 165
f 147 165 169
f 147 169 148
f 148 169 171
f 148 171 149
f 150 172 151
f 151 173 152
f 151 172 174
f 151 174 173
f 152 175 153
f 152 173 176
f 152 176 175
f 153 175 157
f 153 157 156
f 157 175 158
f 158 175 177
f 158 177 159
f 159 178 166
f 159 166 164
f 159 177 178
f 165 170 169
f 166 178 168
f 168 178 179
f 168 179 180
f 168 180 169
f 169 180 171
f 171 180 181
f 172 182 174
f 173 174 179
f 173 179 176
f 174 182 179
f 175 176 177
f 176 179 177
f 177 179 178
f 179 182 180
f 180 182 181

