# https://github.com/mikedh/trimesh
v -0.02619584 -0.00027344 0.02398700
v -0.01399166 -0.00027933 0.03314096
v -0.00988380 -0.00027933 0.03314096
v -0.02619584 -0.00027344 0.02127190
v -0.05743470 -0.00027344 0.01576233
v -0.01400361 -0.00063866 0.03314096
v -0.05853331 -0.00027344 0.01534233
v -0.00000225 -0.00992247 0.03314096
v -0.01061223 -0.00027933 0.02777689
v -0.01067791 -0.00027933 0.02759831
v -0.01085703 -0.00027933 0.02712210
v -0.01101227 -0.00027933 0.02695674
v -0.01161531 -0.00027933 0.02634824
v -0.01205715 -0.00027933 0.02592163
v -0.01223627 -0.00027933 0.02581911
v -0.01270796 -0.00027933 0.02555455
v -0.01391404 -0.00027933 0.02502211
v -0.05049671 -0.00027933 0.01118535
v -0.05074151 -0.00027344 0.01255778
v -0.01391404 -0.00178147 0.03314096
v -0.05853331 -0.00061510 0.01534233
v -0.05851539 -0.00182270 0.01533902
v -0.05849151 -0.00303030 0.01533241
v -0.05846763 -0.00424379 0.01531918
v -0.05743470 -0.00545140 0.01569949
v -0.05743470 -0.00666489 0.01566642
v -0.05913635 -0.00027344 0.01501493
v -0.00000225 -0.01383392 0.03314096
v -0.00000225 -0.01072361 0.02795878
v -0.00000225 -0.01099458 0.02735359
v -0.00000225 -0.01128912 0.02695013
v -0.00000225 -0.01163667 0.02651029
v -0.00000225 -0.01190175 0.02617958
v -0.00000225 -0.01209615 0.02594809
v -0.00000225 -0.01265577 0.02564384
v -0.01413496 -0.05052733 0.00032495
v -0.04826963 -0.00112170 0.01135401
v -0.04897417 -0.00092142 0.01121181
v -0.05864675 -0.00027933 0.00932678
v -0.06086190 -0.00027344 0.01255778
v -0.01369910 -0.00303619 0.03314096
v -0.05743470 -0.00786660 0.01561682
v -0.05743470 -0.00908009 0.01554737
v -0.05913635 -0.00061510 0.01501493
v -0.05912441 -0.00182270 0.01500170
v -0.05841986 -0.00545140 0.01529934
v -0.05910053 -0.00303030 0.01498517
v -0.05907067 -0.00424379 0.01496863
v -0.05979910 -0.00027344 0.01440974
v -0.00061723 -0.01383392 0.03314096
v -0.00000225 -0.05862120 0.01536217
v -0.00000225 -0.01392228 0.02508494
v -0.00000225 -0.01476465 0.02482038
v -0.00000225 -0.02732371 0.02097096
v -0.00000225 -0.04170300 0.01658248
v -0.00000225 -0.04253359 0.01634768
v -0.00000225 -0.04896628 0.01460816
v -0.01348415 -0.05139326 0.00077471
v -0.01408720 -0.05139326 0.00030841
v -0.01512610 -0.05139326 -0.00004544
v -0.01512610 -0.05031526 0.00013975
v -0.04403041 -0.02976247 0.00005046
v -0.05290888 -0.00332484 0.00924080
v -0.05997823 -0.00027933 0.00987245
v -0.04403041 -0.03092884 -0.00031662
v -0.06027079 -0.00027933 0.01009733
v -0.06046186 -0.00027933 0.01024945
v -0.06067680 -0.00027933 0.01073559
v -0.06074846 -0.00027933 0.01104645
v -0.06098131 -0.00027933 0.01205841
v -0.06086786 -0.00027933 0.01255778
v -0.06071263 -0.00027344 0.01318282
v -0.01343639 -0.00396104 0.03314096
v -0.05743470 -0.01029358 0.01546469
v -0.05622861 -0.01270879 0.01571934
v -0.05622861 -0.01392228 0.01561020
v -0.05836016 -0.00666489 0.01527288
v -0.05830045 -0.00786660 0.01523981
v -0.05979910 -0.00061510 0.01440974
v -0.05978716 -0.00182270 0.01439651
v -0.05976925 -0.00303030 0.01438328
v -0.05902291 -0.00545140 0.01493556
v -0.05973342 -0.00424379 0.01436344
v -0.05969760 -0.00545140 0.01433037
v -0.06040215 -0.00027344 0.01378801
v -0.00182332 -0.01371021 0.03314096
v -0.00666558 -0.05848571 0.01530595
v -0.00545949 -0.05852695 0.01532910
v -0.00424743 -0.05856818 0.01534233
v -0.00303538 -0.05859174 0.01535225
v -0.00182929 -0.05860942 0.01536217
v -0.00061723 -0.05862120 0.01536217
v -0.00061723 -0.05922794 0.01507446
v -0.00000225 -0.05922205 0.01507446
v -0.00000225 -0.05017977 0.01435683
v -0.00000225 -0.05079241 0.01428738
v -0.00000225 -0.05138737 0.01422124
v -0.00000225 -0.05620600 0.01403604
v -0.00000225 -0.06045322 0.01403604
v -0.01433200 -0.05210015 0.00046384
v -0.01512610 -0.05214728 0.00038448
v -0.01633816 -0.05139326 -0.00010497
v -0.01875631 -0.05018566 -0.00036954
v -0.01754425 -0.05018566 -0.00025048
v -0.05983493 -0.00182270 0.00978646
v -0.03022011 -0.04473673 -0.00064402
v -0.03026787 -0.04473673 -0.00064402
v -0.03026787 -0.04475440 -0.00064402
v -0.04051365 -0.03567677 -0.00026702
v -0.04171973 -0.03447506 -0.00021741
v -0.04403041 -0.03224247 -0.00003883
v -0.05929159 -0.01227876 0.01019984
v -0.05936324 -0.01149529 0.01012378
v -0.05945877 -0.01028180 0.01002126
v -0.05954833 -0.00907420 0.00994189
v -0.05961998 -0.00786660 0.00989229
v -0.05968566 -0.00665900 0.00985922
v -0.05974537 -0.00544551 0.00982945
v -0.05978716 -0.00423790 0.00980961
v -0.05981105 -0.00303030 0.00979638
v -0.06045589 -0.00090964 0.01025937
v -0.06067680 -0.00055030 0.01073890
v -0.06071263 -0.00182270 0.01088771
v -0.06099325 -0.00061510 0.01205841
v -0.06071263 -0.00061510 0.01318612
v -0.06062903 -0.00027344 0.01334817
v -0.01320950 -0.00460313 0.03314096
v -0.05622861 -0.01512988 0.01547792
v -0.05501655 -0.01755097 0.01564658
v -0.05501655 -0.01877036 0.01549115
v -0.05821686 -0.00908009 0.01519351
v -0.05812730 -0.01029358 0.01513729
v -0.05806759 -0.01103582 0.01510422
v -0.05751828 -0.01145995 0.01532249
v -0.05725558 -0.01270879 0.01530595
v -0.05896917 -0.00666489 0.01489257
v -0.05890350 -0.00786660 0.01484296
v -0.06040215 -0.00061510 0.01378801
v -0.06039021 -0.00182270 0.01376817
v -0.06037229 -0.00303030 0.01373179
v -0.05965580 -0.00666489 0.01428738
v -0.06034244 -0.00424379 0.01368218
v -0.00303538 -0.01349225 0.03314096
v -0.01028981 -0.05743716 0.01549115
v -0.00787167 -0.05839735 0.01526958
v -0.00666558 -0.05908657 0.01499509
v -0.00545949 -0.05913369 0.01502155
v -0.00424743 -0.05916904 0.01504139
v -0.00303538 -0.05919260 0.01505792
v -0.00182929 -0.05921027 0.01506784
v -0.00061723 -0.05984647 0.01455525
v -0.00000225 -0.05984647 0.01455525
v -0.00061723 -0.06044733 0.01403604
v -0.01374089 -0.05940467 0.01107291
v -0.01374089 -0.05914547 0.01047102
v -0.01633816 -0.05210015 0.00042085
v -0.01748454 -0.05144039 0.00010999
v -0.01875631 -0.05112229 0.00010007
v -0.01996239 -0.05018566 -0.00027694
v -0.02238054 -0.04897806 -0.00041914
v -0.03022011 -0.04475440 -0.00064402
v -0.02721683 -0.04754072 0.00006369
v -0.02963498 -0.04622708 0.00015960
v -0.03069777 -0.04524922 -0.00008182
v -0.03174264 -0.04494290 0.00022574
v -0.03210089 -0.04421245 -0.00010166
v -0.03325324 -0.04292827 -0.00026040
v -0.03446530 -0.04172067 -0.00028025
v -0.03688344 -0.03930547 -0.00029016
v -0.03808953 -0.03809787 -0.00029016
v -0.03930159 -0.03689027 -0.00028686
v -0.02479869 -0.04876010 0.00003393
v -0.04044797 -0.03681958 0.00014637
v -0.04164808 -0.03559430 0.00019928
v -0.04303330 -0.03336761 -0.00005206
v -0.04264520 -0.03447506 0.00021912
v -0.04403041 -0.03247810 0.00006700
v -0.05688539 -0.02073786 0.01018662
v -0.05807356 -0.01705026 0.01021307
v -0.05816910 -0.01633748 0.01011386
v -0.05919009 -0.01308579 0.01035858
v -0.05948266 -0.01269700 0.01079512
v -0.05973940 -0.01149529 0.01085134
v -0.05994240 -0.01028180 0.01085134
v -0.06019317 -0.00900351 0.01095716
v -0.06022900 -0.00786660 0.01073228
v -0.06028870 -0.00665900 0.01057354
v -0.06034841 -0.00544551 0.01045118
v -0.06039021 -0.00423790 0.01037181
v -0.06041409 -0.00303030 0.01032221
v -0.06043797 -0.00182270 0.01028252
v -0.06069471 -0.00303030 0.01092740
v -0.06067083 -0.00423790 0.01098031
v -0.06092160 -0.00303030 0.01205841
v -0.06065889 -0.00424379 0.01307699
v -0.06068277 -0.00303030 0.01312990
v -0.06070069 -0.00182270 0.01316297
v -0.01282140 -0.00548085 0.03314096
v -0.05381046 -0.02117378 0.01560359
v -0.05259840 -0.02358898 0.01566312
v -0.05628234 -0.01626679 0.01530265
v -0.05709436 -0.01392228 0.01523650
v -0.05693912 -0.01512988 0.01515383
v -0.05595993 -0.01755097 0.01526296
v -0.05576289 -0.01877036 0.01517036
v -0.05505834 -0.01990138 0.01529272
v -0.05470607 -0.02117378 0.01523650
v -0.05390599 -0.02245796 0.01536217
v -0.05797803 -0.01184285 0.01504800
v -0.05881990 -0.00908009 0.01477352
v -0.05873034 -0.01029358 0.01467761
v -0.05959610 -0.00786660 0.01424108
v -0.05951848 -0.00908009 0.01416832
v -0.06030662 -0.00545140 0.01361935
v -0.00373992 -0.01333320 0.03314096
v -0.01271393 -0.05735469 0.01531587
v -0.01028981 -0.05821474 0.01518028
v -0.00908373 -0.05830899 0.01522658
v -0.00787167 -0.05900410 0.01494548
v -0.00787167 -0.05972277 0.01434360
v -0.00666558 -0.05977578 0.01438659
v -0.00545949 -0.05982880 0.01441635
v -0.00433699 -0.05997018 0.01434029
v -0.00303538 -0.05984647 0.01449903
v -0.00182929 -0.05984647 0.01453210
v -0.00303538 -0.06037075 0.01403604
v -0.01374089 -0.05945179 0.01126141
v -0.01466039 -0.05929864 0.01135401
v -0.01392001 -0.05912191 0.01052063
v -0.01709644 -0.05809692 0.01018992
v -0.01704271 -0.05203535 0.00051014
v -0.01996239 -0.05094557 0.00029188
v -0.02238054 -0.04988523 0.00009345
v -0.02574206 -0.04853626 0.00025550
v -0.02804676 -0.04729920 0.00029849
v -0.03033952 -0.04601502 0.00041424
v -0.03497281 -0.04951412 0.01036189
v -0.03632816 -0.04841255 0.01020315
v -0.03386823 -0.04354091 0.00055644
v -0.03325324 -0.04378243 0.00026542
v -0.03434588 -0.04285169 0.00023566
v -0.03559974 -0.04165587 0.00014306
v -0.03681776 -0.04045416 0.00012983
v -0.03802385 -0.03924656 0.00012653
v -0.03924188 -0.03803307 0.00012983
v -0.02327018 -0.04969673 0.00032164
v -0.04000613 -0.03759126 0.00040101
v -0.04120028 -0.03637777 0.00041754
v -0.04237652 -0.03513483 0.00047707
v -0.04381546 -0.03303183 0.00020920
v -0.04403041 -0.03288456 0.00039440
v -0.05317756 -0.02899078 0.01028913
v -0.05441351 -0.02661093 0.01024945
v -0.05560765 -0.02415449 0.01027591
v -0.05674806 -0.02153900 0.01039496
v -0.05794818 -0.01785729 0.01042803
v -0.05824074 -0.01749796 0.01083811
v -0.05927368 -0.01460560 0.01140031
v -0.05935727 -0.01391639 0.01119527
v -0.06046782 -0.00854403 0.01143338
v -0.06050962 -0.00786660 0.01133747
v -0.06058127 -0.00665900 0.01117874
v -0.06063501 -0.00544551 0.01105637
v -0.06086786 -0.00423790 0.01205841
v -0.06062306 -0.00545140 0.01301085
v -0.01233180 -0.00646460 0.03314096
v -0.05139232 -0.02601007 0.01567634
v -0.05271782 -0.02492029 0.01538532
v -0.05685553 -0.01581910 0.01509761
v -0.05565542 -0.01945368 0.01510422
v -0.05453292 -0.02209862 0.01515383
v -0.05437768 -0.02290565 0.01506784
v -0.05360149 -0.02358898 0.01527619
v -0.05785862 -0.01270879 0.01497194
v -0.05853928 -0.01145995 0.01464454
v -0.05870646 -0.01260864 0.01427415
v -0.05942295 -0.01029358 0.01407242
v -0.06026482 -0.00666489 0.01351683
v -0.00437282 -0.01310936 0.03314096
v -0.01875034 -0.05501607 0.01552091
v -0.01512013 -0.05622367 0.01549776
v -0.01391404 -0.05719564 0.01525965
v -0.01128692 -0.05812049 0.01513068
v -0.01028981 -0.05882148 0.01482643
v -0.00908373 -0.05891573 0.01488926
v -0.00908373 -0.05964619 0.01428407
v -0.00666558 -0.06009977 0.01403604
v -0.00545949 -0.06021759 0.01403604
v -0.00463553 -0.06028828 0.01403604
v -0.00409219 -0.06031773 0.01403604
v -0.01374089 -0.05958139 0.01205841
v -0.01474995 -0.05932219 0.01205841
v -0.01633219 -0.05887450 0.01205841
v -0.01754425 -0.05852695 0.01205841
v -0.01846971 -0.05814405 0.01120850
v -0.01751440 -0.05826775 0.01082157
v -0.01790249 -0.05796732 0.01040158
v -0.02073859 -0.05690110 0.01017339
v -0.02067291 -0.05083364 0.00048700
v -0.02662573 -0.05442110 0.01023953
v -0.02897223 -0.05317815 0.01029906
v -0.02414191 -0.05560514 0.01028583
v -0.03128887 -0.05190576 0.01040158
v -0.03276961 -0.05086899 0.01016677
v -0.03357566 -0.05059801 0.01062646
v -0.03387419 -0.05079830 0.01143338
v -0.03525343 -0.04971440 0.01116881
v -0.03565944 -0.04922547 0.01079842
v -0.03655505 -0.04858338 0.01084803
v -0.03716407 -0.04811212 0.01084803
v -0.03844777 -0.04695164 0.01063307
v -0.03764173 -0.04728742 0.01013370
v -0.03514596 -0.04239811 0.00042416
v -0.03637593 -0.04120818 0.00039440
v -0.03880005 -0.03880475 0.00039109
v -0.02155061 -0.05674205 0.01042142
v -0.04344528 -0.04222727 0.01037181
v -0.04463345 -0.04099611 0.01041150
v -0.04579774 -0.03972960 0.01048094
v -0.04729042 -0.03765017 0.01013040
v -0.04841292 -0.03633065 0.01020646
v -0.04951154 -0.03498167 0.01034866
v -0.05086689 -0.03277853 0.01016347
v -0.05191774 -0.03129995 0.01037843
v -0.05212075 -0.03163573 0.01118535
v -0.05336863 -0.02933834 0.01109275
v -0.05459860 -0.02696437 0.01105637
v -0.05486728 -0.02612789 0.01073228
v -0.05579274 -0.02456684 0.01107952
v -0.05547630 -0.02489672 0.01074882
v -0.05694510 -0.02205739 0.01119858
v -0.05708242 -0.02115021 0.01081827
v -0.05813327 -0.01846404 0.01123496
v -0.05817507 -0.01859952 0.01205841
v -0.05847360 -0.01754508 0.01205841
v -0.05880796 -0.01633748 0.01205841
v -0.05927965 -0.01461738 0.01205841
v -0.05945877 -0.01391639 0.01205841
v -0.05975731 -0.01270879 0.01205841
v -0.06000211 -0.01149529 0.01205841
v -0.06021705 -0.01028180 0.01205841
v -0.06039618 -0.00919201 0.01205841
v -0.06047379 -0.00858527 0.01205841
v -0.06055739 -0.00786660 0.01205841
v -0.06068874 -0.00665900 0.01205841
v -0.06079621 -0.00544551 0.01205841
v -0.06070666 -0.00544551 0.01255778
v -0.06056933 -0.00666489 0.01291164
v -0.01198550 -0.00705957 0.03314096
v -0.05018623 -0.02842527 0.01565981
v -0.04897417 -0.03082870 0.01559697
v -0.05243719 -0.02601007 0.01528942
v -0.05150576 -0.02732371 0.01539194
v -0.05672418 -0.01662024 0.01501824
v -0.05769741 -0.01392228 0.01484958
v -0.05754217 -0.01512988 0.01470407
v -0.05656297 -0.01755097 0.01491572
v -0.05636594 -0.01877036 0.01475698
v -0.05548824 -0.02026071 0.01501162
v -0.05421050 -0.02358898 0.01496202
v -0.05320145 -0.02540333 0.01508438
v -0.05530911 -0.02117378 0.01488926
v -0.05496879 -0.02245796 0.01477021
v -0.05508223 -0.02358309 0.01431053
v -0.05841389 -0.01392228 0.01424438
v -0.05931548 -0.01150118 0.01395667
v -0.05926174 -0.01214917 0.01388722
v -0.06019915 -0.00786660 0.01337793
v -0.06016332 -0.00900351 0.01316297
v -0.06050962 -0.00786660 0.01277605
v -0.00539978 -0.01270289 0.03314096
v -0.02238054 -0.05380257 0.01546469
v -0.02116848 -0.05476277 0.01527619
v -0.01875034 -0.05582310 0.01519682
v -0.01754425 -0.05601160 0.01528280
v -0.01512013 -0.05700714 0.01518359
v -0.01271393 -0.05795555 0.01504469
v -0.01209297 -0.05803213 0.01508438
v -0.01028981 -0.05956372 0.01422124
v -0.01160934 -0.05857407 0.01479666
v -0.01150187 -0.05945768 0.01412202
v -0.00787167 -0.05995839 0.01403604
v -0.01374089 -0.05939289 0.01322912
v -0.01381254 -0.05938110 0.01322581
v -0.01468427 -0.05929864 0.01279589
v -0.01845180 -0.05814405 0.01287526
v -0.01861898 -0.05819707 0.01205841
v -0.01922202 -0.05800267 0.01205841
v -0.01996239 -0.05776115 0.01205841
v -0.02201036 -0.05692467 0.01122834
v -0.02115654 -0.05707782 0.01083480
v -0.01996239 -0.05749607 0.01084803
v -0.02688844 -0.05455659 0.01084803
v -0.02749148 -0.05423260 0.01084803
v -0.02931853 -0.05336666 0.01110598
v -0.02453000 -0.05578775 0.01108944
v -0.03086495 -0.05235934 0.01082157
v -0.02239845 -0.05658890 0.01083480
v -0.02368216 -0.05601749 0.01075212
v -0.03162920 -0.05210604 0.01120850
v -0.03203521 -0.05166424 0.01082157
v -0.03320548 -0.05099858 0.01095716
v -0.03172473 -0.05216495 0.01205841
v -0.03232181 -0.05179973 0.01205841
v -0.03325324 -0.05120476 0.01205841
v -0.03387419 -0.05080419 0.01205841
v -0.03534300 -0.04978509 0.01205841
v -0.03675806 -0.04873065 0.01205841
v -0.03870451 -0.04716960 0.01143669
v -0.03998225 -0.04602091 0.01131433
v -0.03972551 -0.04579706 0.01050740
v -0.04099131 -0.04462480 0.01041811
v -0.04223919 -0.04344666 0.01037512
v -0.04369007 -0.04248058 0.01117543
v -0.04454389 -0.04114338 0.01048425
v -0.04603657 -0.04000647 0.01128456
v -0.04695606 -0.03845131 0.01061323
v -0.04811439 -0.03716713 0.01085134
v -0.04858607 -0.03655449 0.01085134
v -0.04972648 -0.03525853 0.01115559
v -0.05080719 -0.03388010 0.01140692
v -0.05059821 -0.03357967 0.01060331
v -0.05168488 -0.03204808 0.01081165
v -0.05216254 -0.03170052 0.01205841
v -0.05267005 -0.03082870 0.01205841
v -0.05344625 -0.02946794 0.01205841
v -0.05102213 -0.03320266 0.01094393
v -0.05400750 -0.02842527 0.01205841
v -0.05525538 -0.02601007 0.01205841
v -0.05558974 -0.02533853 0.01205841
v -0.05586439 -0.02473178 0.01205841
v -0.05699286 -0.02216342 0.01205841
v -0.05735708 -0.02116789 0.01205841
v -0.05775711 -0.01996028 0.01205841
v -0.05637191 -0.02358898 0.01205841
v -0.05673612 -0.02276428 0.01205841
v -0.05799594 -0.01920038 0.01205841
v -0.05812730 -0.01844047 0.01284219
v -0.05926174 -0.01457615 0.01269337
v -0.05926771 -0.01458204 0.01255778
v -0.06046782 -0.00856171 0.01269006
v -0.06047379 -0.00856171 0.01255778
v -0.01147202 -0.00784304 0.03314096
v -0.05120722 -0.02842527 0.01528280
v -0.05026982 -0.02969767 0.01536879
v -0.04991157 -0.03082870 0.01523981
v -0.04899805 -0.03201273 0.01530595
v -0.04787556 -0.03336172 0.01539524
v -0.04655603 -0.03446328 0.01559036
v -0.05218642 -0.02701739 0.01517698
v -0.05730931 -0.01755097 0.01431383
v -0.05825269 -0.01512988 0.01409887
v -0.05711824 -0.01877036 0.01415509
v -0.05610919 -0.02117378 0.01428407
v -0.05378658 -0.02492029 0.01482312
v -0.05304024 -0.02601007 0.01498847
v -0.05198939 -0.02781264 0.01508107
v -0.05587036 -0.02239316 0.01409887
v -0.05472398 -0.02480247 0.01415179
v -0.05570318 -0.02317663 0.01395667
v -0.05915427 -0.01295620 0.01371856
v -0.05802580 -0.01687354 0.01384754
v -0.05812730 -0.01607240 0.01397321
v -0.05990658 -0.01029358 0.01327211
v -0.05969163 -0.01150118 0.01327211
v -0.05945280 -0.01260864 0.01329856
v -0.00642078 -0.01226698 0.03314096
v -0.02479869 -0.05259497 0.01552753
v -0.02479869 -0.05340200 0.01520674
v -0.02238054 -0.05454481 0.01516706
v -0.01953250 -0.05568761 0.01512737
v -0.01591424 -0.05688343 0.01512076
v -0.01391404 -0.05779649 0.01495210
v -0.01028981 -0.05966975 0.01403604
v -0.01271393 -0.05863887 0.01453871
v -0.01271393 -0.05925740 0.01403604
v -0.01223627 -0.05937521 0.01403604
v -0.01150187 -0.05950481 0.01403604
v -0.01374089 -0.05936343 0.01332833
v -0.01414690 -0.05913958 0.01359951
v -0.01781890 -0.05793198 0.01368218
v -0.02108489 -0.05704248 0.01325557
v -0.02198647 -0.05692467 0.01284550
v -0.02116848 -0.05733113 0.01205841
v -0.02211186 -0.05697179 0.01205841
v -0.02271490 -0.05672438 0.01205841
v -0.02470913 -0.05586434 0.01205841
v -0.02774225 -0.05437987 0.01205841
v -0.02842889 -0.05401464 0.01205841
v -0.02947377 -0.05345502 0.01205841
v -0.02530620 -0.05558747 0.01205841
v -0.02618987 -0.05515156 0.01205841
v -0.03007681 -0.05311925 0.01205841
v -0.03083509 -0.05268333 0.01205841
v -0.03162920 -0.05210604 0.01286534
v -0.03386823 -0.05079830 0.01267353
v -0.03736110 -0.04827706 0.01205841
v -0.03808953 -0.04767621 0.01205841
v -0.03869854 -0.04716371 0.01266691
v -0.04002405 -0.04605036 0.01205841
v -0.04062709 -0.04552020 0.01205841
v -0.04130178 -0.04491345 0.01205841
v -0.04124207 -0.04486043 0.01122503
v -0.04247205 -0.04367640 0.01117874
v -0.04376172 -0.04256305 0.01205841
v -0.04486631 -0.04124941 0.01121842
v -0.04454389 -0.04147326 0.01102000
v -0.04437074 -0.04191506 0.01205841
v -0.04454389 -0.04172656 0.01205841
v -0.04492005 -0.04131421 0.01205841
v -0.04552906 -0.04064267 0.01205841
v -0.04606642 -0.04004181 0.01205841
v -0.04717698 -0.03871639 0.01142015
v -0.04745164 -0.03806841 0.01095055
v -0.04872340 -0.03674300 0.01205841
v -0.04932644 -0.03593597 0.01205841
v -0.04977425 -0.03533511 0.01205841
v -0.05080719 -0.03388010 0.01169794
v -0.05179833 -0.03231316 0.01205841
v -0.05209089 -0.03158860 0.01283557
v -0.05336266 -0.02930888 0.01293809
v -0.05462845 -0.02703506 0.01255778
v -0.05458069 -0.02695259 0.01296786
v -0.05577483 -0.02454917 0.01293809
v -0.05581663 -0.02462575 0.01255778
v -0.05693315 -0.02201026 0.01285211
v -0.05695704 -0.02206328 0.01255778
v -0.05708242 -0.02117378 0.01310014
v -0.05776906 -0.01881159 0.01325557
v -0.05791833 -0.01755097 0.01368218
v -0.05825269 -0.01755097 0.01307699
v -0.05935130 -0.01392228 0.01287195
v -0.01097645 -0.00857349 0.03314096
v -0.05095048 -0.02933834 0.01517036
v -0.04967275 -0.03158860 0.01513729
v -0.04860995 -0.03302594 0.01520013
v -0.05073554 -0.03014537 0.01505792
v -0.04751731 -0.03446328 0.01524312
v -0.04655603 -0.03563554 0.01528942
v -0.04540367 -0.03691383 0.01535225
v -0.04534397 -0.03566499 0.01568627
v -0.05695704 -0.01974822 0.01400297
v -0.05682568 -0.02055525 0.01387069
v -0.05388211 -0.02603953 0.01435021
v -0.05259243 -0.02732371 0.01482974
v -0.05181027 -0.02842527 0.01497194
v -0.05452695 -0.02565074 0.01398643
v -0.05671223 -0.02117378 0.01370864
v -0.05552406 -0.02398366 0.01374502
v -0.00699994 -0.01194888 0.03314096
v -0.02722280 -0.05139326 0.01552091
v -0.02550920 -0.05326063 0.01512737
v -0.02301344 -0.05442699 0.01509761
v -0.01875034 -0.05642395 0.01480989
v -0.01754425 -0.05661835 0.01496202
v -0.02116848 -0.05536951 0.01492233
v -0.01512013 -0.05761388 0.01480989
v -0.01381254 -0.05868600 0.01425761
v -0.01351998 -0.05903355 0.01403604
v -0.01701285 -0.05806747 0.01390045
v -0.02062515 -0.05685398 0.01389714
v -0.02143119 -0.05670082 0.01365242
v -0.02402846 -0.05555212 0.01376155
v -0.02454194 -0.05578186 0.01295132
v -0.02696009 -0.05459193 0.01298439
v -0.02932450 -0.05337844 0.01297447
v -0.03082315 -0.05234167 0.01326880
v -0.03122319 -0.05185863 0.01367226
v -0.03203521 -0.05161122 0.01326880
v -0.03315771 -0.05097502 0.01315305
v -0.03438171 -0.05012675 0.01318612
v -0.03524746 -0.04971440 0.01289180
v -0.03659685 -0.04860694 0.01304061
v -0.03695509 -0.04811801 0.01337132
v -0.03837015 -0.04689863 0.01347384
v -0.03998225 -0.04601502 0.01277605
v -0.04123611 -0.04484865 0.01284550
v -0.04314674 -0.04316390 0.01205841
v -0.04368411 -0.04248058 0.01289841
v -0.04485437 -0.04124352 0.01285542
v -0.04601866 -0.03998879 0.01278597
v -0.04667544 -0.03932314 0.01205841
v -0.04717101 -0.03870461 0.01255778
v -0.04717698 -0.03871639 0.01205841
v -0.04767255 -0.03809198 0.01205841
v -0.04716504 -0.03869283 0.01267684
v -0.04968469 -0.03521730 0.01285542
v -0.05077136 -0.03383886 0.01250487
v -0.05112363 -0.03336761 0.01208487
v -0.05104601 -0.03302594 0.01305053
v -0.05143411 -0.03211288 0.01334817
v -0.05182818 -0.03117036 0.01364250
v -0.05229987 -0.03079924 0.01325227
v -0.05290888 -0.02968000 0.01331510
v -0.05310591 -0.02884941 0.01374832
v -0.05481354 -0.02603953 0.01333163
v -0.05433589 -0.02646366 0.01377147
v -0.00981215 -0.00980465 0.03314096
v -0.04422744 -0.03818034 0.01540186
v -0.04293179 -0.03929369 0.01552091
v -0.04171973 -0.04050718 0.01555398
v -0.04834724 -0.03383297 0.01507777
v -0.05136246 -0.02969767 0.01478674
v -0.05141620 -0.03079924 0.01427415
v -0.05051462 -0.03082870 0.01491903
v -0.04941004 -0.03239563 0.01499509
v -0.04725460 -0.03519373 0.01513399
v -0.04615002 -0.03654860 0.01517698
v -0.04503946 -0.03782689 0.01521335
v -0.05353581 -0.02721767 0.01416502
v -0.05266408 -0.02843706 0.01433698
v -0.05331489 -0.02803649 0.01398313
v -0.00781793 -0.01141282 0.03314096
v -0.03084106 -0.04897217 0.01562012
v -0.02974842 -0.05029169 0.01538532
v -0.02835724 -0.05138737 0.01528280
v -0.02722280 -0.05219440 0.01520343
v -0.02352095 -0.05498661 0.01446596
v -0.02790944 -0.05204124 0.01511414
v -0.02806467 -0.05331953 0.01406250
v -0.02619584 -0.05377901 0.01444281
v -0.02571221 -0.05453302 0.01402943
v -0.02292388 -0.05579364 0.01402943
v -0.02238054 -0.05515156 0.01473714
v -0.01994448 -0.05614709 0.01468422
v -0.01993851 -0.05696001 0.01402943
v -0.01875034 -0.05716029 0.01420801
v -0.01512013 -0.05836201 0.01420470
v -0.01633219 -0.05817350 0.01401620
v -0.02079830 -0.05663013 0.01403604
v -0.02321644 -0.05572885 0.01397321
v -0.02488825 -0.05541075 0.01331841
v -0.02570027 -0.05455659 0.01400958
v -0.02650034 -0.05435630 0.01379132
v -0.02606448 -0.05483934 0.01333825
v -0.02847665 -0.05362585 0.01333163
v -0.02891849 -0.05314281 0.01378140
v -0.03268602 -0.05081597 0.01389384
v -0.03041714 -0.05210604 0.01397651
v -0.03488922 -0.04944932 0.01369541
v -0.03625054 -0.04834775 0.01384754
v -0.03757008 -0.04722262 0.01393021
v -0.03966580 -0.04573816 0.01358297
v -0.04093160 -0.04457179 0.01365242
v -0.04217351 -0.04338775 0.01369210
v -0.04246608 -0.04366462 0.01288518
v -0.04338557 -0.04216837 0.01370533
v -0.04454389 -0.04098433 0.01363589
v -0.04454389 -0.04144381 0.01303731
v -0.04573206 -0.03965302 0.01358959
v -0.04645452 -0.03918176 0.01313321
v -0.04689039 -0.03836884 0.01348376
v -0.04738596 -0.03801540 0.01315636
v -0.04859204 -0.03657217 0.01301416
v -0.04831739 -0.03620694 0.01381777
v -0.04941600 -0.03483440 0.01365903
v -0.04994740 -0.03444561 0.01326219
v -0.05077136 -0.03262537 0.01385746
v -0.05207895 -0.03036333 0.01395336
v -0.00852845 -0.01093567 0.03314096
v -0.04050767 -0.04171478 0.01554737
v -0.03930159 -0.04292827 0.01552091
v -0.04380352 -0.03929369 0.01520343
v -0.04283029 -0.04038936 0.01520343
v -0.04236457 -0.04114927 0.01510753
v -0.04161823 -0.04161464 0.01521005
v -0.04040617 -0.04282813 0.01520343
v -0.04812633 -0.03446328 0.01493556
v -0.04695606 -0.03600076 0.01497194
v -0.04899805 -0.03336172 0.01484958
v -0.05228792 -0.02963288 0.01412864
v -0.05102810 -0.03181834 0.01408565
v -0.05022205 -0.03211288 0.01453871
v -0.04584551 -0.03734974 0.01503477
v -0.04469913 -0.03863392 0.01506454
v -0.03325921 -0.04776457 0.01549115
v -0.03204715 -0.04900163 0.01533902
v -0.03084106 -0.04995003 0.01526627
v -0.02941406 -0.05098091 0.01519351
v -0.02325227 -0.05564638 0.01402943
v -0.03021414 -0.05075706 0.01507446
v -0.02974842 -0.05138737 0.01481981
v -0.03005890 -0.05221208 0.01406250
v -0.02841695 -0.05258319 0.01448580
v -0.02814230 -0.05327830 0.01406250
v -0.02811244 -0.05335488 0.01401289
v -0.02238054 -0.05588789 0.01413194
v -0.03205312 -0.05098680 0.01406250
v -0.03204715 -0.05013854 0.01469084
v -0.03315771 -0.05015621 0.01415840
v -0.03403541 -0.04969673 0.01406250
v -0.03408317 -0.04973207 0.01400628
v -0.03082912 -0.05142272 0.01430391
v -0.03544450 -0.04863640 0.01408895
v -0.03688344 -0.04749359 0.01412202
v -0.03710436 -0.04740523 0.01406250
v -0.03412497 -0.04963193 0.01406250
v -0.03780891 -0.04685150 0.01406250
v -0.03854331 -0.04625065 0.01406250
v -0.03885976 -0.04608571 0.01398643
v -0.04136746 -0.04377065 0.01404596
v -0.04011958 -0.04493702 0.01401950
v -0.04258549 -0.04257483 0.01406250
v -0.04377367 -0.04134366 0.01405919
v -0.04492601 -0.04011839 0.01402943
v -0.04608434 -0.03884599 0.01399305
v -0.04721280 -0.03755003 0.01392691
v -0.04808453 -0.03693150 0.01335809
v -0.04860995 -0.03540580 0.01408565
v -0.04969663 -0.03402737 0.01398313
v -0.03567735 -0.04534937 0.01568296
v -0.03446530 -0.04655697 0.01560359
v -0.03930159 -0.04380010 0.01521005
v -0.03691330 -0.04539060 0.01535887
v -0.04354081 -0.03990043 0.01509099
v -0.04317062 -0.04070746 0.01485950
v -0.04287805 -0.04166176 0.01445934
v -0.04195856 -0.04195630 0.01486942
v -0.03993449 -0.04354680 0.01509761
v -0.04778600 -0.03570034 0.01453210
v -0.04899805 -0.03444561 0.01430060
v -0.04655603 -0.03691383 0.01477682
v -0.04995934 -0.03324390 0.01419147
v -0.04651423 -0.03801540 0.01418816
v -0.04540367 -0.03818034 0.01486611
v -0.04440656 -0.03929369 0.01488265
v -0.03563556 -0.04654519 0.01530265
v -0.03434588 -0.04770566 0.01522658
v -0.03164114 -0.04969673 0.01516375
v -0.03325921 -0.04855393 0.01518690
v -0.03084106 -0.05056267 0.01493887
v -0.03325921 -0.04916656 0.01481651
v -0.03386225 -0.04837132 0.01508438
v -0.03466830 -0.04807678 0.01489588
v -0.03691330 -0.04654519 0.01475367
v -0.03802385 -0.04651573 0.01417824
v -0.03897917 -0.04587953 0.01406250
v -0.04015540 -0.04484865 0.01406250
v -0.04043005 -0.04405929 0.01443950
v -0.04074053 -0.04315801 0.01485619
v -0.04405429 -0.04041293 0.01444281
v -0.04453792 -0.03929369 0.01479336
v -0.04533202 -0.03927012 0.01426753
v -0.04746357 -0.03688438 0.01413525
v -0.03782085 -0.04501359 0.01521997
v -0.03653117 -0.04613283 0.01519021
v -0.03817312 -0.04539060 0.01484958
v -0.03733722 -0.04582063 0.01501162
v -0.03521164 -0.04726975 0.01514721
f 1 2 3
f 1 3 4
f 1 4 19
f 1 19 40
f 1 40 72
f 1 72 126
f 1 126 85
f 1 85 49
f 1 49 27
f 1 27 7
f 1 7 5
f 1 5 2
f 2 6 20
f 2 20 41
f 2 41 73
f 2 73 127
f 2 127 198
f 2 198 266
f 2 266 349
f 2 349 443
f 2 443 533
f 2 533 598
f 2 598 660
f 2 660 613
f 2 613 550
f 2 550 467
f 2 467 371
f 2 371 279
f 2 279 215
f 2 215 143
f 2 143 86
f 2 86 50
f 2 50 28
f 2 28 8
f 2 8 3
f 2 5 7
f 2 7 6
f 3 8 9
f 3 9 4
f 4 9 10
f 4 10 11
f 4 11 12
f 4 12 13
f 4 13 14
f 4 14 15
f 4 15 16
f 4 16 17
f 4 17 18
f 4 18 19
f 6 7 21
f 6 21 22
f 6 22 23
f 6 23 24
f 6 24 25
f 6 25 26
f 6 26 20
f 7 27 44
f 7 44 21
f 8 28 51
f 8 51 94
f 8 94 152
f 8 152 99
f 8 99 98
f 8 98 97
f 8 97 96
f 8 96 95
f 8 95 57
f 8 57 56
f 8 56 55
f 8 55 54
f 8 54 53
f 8 53 52
f 8 52 35
f 8 35 34
f 8 34 33
f 8 33 32
f 8 32 31
f 8 31 30
f 8 30 29
f 8 29 9
f 9 29 10
f 10 29 11
f 11 29 30
f 11 30 31
f 11 31 32
f 11 32 33
f 11 33 34
f 11 34 12
f 12 34 13
f 13 34 14
f 14 34 15
f 15 34 16
f 16 34 35
f 16 35 36
f 16 36 17
f 17 36 37
f 17 37 38
f 17 38 18
f 18 38 39
f 18 39 19
f 19 39 40
f 20 26 42
f 20 42 43
f 20 43 41
f 21 44 22
f 22 44 45
f 22 45 23
f 23 45 24
f 24 46 26
f 24 26 25
f 24 45 47
f 24 47 48
f 24 48 46
f 26 46 42
f 27 49 79
f 27 79 44
f 28 50 92
f 28 92 51
f 35 52 36
f 36 52 53
f 36 53 54
f 36 54 55
f 36 55 56
f 36 56 57
f 36 57 58
f 36 58 59
f 36 59 60
f 36 60 61
f 36 61 62
f 36 62 38
f 36 38 37
f 38 63 39
f 38 62 63
f 39 64 40
f 39 63 62
f 39 62 65
f 39 65 64
f 40 64 66
f 40 66 67
f 40 67 68
f 40 68 69
f 40 69 70
f 40 70 71
f 40 71 72
f 41 43 74
f 41 74 75
f 41 75 76
f 41 76 73
f 42 46 77
f 42 77 78
f 42 78 43
f 43 78 74
f 44 79 80
f 44 80 45
f 45 80 81
f 45 81 47
f 46 48 82
f 46 82 77
f 47 81 48
f 48 81 83
f 48 83 84
f 48 84 82
f 49 85 138
f 49 138 79
f 50 86 87
f 50 87 88
f 50 88 89
f 50 89 90
f 50 90 91
f 50 91 92
f 51 92 93
f 51 93 94
f 57 95 58
f 58 95 96
f 58 96 97
f 58 97 98
f 58 98 99
f 58 99 59
f 59 100 60
f 59 99 100
f 60 101 102
f 60 102 103
f 60 103 104
f 60 104 61
f 60 100 101
f 61 104 65
f 61 65 62
f 64 105 66
f 64 65 105
f 65 104 103
f 65 103 106
f 65 106 107
f 65 107 108
f 65 108 109
f 65 109 110
f 65 110 111
f 65 111 112
f 65 112 113
f 65 113 114
f 65 114 115
f 65 115 116
f 65 116 117
f 65 117 118
f 65 118 119
f 65 119 120
f 65 120 105
f 66 105 121
f 66 121 67
f 67 121 122
f 67 122 68
f 68 122 123
f 68 123 124
f 68 124 69
f 69 124 70
f 70 124 71
f 71 124 72
f 72 124 125
f 72 125 126
f 73 76 128
f 73 128 129
f 73 129 130
f 73 130 127
f 74 78 131
f 74 131 132
f 74 132 133
f 74 133 134
f 74 134 76
f 74 76 75
f 76 134 135
f 76 135 128
f 77 82 78
f 78 82 136
f 78 136 137
f 78 137 131
f 79 138 80
f 80 138 81
f 81 138 139
f 81 139 140
f 81 140 83
f 82 84 141
f 82 141 136
f 83 140 84
f 84 140 142
f 84 142 141
f 85 126 125
f 85 125 138
f 86 143 144
f 86 144 145
f 86 145 87
f 87 145 146
f 87 146 147
f 87 147 88
f 88 147 148
f 88 148 89
f 89 148 149
f 89 149 90
f 90 149 150
f 90 150 91
f 91 150 93
f 91 93 92
f 93 151 152
f 93 152 94
f 93 150 151
f 99 152 151
f 99 151 153
f 99 153 154
f 99 154 155
f 99 155 101
f 99 101 100
f 101 156 102
f 101 155 156
f 102 156 157
f 102 157 158
f 102 158 159
f 102 159 103
f 103 159 160
f 103 160 108
f 103 108 161
f 103 161 106
f 105 120 121
f 106 161 108
f 106 108 107
f 108 162 163
f 108 163 164
f 108 164 165
f 108 165 166
f 108 166 167
f 108 167 168
f 108 168 169
f 108 169 170
f 108 170 171
f 108 171 109
f 108 160 172
f 108 172 162
f 109 171 173
f 109 173 110
f 110 173 174
f 110 174 175
f 110 175 111
f 111 175 174
f 111 174 176
f 111 176 177
f 111 177 178
f 111 178 179
f 111 179 180
f 111 180 112
f 112 180 179
f 112 179 181
f 112 181 182
f 112 182 183
f 112 183 184
f 112 184 185
f 112 185 113
f 113 185 186
f 113 186 187
f 113 187 114
f 114 187 115
f 115 187 188
f 115 188 116
f 116 188 189
f 116 189 117
f 117 189 118
f 118 189 190
f 118 190 191
f 118 191 119
f 119 191 121
f 119 121 120
f 121 191 192
f 121 192 123
f 121 123 122
f 123 192 124
f 124 192 193
f 124 193 194
f 124 194 195
f 124 195 196
f 124 196 197
f 124 197 125
f 125 197 139
f 125 139 138
f 127 130 199
f 127 199 200
f 127 200 198
f 128 201 130
f 128 130 129
f 128 135 202
f 128 202 203
f 128 203 201
f 130 201 204
f 130 204 205
f 130 205 206
f 130 206 207
f 130 207 208
f 130 208 199
f 131 137 132
f 132 137 133
f 133 209 202
f 133 202 135
f 133 135 134
f 133 137 210
f 133 210 211
f 133 211 209
f 136 141 212
f 136 212 137
f 137 212 213
f 137 213 210
f 139 197 196
f 139 196 140
f 140 196 195
f 140 195 142
f 141 142 214
f 141 214 212
f 142 195 214
f 143 215 216
f 143 216 144
f 144 216 217
f 144 217 218
f 144 218 145
f 145 218 146
f 146 218 219
f 146 219 220
f 146 220 221
f 146 221 222
f 146 222 147
f 147 222 223
f 147 223 148
f 148 223 224
f 148 224 149
f 149 224 225
f 149 225 150
f 150 225 151
f 151 225 153
f 153 225 224
f 153 224 226
f 153 226 227
f 153 227 154
f 154 227 228
f 154 228 155
f 155 228 229
f 155 229 230
f 155 230 231
f 155 231 156
f 156 231 158
f 156 158 157
f 158 232 233
f 158 233 159
f 158 231 232
f 159 233 160
f 160 233 172
f 162 234 235
f 162 235 163
f 162 172 234
f 163 236 165
f 163 165 164
f 163 235 236
f 165 237 238
f 165 238 239
f 165 239 240
f 165 240 166
f 165 236 237
f 166 240 241
f 166 241 242
f 166 242 167
f 167 242 168
f 168 242 243
f 168 243 169
f 169 243 244
f 169 244 170
f 170 244 245
f 170 245 171
f 171 245 173
f 172 233 246
f 172 246 234
f 173 245 247
f 173 247 248
f 173 248 174
f 174 248 249
f 174 249 176
f 176 249 250
f 176 250 177
f 177 250 251
f 177 251 252
f 177 252 253
f 177 253 254
f 177 254 255
f 177 255 178
f 178 255 256
f 178 256 179
f 179 256 257
f 179 257 258
f 179 258 181
f 181 258 259
f 181 259 182
f 182 259 183
f 183 259 260
f 183 260 184
f 184 260 185
f 185 260 261
f 185 261 186
f 186 261 262
f 186 262 187
f 187 262 188
f 188 262 263
f 188 263 189
f 189 263 193
f 189 193 192
f 189 192 190
f 190 192 191
f 193 263 194
f 194 264 265
f 194 265 195
f 194 263 264
f 195 265 214
f 198 200 267
f 198 267 266
f 199 208 200
f 200 208 268
f 200 268 267
f 201 203 269
f 201 269 204
f 202 209 203
f 203 209 269
f 204 269 205
f 205 269 270
f 205 270 206
f 206 270 207
f 207 271 208
f 207 270 271
f 208 271 272
f 208 272 273
f 208 273 268
f 209 274 269
f 209 211 275
f 209 275 276
f 209 276 274
f 210 213 211
f 211 213 277
f 211 277 275
f 212 214 278
f 212 278 213
f 213 278 277
f 214 265 278
f 215 279 280
f 215 280 281
f 215 281 282
f 215 282 216
f 216 283 217
f 216 282 283
f 217 283 284
f 217 284 285
f 217 285 219
f 217 219 218
f 219 285 286
f 219 286 220
f 220 286 287
f 220 287 288
f 220 288 289
f 220 289 221
f 221 289 222
f 222 289 290
f 222 290 223
f 223 290 226
f 223 226 224
f 226 290 291
f 226 291 227
f 227 291 228
f 228 291 292
f 228 292 293
f 228 293 294
f 228 294 295
f 228 295 296
f 228 296 230
f 228 230 229
f 230 296 297
f 230 297 298
f 230 298 231
f 231 298 232
f 232 298 299
f 232 299 233
f 233 299 246
f 234 300 301
f 234 301 235
f 234 246 302
f 234 302 300
f 235 301 303
f 235 303 236
f 236 303 304
f 236 304 237
f 237 304 305
f 237 305 306
f 237 306 307
f 237 307 308
f 237 308 309
f 237 309 238
f 238 309 310
f 238 310 311
f 238 311 312
f 238 312 239
f 239 313 240
f 239 312 313
f 240 313 241
f 241 313 242
f 242 314 243
f 242 313 314
f 243 314 315
f 243 315 244
f 244 315 245
f 245 315 247
f 246 299 316
f 246 316 302
f 247 317 248
f 247 315 317
f 248 317 318
f 248 318 249
f 249 318 319
f 249 319 320
f 249 320 321
f 249 321 250
f 250 321 322
f 250 322 323
f 250 323 324
f 250 324 251
f 251 324 252
f 252 324 325
f 252 325 326
f 252 326 253
f 253 326 327
f 253 327 328
f 253 328 329
f 253 329 330
f 253 330 254
f 254 330 329
f 254 329 331
f 254 331 255
f 255 331 332
f 255 332 256
f 256 332 333
f 256 333 257
f 257 333 258
f 258 333 334
f 258 334 335
f 258 335 336
f 258 336 337
f 258 337 338
f 258 338 339
f 258 339 340
f 258 340 260
f 258 260 259
f 260 340 341
f 260 341 342
f 260 342 343
f 260 343 344
f 260 344 345
f 260 345 346
f 260 346 261
f 261 346 262
f 262 346 263
f 263 346 264
f 264 346 347
f 264 347 265
f 265 347 348
f 265 348 278
f 266 267 350
f 266 350 351
f 266 351 349
f 267 268 352
f 267 352 353
f 267 353 350
f 268 273 352
f 269 354 270
f 269 274 355
f 269 355 356
f 269 356 354
f 270 354 357
f 270 357 358
f 270 358 359
f 270 359 272
f 270 272 271
f 272 360 361
f 272 361 273
f 272 359 362
f 272 362 363
f 272 363 364
f 272 364 360
f 273 361 352
f 274 276 365
f 274 365 355
f 275 277 366
f 275 366 367
f 275 367 276
f 276 367 365
f 277 278 368
f 277 368 369
f 277 369 366
f 278 348 370
f 278 370 368
f 279 371 372
f 279 372 280
f 280 372 373
f 280 373 374
f 280 374 375
f 280 375 281
f 281 375 282
f 282 375 376
f 282 376 377
f 282 377 378
f 282 378 283
f 283 378 284
f 284 379 285
f 284 378 377
f 284 377 380
f 284 380 381
f 284 381 379
f 285 379 286
f 286 379 287
f 287 379 382
f 287 382 291
f 287 291 288
f 288 291 289
f 289 291 290
f 291 382 383
f 291 383 384
f 291 384 385
f 291 385 292
f 292 385 293
f 293 385 294
f 294 385 386
f 294 386 387
f 294 387 295
f 295 297 296
f 295 387 388
f 295 388 389
f 295 389 390
f 295 390 391
f 295 391 392
f 295 392 297
f 297 392 298
f 298 392 316
f 298 316 299
f 300 393 394
f 300 394 395
f 300 395 301
f 300 302 396
f 300 396 393
f 301 395 397
f 301 397 303
f 302 316 398
f 302 398 399
f 302 399 396
f 303 397 400
f 303 400 401
f 303 401 304
f 304 401 305
f 305 402 306
f 305 401 402
f 306 402 400
f 306 400 403
f 306 403 404
f 306 404 405
f 306 405 406
f 306 406 407
f 306 407 408
f 306 408 409
f 306 409 307
f 307 409 309
f 307 309 308
f 309 409 310
f 310 409 311
f 311 409 410
f 311 410 411
f 311 411 312
f 312 411 313
f 313 411 412
f 313 412 413
f 313 413 314
f 314 413 315
f 315 413 317
f 316 390 398
f 316 392 391
f 316 391 390
f 317 413 414
f 317 414 415
f 317 415 318
f 318 415 416
f 318 416 319
f 319 416 417
f 319 417 320
f 320 417 321
f 321 417 418
f 321 418 419
f 321 419 322
f 322 419 420
f 322 420 421
f 322 421 422
f 322 422 323
f 323 422 423
f 323 423 324
f 324 423 325
f 325 424 425
f 325 425 426
f 325 426 326
f 325 423 427
f 325 427 421
f 325 421 424
f 326 426 428
f 326 428 327
f 327 429 430
f 327 430 329
f 327 329 328
f 327 428 429
f 329 430 431
f 329 431 331
f 331 432 433
f 331 433 434
f 331 434 333
f 331 333 332
f 331 431 435
f 331 435 436
f 331 436 432
f 333 434 437
f 333 437 334
f 334 437 438
f 334 438 439
f 334 439 335
f 335 439 440
f 335 440 336
f 336 440 337
f 337 440 338
f 338 440 339
f 339 440 439
f 339 439 340
f 340 439 441
f 340 441 341
f 341 441 342
f 342 441 442
f 342 442 343
f 343 442 344
f 344 442 345
f 345 442 441
f 345 441 346
f 346 370 348
f 346 348 347
f 346 441 370
f 349 351 443
f 350 353 444
f 350 444 445
f 350 445 351
f 351 445 446
f 351 446 447
f 351 447 448
f 351 448 449
f 351 449 443
f 352 450 444
f 352 444 353
f 352 361 450
f 354 356 451
f 354 451 357
f 355 365 356
f 356 365 452
f 356 452 451
f 357 451 453
f 357 453 358
f 358 454 359
f 358 453 454
f 359 454 362
f 360 455 361
f 360 364 455
f 361 455 456
f 361 456 457
f 361 457 450
f 362 454 363
f 363 454 458
f 363 458 364
f 364 459 455
f 364 458 460
f 364 460 459
f 365 367 452
f 366 369 367
f 367 461 462
f 367 462 463
f 367 463 452
f 367 369 464
f 367 464 465
f 367 465 466
f 367 466 461
f 368 370 441
f 368 441 369
f 369 441 464
f 371 467 372
f 372 468 469
f 372 469 470
f 372 470 373
f 372 467 468
f 373 471 374
f 373 470 471
f 374 471 472
f 374 472 376
f 374 376 375
f 376 473 377
f 376 472 473
f 377 473 380
f 379 474 382
f 379 381 474
f 380 473 475
f 380 475 381
f 381 475 476
f 381 476 477
f 381 477 478
f 381 478 474
f 382 474 383
f 383 479 384
f 383 474 478
f 383 478 479
f 384 479 385
f 385 479 480
f 385 480 386
f 386 480 481
f 386 481 482
f 386 482 483
f 386 483 389
f 386 389 388
f 386 388 387
f 389 483 484
f 389 484 390
f 390 484 485
f 390 485 486
f 390 486 487
f 390 487 396
f 390 396 399
f 390 399 398
f 393 488 395
f 393 395 394
f 393 396 488
f 395 488 489
f 395 489 490
f 395 490 400
f 395 400 397
f 396 487 491
f 396 491 492
f 396 492 488
f 400 490 493
f 400 493 494
f 400 494 403
f 400 402 401
f 403 494 495
f 403 495 496
f 403 496 404
f 404 496 405
f 405 496 406
f 406 496 407
f 407 496 408
f 408 496 497
f 408 497 409
f 409 497 498
f 409 498 499
f 409 499 500
f 409 500 501
f 409 501 410
f 410 501 502
f 410 502 503
f 410 503 411
f 411 503 412
f 412 503 413
f 413 503 504
f 413 504 414
f 414 504 505
f 414 505 506
f 414 506 507
f 414 507 415
f 415 507 506
f 415 506 416
f 416 506 508
f 416 508 509
f 416 509 510
f 416 510 511
f 416 511 512
f 416 512 513
f 416 513 417
f 417 513 514
f 417 514 418
f 418 514 513
f 418 513 420
f 418 420 419
f 420 513 421
f 421 427 422
f 421 513 515
f 421 515 516
f 421 516 517
f 421 517 518
f 421 518 519
f 421 519 424
f 422 427 423
f 424 519 520
f 424 520 425
f 425 520 426
f 426 520 521
f 426 521 428
f 428 521 522
f 428 522 429
f 429 522 523
f 429 523 430
f 430 523 524
f 430 524 525
f 430 525 431
f 431 525 526
f 431 526 435
f 432 436 527
f 432 527 433
f 433 527 526
f 433 526 438
f 433 438 434
f 434 438 437
f 435 526 436
f 436 526 527
f 438 526 528
f 438 528 529
f 438 529 530
f 438 530 462
f 438 462 531
f 438 531 532
f 438 532 439
f 439 532 441
f 441 532 465
f 441 465 464
f 443 449 533
f 444 534 445
f 444 450 457
f 444 457 534
f 445 534 446
f 446 535 536
f 446 536 447
f 446 534 537
f 446 537 535
f 447 536 448
f 448 538 449
f 448 536 538
f 449 538 539
f 449 539 540
f 449 540 541
f 449 541 533
f 451 452 463
f 451 463 462
f 451 462 453
f 453 462 542
f 453 542 454
f 454 542 543
f 454 543 458
f 455 459 544
f 455 544 456
f 456 544 545
f 456 545 457
f 457 545 546
f 457 546 537
f 457 537 534
f 458 543 460
f 459 460 547
f 459 547 544
f 460 543 548
f 460 548 549
f 460 549 547
f 461 466 532
f 461 532 462
f 462 532 531
f 462 530 543
f 462 543 542
f 465 532 466
f 467 550 551
f 467 551 468
f 468 552 469
f 468 551 552
f 469 552 553
f 469 553 470
f 470 553 471
f 471 554 555
f 471 555 472
f 471 553 556
f 471 556 554
f 472 555 473
f 473 555 557
f 473 557 558
f 473 558 475
f 475 558 476
f 476 558 559
f 476 559 480
f 476 480 477
f 477 480 479
f 477 479 478
f 480 560 481
f 480 559 560
f 481 560 561
f 481 561 482
f 482 561 562
f 482 562 483
f 483 562 563
f 483 563 564
f 483 564 487
f 483 487 486
f 483 486 485
f 483 485 484
f 487 564 491
f 488 492 565
f 488 565 566
f 488 566 489
f 489 566 490
f 490 566 493
f 491 564 565
f 491 565 492
f 493 566 495
f 493 495 494
f 495 566 567
f 495 567 568
f 495 568 569
f 495 569 570
f 495 570 496
f 496 570 571
f 496 571 572
f 496 572 499
f 496 499 497
f 497 499 498
f 499 572 573
f 499 573 574
f 499 574 575
f 499 575 576
f 499 576 501
f 499 501 500
f 501 576 502
f 502 576 577
f 502 577 578
f 502 578 503
f 503 578 504
f 504 578 505
f 505 578 579
f 505 579 508
f 505 508 506
f 508 579 580
f 508 580 581
f 508 581 509
f 509 581 510
f 510 581 511
f 511 581 512
f 512 582 513
f 512 581 583
f 512 583 582
f 513 582 584
f 513 584 585
f 513 585 515
f 515 585 583
f 515 583 586
f 515 586 516
f 516 586 517
f 517 586 587
f 517 587 588
f 517 588 518
f 518 588 589
f 518 589 519
f 519 589 588
f 519 588 520
f 520 588 590
f 520 590 591
f 520 591 592
f 520 592 593
f 520 593 521
f 521 593 594
f 521 594 595
f 521 595 523
f 521 523 522
f 523 596 524
f 523 595 597
f 523 597 596
f 524 596 597
f 524 597 549
f 524 549 526
f 524 526 525
f 526 549 548
f 526 548 528
f 528 548 543
f 528 543 529
f 529 543 530
f 533 541 599
f 533 599 600
f 533 600 601
f 533 601 598
f 535 537 602
f 535 602 536
f 536 602 538
f 537 546 603
f 537 603 604
f 537 604 605
f 537 605 606
f 537 606 602
f 538 607 539
f 538 602 607
f 539 608 540
f 539 607 608
f 540 608 609
f 540 609 599
f 540 599 541
f 544 610 545
f 544 547 610
f 545 611 546
f 545 610 611
f 546 611 603
f 547 549 597
f 547 597 612
f 547 612 610
f 550 613 614
f 550 614 551
f 551 614 615
f 551 615 616
f 551 616 617
f 551 617 552
f 552 618 553
f 552 617 619
f 552 619 620
f 552 620 621
f 552 621 622
f 552 622 618
f 553 623 624
f 553 624 556
f 553 618 623
f 554 556 625
f 554 625 626
f 554 626 627
f 554 627 628
f 554 628 557
f 554 557 555
f 556 624 625
f 557 628 558
f 558 628 559
f 559 628 629
f 559 629 560
f 560 629 626
f 560 626 561
f 561 626 630
f 561 630 623
f 561 623 631
f 561 631 563
f 561 563 562
f 563 632 564
f 563 631 622
f 563 622 633
f 563 633 634
f 563 634 635
f 563 635 632
f 564 632 635
f 564 635 565
f 565 635 636
f 565 636 566
f 566 636 637
f 566 637 567
f 567 637 568
f 568 638 569
f 568 637 639
f 568 639 638
f 569 638 570
f 570 638 571
f 571 638 640
f 571 640 572
f 572 641 573
f 572 640 641
f 573 641 574
f 574 641 642
f 574 642 575
f 575 642 643
f 575 643 576
f 576 644 577
f 576 643 644
f 577 644 645
f 577 645 646
f 577 646 578
f 578 646 579
f 579 646 645
f 579 645 647
f 579 647 648
f 579 648 649
f 579 649 580
f 580 649 648
f 580 648 581
f 581 648 650
f 581 650 651
f 581 651 586
f 581 586 583
f 582 583 584
f 583 585 584
f 586 651 652
f 586 652 653
f 586 653 654
f 586 654 587
f 587 654 655
f 587 655 656
f 587 656 657
f 587 657 590
f 587 590 588
f 590 657 658
f 590 658 591
f 591 658 592
f 592 659 595
f 592 595 594
f 592 594 593
f 592 658 659
f 595 612 597
f 595 659 612
f 598 601 661
f 598 661 662
f 598 662 660
f 599 609 663
f 599 663 600
f 600 663 664
f 600 664 601
f 601 664 665
f 601 665 666
f 601 666 667
f 601 667 661
f 602 668 669
f 602 669 607
f 602 606 670
f 602 670 668
f 603 611 671
f 603 671 604
f 604 671 659
f 604 659 672
f 604 672 673
f 604 673 605
f 605 673 670
f 605 670 606
f 607 669 674
f 607 674 608
f 608 674 609
f 609 675 663
f 609 674 675
f 610 612 671
f 610 671 611
f 612 659 671
f 613 660 676
f 613 676 614
f 614 676 677
f 614 677 678
f 614 678 615
f 615 678 616
f 616 678 679
f 616 679 619
f 616 619 617
f 618 680 623
f 618 622 680
f 619 679 681
f 619 681 682
f 619 682 683
f 619 683 684
f 619 684 685
f 619 685 620
f 620 685 686
f 620 686 622
f 620 622 621
f 622 686 634
f 622 634 633
f 622 631 680
f 623 687 624
f 623 680 631
f 623 630 687
f 624 687 630
f 624 630 625
f 625 630 626
f 626 629 627
f 627 629 628
f 634 686 637
f 634 637 635
f 635 637 636
f 637 686 639
f 638 688 689
f 638 689 690
f 638 690 691
f 638 691 692
f 638 692 640
f 638 639 688
f 639 686 683
f 639 683 693
f 639 693 688
f 640 692 641
f 641 694 695
f 641 695 696
f 641 696 642
f 641 692 697
f 641 697 694
f 642 698 699
f 642 699 700
f 642 700 643
f 642 696 698
f 643 700 644
f 644 701 645
f 644 700 702
f 644 702 701
f 645 703 647
f 645 701 703
f 647 704 648
f 647 703 704
f 648 705 706
f 648 706 650
f 648 704 705
f 650 706 652
f 650 652 651
f 652 706 707
f 652 707 708
f 652 708 653
f 653 708 654
f 654 708 655
f 655 708 707
f 655 707 709
f 655 709 710
f 655 710 656
f 656 710 658
f 656 658 657
f 658 672 659
f 658 710 672
f 660 662 711
f 660 711 712
f 660 712 676
f 661 667 662
f 662 713 714
f 662 714 711
f 662 667 713
f 663 715 664
f 663 675 715
f 664 715 665
f 665 715 716
f 665 716 717
f 665 717 718
f 665 718 719
f 665 719 667
f 665 667 666
f 667 719 713
f 668 720 669
f 668 670 721
f 668 721 709
f 668 709 720
f 669 722 674
f 669 720 722
f 670 673 672
f 670 672 723
f 670 723 721
f 672 710 723
f 674 722 724
f 674 724 725
f 674 725 675
f 675 725 726
f 675 726 715
f 676 712 727
f 676 727 728
f 676 728 677
f 677 729 678
f 677 728 730
f 677 730 729
f 678 729 679
f 679 729 681
f 681 729 731
f 681 731 682
f 682 731 693
f 682 693 683
f 683 686 685
f 683 685 684
f 688 693 731
f 688 731 689
f 689 731 732
f 689 732 690
f 690 732 691
f 691 732 733
f 691 733 734
f 691 734 697
f 691 697 692
f 694 697 734
f 694 734 695
f 695 735 736
f 695 736 698
f 695 698 696
f 695 734 735
f 698 736 699
f 699 737 700
f 699 736 719
f 699 719 737
f 700 737 738
f 700 738 702
f 701 702 738
f 701 738 739
f 701 739 740
f 701 740 703
f 703 740 718
f 703 718 717
f 703 717 704
f 704 717 716
f 704 716 741
f 704 741 705
f 705 741 726
f 705 726 742
f 705 742 743
f 705 743 706
f 706 743 724
f 706 724 707
f 707 744 709
f 707 724 744
f 709 721 710
f 709 744 720
f 710 721 723
f 711 714 712
f 712 714 727
f 713 745 714
f 713 719 745
f 714 746 727
f 714 745 746
f 715 726 716
f 716 726 741
f 718 740 719
f 719 740 739
f 719 739 738
f 719 738 737
f 719 736 747
f 719 747 748
f 719 748 746
f 719 746 745
f 720 744 722
f 722 744 724
f 724 743 725
f 725 743 742
f 725 742 726
f 727 746 749
f 727 749 728
f 728 749 733
f 728 733 730
f 729 730 733
f 729 733 731
f 731 733 732
f 733 749 734
f 734 749 735
f 735 748 736
f 735 749 748
f 736 748 747
f 746 748 749

