# https://github.com/mikedh/trimesh
v -0.02988331 0.02850454 0.00515609
v -0.02939837 0.02848783 0.00515609
v -0.03059678 0.02849898 0.00453783
v -0.03180077 0.02843771 0.00453783
v -0.03299919 0.02825948 0.00453783
v -0.03419760 0.02803669 0.00453783
v -0.03550192 0.02773035 0.00453783
v -0.03652197 0.02746858 0.00453783
v -0.03779842 0.02711212 0.00453783
v -0.03899683 0.02675009 0.00453783
v -0.03947062 0.02659970 0.00453783
v -0.03984965 0.02647717 0.00453783
v -0.04045165 0.02626552 0.00453783
v -0.04139923 0.02589792 0.00453783
v -0.04267011 0.02538551 0.00453783
v -0.05077474 0.01896920 0.00545086
v -0.04728540 0.01896920 0.00545086
v -0.02819995 0.02841543 0.00515609
v -0.02939837 0.02834859 0.00268307
v -0.03059678 0.02839315 0.00268365
v -0.03180077 0.02835973 0.00268365
v -0.03299919 0.02821492 0.00268365
v -0.03419760 0.02801441 0.00268365
v -0.03540159 0.02775820 0.00268365
v -0.03606490 0.02760782 0.00268365
v -0.03666689 0.02746301 0.00268365
v -0.03779842 0.02717895 0.00268365
v -0.03899683 0.02682249 0.00268365
v -0.03995556 0.02651059 0.00268365
v -0.04055755 0.02630451 0.00268365
v -0.04139923 0.02597589 0.00268365
v -0.04323309 0.02520728 0.00342614
v -0.04369016 0.02487866 0.00453783
v -0.04992191 0.01991605 0.00268365
v -0.05050718 0.01932009 0.00268365
v -0.05114820 0.01853476 0.00545086
v -0.04475479 0.02423257 0.00453783
v -0.04535121 0.02382042 0.00453783
v -0.04585287 0.02346953 0.00453783
v -0.04623191 0.02318547 0.00453783
v -0.04703457 0.02255609 0.00453783
v -0.04732999 0.02229989 0.00453783
v -0.04806576 0.02165937 0.00453783
v -0.04901334 0.02075708 0.00453783
v -0.04929205 0.02048416 0.00453783
v -0.04813265 0.02172064 0.00268365
v -0.02579755 0.02812023 0.00515609
v -0.02587001 0.02813137 0.00515609
v -0.02706843 0.02831517 0.00515609
v -0.05572447 0.00006003 0.00545086
v -0.00104333 -0.00001795 0.00515609
v -0.00103775 0.00059472 0.00515609
v -0.00114366 0.00183119 0.00515609
v -0.00128858 0.00292843 0.00515609
v -0.00149482 0.00419832 0.00515609
v -0.00171221 0.00539581 0.00515609
v -0.00196861 0.00659887 0.00515609
v -0.00228076 0.00784091 0.00515609
v -0.00258733 0.00889359 0.00515609
v -0.00302210 0.01013563 0.00515609
v -0.00304440 0.01019690 0.00515609
v -0.00344573 0.01116603 0.00515609
v -0.00346245 0.01120502 0.00515609
v -0.00370771 0.01176199 0.00515609
v -0.00412019 0.01259188 0.00515609
v -0.00458283 0.01343847 0.00515609
v -0.00463857 0.01353873 0.00515609
v -0.00498416 0.01410684 0.00515609
v -0.00549697 0.01494787 0.00515609
v -0.00597076 0.01571649 0.00515609
v -0.00638881 0.01627903 0.00515609
v -0.00695179 0.01702537 0.00515609
v -0.00746460 0.01767146 0.00515609
v -0.00802200 0.01835653 0.00515609
v -0.00858498 0.01899705 0.00515609
v -0.00922041 0.01964870 0.00515609
v -0.00978896 0.02021124 0.00515609
v -0.01039096 0.02079606 0.00515609
v -0.01103197 0.02139202 0.00515609
v -0.01159495 0.02187659 0.00515609
v -0.01235859 0.02250597 0.00515609
v -0.01296058 0.02297939 0.00515609
v -0.01390259 0.02361990 0.00515609
v -0.01391931 0.02363104 0.00515609
v -0.01488919 0.02421587 0.00515609
v -0.01493936 0.02424371 0.00515609
v -0.01524036 0.02440523 0.00515609
v -0.01640533 0.02502347 0.00515609
v -0.01715224 0.02538551 0.00515609
v -0.01731389 0.02546348 0.00515609
v -0.01860149 0.02604830 0.00515609
v -0.01931496 0.02635463 0.00515609
v -0.01991139 0.02657185 0.00515609
v -0.02099832 0.02695059 0.00515609
v -0.02220231 0.02730705 0.00515609
v -0.02308300 0.02752984 0.00515609
v -0.02367942 0.02766909 0.00515609
v -0.02375189 0.02768580 0.00515609
v -0.02459914 0.02786960 0.00515609
v -0.02699597 0.02817593 0.00268307
v -0.02819995 0.02827618 0.00268307
v -0.02819995 0.02805340 0.00148523
v -0.02939837 0.02812023 0.00148523
v -0.02988331 0.02823163 0.00197456
v -0.03059678 0.02816479 0.00148582
v -0.03180077 0.02815365 0.00148582
v -0.03299919 0.02803669 0.00148582
v -0.03540159 0.02768023 0.00178118
v -0.03605932 0.02760225 0.00203200
v -0.03988310 0.02648274 0.00179348
v -0.04317735 0.02517943 0.00222890
v -0.04270913 0.02541892 0.00264908
v -0.04323309 0.02520728 0.00302648
v -0.04478824 0.02423814 0.00268365
v -0.04476594 0.02423814 0.00388324
v -0.05049046 0.01930338 0.00179700
v -0.05108130 0.01859046 0.00268365
v -0.05160527 0.01800007 0.00545086
v -0.04539023 0.02385383 0.00268365
v -0.04681718 0.02280673 0.00237247
v -0.04810478 0.02169836 0.00182220
v -0.04681718 0.02280673 0.00202555
v -0.02579755 0.02801441 0.00268307
v -0.02459914 0.02778605 0.00268307
v -0.05798194 0.00006003 0.00545086
v -0.02988888 -0.02838449 0.00522641
v -0.00804430 -0.01840914 0.00502775
v -0.00744788 -0.01770179 0.00502775
v -0.00696851 -0.01710026 0.00502775
v -0.00693507 -0.01705570 0.00502775
v -0.00636652 -0.01627037 0.00502775
v -0.00595404 -0.01567441 0.00502775
v -0.00553041 -0.01499491 0.00502775
v -0.00497859 -0.01409261 0.00502775
v -0.00465529 -0.01352450 0.00502775
v -0.00415363 -0.01259436 0.00502775
v -0.00372443 -0.01172549 0.00502775
v -0.00345130 -0.01109054 0.00502775
v -0.00307227 -0.01019938 0.00502775
v -0.00260405 -0.00890164 0.00502775
v -0.00242568 -0.00832239 0.00502775
v -0.00228633 -0.00781555 0.00502775
v -0.00226404 -0.00772643 0.00502775
v -0.00199091 -0.00659578 0.00502775
v -0.00173451 -0.00533703 0.00502775
v -0.00153384 -0.00419523 0.00502775
v -0.00121612 -0.00228482 0.00502775
v -0.00115481 -0.00177798 0.00502775
v -0.00104890 -0.00059720 0.00502775
v -0.00113251 0.00071168 0.00376721
v -0.00117153 0.00145245 0.00408894
v -0.00111021 -0.00059720 0.00388383
v -0.00116595 0.00039421 0.00304699
v -0.00123842 0.00183119 0.00376721
v -0.00122170 0.00224892 0.00474060
v -0.00138892 0.00299526 0.00388383
v -0.00158958 0.00419832 0.00388383
v -0.00171778 0.00539581 0.00508401
v -0.00191845 0.00539581 0.00268307
v -0.00218043 0.00659887 0.00268307
v -0.00235880 0.00735078 0.00268307
v -0.00228076 0.00784091 0.00515374
v -0.00258733 0.00889359 0.00515374
v -0.00326179 0.01019690 0.00268307
v -0.00355164 0.01092096 0.00268307
v -0.00381361 0.01152249 0.00268307
v -0.00434315 0.01259745 0.00268307
v -0.00473333 0.01332151 0.00268307
v -0.00467759 0.01341062 0.00388383
v -0.00602093 0.01557167 0.00346013
v -0.00710229 0.01692511 0.00268307
v -0.00759280 0.01752664 0.00268307
v -0.00818922 0.01823399 0.00268307
v -0.00873547 0.01883552 0.00268307
v -0.00933747 0.01947047 0.00268307
v -0.00993946 0.02006643 0.00268307
v -0.01054146 0.02064568 0.00268307
v -0.01117690 0.02124721 0.00268307
v -0.01103754 0.02139202 0.00508401
v -0.01177332 0.02179861 0.00268307
v -0.01250909 0.02240014 0.00268307
v -0.01311108 0.02286242 0.00268307
v -0.01380226 0.02334142 0.00268307
v -0.01459934 0.02387054 0.00268307
v -0.01520134 0.02424371 0.00268307
v -0.01631614 0.02490094 0.00277800
v -0.01679551 0.02520170 0.00324038
v -0.01730832 0.02541335 0.00277800
v -0.01859592 0.02597032 0.00268307
v -0.01949891 0.02629894 0.00268307
v -0.02099832 0.02679464 0.00268307
v -0.02219673 0.02716224 0.00268307
v -0.02391353 0.02761896 0.00199390
v -0.02459914 0.02769693 0.00179583
v -0.02699597 0.02792529 0.00148523
v -0.02819995 0.02772478 0.00072985
v -0.02699597 0.02764681 0.00082010
v -0.02939837 0.02775820 0.00068590
v -0.02988331 0.02792529 0.00101173
v -0.03059678 0.02776934 0.00065250
v -0.03180077 0.02776934 0.00065074
v -0.03299919 0.02771365 0.00072165
v -0.03391333 0.02764681 0.00080779
v -0.03471041 0.02756883 0.00093320
v -0.03426449 0.02779719 0.00139382
v -0.03540159 0.02749643 0.00118109
v -0.03651639 0.02735718 0.00157372
v -0.03779842 0.02702300 0.00148582
v -0.04025098 0.02622096 0.00143015
v -0.04139923 0.02578653 0.00148582
v -0.03905815 0.02663312 0.00143015
v -0.03949849 0.02634349 0.00099356
v -0.04370130 0.02490094 0.00264908
v -0.04234124 0.02535766 0.00148582
v -0.04294324 0.02504018 0.00148582
v -0.04458757 0.02411004 0.00148582
v -0.04518956 0.02374244 0.00148582
v -0.05033996 0.01913629 0.00099708
v -0.05151608 0.01789981 0.00148582
v -0.05197872 0.01730385 0.00148582
v -0.05157182 0.01796108 0.00268365
v -0.05200660 0.01735955 0.00268365
v -0.05263646 0.01655751 0.00545086
v -0.04662209 0.02265634 0.00122563
v -0.04791526 0.02152012 0.00102228
v -0.04913040 0.02033378 0.00101583
v -0.04620961 0.02307964 0.00157021
v -0.05797079 0.00060029 0.00545086
v -0.05781472 0.00060029 0.00148582
v -0.05782029 -0.00059720 0.00148523
v -0.05794850 -0.00059720 0.00522641
v -0.05789276 -0.00164988 0.00522641
v -0.05788161 -0.00179469 0.00522641
v -0.05775341 -0.00306458 0.00522641
v -0.05766980 -0.00361041 0.00522641
v -0.05760291 -0.00398916 0.00522641
v -0.05753045 -0.00435676 0.00522641
v -0.05730748 -0.00539272 0.00522641
v -0.05702321 -0.00659578 0.00522641
v -0.05672779 -0.00765403 0.00522641
v -0.05645466 -0.00856746 0.00522641
v -0.05624842 -0.00916899 0.00522641
v -0.05586939 -0.01019938 0.00522641
v -0.05547921 -0.01116851 0.00522641
v -0.05535658 -0.01145814 0.00522641
v -0.05515592 -0.01192043 0.00522641
v -0.05484377 -0.01258879 0.00522641
v -0.05425850 -0.01379742 0.00522641
v -0.05419161 -0.01391995 0.00522641
v -0.05366208 -0.01488908 0.00522641
v -0.05309353 -0.01584150 0.00522641
v -0.05264203 -0.01655443 0.00522641
v -0.05206234 -0.01738431 0.00522641
v -0.05181708 -0.01772963 0.00522641
v -0.05138788 -0.01829774 0.00522641
v -0.05053505 -0.01936156 0.00522641
v -0.04999995 -0.01995752 0.00522641
v -0.04939795 -0.02060917 0.00522641
v -0.04879038 -0.02120513 0.00522641
v -0.04826643 -0.02170641 0.00522641
v -0.04819396 -0.02177325 0.00522641
v -0.04746377 -0.02236920 0.00522641
v -0.04686735 -0.02284820 0.00522641
v -0.04611485 -0.02339403 0.00522641
v -0.04541253 -0.02387859 0.00522641
v -0.04481611 -0.02426291 0.00522641
v -0.04373475 -0.02491456 0.00522641
v -0.04352851 -0.02503153 0.00522641
v -0.04290422 -0.02535457 0.00522641
v -0.04268126 -0.02546039 0.00522641
v -0.04138808 -0.02602850 0.00522641
v -0.04129333 -0.02606749 0.00522641
v -0.04060215 -0.02632927 0.00522641
v -0.04001688 -0.02652978 0.00522641
v -0.03900241 -0.02686953 0.00522641
v -0.03779842 -0.02724270 0.00522641
v -0.03681739 -0.02750448 0.00522641
v -0.03622097 -0.02764929 0.00522641
v -0.03609834 -0.02767714 0.00522641
v -0.03540159 -0.02782752 0.00522641
v -0.03525666 -0.02785537 0.00522641
v -0.03420317 -0.02803360 0.00522641
v -0.03299919 -0.02817842 0.00522641
v -0.03180077 -0.02830095 0.00522641
v -0.03059678 -0.02836778 0.00522641
v -0.03045743 -0.02837335 0.00522641
v -0.02988888 -0.02816170 0.00268365
v -0.02939837 -0.02837335 0.00502775
v -0.02819995 -0.02836221 0.00502775
v -0.02700154 -0.02829538 0.00502775
v -0.02579755 -0.02815614 0.00502775
v -0.02465488 -0.02794449 0.00502775
v -0.02459914 -0.02793335 0.00502775
v -0.02337285 -0.02766600 0.00502775
v -0.02293808 -0.02756018 0.00502775
v -0.02229707 -0.02738195 0.00502775
v -0.02099832 -0.02697536 0.00502775
v -0.01986679 -0.02659104 0.00502775
v -0.01958252 -0.02649079 0.00502775
v -0.01877428 -0.02618446 0.00502775
v -0.01745882 -0.02563306 0.00502775
v -0.01663943 -0.02525431 0.00502775
v -0.01607088 -0.02494798 0.00502775
v -0.01490034 -0.02429633 0.00502775
v -0.01439311 -0.02400670 0.00502775
v -0.01390817 -0.02368366 0.00502775
v -0.01290484 -0.02298187 0.00502775
v -0.01233629 -0.02253073 0.00502775
v -0.01162282 -0.02196261 0.00502775
v -0.01158937 -0.02193477 0.00502775
v -0.01099295 -0.02143349 0.00502775
v -0.01038538 -0.02085981 0.00502775
v -0.00975552 -0.02024157 0.00502775
v -0.00917025 -0.01964561 0.00502775
v -0.00856825 -0.01901067 0.00502775
v -0.00813905 -0.01829774 0.00388383
v -0.00764297 -0.01747343 0.00268365
v -0.00714130 -0.01687747 0.00268365
v -0.00665636 -0.01619239 0.00268365
v -0.00605437 -0.01551846 0.00362188
v -0.00612126 -0.01541263 0.00268365
v -0.00574780 -0.01480554 0.00268365
v -0.00509564 -0.01370830 0.00267076
v -0.00482809 -0.01315133 0.00226289
v -0.00477235 -0.01325159 0.00306164
v -0.00452709 -0.01268905 0.00267076
v -0.00383591 -0.01131890 0.00262036
v -0.00361852 -0.01077306 0.00218026
v -0.00288833 -0.00899633 0.00268365
v -0.00276013 -0.00899633 0.00388383
v -0.00253716 -0.00791580 0.00268365
v -0.00247585 -0.00812188 0.00388383
v -0.00237552 -0.00731427 0.00268365
v -0.00219715 -0.00659578 0.00268365
v -0.00192960 -0.00539272 0.00268365
v -0.00170106 -0.00419523 0.00268365
v -0.00161188 -0.00419523 0.00388383
v -0.00141121 -0.00299775 0.00388383
v -0.00150040 -0.00299775 0.00268365
v -0.00129973 -0.00168329 0.00279558
v -0.00118268 -0.00138253 0.00388383
v -0.00120497 0.00119068 0.00328843
v -0.00120497 -0.00120430 0.00327026
v -0.00117710 -0.00059720 0.00309621
v -0.00124957 -0.00059720 0.00249671
v -0.00124399 -0.00001795 0.00256879
v -0.00145580 0.00059472 0.00148523
v -0.00124399 0.00071168 0.00266138
v -0.00133875 0.00179778 0.00268307
v -0.00149482 0.00299526 0.00268307
v -0.00168991 0.00419832 0.00268307
v -0.00211354 0.00539581 0.00148523
v -0.00239224 0.00725052 0.00202672
v -0.00284374 0.00899941 0.00268307
v -0.00243683 0.00827535 0.00479978
v -0.00359065 0.01083742 0.00202262
v -0.00477792 0.01323796 0.00201852
v -0.00569206 0.01490331 0.00268307
v -0.00605995 0.01549927 0.00268307
v -0.00656161 0.01619548 0.00268307
v -0.00715245 0.01685828 0.00196519
v -0.00828398 0.01813374 0.00174777
v -0.00947682 0.01932566 0.00148523
v -0.01065294 0.02053986 0.00171789
v -0.01186807 0.02172064 0.00179290
v -0.01316125 0.02282901 0.00197808
v -0.01480558 0.02375915 0.00148523
v -0.01540758 0.02411561 0.00148523
v -0.01685125 0.02516829 0.00244163
v -0.01859592 0.02574754 0.00148523
v -0.02021238 0.02644932 0.00189604
v -0.02346761 0.02732934 0.00155028
v -0.02459914 0.02747415 0.00119574
v -0.02589788 0.02776377 0.00142839
v -0.02636053 0.02760225 0.00087812
v -0.02819995 0.02699515 0.00017840
v -0.02459914 0.02687819 0.00043156
v -0.02699597 0.02699515 0.00028330
v -0.02988331 0.02776377 0.00067183
v -0.03059678 0.02699515 0.00010281
v -0.02988331 0.02731262 0.00034893
v -0.03180077 0.02699515 0.00010398
v -0.03299919 0.02699515 0.00019423
v -0.03540159 0.02690047 0.00045794
v -0.03660000 0.02676122 0.00052650
v -0.03779842 0.02661641 0.00064019
v -0.03870141 0.02649388 0.00076618
v -0.04207369 0.02522398 0.00083944
v -0.04439806 0.02399308 0.00088339
v -0.04833331 0.02071809 0.00066773
v -0.04954288 0.01952617 0.00066715
v -0.05069670 0.01833425 0.00067769
v -0.05181150 0.01707549 0.00070114
v -0.05288171 0.01572763 0.00078201
v -0.05257514 0.01647397 0.00148582
v -0.05260301 0.01649624 0.00268365
v -0.05304894 0.01595598 0.00545086
v -0.04582500 0.02294597 0.00074802
v -0.04711260 0.02185988 0.00069938
v -0.05789276 0.00179778 0.00545086
v -0.05773669 0.00179778 0.00148582
v -0.05765865 0.00179778 0.00076325
v -0.05769767 0.00060029 0.00069059
v -0.05770324 -0.00059720 0.00068297
v -0.05768652 -0.00179469 0.00071051
v -0.05777013 -0.00179469 0.00148523
v -0.05765865 -0.00309800 0.00145769
v -0.05759176 -0.00356586 0.00103986
v -0.05760291 -0.00362712 0.00183978
v -0.05724617 -0.00539829 0.00148523
v -0.05696747 -0.00659578 0.00148523
v -0.05666090 -0.00779884 0.00148523
v -0.05644351 -0.00859531 0.00078963
v -0.05644909 -0.00860645 0.00148523
v -0.05628186 -0.00920798 0.00148523
v -0.05594185 -0.01019938 0.00148523
v -0.05547363 -0.01139687 0.00148523
v -0.05520608 -0.01202068 0.00215096
v -0.05447031 -0.01379742 0.00148523
v -0.05410242 -0.01461060 0.00148523
v -0.05378471 -0.01521212 0.00148523
v -0.05312697 -0.01630379 0.00154970
v -0.05282597 -0.01684405 0.00119281
v -0.05176133 -0.01817521 0.00148523
v -0.05060751 -0.01942840 0.00148523
v -0.05002224 -0.02002993 0.00148523
v -0.04942025 -0.02060361 0.00148523
v -0.04816609 -0.02175653 0.00148523
v -0.04741917 -0.02235250 0.00148523
v -0.04682275 -0.02281478 0.00148523
v -0.04681161 -0.02280921 0.00086522
v -0.04619289 -0.02324922 0.00148523
v -0.04532892 -0.02382847 0.00148523
v -0.04472692 -0.02420164 0.00148523
v -0.04380164 -0.02468620 0.00148523
v -0.04290422 -0.02508165 0.00148523
v -0.04139923 -0.02582800 0.00268365
v -0.04037361 -0.02624015 0.00268365
v -0.03977162 -0.02645737 0.00268365
v -0.03900241 -0.02670244 0.00268365
v -0.03779842 -0.02704776 0.00268365
v -0.03660000 -0.02734296 0.00268365
v -0.03605932 -0.02761030 0.00434093
v -0.03512289 -0.02766600 0.00268365
v -0.03420317 -0.02780524 0.00268365
v -0.03299919 -0.02794449 0.00268365
v -0.03180077 -0.02806702 0.00268365
v -0.03059678 -0.02814499 0.00268365
v -0.02988888 -0.02807259 0.00219608
v -0.02939837 -0.02816728 0.00268365
v -0.02819995 -0.02815057 0.00268365
v -0.02700154 -0.02808930 0.00268365
v -0.02579755 -0.02792778 0.00268365
v -0.02455454 -0.02768828 0.00273171
v -0.02413092 -0.02756575 0.00236427
v -0.02348991 -0.02744321 0.00273171
v -0.02219673 -0.02708118 0.00268365
v -0.02219673 -0.02722042 0.00388383
v -0.02099832 -0.02685282 0.00388383
v -0.02003401 -0.02652978 0.00388383
v -0.01962711 -0.02625129 0.00268365
v -0.01860149 -0.02598395 0.00388383
v -0.01860149 -0.02584470 0.00268365
v -0.01731389 -0.02542698 0.00387973
v -0.01685125 -0.02517077 0.00347654
v -0.01675092 -0.02522090 0.00427646
v -0.01628827 -0.02493127 0.00387973
v -0.01510658 -0.02427962 0.00388383
v -0.01442655 -0.02398442 0.00460815
v -0.01380783 -0.02346087 0.00388383
v -0.01303304 -0.02292061 0.00388383
v -0.01243662 -0.02244718 0.00388383
v -0.01170085 -0.02185122 0.00388383
v -0.01181791 -0.02175653 0.00268365
v -0.01109886 -0.02133324 0.00388383
v -0.01045785 -0.02073171 0.00388383
v -0.00985585 -0.02014132 0.00388383
v -0.00927058 -0.01953979 0.00388383
v -0.00938206 -0.01942840 0.00268365
v -0.00878007 -0.01877674 0.00268365
v -0.00823939 -0.01817521 0.00268365
v -0.00719704 -0.01681063 0.00204723
v -0.00626618 -0.01518985 0.00148523
v -0.00588158 -0.01459389 0.00148523
v -0.00540778 -0.01379742 0.00148523
v -0.00493399 -0.01296753 0.00148523
v -0.00461070 -0.01236600 0.00148523
v -0.00411461 -0.01139687 0.00148523
v -0.00370771 -0.01053914 0.00148523
v -0.00347360 -0.00994318 0.00148523
v -0.00312801 -0.00899633 0.00148523
v -0.00240339 -0.00720288 0.00207829
v -0.00189615 -0.00419523 0.00148523
v -0.00169549 -0.00299775 0.00148523
v -0.00152269 -0.00179469 0.00148523
v -0.00143351 -0.00059720 0.00148523
v -0.00199648 -0.00001795 0.00040344
v -0.00200763 0.00059472 0.00040988
v -0.00206337 0.00179778 0.00046731
v -0.00156728 0.00179778 0.00148523
v -0.00171778 0.00299526 0.00148523
v -0.00189615 0.00419832 0.00148523
v -0.00239224 0.00604747 0.00086522
v -0.00232535 0.00650975 0.00157021
v -0.00250372 0.00684950 0.00122680
v -0.00265979 0.00770724 0.00157021
v -0.00308342 0.00899941 0.00148523
v -0.00370771 0.01053108 0.00122211
v -0.00392509 0.01130527 0.00156728
v -0.00346245 0.01015791 0.00156728
v -0.00456611 0.01259745 0.00156493
v -0.00583141 0.01468052 0.00148523
v -0.00621044 0.01528205 0.00148523
v -0.00733082 0.01663549 0.00116468
v -0.00842890 0.01796108 0.00094785
v -0.00685703 0.01621776 0.00153329
v -0.00958830 0.01920869 0.00086991
v -0.01206874 0.02154240 0.00099298
v -0.01333962 0.02268420 0.00117757
v -0.01082016 0.02037833 0.00091796
v -0.01376881 0.02310192 0.00154032
v -0.01558037 0.02400422 0.00087108
v -0.01619909 0.02455562 0.00148523
v -0.01708536 0.02504018 0.00148523
v -0.01768735 0.02535209 0.00148523
v -0.01793261 0.02522955 0.00083885
v -0.01980548 0.02618197 0.00149227
v -0.02066388 0.02631008 0.00109670
v -0.02146654 0.02642704 0.00083299
v -0.02555787 0.02753541 0.00099063
v -0.02219673 0.02653843 0.00069293
v -0.02340072 0.02673895 0.00050775
v -0.02459914 0.02582551 -0.00016852
v -0.02579755 0.02583108 -0.00020779
v -0.02988331 0.02699515 0.00012449
v -0.02338400 0.02569741 -0.00013219
v -0.03059678 0.02579209 -0.00024705
v -0.03180077 0.02579209 -0.00025174
v -0.02819995 0.02579209 -0.00023416
v -0.03299919 0.02579209 -0.00021013
v -0.03540159 0.02579209 -0.00008238
v -0.03660000 0.02579209 -0.00000034
v -0.03779842 0.02579209 0.00015145
v -0.04020082 0.02560829 0.00052884
v -0.04139923 0.02537437 0.00069938
v -0.04252519 0.02459460 0.00058569
v -0.04380164 0.02414903 0.00074802
v -0.04487185 0.02336370 0.00064546
v -0.04867333 0.01987149 0.00048489
v -0.04746377 0.02106898 0.00050013
v -0.04988289 0.01867400 0.00048606
v -0.05105344 0.01744310 0.00049720
v -0.05220168 0.01615092 0.00054115
v -0.05310468 0.01498685 0.00060268
v -0.05412472 0.01345518 0.00072868
v -0.05391848 0.01425722 0.00148582
v -0.05350601 0.01498685 0.00148582
v -0.05298205 0.01587244 0.00148582
v -0.05367880 0.01494787 0.00545086
v -0.04620961 0.02223305 0.00054935
v -0.05775898 0.00303982 0.00545086
v -0.05763635 0.00274463 0.00148582
v -0.05761406 0.00254969 0.00084706
v -0.05676123 0.00539581 0.00042277
v -0.05687829 0.00419832 0.00036066
v -0.05687829 0.00174208 0.00007526
v -0.05702878 0.00060029 0.00009050
v -0.05705108 -0.00059720 0.00008288
v -0.05704551 -0.00179469 0.00011101
v -0.05764193 -0.00276939 0.00078669
v -0.05700649 -0.00317598 0.00023642
v -0.05750258 -0.00409498 0.00145769
v -0.05654384 -0.00779884 0.00061851
v -0.05558511 -0.01019938 0.00037941
v -0.05533986 -0.01139687 0.00064371
v -0.05520608 -0.01203182 0.00085292
v -0.05521166 -0.01204296 0.00148523
v -0.05407456 -0.01454933 0.00072809
v -0.05282597 -0.01684405 0.00081951
v -0.05171117 -0.01811951 0.00070875
v -0.05054620 -0.01935599 0.00067594
v -0.04934779 -0.02054234 0.00068766
v -0.04811035 -0.02168970 0.00073747
v -0.04619289 -0.02302086 0.00061382
v -0.04461544 -0.02412923 0.00068238
v -0.04722408 -0.02205730 0.00040168
v -0.04215730 -0.02525431 0.00079724
v -0.04230780 -0.02532672 0.00148523
v -0.03969358 -0.02642953 0.00193940
v -0.03779842 -0.02687510 0.00148523
v -0.03571931 -0.02753790 0.00268365
v -0.03493894 -0.02762701 0.00197867
v -0.03420317 -0.02767714 0.00173371
v -0.03180077 -0.02785537 0.00148523
v -0.03303820 -0.02772727 0.00138854
v -0.03059678 -0.02792221 0.00148523
v -0.02988888 -0.02793335 0.00148523
v -0.02939837 -0.02793892 0.00148523
v -0.02819995 -0.02792778 0.00148523
v -0.02700154 -0.02786651 0.00148523
v -0.02588673 -0.02772170 0.00149051
v -0.02492800 -0.02765486 0.00189369
v -0.02340072 -0.02713688 0.00148523
v -0.02219673 -0.02680270 0.00148523
v -0.02035731 -0.02640725 0.00203610
v -0.02099832 -0.02670801 0.00268365
v -0.01777654 -0.02529887 0.00174836
v -0.01757030 -0.02538799 0.00268365
v -0.01697388 -0.02511507 0.00268365
v -0.01619909 -0.02473076 0.00268365
v -0.01525708 -0.02420164 0.00268365
v -0.01450459 -0.02393429 0.00388383
v -0.01321141 -0.02279250 0.00210994
v -0.01312780 -0.02285377 0.00290869
v -0.01267631 -0.02244161 0.00257817
v -0.01192381 -0.02166742 0.00190659
v -0.01122149 -0.02122185 0.00268365
v -0.01056933 -0.02062032 0.00268365
v -0.00997291 -0.02002993 0.00268365
v -0.00948797 -0.01931143 0.00178176
v -0.00832857 -0.01808053 0.00186556
v -0.00847350 -0.01791343 0.00106506
v -0.00735312 -0.01661012 0.00124731
v -0.00692949 -0.01620353 0.00158252
v -0.00598748 -0.01442679 0.00085878
v -0.00473333 -0.01213207 0.00079431
v -0.00357393 -0.00968140 0.00084178
v -0.00267651 -0.00768187 0.00160127
v -0.00250372 -0.00659578 0.00121273
v -0.00242011 -0.00594412 0.00092851
v -0.00233093 -0.00659578 0.00181282
v -0.00218600 -0.00548184 0.00139147
v -0.00232535 -0.00514209 0.00077029
v -0.00222502 -0.00419523 0.00064488
v -0.00212469 -0.00299775 0.00053002
v -0.00204108 -0.00179469 0.00044329
v -0.00199091 -0.00059720 0.00039640
v -0.00281587 0.00059472 -0.00018962
v -0.00214141 0.00299526 0.00054994
v -0.00287718 0.00179778 -0.00013278
v -0.00223059 0.00419832 0.00065543
v -0.00233093 0.00539581 0.00078435
v -0.00294407 0.00650975 0.00046555
v -0.00324507 0.00779635 0.00048489
v -0.00343458 0.00899941 0.00066890
v -0.00355164 0.00972904 0.00081365
v -0.00467759 0.01219643 0.00074802
v -0.00493399 0.01299290 0.00121859
v -0.00595404 0.01447444 0.00082537
v -0.00701868 0.01583345 0.00069879
v -0.00931517 0.01859603 0.00064312
v -0.00813348 0.01715904 0.00062085
v -0.01020702 0.01949275 0.00065074
v -0.01161724 0.02074036 0.00059448
v -0.01286582 0.02188215 0.00064839
v -0.01413670 0.02297382 0.00070641
v -0.01511215 0.02338598 0.00056518
v -0.01619909 0.02416574 0.00070231
v -0.01748111 0.02460575 0.00050833
v -0.01859592 0.02536323 0.00070172
v -0.01979990 0.02557487 0.00052298
v -0.02219673 0.02579209 0.00013386
v -0.02376861 0.02522955 -0.00032323
v -0.02693465 0.02570298 -0.00025233
v -0.02099832 0.02476727 -0.00019196
v -0.02219673 0.02495107 -0.00027342
v -0.02297152 0.02507917 -0.00030800
v -0.01859592 0.02459460 0.00014617
v -0.02649430 0.02524069 -0.00032030
v -0.05640450 0.00130764 -0.00031855
v -0.05459294 0.00779635 -0.00014039
v -0.05459294 0.00899384 -0.00009527
v -0.04139923 0.02339155 0.00002486
v -0.03899683 0.02458904 -0.00000854
v -0.04020082 0.02458904 0.00006823
v -0.04139923 0.02458904 0.00026279
v -0.04380164 0.02339155 0.00034893
v -0.04498890 0.02218849 0.00022646
v -0.04979371 0.01739297 0.00019188
v -0.05099212 0.01618991 0.00018602
v -0.05219611 0.01498685 0.00018133
v -0.05346699 0.01382835 0.00043625
v -0.05432539 0.01259188 0.00055756
v -0.05545134 0.01019690 0.00058979
v -0.05527854 0.01099337 0.00076501
v -0.05475459 0.01259188 0.00148582
v -0.05423063 0.01366126 0.00148582
v -0.05479360 0.01293163 0.00545086
v -0.05430866 0.01384506 0.00545086
v -0.05400209 0.01440203 0.00545086
v -0.05764193 0.00391427 0.00545086
v -0.05755832 0.00334059 0.00148582
v -0.05740782 0.00419832 0.00148582
v -0.05719043 0.00539581 0.00148582
v -0.05640450 0.00842016 0.00086991
v -0.05648253 0.00779635 0.00075212
v -0.05662745 0.00659330 0.00055229
v -0.05579135 0.00779635 0.00022411
v -0.05579135 0.00659330 0.00001373
v -0.05642679 0.00060029 -0.00032734
v -0.05643794 0.00006003 -0.00033202
v -0.05644909 -0.00059720 -0.00033613
v -0.05644909 -0.00179469 -0.00033495
v -0.05642679 -0.00278053 -0.00032675
v -0.05681140 -0.00539829 0.00035480
v -0.05668319 -0.00659578 0.00043918
v -0.05596415 -0.00779884 0.00001842
v -0.05526740 -0.00868999 -0.00034843
v -0.05506116 -0.00948646 -0.00029921
v -0.05490508 -0.01019938 -0.00022068
v -0.05406341 -0.01218220 -0.00034433
v -0.05384602 -0.01298424 -0.00026346
v -0.05424735 -0.01379742 0.00050482
v -0.05338338 -0.01498377 0.00023114
v -0.05302106 -0.01619239 0.00057280
v -0.05166658 -0.01688304 -0.00034609
v -0.05209020 -0.01726178 0.00036417
v -0.05132656 -0.01768508 -0.00009117
v -0.05093638 -0.01852610 0.00029151
v -0.05013930 -0.01892712 -0.00012457
v -0.04974354 -0.01974587 0.00028213
v -0.04891301 -0.02013018 -0.00011227
v -0.04850611 -0.02092108 0.00031319
v -0.04763099 -0.02130539 -0.00006187
v -0.04683390 -0.02162286 -0.00032851
v -0.04496660 -0.02336618 0.00021298
v -0.04380164 -0.02432417 0.00047727
v -0.04139923 -0.02539356 0.00063140
v -0.03859550 -0.02645737 0.00080252
v -0.03939258 -0.02632927 0.00113890
v -0.04013393 -0.02616775 0.00151747
v -0.04139923 -0.02568875 0.00148523
v -0.03899683 -0.02654092 0.00151747
v -0.03660000 -0.02715359 0.00148523
v -0.03420317 -0.02751562 0.00113421
v -0.03346740 -0.02758803 0.00092265
v -0.03267032 -0.02761587 0.00085819
v -0.03059678 -0.02766600 0.00078611
v -0.02988888 -0.02783309 0.00120043
v -0.03180077 -0.02764372 0.00081951
v -0.02819995 -0.02767157 0.00078318
v -0.02700154 -0.02763815 0.00082537
v -0.02633823 -0.02760473 0.00086815
v -0.02554115 -0.02752119 0.00109377
v -0.02455454 -0.02743207 0.00149051
v -0.02154457 -0.02641281 0.00086405
v -0.02074191 -0.02629028 0.00123559
v -0.02108750 -0.02649636 0.00157548
v -0.01989466 -0.02610648 0.00157548
v -0.01851231 -0.02551609 0.00140319
v -0.01805524 -0.02517077 0.00094844
v -0.01738635 -0.02500368 0.00140319
v -0.01612662 -0.02436873 0.00142605
v -0.01542987 -0.02410695 0.00178704
v -0.01466066 -0.02383404 0.00268365
v -0.01397505 -0.02307099 0.00148523
v -0.01337306 -0.02266440 0.00148523
v -0.01255925 -0.02201831 0.00149813
v -0.01213005 -0.02149476 0.00110666
v -0.01086475 -0.02034183 0.00099942
v -0.01069196 -0.02050892 0.00179993
v -0.00964404 -0.01914991 0.00098184
v -0.00815020 -0.01711697 0.00064371
v -0.00704655 -0.01580809 0.00071461
v -0.00579797 -0.01379742 0.00067594
v -0.00663407 -0.01489465 0.00056166
v -0.00537434 -0.01256094 0.00045383
v -0.00454939 -0.01139687 0.00061733
v -0.00416478 -0.01012698 0.00048196
v -0.00345130 -0.00899633 0.00069938
v -0.00326179 -0.00779884 0.00050189
v -0.00310014 -0.00659578 0.00038644
v -0.00311686 -0.00411169 -0.00001499
v -0.00297194 -0.00299775 -0.00007066
v -0.00291062 -0.00179469 -0.00015622
v -0.00284374 -0.00059720 -0.00020369
v -0.00282701 -0.00001795 -0.00019665
v -0.00341228 0.00059472 -0.00035957
v -0.00347917 0.00179778 -0.00035019
v -0.00355721 0.00269450 -0.00032909
v -0.00300538 0.00419832 0.00007409
v -0.00300538 0.00539581 0.00022704
v -0.00309457 0.00305096 -0.00009996
v -0.00367426 0.00349097 -0.00030917
v -0.00420380 0.00779635 -0.00010523
v -0.00420380 0.00899941 0.00011101
v -0.00414248 0.01015791 0.00044680
v -0.00448807 0.01139996 0.00055522
v -0.00536319 0.01259745 0.00042746
v -0.00576452 0.01379493 0.00064664
v -0.00661177 0.01492559 0.00053060
v -0.00776002 0.01621776 0.00038703
v -0.00900303 0.01739854 0.00019950
v -0.01029063 0.01850691 0.00003307
v -0.01252023 0.02108569 0.00033663
v -0.01139428 0.01980465 0.00019071
v -0.01376881 0.02224976 0.00041223
v -0.01626040 0.02330243 0.00005475
v -0.01739750 0.02358092 -0.00015094
v -0.02099832 0.02416574 -0.00035312
v -0.02219673 0.02434954 -0.00035722
v -0.02099832 0.02339712 -0.00039942
v -0.01980548 0.02449992 -0.00011754
v -0.01859592 0.02377029 -0.00026991
v -0.01739750 0.02297939 -0.00035839
v -0.05579135 0.00539581 -0.00012399
v -0.05459294 0.01019690 0.00008112
v -0.05338895 0.01259188 0.00009109
v -0.05219611 0.01379493 0.00003541
v -0.04260322 0.02339155 0.00013328
v -0.05583037 0.00889359 0.00050306
v -0.05536772 0.01122730 0.00148582
v -0.05511132 0.01182326 0.00148582
v -0.05522838 0.01205718 0.00545086
v -0.05496640 0.01259188 0.00545086
v -0.05755275 0.00447681 0.00545086
v -0.05736880 0.00538467 0.00545086
v -0.05709568 0.00659330 0.00545086
v -0.05691730 0.00659330 0.00148582
v -0.05642679 0.00848700 0.00148582
v -0.05621498 0.00908853 0.00148582
v -0.05578578 0.01019690 0.00148582
v -0.05661073 0.00779635 0.00148582
v -0.05542904 -0.00659578 -0.00037305
v -0.05536215 -0.00779884 -0.00037598
v -0.01140543 0.01619548 -0.00049611
v -0.05602546 -0.00659578 -0.00016032
v -0.05306008 -0.01379742 -0.00038535
v -0.05289844 -0.01461617 -0.00035605
v -0.05366208 -0.01379742 -0.00009468
v -0.05263646 -0.01541820 -0.00026580
v -0.05243579 -0.01619239 -0.00002729
v -0.05095310 -0.01732862 -0.00039238
v -0.05052391 -0.01813065 -0.00036543
v -0.05183380 -0.01619239 -0.00037480
v -0.04933664 -0.01933371 -0.00037070
v -0.04811593 -0.02050335 -0.00036074
v -0.04729655 -0.02093779 -0.00036308
v -0.04619289 -0.02174540 -0.00034785
v -0.04451511 -0.02285377 -0.00033261
v -0.04531777 -0.02256971 -0.00025701
v -0.04380164 -0.02348872 -0.00012281
v -0.04020082 -0.02559964 0.00044446
v -0.03779842 -0.02656877 0.00068648
v -0.03660000 -0.02670244 0.00056283
v -0.03540159 -0.02680270 0.00047786
v -0.03420317 -0.02691966 0.00041750
v -0.03303820 -0.02710903 0.00045618
v -0.03059678 -0.02699764 0.00023818
v -0.02988888 -0.02767157 0.00077966
v -0.03180077 -0.02699764 0.00027627
v -0.02939837 -0.02767157 0.00077615
v -0.02939837 -0.02699206 0.00022939
v -0.02819995 -0.02699206 0.00024052
v -0.02700154 -0.02699206 0.00029033
v -0.02588673 -0.02707004 0.00047903
v -0.02459914 -0.02680826 0.00047610
v -0.02340072 -0.02666345 0.00059799
v -0.02219673 -0.02650193 0.00076032
v -0.01979990 -0.02552723 0.00057104
v -0.01885232 -0.02534343 0.00073102
v -0.01647221 -0.02417936 0.00069469
v -0.01567513 -0.02395100 0.00098653
v -0.01501740 -0.02371150 0.00142605
v -0.01422588 -0.02290947 0.00075564
v -0.01292714 -0.02182894 0.00066304
v -0.01044670 -0.01954536 0.00061968
v -0.01166184 -0.02068715 0.00062905
v -0.00927058 -0.01834787 0.00062202
v -0.00777117 -0.01620353 0.00042219
v -0.00892499 -0.01746786 0.00036007
v -0.00660620 -0.01379742 0.00013621
v -0.00551369 -0.01133004 -0.00003432
v -0.00420380 -0.00899633 0.00013738
v -0.00408117 -0.00659578 -0.00021365
v -0.00359623 -0.00365497 -0.00031796
v -0.00344015 -0.00059720 -0.00034667
v -0.00420380 -0.00299775 -0.00037598
v -0.00420380 0.00059472 -0.00041114
v -0.00420380 0.00179778 -0.00040235
v -0.00660620 0.01019690 -0.00043634
v -0.00578682 0.01019690 -0.00036308
v -0.00590387 0.01098223 -0.00034140
v -0.00429855 0.00671026 -0.00024178
v -0.00519040 0.01019690 -0.00020896
v -0.00546352 0.01138882 -0.00007886
v -0.00670096 0.01372253 0.00000846
v -0.00781576 0.01503141 -0.00014039
v -0.00875777 0.01619548 -0.00019724
v -0.00995061 0.01763247 -0.00022127
v -0.01116575 0.01884109 -0.00021247
v -0.01260385 0.02006086 -0.00022244
v -0.01375767 0.02100771 -0.00019314
v -0.01505084 0.02211608 -0.00012926
v -0.01590366 0.02246140 -0.00025408
v -0.01670075 0.02284015 -0.00033144
v -0.01859592 0.02316876 -0.00037129
v -0.01739750 0.02219406 -0.00041231
v -0.01859592 0.02219406 -0.00041700
v -0.01260385 0.01859603 -0.00044220
v -0.05548478 0.01146122 0.00545086
v -0.05677796 0.00779079 0.00545086
v -0.05629302 0.00929461 0.00545086
v -0.05649925 0.00869308 0.00545086
v -0.05596972 0.01019133 0.00545086
v -0.05583037 0.01055893 0.00545086
v -0.01020702 0.01499799 -0.00050783
v -0.01500067 0.00539581 -0.00051838
v -0.04976026 -0.01855395 -0.00040411
v -0.01380783 -0.00059720 -0.00053537
v -0.01500067 0.01979352 -0.00044923
v -0.01140543 0.01739854 -0.00046740
v -0.04854513 -0.01975701 -0.00039063
v -0.04380164 -0.02288719 -0.00033495
v -0.03180077 -0.02579458 -0.00017790
v -0.03299919 -0.02579458 -0.00015505
v -0.03900241 -0.02459709 -0.00020193
v -0.04020082 -0.02459709 -0.00012574
v -0.04139923 -0.02459709 0.00005182
v -0.03899683 -0.02587812 0.00041516
v -0.03779842 -0.02579458 0.00013562
v -0.03660000 -0.02579458 0.00001666
v -0.02988888 -0.02699764 0.00023290
v -0.02988888 -0.02739865 0.00055697
v -0.03540159 -0.02579458 -0.00005015
v -0.03420317 -0.02579458 -0.00010582
v -0.02819995 -0.02579458 -0.00018903
v -0.02700154 -0.02579458 -0.00018200
v -0.02988888 -0.02650750 0.00006178
v -0.02579755 -0.02579458 -0.00013395
v -0.02459914 -0.02579458 -0.00004839
v -0.02340072 -0.02579458 0.00006237
v -0.02219673 -0.02579458 0.00024521
v -0.02108750 -0.02585028 0.00051712
v -0.01979990 -0.02459709 0.00003307
v -0.01851231 -0.02470291 0.00038937
v -0.01740308 -0.02441886 0.00050716
v -0.01612662 -0.02348872 0.00035831
v -0.01500625 -0.02314896 0.00055170
v -0.01381898 -0.02221325 0.00046145
v -0.01255925 -0.02105475 0.00038410
v -0.01132182 -0.01988511 0.00035011
v -0.01010668 -0.01868763 0.00034014
v -0.00780461 -0.01499491 -0.00004897
v -0.01020702 -0.01739545 -0.00016794
v -0.00900303 -0.01619239 -0.00012750
v -0.00660620 -0.01259436 -0.00016266
v -0.00537991 -0.01019938 -0.00018669
v -0.00598748 -0.01088446 -0.00032030
v -0.00430970 -0.00773757 -0.00013278
v -0.00478349 -0.00729756 -0.00031972
v -0.00468316 -0.00659578 -0.00033320
v -0.00540778 -0.00659578 -0.00039473
v -0.00356836 -0.00299775 -0.00032499
v -0.00540778 -0.00299775 -0.00043927
v -0.00660620 0.00539581 -0.00046447
v -0.00780461 0.01139996 -0.00047091
v -0.00900303 0.01379493 -0.00048966
v -0.00780461 0.01259745 -0.00044630
v -0.00781576 0.01372253 -0.00038594
v -0.00716917 0.01327695 -0.00032616
v -0.00742558 0.01407899 -0.00025818
v -0.00619929 0.01178427 -0.00028280
v -0.00850694 0.01545471 -0.00029335
v -0.00957715 0.01683043 -0.00032206
v -0.01074770 0.01804463 -0.00032616
v -0.01196841 0.01923097 -0.00032323
v -0.01260385 0.01945933 -0.00035957
v -0.01020702 0.01619548 -0.00046798
v -0.00900303 0.01259745 -0.00049728
v -0.00900303 0.00779635 -0.00049259
v -0.00660620 -0.00299775 -0.00045626
v -0.00660620 -0.00659578 -0.00042169
v -0.01291042 -0.01837015 -0.00034199
v -0.01029063 0.01729828 -0.00036719
v -0.01150019 0.01850691 -0.00036660
v -0.01979990 -0.02339403 -0.00020720
v -0.01860149 -0.02339403 -0.00018493
v -0.02099832 -0.02459709 -0.00009293
v -0.01740308 -0.02339403 -0.00005542
v -0.01500625 -0.02219654 0.00000435
v -0.01380783 -0.02099349 -0.00010230
v -0.01140543 -0.01859294 -0.00016794
v -0.01260385 -0.01979600 -0.00014977
v -0.00901417 -0.01499491 -0.00026287
v -0.01254811 -0.01869876 -0.00028924
v -0.00942108 -0.01459946 -0.00033671
v -0.00894729 0.01503141 -0.00041583
v -0.00935977 0.01619548 -0.00036543
v -0.00822266 0.01465824 -0.00035429
v -0.01619909 -0.02219654 -0.00019900
v -0.01740308 -0.02219654 -0.00022947
f 1 2 3
f 1 3 4
f 1 4 5
f 1 5 6
f 1 6 7
f 1 7 8
f 1 8 9
f 1 9 10
f 1 10 11
f 1 11 12
f 1 12 13
f 1 13 14
f 1 14 15
f 1 15 16
f 1 16 17
f 1 17 2
f 2 18 101
f 2 101 19
f 2 19 3
f 2 17 18
f 3 20 21
f 3 21 4
f 3 19 20
f 4 21 22
f 4 22 5
f 5 22 23
f 5 23 6
f 6 23 24
f 6 24 25
f 6 25 7
f 7 25 26
f 7 26 27
f 7 27 8
f 8 27 9
f 9 27 28
f 9 28 10
f 10 28 11
f 11 28 12
f 12 28 29
f 12 29 30
f 12 30 13
f 13 30 14
f 14 30 31
f 14 31 32
f 14 32 15
f 15 32 33
f 15 33 16
f 16 34 35
f 16 35 36
f 16 36 118
f 16 118 223
f 16 223 397
f 16 397 559
f 16 559 690
f 16 690 689
f 16 689 688
f 16 688 815
f 16 815 814
f 16 814 901
f 16 901 906
f 16 906 905
f 16 905 903
f 16 903 904
f 16 904 902
f 16 902 818
f 16 818 817
f 16 817 816
f 16 816 691
f 16 691 561
f 16 561 400
f 16 400 228
f 16 228 125
f 16 125 50
f 16 50 17
f 16 33 37
f 16 37 38
f 16 38 39
f 16 39 40
f 16 40 41
f 16 41 42
f 16 42 43
f 16 43 44
f 16 44 45
f 16 45 46
f 16 46 34
f 17 47 48
f 17 48 49
f 17 49 18
f 17 50 51
f 17 51 52
f 17 52 53
f 17 53 54
f 17 54 55
f 17 55 56
f 17 56 57
f 17 57 58
f 17 58 59
f 17 59 60
f 17 60 61
f 17 61 62
f 17 62 63
f 17 63 64
f 17 64 65
f 17 65 66
f 17 66 67
f 17 67 68
f 17 68 69
f 17 69 70
f 17 70 71
f 17 71 72
f 17 72 73
f 17 73 74
f 17 74 75
f 17 75 76
f 17 76 77
f 17 77 78
f 17 78 79
f 17 79 80
f 17 80 81
f 17 81 82
f 17 82 83
f 17 83 84
f 17 84 85
f 17 85 86
f 17 86 87
f 17 87 88
f 17 88 89
f 17 89 90
f 17 90 91
f 17 91 92
f 17 92 93
f 17 93 94
f 17 94 95
f 17 95 96
f 17 96 97
f 17 97 98
f 17 98 99
f 17 99 47
f 18 49 100
f 18 100 101
f 19 101 102
f 19 102 103
f 19 103 104
f 19 104 20
f 20 105 106
f 20 106 21
f 20 104 105
f 21 106 107
f 21 107 22
f 22 107 108
f 22 108 23
f 23 108 109
f 23 109 24
f 24 109 25
f 25 109 26
f 26 109 27
f 27 109 110
f 27 110 28
f 28 110 29
f 29 110 30
f 30 110 31
f 31 110 111
f 31 111 112
f 31 112 113
f 31 113 32
f 32 113 114
f 32 114 115
f 32 115 37
f 32 37 33
f 34 116 35
f 34 46 116
f 35 116 117
f 35 117 118
f 35 118 36
f 37 115 119
f 37 119 38
f 38 119 39
f 39 119 120
f 39 120 40
f 40 120 41
f 41 120 46
f 41 46 42
f 42 46 43
f 43 46 44
f 44 46 45
f 46 121 116
f 46 120 122
f 46 122 121
f 47 123 48
f 47 99 124
f 47 124 123
f 48 123 49
f 49 123 100
f 50 125 126
f 50 126 51
f 51 127 128
f 51 128 129
f 51 129 130
f 51 130 131
f 51 131 132
f 51 132 133
f 51 133 134
f 51 134 135
f 51 135 136
f 51 136 137
f 51 137 138
f 51 138 139
f 51 139 140
f 51 140 141
f 51 141 142
f 51 142 143
f 51 143 144
f 51 144 145
f 51 145 146
f 51 146 147
f 51 147 148
f 51 148 149
f 51 149 52
f 51 126 127
f 52 150 151
f 52 151 53
f 52 149 152
f 52 152 153
f 52 153 150
f 53 151 154
f 53 154 155
f 53 155 54
f 54 155 156
f 54 156 55
f 55 157 56
f 55 156 157
f 56 157 158
f 56 158 57
f 57 158 159
f 57 159 160
f 57 160 161
f 57 161 162
f 57 162 58
f 58 162 163
f 58 163 59
f 59 163 60
f 60 164 61
f 60 163 164
f 61 164 165
f 61 165 62
f 62 165 63
f 63 165 166
f 63 166 64
f 64 166 167
f 64 167 65
f 65 167 168
f 65 168 169
f 65 169 66
f 66 169 67
f 67 169 168
f 67 168 170
f 67 170 68
f 68 170 69
f 69 170 70
f 70 170 71
f 71 170 171
f 71 171 72
f 72 171 73
f 73 171 74
f 74 171 172
f 74 172 173
f 74 173 75
f 75 174 175
f 75 175 76
f 75 173 174
f 76 175 176
f 76 176 77
f 77 176 78
f 78 176 177
f 78 177 178
f 78 178 179
f 78 179 79
f 79 179 80
f 80 180 81
f 80 179 180
f 81 180 181
f 81 181 82
f 82 181 182
f 82 182 183
f 82 183 83
f 83 183 84
f 84 184 185
f 84 185 85
f 84 183 184
f 85 185 186
f 85 186 187
f 85 187 86
f 86 187 87
f 87 187 88
f 88 187 89
f 89 187 90
f 90 187 91
f 91 187 188
f 91 188 189
f 91 189 92
f 92 189 93
f 93 189 190
f 93 190 94
f 94 190 191
f 94 191 192
f 94 192 95
f 95 192 193
f 95 193 96
f 96 193 97
f 97 193 98
f 98 193 99
f 99 193 124
f 100 123 194
f 100 194 195
f 100 195 102
f 100 102 101
f 102 196 103
f 102 195 197
f 102 197 196
f 103 196 198
f 103 198 199
f 103 199 105
f 103 105 104
f 105 200 201
f 105 201 106
f 105 199 200
f 106 201 202
f 106 202 107
f 107 202 203
f 107 203 204
f 107 204 205
f 107 205 108
f 108 205 204
f 108 204 206
f 108 206 207
f 108 207 109
f 109 207 208
f 109 208 110
f 110 209 210
f 110 210 111
f 110 208 211
f 110 211 212
f 110 212 209
f 111 213 113
f 111 113 112
f 111 210 214
f 111 214 215
f 111 215 216
f 111 216 217
f 111 217 119
f 111 119 114
f 111 114 213
f 113 213 114
f 114 119 115
f 116 218 219
f 116 219 220
f 116 220 221
f 116 221 117
f 116 121 218
f 117 221 118
f 118 221 222
f 118 222 223
f 119 122 120
f 119 217 122
f 121 122 224
f 121 224 225
f 121 225 226
f 121 226 218
f 122 217 227
f 122 227 224
f 123 124 193
f 123 193 194
f 125 228 229
f 125 229 230
f 125 230 231
f 125 231 232
f 125 232 233
f 125 233 234
f 125 234 235
f 125 235 236
f 125 236 237
f 125 237 238
f 125 238 239
f 125 239 240
f 125 240 241
f 125 241 242
f 125 242 243
f 125 243 244
f 125 244 245
f 125 245 246
f 125 246 247
f 125 247 248
f 125 248 249
f 125 249 250
f 125 250 251
f 125 251 252
f 125 252 253
f 125 253 254
f 125 254 255
f 125 255 256
f 125 256 257
f 125 257 258
f 125 258 259
f 125 259 260
f 125 260 261
f 125 261 262
f 125 262 263
f 125 263 264
f 125 264 265
f 125 265 266
f 125 266 267
f 125 267 268
f 125 268 269
f 125 269 270
f 125 270 271
f 125 271 272
f 125 272 273
f 125 273 274
f 125 274 275
f 125 275 276
f 125 276 277
f 125 277 278
f 125 278 279
f 125 279 280
f 125 280 281
f 125 281 282
f 125 282 283
f 125 283 284
f 125 284 285
f 125 285 286
f 125 286 126
f 126 286 287
f 126 287 288
f 126 288 289
f 126 289 290
f 126 290 291
f 126 291 292
f 126 292 293
f 126 293 294
f 126 294 295
f 126 295 296
f 126 296 297
f 126 297 298
f 126 298 299
f 126 299 300
f 126 300 301
f 126 301 302
f 126 302 303
f 126 303 304
f 126 304 305
f 126 305 306
f 126 306 307
f 126 307 308
f 126 308 309
f 126 309 310
f 126 310 311
f 126 311 312
f 126 312 313
f 126 313 314
f 126 314 315
f 126 315 127
f 127 316 128
f 127 315 316
f 128 316 317
f 128 317 318
f 128 318 129
f 129 318 130
f 130 318 131
f 131 318 319
f 131 319 132
f 132 319 320
f 132 320 133
f 133 320 321
f 133 321 322
f 133 322 134
f 134 322 323
f 134 323 324
f 134 324 325
f 134 325 135
f 135 325 136
f 136 325 324
f 136 324 326
f 136 326 327
f 136 327 328
f 136 328 137
f 137 328 138
f 138 328 139
f 139 328 329
f 139 329 330
f 139 330 140
f 140 330 329
f 140 329 331
f 140 331 332
f 140 332 141
f 141 332 142
f 142 332 333
f 142 333 143
f 143 333 334
f 143 334 144
f 144 334 335
f 144 335 145
f 145 335 336
f 145 336 337
f 145 337 146
f 146 337 338
f 146 338 147
f 147 338 339
f 147 339 340
f 147 340 341
f 147 341 148
f 148 152 149
f 148 341 152
f 150 153 342
f 150 342 151
f 151 342 154
f 152 341 343
f 152 343 344
f 152 344 153
f 153 344 345
f 153 345 346
f 153 346 347
f 153 347 348
f 153 348 342
f 154 349 350
f 154 350 156
f 154 156 155
f 154 342 349
f 156 350 351
f 156 351 157
f 157 351 158
f 158 351 159
f 159 352 353
f 159 353 160
f 159 351 352
f 160 353 161
f 161 353 354
f 161 354 355
f 161 355 162
f 162 355 163
f 163 354 164
f 163 355 354
f 164 354 356
f 164 356 165
f 165 356 166
f 166 356 167
f 167 356 357
f 167 357 168
f 168 357 358
f 168 358 170
f 170 359 360
f 170 360 171
f 170 358 359
f 171 361 172
f 171 360 361
f 172 361 173
f 173 362 174
f 173 361 362
f 174 362 175
f 175 362 363
f 175 363 176
f 176 364 177
f 176 363 364
f 177 364 365
f 177 365 178
f 178 365 180
f 178 180 179
f 180 365 366
f 180 366 181
f 181 366 182
f 182 366 183
f 183 366 184
f 184 366 367
f 184 367 185
f 185 368 369
f 185 369 186
f 185 367 368
f 186 369 187
f 187 369 188
f 188 369 189
f 189 369 370
f 189 370 371
f 189 371 190
f 190 371 191
f 191 371 193
f 191 193 192
f 193 371 372
f 193 372 373
f 193 373 194
f 194 373 374
f 194 374 195
f 195 374 375
f 195 375 197
f 196 376 198
f 196 197 377
f 196 377 378
f 196 378 376
f 197 375 377
f 198 379 199
f 198 376 379
f 199 379 200
f 200 380 201
f 200 379 381
f 200 381 380
f 201 382 383
f 201 383 202
f 201 380 382
f 202 383 384
f 202 384 385
f 202 385 203
f 203 385 386
f 203 386 204
f 204 386 387
f 204 387 208
f 204 208 206
f 206 208 207
f 208 387 211
f 209 212 210
f 210 388 214
f 210 212 388
f 211 387 212
f 212 387 388
f 214 388 215
f 215 389 216
f 215 388 389
f 216 389 217
f 217 224 227
f 217 389 224
f 218 226 390
f 218 390 391
f 218 391 392
f 218 392 393
f 218 393 219
f 219 393 220
f 220 393 394
f 220 394 395
f 220 395 222
f 220 222 221
f 222 395 396
f 222 396 223
f 223 396 397
f 224 389 398
f 224 398 225
f 225 398 399
f 225 399 390
f 225 390 226
f 228 400 401
f 228 401 229
f 229 401 402
f 229 402 403
f 229 403 404
f 229 404 230
f 230 404 405
f 230 405 406
f 230 406 231
f 231 406 232
f 232 406 233
f 233 406 407
f 233 407 234
f 234 407 408
f 234 408 409
f 234 409 235
f 235 409 236
f 236 409 237
f 237 409 410
f 237 410 238
f 238 410 411
f 238 411 239
f 239 411 412
f 239 412 413
f 239 413 414
f 239 414 415
f 239 415 240
f 240 415 241
f 241 415 242
f 242 415 416
f 242 416 243
f 243 416 417
f 243 417 244
f 244 417 418
f 244 418 245
f 245 418 419
f 245 419 246
f 246 419 420
f 246 420 247
f 247 420 248
f 248 420 421
f 248 421 249
f 249 421 250
f 250 421 251
f 251 422 423
f 251 423 252
f 251 421 422
f 252 423 253
f 253 423 254
f 254 423 255
f 255 423 424
f 255 424 256
f 256 424 257
f 257 424 425
f 257 425 258
f 258 425 426
f 258 426 259
f 259 426 260
f 260 426 427
f 260 427 261
f 261 427 428
f 261 428 262
f 262 428 263
f 263 428 429
f 263 429 430
f 263 430 264
f 264 430 431
f 264 431 265
f 265 431 432
f 265 432 433
f 265 433 266
f 266 433 434
f 266 434 267
f 267 434 268
f 268 434 435
f 268 435 269
f 269 435 270
f 270 435 436
f 270 436 271
f 271 436 437
f 271 437 272
f 272 437 438
f 272 438 273
f 273 438 439
f 273 439 274
f 274 439 275
f 275 439 440
f 275 440 276
f 276 441 277
f 276 440 441
f 277 441 442
f 277 442 278
f 278 443 279
f 278 442 443
f 279 443 280
f 280 443 444
f 280 444 281
f 281 444 282
f 282 444 445
f 282 445 283
f 283 446 447
f 283 447 284
f 283 445 446
f 284 447 448
f 284 448 285
f 285 448 286
f 286 448 287
f 287 448 449
f 287 449 450
f 287 450 288
f 288 450 289
f 289 450 451
f 289 451 452
f 289 452 290
f 290 452 291
f 291 452 453
f 291 453 292
f 292 453 454
f 292 454 293
f 293 454 455
f 293 455 294
f 294 455 295
f 295 455 456
f 295 456 457
f 295 457 296
f 296 457 458
f 296 458 459
f 296 459 297
f 297 459 460
f 297 460 298
f 298 460 299
f 299 460 461
f 299 461 300
f 300 461 462
f 300 462 301
f 301 462 463
f 301 463 464
f 301 464 465
f 301 465 466
f 301 466 302
f 302 466 467
f 302 467 303
f 303 467 468
f 303 468 469
f 303 469 304
f 304 469 305
f 305 469 306
f 306 469 470
f 306 470 471
f 306 471 307
f 307 471 308
f 308 471 472
f 308 472 309
f 309 472 473
f 309 473 310
f 310 473 311
f 311 473 474
f 311 474 475
f 311 475 476
f 311 476 312
f 312 476 477
f 312 477 313
f 313 477 314
f 314 477 478
f 314 478 315
f 315 478 479
f 315 479 480
f 315 480 481
f 315 481 316
f 316 481 317
f 317 482 318
f 317 481 482
f 318 482 319
f 319 321 320
f 319 482 321
f 321 483 484
f 321 484 322
f 321 482 483
f 322 324 323
f 322 484 324
f 324 484 485
f 324 485 486
f 324 486 487
f 324 487 328
f 324 328 326
f 326 328 327
f 328 487 488
f 328 488 489
f 328 489 490
f 328 490 491
f 328 491 329
f 329 491 492
f 329 492 331
f 331 492 332
f 332 492 333
f 333 492 334
f 334 492 335
f 335 493 336
f 335 492 493
f 336 339 338
f 336 338 337
f 336 493 494
f 336 494 339
f 339 494 495
f 339 495 340
f 340 345 344
f 340 344 343
f 340 343 341
f 340 495 345
f 342 348 349
f 345 495 496
f 345 496 346
f 346 496 347
f 347 349 348
f 347 496 497
f 347 497 498
f 347 498 499
f 347 499 500
f 347 500 349
f 349 500 501
f 349 501 350
f 350 501 502
f 350 502 351
f 351 502 352
f 352 502 503
f 352 503 504
f 352 504 353
f 353 504 503
f 353 503 505
f 353 505 506
f 353 506 507
f 353 507 354
f 354 507 356
f 356 508 509
f 356 509 357
f 356 507 510
f 356 510 508
f 357 509 511
f 357 511 512
f 357 512 513
f 357 513 359
f 357 359 358
f 359 513 361
f 359 361 360
f 361 514 515
f 361 515 362
f 361 513 516
f 361 516 514
f 362 515 517
f 362 517 363
f 363 517 364
f 364 517 365
f 365 518 519
f 365 519 366
f 365 517 520
f 365 520 518
f 366 519 521
f 366 521 367
f 367 521 519
f 367 519 522
f 367 522 368
f 368 522 523
f 368 523 369
f 369 523 524
f 369 524 525
f 369 525 370
f 370 525 526
f 370 526 527
f 370 527 371
f 371 527 528
f 371 528 372
f 372 528 529
f 372 529 373
f 373 530 374
f 373 529 531
f 373 531 532
f 373 532 530
f 374 530 375
f 375 530 532
f 375 532 377
f 376 381 379
f 376 378 533
f 376 533 534
f 376 534 535
f 376 535 381
f 377 533 378
f 377 532 536
f 377 536 533
f 380 537 538
f 380 538 382
f 380 381 535
f 380 535 534
f 380 534 539
f 380 539 537
f 382 538 540
f 382 540 541
f 382 541 542
f 382 542 383
f 383 542 543
f 383 543 385
f 383 385 384
f 385 543 386
f 386 543 544
f 386 544 387
f 387 544 545
f 387 545 388
f 388 546 547
f 388 547 389
f 388 545 546
f 389 547 548
f 389 548 398
f 390 549 391
f 390 399 550
f 390 550 549
f 391 551 392
f 391 549 551
f 392 551 552
f 392 552 393
f 393 553 394
f 393 552 553
f 394 554 555
f 394 555 556
f 394 556 557
f 394 557 558
f 394 558 395
f 394 553 554
f 395 558 396
f 396 558 397
f 397 558 559
f 398 548 560
f 398 560 399
f 399 560 550
f 400 561 562
f 400 562 401
f 401 562 563
f 401 563 402
f 402 563 564
f 402 564 565
f 402 565 566
f 402 566 567
f 402 567 403
f 403 567 568
f 403 568 404
f 404 568 569
f 404 569 405
f 405 570 406
f 405 569 571
f 405 571 570
f 406 570 408
f 406 408 407
f 408 572 409
f 408 570 573
f 408 573 413
f 408 413 410
f 408 410 572
f 409 572 410
f 410 413 411
f 411 413 412
f 413 573 574
f 413 574 575
f 413 575 576
f 413 576 416
f 413 416 415
f 413 415 414
f 416 576 417
f 417 577 418
f 417 576 577
f 418 577 419
f 419 577 576
f 419 576 578
f 419 578 420
f 420 578 421
f 421 423 422
f 421 578 579
f 421 579 423
f 423 579 424
f 424 580 425
f 424 579 580
f 425 580 581
f 425 581 426
f 426 581 582
f 426 582 427
f 427 582 583
f 427 583 428
f 428 583 431
f 428 431 429
f 429 431 430
f 431 584 585
f 431 585 434
f 431 434 433
f 431 433 432
f 431 583 586
f 431 586 584
f 434 585 435
f 435 587 436
f 435 585 587
f 436 587 588
f 436 588 437
f 437 588 589
f 437 589 438
f 438 589 439
f 439 589 440
f 440 589 441
f 441 589 590
f 441 590 442
f 442 591 443
f 442 590 592
f 442 592 591
f 443 591 444
f 444 592 445
f 444 591 592
f 445 592 446
f 446 592 593
f 446 593 447
f 447 594 448
f 447 593 595
f 447 595 594
f 448 596 449
f 448 594 596
f 449 596 597
f 449 597 598
f 449 598 450
f 450 598 599
f 450 599 451
f 451 599 600
f 451 600 452
f 452 600 601
f 452 601 453
f 453 601 602
f 453 602 455
f 453 455 454
f 455 603 604
f 455 604 605
f 455 605 457
f 455 457 456
f 455 602 603
f 457 605 606
f 457 606 459
f 457 459 458
f 459 606 461
f 459 461 460
f 461 606 605
f 461 605 463
f 461 463 462
f 463 607 608
f 463 608 465
f 463 465 464
f 463 605 607
f 465 608 609
f 465 609 610
f 465 610 467
f 465 467 466
f 467 610 468
f 468 610 611
f 468 611 612
f 468 612 469
f 469 612 470
f 470 613 614
f 470 614 471
f 470 612 613
f 471 614 472
f 472 614 615
f 472 615 473
f 473 615 474
f 474 615 613
f 474 613 616
f 474 616 617
f 474 617 475
f 475 617 618
f 475 618 476
f 476 618 477
f 477 618 619
f 477 619 479
f 477 479 478
f 479 620 621
f 479 621 480
f 479 619 620
f 480 621 481
f 481 621 482
f 482 621 622
f 482 622 623
f 482 623 624
f 482 624 483
f 483 624 625
f 483 625 484
f 484 625 485
f 485 625 486
f 486 626 487
f 486 625 626
f 487 626 488
f 488 626 489
f 489 627 490
f 489 626 627
f 490 627 491
f 491 628 492
f 491 627 628
f 492 628 629
f 492 629 630
f 492 630 631
f 492 631 493
f 493 631 632
f 493 632 630
f 493 630 633
f 493 633 494
f 494 633 634
f 494 634 495
f 495 634 635
f 495 635 636
f 495 636 496
f 496 636 637
f 496 637 497
f 497 637 638
f 497 638 498
f 498 638 499
f 499 639 500
f 499 638 640
f 499 640 639
f 500 639 641
f 500 641 501
f 501 641 642
f 501 642 503
f 501 503 502
f 503 642 643
f 503 643 644
f 503 644 645
f 503 645 646
f 503 646 505
f 505 646 507
f 505 507 506
f 507 646 510
f 508 647 509
f 508 510 646
f 508 646 647
f 509 647 511
f 511 647 648
f 511 648 649
f 511 649 512
f 512 649 513
f 513 649 514
f 513 514 516
f 514 649 650
f 514 650 515
f 515 651 517
f 515 650 652
f 515 652 651
f 517 651 653
f 517 653 654
f 517 654 520
f 518 520 654
f 518 654 655
f 518 655 656
f 518 656 519
f 519 656 522
f 522 656 657
f 522 657 658
f 522 658 526
f 522 526 524
f 522 524 523
f 524 526 525
f 526 658 659
f 526 659 660
f 526 660 529
f 526 529 528
f 526 528 527
f 529 660 531
f 531 660 661
f 531 661 532
f 532 661 662
f 532 662 536
f 533 536 663
f 533 663 534
f 534 664 539
f 534 663 664
f 536 665 666
f 536 666 667
f 536 667 663
f 536 662 668
f 536 668 665
f 537 539 664
f 537 664 538
f 538 664 663
f 538 663 669
f 538 669 670
f 538 670 671
f 538 671 672
f 538 672 540
f 540 673 674
f 540 674 541
f 540 672 673
f 541 674 675
f 541 675 542
f 542 675 543
f 543 675 676
f 543 676 544
f 544 676 545
f 545 676 546
f 546 676 677
f 546 677 548
f 546 548 547
f 548 677 560
f 549 550 678
f 549 678 679
f 549 679 680
f 549 680 681
f 549 681 551
f 550 560 678
f 551 681 552
f 552 681 553
f 553 681 554
f 554 681 682
f 554 682 683
f 554 683 555
f 555 683 684
f 555 684 685
f 555 685 686
f 555 686 687
f 555 687 556
f 556 687 688
f 556 688 689
f 556 689 690
f 556 690 557
f 557 690 558
f 558 690 559
f 560 677 678
f 561 691 692
f 561 692 562
f 562 692 563
f 563 692 693
f 563 693 694
f 563 694 695
f 563 695 696
f 563 696 697
f 563 697 564
f 564 697 698
f 564 698 699
f 564 699 670
f 564 670 565
f 565 670 566
f 566 670 567
f 567 670 700
f 567 700 701
f 567 701 568
f 568 701 702
f 568 702 703
f 568 703 704
f 568 704 569
f 569 704 571
f 570 571 705
f 570 705 706
f 570 706 573
f 571 704 705
f 573 706 707
f 573 707 574
f 574 707 708
f 574 708 709
f 574 709 710
f 574 710 711
f 574 711 712
f 574 712 713
f 574 713 575
f 575 713 578
f 575 578 576
f 578 713 714
f 578 714 715
f 578 715 579
f 579 715 716
f 579 716 717
f 579 717 580
f 580 718 719
f 580 719 581
f 580 717 718
f 581 719 720
f 581 720 721
f 581 721 582
f 582 722 723
f 582 723 583
f 582 721 722
f 583 723 724
f 583 724 586
f 584 586 724
f 584 724 725
f 584 725 585
f 585 725 726
f 585 726 727
f 585 727 587
f 587 728 729
f 587 729 730
f 587 730 731
f 587 731 589
f 587 589 732
f 587 732 588
f 587 727 728
f 588 732 589
f 589 730 733
f 589 733 590
f 589 731 730
f 590 734 592
f 590 733 730
f 590 730 729
f 590 729 734
f 592 735 736
f 592 736 593
f 592 734 735
f 593 736 595
f 594 595 736
f 594 736 737
f 594 737 596
f 596 738 739
f 596 739 597
f 596 737 740
f 596 740 738
f 597 739 598
f 598 741 599
f 598 739 741
f 599 741 742
f 599 742 600
f 600 742 743
f 600 743 601
f 601 743 744
f 601 744 602
f 602 744 745
f 602 745 603
f 603 745 746
f 603 746 604
f 604 746 747
f 604 747 748
f 604 748 605
f 605 748 747
f 605 747 749
f 605 749 750
f 605 750 607
f 607 751 752
f 607 752 753
f 607 753 754
f 607 754 610
f 607 610 609
f 607 609 608
f 607 750 751
f 610 754 611
f 611 754 755
f 611 755 612
f 612 755 613
f 613 755 754
f 613 754 756
f 613 756 757
f 613 757 758
f 613 758 616
f 613 615 614
f 616 758 759
f 616 759 760
f 616 760 761
f 616 761 617
f 617 761 618
f 618 761 619
f 619 761 620
f 620 762 622
f 620 622 621
f 620 761 762
f 622 762 763
f 622 763 764
f 622 764 623
f 623 764 625
f 623 625 624
f 625 765 626
f 625 764 766
f 625 766 765
f 626 767 768
f 626 768 627
f 626 765 767
f 627 768 769
f 627 769 770
f 627 770 630
f 627 630 628
f 628 630 629
f 630 632 631
f 630 770 771
f 630 771 633
f 633 771 634
f 634 771 772
f 634 772 773
f 634 773 635
f 635 773 774
f 635 774 636
f 636 774 775
f 636 775 776
f 636 776 637
f 637 776 777
f 637 777 638
f 638 777 778
f 638 778 779
f 638 779 780
f 638 780 640
f 639 640 781
f 639 781 782
f 639 782 641
f 640 783 781
f 640 780 784
f 640 784 785
f 640 785 783
f 641 782 643
f 641 643 642
f 643 782 644
f 644 782 785
f 644 785 786
f 644 786 787
f 644 787 645
f 645 787 788
f 645 788 646
f 646 788 647
f 647 789 790
f 647 790 649
f 647 649 648
f 647 788 789
f 649 791 650
f 649 790 791
f 650 792 652
f 650 791 792
f 651 652 793
f 651 793 794
f 651 794 653
f 652 792 793
f 653 794 654
f 654 795 655
f 654 794 796
f 654 796 795
f 655 795 797
f 655 797 656
f 656 797 657
f 657 798 659
f 657 659 658
f 657 797 798
f 659 799 668
f 659 668 660
f 659 798 799
f 660 668 661
f 661 668 662
f 663 667 800
f 663 800 801
f 663 801 802
f 663 802 669
f 665 668 803
f 665 803 804
f 665 804 666
f 666 804 667
f 667 804 805
f 667 805 800
f 668 799 804
f 668 804 803
f 669 700 670
f 669 802 700
f 670 699 806
f 670 806 672
f 670 672 671
f 672 806 699
f 672 699 807
f 672 807 808
f 672 808 809
f 672 809 673
f 673 810 675
f 673 675 674
f 673 809 678
f 673 678 810
f 675 810 676
f 676 810 677
f 677 810 678
f 678 809 679
f 679 809 680
f 680 809 681
f 681 809 808
f 681 808 682
f 682 808 807
f 682 807 683
f 683 807 684
f 684 811 695
f 684 695 685
f 684 807 811
f 685 695 812
f 685 812 813
f 685 813 686
f 686 813 814
f 686 814 815
f 686 815 687
f 687 815 688
f 691 816 692
f 692 816 693
f 693 816 694
f 694 816 817
f 694 817 818
f 694 818 819
f 694 819 695
f 695 820 821
f 695 821 822
f 695 822 812
f 695 811 696
f 695 819 823
f 695 823 820
f 696 811 697
f 697 811 698
f 698 811 807
f 698 807 699
f 700 802 701
f 701 802 702
f 702 824 825
f 702 825 703
f 702 802 826
f 702 826 824
f 703 825 704
f 704 825 708
f 704 708 827
f 704 827 705
f 705 827 706
f 706 827 707
f 707 827 708
f 708 825 711
f 708 711 709
f 709 711 710
f 711 825 828
f 711 828 829
f 711 829 712
f 712 830 713
f 712 829 831
f 712 831 830
f 713 830 714
f 714 831 832
f 714 832 715
f 714 830 831
f 715 832 716
f 716 833 834
f 716 834 718
f 716 718 717
f 716 832 831
f 716 831 829
f 716 829 835
f 716 835 833
f 718 834 720
f 718 720 719
f 720 834 836
f 720 836 722
f 720 722 721
f 722 836 837
f 722 837 724
f 722 724 723
f 724 837 725
f 725 837 838
f 725 838 839
f 725 839 840
f 725 840 841
f 725 841 726
f 726 841 727
f 727 842 843
f 727 843 728
f 727 841 840
f 727 840 842
f 728 843 729
f 729 843 844
f 729 844 736
f 729 736 734
f 734 736 735
f 736 844 845
f 736 845 846
f 736 846 847
f 736 847 737
f 737 848 740
f 737 847 848
f 738 849 850
f 738 850 739
f 738 740 851
f 738 851 849
f 739 850 852
f 739 852 741
f 740 848 851
f 741 852 853
f 741 853 854
f 741 854 855
f 741 855 742
f 742 855 743
f 743 856 857
f 743 857 858
f 743 858 859
f 743 859 746
f 743 746 744
f 743 855 856
f 744 746 745
f 746 860 861
f 746 861 751
f 746 751 747
f 746 859 860
f 747 751 749
f 749 751 750
f 751 861 862
f 751 862 863
f 751 863 753
f 751 753 752
f 753 863 754
f 754 863 864
f 754 864 756
f 756 865 757
f 756 864 863
f 756 863 865
f 757 865 759
f 757 759 758
f 759 865 866
f 759 866 760
f 760 867 762
f 760 762 761
f 760 866 868
f 760 868 867
f 762 869 763
f 762 867 869
f 763 870 764
f 763 869 871
f 763 871 870
f 764 870 766
f 765 766 767
f 766 872 767
f 766 870 872
f 767 873 768
f 767 872 873
f 768 873 769
f 769 873 874
f 769 874 771
f 769 771 770
f 771 874 772
f 772 874 875
f 772 875 773
f 773 875 876
f 773 876 774
f 774 876 775
f 775 876 776
f 776 876 877
f 776 877 778
f 776 778 777
f 778 877 878
f 778 878 879
f 778 879 880
f 778 880 779
f 779 880 881
f 779 881 882
f 779 882 780
f 780 882 784
f 781 783 785
f 781 785 782
f 784 882 883
f 784 883 884
f 784 884 785
f 785 884 885
f 785 885 786
f 786 885 886
f 786 886 787
f 787 886 788
f 788 886 789
f 789 886 887
f 789 887 791
f 789 791 790
f 791 887 888
f 791 888 792
f 792 888 889
f 792 889 793
f 793 889 890
f 793 890 794
f 794 890 891
f 794 891 796
f 795 892 797
f 795 796 891
f 795 891 892
f 797 893 894
f 797 894 798
f 797 892 893
f 798 894 895
f 798 895 896
f 798 896 799
f 799 896 804
f 800 802 801
f 800 805 897
f 800 897 898
f 800 898 802
f 802 898 899
f 802 899 826
f 804 896 805
f 805 898 897
f 805 896 900
f 805 900 898
f 812 822 901
f 812 901 814
f 812 814 813
f 818 902 823
f 818 823 819
f 820 903 821
f 820 823 902
f 820 902 904
f 820 904 903
f 821 903 905
f 821 905 906
f 821 906 901
f 821 901 822
f 824 826 907
f 824 907 908
f 824 908 825
f 825 909 828
f 825 908 910
f 825 910 909
f 826 899 911
f 826 911 912
f 826 912 907
f 828 909 833
f 828 833 835
f 828 835 829
f 833 909 834
f 834 909 836
f 836 909 837
f 837 909 913
f 837 913 838
f 838 913 840
f 838 840 839
f 840 913 914
f 840 914 915
f 840 915 916
f 840 916 917
f 840 917 918
f 840 918 919
f 840 919 842
f 842 919 843
f 843 920 844
f 843 919 921
f 843 921 920
f 844 921 845
f 844 920 921
f 845 921 846
f 846 921 847
f 847 851 848
f 847 921 922
f 847 922 851
f 849 851 916
f 849 916 915
f 849 915 923
f 849 923 924
f 849 924 850
f 850 924 852
f 851 922 925
f 851 925 926
f 851 926 916
f 852 924 923
f 852 923 853
f 853 927 928
f 853 928 854
f 853 923 929
f 853 929 927
f 854 928 930
f 854 930 855
f 855 930 931
f 855 931 932
f 855 932 857
f 855 857 856
f 857 932 933
f 857 933 858
f 858 933 934
f 858 934 860
f 858 860 859
f 860 934 933
f 860 933 935
f 860 935 936
f 860 936 937
f 860 937 861
f 861 937 862
f 862 938 939
f 862 939 865
f 862 865 863
f 862 937 938
f 865 940 866
f 865 939 940
f 866 941 868
f 866 940 941
f 867 868 942
f 867 942 943
f 867 943 869
f 868 941 942
f 869 943 871
f 870 871 944
f 870 944 872
f 871 943 945
f 871 945 946
f 871 946 944
f 872 944 947
f 872 947 873
f 873 948 874
f 873 947 949
f 873 949 948
f 874 948 950
f 874 950 875
f 875 950 948
f 875 948 949
f 875 949 951
f 875 951 876
f 876 951 952
f 876 952 953
f 876 953 878
f 876 878 954
f 876 954 877
f 877 954 878
f 878 953 955
f 878 955 879
f 879 955 956
f 879 956 957
f 879 957 881
f 879 881 880
f 881 957 958
f 881 958 959
f 881 959 882
f 882 959 883
f 883 959 960
f 883 960 961
f 883 961 962
f 883 962 963
f 883 963 886
f 883 886 885
f 883 885 884
f 886 963 962
f 886 962 887
f 887 962 888
f 888 962 889
f 889 964 965
f 889 965 890
f 889 962 964
f 890 966 891
f 890 965 966
f 891 966 967
f 891 967 892
f 892 967 896
f 892 896 895
f 892 895 893
f 893 895 894
f 896 967 968
f 896 968 900
f 898 900 912
f 898 912 911
f 898 911 899
f 900 968 912
f 907 912 969
f 907 969 958
f 907 958 970
f 907 970 910
f 907 910 908
f 909 910 913
f 910 970 971
f 910 971 972
f 910 972 973
f 910 973 974
f 910 974 913
f 912 975 969
f 912 968 976
f 912 976 975
f 913 974 914
f 914 927 915
f 914 974 927
f 915 927 929
f 915 929 923
f 916 926 917
f 917 926 925
f 917 925 922
f 917 922 918
f 918 922 921
f 918 921 919
f 927 974 928
f 928 974 977
f 928 977 978
f 928 978 930
f 930 978 979
f 930 979 931
f 931 979 932
f 932 979 935
f 932 935 933
f 935 979 978
f 935 978 980
f 935 980 936
f 936 980 937
f 937 980 938
f 938 980 981
f 938 981 939
f 939 981 940
f 940 981 941
f 941 981 982
f 941 982 942
f 942 983 943
f 942 982 984
f 942 984 983
f 943 983 945
f 944 949 947
f 944 946 949
f 945 985 949
f 945 949 946
f 945 983 986
f 945 986 985
f 949 953 952
f 949 952 951
f 949 985 987
f 949 987 953
f 953 987 973
f 953 973 955
f 955 973 972
f 955 972 956
f 956 972 971
f 956 971 970
f 956 970 957
f 957 970 958
f 958 969 959
f 959 969 960
f 960 969 988
f 960 988 989
f 960 989 990
f 960 990 961
f 961 990 962
f 962 990 964
f 964 990 965
f 965 990 989
f 965 989 975
f 965 975 966
f 966 975 976
f 966 976 967
f 967 976 968
f 969 975 989
f 969 989 988
f 973 987 974
f 974 987 986
f 974 986 991
f 974 991 992
f 974 992 977
f 977 992 978
f 978 992 991
f 978 991 980
f 980 991 981
f 981 991 982
f 982 991 984
f 983 984 986
f 984 991 986
f 985 986 987

