# https://github.com/mikedh/trimesh
v 0.01697113 -0.00102438 0.16447319
v 0.01693301 -0.00163699 0.16447319
v 0.01657201 -0.00198350 0.16355819
v 0.01659667 -0.00102438 0.16349877
v 0.01691059 0.00102513 0.16447319
v 0.01691059 -0.00198350 0.16447319
v 0.01616840 -0.00198350 0.16253328
v 0.01619082 -0.00102438 0.16247386
v 0.01656304 0.00102513 0.16359681
v 0.01648007 0.00230356 0.16380774
v 0.01683435 0.00160580 0.16447319
v 0.01323101 -0.00198350 0.16447319
v 0.01549123 -0.00198350 0.16092312
v 0.01613476 0.00102513 0.16257189
v 0.01552710 -0.00102438 0.16092312
v 0.01663703 0.00269974 0.16447319
v 0.01539705 0.00102513 0.16092312
v 0.01463467 0.00102513 0.15931296
v 0.01449117 0.00229410 0.15964271
v 0.00797958 0.00922435 0.15007386
v 0.00834507 0.01009713 0.15137209
v 0.00841682 0.01009713 0.16447319
v -0.00593603 -0.00198350 0.13890376
v 0.01231840 -0.00198350 0.15379029
v 0.01471091 -0.00102438 0.15911094
v 0.01634554 0.00352759 0.16447319
v 0.01423779 -0.00102438 0.15808603
v 0.01224889 -0.00065776 0.15385565
v 0.01068826 -0.00104449 0.15054621
v 0.01016805 -0.00037511 0.14977975
v 0.00610727 0.00771176 0.14561770
v 0.00723066 0.00922435 0.14862709
v 0.01022410 0.01009713 0.15586389
v 0.01622669 0.00366950 0.16431871
v 0.00642343 0.00922435 0.14709121
v 0.00623284 0.01009713 0.14745067
v 0.01317495 0.01009713 0.16447319
v -0.00593603 0.01009713 0.14207951
v -0.00593603 -0.00198350 0.13428124
v 0.01227803 -0.00198350 0.15370414
v 0.01244621 0.01009713 0.16207874
v 0.01295072 0.01009713 0.16368296
v 0.01344402 0.00957559 0.16447319
v 0.01030707 -0.00174106 0.14953912
v 0.00582699 0.00922435 0.14606629
v 0.00969941 -0.00104449 0.14876672
v 0.00859845 -0.00102438 0.14699317
v 0.00448162 0.00717484 0.14299154
v 0.00427533 0.00854078 0.14328565
v 0.01023532 0.01009713 0.15589360
v 0.00494353 0.01009713 0.14548699
v -0.00593603 0.01009713 0.13720745
v -0.00593603 -0.00102438 0.13412379
v -0.00575216 -0.00198350 0.13429610
v 0.01030931 -0.00198350 0.14953021
v 0.00867469 -0.00198350 0.14686246
v 0.00476863 0.00922435 0.14447990
v 0.00799752 -0.00198350 0.14583754
v 0.00464306 0.00512415 0.14271526
v 0.00390535 0.00512415 0.14169035
v 0.00362731 0.00717484 0.14196663
v 0.00389190 0.00990791 0.14376691
v 0.00229091 0.00861647 0.14121502
v 0.00309140 0.00926219 0.14245383
v 0.00453992 0.01009713 0.14488392
v -0.00579925 0.01009713 0.13721933
v -0.00593603 0.00633872 0.13538043
v -0.00593603 0.00102513 0.13412973
v -0.00512432 -0.00102438 0.13419806
v -0.00512432 -0.00198350 0.13435254
v 0.00639204 -0.00198350 0.14358867
v 0.00623060 -0.00177299 0.14340745
v 0.00402643 0.00347910 0.14155072
v 0.00287839 0.00512415 0.14062087
v 0.00260258 0.00717484 0.14091200
v 0.00186712 0.00998242 0.14161905
v 0.00360713 0.01009713 0.14360352
v 0.00380221 0.01009713 0.14384415
v 0.00144557 0.00717484 0.13988709
v 0.00012486 0.00837167 0.13931670
v 0.00099487 0.00917704 0.14045153
v -0.00518262 0.01009713 0.13741244
v -0.00521626 0.00924445 0.13695196
v -0.00528128 0.00700099 0.13587358
v -0.00593603 0.00614949 0.13530022
v -0.00593603 0.00183642 0.13423668
v -0.00512432 0.00102513 0.13420400
v -0.00361975 0.00102513 0.13486054
v -0.00362872 -0.00102438 0.13486351
v -0.00452563 -0.00198350 0.13460506
v 0.00624181 -0.00198350 0.14339260
v 0.00410716 0.00211197 0.14144377
v 0.00305104 0.00286531 0.14045153
v 0.00198147 0.00361983 0.13945929
v 0.00181330 0.00512415 0.13959595
v 0.00166307 0.01009713 0.14153587
v 0.00181554 0.01009713 0.14167252
v -0.00042001 0.00973880 0.13968508
v 0.00042084 0.00717484 0.13909389
v -0.00400094 0.00429630 0.13522298
v -0.00238874 0.00767391 0.13754018
v -0.00107252 0.00912264 0.13895724
v -0.00459514 0.00994103 0.13751641
v -0.00467811 0.01009713 0.13759365
v -0.00375429 0.00857390 0.13715695
v -0.00470277 0.00566343 0.13549629
v -0.00528128 0.00503781 0.13507147
v -0.00593603 0.00600403 0.13524377
v -0.00593603 0.00307582 0.13442978
v -0.00512432 0.00307582 0.13452485
v -0.00381259 0.00307582 0.13504473
v 0.00102626 -0.00102438 0.13839873
v 0.00207789 0.00225271 0.13937909
v 0.00213619 0.00102513 0.13932858
v 0.00218328 -0.00102438 0.13928996
v -0.00373186 -0.00198350 0.13495858
v 0.00155768 -0.00198350 0.13882652
v 0.00102626 -0.00198350 0.13843141
v 0.00476639 -0.00198350 0.14176164
v 0.00425515 -0.00102438 0.14128929
v 0.00415649 0.00102513 0.14138733
v 0.00316091 0.00102513 0.14036241
v 0.00078858 0.00512415 0.13881464
v 0.00070561 0.01009713 0.14080208
v -0.00158376 0.01009713 0.13915925
v -0.00107924 0.01009713 0.13947118
v -0.00055231 0.01009713 0.13985144
v -0.00307263 0.00924445 0.13787588
v -0.00315560 0.01009713 0.13835714
v -0.00593603 0.00388711 0.13464665
v 0.00217207 -0.00198350 0.13929887
v 0.00428654 -0.00198350 0.14126552
v 0.00372821 -0.00198350 0.14071890
v 0.00265191 -0.00198350 0.13972369
f 1 2 3
f 1 3 4
f 1 4 5
f 1 5 11
f 1 11 16
f 1 16 26
f 1 26 43
f 1 43 37
f 1 37 22
f 1 22 12
f 1 12 6
f 1 6 2
f 2 6 3
f 3 6 12
f 3 12 23
f 3 23 39
f 3 39 54
f 3 54 70
f 3 70 90
f 3 90 116
f 3 116 118
f 3 118 117
f 3 117 131
f 3 131 134
f 3 134 133
f 3 133 132
f 3 132 119
f 3 119 91
f 3 91 71
f 3 71 58
f 3 58 56
f 3 56 55
f 3 55 40
f 3 40 24
f 3 24 13
f 3 13 7
f 3 7 4
f 4 7 8
f 4 8 5
f 5 8 9
f 5 9 10
f 5 10 11
f 7 13 8
f 8 14 9
f 8 13 15
f 8 15 14
f 9 14 10
f 10 16 11
f 10 14 17
f 10 17 18
f 10 18 19
f 10 19 20
f 10 20 21
f 10 21 16
f 12 22 23
f 13 24 15
f 14 15 17
f 15 25 17
f 15 24 25
f 16 21 26
f 17 25 27
f 17 27 28
f 17 28 18
f 18 28 29
f 18 29 30
f 18 30 31
f 18 31 19
f 19 31 20
f 20 31 32
f 20 32 21
f 21 33 34
f 21 34 26
f 21 32 35
f 21 35 36
f 21 36 51
f 21 51 65
f 21 65 78
f 21 78 77
f 21 77 97
f 21 97 96
f 21 96 124
f 21 124 127
f 21 127 126
f 21 126 125
f 21 125 129
f 21 129 104
f 21 104 82
f 21 82 66
f 21 66 52
f 21 52 38
f 21 38 22
f 21 22 37
f 21 37 42
f 21 42 41
f 21 41 50
f 21 50 33
f 22 38 23
f 23 38 52
f 23 52 67
f 23 67 85
f 23 85 108
f 23 108 130
f 23 130 109
f 23 109 86
f 23 86 68
f 23 68 53
f 23 53 39
f 24 40 28
f 24 28 27
f 24 27 25
f 26 34 41
f 26 41 42
f 26 42 43
f 28 40 44
f 28 44 29
f 29 44 30
f 30 44 31
f 31 45 35
f 31 35 32
f 31 44 46
f 31 46 47
f 31 47 48
f 31 48 49
f 31 49 45
f 33 50 34
f 34 50 41
f 35 45 36
f 36 45 51
f 37 43 42
f 39 53 54
f 40 55 44
f 44 55 56
f 44 56 47
f 44 47 46
f 45 49 57
f 45 57 51
f 47 56 58
f 47 58 48
f 48 59 60
f 48 60 61
f 48 61 49
f 48 58 59
f 49 62 57
f 49 61 63
f 49 63 64
f 49 64 62
f 51 57 65
f 52 66 67
f 53 68 87
f 53 87 69
f 53 69 70
f 53 70 54
f 57 62 65
f 58 71 72
f 58 72 59
f 59 72 60
f 60 72 73
f 60 73 74
f 60 74 61
f 61 74 75
f 61 75 63
f 62 64 76
f 62 76 77
f 62 77 78
f 62 78 65
f 63 75 79
f 63 79 80
f 63 80 81
f 63 81 76
f 63 76 64
f 66 82 83
f 66 83 67
f 67 83 84
f 67 84 85
f 68 86 87
f 69 87 88
f 69 88 89
f 69 89 90
f 69 90 70
f 71 91 72
f 72 91 92
f 72 92 73
f 73 92 93
f 73 93 94
f 73 94 74
f 74 94 95
f 74 95 75
f 75 95 79
f 76 96 97
f 76 97 77
f 76 81 98
f 76 98 96
f 79 95 99
f 79 99 80
f 80 99 100
f 80 100 101
f 80 101 102
f 80 102 98
f 80 98 81
f 82 103 83
f 82 104 103
f 83 103 105
f 83 105 84
f 84 106 85
f 84 105 106
f 85 106 107
f 85 107 108
f 86 109 87
f 87 109 110
f 87 110 111
f 87 111 88
f 88 112 89
f 88 111 94
f 88 94 113
f 88 113 114
f 88 114 115
f 88 115 112
f 89 116 90
f 89 112 117
f 89 117 118
f 89 118 116
f 91 119 120
f 91 120 121
f 91 121 92
f 92 121 122
f 92 122 113
f 92 113 93
f 93 113 94
f 94 123 95
f 94 111 123
f 95 123 99
f 96 98 124
f 98 102 125
f 98 125 126
f 98 126 127
f 98 127 124
f 99 123 100
f 100 111 110
f 100 110 107
f 100 107 106
f 100 106 105
f 100 105 101
f 100 123 111
f 101 105 102
f 102 105 128
f 102 128 125
f 103 104 129
f 103 129 125
f 103 125 128
f 103 128 105
f 107 110 108
f 108 110 130
f 109 130 110
f 112 115 131
f 112 131 117
f 113 122 114
f 114 122 120
f 114 120 132
f 114 132 133
f 114 133 115
f 115 133 134
f 115 134 131
f 119 132 120
f 120 122 121

