# https://github.com/mikedh/trimesh
v 0.00079668 0.06114454 0.01303738
v 0.00117067 0.06113429 0.01303738
v 0.00079668 0.06059383 0.01191600
v -0.00078812 0.06059126 0.01191943
v -0.00078812 0.06113942 0.01303738
v 0.01422774 0.06014044 0.01498865
v 0.00276482 0.06107538 0.01303738
v 0.00396160 0.06053235 0.01200311
v 0.00237680 0.06056309 0.01195715
v 0.00237680 0.06005591 0.01116567
v 0.00079668 0.06008409 0.01112452
v -0.00078812 0.06008153 0.01112795
v -0.00237292 0.06004823 0.01117939
v -0.00237292 0.06055284 0.01197087
v -0.00395772 0.06051442 0.01202848
v -0.00395772 0.06099597 0.01303738
v 0.01422306 0.06011995 0.01498865
v 0.01502715 0.05996370 0.01498865
v 0.01422306 0.06004823 0.01463200
v 0.01004368 0.06033768 0.01303738
v 0.00909467 0.06048624 0.01303738
v 0.00767817 0.06067067 0.01303738
v 0.00601390 0.06086278 0.01303738
v 0.00554173 0.06090888 0.01303738
v 0.00437767 0.06099854 0.01303738
v 0.00396160 0.06102671 0.01303738
v -0.00553784 0.06088327 0.01303738
v -0.00712264 0.06070397 0.01303738
v -0.00870744 0.06050417 0.01303738
v -0.01004915 0.06032999 0.01303738
v -0.01046054 0.06027364 0.01303738
v -0.01106828 0.06017118 0.01303738
v -0.01129735 0.06012508 0.01303738
v 0.00554173 0.06047087 0.01209776
v 0.00396160 0.06002518 0.01121163
v 0.00237680 0.05931821 0.01020616
v 0.00396160 0.05925417 0.01020616
v 0.00079668 0.05937456 0.01020616
v -0.00078812 0.05937456 0.01020616
v -0.00237292 0.05931309 0.01020616
v -0.00395772 0.05924137 0.01020616
v -0.00395772 0.06000981 0.01123769
v -0.00553784 0.06045807 0.01211559
v 0.01422306 0.05568092 0.01498865
v 0.01504117 0.05944373 0.01337277
v 0.01662597 0.05955899 0.01498865
v 0.01662597 0.05955131 0.01495504
v 0.01422306 0.05988430 0.01412515
v 0.01186223 0.05999444 0.01303738
v 0.01047845 0.06026339 0.01303738
v 0.00967904 0.06020192 0.01252710
v 0.01073089 0.06010714 0.01274178
v 0.00871133 0.06027364 0.01240982
v 0.00712653 0.06037610 0.01224316
v -0.00712264 0.06036586 0.01225756
v -0.00870744 0.06026339 0.01242834
v -0.00967983 0.06019680 0.01253671
v -0.01073636 0.06011995 0.01271434
v -0.01129735 0.06006616 0.01286797
v -0.01129735 0.05554517 0.01303738
v 0.00554173 0.05996114 0.01130628
v 0.00539213 0.05905438 0.01009094
v 0.00476102 0.05859076 0.00941331
v 0.00237680 0.05864455 0.00935432
v 0.00396160 0.05861125 0.00939136
v 0.00079668 0.05867016 0.00932552
v -0.00078812 0.05867272 0.00932415
v -0.00237292 0.05864455 0.00935227
v -0.00395772 0.05861381 0.00938793
v -0.00478986 0.05859332 0.00940988
v -0.00540695 0.05904926 0.01008476
v -0.00553784 0.05995346 0.01132479
v -0.00712264 0.05986637 0.01146608
v 0.03645233 0.04467173 0.01498865
v 0.01422306 0.05964096 0.01342832
v 0.01674285 0.05896729 0.01324383
v 0.01735059 0.05857026 0.01262930
v 0.01629405 0.05871627 0.01235907
v 0.01817805 0.05911842 0.01498865
v 0.01821077 0.05910049 0.01495504
v 0.01907096 0.05861125 0.01409978
v 0.01821077 0.05873676 0.01375685
v 0.01504117 0.05886739 0.01210804
v 0.01422306 0.05891862 0.01190572
v 0.01339560 0.05896985 0.01170133
v 0.01187625 0.05932077 0.01178843
v 0.01282526 0.05862406 0.01095169
v 0.01024003 0.05970756 0.01191463
v 0.00871133 0.05976391 0.01161766
v 0.00712653 0.05986637 0.01145168
v -0.00870744 0.05976135 0.01163617
v -0.01024082 0.05972036 0.01192080
v -0.01129735 0.05947190 0.01183507
v -0.01129735 0.04902623 0.00798192
v 0.03645233 0.03498170 0.00798192
v 0.00871133 0.05897241 0.01049833
v 0.00712653 0.05907487 0.01037077
v 0.00581755 0.05852672 0.00948601
v 0.00871133 0.05754824 0.00889823
v 0.00712653 0.05765582 0.00880632
v 0.00539213 0.05791965 0.00887011
v 0.00553705 0.05690531 0.00798192
v 0.00396160 0.05703338 0.00798192
v 0.00396160 0.05779670 0.00865818
v 0.00237680 0.05779670 0.00859096
v 0.00070318 0.05764045 0.00839961
v 0.00026841 0.05717939 0.00798192
v -0.00026920 0.05717939 0.00798192
v -0.00069462 0.05764045 0.00839824
v -0.00237292 0.05779670 0.00858822
v -0.00395772 0.05779670 0.00864858
v -0.00395772 0.05704875 0.00798192
v -0.00553317 0.05693605 0.00798192
v -0.00540695 0.05792478 0.00885776
v -0.00712264 0.05766350 0.00879741
v -0.00584639 0.05853697 0.00947572
v -0.00712264 0.05907231 0.01036391
v -0.00870744 0.05896985 0.01049559
v -0.01029224 0.05885459 0.01064579
v 0.03645233 0.05025830 0.01498865
v 0.01821077 0.05843707 0.01296537
v 0.02215641 0.05700008 0.01259295
v 0.02109988 0.05717426 0.01229460
v 0.01965065 0.05732027 0.01177472
v 0.01821077 0.05777877 0.01178912
v 0.01674285 0.05824240 0.01181450
v 0.01504117 0.05837816 0.01131794
v 0.01948703 0.05872139 0.01498865
v 0.01944495 0.05872907 0.01495504
v 0.01967870 0.05817580 0.01349279
v 0.02024904 0.05847805 0.01498865
v 0.02023502 0.05847293 0.01495504
v 0.02266130 0.05718707 0.01364917
v 0.02152530 0.05744322 0.01322119
v 0.01422306 0.05847037 0.01117528
v 0.01388179 0.05850879 0.01111629
v 0.01187625 0.05871115 0.01083578
v 0.01422306 0.05818604 0.01079943
v 0.01496170 0.05748676 0.01011357
v 0.01438201 0.05703338 0.00938519
v 0.01187625 0.05806821 0.01004430
v 0.01029145 0.05884690 0.01065540
v -0.01129735 0.05876237 0.01076582
v -0.01129735 0.05607539 0.00798192
v 0.03645233 0.04462819 0.00798192
v 0.00871133 0.05833973 0.00970617
v 0.00712653 0.05844731 0.00957928
v 0.00871133 0.05665941 0.00810675
v 0.00712653 0.05676955 0.00801416
v 0.01029145 0.05742016 0.00901482
v 0.00642061 0.05681054 0.00798192
v 0.00375123 0.05704363 0.00798192
v 0.00237680 0.05710766 0.00798192
v 0.00199346 0.05712303 0.00798192
v -0.00104524 0.05715633 0.00798192
v -0.00237292 0.05711023 0.00798192
v -0.00563602 0.05692580 0.00798192
v -0.00712264 0.05678492 0.00800524
v -0.00870744 0.05667990 0.00809097
v -0.00870744 0.05755336 0.00888314
v -0.00712264 0.05845500 0.00957174
v -0.00870744 0.05834486 0.00970411
v -0.01029224 0.05822190 0.00985431
v -0.01129735 0.05813225 0.00997434
v 0.03645233 0.05024805 0.01495641
v 0.03614379 0.05048114 0.01495504
v 0.03614846 0.05048627 0.01498865
v 0.02365239 0.05538123 0.01105457
v 0.02152530 0.05668503 0.01177472
v 0.02008542 0.05684127 0.01123975
v 0.02371316 0.05698984 0.01421706
v 0.02454529 0.05630592 0.01337277
v 0.02550366 0.05550162 0.01245303
v 0.02454529 0.05570142 0.01212999
v 0.01902888 0.05701289 0.01098667
v 0.01662597 0.05737662 0.01051685
v 0.01821077 0.05713840 0.01082343
v 0.02134297 0.05808359 0.01498865
v 0.01029145 0.05821166 0.00986392
v 0.01543854 0.05690787 0.00952304
v 0.01496170 0.05631361 0.00886668
v 0.01390049 0.05554004 0.00798192
v 0.01345637 0.05712816 0.00929122
v -0.01129735 0.05645705 0.00828644
v -0.01029224 0.05655439 0.00819934
v -0.01029224 0.05627775 0.00798192
v 0.03599419 0.04500472 0.00798192
v 0.03645233 0.04465892 0.00800181
v 0.01187625 0.05727672 0.00914445
v 0.01029145 0.05652109 0.00822334
v 0.01029145 0.05621627 0.00798192
v 0.00909467 0.05643144 0.00798192
v 0.00871133 0.05649804 0.00798192
v 0.00712653 0.05672857 0.00798192
v -0.00663645 0.05681310 0.00798192
v -0.00707122 0.05676187 0.00798192
v -0.00870744 0.05654158 0.00798192
v -0.01029224 0.05743041 0.00899150
v -0.01129735 0.05734076 0.00907792
v 0.03645233 0.04995605 0.01419991
v 0.03506388 0.05082182 0.01382475
v 0.03538177 0.05100369 0.01498865
v 0.02454529 0.05518656 0.01133988
v 0.02694821 0.05385460 0.01097706
v 0.02612542 0.05404159 0.01073838
v 0.02445180 0.05431054 0.01016981
v 0.02386276 0.05388278 0.00937147
v 0.02260053 0.05558359 0.01079188
v 0.02137570 0.05581669 0.01050999
v 0.02309607 0.05737918 0.01482953
v 0.02343734 0.05728953 0.01498865
v 0.02438167 0.05691299 0.01498865
v 0.02456400 0.05679773 0.01482953
v 0.02612542 0.05614968 0.01495504
v 0.02702768 0.05547345 0.01403119
v 0.02606932 0.05567580 0.01345027
v 0.02656019 0.05525060 0.01297566
v 0.02868728 0.05394169 0.01241942
v 0.02756997 0.05412356 0.01184948
v 0.01969740 0.05618041 0.01024114
v 0.01821077 0.05648267 0.01003126
v 0.01662597 0.05672857 0.00972469
v 0.01931406 0.05551955 0.00931454
v 0.01821077 0.05569118 0.00915131
v 0.01662597 0.05593964 0.00893526
v 0.01523752 0.05523267 0.00798192
v 0.01504117 0.05528390 0.00798192
v 0.01496170 0.05530439 0.00798192
v 0.01662597 0.05504056 0.00814310
v 0.01347975 0.05608820 0.00838589
v 0.01103476 0.05608051 0.00798192
v 0.01187625 0.05637252 0.00835297
v -0.01129735 0.05702057 0.00879055
v 0.03562487 0.04550421 0.00812046
v 0.03512465 0.04570145 0.00798192
v 0.03645233 0.04525575 0.00842361
v 0.03645233 0.04961793 0.01335974
v 0.03560149 0.05021731 0.01332750
v 0.03469923 0.05058104 0.01276853
v 0.03411954 0.05120604 0.01332750
v 0.03318923 0.05221782 0.01428770
v 0.03399332 0.05187202 0.01487137
v 0.03385775 0.05199497 0.01498865
v 0.02800474 0.05357796 0.01136389
v 0.03007106 0.05224856 0.01100724
v 0.02901452 0.05252520 0.01066020
v 0.02756530 0.05296833 0.01028983
v 0.02712118 0.05235870 0.00931317
v 0.02612542 0.05338073 0.00994622
v 0.02491461 0.05364968 0.00961769
v 0.02612542 0.05258667 0.00911084
v 0.02445180 0.05309384 0.00891332
v 0.02347941 0.05239456 0.00798192
v 0.02304465 0.05298114 0.00832485
v 0.02296050 0.05405183 0.00921166
v 0.02036591 0.05534537 0.00949629
v 0.02137570 0.05514814 0.00971783
v 0.02610205 0.05616505 0.01498865
v 0.02727078 0.05562458 0.01498865
v 0.02729883 0.05560664 0.01495504
v 0.02808889 0.05521474 0.01495504
v 0.02929034 0.05459486 0.01495504
v 0.03015053 0.05387509 0.01407783
v 0.02924827 0.05411075 0.01347839
v 0.02761672 0.05493810 0.01345027
v 0.02974381 0.05364456 0.01302161
v 0.03174935 0.05230235 0.01250241
v 0.01972545 0.05460511 0.00863760
v 0.01821077 0.05479722 0.00836051
v 0.01662597 0.05483564 0.00798192
v 0.01880916 0.05415941 0.00798192
v 0.01720566 0.05466403 0.00798192
v 0.03645233 0.04627521 0.00916571
v 0.03555474 0.04669785 0.00895790
v 0.03455431 0.04613689 0.00798192
v 0.03645233 0.04921834 0.01252779
v 0.03645233 0.04917223 0.01244343
v 0.03552669 0.04943094 0.01188514
v 0.03364270 0.05091915 0.01220132
v 0.03287134 0.05201803 0.01337277
v 0.03207660 0.05249446 0.01337277
v 0.03118369 0.05357028 0.01495504
v 0.03258149 0.05274548 0.01487137
v 0.03279186 0.05265071 0.01498865
v 0.03019728 0.05073473 0.00935501
v 0.02944462 0.05186434 0.01016226
v 0.02817771 0.05207694 0.00960329
v 0.03087514 0.05201034 0.01134194
v 0.03307703 0.05056055 0.01114716
v 0.03202050 0.05088073 0.01074456
v 0.03078164 0.05114713 0.01021233
v 0.02666304 0.05095245 0.00798192
v 0.02627034 0.05144938 0.00822609
v 0.02929034 0.05098063 0.00914719
v 0.02767282 0.05151598 0.00886325
v 0.02454529 0.05200009 0.00802787
v 0.02427415 0.05205901 0.00798192
v 0.02184319 0.05303237 0.00798192
v 0.02137570 0.05343452 0.00815339
v 0.02137570 0.05435665 0.00894555
v 0.02809356 0.05521986 0.01498865
v 0.03039363 0.05400829 0.01495504
v 0.02926697 0.05461279 0.01498865
v 0.03039830 0.05401341 0.01498865
v 0.03075827 0.05328083 0.01347839
v 0.01921588 0.05402366 0.00798192
v 0.02012749 0.05370091 0.00798192
v 0.03645233 0.04655953 0.00940988
v 0.03497973 0.04761230 0.00932346
v 0.03414292 0.04674140 0.00821306
v 0.03293211 0.04728699 0.00798192
v 0.03293679 0.04728956 0.00798535
v 0.03645233 0.04855492 0.01160119
v 0.03598484 0.04877264 0.01142150
v 0.03493298 0.04915430 0.01091945
v 0.03411954 0.05027366 0.01171916
v 0.03118836 0.05357540 0.01498865
v 0.02936514 0.04985615 0.00828644
v 0.02771022 0.05043504 0.00801004
v 0.03124914 0.05041198 0.00968834
v 0.03317053 0.04903391 0.00946406
v 0.03211867 0.04935410 0.00918149
v 0.03078164 0.04988176 0.00895927
v 0.03087514 0.04873166 0.00809714
v 0.03259552 0.04995860 0.01010397
v 0.03404474 0.04945143 0.01057927
v 0.02757932 0.05046834 0.00798192
v 0.02454529 0.05193862 0.00798192
v 0.03645233 0.04704109 0.00986940
v 0.03603626 0.04721015 0.00970411
v 0.03548462 0.04819119 0.01031110
v 0.03404474 0.04794017 0.00906626
v 0.03404474 0.04873166 0.00978847
v 0.03206725 0.04784796 0.00798192
v 0.03252539 0.04833976 0.00858410
v 0.03645233 0.04807080 0.01098186
v 0.03645233 0.04781209 0.01067186
v 0.03036090 0.04888279 0.00798192
v 0.02980926 0.04920041 0.00798192
v 0.02780372 0.05034283 0.00798192
v 0.03119304 0.04838330 0.00798192
f 1 2 3
f 1 3 4
f 1 4 5
f 1 5 6
f 1 6 2
f 2 6 7
f 2 7 8
f 2 8 9
f 2 9 3
f 3 9 10
f 3 10 11
f 3 11 12
f 3 12 4
f 4 12 13
f 4 13 14
f 4 14 5
f 5 14 15
f 5 15 16
f 5 16 6
f 6 17 44
f 6 44 74
f 6 74 120
f 6 120 167
f 6 167 202
f 6 202 243
f 6 243 284
f 6 284 317
f 6 317 304
f 6 304 303
f 6 303 301
f 6 301 259
f 6 259 258
f 6 258 212
f 6 212 211
f 6 211 178
f 6 178 131
f 6 131 128
f 6 128 79
f 6 79 46
f 6 46 18
f 6 18 19
f 6 19 20
f 6 20 21
f 6 21 22
f 6 22 23
f 6 23 24
f 6 24 25
f 6 25 26
f 6 26 7
f 6 16 27
f 6 27 28
f 6 28 29
f 6 29 30
f 6 30 31
f 6 31 32
f 6 32 33
f 6 33 17
f 7 26 8
f 8 26 34
f 8 34 35
f 8 35 10
f 8 10 9
f 10 36 11
f 10 35 37
f 10 37 36
f 11 36 38
f 11 38 39
f 11 39 12
f 12 39 40
f 12 40 41
f 12 41 13
f 13 41 42
f 13 42 15
f 13 15 14
f 15 42 72
f 15 72 43
f 15 43 16
f 16 43 27
f 17 33 60
f 17 60 44
f 18 45 19
f 18 46 47
f 18 47 45
f 19 45 48
f 19 48 49
f 19 49 50
f 19 50 20
f 20 51 21
f 20 50 52
f 20 52 51
f 21 51 22
f 22 51 53
f 22 53 23
f 23 34 24
f 23 53 54
f 23 54 34
f 24 34 25
f 25 34 26
f 27 43 55
f 27 55 56
f 27 56 28
f 28 56 57
f 28 57 29
f 29 57 30
f 30 57 58
f 30 58 31
f 31 58 32
f 32 59 33
f 32 58 59
f 33 59 93
f 33 93 143
f 33 143 164
f 33 164 199
f 33 199 233
f 33 233 184
f 33 184 144
f 33 144 94
f 33 94 60
f 34 54 90
f 34 90 61
f 34 61 35
f 35 61 62
f 35 62 63
f 35 63 37
f 36 64 38
f 36 37 65
f 36 65 64
f 37 63 65
f 38 64 66
f 38 66 67
f 38 67 39
f 39 67 68
f 39 68 69
f 39 69 40
f 40 69 70
f 40 70 41
f 41 70 42
f 42 70 71
f 42 71 72
f 43 72 73
f 43 73 55
f 44 60 74
f 45 49 75
f 45 75 48
f 45 47 76
f 45 76 77
f 45 77 78
f 45 78 49
f 46 79 47
f 47 79 80
f 47 80 81
f 47 81 82
f 47 82 76
f 48 75 49
f 49 52 50
f 49 78 52
f 51 52 83
f 51 83 84
f 51 84 85
f 51 85 86
f 51 86 87
f 51 87 88
f 51 88 89
f 51 89 53
f 52 78 83
f 53 89 54
f 54 89 90
f 55 73 56
f 56 73 91
f 56 91 57
f 57 92 58
f 57 91 92
f 58 92 93
f 58 93 59
f 60 94 95
f 60 95 74
f 61 90 96
f 61 96 97
f 61 97 62
f 62 97 98
f 62 98 63
f 63 98 99
f 63 99 100
f 63 100 101
f 63 101 102
f 63 102 103
f 63 103 104
f 63 104 65
f 64 65 105
f 64 105 66
f 65 104 105
f 66 106 107
f 66 107 67
f 66 105 106
f 67 107 108
f 67 108 109
f 67 109 110
f 67 110 68
f 68 110 111
f 68 111 69
f 69 111 70
f 70 111 112
f 70 112 113
f 70 113 114
f 70 114 115
f 70 115 116
f 70 116 71
f 71 116 117
f 71 117 72
f 72 117 73
f 73 117 118
f 73 118 119
f 73 119 91
f 74 95 145
f 74 145 188
f 74 188 236
f 74 236 273
f 74 273 308
f 74 308 329
f 74 329 337
f 74 337 336
f 74 336 313
f 74 313 277
f 74 277 276
f 74 276 237
f 74 237 200
f 74 200 165
f 74 165 120
f 76 82 77
f 77 82 81
f 77 81 121
f 77 121 122
f 77 122 123
f 77 123 124
f 77 124 125
f 77 125 126
f 77 126 78
f 78 126 127
f 78 127 83
f 79 128 129
f 79 129 80
f 80 129 81
f 81 130 121
f 81 129 131
f 81 131 132
f 81 132 133
f 81 133 134
f 81 134 122
f 81 122 130
f 83 127 135
f 83 135 136
f 83 136 84
f 84 136 85
f 85 136 87
f 85 87 86
f 87 137 88
f 87 136 138
f 87 138 139
f 87 139 140
f 87 140 141
f 87 141 137
f 88 137 89
f 89 96 90
f 89 137 142
f 89 142 96
f 91 119 92
f 92 119 143
f 92 143 93
f 94 144 186
f 94 186 197
f 94 197 196
f 94 196 195
f 94 195 157
f 94 157 113
f 94 113 112
f 94 112 156
f 94 156 155
f 94 155 108
f 94 108 107
f 94 107 154
f 94 154 153
f 94 153 152
f 94 152 103
f 94 103 102
f 94 102 151
f 94 151 194
f 94 194 193
f 94 193 192
f 94 192 191
f 94 191 231
f 94 231 182
f 94 182 228
f 94 228 227
f 94 227 226
f 94 226 270
f 94 270 272
f 94 272 271
f 94 271 306
f 94 306 307
f 94 307 298
f 94 298 253
f 94 253 297
f 94 297 328
f 94 328 292
f 94 292 327
f 94 327 340
f 94 340 339
f 94 339 338
f 94 338 341
f 94 341 334
f 94 334 311
f 94 311 275
f 94 275 235
f 94 235 187
f 94 187 145
f 94 145 95
f 96 146 147
f 96 147 97
f 96 142 146
f 97 147 98
f 98 147 99
f 99 148 149
f 99 149 100
f 99 147 146
f 99 146 150
f 99 150 148
f 100 149 101
f 101 149 151
f 101 151 102
f 103 152 104
f 104 152 105
f 105 153 154
f 105 154 106
f 105 152 153
f 106 154 107
f 108 155 109
f 109 155 156
f 109 156 110
f 110 156 112
f 110 112 111
f 113 157 114
f 114 157 158
f 114 158 115
f 115 158 159
f 115 159 160
f 115 160 116
f 116 160 161
f 116 161 117
f 117 161 118
f 118 161 162
f 118 162 119
f 119 163 164
f 119 164 143
f 119 162 163
f 120 165 166
f 120 166 167
f 121 130 122
f 122 168 169
f 122 169 170
f 122 170 123
f 122 134 133
f 122 133 171
f 122 171 172
f 122 172 173
f 122 173 174
f 122 174 168
f 123 170 124
f 124 170 175
f 124 175 125
f 125 175 126
f 126 176 127
f 126 175 177
f 126 177 176
f 127 139 135
f 127 176 139
f 128 131 129
f 131 178 132
f 132 178 171
f 132 171 133
f 135 139 138
f 135 138 136
f 137 141 179
f 137 179 142
f 139 176 180
f 139 180 140
f 140 180 181
f 140 181 182
f 140 182 183
f 140 183 141
f 141 183 179
f 142 179 146
f 144 184 185
f 144 185 186
f 145 187 188
f 146 179 189
f 146 189 150
f 148 150 190
f 148 190 191
f 148 191 192
f 148 192 193
f 148 193 194
f 148 194 149
f 149 194 151
f 150 189 190
f 157 195 158
f 158 195 196
f 158 196 197
f 158 197 159
f 159 197 185
f 159 185 198
f 159 198 160
f 160 198 161
f 161 198 162
f 162 198 163
f 163 198 199
f 163 199 164
f 165 200 166
f 166 200 201
f 166 201 202
f 166 202 167
f 168 203 204
f 168 204 205
f 168 205 206
f 168 206 207
f 168 207 208
f 168 208 170
f 168 170 169
f 168 174 203
f 170 208 209
f 170 209 175
f 171 178 210
f 171 210 211
f 171 211 212
f 171 212 213
f 171 213 214
f 171 214 215
f 171 215 216
f 171 216 172
f 172 216 173
f 173 216 217
f 173 217 218
f 173 218 219
f 173 219 204
f 173 204 203
f 173 203 174
f 175 209 220
f 175 220 221
f 175 221 177
f 176 177 222
f 176 222 180
f 177 221 222
f 178 211 210
f 179 183 189
f 180 222 223
f 180 223 224
f 180 224 225
f 180 225 181
f 181 226 227
f 181 227 228
f 181 228 182
f 181 225 229
f 181 229 226
f 182 230 183
f 182 231 190
f 182 190 232
f 182 232 230
f 183 230 232
f 183 232 189
f 184 233 185
f 185 197 186
f 185 233 199
f 185 199 198
f 187 234 188
f 187 235 234
f 188 234 236
f 189 232 190
f 190 231 191
f 200 237 201
f 201 237 238
f 201 238 239
f 201 239 240
f 201 240 241
f 201 241 202
f 202 241 242
f 202 242 243
f 204 219 218
f 204 218 244
f 204 244 245
f 204 245 246
f 204 246 247
f 204 247 248
f 204 248 249
f 204 249 205
f 205 249 250
f 205 250 206
f 206 250 207
f 207 250 248
f 207 248 251
f 207 251 252
f 207 252 253
f 207 253 254
f 207 254 255
f 207 255 256
f 207 256 257
f 207 257 208
f 208 257 209
f 209 257 256
f 209 256 220
f 212 258 214
f 212 214 213
f 214 258 259
f 214 259 260
f 214 260 215
f 215 217 216
f 215 260 261
f 215 261 262
f 215 262 263
f 215 263 264
f 215 264 265
f 215 265 217
f 217 265 218
f 218 265 264
f 218 264 266
f 218 266 267
f 218 267 245
f 218 245 244
f 220 256 221
f 221 256 222
f 222 256 223
f 223 256 268
f 223 268 269
f 223 269 224
f 224 269 225
f 225 269 229
f 226 229 270
f 229 269 271
f 229 271 272
f 229 272 270
f 234 273 236
f 234 235 274
f 234 274 273
f 235 275 274
f 237 276 238
f 238 276 239
f 239 276 277
f 239 277 278
f 239 278 279
f 239 279 267
f 239 267 280
f 239 280 240
f 240 280 241
f 241 243 242
f 241 280 281
f 241 281 263
f 241 263 282
f 241 282 283
f 241 283 284
f 241 284 243
f 245 285 286
f 245 286 287
f 245 287 246
f 245 267 288
f 245 288 289
f 245 289 290
f 245 290 291
f 245 291 285
f 246 287 247
f 247 287 248
f 248 292 293
f 248 293 251
f 248 250 249
f 248 287 285
f 248 285 294
f 248 294 295
f 248 295 292
f 251 293 296
f 251 296 252
f 252 296 253
f 253 296 297
f 253 298 299
f 253 299 254
f 254 299 255
f 255 299 300
f 255 300 256
f 256 300 268
f 259 301 260
f 260 301 261
f 261 301 262
f 262 302 263
f 262 301 303
f 262 303 304
f 262 304 302
f 263 302 282
f 263 281 305
f 263 305 266
f 263 266 264
f 266 305 267
f 267 305 281
f 267 281 280
f 267 279 289
f 267 289 288
f 268 306 269
f 268 300 307
f 268 307 306
f 269 306 271
f 273 274 309
f 273 309 308
f 274 275 309
f 275 310 309
f 275 311 312
f 275 312 310
f 277 313 314
f 277 314 278
f 278 315 316
f 278 316 279
f 278 314 315
f 279 316 289
f 282 317 283
f 282 302 304
f 282 304 317
f 283 317 284
f 285 318 319
f 285 319 294
f 285 287 286
f 285 291 320
f 285 320 321
f 285 321 322
f 285 322 323
f 285 323 324
f 285 324 318
f 289 325 290
f 289 316 315
f 289 315 326
f 289 326 325
f 290 325 320
f 290 320 291
f 292 295 319
f 292 319 327
f 292 328 296
f 292 296 293
f 294 319 295
f 296 328 297
f 298 307 299
f 299 307 300
f 308 309 330
f 308 330 329
f 309 331 330
f 309 310 332
f 309 332 321
f 309 321 333
f 309 333 331
f 310 312 332
f 311 334 312
f 312 334 335
f 312 335 332
f 313 336 314
f 314 336 315
f 315 336 337
f 315 337 331
f 315 331 333
f 315 333 321
f 315 321 326
f 318 324 338
f 318 338 339
f 318 339 319
f 319 339 340
f 319 340 327
f 320 325 321
f 321 332 335
f 321 335 322
f 321 325 326
f 322 335 324
f 322 324 323
f 324 335 334
f 324 334 341
f 324 341 338
f 329 330 337
f 330 331 337

