# https://github.com/mikedh/trimesh
v -0.04384083 -0.02647599 0.01900523
v -0.04384083 -0.02400409 0.01900523
v -0.04359167 -0.02660944 0.01900523
v -0.04384083 -0.02784214 0.02673850
v -0.04384083 -0.02435681 0.02302450
v -0.02005423 -0.02660222 0.02548453
v -0.02005423 -0.02604898 0.01900523
v -0.04296294 -0.02690733 0.01900523
v -0.04211301 -0.02884547 0.02719124
v -0.04384083 -0.02789552 0.02794832
v -0.04384083 -0.02444408 0.02381539
v -0.02005423 -0.02698235 0.02662296
v -0.04384083 -0.02449602 0.02428410
v -0.04384083 -0.02465903 0.02548453
v -0.02005423 -0.02836653 0.01900523
v -0.04259968 -0.02707468 0.01900523
v -0.04211301 -0.02884547 0.02753127
v -0.04164729 -0.02746490 0.01900523
v -0.04140744 -0.02755939 0.01900523
v -0.04104884 -0.02769139 0.01900523
v -0.03861546 -0.03007313 0.02715649
v -0.04384083 -0.02787677 0.02798495
v -0.04186851 -0.02865216 0.02833062
v -0.02005423 -0.02716484 0.02690476
v -0.04384083 -0.02503122 0.02656191
v -0.04384083 -0.02508821 0.02666148
v -0.04384083 -0.02584269 0.02787975
v -0.02014737 -0.03006736 0.02715649
v -0.02095539 -0.02864712 0.01900523
v -0.02005423 -0.02998441 0.02705035
v -0.04144004 -0.02899118 0.02791169
v -0.03861546 -0.03007313 0.02763741
v -0.04049463 -0.02788470 0.01900523
v -0.03947704 -0.02821433 0.01900523
v -0.03899968 -0.02836509 0.01900523
v -0.03788893 -0.02867813 0.01900523
v -0.03752567 -0.02877262 0.01900523
v -0.03731144 -0.02882816 0.01900523
v -0.03702037 -0.02890101 0.01900523
v -0.03662218 -0.02899911 0.01900523
v -0.03591429 -0.02915708 0.01900523
v -0.03360898 -0.03120125 0.02728141
v -0.04019890 -0.02798496 0.01900523
v -0.04384083 -0.02699461 0.02852599
v -0.04350318 -0.02772096 0.02855511
v -0.04106980 -0.02887937 0.02853820
v -0.02005423 -0.02750746 0.02741480
v -0.04384083 -0.02587154 0.02791357
v -0.02340042 -0.02927176 0.01900523
v -0.02268088 -0.02910298 0.01900523
v -0.02218955 -0.02898541 0.01900523
v -0.02175410 -0.02887360 0.01900523
v -0.02153987 -0.02881734 0.01900523
v -0.02014737 -0.03006736 0.02750967
v -0.02617843 -0.03122650 0.02722694
v -0.02005423 -0.02998441 0.02731523
v -0.03832671 -0.02994113 0.02843770
v -0.03360898 -0.03120125 0.02729081
v -0.03659890 -0.03048211 0.02788445
v -0.03787497 -0.03018782 0.02797650
v -0.03539967 -0.02927032 0.01900523
v -0.03467780 -0.02939439 0.01900523
v -0.03419811 -0.02947517 0.01900523
v -0.03347858 -0.02957399 0.01900523
v -0.03299888 -0.02963819 0.01900523
v -0.03180199 -0.02976081 0.01900523
v -0.03299888 -0.03124092 0.02720345
v -0.04384083 -0.02694268 0.02853820
v -0.04019890 -0.02898757 0.02858141
v -0.04259968 -0.02787965 0.02857108
v -0.04259968 -0.02725717 0.02857108
v -0.03752800 -0.03005582 0.02852787
v -0.02005423 -0.02763441 0.02756039
v -0.04384083 -0.02686045 0.02853632
v -0.04329128 -0.02645508 0.02846024
v -0.02460197 -0.02949970 0.01900523
v -0.02005423 -0.02995195 0.02760735
v -0.02157014 -0.03000533 0.02848842
v -0.02110209 -0.03013517 0.02789948
v -0.02220119 -0.03034795 0.02788445
v -0.02617843 -0.03122650 0.02744955
v -0.02700042 -0.03127482 0.02713582
v -0.02700042 -0.02979832 0.01900523
v -0.02628089 -0.02972619 0.01900523
v -0.02580120 -0.02967714 0.01900523
v -0.02507933 -0.02957111 0.01900523
v -0.03299888 -0.03124092 0.02745894
v -0.03110108 -0.03115581 0.02846118
v -0.03060043 -0.02984015 0.01900523
v -0.03180199 -0.03130656 0.02708134
v -0.03659890 -0.03013805 0.02857671
v -0.03539967 -0.03021379 0.02860019
v -0.03539967 -0.02962665 0.02860019
v -0.02460197 -0.02974710 0.02858141
v -0.02005423 -0.02871564 0.02852129
v -0.02005423 -0.02811912 0.02802910
v -0.02005423 -0.02830017 0.02819911
v -0.02005423 -0.02962592 0.02801595
v -0.02005423 -0.02913039 0.02847339
v -0.02005423 -0.02902364 0.02852411
v -0.02220119 -0.03005366 0.02852223
v -0.02768736 -0.03117312 0.02847057
v -0.02700042 -0.03127482 0.02769753
v -0.02820198 -0.03132603 0.02703532
v -0.02748011 -0.02982500 0.01900523
v -0.03180199 -0.03130656 0.02773698
v -0.03030237 -0.03121928 0.02850063
v -0.02940121 -0.02987766 0.01900523
v -0.03060043 -0.03134551 0.02700808
v -0.02940121 -0.03122217 0.02850439
v -0.02940121 -0.03059968 0.02856544
v -0.02460197 -0.03021523 0.02858141
v -0.02340042 -0.02969156 0.02856920
v -0.02005423 -0.02882528 0.02852411
v -0.02340042 -0.03014093 0.02856920
v -0.02848607 -0.03121063 0.02849405
v -0.02813212 -0.03130728 0.02799622
v -0.02940121 -0.03137220 0.02788445
v -0.02820198 -0.02986179 0.01900523
v -0.02940121 -0.03134984 0.02698929
v -0.03066097 -0.03132820 0.02799059
f 1 2 7
f 1 7 15
f 1 15 29
f 1 29 53
f 1 53 52
f 1 52 51
f 1 51 50
f 1 50 49
f 1 49 76
f 1 76 86
f 1 86 85
f 1 85 84
f 1 84 83
f 1 83 105
f 1 105 119
f 1 119 108
f 1 108 89
f 1 89 66
f 1 66 65
f 1 65 64
f 1 64 63
f 1 63 62
f 1 62 61
f 1 61 41
f 1 41 40
f 1 40 39
f 1 39 38
f 1 38 37
f 1 37 36
f 1 36 35
f 1 35 34
f 1 34 43
f 1 43 33
f 1 33 20
f 1 20 19
f 1 19 18
f 1 18 16
f 1 16 8
f 1 8 3
f 1 3 4
f 1 4 10
f 1 10 22
f 1 22 44
f 1 44 68
f 1 68 74
f 1 74 48
f 1 48 27
f 1 27 26
f 1 26 25
f 1 25 14
f 1 14 13
f 1 13 11
f 1 11 5
f 1 5 2
f 2 5 6
f 2 6 7
f 3 8 9
f 3 9 4
f 4 9 10
f 5 11 6
f 6 12 24
f 6 24 47
f 6 47 73
f 6 73 96
f 6 96 97
f 6 97 95
f 6 95 114
f 6 114 100
f 6 100 99
f 6 99 98
f 6 98 77
f 6 77 56
f 6 56 30
f 6 30 15
f 6 15 7
f 6 11 13
f 6 13 14
f 6 14 12
f 8 16 9
f 9 17 10
f 9 16 18
f 9 18 19
f 9 19 20
f 9 20 21
f 9 21 32
f 9 32 17
f 10 17 23
f 10 23 22
f 12 14 25
f 12 25 26
f 12 26 27
f 12 27 24
f 15 28 29
f 15 30 28
f 17 31 23
f 17 32 31
f 20 33 21
f 21 34 35
f 21 35 36
f 21 36 37
f 21 37 38
f 21 38 39
f 21 39 40
f 21 40 41
f 21 41 42
f 21 42 58
f 21 58 32
f 21 33 43
f 21 43 34
f 22 23 45
f 22 45 44
f 23 31 46
f 23 46 45
f 24 27 47
f 27 48 47
f 28 49 50
f 28 50 51
f 28 51 52
f 28 52 53
f 28 53 29
f 28 30 56
f 28 56 54
f 28 54 81
f 28 81 55
f 28 55 49
f 31 32 57
f 31 57 46
f 32 58 59
f 32 59 60
f 32 60 57
f 41 61 42
f 42 61 62
f 42 62 63
f 42 63 64
f 42 64 65
f 42 65 66
f 42 66 67
f 42 67 87
f 42 87 58
f 44 45 68
f 45 46 69
f 45 69 70
f 45 70 71
f 45 71 68
f 46 57 72
f 46 72 69
f 47 48 73
f 48 74 75
f 48 75 73
f 49 55 76
f 54 56 77
f 54 77 78
f 54 78 79
f 54 79 80
f 54 80 81
f 55 81 103
f 55 103 82
f 55 82 83
f 55 83 84
f 55 84 85
f 55 85 86
f 55 86 76
f 57 60 59
f 57 59 72
f 58 87 59
f 59 87 88
f 59 88 72
f 66 89 90
f 66 90 67
f 67 90 106
f 67 106 87
f 68 71 74
f 69 71 70
f 69 72 91
f 69 91 92
f 69 92 93
f 69 93 71
f 71 93 94
f 71 94 95
f 71 95 74
f 72 88 91
f 73 75 96
f 74 95 75
f 75 95 97
f 75 97 96
f 77 98 78
f 78 98 99
f 78 99 100
f 78 100 101
f 78 101 102
f 78 102 79
f 79 102 80
f 80 102 81
f 81 102 103
f 82 103 104
f 82 104 83
f 83 104 105
f 87 106 88
f 88 106 107
f 88 107 91
f 89 108 109
f 89 109 90
f 90 109 106
f 91 107 92
f 92 107 110
f 92 110 111
f 92 111 112
f 92 112 94
f 92 94 93
f 94 112 115
f 94 115 113
f 94 113 114
f 94 114 95
f 100 115 101
f 100 114 113
f 100 113 115
f 101 115 102
f 102 116 117
f 102 117 103
f 102 115 116
f 103 117 118
f 103 118 104
f 104 119 105
f 104 118 120
f 104 120 119
f 106 109 118
f 106 118 121
f 106 121 107
f 107 121 118
f 107 118 110
f 108 120 109
f 108 119 120
f 109 120 118
f 110 118 116
f 110 116 112
f 110 112 111
f 112 116 115
f 116 118 117

