# https://github.com/mikedh/trimesh
v -0.01761721 -0.01917061 -0.00874910
v -0.01900917 -0.01943494 -0.00885677
v -0.01562941 -0.01873375 -0.00805462
v -0.01583685 -0.01862882 -0.00891960
v -0.01407615 -0.01802919 -0.00906199
v -0.01225511 -0.01728064 -0.00895725
v -0.02112184 -0.01951517 -0.00853006
v -0.02210576 -0.01944911 -0.00885022
v -0.02458508 -0.01918917 -0.00873070
v -0.02382812 -0.01916710 -0.00914595
v -0.02038979 -0.01917505 -0.00940024
v -0.02631737 -0.01880234 -0.00898327
v -0.02825413 -0.01826560 -0.00883120
v -0.01705811 -0.02154089 0.00948546
v -0.01554599 -0.02122775 0.00943798
v -0.01678946 -0.02145238 0.00973882
v -0.01522663 -0.02117607 0.00967488
v -0.01990295 -0.02192609 0.00956625
v -0.02146346 -0.02193849 0.00984816
v -0.02165183 -0.02192083 0.00944160
v -0.02273146 -0.02188515 0.00962833
v -0.02521608 -0.02152637 0.00951145
v -0.02248285 -0.01908890 -0.00946131
v -0.02707443 -0.02106192 0.00982848
v -0.02664403 -0.02120201 0.00949937
v -0.02909820 -0.02036392 0.00951634
v -0.02919378 -0.02031847 0.00986834
v -0.02692989 -0.01845037 -0.00937001
v -0.03027565 -0.01730179 -0.00942023
v -0.03086705 -0.01727706 -0.00888773
v -0.03061021 -0.01973632 0.00949706
v -0.03144265 -0.01936217 0.00977030
v -0.01472652 -0.01803946 -0.00938347
v -0.03172613 -0.01666762 -0.00939564
v -0.03296484 -0.01851829 0.00948772
v -0.03260900 -0.01606506 -0.00945037
v -0.01428904 -0.02094896 0.00947030
v -0.01275532 -0.02040524 0.00967611
v -0.03400326 -0.01776106 0.00946919
v -0.03350103 -0.01555570 -0.00881424
v -0.03379379 -0.01514935 -0.00946455
v -0.03450690 -0.01458756 -0.00917323
v -0.03235786 -0.01601863 -0.00969281
v -0.03481798 -0.01710807 0.00946469
v -0.03563691 -0.01643518 0.00946745
v -0.03645673 -0.01567305 0.00946272
v -0.01237334 -0.01706607 -0.00937653
v -0.03751533 -0.01460570 0.00951992
v -0.01466798 -0.02087355 0.00988492
v -0.02981473 -0.01712260 -0.00972519
v -0.01081672 -0.01620432 -0.00938253
v -0.00927368 -0.01864430 0.00988339
v -0.00814305 -0.01783587 0.00988085
v -0.00924731 -0.01485182 -0.00956661
v -0.01826314 0.01943514 -0.00845587
v -0.01697448 0.01916191 -0.00846054
v -0.01761418 0.01923178 -0.00886672
v -0.01971251 0.01955934 -0.00884431
v -0.01393220 0.01821740 -0.00881062
v -0.02110048 0.01960812 -0.00885530
v -0.02248706 0.01972845 -0.00843195
v -0.01689667 0.01881888 -0.00942749
v -0.01666011 0.02141943 0.00947092
v -0.01950526 0.02188697 0.00946952
v -0.01882628 0.02180737 0.00982118
v -0.01695702 0.02141514 0.00988367
v -0.01546215 0.02115343 0.00975293
v -0.01362282 0.02066935 0.00947491
v -0.02086742 0.02193113 0.00993989
v -0.02200857 0.02193849 0.00948426
v -0.01525062 0.01812801 -0.00957187
v -0.01718499 0.01862069 -0.00959044
v -0.02278858 0.02185810 0.00983551
v -0.00885956 0.01480874 -0.00945326
v -0.02517553 0.02146477 0.00952724
v -0.02435432 0.01941497 -0.00864550
v -0.02515593 0.02144751 0.00989544
v -0.02061043 0.01924023 -0.00943218
v -0.01835218 0.01885854 -0.00957271
v -0.01000946 0.01870559 0.00990858
v -0.02689864 0.01883720 -0.00847111
v -0.02605230 0.01893879 -0.00899181
v -0.02646722 0.02115619 0.00948489
v -0.02895924 0.01817839 -0.00846724
v -0.02937270 0.01797996 -0.00874931
v -0.02847989 0.02050869 0.00950097
v -0.02873180 0.02043930 0.00988641
v -0.02973164 0.02004567 0.00950559
v -0.03062659 0.01747090 -0.00789670
v -0.03136005 0.01931528 0.00953863
v -0.03089102 0.01714040 -0.00890762
v -0.03275595 0.01854600 0.00988115
v -0.03247573 0.01873456 0.00950538
v -0.03258130 0.01617716 -0.00830235
v -0.03384681 0.01784185 0.00959062
v -0.04105996 0.00845954 0.00956255
v -0.03956072 0.00631792 -0.00901557
v -0.04013671 0.00410621 -0.00866247
v -0.03964965 0.00559597 -0.00942377
v -0.04004464 0.00406360 -0.00939833
v -0.04038825 0.00228557 -0.00940509
v -0.04052815 0.00189796 -0.00884975
v -0.04056406 0.00068220 -0.00945646
v -0.03876704 0.00831318 -0.00866912
v -0.04064845 0.00003587 -0.00874537
v -0.04055395 0.00974331 0.00973695
v -0.04168037 0.00666042 0.00953369
v -0.03827975 0.00918466 -0.00915098
v -0.03739013 0.01088660 -0.00907808
v -0.04000329 0.01096031 0.00947120
v -0.04008083 0.01073604 0.00989422
v -0.04212172 0.00504734 0.00970069
v -0.04249432 0.00271024 0.00955130
v -0.03943255 0.01196582 0.00959340
v -0.04059974 -0.00123254 -0.00921785
v -0.04259986 0.00155929 0.00963145
v -0.04116018 0.00800225 0.00982382
v -0.03590363 0.01289815 -0.00905907
v -0.03556462 0.01345334 -0.00837517
v -0.04259792 -0.00049163 0.00960448
v -0.04259550 0.00031720 0.00965242
v -0.03859079 0.01310323 0.00951777
v -0.04258308 -0.00206159 0.00956762
v -0.03773192 0.01424022 0.00949929
v -0.03698384 0.01508359 0.00947440
v -0.03656460 0.01177503 -0.00937836
v -0.04041371 -0.00250039 -0.00946480
v -0.04040306 -0.00156454 -0.00964178
v -0.04161174 0.00637363 0.00992732
v -0.03587255 0.01619842 0.00951747
v -0.04250251 0.00023201 0.00993878
v -0.04001263 -0.00452728 -0.00944626
v -0.03949012 -0.00668252 -0.00932340
v -0.04220822 -0.00458296 0.00943549
v -0.04180486 -0.00632002 0.00943348
v -0.04250878 -0.00311024 0.00963497
v -0.03896920 -0.00807109 -0.00904330
v -0.04039263 -0.01006077 0.00944356
v -0.03848281 -0.00919938 -0.00917611
v -0.03814356 -0.00965413 -0.00966953
v -0.03789376 -0.01042426 -0.00942413
v -0.04092426 -0.00884841 0.00950727
v -0.04133496 -0.00771693 0.00989324
v -0.04071066 -0.00932527 0.00977508
v -0.04146013 -0.00747587 0.00943810
v -0.04160395 -0.00695211 0.00985231
v -0.03999459 -0.01099042 0.00948364
v -0.03985318 0.00381455 -0.00965286
v -0.04240048 -0.00297076 0.00990336
v -0.03693561 -0.01207602 -0.00920163
v -0.03899550 -0.01266855 0.00947974
v -0.03814223 -0.01379334 0.00948010
v -0.03773378 -0.01428252 0.00984428
v -0.03873098 -0.01282195 0.00984590
v -0.03680792 -0.01176835 -0.00981290
v -0.03606977 -0.01294119 -0.00948607
v -0.03549653 -0.01360375 -0.00946409
v -0.03650219 -0.01561181 0.00983376
v -0.04201820 0.00000532 0.01000000
v -0.00243014 -0.00353313 -0.00968073
v -0.00577125 0.01559373 0.00985570
v -0.00385270 -0.01338012 0.00986995
v -0.01299112 -0.02030770 0.00985468
v -0.01821146 -0.02162468 0.00992271
v -0.02260944 -0.02155593 0.00993121
v -0.01976146 -0.02185835 0.00986532
v -0.02520885 -0.02134528 0.00992582
v -0.02717448 -0.02078521 0.00994633
v -0.03057674 -0.01950717 0.00992844
v -0.02520482 -0.02148871 0.00982836
v 0.00071453 -0.00004361 0.00973826
v -0.03893418 -0.00773409 -0.00967009
v -0.03847351 -0.00780237 -0.00985512
v -0.03723394 -0.01041794 -0.00987221
v -0.03742655 -0.01118475 -0.00962485
v -0.03891442 -0.00626020 -0.00987555
v -0.03976157 -0.00491048 -0.00968564
v -0.03930034 -0.00458588 -0.00985082
v -0.03975483 -0.00292890 -0.00981293
v -0.04007995 -0.00046609 -0.00978413
v -0.04035812 0.00079355 -0.00968361
v -0.03983302 0.00138265 -0.00978408
v -0.03964350 0.00311431 -0.00973336
v -0.03928229 0.00579346 -0.00965396
v -0.03896722 0.00727840 -0.00948971
v -0.00612097 0.00963958 -0.00990325
v -0.00995327 0.00419915 -0.00997210
v -0.00527968 0.00959856 -0.00979131
v -0.00428313 0.00855052 -0.00968064
v -0.00716901 0.01144790 -0.00989543
v -0.01064779 -0.01562039 -0.00967060
v -0.00957096 -0.01309245 -0.00983233
v -0.00790111 -0.01313248 -0.00970957
v -0.00640168 -0.01172617 -0.00967724
v -0.00546530 -0.01052346 -0.00966351
v -0.00430680 -0.00842558 -0.00971786
v -0.00420314 -0.00740705 -0.00978509
v -0.00318845 -0.00600553 -0.00970236
v -0.00700658 -0.01038143 -0.00981715
v -0.00591794 -0.00768197 -0.00989101
v -0.00533897 0.01041510 -0.00965751
v -0.00337630 0.00712515 -0.00962371
v -0.00275918 0.00477768 -0.00968649
v -0.00427979 0.00728074 -0.00985999
v -0.00667989 0.01217175 -0.00969712
v -0.00826356 0.01266683 -0.00990762
v -0.00785357 0.01360839 -0.00959796
v -0.00896796 0.01436357 -0.00969009
v -0.00237686 0.00291103 -0.00971376
v -0.00206795 0.00107577 -0.00969631
v -0.00193759 -0.00040486 -0.00971019
v -0.01188787 -0.01639635 -0.00964668
v -0.01223789 -0.01589418 -0.00977249
v -0.01321658 -0.01691619 -0.00966825
v -0.01447974 -0.01735512 -0.00966964
v -0.01710122 -0.01817762 -0.00967745
v -0.01719838 -0.01873190 -0.00938153
v -0.01885336 -0.01867328 -0.00967704
v -0.01890749 -0.01910624 -0.00936852
v -0.02063706 -0.01872507 -0.00968484
v -0.02273756 -0.01867308 -0.00969088
v -0.02518861 -0.01874095 -0.00944760
v -0.02771050 -0.01780900 -0.00967681
v -0.02862266 -0.01790250 -0.00941835
v -0.03382513 0.01477104 -0.00930474
v -0.03220324 0.01605360 -0.00929487
v -0.03161520 0.01588034 -0.00951012
v -0.03432641 0.01398815 -0.00944848
v -0.03088408 0.01642936 -0.00949223
v -0.02963482 0.01741269 -0.00944804
v -0.03307589 0.01562541 -0.00902870
v -0.03485793 0.01414567 -0.00886048
v -0.03518249 0.01330635 -0.00938837
v -0.03189890 0.01659348 -0.00874678
v -0.02830453 0.01802334 -0.00935289
v -0.02715647 0.01852421 -0.00925355
v -0.03385937 0.01514064 -0.00849972
v -0.00969563 -0.00088094 -0.01000000
v -0.00573858 0.00584834 -0.00995029
v -0.00247783 0.00071360 -0.00982608
v -0.00225474 -0.00170633 -0.00976057
v -0.00437070 -0.00223796 -0.00988910
v -0.00437441 0.00448885 -0.00992309
v -0.00291021 -0.00229089 -0.00982483
v -0.00428353 -0.00497819 -0.00986161
v -0.01159512 0.01589267 -0.00980409
v -0.01255264 0.01672078 -0.00971557
v -0.01102233 0.01608621 -0.00962829
v -0.01291370 0.01640571 -0.00984601
v -0.01489307 0.01674432 -0.00986528
v -0.01648728 0.01777301 -0.00978519
v -0.01869026 0.01844193 -0.00973633
v -0.01304652 0.01754168 -0.00938941
v -0.02087817 0.01883692 -0.00969566
v -0.01046570 0.01615901 -0.00934231
v -0.01090639 0.01392324 -0.00991099
v -0.02608812 0.01829738 -0.00961497
v -0.02511696 0.01884261 -0.00944264
v -0.02396365 0.01934149 -0.00909136
v -0.02356277 0.01902510 -0.00954419
v -0.02252782 0.01949834 -0.00915690
v -0.02207191 0.01905122 -0.00966227
v -0.02271148 0.01815995 -0.00978050
v -0.02542169 0.01791383 -0.00967917
v -0.01896777 0.01801987 -0.00979485
v -0.02900403 0.01712656 -0.00957328
v -0.02395850 0.01878723 -0.00963971
v -0.03847597 0.00642621 -0.00966378
v -0.03804702 0.00824931 -0.00960563
v -0.03716240 0.00956095 -0.00959805
v -0.03749733 0.01013045 -0.00951918
v -0.03666672 0.01106551 -0.00954668
v -0.03417338 -0.01416379 -0.00989303
v -0.03562091 -0.01295673 -0.00987267
v -0.03291115 -0.01520581 -0.00987774
v -0.03149771 -0.01601713 -0.00982535
v -0.03384728 -0.01474775 -0.00981574
v -0.01964348 -0.01816632 -0.00970979
v -0.03125978 -0.01678965 -0.00961480
v -0.03484077 -0.01419599 -0.00956182
v -0.03933797 0.01201573 0.00991324
v -0.03847525 0.01317235 0.00987642
v -0.03758395 0.01405363 0.00990785
v -0.03736430 0.01465357 0.00986303
v -0.03639016 0.01550344 0.00989626
v -0.03613060 0.01593503 0.00985089
v -0.03492640 0.01686965 0.00987789
v -0.03491277 0.01661068 0.00990695
v -0.03258468 0.01831279 0.00991130
v -0.03092279 0.01932325 0.00992094
v -0.03006180 0.01992231 0.00986924
v -0.02642692 0.02107042 0.00994341
v -0.02703715 0.02103654 0.00980831
v -0.04176019 -0.00601678 0.00988260
v -0.04205932 -0.00523749 0.00980186
v -0.04193902 0.00466065 0.00998829
v -0.04239753 0.00279573 0.00986103
v -0.04243327 0.00179475 0.00991900
v -0.04248213 0.00142466 0.00986892
v 0.03898598 -0.00456531 0.00802469
v -0.01481032 0.02076422 0.00993288
v -0.01317328 0.02032736 0.00988491
v -0.01141404 0.01939856 0.00990632
v -0.00847126 0.01766702 0.00989166
v 0.04248967 0.00040714 0.00775241
v 0.04259986 0.00061039 0.00804315
v 0.04116419 -0.00304391 0.00778438
v 0.04187435 0.00296263 0.00779912
v 0.04247119 -0.00176444 0.00792082
v 0.04242542 0.00232108 0.00800546
v 0.03896971 0.00516984 0.00814606
v 0.04102921 0.00426671 0.00817339
v -0.04002140 -0.01097337 0.00980306
v -0.03932001 -0.01214351 0.00980518
v -0.03720133 -0.01432705 0.00986868
v -0.03578745 -0.01588549 0.00987503
v -0.03509598 -0.01680920 0.00984273
v -0.03446766 -0.01713950 0.00988577
v -0.03278219 -0.01866384 0.00984386
v 0.04046806 0.00462818 0.00803980
v 0.03993997 0.00481223 0.00825401
v 0.03863094 0.00484367 0.00855741
v 0.03995159 0.00421304 0.00856864
v 0.03784877 0.00267675 0.00886114
v 0.03911775 0.00025639 0.00881978
v 0.03976918 0.00215055 0.00878902
v 0.03943198 -0.00242491 0.00871422
v 0.04037974 -0.00086805 0.00870893
v 0.03797097 0.00412056 0.00875105
v 0.04168275 0.00009918 0.00858390
v 0.03860374 -0.00412250 0.00850896
v 0.04159724 0.00227918 0.00853517
v 0.04142365 -0.00182506 0.00850836
v 0.04006068 -0.00343959 0.00850396
v 0.04153376 0.00331407 0.00838581
v 0.04244244 0.00035498 0.00830507
v 0.04247285 -0.00174567 0.00813099
v 0.04237739 0.00215939 0.00821786
v 0.04170369 0.00373348 0.00805824
v 0.04076514 -0.00378311 0.00817936
v 0.04180981 -0.00283168 0.00800662
v 0.04059184 -0.00392877 0.00801379
v 0.03923055 -0.00449553 0.00816856
v -0.04259537 -0.00127619 0.00965257
v -0.04245091 -0.00104448 0.00997746
v 0.04194214 -0.00221844 0.00774176
f 159 168 164
f 324 329 80
f 324 162 325
f 305 310 306
f 308 310 305
f 19 164 165
f 165 164 168
f 325 327 328
f 331 327 52
f 301 69 159
f 159 164 301
f 301 162 80
f 301 164 162
f 68 67 311
f 207 308 205
f 253 320 255
f 255 320 74
f 304 324 80
f 161 324 304
f 80 162 304
f 162 161 304
f 329 324 326
f 326 324 325
f 325 328 326
f 326 328 330
f 171 161 162
f 162 324 171
f 171 324 161
f 159 69 292
f 70 64 61
f 69 64 70
f 61 64 58
f 238 243 242
f 239 243 238
f 238 187 239
f 306 336 337
f 337 336 330
f 270 268 184
f 263 268 270
f 169 168 159
f 19 165 167
f 167 165 168
f 37 300 343
f 343 38 37
f 300 342 343
f 342 340 343
f 343 340 331
f 162 164 53
f 164 52 53
f 325 162 53
f 53 327 325
f 53 52 327
f 49 52 164
f 49 343 331
f 38 343 49
f 80 329 303
f 303 301 80
f 311 67 321
f 321 320 311
f 65 64 69
f 288 289 92
f 111 129 296
f 159 292 296
f 129 112 296
f 117 129 111
f 117 112 129
f 111 114 110
f 108 104 110
f 92 95 287
f 287 288 92
f 285 288 287
f 202 204 189
f 308 202 189
f 188 189 204
f 339 310 308
f 74 320 339
f 308 207 339
f 339 207 74
f 306 310 338
f 338 336 306
f 310 339 338
f 338 339 335
f 332 326 330
f 332 338 335
f 330 336 332
f 336 338 332
f 87 292 293
f 86 87 293
f 88 87 86
f 69 70 73
f 79 262 78
f 261 78 262
f 58 78 261
f 245 242 244
f 309 305 306
f 306 337 309
f 334 327 331
f 331 340 334
f 112 102 113
f 269 270 184
f 166 164 19
f 164 166 14
f 40 41 36
f 168 169 27
f 318 169 345
f 345 143 318
f 345 169 159
f 345 149 143
f 159 296 345
f 153 158 318
f 331 52 163
f 163 49 331
f 52 49 163
f 302 303 329
f 301 303 302
f 329 322 302
f 322 321 302
f 67 301 302
f 302 321 67
f 66 65 69
f 69 301 66
f 67 65 66
f 66 301 67
f 55 58 64
f 111 296 281
f 281 114 111
f 289 288 290
f 288 296 290
f 290 296 292
f 92 289 290
f 292 87 290
f 286 287 95
f 95 130 286
f 285 287 286
f 286 130 125
f 203 204 202
f 203 209 204
f 203 202 308
f 308 305 203
f 305 209 203
f 243 204 240
f 204 209 240
f 240 242 243
f 240 244 242
f 210 305 211
f 210 209 305
f 211 240 210
f 210 240 209
f 205 308 201
f 308 189 201
f 201 188 205
f 189 188 201
f 190 188 204
f 190 206 205
f 205 188 190
f 335 339 312
f 320 321 312
f 312 339 320
f 323 332 335
f 323 321 322
f 323 322 329
f 335 312 323
f 323 312 321
f 329 326 323
f 326 332 323
f 92 90 93
f 93 90 89
f 93 95 92
f 88 90 291
f 291 87 88
f 291 90 92
f 92 290 291
f 291 290 87
f 77 292 69
f 69 73 77
f 293 292 77
f 75 73 70
f 61 76 75
f 75 70 61
f 75 77 73
f 293 77 75
f 311 320 59
f 59 320 253
f 74 207 208
f 205 206 208
f 208 207 205
f 61 58 60
f 60 261 61
f 58 261 60
f 241 240 211
f 244 240 241
f 211 305 241
f 254 252 265
f 263 262 254
f 254 265 263
f 254 262 79
f 79 252 254
f 341 340 342
f 341 342 307
f 337 340 341
f 341 309 337
f 333 340 337
f 333 334 340
f 333 337 330
f 327 334 333
f 330 328 333
f 333 328 327
f 182 268 263
f 127 128 177
f 177 128 179
f 176 182 263
f 178 182 176
f 176 187 238
f 179 178 176
f 176 177 179
f 103 105 116
f 181 128 103
f 116 113 103
f 103 113 102
f 267 262 263
f 263 270 266
f 17 49 164
f 37 38 17
f 38 49 17
f 18 14 166
f 18 166 19
f 19 20 18
f 238 242 200
f 200 242 245
f 319 169 318
f 319 27 169
f 319 35 30
f 30 35 34
f 34 35 40
f 40 36 34
f 24 167 168
f 168 27 24
f 149 345 344
f 318 143 315
f 314 153 154
f 154 315 143
f 153 315 154
f 151 153 314
f 158 153 48
f 3 300 37
f 37 17 15
f 15 17 14
f 307 342 54
f 193 194 54
f 64 65 63
f 63 55 64
f 63 65 67
f 67 68 63
f 72 252 79
f 283 296 288
f 283 281 296
f 283 288 285
f 285 281 283
f 106 110 104
f 111 110 106
f 106 117 111
f 106 96 117
f 124 122 284
f 284 122 114
f 125 124 284
f 284 286 125
f 284 281 285
f 285 286 284
f 186 190 204
f 186 204 243
f 243 239 186
f 186 239 206
f 206 190 186
f 293 75 83
f 83 75 76
f 6 47 342
f 244 241 197
f 245 244 197
f 197 200 245
f 197 194 193
f 196 194 197
f 196 197 198
f 198 197 241
f 246 208 206
f 206 249 246
f 263 265 250
f 250 176 263
f 247 71 253
f 247 249 71
f 247 246 249
f 196 198 346
f 346 341 307
f 309 341 346
f 307 54 346
f 346 54 194
f 305 309 346
f 346 241 305
f 184 268 183
f 268 182 183
f 179 128 180
f 180 128 181
f 181 182 180
f 180 178 179
f 180 182 178
f 184 183 148
f 148 182 181
f 148 183 182
f 97 104 108
f 108 185 97
f 97 106 104
f 96 106 97
f 127 177 132
f 132 177 133
f 132 134 127
f 133 177 172
f 177 176 172
f 133 142 145
f 145 142 143
f 143 142 144
f 147 139 141
f 181 103 101
f 101 148 181
f 100 148 101
f 101 103 102
f 105 103 115
f 115 128 127
f 115 103 128
f 116 105 115
f 260 261 262
f 262 267 260
f 272 266 270
f 270 269 272
f 272 269 184
f 257 267 263
f 237 130 95
f 95 94 237
f 118 122 124
f 164 14 16
f 16 17 164
f 14 17 16
f 33 215 214
f 214 47 33
f 212 47 214
f 33 218 216
f 216 215 33
f 273 176 238
f 174 176 273
f 220 23 221
f 318 158 317
f 317 319 318
f 158 45 317
f 35 319 39
f 40 35 39
f 319 317 39
f 167 24 170
f 19 167 170
f 25 12 22
f 22 170 25
f 25 170 24
f 131 345 296
f 296 298 131
f 131 344 345
f 297 296 112
f 297 298 296
f 112 113 297
f 297 113 116
f 116 298 297
f 316 153 318
f 318 315 316
f 316 315 153
f 46 45 158
f 158 48 46
f 153 151 152
f 152 48 153
f 152 151 150
f 150 48 152
f 33 47 5
f 47 6 5
f 5 342 300
f 5 6 342
f 33 5 4
f 300 3 4
f 4 5 300
f 193 54 191
f 56 63 68
f 55 63 56
f 56 68 311
f 311 59 56
f 252 72 251
f 249 250 251
f 71 249 251
f 251 72 71
f 265 252 251
f 251 250 265
f 114 281 282
f 282 284 114
f 281 284 282
f 256 249 206
f 256 250 249
f 256 239 187
f 206 239 256
f 187 176 256
f 176 250 256
f 253 255 248
f 248 247 253
f 248 255 74
f 246 247 248
f 74 208 248
f 208 246 248
f 195 194 196
f 196 346 195
f 195 346 194
f 160 198 241
f 241 346 160
f 160 346 198
f 99 97 185
f 100 97 99
f 99 185 184
f 184 148 99
f 99 148 100
f 107 97 112
f 96 97 107
f 112 117 107
f 117 96 107
f 112 97 98
f 98 97 100
f 100 101 98
f 98 102 112
f 98 101 102
f 133 172 140
f 140 139 133
f 141 139 140
f 173 176 174
f 173 172 176
f 173 140 172
f 173 174 155
f 155 140 173
f 137 142 133
f 133 139 137
f 137 139 142
f 313 151 314
f 313 147 151
f 143 144 313
f 313 144 142
f 142 147 313
f 314 154 313
f 313 154 143
f 142 139 138
f 138 147 142
f 139 147 138
f 149 344 136
f 127 134 136
f 136 115 127
f 136 295 149
f 134 295 136
f 120 344 116
f 116 115 120
f 261 260 259
f 259 76 61
f 61 261 259
f 229 266 227
f 266 272 227
f 184 185 271
f 271 272 184
f 271 185 108
f 263 266 264
f 264 257 263
f 266 257 264
f 258 260 267
f 267 257 258
f 258 259 260
f 125 130 232
f 130 237 232
f 238 200 192
f 21 20 19
f 19 170 21
f 21 170 22
f 23 10 222
f 222 221 23
f 222 12 28
f 222 10 12
f 155 174 274
f 174 273 274
f 44 317 45
f 44 39 317
f 44 45 40
f 40 39 44
f 27 319 32
f 32 31 27
f 32 319 30
f 30 31 32
f 30 34 279
f 279 29 30
f 279 34 36
f 29 279 224
f 26 31 30
f 27 31 26
f 26 24 27
f 26 25 24
f 143 149 294
f 146 145 143
f 143 294 146
f 149 295 146
f 146 294 149
f 135 295 134
f 133 145 135
f 145 146 135
f 135 146 295
f 135 132 133
f 134 132 135
f 299 298 116
f 116 131 299
f 299 131 298
f 116 344 121
f 121 131 116
f 344 131 121
f 40 45 42
f 45 46 42
f 42 41 40
f 14 18 2
f 51 47 212
f 212 191 51
f 342 47 51
f 51 54 342
f 51 191 54
f 71 72 62
f 253 71 62
f 62 59 253
f 62 72 79
f 79 78 62
f 62 78 58
f 175 140 155
f 141 140 175
f 150 151 175
f 175 147 141
f 151 147 175
f 123 136 344
f 115 136 123
f 344 120 123
f 123 120 115
f 228 272 233
f 228 227 272
f 109 271 108
f 108 110 109
f 109 110 114
f 114 122 109
f 122 118 109
f 234 93 89
f 95 93 234
f 234 94 95
f 230 266 229
f 230 257 266
f 229 227 230
f 259 258 236
f 236 258 257
f 119 124 125
f 125 232 119
f 119 118 124
f 119 232 118
f 213 216 218
f 215 216 213
f 213 214 215
f 212 214 213
f 213 191 212
f 193 191 213
f 213 192 193
f 200 197 199
f 199 192 200
f 199 197 193
f 193 192 199
f 9 21 22
f 22 12 9
f 12 10 9
f 277 274 273
f 50 224 279
f 13 26 30
f 25 26 13
f 12 25 13
f 30 29 13
f 29 224 13
f 28 12 13
f 13 224 28
f 156 175 155
f 150 175 156
f 157 46 48
f 157 42 46
f 157 48 150
f 150 156 157
f 157 156 155
f 1 4 3
f 1 3 37
f 37 15 1
f 1 15 14
f 14 2 1
f 8 10 23
f 8 9 10
f 20 21 8
f 21 9 8
f 220 218 11
f 11 23 220
f 11 8 23
f 2 8 11
f 217 218 33
f 33 4 217
f 4 1 217
f 217 1 2
f 55 56 57
f 58 55 57
f 57 62 58
f 57 56 59
f 59 62 57
f 225 228 233
f 233 118 225
f 118 232 225
f 126 109 118
f 271 109 126
f 126 118 233
f 233 272 126
f 272 271 126
f 76 259 82
f 259 236 82
f 91 234 89
f 257 230 235
f 235 236 257
f 278 218 220
f 278 213 218
f 275 50 279
f 275 277 273
f 213 278 275
f 220 221 275
f 275 278 220
f 192 213 275
f 275 273 238
f 238 192 275
f 28 224 223
f 224 50 223
f 223 222 28
f 221 222 223
f 223 50 221
f 41 42 280
f 42 157 280
f 280 277 41
f 274 277 280
f 155 274 280
f 280 157 155
f 20 8 7
f 7 8 2
f 7 18 20
f 7 2 18
f 2 11 219
f 219 217 2
f 219 11 218
f 218 217 219
f 231 232 237
f 231 225 232
f 231 237 94
f 94 234 231
f 226 230 227
f 227 228 226
f 228 225 226
f 225 231 226
f 226 91 230
f 234 91 226
f 226 231 234
f 81 83 76
f 76 82 81
f 293 83 81
f 81 82 236
f 43 275 279
f 277 275 43
f 43 279 36
f 43 36 41
f 41 277 43
f 221 50 276
f 276 275 221
f 50 275 276
f 84 86 293
f 293 81 84
f 88 86 84
f 85 90 88
f 88 84 85
f 89 90 85
f 85 91 89
f 230 91 85
f 85 235 230
f 236 235 85
f 85 81 236
f 85 84 81

