# https://github.com/mikedh/trimesh
v -0.00256200 0.05112600 -0.03772100
v 0.00899200 -0.05201800 0.03742500
v -0.02884100 -0.03946600 0.04583100
v 0.00674200 0.05251600 -0.01456300
v -0.01294400 0.02266600 0.04592000
v -0.01111800 0.04855400 -0.03997600
v 0.01702900 -0.04881600 0.04584200
v -0.01667900 -0.04913500 0.04518600
v -0.01033800 0.04711100 0.01698700
v 0.01832700 0.02166300 0.04554400
v -0.01546900 -0.04982200 0.04455000
v 0.00147200 0.05163300 -0.03636800
v -0.03546200 -0.02955500 0.04585600
v 0.00253700 -0.05190300 0.04599700
v -0.02474200 0.01583400 0.04585000
v -0.00478000 0.02536500 0.04577500
v -0.01123600 0.05014300 -0.03606600
v 0.00738600 0.04630800 -0.04365900
v 0.02879100 -0.03974200 0.04589700
v 0.00983500 0.02421900 0.04584100
v -0.01118500 0.04940800 -0.03827700
v 0.00756000 0.05134100 -0.03235700
v -0.01112000 0.04753800 -0.04157100
v -0.00924400 0.04950800 -0.03954700
v -0.03781400 -0.02097300 0.04590700
v -0.03856500 -0.00763600 -0.04545700
v 0.00527200 0.04476900 -0.04600000
v -0.01282000 -0.05047400 0.04555100
v 0.00746100 0.05012300 -0.03742200
v 0.00748400 0.05104800 -0.03422000
v 0.00164800 0.05243300 -0.00132900
v 0.00766700 0.05139800 -0.03105100
v -0.01057200 0.05248500 -0.02082900
v 0.00738800 0.04963500 -0.03864700
v 0.02014400 0.02024600 0.04580400
v -0.02189600 0.01826200 0.04579500
v -0.01050500 0.04912900 0.01098400
v 0.00011300 0.05257900 -0.00251100
v 0.03842200 -0.02149100 0.04551700
v -0.00988400 0.05194500 -0.00262900
v -0.03634800 -0.02829800 -0.04600000
v -0.01108100 0.04521500 -0.04421200
v -0.00908000 0.04410600 -0.04600000
v 0.00013100 0.04848900 -0.04289500
v -0.01078300 0.05147800 -0.00162700
v -0.00579200 0.05283800 -0.02584000
v -0.00836800 -0.05156600 -0.04600000
v 0.00934600 -0.05197600 0.04492800
v 0.01295500 -0.05103600 0.04454900
v 0.03758100 -0.02446100 0.04570500
v -0.03522800 -0.03094400 0.04567800
v -0.00246000 -0.05267000 0.04548800
v 0.00406600 0.04766700 -0.04340600
v 0.03981300 -0.01009900 -0.04600000
v 0.03492600 -0.03228900 0.04164900
v -0.03565300 0.00243300 0.04565800
v 0.03065900 0.01164800 -0.04600000
v 0.00742600 0.02526100 0.04547600
v -0.00286100 0.04871300 0.01671900
v 0.00338200 -0.05257800 0.04556100
v 0.00679100 0.05259800 -0.01943600
v -0.00262700 0.05054500 0.01069400
v 0.02511200 -0.04406800 -0.04600000
v 0.03738000 -0.00579800 0.04597100
v 0.01690200 -0.04950800 0.04507300
v -0.03519000 0.00204600 0.04592200
v -0.02221600 -0.04605400 0.04510600
v 0.03125500 0.00936700 0.04593000
v 0.03810100 -0.02504200 -0.04600000
v 0.00692300 0.04950000 -0.03932700
v -0.01099100 0.05170400 -0.02879800
v -0.00724800 0.05278700 -0.01234300
v -0.01447700 -0.05018500 0.04443900
v 0.01389400 0.02343800 0.04566000
v 0.00002300 0.04877300 0.01659200
v -0.00525200 0.05286700 -0.02538100
v -0.03506600 0.00343400 -0.04600000
v 0.00423500 0.05049400 -0.03868500
v -0.03692400 -0.00228700 0.04594600
v 0.03572500 0.00300000 0.04526700
v 0.01999100 0.02090100 0.04532100
v 0.02679800 0.01575000 0.04556700
v -0.00907900 -0.05179900 0.04506100
v -0.03931600 -0.00720200 0.04452500
v -0.03904500 -0.01756300 0.04578400
v 0.02214300 -0.04640700 -0.04600000
v 0.00538200 0.05277200 -0.02040200
v 0.03665600 -0.02738300 0.04567000
v 0.00724100 0.05228400 -0.01462800
v -0.00009700 0.05117300 0.00809500
v 0.00347000 0.02574000 0.04550800
v 0.03441500 -0.03312800 -0.04600000
v -0.02596500 -0.04340700 0.02980400
v -0.03707800 0.00002300 0.04517400
v -0.02553900 0.01619200 0.04528900
v -0.01035900 0.04958400 0.00987800
v 0.03784700 -0.00317000 0.03998200
v -0.03914400 -0.00776900 0.04548900
v -0.00791200 0.05112400 -0.03612800
v -0.01068600 0.04838400 -0.04064800
v 0.00716100 0.04409700 -0.04589400
v 0.03284900 0.00742300 0.04587800
v 0.00002200 0.04998400 0.01275700
v -0.00998400 0.05264500 -0.01872900
v -0.03832300 -0.00714400 0.04593400
v 0.03402800 0.00461200 0.04595200
v -0.03597400 0.00127400 -0.04600000
v -0.01356600 -0.05054300 0.03962400
v -0.02416200 0.01735700 0.04536200
v -0.01081100 0.05010700 -0.03701100
v -0.01027100 0.05048000 0.00618500
v 0.03348800 -0.03386600 0.04578700
v 0.00102200 0.05172400 -0.03583300
v 0.03342300 -0.03490500 0.04454900
v -0.01924400 0.01957400 0.04589500
v 0.03710700 -0.00190500 0.04577300
v -0.02976200 -0.03918300 0.04558500
v 0.00005400 0.05050400 0.01081700
v -0.03988400 -0.01094700 0.04449500
v 0.00363500 0.04557800 -0.04566800
v 0.00192400 0.04538700 -0.04600000
v -0.02145200 0.01907000 0.04561600
v -0.03810400 -0.02264300 -0.04600000
v -0.01805000 -0.04816800 -0.04600000
v 0.02899200 -0.04035500 -0.04600000
v -0.02920600 -0.04004400 -0.04600000
v -0.03954400 -0.00879300 0.04492300
v 0.03541400 -0.02941300 0.04590600
v 0.03293300 0.00824800 0.04487200
v -0.00825400 0.05041500 -0.03802000
v 0.00608600 0.05228400 -0.00517700
v -0.03918300 -0.01926300 0.04548400
v 0.00378300 0.05282100 -0.01056200
v -0.01476900 -0.04969800 0.04560700
v 0.03171300 -0.03747500 0.04505500
v -0.02285700 -0.04529500 0.04554500
v -0.03327700 -0.03534900 0.04446000
v 0.03278300 -0.03566900 -0.04600000
v -0.01115600 0.05165900 -0.02803200
v 0.00365100 0.04518100 -0.04600000
v 0.00136200 0.02559400 0.04581900
v 0.00523400 0.02463200 0.04593800
v 0.03665100 -0.02614600 0.04589100
v -0.03947500 -0.00950100 0.04536300
v -0.00514200 -0.05257400 0.04454300
v 0.00119700 0.04545900 -0.04600000
v -0.00258100 0.04369400 0.02683100
v 0.03660400 0.00016900 0.04565200
v 0.00038300 0.05117200 -0.03770100
v 0.03117800 -0.03798800 0.04544300
v -0.00755400 0.04797900 -0.04271600
v -0.01055400 0.05183600 -0.02911400
v 0.00034300 0.05298800 -0.01758500
v -0.03178300 -0.03618800 0.04580200
v 0.00642300 0.04411900 0.02434400
v 0.03741300 -0.02563800 0.04542400
v 0.00100200 -0.05298900 0.04470500
v 0.02844100 0.01403500 0.04561100
v -0.03904600 -0.01242000 -0.04600000
v -0.01169100 -0.05104300 0.04525700
v -0.03575500 -0.03099200 0.04451000
v 0.03217500 0.00927600 0.04555500
v -0.00506100 -0.05219000 -0.04600000
v 0.00537200 0.05171700 0.00138600
v 0.01303000 -0.05097800 0.04507400
v 0.01092900 -0.05124100 -0.04600000
v -0.00269000 0.05266500 -0.02870400
v 0.03836800 -0.02251800 0.04491300
v -0.01090100 0.05194000 -0.02752500
v 0.03539400 -0.03100600 0.04544400
v -0.03873900 -0.00590400 0.04550300
v -0.03175400 -0.03736300 0.04495500
v -0.00751200 0.05281400 -0.02023700
v 0.03730400 -0.00388900 0.04593900
v -0.00971800 0.04497200 0.02227000
v -0.03897800 -0.00594200 0.04505500
v -0.01279200 -0.05072900 0.04505500
v 0.00703600 0.05168500 -0.00274300
v -0.00913100 0.05138400 -0.03352200
v 0.00715300 0.04394900 -0.04600000
v 0.00733700 0.05192000 -0.00854700
v 0.03884600 -0.00796600 0.04495600
v -0.01661100 -0.04889300 0.04558800
v -0.03698700 -0.02825700 0.04446200
v 0.03884100 -0.01831200 0.04574100
v -0.03698400 -0.02802600 0.04501400
v 0.01684500 0.02192700 0.04581300
v 0.01011600 -0.05147300 0.04566800
v -0.00567700 0.05038200 0.01052300
v -0.00895500 -0.05188000 0.04463000
v 0.00381500 0.04856400 -0.04229900
v -0.01088500 0.05188000 -0.00667400
v -0.01059700 -0.05104900 -0.03048600
v -0.03893000 -0.00873600 0.04582800
v 0.00740700 0.05197700 -0.02856500
v 0.03780000 -0.00678200 0.04596800
v -0.03455600 0.00384500 0.04585100
v 0.01363900 -0.05057900 0.04557100
v -0.00929500 0.05017400 -0.03805600
v 0.03879500 -0.02029300 0.04500700
v -0.00614100 0.05095800 -0.03751300
v 0.00533600 0.05116900 0.00469600
v 0.03615200 0.00260200 -0.04600000
v -0.02135400 -0.04638500 -0.04600000
v -0.00468000 0.04345100 0.02666300
v 0.00608700 0.02536700 0.04565300
v -0.02056400 -0.04722400 0.02712300
v 0.00678900 0.05154700 -0.00011400
v 0.03403600 0.00645000 0.04495000
v 0.03507400 -0.03130100 0.04565200
v 0.00589600 -0.05184900 0.04592200
v 0.00648000 0.05148500 0.00124100
v -0.01232200 -0.05012400 0.04587100
v 0.00870700 -0.05162900 0.04577500
v -0.00532900 0.04565200 -0.04562100
v -0.00980700 0.04769600 0.01653700
v -0.01645800 0.02193200 0.04559600
v 0.01247200 -0.05105000 0.04540700
v -0.01553600 -0.04979800 0.04021500
v 0.03388300 0.00587200 0.04584300
v -0.02634500 -0.04183300 0.04583900
v -0.00618400 0.04966900 -0.04046600
v -0.02202900 -0.04629200 0.04452400
v 0.03503100 -0.03208000 -0.04600000
v 0.00722800 0.05141100 -0.00238400
v -0.00715800 -0.05181200 -0.04600000
v -0.03758700 -0.00430700 0.04595300
v -0.03785100 -0.02225900 0.04587700
v 0.03790000 -0.00401900 0.04558100
v 0.01847700 -0.04853900 0.04554900
v 0.02627800 -0.04301400 0.04554400
v -0.03795100 -0.00480200 -0.04600000
v -0.02898900 -0.04026600 -0.04600000
v -0.00013300 0.05187400 0.00426600
v -0.03830700 -0.00884900 0.04596400
v -0.03438400 -0.03327300 0.04519500
v -0.03732400 -0.00224500 -0.04600000
v -0.00716600 0.04747700 -0.04347100
v -0.01046100 0.04343900 -0.04600000
v -0.03651100 -0.00064500 0.04590800
v 0.00362000 0.05198800 0.00144500
v 0.00369000 0.04398900 0.02542800
v -0.00920500 0.05199200 -0.00135100
v 0.03870300 -0.00878100 0.04571900
v -0.02569000 -0.04314100 0.04554000
v 0.00652600 0.04963200 0.01041600
v -0.03990900 -0.01393500 0.04507600
v -0.03899300 -0.01128000 -0.04600000
v 0.02403900 -0.04469400 0.04569100
v 0.00655200 0.04911600 0.01219500
v -0.02268700 0.01844900 0.04537800
v -0.03275900 0.00722700 0.04583500
v 0.00690900 0.04352200 0.02477300
v 0.00700900 0.05068700 -0.03646000
v 0.03651800 -0.02860000 0.04510700
v -0.03301700 0.00819400 0.04452600
v 0.02309200 0.01891100 0.04546700
v 0.00726500 0.05223000 -0.02565600
v -0.01030400 0.04859600 0.01319800
v -0.03613100 -0.00165100 0.04599700
v -0.00260700 -0.05249300 -0.04399300
v 0.00720400 0.05094800 0.00112300
v 0.00385300 0.05243700 -0.00332200
v -0.03907800 -0.01566200 -0.04600000
v -0.00584600 0.02473000 0.04591300
v -0.03693700 -0.02409200 0.04592500
v 0.01645100 0.02170200 0.04590600
v 0.02595100 -0.04268300 0.04587500
v 0.01047800 -0.05154500 0.04544000
v 0.00697100 0.04406500 -0.04600000
v 0.03304800 -0.03521800 0.04551100
v -0.01701000 0.02186900 0.04536500
v 0.03642400 0.00149000 0.04080300
v -0.03804300 -0.02496600 0.04501200
v -0.00986100 0.04725200 0.01760100
v -0.00572900 0.05134000 0.00619700
v 0.00009000 0.05283600 -0.00741900
v -0.04000000 -0.01403700 0.04447000
v 0.00526400 0.04549200 -0.04538100
v 0.00022100 0.05043800 -0.03954100
v -0.03205300 -0.03706100 0.04411600
v -0.03479900 -0.03209500 0.04556300
v -0.00282600 0.05294100 -0.02582900
v 0.03933200 -0.01537100 0.04495100
v -0.03445300 -0.03347500 0.04375400
v -0.02487300 -0.04399900 -0.04600000
v 0.00767100 0.05095500 -0.03348000
v 0.01910800 -0.04696700 0.04593400
v 0.00380900 0.05220800 -0.00059600
v 0.03411100 0.00661100 -0.04600000
v -0.00832400 0.02484400 0.04566300
v -0.01096900 0.05224200 -0.02072700
v -0.01114100 0.05191000 -0.02448300
v -0.02964500 0.01200800 0.04552400
v 0.03763400 -0.02647700 -0.04600000
v 0.03852300 -0.00627100 0.04508300
v 0.03069500 0.01125000 0.04564500
v 0.03721900 -0.00089900 0.04182800
v -0.02271600 -0.04552500 -0.04600000
v 0.00352300 0.05073100 0.00861900
v 0.03081500 -0.03755900 0.04587500
v -0.00601800 0.04982300 0.01244400
v -0.01091200 0.04306900 -0.04600000
v -0.00261400 0.05043500 -0.03949600
v 0.03836100 -0.00527000 0.04488500
v 0.03589200 -0.03054700 -0.04600000
v 0.00008900 0.04730500 0.02039200
v 0.01190600 -0.05103300 0.04564600
v 0.00534700 0.04976500 0.01110400
v 0.03883400 -0.00844700 0.04546000
v 0.00177400 0.04705600 -0.04452900
v -0.01074600 0.05058600 -0.03538500
v -0.03858800 -0.00777000 -0.04600000
v -0.03911000 -0.01031700 0.04584500
v -0.02132100 0.01942700 0.04534100
v -0.03325500 -0.03451400 -0.04600000
v -0.01095200 0.05223500 -0.01586600
v -0.03692300 -0.02555100 0.04588400
v -0.03177800 -0.03740000 0.04461700
v -0.00772200 0.04546300 0.02283600
v -0.00122600 0.04545400 -0.04600000
v -0.01084900 0.05106000 -0.03312100
v -0.03116300 -0.03770600 -0.04600000
v -0.03910600 -0.01403500 -0.04600000
v 0.03870600 -0.01184700 0.04585800
v 0.00662600 0.05203000 -0.00364800
v 0.00290800 0.05082300 -0.03846100
v -0.00562200 0.05086800 0.00852600
v 0.00328300 0.04527600 0.02375200
v 0.00557800 0.05257400 -0.02586400
v -0.03744100 -0.02529900 -0.04600000
v -0.00577100 0.05198400 0.00224300
v -0.01072100 0.04999500 0.00637800
v -0.03817100 -0.02485300 0.04447700
v -0.03987100 -0.01665000 0.04447800
v 0.03588000 0.00282100 0.04150100
v 0.03857600 -0.02355500 -0.04600000
v -0.03559500 0.00218100 -0.04600000
v -0.03378600 -0.03354900 -0.04600000
v -0.03401700 -0.03248600 0.04584400
v -0.03807600 -0.02433900 0.04535400
v -0.03115800 0.00944100 0.04582200
v -0.00926900 0.04495000 -0.04528900
v -0.01021400 0.04636900 0.01895900
v -0.01172800 -0.05118300 0.04058000
v -0.00990100 0.05137000 0.00166600
v -0.02275100 -0.04473500 0.04585100
v -0.01509200 -0.04974000 0.04539700
v -0.01633000 -0.04896000 -0.04600000
v 0.03583700 -0.03065400 -0.04600000
v 0.00708800 0.04949000 0.00923300
v -0.00288600 0.04798900 0.01873200
v 0.00648600 0.04806200 0.01565900
v 0.00688000 0.04908600 0.01164400
v -0.00533200 -0.05201200 0.04579900
v -0.01070000 0.05142900 -0.03143300
v -0.00279400 0.04944700 -0.04146600
v 0.03797800 -0.00189900 -0.04600000
v -0.01818300 -0.04842100 0.04514500
v -0.00272500 0.05287200 -0.00804800
v 0.00152400 0.05096500 0.00847500
v 0.00233600 0.04858500 -0.04262600
v -0.01092600 0.04305200 -0.04600000
v 0.02787600 -0.04102500 0.04583200
v 0.00364000 0.05155900 -0.03595000
v -0.01986600 -0.04729200 0.04551900
v -0.00274900 0.02517800 0.04592700
v -0.01817900 -0.04858300 0.03666700
v -0.00280900 -0.05238300 0.04578800
v 0.02224200 -0.04612300 0.04560600
v -0.02602000 0.01545900 0.04555400
v -0.02825400 0.01362200 0.04530200
v -0.01430300 -0.04978800 -0.03657300
v 0.00602700 -0.05215800 -0.04600000
v 0.00613900 0.05191100 -0.00140200
v -0.03621100 0.00235100 0.04450500
v 0.03996400 -0.01237200 -0.04600000
v 0.03901000 -0.00992900 0.04551600
v 0.00685500 0.05236700 -0.02448800
v -0.02952300 -0.03965300 0.04541600
v 0.03016900 -0.03926100 0.04541200
v 0.00615400 0.04442500 -0.04600000
v -0.00978800 0.04554700 0.02125000
v -0.01434600 -0.04971100 -0.04600000
v -0.03753000 -0.02588800 0.04545600
v 0.02380800 -0.04516200 0.04536700
v -0.00562400 -0.05244700 0.04503500
v 0.00715300 0.05144500 -0.03283000
v 0.03420700 0.00617700 0.04110200
v -0.00797800 0.02465100 0.04581200
v 0.03081400 0.01066800 0.04583300
v -0.00550800 0.04799000 -0.04324100
v 0.03583200 -0.02967300 0.04563000
v 0.02253700 -0.04625800 0.04493800
v 0.02898800 0.01312100 0.04578500
v -0.03800500 -0.02346200 0.04569700
v -0.03406700 -0.03303800 -0.04600000
v -0.03433100 0.00547000 0.04546200
v -0.01916800 0.01999200 0.04582300
v -0.03704900 -0.02731600 0.04545500
v -0.02440100 -0.04433500 -0.04600000
v 0.03854700 -0.00378700 -0.04600000
v 0.03643300 -0.02850500 0.04542400
v 0.03923200 -0.00623900 -0.04600000
v -0.03207400 -0.03656500 0.04551700
v 0.00691200 0.05052800 0.00583300
v 0.00015700 0.05218600 -0.03262400
v -0.01045800 0.05028000 0.00640800
v -0.03952900 -0.01779500 0.04530000
v -0.03884300 -0.01832000 -0.04600000
v -0.03116200 -0.03761600 0.04555300
v -0.00285200 0.05003000 0.01255700
v -0.01111800 0.04338600 -0.04556500
v 0.00331200 0.04322600 0.02639000
v 0.00687700 0.05206400 -0.00533800
v 0.03571400 0.00275300 0.04561700
v 0.00176400 0.05257000 -0.02948800
v 0.03732200 -0.02632500 0.04493300
v 0.00539100 0.04679300 -0.04404100
v 0.01498500 0.02270100 0.04581100
v 0.00336700 0.04590400 0.02275300
v 0.03821300 -0.00616200 0.04576600
v 0.01824400 -0.04809500 0.04588800
v -0.01038800 0.05232400 -0.01006000
v -0.01052000 0.04749300 -0.04206900
v -0.00943600 0.05230500 -0.00520700
v -0.01817100 -0.04774700 0.04581300
v 0.02758000 0.01380000 0.04593000
v -0.00268600 0.05191100 0.00415900
v 0.03509600 0.00460700 0.04091800
v -0.01026400 0.05000800 0.00837300
v -0.01128800 0.05047100 -0.03406000
v -0.00449800 -0.05183100 0.04595000
v -0.03474200 0.00508300 0.04518900
v -0.01007500 0.05221700 -0.00603300
v 0.00284300 -0.05243200 -0.04600000
v 0.00340600 0.04855100 0.01636800
v 0.00347300 0.05290900 -0.01798500
v 0.03494900 -0.03226100 0.03518900
v 0.00007600 0.04944800 -0.04147000
v -0.01051600 0.05086300 0.00328400
v -0.00264100 0.04596200 -0.04556900
v -0.03291100 0.00609600 0.04595300
v -0.01017900 0.05248500 -0.01329400
v 0.00727400 0.04384200 -0.04600000
v -0.03893800 -0.02166700 0.04501100
v -0.00534100 0.04513400 0.02416000
v -0.00978500 0.04614200 0.02008900
v 0.00078100 -0.05273700 0.04554400
v 0.03520000 0.00165000 0.04595600
v 0.02513000 -0.04415600 0.04544100
v -0.00880800 0.04561200 0.02198200
v 0.00688900 0.02511500 0.04574200
v 0.03988700 -0.01609200 -0.04600000
v 0.03599900 -0.02818800 0.04587100
v 0.00699500 0.04864000 -0.04083400
v 0.03410600 0.00661900 -0.04600000
v 0.02928900 -0.03951400 0.04583500
v 0.00542800 0.05244300 -0.02751100
v 0.00494500 0.04668300 0.02033200
v -0.01823200 -0.04855400 0.04304200
v 0.00597400 0.05070000 -0.03721900
v -0.02753400 -0.04201800 0.04320200
v 0.03787200 -0.02394700 0.04548700
v -0.03663200 0.00116000 0.04514500
v -0.03409300 0.00447500 0.04589600
v -0.03436000 -0.03093900 0.04592100
v -0.00311200 0.05165800 -0.03578000
v -0.03896800 -0.01701100 -0.04600000
v -0.03022900 0.01139200 0.04549700
v 0.03631300 -0.00009000 0.04588100
v 0.03475000 -0.03260000 0.04489500
v 0.01879600 -0.04855600 0.04489200
v -0.03963000 -0.01144900 0.04547700
v -0.03833100 -0.01998000 0.04587700
v -0.00711400 0.04586400 0.02232000
v -0.03551100 0.00384100 0.04451400
v -0.03629100 -0.02962700 0.04499300
v 0.03611300 -0.03007200 -0.04600000
v -0.00265900 0.05118100 0.00811500
v -0.00016000 0.04725200 -0.04442400
v -0.03281000 -0.03448700 0.04584400
v 0.00747600 0.05213700 -0.01519300
v -0.00732100 0.05284700 -0.01699000
v -0.00269100 0.05296400 -0.01149400
v -0.03642000 -0.02703000 0.04586200
v 0.02364300 0.01809600 0.04578600
v 0.00335000 0.05283100 -0.02584400
v 0.00315900 0.05249100 -0.02948300
v -0.03666600 -0.00049500 -0.04600000
v -0.01028300 0.04790300 0.01521000
v 0.00700800 0.04694300 -0.04319900
v 0.00529000 0.05262200 -0.02559900
v -0.02776100 -0.04128500 0.04553000
v 0.00330600 0.04675900 0.02096000
v -0.00698600 0.04296300 0.02643800
v -0.03613100 0.00236300 0.04501900
v -0.01305500 0.02340700 0.04564600
v -0.03807700 -0.00432700 0.04576400
v 0.03195200 0.00898000 0.04584900
v -0.01541900 0.02268800 0.04534600
v -0.03320000 0.00656700 -0.04600000
v 0.00102900 -0.05252600 -0.04600000
v -0.00747100 0.04482000 0.02388200
v -0.00698400 0.05229700 -0.02993500
v -0.03637200 -0.02861000 0.04562000
v -0.02858800 -0.04046700 0.04555000
v -0.00593000 0.04844500 0.01674600
v -0.03889100 -0.02231900 0.04437600
v 0.00709500 0.05189800 -0.00559700
v -0.03505900 -0.03118000 -0.04600000
v 0.00313600 0.05128800 -0.03717500
v 0.03734800 -0.02263100 0.04597000
v -0.00268100 0.05246100 -0.00072900
v 0.00753000 0.04503500 -0.04480000
v 0.03678000 -0.02793700 0.04496000
v -0.00924100 0.04841200 0.01512200
v -0.03740400 -0.02408600 0.04588000
v 0.00552700 0.04854100 0.01501000
v -0.02314600 0.01789400 0.04556600
v 0.00685700 0.05103500 0.00312200
v -0.00279800 0.04720100 0.02058600
v 0.01618100 -0.04957200 -0.04600000
v -0.00755600 0.05149200 0.00412800
v 0.03902700 -0.01515700 0.04577200
v -0.03683600 -0.02697500 -0.04600000
v 0.03506500 0.00459100 0.04473200
v 0.02252200 -0.04611200 -0.04600000
v 0.02915000 -0.04046100 0.04544500
v 0.00716200 0.05221400 -0.01056200
v -0.02220200 -0.04587000 -0.04600000
v 0.00687000 0.04849300 0.01361200
v -0.00549500 -0.05212000 -0.04600000
v -0.03744900 -0.00238600 0.04577100
v 0.03633600 -0.02917900 0.04442300
v -0.03627600 0.00160400 0.04537400
v -0.00963600 0.04674200 0.01903600
v -0.03444100 -0.03350500 0.04446000
v 0.01108800 -0.05152700 0.04495000
v 0.03653700 0.00103700 0.04426100
v 0.02632400 -0.04318900 0.04529400
v 0.00656100 0.05235800 -0.02595200
v -0.01015700 0.04559300 0.02055200
v -0.03018400 0.01179000 0.04502300
v 0.04000000 -0.01475100 -0.04600000
v -0.00561800 0.05227800 -0.00023600
v 0.03915800 -0.02110500 -0.04600000
v 0.00687900 0.04955300 0.00999200
v -0.02762900 -0.04159900 -0.04600000
v 0.03574400 -0.03055200 0.04457600
v -0.03014200 -0.03895100 -0.04600000
v -0.02916000 0.01177100 0.04579900
v 0.01132100 0.02369400 0.04592200
v -0.01700400 -0.04865400 -0.04600000
v 0.02606000 -0.04331300 -0.04466800
v -0.00530500 0.04517700 -0.04600000
v 0.02039500 -0.04769200 0.04491100
v -0.03523500 0.00410900 0.04520200
v -0.03431300 0.00607800 0.04450000
v 0.00770900 0.04987400 -0.03715500
v 0.00857200 -0.05200500 0.04538900
v -0.00971900 0.04322600 0.02471300
v -0.02381600 -0.04510400 0.04446200
v 0.03407700 -0.03240900 0.04589200
v -0.03739700 -0.02270300 0.04591400
v -0.03814400 -0.00274200 0.04454900
v 0.01973900 -0.04737900 0.04582300
v -0.03660300 0.00023200 0.04569700
v 0.03916100 -0.01597400 0.04553000
v -0.01072400 0.04442900 -0.04515800
v -0.02055700 0.01970700 0.04557700
v -0.03515600 0.00351500 0.04566400
v -0.03889700 -0.00533300 0.04452500
v -0.01054800 0.05199500 -0.00536300
v 0.03784700 -0.00330700 0.04494400
v -0.03957800 -0.01888500 0.04398000
v 0.03777700 -0.01901100 0.04599000
v 0.00705700 0.05132500 -0.00006600
v -0.03216000 0.00889900 0.04553300
v -0.03803900 -0.00516700 -0.04552800
v -0.03277300 0.00840400 0.04516100
v -0.01102300 0.05197400 -0.01221700
v 0.03673500 -0.02486500 0.04594900
v -0.03381000 -0.03373700 0.04560000
v 0.00032000 0.02579700 0.04568200
v 0.03826500 -0.01046100 0.04594000
v -0.00693100 0.05184000 -0.03288500
v -0.02520400 -0.04371800 -0.04600000
v -0.02938900 -0.04016900 0.04457600
v -0.00984000 0.04944800 0.01120400
v 0.02158600 -0.04539100 0.04592800
v 0.00663200 0.05055200 0.00628000
v -0.01405800 -0.04962100 0.04581700
v -0.03469400 0.00443500 0.04566500
v 0.01533000 -0.04991500 -0.04512700
v -0.03958800 -0.01874100 0.04466400
v -0.00889000 0.05109100 0.00520000
v 0.00754100 0.05059900 -0.03581900
v -0.02400000 -0.04338300 0.04591300
v -0.00728700 0.05270600 -0.00950400
v 0.03020700 -0.03939700 0.04491800
v -0.01896800 -0.04770600 -0.04600000
v 0.00000800 0.05265000 -0.02906300
v -0.00006800 0.04620200 0.02283900
v -0.00716600 0.05254400 -0.00580800
v -0.01564600 -0.04880100 0.04590200
v 0.02610400 0.01602100 0.04583000
v -0.03372800 0.00614300 0.04567500
v -0.03490000 -0.03152600 -0.04498800
v -0.02705100 0.01464900 0.04547600
v 0.00532500 0.05110300 -0.03632700
v -0.02618000 -0.04286800 -0.04600000
v -0.00767100 -0.05211400 0.04458100
v -0.00914200 0.05016400 0.00928900
v -0.00508100 -0.05241300 0.04536800
v -0.02585400 -0.04333600 0.04505200
v 0.00078300 -0.05298200 0.04500300
v -0.00939300 0.05257300 -0.01057800
v 0.03995000 -0.01535200 -0.04600000
v -0.01078100 0.05073900 0.00292700
v 0.02746000 -0.04007300 0.04593500
v -0.00897700 0.04361600 0.02483000
v -0.00564100 0.04589000 0.02285700
v -0.00932100 -0.05158100 0.04542100
v 0.00654400 0.04513600 0.02264900
v 0.03998100 -0.01321300 -0.04600000
v -0.01084800 0.04947500 -0.03854400
v 0.03870300 -0.01662500 0.04589200
v -0.03751200 -0.02660100 0.04501500
v 0.00184200 -0.05251200 -0.04600000
v -0.00046200 -0.05254000 -0.04600000
v 0.01970600 0.02086600 0.04559100
v -0.00835500 0.04283300 0.02602900
v 0.01000300 -0.05076200 0.04594100
v -0.00729900 0.05275100 -0.02549800
v -0.00878400 0.05164400 0.00188900
v -0.01051900 0.04982300 0.00831500
v 0.00961000 0.02475500 0.04554800
v 0.03130100 0.01074100 -0.04600000
v 0.00104500 0.04374600 0.02636900
v -0.00598500 0.05147700 -0.03600300
v 0.00553600 0.04980700 -0.03955800
v -0.02937800 -0.04021400 0.04385400
v 0.00765900 0.02460500 0.04587000
v 0.00006700 0.05294900 -0.01102900
v -0.00290300 0.04615500 0.02291800
v -0.00735500 -0.05138600 0.04592500
v 0.01322300 0.02381600 0.04548300
v -0.03931800 -0.02042200 0.04451300
v 0.01620500 -0.04956200 -0.04600000
v -0.03527200 0.00128200 0.04597400
v 0.03887500 -0.01918800 0.04549100
v 0.00659300 0.04424200 -0.04600000
v 0.00680000 0.04721100 0.01742000
v 0.00749600 0.05154200 -0.03167100
v -0.00724500 0.04607700 -0.04491900
v -0.00605600 0.04772600 0.01871400
v 0.03424400 -0.03321800 0.04547100
v -0.01060400 0.05237400 -0.01419300
v 0.03918100 -0.01793400 0.04500400
v -0.03761400 -0.02656500 0.04451600
v -0.00988400 0.04839900 0.01442600
v -0.00945300 0.05258200 -0.02319900
v -0.01598700 0.02149900 0.04587700
v -0.03324300 -0.03489100 0.04550200
v -0.02677600 0.01389400 0.04588100
v 0.00750700 0.05210900 -0.02583900
v -0.03357700 -0.03478100 0.04496700
v -0.01026200 0.05144700 0.00036900
v -0.00519900 0.05294400 -0.01789600
v -0.00558500 0.05173700 0.00415200
v -0.03863500 -0.02021500 -0.04539800
v 0.03004700 0.01230800 0.04548400
v -0.03849400 -0.00593600 0.04578400
v 0.00610800 0.04704800 0.01875700
v 0.03841400 -0.00531400 0.04017100
v -0.03979400 -0.01102100 0.04507800
v 0.03823100 -0.01924000 0.04595300
v -0.01013900 0.02328400 0.04594800
v -0.00957500 0.04387100 -0.04600000
v 0.03359600 0.00705900 0.04552700
v -0.01030500 0.04910900 0.01168900
v -0.00730400 0.04473200 -0.04600000
v -0.03571800 0.00316600 0.04515000
v 0.03485800 0.00339600 0.04590200
v -0.03784500 -0.00633000 0.04598800
v -0.02065000 0.01880500 0.04585800
v -0.01089800 0.05211900 -0.01105200
v -0.02183200 -0.04503000 0.04591800
v -0.00804500 -0.05162000 0.04574300
v 0.02159600 0.01967500 0.04566800
v -0.00978000 0.04424700 0.02334300
v -0.00686200 -0.05187200 -0.04600000
v -0.00902300 0.04595400 -0.04451000
v -0.00933900 0.05076300 -0.03642700
v 0.00376200 0.05288300 -0.01377300
v 0.03769400 -0.00376000 0.04574500
v -0.02066900 -0.04719700 0.03551700
v 0.00344200 0.04975300 0.01249200
v 0.03178100 -0.03742700 0.04451200
v -0.02694600 0.01514100 0.04490400
v -0.03727200 -0.02576900 -0.04600000
v 0.00544800 0.05278200 -0.01730400
v 0.02830200 0.01432200 0.04543600
v -0.01203200 -0.05106900 0.04458400
v -0.03968100 -0.01405000 0.04551000
v -0.03890900 -0.02108100 0.04535300
v -0.01759600 0.02019000 0.04590600
v -0.01105600 -0.05082500 -0.04600000
v 0.00171600 0.05214100 -0.03275000
v 0.00306300 0.05157700 -0.03626600
v 0.02908600 -0.04073700 0.04486400
v -0.00912900 0.05220500 -0.02815700
v 0.01616100 0.02260600 0.04560100
v -0.00533500 0.05247900 -0.00260500
v -0.03156500 -0.03564700 0.04588000
v -0.01068000 0.05247600 -0.01797100
v -0.02936100 -0.03986500 -0.04600000
v 0.00667300 0.04288000 0.02582700
v 0.01210300 0.02324500 0.04594700
v -0.01838900 -0.04728300 0.04592000
v 0.00413900 0.04958100 -0.04058000
v 0.02829800 -0.04108900 -0.04600000
v -0.00078500 -0.05295000 0.04460300
v -0.03411000 0.00627400 0.04511100
v -0.01790700 0.02118000 0.04558300
v 0.01119100 0.02416600 0.04569700
v 0.02105400 -0.04647300 0.04584900
v -0.00577700 0.04890300 -0.04190400
v 0.03187300 -0.03701800 0.04549300
v -0.00249300 -0.05284500 0.04508500
v -0.03849000 -0.00420400 0.04518600
v -0.00840700 0.04837200 0.01585100
v 0.00005400 0.04534400 0.02426800
v -0.03057900 -0.03862900 0.04516600
v -0.02893000 0.01268900 0.04554800
v 0.00751700 0.05224400 -0.02023500
v -0.03346500 -0.03296700 0.04589400
v -0.03976800 -0.01656400 0.04504400
v -0.00278200 0.05235100 -0.03131600
v -0.03347500 0.00737400 0.04510900
v -0.02327500 0.01730400 0.04578700
v -0.02059600 -0.04713800 0.04504300
v -0.01094600 -0.05046100 0.04590800
v -0.00903800 0.05249300 -0.00789700
v -0.01063700 0.04661800 -0.04309800
v 0.00756800 0.05182800 -0.02875200
v 0.02398000 -0.04436200 0.04586700
v 0.01961300 -0.04785600 0.04559000
v 0.00678400 0.04650200 0.01929600
v 0.02231700 0.01869000 0.04587200
v -0.00753000 -0.05207700 0.02699100
v 0.00063200 -0.05256400 0.04578600
v -0.02061000 -0.04720800 0.04453800
v -0.02452500 -0.04350000 0.04582500
v -0.03848800 -0.02306700 0.04526200
v -0.03932400 -0.01351700 0.04582300
v -0.00414000 -0.05230200 -0.04600000
v 0.02429900 0.01802000 0.04541800
v 0.00600100 -0.05254700 0.04510100
v 0.00708100 0.04796100 -0.04183400
v 0.02386400 -0.04523900 0.04504000
v 0.00664100 -0.05218900 0.04560800
v -0.00491700 0.05241700 -0.03011900
v -0.01053100 0.05217700 -0.02618900
v -0.00513400 0.05207900 -0.03231600
v -0.00697800 0.02527800 0.04546000
v -0.03146700 0.00986000 0.04551400
v 0.03937300 -0.01314900 0.04494400
v 0.03897700 -0.01105300 0.04574900
v -0.01115800 0.05052300 -0.03489200
v -0.03086400 0.01079400 0.04534300
v 0.00690700 0.05011200 0.00761400
v -0.00935500 0.04842300 -0.04134500
v -0.01060800 0.05235500 -0.02337500
v -0.00690600 0.05227300 -0.00144600
v -0.00269800 0.05159400 -0.03631200
v -0.03713800 -0.02646900 0.04567300
v -0.02605200 -0.04338000 0.04285500
v 0.00165700 0.04987100 0.01276100
v 0.03966200 -0.01867400 -0.04600000
v 0.01308200 -0.05015100 0.04588900
v -0.01429700 0.02257300 0.04582500
v -0.00919600 0.05178000 -0.03118000
v 0.00100900 0.05295300 -0.02585800
v -0.00868800 0.04723700 0.01877100
v -0.00273600 0.04524500 0.02451200
v -0.00218300 -0.05189500 0.04600000
v -0.00746500 0.04388700 0.02516700
v -0.03882400 -0.01139200 0.04591000
v 0.00741700 0.04368300 -0.04600000
v -0.00862500 0.04926800 0.01298100
v -0.01983600 -0.04671600 0.04586200
v 0.03542800 0.00246200 0.04585000
v 0.00348400 0.05116600 0.00645000
v 0.03775600 -0.00529500 0.04592500
v -0.00933600 0.02422600 0.04586200
v -0.00929000 0.05273200 -0.01898900
v 0.02577800 0.01677200 0.04549100
v 0.00154600 0.05269500 -0.00544300
v 0.03650600 -0.02915100 -0.04600000
v -0.01120200 0.05106800 -0.03187200
v -0.03161700 0.01006100 0.04500800
v 0.00133100 0.04582400 -0.04569200
v 0.02092700 -0.04705200 0.04560300
v 0.03630900 0.00140100 0.04537800
v 0.00280200 0.05022900 -0.03978300
v 0.00652300 0.04864700 0.01375900
v 0.01688800 -0.04953100 0.04458800
v 0.00477900 0.04564400 0.02265100
v 0.00262600 0.04947100 -0.04122600
v 0.01724900 -0.04917600 0.04556600
v 0.00169400 0.04604700 0.02285000
v -0.00743700 0.05062500 0.00854200
v -0.01024100 0.05101800 0.00341900
v -0.03913500 -0.01492300 -0.04600000
v 0.03840200 -0.00625200 0.04552600
v 0.03593000 0.00069000 0.04592800
v 0.00553400 0.05207400 -0.03051300
v -0.03615200 -0.02881700 -0.04600000
v 0.00334800 0.04681800 -0.04452100
v 0.03300400 0.00827800 -0.04600000
v 0.01998900 -0.04780300 0.04537200
v -0.00825800 0.04441500 -0.04600000
v -0.01513900 -0.04989100 0.04501700
v 0.00379800 0.05268000 -0.00716300
v -0.01108800 0.04658700 -0.04278500
v -0.03873500 -0.00861500 -0.04600000
v 0.03174100 -0.03603600 0.04589000
v -0.03934500 -0.01970000 0.04506400
v 0.00720500 0.05191600 -0.02969900
v -0.01578500 -0.04916800 -0.04600000
v 0.01619200 -0.04956800 -0.04595300
v -0.03664400 -0.00043800 -0.04600000
v -0.03294900 0.00760800 0.04564300
v 0.00562900 0.04786300 -0.04267400
v 0.01336600 0.02311700 0.04588400
v 0.03506200 0.00440100 0.04554300
v 0.02204000 -0.04645800 0.04538200
v -0.00807000 -0.05096900 0.04596600
v -0.03356400 0.00736200 0.04456100
v -0.01081300 0.05173500 -0.00342400
v 0.00654300 0.04604500 0.02081100
v 0.00702800 0.05085900 0.00334400
v 0.03578200 -0.03040300 0.04510100
v 0.00018500 0.04801000 0.01871600
v 0.03270800 -0.03339100 0.04592600
v 0.03236400 0.00920400 -0.04600000
v -0.00277400 0.04733600 -0.04433600
v 0.00724500 -0.05193400 -0.04600000
v 0.00165700 0.05142800 0.00607900
v 0.03828400 -0.01641900 0.04595700
v 0.02670600 -0.04267200 -0.04600000
v -0.03860600 -0.02072400 0.04573600
v -0.01068100 0.04567100 -0.04412200
v 0.01561300 -0.04920100 0.04589100
v -0.00272700 -0.05283600 0.04460500
v -0.00766100 0.04750100 0.01860900
v 0.03877300 -0.02287100 -0.04460000
v 0.02750200 -0.04198800 0.04546400
v 0.00738400 0.04778700 -0.04184300
v 0.03474400 -0.03097200 0.04588800
v 0.02522300 -0.04424800 0.04485400
v -0.00781800 0.04963900 -0.03993900
v -0.02909500 -0.04015800 -0.04600000
v 0.00762000 0.05188700 -0.02710800
v -0.00539000 0.05264300 -0.02787700
v -0.00992300 0.02379300 0.04593000
v -0.02008600 -0.04713400 -0.04600000
v 0.01434800 -0.05021500 -0.04600000
v 0.03781200 -0.02084900 0.04597900
v 0.00300000 -0.05283900 0.04456000
v 0.03299700 0.00796000 0.04558900
v -0.00740300 -0.05206400 0.04526900
v 0.02854100 -0.04093700 0.04553800
v -0.03847600 -0.02344300 0.04501400
v -0.01097400 0.05215400 -0.02383700
v 0.01533500 -0.04990900 -0.04600000
v 0.03300900 -0.03554300 0.04496900
v -0.03527200 -0.03175900 0.04502300
v -0.03582500 -0.02820500 0.04589300
v 0.03734600 -0.00191700 0.04555500
v -0.00434700 0.04528100 -0.04600000
v -0.00267200 0.04543400 -0.04600000
v 0.00652700 0.05007200 0.00869700
v -0.00257000 0.05298900 -0.01753500
v 0.00219400 0.04785300 -0.04359200
v -0.03645000 -0.02890000 0.04538000
v -0.00267200 0.05219100 0.00201400
v 0.00326400 0.04783700 0.01850700
v 0.00556500 -0.05216400 0.04579400
v 0.00575400 -0.05258400 0.04445700
v -0.02205600 0.01752800 0.04588400
v 0.02266000 -0.04533400 0.04585000
v 0.01920200 -0.04810400 -0.04600000
v 0.00710000 0.05010900 -0.03792300
v -0.01974200 0.02030800 0.04549700
v -0.01706700 -0.04909900 0.04295000
v -0.00229600 0.02560300 0.04578200
v 0.02905100 0.01255400 0.04590200
v 0.02986800 -0.03942000 -0.04600000
v 0.00062600 -0.05240000 0.04588500
v -0.03700100 0.00048100 0.04453500
v -0.03217800 0.00749300 0.04591900
v 0.03571000 -0.02741800 0.04594500
v 0.01118400 -0.05073000 0.04587900
v 0.00667100 0.05239800 -0.00950000
v -0.02065600 -0.04720700 0.04294200
v -0.03909000 -0.00663100 0.04523500
v 0.03967800 -0.00845100 -0.04600000
v 0.00760400 -0.05141400 0.04594000
v -0.01143700 0.02414500 0.04544400
v -0.00971500 -0.05087500 0.04590600
v 0.01841900 0.02112300 0.04581600
v -0.02796200 0.01361900 0.04557500
v -0.00929700 0.04732700 -0.04291200
v -0.03014700 0.01016400 0.04587600
v -0.03356400 0.00486400 0.04595400
v -0.02930100 -0.04012300 0.04509100
v 0.00655900 0.05099100 0.00410900
v 0.00609800 0.05035800 0.00791700
v -0.01172900 0.02344000 0.04588900
v 0.03750400 -0.02349000 0.04588700
v -0.00603600 0.05015600 -0.03951300
v -0.01065300 0.02422700 0.04563900
v 0.03903600 -0.00550800 -0.04600000
v -0.02809600 0.01398300 0.04497800
v 0.03470900 0.00442100 0.04580000
v 0.03729400 -0.00126800 0.04494500
v 0.00710900 0.05098200 -0.03517900
v 0.03917400 -0.01031800 0.04501600
v 0.03921000 -0.01316200 0.04552600
v -0.03597400 0.00063700 0.04590300
v -0.02501200 0.01641800 0.04552900
v 0.03974600 -0.00925200 -0.04600000
v 0.00858500 0.02413000 0.04593100
v 0.00183400 0.04865700 0.01654500
v 0.03599500 0.00291300 -0.04600000
v 0.01166200 -0.05000300 0.04595600
v -0.00899500 0.04474400 0.02327700
v -0.01770000 -0.04827600 0.04565400
v 0.00172000 0.05043100 0.01062600
v -0.00263700 0.04842000 -0.04298700
v 0.00547800 0.05268300 -0.01069600
v -0.01181600 -0.05116400 0.04271000
v -0.00489700 0.05289700 -0.01148300
v 0.03140000 0.01048800 0.04546300
v 0.03690300 -0.00025100 0.04538700
v 0.02685600 0.01520000 0.04588300
v 0.03203900 -0.03607000 0.04582400
v 0.00725400 0.05241700 -0.01976700
v 0.03692600 -0.02705200 0.04547700
v -0.03196100 0.00836000 0.04582700
v -0.00856800 0.05001900 0.01040800
v 0.01629600 -0.04956900 0.04556800
v 0.00513100 0.04751900 0.01826900
v -0.01045000 0.05049800 -0.03608600
v -0.03594700 -0.00055200 0.04598600
v -0.02383800 -0.04494000 0.04508100
v 0.00571700 0.04878600 -0.04130400
v 0.00184100 0.05209000 0.00173400
v 0.00172400 0.05176800 0.00417100
v -0.00517100 0.05277000 -0.00792600
v 0.03325800 -0.03381200 0.04588500
v -0.00002100 0.05216300 0.00201500
v 0.00554200 0.05246800 -0.00678300
v 0.00768800 0.04913700 -0.03885200
v -0.02450600 -0.04409000 0.04550900
v -0.00527800 -0.05215900 -0.04600000
v 0.00747500 0.04889000 -0.03993400
v -0.00524000 0.04693800 -0.04450900
v 0.00677200 0.04462700 0.02333400
v -0.00257500 0.05268000 -0.00415400
v -0.03754400 -0.00093800 0.04458400
v -0.02767000 -0.04185500 0.04446700
v -0.03809200 -0.00293300 0.04519900
v -0.02690200 -0.04210300 0.04550800
v -0.02772900 -0.04165700 0.04502500
v -0.02589300 0.01495000 0.04581500
v 0.00707000 0.04581800 -0.04442200
v -0.02085700 -0.04621100 0.04580600
v 0.01767300 -0.04890100 -0.04600000
v -0.00365200 0.02467100 0.04595800
v -0.00026300 0.04376300 0.02658900
v 0.02615400 -0.04341700 0.04444500
v 0.03830600 -0.02099900 0.04577000
v -0.01064900 -0.05099400 0.04568800
v -0.01829100 -0.04847800 0.04454400
v 0.00352400 0.05161400 0.00407500
v -0.03272100 -0.03564500 0.04555300
v -0.03750100 -0.00145300 0.04534500
v -0.00489600 0.04423400 0.02560000
v -0.02742600 -0.04178000 -0.04600000
v 0.00001600 0.05238400 -0.00008500
v -0.03572100 -0.03046800 0.04540600
v -0.02602000 -0.04334000 0.04452900
v -0.03757900 -0.00118700 0.04499700
v -0.01475700 0.02280200 0.04556600
v 0.03818800 -0.00770400 0.04590700
v -0.02371800 -0.04521700 0.04265800
v -0.00209600 -0.05252000 -0.04600000
v 0.00331400 0.02515800 0.04591800
v 0.01617700 -0.04839000 0.04594900
v 0.00657300 0.04705000 0.01830400
v -0.00770600 0.04884900 -0.04134900
v 0.00621700 0.04782200 0.01658500
v 0.01809300 -0.04868400 -0.04600000
v 0.03790300 -0.02439200 0.04500400
v -0.02114300 -0.04653500 0.04550300
v 0.03435100 0.00573300 0.04554200
f 278 816 335
f 576 596 335
f 335 672 576
f 157 1001 631
f 672 335 410
f 576 672 649
f 649 596 576
f 600 946 72
f 618 600 72
f 798 618 72
f 209 389 737
f 737 290 866
f 737 389 290
f 705 825 11
f 503 630 157
f 157 631 503
f 739 335 596
f 828 248 119
f 477 559 582
f 467 788 686
f 788 260 686
f 679 260 983
f 290 389 430
f 430 389 209
f 607 82 799
f 181 178 225
f 138 700 901
f 92 114 138
f 672 410 123
f 331 509 123
f 123 649 672
f 509 649 123
f 469 410 335
f 946 600 963
f 775 33 663
f 663 765 775
f 424 618 444
f 663 33 104
f 104 798 663
f 618 798 104
f 104 444 618
f 72 946 484
f 484 798 72
f 740 641 766
f 766 641 505
f 622 692 562
f 493 330 488
f 635 765 663
f 663 798 635
f 798 46 635
f 635 46 505
f 740 766 764
f 764 766 505
f 951 258 61
f 11 825 8
f 494 507 919
f 990 668 172
f 319 172 137
f 137 172 668
f 316 323 137
f 13 340 467
f 51 340 13
f 13 506 51
f 400 506 778
f 506 13 778
f 334 509 331
f 331 661 334
f 63 555 863
f 902 753 891
f 902 14 788
f 872 436 374
f 630 436 872
f 157 630 872
f 891 753 60
f 60 763 891
f 1001 857 261
f 261 857 145
f 211 911 14
f 211 902 891
f 14 902 211
f 1003 14 939
f 895 557 473
f 945 108 345
f 278 335 247
f 335 739 247
f 247 119 278
f 677 119 247
f 237 232 573
f 573 232 580
f 338 903 77
f 107 903 338
f 376 477 77
f 77 903 376
f 159 119 248
f 278 119 159
f 139 77 293
f 77 477 293
f 477 292 293
f 33 292 717
f 424 444 717
f 717 104 33
f 444 104 717
f 477 582 317
f 317 292 477
f 317 717 292
f 632 81 155
f 607 799 487
f 487 799 257
f 187 714 74
f 10 714 187
f 142 983 720
f 443 260 679
f 434 559 477
f 938 430 203
f 290 430 938
f 527 430 209
f 791 445 515
f 673 158 395
f 257 799 759
f 720 106 428
f 454 660 781
f 284 660 545
f 1008 859 168
f 910 404 676
f 688 317 582
f 717 317 688
f 947 129 181
f 181 225 947
f 947 162 129
f 947 844 673
f 337 859 1008
f 1008 418 337
f 660 284 569
f 295 418 516
f 516 535 295
f 255 535 516
f 306 479 550
f 550 479 535
f 224 114 92
f 264 335 816
f 264 469 335
f 580 232 313
f 313 26 580
f 645 696 153
f 514 38 973
f 973 38 277
f 946 963 360
f 277 645 360
f 360 973 277
f 963 973 360
f 877 292 33
f 33 775 877
f 877 293 292
f 139 293 877
f 173 46 798
f 798 484 173
f 505 641 587
f 587 784 505
f 641 784 587
f 179 784 641
f 543 544 927
f 379 330 61
f 61 258 379
f 379 258 330
f 667 737 866
f 667 951 737
f 258 951 667
f 713 635 505
f 765 635 713
f 713 152 765
f 505 784 713
f 784 152 713
f 505 46 867
f 867 764 505
f 603 283 785
f 886 153 785
f 785 283 886
f 76 283 46
f 375 164 212
f 131 289 375
f 289 164 375
f 178 415 208
f 212 521 208
f 510 178 181
f 181 415 510
f 510 415 178
f 530 415 181
f 907 415 530
f 110 199 627
f 695 199 110
f 695 130 199
f 432 17 77
f 740 603 407
f 201 641 777
f 924 130 201
f 362 44 440
f 702 661 331
f 702 526 661
f 285 609 397
f 609 511 397
f 463 779 975
f 549 779 463
f 975 643 463
f 463 643 549
f 207 368 698
f 869 368 207
f 93 779 549
f 1000 779 93
f 93 286 1000
f 319 643 589
f 589 172 319
f 919 172 589
f 589 643 975
f 978 977 494
f 494 919 978
f 978 589 975
f 919 589 978
f 584 340 51
f 51 282 584
f 888 506 400
f 820 184 41
f 661 526 41
f 41 184 661
f 549 643 233
f 551 643 319
f 319 323 551
f 281 323 319
f 319 137 281
f 281 137 323
f 596 649 830
f 132 409 830
f 830 739 596
f 830 409 739
f 509 334 876
f 555 63 853
f 86 557 895
f 157 872 617
f 763 60 760
f 760 617 872
f 60 617 760
f 721 840 689
f 689 840 788
f 689 788 467
f 467 599 689
f 825 705 177
f 177 160 825
f 705 160 177
f 1001 261 758
f 758 261 145
f 969 145 752
f 145 613 752
f 939 14 634
f 14 911 634
f 891 763 214
f 214 211 891
f 911 211 214
f 49 166 870
f 539 166 49
f 863 555 985
f 847 905 621
f 621 1003 591
f 591 1003 288
f 219 108 11
f 368 349 219
f 83 160 705
f 83 387 874
f 73 705 11
f 73 945 705
f 11 108 73
f 108 945 73
f 981 755 136
f 912 925 496
f 496 925 205
f 739 409 706
f 706 247 739
f 834 903 107
f 834 490 903
f 237 573 566
f 127 119 677
f 324 816 278
f 278 159 324
f 638 727 648
f 648 727 74
f 640 58 638
f 257 81 691
f 81 632 691
f 691 487 257
f 691 632 35
f 35 487 691
f 187 837 267
f 267 837 720
f 720 428 267
f 666 443 115
f 741 256 841
f 141 899 367
f 147 899 585
f 899 141 585
f 585 141 91
f 273 358 203
f 358 273 298
f 57 791 515
f 673 395 297
f 297 395 391
f 297 947 673
f 162 947 297
f 82 158 704
f 704 158 673
f 155 81 253
f 253 81 257
f 607 487 949
f 949 395 158
f 949 82 607
f 949 158 82
f 68 428 106
f 500 297 391
f 162 297 500
f 391 68 500
f 685 220 106
f 1010 527 209
f 545 660 619
f 660 454 619
f 769 284 545
f 769 569 284
f 781 660 200
f 200 168 781
f 182 910 676
f 931 910 182
f 600 618 745
f 618 426 745
f 605 745 426
f 605 963 600
f 600 745 605
f 424 717 659
f 659 688 424
f 717 688 659
f 842 559 841
f 662 590 682
f 90 429 480
f 636 597 524
f 514 546 889
f 263 966 826
f 263 289 131
f 131 966 263
f 826 277 800
f 277 38 800
f 994 38 514
f 514 889 994
f 994 889 965
f 989 164 241
f 241 164 289
f 241 962 989
f 212 164 920
f 920 521 212
f 844 947 262
f 859 337 547
f 781 168 547
f 547 168 859
f 69 418 295
f 69 337 418
f 583 905 128
f 143 583 128
f 50 923 143
f 295 535 801
f 535 479 801
f 845 535 255
f 845 550 535
f 255 403 845
f 114 224 439
f 946 360 485
f 485 360 645
f 485 153 886
f 485 645 153
f 765 152 169
f 139 877 169
f 169 775 765
f 169 877 775
f 802 77 139
f 802 432 77
f 452 320 786
f 9 544 344
f 544 543 344
f 344 275 9
f 372 701 927
f 927 544 372
f 330 258 542
f 764 867 167
f 740 764 167
f 46 283 167
f 167 867 46
f 167 603 740
f 167 283 603
f 670 173 484
f 46 173 670
f 670 76 46
f 283 76 670
f 670 485 886
f 886 283 670
f 670 484 946
f 946 485 670
f 4 951 61
f 907 530 4
f 4 530 951
f 87 703 61
f 87 493 488
f 61 330 87
f 330 493 87
f 944 703 696
f 826 966 944
f 131 907 944
f 944 966 131
f 907 4 944
f 61 703 944
f 944 4 61
f 326 375 212
f 212 208 326
f 326 208 415
f 131 375 326
f 326 907 131
f 326 415 907
f 578 521 844
f 578 208 521
f 178 208 578
f 578 225 178
f 844 262 578
f 578 947 225
f 578 262 947
f 483 530 181
f 737 951 483
f 181 129 483
f 483 129 209
f 209 737 483
f 99 179 641
f 99 695 179
f 99 641 201
f 201 130 99
f 130 695 99
f 179 695 356
f 356 152 784
f 784 179 356
f 356 169 152
f 21 17 110
f 110 627 21
f 77 17 21
f 362 53 887
f 311 481 887
f 887 44 362
f 887 481 44
f 821 53 419
f 821 120 311
f 311 887 821
f 821 887 53
f 943 44 849
f 44 481 849
f 18 57 515
f 258 667 195
f 195 542 258
f 195 831 330
f 330 542 195
f 468 641 740
f 740 777 468
f 468 777 641
f 740 407 113
f 113 777 740
f 113 407 710
f 339 316 285
f 285 397 339
f 698 1000 531
f 531 207 698
f 286 93 588
f 380 919 507
f 738 599 467
f 467 340 738
f 990 172 405
f 996 978 975
f 975 779 996
f 977 978 616
f 616 996 959
f 978 996 616
f 668 236 538
f 538 137 668
f 285 316 538
f 316 137 538
f 282 236 665
f 665 584 282
f 990 584 665
f 665 668 990
f 665 236 668
f 880 538 236
f 880 236 282
f 643 126 865
f 865 233 643
f 718 126 643
f 643 551 718
f 400 778 385
f 385 629 400
f 132 830 707
f 446 830 649
f 446 649 509
f 509 876 446
f 446 876 756
f 756 707 446
f 446 707 830
f 274 341 756
f 756 876 274
f 629 385 274
f 274 385 341
f 274 876 334
f 661 629 274
f 274 334 661
f 394 86 863
f 557 86 394
f 528 63 863
f 863 86 528
f 788 840 433
f 606 840 721
f 449 60 753
f 449 617 60
f 724 1001 157
f 157 617 724
f 724 857 1001
f 48 166 539
f 539 218 48
f 892 760 872
f 892 872 374
f 374 760 892
f 721 689 793
f 981 366 793
f 793 366 427
f 793 606 721
f 427 606 793
f 599 755 347
f 347 689 599
f 347 793 689
f 347 755 981
f 981 793 347
f 617 449 52
f 52 449 753
f 163 145 969
f 163 758 145
f 165 218 539
f 539 49 165
f 165 49 65
f 595 49 870
f 268 591 748
f 748 249 268
f 288 1003 423
f 748 591 423
f 423 591 288
f 833 650 982
f 193 709 47
f 193 47 345
f 345 709 193
f 384 709 345
f 898 461 368
f 368 219 898
f 11 461 898
f 898 219 11
f 602 368 869
f 602 124 368
f 554 349 368
f 368 124 554
f 427 366 941
f 941 606 427
f 245 136 755
f 494 977 245
f 977 616 245
f 245 616 959
f 1009 366 981
f 981 136 1009
f 1009 743 366
f 1009 136 959
f 734 329 421
f 734 640 329
f 679 983 868
f 868 983 367
f 677 247 474
f 247 706 474
f 706 757 474
f 732 566 573
f 171 499 732
f 614 590 954
f 614 597 111
f 789 496 205
f 622 633 789
f 789 633 496
f 623 646 657
f 786 733 517
f 517 590 662
f 657 733 858
f 858 733 786
f 858 623 657
f 786 623 858
f 155 329 242
f 329 640 242
f 420 187 74
f 74 837 420
f 420 837 187
f 187 267 914
f 10 187 914
f 914 632 10
f 35 632 914
f 720 837 553
f 74 727 553
f 553 837 74
f 453 727 638
f 644 553 453
f 708 443 679
f 708 115 443
f 687 115 399
f 272 501 622
f 622 897 272
f 272 217 501
f 897 217 272
f 315 562 692
f 622 562 315
f 315 897 622
f 841 559 725
f 725 741 841
f 559 434 725
f 465 376 903
f 260 443 958
f 443 651 958
f 958 651 240
f 958 686 260
f 686 958 227
f 534 240 568
f 534 227 240
f 499 227 534
f 203 430 336
f 336 273 203
f 430 527 336
f 527 80 336
f 358 298 402
f 676 404 97
f 673 548 354
f 354 704 673
f 900 68 391
f 391 395 900
f 395 949 900
f 900 949 428
f 428 68 900
f 540 298 273
f 273 336 540
f 540 336 80
f 162 500 873
f 873 500 220
f 220 1010 873
f 220 500 102
f 102 500 68
f 106 220 102
f 102 68 106
f 220 685 928
f 569 769 932
f 168 200 39
f 305 182 676
f 776 605 426
f 815 597 636
f 111 597 815
f 435 618 424
f 435 426 618
f 559 842 192
f 192 582 559
f 192 688 582
f 620 842 841
f 841 256 620
f 431 614 111
f 590 614 431
f 431 111 637
f 965 889 234
f 234 889 429
f 234 429 90
f 636 524 332
f 546 776 332
f 332 889 546
f 429 889 332
f 38 994 31
f 31 800 38
f 289 263 31
f 31 263 826
f 826 800 31
f 31 994 965
f 989 962 851
f 851 795 989
f 851 234 90
f 962 234 851
f 300 795 851
f 962 241 961
f 965 234 961
f 961 234 962
f 961 241 289
f 289 31 961
f 961 31 965
f 989 795 202
f 202 164 989
f 202 920 164
f 202 300 921
f 202 795 300
f 351 548 673
f 673 773 351
f 351 773 548
f 592 202 921
f 920 202 592
f 50 88 952
f 88 403 952
f 952 403 255
f 905 583 513
f 871 621 513
f 621 905 513
f 513 923 871
f 513 143 923
f 583 143 513
f 455 143 128
f 455 88 50
f 50 143 455
f 720 983 64
f 64 106 720
f 306 439 350
f 350 439 224
f 306 550 55
f 55 439 306
f 9 275 491
f 803 544 491
f 491 544 9
f 383 543 927
f 927 701 383
f 383 344 543
f 940 692 622
f 320 452 940
f 452 383 940
f 622 789 940
f 666 342 917
f 488 785 438
f 438 87 488
f 438 785 153
f 153 696 438
f 696 703 438
f 703 87 438
f 826 944 133
f 133 944 696
f 696 645 133
f 133 277 826
f 133 645 277
f 951 530 89
f 89 483 951
f 530 483 89
f 656 343 694
f 363 502 413
f 413 502 42
f 413 570 363
f 42 570 413
f 827 502 77
f 77 23 827
f 42 502 827
f 23 746 827
f 169 356 71
f 71 356 802
f 139 169 71
f 71 802 139
f 77 21 6
f 6 23 77
f 6 21 627
f 980 18 515
f 327 512 78
f 419 53 836
f 456 960 70
f 457 822 560
f 560 598 457
f 457 32 290
f 22 32 457
f 560 822 29
f 29 822 967
f 29 598 560
f 29 896 254
f 254 598 29
f 831 195 655
f 655 388 831
f 655 32 22
f 747 667 866
f 747 195 667
f 747 655 195
f 32 655 747
f 866 290 747
f 290 32 747
f 12 113 710
f 777 113 12
f 327 149 12
f 12 512 327
f 280 149 327
f 417 785 488
f 603 785 417
f 417 407 603
f 710 407 417
f 831 388 819
f 819 388 365
f 869 207 204
f 207 531 204
f 299 531 1000
f 993 93 549
f 117 380 507
f 411 380 117
f 507 3 117
f 735 380 411
f 735 405 172
f 411 405 735
f 735 172 919
f 919 380 735
f 221 755 599
f 599 3 221
f 221 3 507
f 221 507 494
f 494 245 221
f 221 245 755
f 599 738 716
f 716 3 599
f 990 405 154
f 154 405 411
f 3 716 154
f 411 117 154
f 154 117 3
f 995 880 282
f 506 888 995
f 888 478 995
f 995 478 880
f 51 506 995
f 995 282 51
f 318 518 778
f 778 518 396
f 396 385 778
f 341 385 396
f 756 341 396
f 396 707 756
f 762 394 863
f 386 394 762
f 213 606 593
f 166 48 2
f 2 760 374
f 2 48 760
f 763 760 561
f 760 48 561
f 213 593 987
f 987 593 28
f 987 28 160
f 647 433 840
f 355 433 647
f 647 690 355
f 617 52 731
f 857 724 731
f 731 724 617
f 145 857 731
f 731 387 145
f 615 690 874
f 355 690 615
f 874 387 615
f 387 731 615
f 615 731 52
f 369 52 753
f 753 902 369
f 355 615 369
f 369 615 52
f 369 433 355
f 369 902 788
f 788 433 369
f 969 752 533
f 752 693 533
f 345 47 190
f 190 693 752
f 190 752 613
f 190 945 345
f 705 945 190
f 190 83 705
f 387 83 190
f 190 613 145
f 145 387 190
f 65 812 955
f 878 595 870
f 833 595 878
f 231 268 249
f 712 125 901
f 723 125 712
f 712 541 863
f 863 985 712
f 853 723 712
f 712 985 555
f 555 853 712
f 950 301 730
f 19 847 621
f 621 591 19
f 591 268 19
f 458 301 19
f 128 905 564
f 905 847 564
f 856 423 1003
f 856 1003 939
f 249 805 370
f 749 423 812
f 748 423 728
f 728 805 249
f 895 473 1007
f 473 982 1007
f 809 473 65
f 809 982 473
f 833 982 809
f 809 595 833
f 65 49 809
f 49 595 809
f 108 219 832
f 832 219 349
f 183 941 366
f 606 941 183
f 366 743 359
f 8 183 359
f 359 183 366
f 959 996 563
f 563 779 1000
f 563 996 779
f 908 1000 698
f 698 368 908
f 368 461 908
f 959 136 968
f 968 245 959
f 136 245 968
f 984 734 147
f 640 734 984
f 984 585 91
f 147 585 984
f 399 217 726
f 726 217 897
f 265 868 367
f 797 868 265
f 265 390 797
f 679 868 5
f 5 708 679
f 115 708 5
f 16 899 147
f 367 899 16
f 16 265 367
f 390 265 16
f 205 925 291
f 925 797 291
f 797 390 291
f 390 16 291
f 147 205 291
f 790 757 475
f 475 757 85
f 85 757 706
f 85 409 132
f 85 706 409
f 26 313 84
f 84 313 828
f 580 26 84
f 84 573 580
f 828 119 84
f 119 127 84
f 992 789 205
f 992 205 147
f 786 320 476
f 476 623 786
f 320 623 476
f 216 275 786
f 786 517 216
f 216 517 662
f 662 491 216
f 216 491 275
f 792 517 733
f 792 302 954
f 792 733 302
f 954 590 792
f 590 517 792
f 414 640 638
f 638 242 414
f 414 242 640
f 638 648 719
f 719 242 638
f 719 648 74
f 155 242 719
f 74 714 719
f 719 714 10
f 10 632 719
f 719 632 155
f 1002 553 644
f 1002 141 367
f 644 453 1002
f 1002 453 141
f 367 983 1002
f 983 142 1002
f 638 58 206
f 206 453 638
f 58 640 206
f 640 984 206
f 206 984 91
f 91 141 206
f 141 453 206
f 20 553 727
f 727 453 20
f 20 453 553
f 666 115 893
f 398 725 434
f 741 725 398
f 398 835 741
f 684 572 558
f 558 434 477
f 477 684 558
f 558 398 434
f 741 835 581
f 803 37 581
f 256 741 581
f 581 37 637
f 581 620 256
f 342 835 953
f 376 465 497
f 497 465 684
f 477 376 497
f 497 684 477
f 536 572 684
f 684 465 536
f 536 465 568
f 79 958 240
f 240 227 79
f 79 227 958
f 976 732 499
f 566 732 976
f 976 997 566
f 926 402 298
f 926 97 404
f 298 97 926
f 121 120 140
f 120 27 140
f 279 27 120
f 279 821 419
f 120 821 279
f 419 980 279
f 428 949 751
f 751 267 428
f 751 949 487
f 751 487 35
f 35 914 751
f 751 914 267
f 681 1010 209
f 681 873 1010
f 209 129 681
f 129 162 681
f 162 873 681
f 838 1010 220
f 220 928 838
f 838 928 416
f 416 80 838
f 838 80 527
f 527 1010 838
f 626 769 545
f 626 377 769
f 931 769 54
f 769 377 54
f 378 769 931
f 378 932 769
f 569 932 525
f 464 39 50
f 1008 168 464
f 168 39 464
f 569 525 185
f 575 97 298
f 676 97 575
f 575 305 676
f 715 776 546
f 605 776 715
f 715 546 514
f 514 973 715
f 715 973 963
f 963 605 715
f 243 776 426
f 636 332 243
f 243 332 776
f 574 435 424
f 842 435 574
f 424 688 574
f 688 192 574
f 574 192 842
f 637 111 408
f 408 620 637
f 111 620 408
f 45 815 842
f 842 620 45
f 96 682 590
f 590 431 96
f 96 431 637
f 637 37 96
f 96 37 682
f 657 352 508
f 508 733 657
f 302 733 508
f 103 412 75
f 75 780 103
f 300 942 699
f 699 942 780
f 954 302 189
f 302 412 189
f 480 328 189
f 814 614 954
f 597 614 814
f 954 189 814
f 814 189 328
f 429 332 671
f 671 332 524
f 671 480 429
f 885 592 921
f 246 548 885
f 548 773 885
f 416 928 794
f 794 471 416
f 794 928 685
f 114 439 472
f 439 55 472
f 472 55 550
f 550 845 472
f 682 37 259
f 662 682 259
f 259 491 662
f 259 37 803
f 803 491 259
f 344 383 448
f 448 383 452
f 175 383 692
f 692 940 175
f 175 940 383
f 294 372 544
f 294 736 915
f 552 342 666
f 666 915 552
f 915 736 552
f 552 294 342
f 736 294 552
f 43 343 824
f 824 656 683
f 343 656 824
f 556 683 215
f 683 656 215
f 215 656 971
f 694 916 238
f 238 656 694
f 971 656 238
f 425 746 23
f 916 746 425
f 425 774 916
f 855 916 694
f 855 746 916
f 694 343 855
f 855 343 570
f 855 570 42
f 42 827 855
f 855 827 746
f 24 627 199
f 363 570 303
f 570 239 303
f 680 239 570
f 680 343 43
f 570 343 680
f 957 695 110
f 110 312 957
f 957 312 695
f 322 356 695
f 695 312 322
f 802 356 322
f 110 17 771
f 771 312 110
f 771 322 312
f 802 322 771
f 17 432 771
f 432 802 771
f 804 481 311
f 311 120 804
f 804 120 121
f 327 78 807
f 807 280 327
f 440 280 807
f 254 896 462
f 462 78 512
f 462 611 254
f 462 512 365
f 365 611 462
f 960 836 191
f 191 53 362
f 191 836 53
f 970 848 639
f 970 456 70
f 822 848 970
f 967 822 970
f 18 980 492
f 492 980 419
f 419 836 492
f 761 836 960
f 960 456 761
f 761 492 836
f 22 457 287
f 287 457 598
f 365 512 711
f 512 12 711
f 711 12 710
f 357 222 924
f 357 280 440
f 357 729 222
f 943 729 357
f 357 44 943
f 357 440 44
f 201 777 1
f 777 12 1
f 1 12 149
f 222 729 1005
f 774 24 1005
f 365 388 930
f 930 611 365
f 254 611 930
f 930 598 254
f 488 330 459
f 330 831 459
f 831 819 459
f 489 819 365
f 365 711 489
f 489 711 710
f 710 417 489
f 489 459 819
f 489 417 488
f 488 459 489
f 1000 286 401
f 401 299 1000
f 612 588 93
f 93 993 612
f 990 154 482
f 482 584 990
f 340 584 482
f 482 738 340
f 482 716 738
f 482 154 716
f 161 478 184
f 880 478 161
f 161 184 820
f 538 880 161
f 820 511 161
f 161 511 609
f 285 538 161
f 161 609 285
f 184 478 186
f 186 629 661
f 661 184 186
f 186 478 888
f 400 629 186
f 186 888 400
f 486 778 13
f 13 318 486
f 486 318 778
f 881 13 467
f 881 318 13
f 854 396 518
f 475 85 854
f 854 85 132
f 132 707 854
f 707 396 854
f 518 318 266
f 266 565 518
f 318 881 266
f 467 686 266
f 266 881 467
f 850 2 374
f 166 2 850
f 269 48 218
f 269 561 48
f 188 214 763
f 763 561 188
f 561 269 188
f 213 987 913
f 913 987 690
f 690 647 913
f 913 647 840
f 624 987 160
f 690 987 624
f 160 83 624
f 624 83 874
f 874 690 624
f 226 190 47
f 693 190 226
f 218 165 198
f 198 165 65
f 65 955 198
f 523 650 833
f 833 878 523
f 863 541 451
f 451 231 249
f 451 762 863
f 386 762 451
f 249 370 451
f 268 231 364
f 458 19 364
f 364 19 268
f 901 700 601
f 601 712 901
f 700 138 879
f 879 138 114
f 114 472 879
f 393 403 88
f 88 455 393
f 393 455 128
f 128 210 393
f 847 19 829
f 829 19 301
f 829 564 847
f 862 210 128
f 128 564 862
f 862 564 210
f 210 564 112
f 939 634 782
f 782 856 939
f 812 423 7
f 423 856 7
f 7 955 812
f 7 198 955
f 856 782 7
f 7 782 198
f 839 370 805
f 839 394 386
f 386 451 839
f 839 451 370
f 557 394 839
f 230 749 812
f 805 749 823
f 557 839 823
f 823 839 805
f 749 230 823
f 823 473 557
f 65 473 823
f 823 812 65
f 823 230 812
f 567 728 423
f 805 728 567
f 423 749 567
f 567 749 805
f 894 249 748
f 748 728 894
f 894 728 249
f 373 832 384
f 108 832 373
f 345 108 373
f 373 384 345
f 348 8 825
f 348 183 8
f 825 160 348
f 160 28 348
f 28 593 134
f 134 348 28
f 183 348 134
f 134 593 606
f 606 183 134
f 11 8 988
f 8 359 988
f 988 461 11
f 988 359 743
f 959 563 67
f 67 1009 959
f 743 1009 67
f 743 67 223
f 223 67 563
f 223 563 1000
f 1000 908 223
f 813 734 421
f 813 604 734
f 657 646 522
f 522 352 657
f 75 352 846
f 399 115 664
f 115 5 664
f 922 868 797
f 922 5 868
f 922 797 925
f 922 664 5
f 767 16 147
f 147 291 767
f 767 291 16
f 475 565 25
f 25 790 475
f 194 98 474
f 677 474 144
f 474 98 144
f 144 127 677
f 171 732 909
f 909 98 171
f 909 84 127
f 127 144 909
f 909 144 98
f 789 992 504
f 320 940 504
f 504 940 789
f 447 623 320
f 320 504 447
f 447 504 992
f 936 1002 142
f 553 1002 936
f 936 142 720
f 720 553 936
f 95 109 692
f 692 383 95
f 95 383 701
f 979 915 666
f 608 835 594
f 835 398 594
f 594 558 572
f 398 558 594
f 568 240 933
f 933 572 568
f 240 651 933
f 918 651 443
f 443 466 918
f 637 620 333
f 333 581 637
f 620 581 333
f 342 953 904
f 904 917 342
f 904 443 666
f 666 917 904
f 252 953 835
f 252 835 608
f 252 904 953
f 608 594 252
f 252 466 443
f 443 904 252
f 974 997 903
f 566 997 974
f 237 566 974
f 974 490 237
f 903 490 974
f 94 465 903
f 903 997 94
f 997 976 94
f 568 465 94
f 568 572 56
f 56 536 568
f 572 536 56
f 499 534 991
f 991 976 499
f 991 534 568
f 568 94 991
f 991 94 976
f 810 329 155
f 421 329 810
f 935 910 931
f 931 54 935
f 932 378 770
f 770 525 932
f 50 952 156
f 156 464 50
f 1008 464 156
f 156 418 1008
f 156 516 418
f 255 516 156
f 156 952 255
f 986 923 50
f 50 39 986
f 39 185 986
f 660 569 652
f 569 185 652
f 652 185 39
f 652 200 660
f 652 39 200
f 298 540 929
f 929 575 298
f 842 815 669
f 815 45 441
f 441 45 620
f 111 815 441
f 441 620 111
f 59 508 352
f 75 412 59
f 59 352 75
f 59 412 302
f 302 508 59
f 90 942 361
f 361 942 300
f 361 851 90
f 300 851 361
f 780 942 118
f 118 103 780
f 118 942 90
f 90 480 118
f 300 699 309
f 246 885 309
f 921 300 309
f 309 885 921
f 937 780 75
f 75 846 937
f 480 189 62
f 62 189 412
f 62 118 480
f 412 103 62
f 103 118 62
f 276 671 524
f 276 814 328
f 276 328 480
f 480 671 276
f 276 524 597
f 597 814 276
f 406 885 773
f 592 885 406
f 844 521 406
f 521 920 406
f 920 592 406
f 673 844 406
f 406 773 673
f 818 794 685
f 471 794 818
f 818 685 106
f 210 112 658
f 658 879 472
f 275 344 537
f 344 448 537
f 786 275 537
f 537 452 786
f 537 448 452
f 772 544 803
f 556 215 883
f 442 215 971
f 971 849 442
f 884 883 442
f 442 883 215
f 442 849 481
f 481 804 442
f 971 238 392
f 392 729 943
f 943 849 392
f 392 849 971
f 23 6 100
f 100 425 23
f 774 425 100
f 100 24 774
f 100 6 627
f 627 24 100
f 146 804 121
f 146 442 804
f 101 653 980
f 515 445 101
f 101 980 515
f 27 279 382
f 382 279 980
f 980 653 382
f 362 440 811
f 440 807 811
f 811 191 362
f 722 807 78
f 722 811 807
f 960 191 722
f 191 811 722
f 34 29 967
f 967 970 34
f 896 29 34
f 70 896 34
f 34 970 70
f 861 970 639
f 456 970 861
f 861 761 456
f 639 57 861
f 57 18 861
f 18 492 861
f 492 761 861
f 22 287 30
f 30 287 598
f 30 655 22
f 598 930 30
f 388 655 30
f 30 930 388
f 280 357 304
f 149 280 304
f 304 1 149
f 304 357 924
f 304 924 201
f 201 1 304
f 222 1005 864
f 864 1005 24
f 924 222 864
f 130 924 864
f 199 130 864
f 864 24 199
f 151 238 916
f 916 774 151
f 774 1005 151
f 151 1005 729
f 729 392 151
f 151 392 238
f 475 854 228
f 228 854 518
f 228 565 475
f 518 565 228
f 744 606 213
f 213 913 744
f 840 606 744
f 744 913 840
f 541 712 529
f 529 601 381
f 712 601 529
f 381 601 135
f 135 601 700
f 700 879 135
f 135 879 730
f 170 845 403
f 403 393 170
f 170 393 210
f 210 658 170
f 170 472 845
f 170 658 472
f 964 301 950
f 964 829 301
f 564 829 964
f 950 112 964
f 964 112 564
f 906 634 911
f 906 782 634
f 911 214 906
f 754 908 461
f 461 988 754
f 754 988 743
f 743 223 754
f 754 223 908
f 604 813 307
f 646 604 307
f 307 522 646
f 352 522 307
f 307 846 352
f 498 922 925
f 498 925 912
f 912 496 498
f 496 633 498
f 790 25 235
f 235 266 686
f 565 266 235
f 235 25 565
f 757 790 314
f 314 474 757
f 314 194 474
f 790 235 314
f 674 499 171
f 171 98 674
f 98 194 674
f 674 227 499
f 176 732 573
f 176 909 732
f 573 84 176
f 84 909 176
f 646 623 787
f 623 447 787
f 147 734 787
f 787 992 147
f 787 447 992
f 787 604 646
f 734 604 787
f 915 979 371
f 251 122 315
f 251 315 692
f 692 109 251
f 571 122 399
f 399 726 571
f 571 726 897
f 897 315 571
f 315 122 571
f 197 594 572
f 572 933 197
f 197 933 466
f 466 252 197
f 197 252 594
f 66 933 651
f 466 933 66
f 651 918 66
f 66 918 466
f 654 353 1004
f 305 575 229
f 628 185 525
f 244 770 378
f 948 929 540
f 842 669 40
f 40 669 243
f 40 435 842
f 426 435 40
f 40 243 426
f 346 669 815
f 243 669 346
f 346 815 636
f 636 243 346
f 437 699 780
f 780 937 437
f 271 658 112
f 950 730 271
f 271 112 950
f 730 879 271
f 879 658 271
f 470 294 544
f 544 772 470
f 342 294 470
f 803 581 768
f 768 772 803
f 768 470 772
f 768 835 342
f 342 470 768
f 884 442 321
f 442 146 321
f 653 101 270
f 70 960 642
f 960 722 642
f 642 722 78
f 642 896 70
f 642 462 896
f 78 462 642
f 458 364 875
f 875 529 458
f 875 364 231
f 541 529 860
f 860 451 541
f 231 451 860
f 860 875 231
f 529 875 860
f 381 135 150
f 150 135 730
f 150 529 381
f 150 730 301
f 150 301 458
f 458 529 150
f 782 906 308
f 198 782 308
f 214 188 308
f 308 906 214
f 218 198 308
f 308 269 218
f 308 188 269
f 495 813 421
f 495 307 813
f 421 810 495
f 495 810 460
f 501 217 998
f 998 498 633
f 622 501 998
f 998 633 622
f 194 314 105
f 686 227 105
f 105 235 686
f 105 314 235
f 227 674 105
f 105 674 194
f 915 371 610
f 109 95 610
f 610 294 915
f 372 294 610
f 701 372 610
f 610 95 701
f 399 122 36
f 122 742 36
f 36 687 399
f 36 742 687
f 15 979 666
f 15 742 979
f 666 893 15
f 687 742 15
f 115 687 15
f 15 893 115
f 934 371 979
f 979 742 934
f 109 610 934
f 934 610 371
f 155 253 972
f 257 759 972
f 972 253 257
f 972 759 799
f 460 810 843
f 843 675 460
f 1004 675 843
f 843 972 799
f 1006 675 1004
f 1004 353 1006
f 246 309 250
f 250 548 246
f 250 354 548
f 704 354 532
f 532 654 704
f 353 654 532
f 354 250 532
f 82 704 750
f 704 654 750
f 750 799 82
f 750 843 799
f 750 654 1004
f 1004 843 750
f 305 229 817
f 817 229 422
f 116 471 796
f 852 628 586
f 586 196 852
f 525 770 325
f 325 628 525
f 586 628 325
f 174 196 796
f 796 471 174
f 471 818 174
f 450 818 106
f 106 64 450
f 64 196 450
f 450 174 818
f 196 174 450
f 806 80 416
f 416 948 806
f 806 540 80
f 806 948 540
f 929 948 882
f 575 929 882
f 882 229 575
f 579 581 835
f 835 768 579
f 579 768 581
f 180 101 445
f 180 270 101
f 846 307 890
f 307 495 890
f 890 937 846
f 890 437 937
f 890 495 460
f 498 998 783
f 664 922 783
f 922 498 783
f 783 998 217
f 783 217 399
f 399 664 783
f 520 742 122
f 520 934 742
f 109 934 520
f 520 251 109
f 122 251 520
f 625 843 810
f 972 843 625
f 625 810 155
f 155 972 625
f 519 1006 353
f 519 250 309
f 519 309 699
f 699 437 519
f 182 305 296
f 305 817 296
f 931 182 310
f 310 378 931
f 182 296 310
f 310 296 817
f 310 244 378
f 422 244 310
f 310 817 422
f 628 852 678
f 185 628 678
f 678 986 185
f 871 923 678
f 923 986 678
f 577 852 196
f 577 196 64
f 871 678 577
f 577 678 852
f 577 260 788
f 577 983 260
f 577 64 983
f 788 14 577
f 14 1003 577
f 577 621 871
f 577 1003 621
f 999 325 770
f 796 196 999
f 999 196 586
f 586 325 999
f 770 244 999
f 999 422 796
f 999 244 422
f 229 882 697
f 697 882 116
f 422 229 697
f 796 422 697
f 697 116 796
f 148 948 416
f 148 882 948
f 116 882 148
f 416 471 148
f 471 116 148
f 460 675 956
f 956 890 460
f 675 1006 956
f 1006 519 956
f 437 890 956
f 956 519 437
f 808 519 353
f 250 519 808
f 353 532 808
f 808 532 250
f 180 224 92
f 180 338 77
f 630 503 180
f 47 709 180
f 901 125 180
f 828 313 180
f 781 547 180
f 180 457 290
f 43 824 180
f 816 324 180
f 180 631 1001
f 180 232 237
f 374 436 180
f 180 834 107
f 180 680 43
f 180 57 639
f 180 138 901
f 180 551 323
f 820 41 180
f 588 612 180
f 180 436 630
f 180 86 895
f 237 490 180
f 77 502 180
f 180 938 203
f 180 69 295
f 331 123 180
f 180 248 828
f 180 683 556
f 180 702 331
f 295 801 180
f 180 323 316
f 1001 758 180
f 180 503 631
f 203 358 180
f 92 138 180
f 180 123 410
f 410 469 180
f 180 264 816
f 639 848 180
f 316 339 180
f 549 233 180
f 126 718 180
f 180 878 870
f 180 163 969
f 895 1007 180
f 107 338 180
f 180 159 248
f 290 938 180
f 349 554 180
f 445 791 180
f 180 832 349
f 180 454 781
f 404 910 180
f 545 619 180
f 180 479 306
f 121 140 180
f 469 264 180
f 180 313 232
f 306 350 180
f 526 702 180
f 180 511 820
f 180 397 511
f 180 41 526
f 884 321 180
f 180 865 126
f 180 853 63
f 180 993 549
f 870 166 180
f 63 528 180
f 969 533 180
f 180 602 869
f 490 834 180
f 180 324 159
f 791 57 180
f 180 619 454
f 180 547 337
f 337 69 180
f 180 801 479
f 650 523 180
f 180 502 363
f 910 935 180
f 180 339 397
f 869 204 180
f 286 588 180
f 233 865 180
f 180 718 551
f 180 723 853
f 180 528 86
f 758 163 180
f 180 850 374
f 180 982 650
f 709 384 180
f 124 602 180
f 180 554 124
f 358 402 180
f 180 926 404
f 180 626 545
f 180 350 224
f 363 303 180
f 556 883 180
f 180 848 822
f 822 457 180
f 180 204 531
f 531 299 180
f 180 401 286
f 180 125 723
f 180 533 693
f 180 226 47
f 180 1007 982
f 384 832 180
f 402 926 180
f 180 140 27
f 377 626 180
f 180 54 377
f 180 824 683
f 180 303 239
f 239 680 180
f 180 146 121
f 299 401 180
f 180 612 993
f 166 850 180
f 693 226 180
f 180 523 878
f 180 935 54
f 180 883 884
f 27 382 180
f 180 382 653
f 180 321 146
f 653 270 180

