# https://github.com/mikedh/trimesh
v 0.03785669 -0.04921210 -0.10959765
v 0.04641619 -0.03439302 -0.10962974
v 0.04265908 -0.04214573 -0.10960599
v 0.05203855 0.01207911 -0.10961293
v 0.05332050 0.00929336 -0.10960071
v 0.05397591 0.00026428 -0.10959334
v 0.05376278 -0.00346530 -0.10961132
v 0.05313330 -0.01087441 -0.10960716
v 0.01495450 0.07085810 -0.10951624
v 0.02124405 0.06652309 -0.10954939
v 0.01058370 0.07337568 -0.10951883
v 0.00066345 0.07776736 -0.10954630
v 0.02939306 0.05944996 -0.10952391
v 0.03171760 0.05697359 -0.10953107
v 0.03673890 0.05107034 -0.10954727
v 0.04644406 0.03420854 -0.10958290
v 0.04865291 0.02895016 -0.10957403
v 0.05024716 0.02375595 -0.10958156
v -0.05878516 0.07652443 -0.10965189
v -0.05101010 0.07910029 -0.10965458
v -0.04653395 0.08037490 -0.10962972
v -0.05549055 0.07780249 -0.10965553
v -0.04268970 0.08154189 -0.10959175
v -0.02737420 0.08316551 -0.10961468
v -0.00879805 0.08055622 -0.10956334
v -0.00451388 0.07935130 -0.10956901
v -0.06991482 0.07060573 -0.10971846
v -0.09338231 0.04824622 -0.10983785
v -0.09517137 0.04545540 -0.10984028
v -0.09809578 0.04048918 -0.10982325
v -0.10043061 0.03616453 -0.10984927
v -0.10226879 0.03185261 -0.10988291
v -0.10631946 0.01842469 -0.11000000
v -0.09094486 0.05118719 -0.10983962
v -0.07991122 0.06319833 -0.10979031
v -0.08633282 0.05700231 -0.10981108
v -0.10781600 -0.01218760 -0.10991514
v -0.10817020 -0.00813157 -0.10990931
v -0.10876276 -0.00000158 -0.10990454
v -0.10631899 -0.01803766 -0.10993943
v -0.10552582 -0.02210726 -0.10992000
v -0.10463915 -0.02561582 -0.10984891
v -0.09719497 -0.04180336 -0.10978384
v -0.09125351 -0.05028641 -0.10981326
v -0.08840093 -0.05373906 -0.10979469
v -0.08211126 -0.06051536 -0.10975823
v -0.07302513 -0.06785960 -0.10973309
v -0.06889358 -0.07066188 -0.10971488
v -0.06425797 -0.07355920 -0.10966438
v -0.06047104 -0.07487739 -0.10973069
v -0.05429926 -0.07749803 -0.10971278
v -0.04869358 -0.07935429 -0.10973624
v -0.02720557 -0.08296384 -0.10961045
v -0.02106766 -0.08244623 -0.10958124
v 0.03559390 -0.05210782 -0.10958952
v -0.01255539 -0.08130653 -0.10951112
v -0.10073922 -0.03507822 -0.10983477
v 0.05018210 -0.02376880 -0.10960695
v 0.05184559 -0.01834969 -0.10955875
v -0.03839462 -0.08204361 -0.10958395
v -0.03444712 -0.08246845 -0.10956444
v -0.10173429 -0.03270146 -0.10987246
v -0.10341969 -0.02876856 -0.10987091
v 0.05195991 0.01807365 -0.10955435
v -0.00402322 -0.07894739 -0.10955987
v -0.00827502 -0.08020239 -0.10953346
v -0.01163922 -0.08115608 -0.10954975
v -0.10404492 0.02757029 -0.10987499
v 0.00496320 -0.07574244 -0.10953426
v 0.02000478 -0.06701657 -0.10957559
v -0.10550740 0.02254356 -0.10986400
v -0.10669026 -0.01776795 -0.10983956
v -0.01993757 -0.08234862 -0.10954137
v -0.03444249 0.08266653 -0.10953830
v -0.06726858 -0.07197079 -0.10946683
v 0.09524589 -0.01196618 -0.08274513
v 0.09741998 -0.01168638 -0.08101050
v 0.10223301 -0.01388962 -0.06859198
v 0.10256524 -0.01087562 -0.07520548
v 0.10112451 -0.01089027 -0.07742884
v -0.10226207 0.00753172 0.08825649
v -0.10431069 0.00570475 0.08846896
v -0.10585308 0.00401706 0.08845592
v -0.08911113 0.04367452 -0.00925536
v -0.08645051 0.04574764 -0.00152383
v -0.08404595 0.04844004 -0.00020449
v -0.08712263 0.04678642 -0.01225683
v -0.08514535 0.04964480 -0.01451181
v -0.08440752 0.04873099 -0.00384949
v -0.08138058 0.04929532 0.00985694
v -0.07807012 0.05073270 0.01862165
v -0.07843789 0.05155088 0.01350623
v -0.07960078 0.05177584 0.00698202
v -0.08102038 0.05205565 -0.00208319
v -0.07962879 0.05285689 0.00126088
v -0.08096856 0.05357008 -0.01117896
v -0.07707956 0.05008814 0.02496528
v -0.07597516 0.04896379 0.03270769
v -0.07983411 0.05389300 -0.00591033
v -0.07692190 0.05607104 -0.00216450
v -0.07793486 0.05668092 -0.01239197
v -0.07603378 0.05336226 0.01569485
v -0.07644933 0.05450731 0.00841009
v -0.07402502 0.05348894 0.02273524
v -0.07302672 0.05305617 0.02783360
v -0.07257232 0.05215640 0.03238243
v -0.07279016 0.05001420 0.03841478
v -0.07524367 0.05855917 -0.00855623
v -0.07426949 0.05517453 0.01455517
v -0.07170901 0.05619579 0.01960791
v -0.07464562 0.05794514 -0.00152370
v -0.07282619 0.05692929 0.01187257
v -0.07036045 0.05009342 0.04384363
v -0.09445848 0.04942736 -0.08243363
v -0.07000110 0.05581072 0.02670881
v -0.06999496 0.05455987 0.03136052
v -0.06961149 0.05328512 0.03653424
v -0.06944709 0.05235120 0.03970285
v -0.06019905 0.04535456 0.07395784
v -0.06678490 0.04978080 0.05209431
v -0.06661034 0.05272143 0.04492875
v -0.09720832 0.04526211 -0.08247412
v -0.09619306 0.04679000 -0.08295612
v -0.09425359 0.04970965 -0.08285989
v -0.10038309 0.04036268 -0.08251367
v -0.10016948 0.04075098 -0.08297675
v -0.10142676 0.03871942 -0.08259991
v -0.08985719 0.05493913 -0.08261089
v -0.10323154 0.03519208 -0.08291650
v -0.10419223 0.03324487 -0.08269563
v -0.10505409 0.03142399 -0.08272486
v -0.10571994 0.02996707 -0.08273644
v -0.10681932 0.02753730 -0.08306595
v -0.10835939 0.02239573 -0.08308741
v -0.10940774 0.01854018 -0.08273643
v -0.09521992 0.04687105 -0.10305062
v -0.09396134 0.04885917 -0.10325228
v -0.09832135 0.04172374 -0.10328297
v -0.10113007 0.03653337 -0.10446003
v -0.10494438 0.02791673 -0.10274848
v -0.09496967 0.04677051 -0.10788306
v -0.09795952 0.04174312 -0.10792117
v -0.10078820 0.03660651 -0.10796395
v -0.10344667 0.03131637 -0.10408498
v -0.10294319 0.03174583 -0.10767526
v -0.09373257 0.04863993 -0.10811836
v -0.09135189 0.05206945 -0.10286395
v -0.10448140 0.02792714 -0.10788069
v -0.08675630 0.05745834 -0.10406665
v -0.08668010 0.05723430 -0.10792157
v -0.10611771 0.02352217 -0.10404221
v -0.10580693 0.02338038 -0.10783832
v -0.10726199 0.01788370 -0.10784569
v -0.08039939 0.06356007 -0.10341357
v -0.08009904 0.06355501 -0.10815840
v -0.10889088 0.01012596 -0.10370866
v -0.08752155 0.05756783 -0.08266755
v -0.10849624 0.01029944 -0.10766986
v -0.11014468 0.01491365 -0.08270025
v -0.11038016 0.01255879 -0.08272367
v -0.06286738 0.04978065 0.05951371
v -0.06321898 0.05170555 0.05415804
v -0.06063339 0.04822792 0.06700360
v -0.08568777 0.05937827 -0.08268431
v -0.10671805 0.01817427 -0.10989832
v -0.07506966 0.06779712 -0.10382195
v -0.07513318 0.06756742 -0.10825247
v -0.06700187 0.05603898 0.03388025
v -0.06362670 0.05589355 0.04175603
v -0.08396634 0.06099050 -0.08265818
v -0.08240159 0.06244331 -0.08271391
v -0.08072862 0.06392354 -0.08267968
v -0.07236825 0.06108097 -0.01266004
v -0.06865909 0.05717758 0.02487170
v -0.07830698 0.06579303 -0.08274028
v -0.07539354 0.06797223 -0.08305528
v -0.07515722 0.06807639 -0.08255848
v -0.06921102 0.05850289 0.01687144
v -0.07201266 0.05977662 -0.00134323
v -0.06850011 0.05979036 0.01254265
v -0.07027523 0.06120968 -0.00297854
v -0.06843885 0.06109751 0.00493107
v -0.06371087 0.05378157 0.04776895
v -0.10663712 0.00261472 0.08859249
v -0.06629629 0.05738565 0.03060033
v -0.06639675 0.05863432 0.02509924
v -0.06100205 0.05676782 0.04443925
v -0.06006570 0.05579517 0.04906336
v -0.07280246 0.06969116 -0.08265032
v -0.05707553 0.04841160 0.07234355
v -0.05957473 0.05354443 0.05603788
v -0.05834953 0.05056307 0.06535069
v -0.05535704 0.04423706 0.08351266
v -0.05633738 0.04644270 0.07756606
v -0.06185128 0.05802377 0.03864901
v -0.06289719 0.05906774 0.03258135
v -0.06977831 0.06294734 -0.01419562
v -0.06702895 0.06459027 -0.01361694
v -0.06437072 0.06122682 0.01863286
v -0.06468843 0.06197085 0.01367252
v -0.06560296 0.06274441 0.00563300
v -0.06643679 0.06335064 -0.00152176
v -0.07042873 0.07073284 -0.10790679
v -0.06344746 0.06036400 0.02541765
v -0.06986957 0.07161357 -0.08280090
v -0.07496927 0.06726621 -0.10977944
v -0.05631635 0.05307638 0.06219585
v -0.05492401 0.05001673 0.07166263
v -0.05343004 0.04674782 0.08065039
v -0.05559745 0.05605691 0.05560451
v -0.06698183 0.07277947 -0.10776424
v -0.05680265 0.05833006 0.04697892
v -0.05842402 0.05947932 0.04017138
v -0.10923441 0.00623273 -0.10348509
v -0.10963021 0.00008302 -0.10366440
v -0.06761000 0.07292781 -0.08282272
v -0.05352098 0.05214936 0.06838129
v -0.05344761 0.05559739 0.05978465
v -0.06349959 0.06601699 -0.01030916
v -0.05892097 0.06831907 -0.01041370
v -0.05524526 0.05947912 0.04584534
v -0.05882517 0.06109733 0.03288793
v -0.10888339 0.00580767 -0.10785820
v -0.10927023 0.00017705 -0.10782938
v -0.11089469 0.00650437 -0.08315467
v -0.11122682 0.00076646 -0.08308214
v -0.06009463 0.06617218 0.00049599
v -0.05556003 0.06852633 -0.00064711
v -0.05552789 0.06996701 -0.01075041
v -0.06103833 0.06424690 0.01059322
v -0.06013632 0.06418631 0.01373544
v -0.05581043 0.06656542 0.01108360
v -0.05289735 0.06880729 0.00497200
v -0.05256737 0.06970818 0.00022397
v -0.05970234 0.06301853 0.02128858
v -0.05732272 0.06449520 0.01935101
v -0.05583403 0.06272434 0.03181730
v -0.05157301 0.04848051 0.07907649
v -0.05571572 0.06098281 0.03949392
v -0.06395922 0.07434873 -0.10771759
v -0.05133205 0.05195792 0.07155900
v -0.05246502 0.05950547 0.04995115
v -0.05122825 0.05761838 0.05712981
v -0.06446232 0.07446146 -0.08310704
v -0.05108541 0.05514125 0.06393253
v -0.05011205 0.05321292 0.06996303
v -0.06075266 0.07621516 -0.08318793
v -0.05211486 0.06290248 0.03815360
v -0.05807169 0.07740373 -0.08291932
v -0.06579955 0.07308228 -0.10965958
v -0.05261313 0.06765918 0.01283164
v -0.05284472 0.06603514 0.02139593
v -0.05170055 0.06147144 0.04439304
v -0.04940991 0.05199455 0.07353507
v -0.05960093 0.07639095 -0.10761450
v -0.05241096 0.06419790 0.03142912
v -0.06187366 0.07506770 -0.10968220
v -0.04828303 0.05583442 0.06535822
v -0.04853217 0.05785670 0.05961527
v -0.05560806 0.07805223 -0.10759131
v -0.04986357 0.05962525 0.05284516
v -0.04553757 0.05939806 0.05864292
v -0.05229052 0.07079327 -0.00716606
v -0.05028619 0.07191640 -0.01043817
v -0.04903631 0.06985582 0.00771164
v -0.04480406 0.05674915 0.06671523
v -0.04391983 0.05557842 0.07055218
v -0.04936240 0.06291924 0.04227084
v -0.04931873 0.06771352 0.01941969
v -0.04949998 0.06855817 0.01436625
v -0.04935740 0.07129293 -0.00268840
v -0.04602988 0.06163992 0.05098570
v -0.04619417 0.06289613 0.04649485
v -0.04956042 0.06418812 0.03647562
v -0.04592447 0.06594379 0.03384593
v -0.04581603 0.06411503 0.04228431
v -0.05542259 0.07851147 -0.08292312
v -0.04567228 0.06851222 0.02158019
v -0.04550059 0.06984476 0.01469336
v -0.04528731 0.07143084 0.00516999
v -0.04560040 0.07234502 -0.00184204
v -0.04554756 0.07329168 -0.00949306
v -0.10587332 0.00262851 0.08923586
v -0.10529049 0.00381768 0.08916910
v -0.04248134 0.06298849 0.05008304
v -0.04247376 0.06066672 0.05761299
v -0.04202972 0.06405467 0.04656353
v -0.04197371 0.05720581 0.06788882
v -0.04158316 0.05941452 0.06201874
v -0.04216585 0.06878543 0.02504416
v -0.04245129 0.06634916 0.03643305
v -0.04296384 0.06495020 0.04200762
v -0.04273698 0.06989847 0.01847469
v -0.03965372 0.05589532 0.07287609
v -0.03844932 0.06295356 0.05363187
v -0.03849024 0.06975406 0.02478577
v -0.03855782 0.06870995 0.02974792
v -0.03882626 0.06634727 0.04035037
v -0.04085305 0.07172311 0.01004450
v -0.04346421 0.07183218 0.00541185
v -0.03857150 0.07184217 0.01215167
v -0.03768432 0.05955380 0.06444289
v -0.03691919 0.05780301 0.06965769
v -0.03794385 0.06146482 0.05867485
v -0.04204602 0.07326329 -0.00255599
v -0.03819103 0.06488296 0.04683281
v -0.10745135 0.01287590 -0.10995197
v -0.03881083 0.07251507 0.00711915
v -0.03504457 0.06278552 0.05618377
v -0.03507361 0.05917690 0.06685762
v -0.03540843 0.06632332 0.04280553
v -0.03112751 0.05678593 0.07487167
v -0.03309322 0.06488839 0.04979623
v -0.03518925 0.06981898 0.02683901
v -0.02777387 0.05532252 0.07981688
v -0.03834757 0.08229822 -0.10955439
v -0.00721862 -0.04215617 0.10569991
v -0.01117853 -0.04359035 0.10569935
v -0.01367604 -0.04429115 0.10566126
v -0.01614215 -0.04490441 0.10572710
v -0.02449532 -0.04528976 0.10591677
v -0.02761503 -0.04521986 0.10593482
v -0.00521629 -0.04055581 0.10663397
v -0.00930310 -0.04237910 0.10638392
v -0.03009818 -0.04486263 0.10604996
v -0.01135824 -0.04319392 0.10625981
v -0.01621857 -0.04453891 0.10617705
v -0.00139722 -0.07900629 -0.08415724
v -0.00044012 -0.07792811 -0.10953764
v 0.00898699 -0.07385491 -0.10951658
v 0.01068713 -0.07393634 -0.08397824
v 0.01308969 -0.07166250 -0.10952367
v 0.01539029 -0.07151013 -0.08405270
v 0.01503500 -0.07043306 -0.10952898
v 0.01877268 -0.06926923 -0.08404224
v 0.00444117 -0.07673127 -0.08408872
v 0.08736281 -0.01259596 0.09438823
v 0.09380216 -0.01251299 0.08948101
v 0.09655768 -0.01249565 0.08613728
v 0.09974493 -0.01237408 0.08163158
v 0.10267876 -0.01238410 0.07589359
v 0.10358494 -0.01246575 0.07314951
v 0.10162705 -0.01236035 0.07811253
v 0.10646259 -0.01189765 0.06459756
v 0.10677707 -0.01188190 0.06075511
v 0.10771031 -0.01139724 0.05435033
v 0.10684863 -0.01216295 -0.05218617
v 0.10671588 -0.01198505 -0.05700782
v 0.10355187 -0.01385578 -0.06169607
v 0.10697239 -0.01161447 0.06357984
v 0.09902301 -0.01198903 0.08382181
v 0.09599053 -0.01211678 0.08772811
v 0.10391140 -0.01169710 0.07506369
v 0.10494250 -0.01276591 -0.06240472
v 0.10327643 -0.01379308 -0.06518546
v 0.10748265 -0.01142988 0.05772059
v 0.10661444 -0.01149679 0.06640374
v -0.04412335 -0.04011732 0.10581696
v -0.05168663 -0.03553334 0.10578264
v -0.05050204 -0.03619533 0.10611475
v -0.05325226 -0.03413895 0.10604763
v -0.05791460 -0.02933541 0.10617822
v -0.04532591 -0.03909715 0.10639155
v -0.02844587 0.08764783 -0.09865445
v -0.02497975 -0.08790504 -0.09320303
v -0.02580060 -0.08801943 -0.09573553
v 0.00289304 -0.03623457 0.10665681
v -0.00077255 -0.03830934 0.10666901
v -0.02920037 -0.08802615 -0.09321347
v -0.02694940 -0.08854709 -0.09405496
v -0.02908596 -0.08801741 -0.09534550
v -0.02697391 -0.08821646 -0.09652624
v -0.02717731 -0.08766365 -0.09796515
v 0.05749106 -0.01289842 0.10466710
v 0.05198077 -0.01288533 0.10539091
v 0.06814660 -0.01222273 0.10285273
v 0.07026783 -0.01262400 0.10222285
v 0.07303578 -0.01191959 0.10190842
v 0.07509385 -0.01178368 0.10144219
v 0.07722926 -0.01206531 0.10046742
v 0.07689591 -0.01157334 0.10086703
v 0.08800927 -0.01207889 0.09485871
v 0.08992090 -0.01222150 0.09324871
v 0.09061722 -0.01255147 0.09210326
v 0.08675077 -0.01183139 0.09592717
v 0.09365966 -0.01202156 0.09021652
v 0.09459998 -0.01222368 0.08909258
v -0.02760214 0.08854709 -0.09473347
v -0.02746332 0.08829858 -0.09649357
v -0.02928641 0.08823514 -0.09585075
v -0.02672427 0.08760089 -0.09857364
v -0.02596429 0.08821084 -0.09611162
v -0.02576593 0.08833803 -0.09419722
v -0.02945262 0.08830142 -0.09330357
v -0.02785678 0.08851326 -0.09316784
v -0.02643091 0.08835315 -0.09327217
v 0.08852768 -0.00976177 0.09573988
v 0.10047750 -0.00136238 0.08416150
v 0.10046211 0.00004119 0.08419642
v 0.10010585 -0.00692778 0.08411492
v 0.10023541 0.00420721 0.08414504
v 0.09990409 0.00869144 0.08408278
v 0.09948393 0.00943149 0.08458277
v 0.09950228 -0.00888375 0.08462002
v 0.10198249 -0.00449005 0.08134939
v 0.10200880 0.00848443 0.08062907
v 0.10195787 0.00439845 0.08127510
v 0.10069123 0.00948885 0.08258550
v 0.10219336 -0.00007472 0.08125579
v 0.10371182 -0.00131763 0.07863314
v 0.10328694 -0.00723110 0.07872405
v 0.10040697 -0.00900281 0.08312777
v 0.10359272 0.00490921 0.07829047
v 0.10505566 -0.00143620 0.07614401
v 0.10336967 0.00876150 0.07813714
v 0.10218159 0.00945201 0.08006115
v 0.10629943 -0.00442506 0.07329586
v 0.10544679 -0.00742809 0.07444873
v 0.10170648 -0.00889850 0.08091496
v 0.10304011 -0.00887365 0.07860963
v 0.10310111 0.00942474 0.07835770
v 0.10660893 -0.00643886 0.07201205
v 0.10603039 -0.00802190 0.07290386
v 0.09767274 -0.01192273 0.08586765
v 0.09931777 -0.01138403 0.08368750
v 0.10057370 -0.01151259 0.08156597
v 0.09237816 -0.01202895 0.09142427
v 0.10312250 -0.01133711 0.07697426
v 0.10165386 -0.01177231 0.07948851
v 0.08876985 -0.01158832 0.09454646
v 0.10509520 -0.01154229 0.07223715
v 0.10094479 -0.01206476 0.08045332
v 0.10316646 -0.01197036 0.07628332
v 0.09222256 0.01235657 0.09133071
v 0.08918513 0.01213120 0.09397929
v 0.09358661 0.01252223 0.08988953
v 0.09594241 0.01241998 0.08763967
v 0.08180278 -0.01189492 0.09865405
v 0.07703150 -0.00748013 0.10257147
v 0.07507162 -0.00596992 0.10357698
v 0.08007145 -0.01185031 0.09947907
v 0.07840277 0.01208731 0.10026089
v 0.08528777 -0.01205650 0.09667541
v 0.07690047 0.00750879 0.10272145
v 0.07461566 0.00565319 0.10378169
v 0.07388844 0.00284468 0.10393658
v 0.07358212 -0.00125637 0.10396150
v 0.07424924 -0.00451763 0.10381053
v 0.07587787 0.01191001 0.10127498
v 0.08344532 -0.01203153 0.09770423
v 0.08325542 0.01231674 0.09766461
v 0.07961274 0.01232371 0.09954019
v 0.07391493 0.01205710 0.10171846
v 0.05565579 -0.00731303 0.10569277
v 0.05497371 -0.00951395 0.10550898
v 0.05493123 0.00887700 0.10563166
v 0.07434898 -0.00596586 0.10366931
v 0.07368668 -0.00523350 0.10384126
v 0.06916350 0.01288745 0.10248994
v 0.05266569 -0.00717409 0.10605190
v 0.05083681 0.00040404 0.10625029
v 0.05128051 0.00522615 0.10612792
v 0.05002506 -0.00739272 0.10631666
v 0.04789870 -0.01260486 0.10584825
v 0.05055261 0.00888975 0.10605232
v 0.07009435 0.01310788 0.10223730
v 0.07561913 0.00735830 0.10305422
v 0.08624708 -0.00227742 0.10148346
v 0.08619894 0.00072153 0.10164962
v 0.08768894 0.00090873 0.10113777
v 0.08743086 -0.00151717 0.10102216
v 0.08672546 0.00309403 0.10135701
v 0.08494934 0.00323418 0.10181020
v 0.08616558 -0.00319618 0.10112304
v 0.08604916 0.00440631 0.10106613
v 0.10787414 0.01090398 0.05618250
v 0.10729853 0.01110665 0.06314128
v 0.10908913 -0.00493552 0.06012049
v 0.10850416 -0.00747371 0.06287496
v 0.10889004 -0.00508725 0.06490066
v 0.10845526 -0.00719254 0.06534397
v 0.10948900 -0.00234643 0.05674297
v 0.10934895 -0.00222042 0.06189414
v 0.11097611 -0.00179323 -0.04003953
v 0.11055942 -0.00465516 -0.04052326
v 0.11076120 -0.00369530 -0.04665934
v 0.11056826 -0.00476323 -0.04767456
v 0.11122682 0.00032032 -0.04002409
v 0.11119651 0.00034231 -0.04719470
v 0.11043258 -0.00381124 -0.05324784
v 0.11007755 -0.00447134 -0.05596019
v 0.10911678 -0.00275349 0.06498941
v 0.11102258 0.00032475 -0.05012070
v 0.10951986 -0.00009329 0.06030595
v 0.10960131 0.00008987 0.05497498
v 0.10925322 0.00002046 0.06489674
v 0.11056323 0.00045603 -0.05532417
v 0.11030658 0.00056618 -0.05724200
v 0.10913929 -0.00445730 -0.06241051
v 0.10822898 -0.00601164 0.06721181
v 0.10938054 0.00030277 -0.06283104
v 0.10785527 -0.01087865 0.05405857
v 0.10902782 -0.00888756 -0.04514059
v 0.10861405 -0.00931082 -0.05225887
v 0.10876354 -0.00956025 -0.04333684
v 0.10840213 -0.01025925 -0.03832089
v 0.10779167 -0.00795196 0.06734774
v 0.10836542 -0.00922983 -0.05519063
v 0.10762503 -0.01002134 -0.05936081
v 0.10743713 -0.01104130 -0.05613250
v 0.10827881 -0.00422815 -0.06724960
v 0.10704811 -0.01070994 -0.06154045
v 0.10723370 -0.00997011 -0.06238136
v 0.10661552 -0.01004170 -0.06560301
v 0.10772070 -0.01142118 -0.04006182
v 0.10745367 -0.01154910 -0.05089253
v 0.10751433 -0.00729441 0.06884971
v 0.10576120 -0.01004017 -0.06838717
v 0.10830446 -0.00226277 0.06816303
v 0.10844111 0.00058748 -0.06732436
v 0.10685805 -0.00797642 0.07045693
v 0.10922276 0.00384929 0.05974947
v 0.10804600 -0.01078155 0.03994397
v 0.10892188 0.00445568 0.06484737
v 0.10833589 0.00005344 0.06826884
v 0.10485856 -0.01026871 -0.07061215
v 0.10402459 -0.01085200 -0.07230147
v 0.10662550 -0.00108197 0.07304967
v 0.10596708 -0.00442491 -0.07205057
v 0.10731736 0.00023279 -0.06968840
v 0.10722209 -0.01197653 -0.04470389
v 0.10591054 -0.01077080 -0.06627365
v 0.10534588 -0.01197211 0.06998533
v 0.10560506 -0.01201278 -0.06334430
v 0.10415469 -0.00451940 -0.07551087
v 0.10475337 -0.01191335 0.07242325
v 0.10563464 -0.00224408 -0.07306247
v 0.10589619 0.00069993 -0.07271119
v 0.10402920 -0.00017658 -0.07616770
v 0.10362774 -0.01282356 -0.06779352
v 0.10268729 -0.00453218 -0.07772779
v 0.10436287 0.00490329 -0.07498867
v 0.10316565 -0.01143922 -0.07294490
v 0.10311191 0.00082280 -0.07753772
v 0.10105341 -0.01153079 -0.07658132
v 0.10081531 -0.00471439 -0.07980399
v 0.09915418 -0.01002779 -0.07993810
v 0.10098900 -0.00014385 -0.08001127
v 0.09879419 -0.01167059 -0.07955390
v 0.09858893 -0.00482583 -0.08208542
v 0.09877230 -0.00031217 -0.08235173
v 0.10127305 0.00244899 -0.07950374
v 0.10239118 0.00518306 -0.07793815
v 0.10010204 0.00527181 -0.08039878
v 0.09852981 0.00496645 -0.08209546
v 0.09625145 -0.00979769 -0.08261898
v 0.09801975 0.00041550 -0.08298263
v 0.09727995 -0.00438721 -0.08316544
v 0.09489238 -0.00750795 -0.08419369
v 0.09613904 0.00006872 -0.08435374
v 0.09377843 -0.01192944 -0.08378472
v 0.09485718 -0.00400393 -0.08487478
v 0.09631898 0.00486498 -0.08371895
v 0.09782576 0.00714135 -0.08210550
v 0.09453318 0.00829871 -0.08422101
v 0.09538483 0.01240503 -0.08246249
v 0.09378978 0.01237924 -0.08364356
v 0.09415850 0.00001566 -0.08563798
v 0.09450800 0.00516013 -0.08484391
v 0.11058262 0.00466892 -0.04709517
v 0.10920673 0.00840619 -0.04727852
v 0.10885435 0.00926790 -0.04351205
v 0.10888207 0.00910783 -0.04943406
v 0.11033327 0.00448060 -0.05352144
v 0.10871419 0.00899745 -0.05227761
v 0.10847479 0.00893359 -0.05485310
v 0.11004930 0.00459923 -0.05610943
v 0.10846768 0.00817624 0.06151850
v 0.10838506 0.00800633 0.06440726
v 0.10810646 0.00771264 0.06627961
v 0.10913055 0.00463411 -0.06233019
v 0.10755584 0.00927053 -0.06045610
v 0.10657143 0.00913543 -0.06603112
v 0.10635164 0.01211668 -0.06043701
v 0.10672619 0.01247655 -0.05531507
v 0.10569674 0.01245138 -0.06353957
v 0.10892337 0.00454712 -0.06368841
v 0.10788463 0.01115563 0.02500984
v 0.10820750 0.00443297 -0.06718969
v 0.10752991 0.00825810 0.06808401
v 0.10569899 0.00946925 -0.06885664
v 0.10417325 0.01226736 -0.06989665
v 0.10821803 0.00403445 0.06782822
v 0.10615800 0.01278369 -0.05829458
v 0.10668787 0.00858397 0.07061271
v 0.10638466 0.00791482 0.07188135
v 0.10582034 0.00923148 0.07264401
v 0.10458027 0.00977669 -0.07148134
v 0.10528156 0.00868026 0.07428691
v 0.10639836 0.00355334 0.07311458
v 0.10482963 0.00935117 0.07483562
v 0.10758111 0.01144739 0.05832581
v 0.10698905 0.01185661 0.06191289
v 0.10662126 0.01160465 0.06703627
v 0.10574657 0.01178578 0.07041425
v 0.10471198 0.01202191 0.07326208
v 0.10581949 0.01205397 0.06912164
v 0.10560037 0.00487474 -0.07265135
v 0.10244201 0.01192789 -0.07441041
v 0.10389490 0.01201661 0.07516163
v 0.10318266 0.01230583 0.07626774
v 0.10182534 0.01229722 0.07903980
v 0.10223062 0.01175770 0.07859991
v 0.10122475 0.01200860 -0.07638760
v 0.10048758 0.01235762 0.08133112
v 0.09932923 0.01233121 0.08340106
v 0.10352719 0.01269487 0.07371184
v 0.09990771 0.01211035 -0.07812300
v 0.10623730 0.01295593 -0.04748225
v 0.10042225 0.01275592 0.08047548
v 0.10397266 0.00935405 0.07662129
v 0.09855693 0.01274456 0.08375313
v 0.09765699 0.01229256 0.08581017
v -0.10727869 0.00023260 0.08914988
v 0.04519570 0.03696425 -0.10958056
v 0.04260520 0.04243209 -0.10956408
v 0.03981623 0.04680650 -0.10955786
v 0.03442120 0.05394273 -0.10953072
v 0.02666704 0.06189387 -0.10955319
v 0.01977085 0.06783086 -0.10781352
v 0.01728957 0.06962726 -0.10705980
v 0.01680555 0.07109744 -0.08388786
v 0.01406877 0.07160759 -0.10768110
v 0.02771824 0.00064165 0.10842991
v 0.02773913 -0.00343371 0.10836054
v 0.03336269 -0.00489811 0.10783942
v 0.02796741 -0.00771623 0.10819891
v 0.03335512 -0.00798052 0.10775591
v 0.03328947 0.00784433 0.10776329
v 0.02858909 0.00819166 0.10812105
v 0.02356121 0.00468996 0.10853509
v 0.02284477 -0.00034501 0.10868962
v 0.02327447 -0.00359523 0.10857924
v 0.02310068 -0.00743286 0.10842728
v 0.02317035 0.00862666 0.10834379
v 0.03288028 0.00960087 0.10760499
v 0.02868898 -0.01069859 0.10782012
v 0.03651305 -0.01339345 0.10682017
v 0.00340302 -0.07049194 -0.02247354
v 0.00360192 -0.06937480 -0.01316450
v 0.00295176 -0.06823286 -0.00176760
v 0.00210341 -0.06534491 0.01919211
v 0.00242981 -0.06702166 0.00803586
v 0.00213330 -0.06405951 0.02615139
v 0.00198734 -0.06343304 0.02953015
v 0.00193945 -0.06159475 0.03765655
v 0.00182076 -0.06266400 0.03330953
v 0.00175171 -0.06045294 0.04261018
v -0.00411103 -0.07386519 -0.02677386
v -0.00195131 -0.06887816 0.00712804
v -0.00640504 -0.06825954 0.02156081
v -0.00081245 -0.06480158 0.02825888
v -0.00502606 -0.07237484 -0.01043284
v -0.00467706 -0.07304057 -0.01743514
v -0.00468057 -0.07357634 -0.02225712
v -0.00527129 -0.07150246 -0.00291847
v -0.00581292 -0.07051076 0.00593878
v -0.00669866 -0.06553017 0.03502822
v -0.00703776 -0.06380780 0.04249511
v -0.00726710 -0.06190489 0.05050995
v -0.00776469 -0.06001647 0.05768459
v -0.00932691 -0.07216240 0.00052311
v -0.00824348 -0.05844982 0.06299327
v -0.00588957 -0.05438406 0.07219980
v -0.01158149 -0.06309304 0.05052433
v -0.01279657 -0.06509305 0.04360898
v -0.00879255 -0.05585915 0.07087063
v 0.00107083 -0.07805634 -0.08402903
v 0.00694448 -0.07573636 -0.08398527
v 0.03073721 -0.05772880 -0.10957118
v 0.02761887 -0.06060754 -0.10958242
v 0.02427299 -0.06374968 -0.10958323
v 0.03976424 -0.04669180 -0.10959305
v 0.04764194 -0.03167753 -0.10958715
v -0.04979669 0.03705306 0.10595716
v -0.04656478 0.03893301 0.10588896
v -0.04316829 0.04074356 0.10607488
v -0.04167532 0.04158458 0.10585399
v -0.05192729 0.03562492 0.10594788
v -0.03795717 0.04285444 0.10621019
v -0.03538997 0.04396435 0.10576165
v -0.04634318 0.03873837 0.10639962
v -0.05378014 0.03391214 0.10608097
v -0.05860617 0.02872965 0.10639203
v -0.04027768 0.04168862 0.10657582
v -0.05528276 0.03196988 0.10655596
v -0.03552669 0.04329382 0.10669248
v -0.05849725 0.02776238 0.10702273
v -0.05606236 0.03017325 0.10704696
v -0.05227986 0.03402397 0.10703132
v -0.05144428 0.03490511 0.10696601
v -0.02853003 0.04439992 0.10690696
v -0.03971400 0.04111601 0.10705976
v -0.04677429 0.03778319 0.10697877
v -0.06224547 0.02329505 0.10674728
v -0.06170029 0.02336951 0.10703367
v -0.06514428 0.01676861 0.10699744
v -0.02628442 0.04532410 0.10624709
v -0.02147331 0.04430243 0.10699799
v -0.01637137 0.04411554 0.10684541
v -0.00263684 0.03874270 0.10702728
v 0.00027026 0.03716462 0.10703156
v -0.01014043 0.04319674 0.10583845
v -0.01389581 0.04438564 0.10573639
v -0.01754607 0.04526062 0.10567025
v -0.00501304 0.04085105 0.10646903
v -0.01603293 0.04461842 0.10638170
v -0.00777830 0.04184468 0.10658365
v -0.01266112 0.04366598 0.10644573
v -0.01049145 0.04281469 0.10663082
v -0.02035081 0.04532682 0.10617261
v -0.02433070 0.04557213 0.10571101
v -0.02184164 0.04472588 0.10679365
v -0.02814180 0.04545314 0.10575540
v -0.03186300 0.04436915 0.10664307
v -0.03301603 0.04456694 0.10616085
v -0.01325854 -0.03587904 0.10784297
v -0.01957599 -0.03650511 0.10791372
v -0.02639649 -0.03391113 0.10809741
v -0.03445431 -0.02900930 0.10826828
v -0.03229810 -0.03456113 0.10800773
v -0.04155536 -0.03064967 0.10803512
v -0.04397166 -0.02759320 0.10811792
v -0.04693144 -0.01431441 0.10850631
v -0.04672028 -0.02429011 0.10814547
v -0.05123120 -0.01925103 0.10815839
v -0.05570636 -0.01498810 0.10810893
v -0.05611008 -0.00801018 0.10824506
v -0.05582512 0.00112090 0.10834394
v -0.01796188 0.03069455 0.10826904
v -0.01590559 0.03425954 0.10802781
v -0.01163270 0.03576859 0.10777653
v -0.03015505 0.02952936 0.10837924
v -0.02088491 0.03503613 0.10802362
v -0.02077938 0.03757545 0.10783016
v -0.01586678 0.03766531 0.10775533
v -0.02784860 0.03702376 0.10785967
v -0.03568309 0.03565705 0.10784841
v -0.04132446 0.02626959 0.10838592
v -0.04348972 0.02859370 0.10817888
v -0.04720957 0.02152896 0.10841115
v -0.05300785 0.01339027 0.10839454
v -0.05630093 0.01161328 0.10825702
v -0.05947046 0.00270973 0.10813244
v -0.04652141 0.02659067 0.10818579
v -0.06006790 -0.00795082 0.10797248
v -0.05433989 0.01702328 0.10822026
v -0.05151177 0.02073516 0.10822071
v -0.02779194 -0.03695002 0.10788191
v -0.03474598 -0.03565660 0.10786752
v -0.00069465 -0.03272908 0.10750428
v 0.00588546 -0.03065540 0.10723040
v 0.00458705 0.03432534 0.10701944
v -0.00543094 0.04013161 0.10701672
v -0.05665896 -0.01882691 0.10782700
v -0.04835331 -0.02771096 0.10784990
v -0.04379950 -0.03168164 0.10783416
v -0.05951790 -0.01467775 0.10779420
v -0.04354590 0.03287000 0.10779098
v -0.06009507 0.01222741 0.10787969
v -0.06137506 0.00473339 0.10788991
v -0.00972591 0.04176072 0.10696635
v -0.01520877 0.04333266 0.10701102
v -0.05742780 0.01954767 0.10779171
v -0.04898489 0.03060703 0.10763509
v -0.05442311 0.02404850 0.10770308
v -0.06142402 0.00012869 0.10790195
v -0.02992939 0.04354718 0.10707737
v -0.03396793 0.04308770 0.10701729
v -0.04269758 0.04002245 0.10698890
v -0.06349635 0.01977241 0.10709515
v -0.01699860 -0.03963598 0.10749737
v -0.00306203 -0.03601201 0.10727952
v -0.00913918 -0.03628363 0.10761521
v -0.03293697 -0.04046043 0.10732337
v -0.02543448 -0.04121927 0.10733372
v -0.04109410 -0.03672979 0.10739965
v -0.06568725 0.01286997 0.10709083
v -0.05866131 -0.02460769 0.10712147
v -0.05250302 -0.03083730 0.10714675
v -0.04826685 -0.03361898 0.10723193
v -0.06636657 -0.00673183 0.10715503
v -0.06533617 0.00062901 0.10734582
v -0.06821439 -0.00003309 0.10690288
v -0.06716740 0.00654983 0.10705426
v -0.06702752 0.01123563 0.10695897
v -0.06701030 -0.01133682 0.10694606
v -0.06787290 -0.00664827 0.10685663
v -0.06245452 -0.01937183 0.10710712
v -0.01403131 -0.04099559 0.10718348
v -0.04408874 -0.03927496 0.10678950
v 0.00420032 -0.03406422 0.10692949
v -0.06074030 -0.02480461 0.10683631
v -0.01971211 -0.04310682 0.10698255
v -0.03673841 -0.04164887 0.10692925
v -0.05809740 -0.02795330 0.10681623
v -0.05407616 -0.03226438 0.10677693
v -0.05119129 -0.03495894 0.10676471
v -0.04806749 -0.03713745 0.10670975
v -0.00267612 -0.03800313 0.10695261
v -0.03180083 -0.04382795 0.10674843
v -0.02512820 -0.04446307 0.10673775
v -0.06283298 -0.02152136 0.10682671
v -0.06485556 -0.01776823 0.10679069
v -0.01694073 -0.04405900 0.10669890
v -0.01221674 -0.04269532 0.10672709
v -0.06797344 0.00501360 0.10688708
v -0.02781432 -0.04445039 0.10668295
v -0.03812719 -0.04199837 0.10671314
v -0.06631308 0.01491694 0.10672779
v -0.02391428 -0.00106767 0.10991276
v -0.02187338 0.00195974 0.11000000
v -0.01996200 -0.00051944 0.10997947
v -0.02169150 -0.00331891 0.10981888
v -0.06054624 -0.02591404 0.10641165
v -0.05594682 -0.03096693 0.10652736
v -0.05459272 -0.03260903 0.10629815
v -0.04795110 -0.03798146 0.10582369
v -0.04155998 -0.04124287 0.10608921
v -0.03866031 -0.04248192 0.10597893
v -0.03654409 -0.04329647 0.10596749
v -0.03408933 -0.04411811 0.10593195
v -0.01930369 -0.04505058 0.10593957
v -0.03156439 -0.04477786 0.10576722
v 0.10524842 0.01268847 -0.06457170
v 0.10488746 0.01234832 -0.06743365
v 0.10687167 0.01204204 0.05814488
v 0.10777839 0.01143304 0.05307530
v 0.09246500 0.01281334 0.09042528
v 0.09056422 0.01246607 0.09247056
v 0.08785652 0.01275373 0.09391892
v 0.09594927 0.01278756 0.08708821
v 0.09723495 0.01277335 0.08545148
v 0.09476806 0.01247418 0.08877026
v 0.08537215 0.01224416 0.09654639
v 0.08165853 0.01232869 0.09854360
v 0.07479132 0.01271468 0.10120126
v 0.10693989 0.01252456 -0.04207440
v 0.10561981 0.01236339 0.06750207
v 0.10455740 0.01264541 0.07020133
v 0.10681582 0.01182178 0.06470053
v 0.08799491 0.01220865 0.09480584
v 0.09847275 0.01216925 -0.07973898
v 0.10327179 0.01207057 -0.07247585
v 0.10232604 0.01274451 0.07661579
v 0.09731553 0.01221568 -0.08090344
v -0.05486943 -0.07782601 -0.10959921
v -0.04301343 -0.08118953 -0.10957042
v -0.04565792 -0.08026753 -0.10969985
v -0.06392473 -0.07389206 -0.10937195
v -0.06412767 -0.07419308 -0.10698752
v -0.06903391 -0.07139439 -0.10695386
v -0.07057102 -0.07016867 -0.10888355
v -0.07209577 -0.06947492 -0.10694453
v -0.07479918 -0.06759834 -0.10720307
v -0.07365973 -0.06786204 -0.10964180
v -0.07676009 -0.06610016 -0.10742901
v -0.07690400 -0.06546850 -0.10933716
v -0.08040885 -0.06318276 -0.10720757
v -0.08012104 -0.06354428 -0.10357181
v -0.07623263 -0.06711447 -0.08317453
v -0.07735622 -0.06632000 -0.08282660
v -0.07462357 -0.06819106 -0.08279364
v -0.05502829 -0.06934848 -0.00686846
v -0.05019536 -0.07139731 -0.00888113
v -0.04687066 -0.07269507 -0.01017040
v -0.04661043 -0.07216930 -0.00516212
v -0.05469877 -0.06861335 -0.00022261
v -0.01532653 -0.07382256 -0.00136182
v -0.01508037 -0.07256054 0.00788012
v -0.05800662 -0.07712208 -0.08293994
v -0.07019684 -0.07107074 -0.08280453
v -0.06842531 -0.07210254 -0.08294327
v -0.05420920 -0.07868314 -0.08310623
v -0.07873288 -0.05596754 -0.01537887
v -0.08271497 -0.05223337 -0.01613896
v -0.07799181 -0.05471149 -0.00251411
v -0.08167583 -0.05093342 -0.00112225
v -0.07757774 -0.05465105 0.00015972
v -0.07420356 -0.05741735 0.00165080
v -0.07683906 -0.05361258 0.00940103
v -0.07264197 -0.05689299 0.01105330
v -0.07203325 -0.05640626 0.01579378
v -0.07499213 -0.05366768 0.01673920
v -0.07038356 -0.05520583 0.02659836
v -0.06728818 -0.05814100 0.02265444
v -0.06537118 -0.05743652 0.03148277
v -0.06255373 -0.06064062 0.02489275
v -0.06216168 -0.05950511 0.03143210
v -0.05972209 -0.06065343 0.03168676
v -0.05544283 -0.06270167 0.03159257
v -0.05255064 -0.06203778 0.03980656
v -0.05575678 -0.05988385 0.04220995
v -0.05244168 -0.06133828 0.04271713
v -0.04914632 -0.06178772 0.04560447
v -0.04575175 -0.06293483 0.04589624
v -0.05539488 -0.05770906 0.05029227
v -0.05828521 -0.05765471 0.04562665
v -0.05943836 -0.05584353 0.04952005
v -0.05494298 -0.05447381 0.05990881
v -0.06088030 -0.05687335 0.04355650
v -0.05180137 -0.05623760 0.05919864
v -0.06229747 -0.05398985 0.04937485
v -0.06835900 -0.05212076 0.04213273
v -0.06787381 -0.04999606 0.04903458
v -0.06558629 -0.05166101 0.04930604
v -0.05189810 -0.05469124 0.06320622
v -0.04915729 -0.06038449 0.05043052
v -0.04147657 -0.06284064 0.05061846
v -0.04120045 -0.06454184 0.04438666
v -0.03740103 -0.06385612 0.05065073
v -0.03751937 -0.06534930 0.04473147
v -0.03302573 -0.06427868 0.05079627
v -0.03346069 -0.06634270 0.04224282
v -0.02611042 -0.06694985 0.04214297
v -0.03564786 -0.06863836 0.03139839
v -0.02604534 -0.06476098 0.05108983
v -0.02330543 -0.06464300 0.05086749
v -0.02267727 -0.06320991 0.05558478
v -0.02634123 -0.06340129 0.05576361
v -0.02621784 -0.06103463 0.06304609
v -0.02999808 -0.06105539 0.06204685
v -0.02654325 -0.05834210 0.07106649
v -0.02693288 -0.05748772 0.07349496
v -0.01615635 -0.05663464 0.07339465
v -0.03114392 -0.05690956 0.07360187
v -0.01242366 -0.05544646 0.07443378
v -0.03647605 -0.06106446 0.05998214
v -0.03612169 -0.05826199 0.06803301
v -0.03581494 -0.05655548 0.07282535
v -0.03965110 -0.05723298 0.06850749
v -0.03996530 -0.06047444 0.05908552
v -0.04514801 -0.05900329 0.05917223
v -0.01600442 -0.05889563 0.06686113
v -0.04432099 -0.05774229 0.06348757
v -0.04279524 -0.05596499 0.06974333
v -0.04848533 -0.05479512 0.06683879
v -0.04753882 -0.05262384 0.07320432
v -0.05146370 -0.05107113 0.07268794
v -0.04196830 -0.05475499 0.07362047
v -0.05750941 -0.04741601 0.07313498
v -0.05971352 -0.04590574 0.07296402
v -0.05840256 -0.04989001 0.06596667
v -0.10277866 -0.00673257 0.08833447
v -0.05481440 -0.04922312 0.07309944
v -0.06242855 -0.05001778 0.05906114
v -0.07693604 -0.04817007 0.03134004
v -0.07816695 -0.04895735 0.02394405
v -0.07930842 -0.04939183 0.01775905
v -0.03742420 -0.06737981 0.03615178
v -0.01945652 -0.06652722 0.04205224
v -0.01851373 -0.06429433 0.05074057
v -0.02605221 -0.06791279 0.03799512
v -0.01566359 -0.06402483 0.05056104
v -0.01534217 -0.06474434 0.04752938
v -0.04563667 -0.06433091 0.04050670
v -0.04032153 -0.06149771 0.05578403
v -0.03233529 -0.06289252 0.05572558
v -0.07261796 -0.05081955 0.03537003
v -0.06110367 -0.05783571 0.03988820
v -0.05312404 -0.06377390 0.03157743
v -0.05774178 -0.06372358 0.02046587
v -0.06301884 -0.06148477 0.01919884
v -0.08050283 -0.05080444 0.00581504
v -0.07518714 -0.05792500 -0.00657865
v -0.08558476 -0.04896027 -0.01589856
v -0.06382305 -0.06414668 -0.00038122
v -0.06376934 -0.06288991 0.00805588
v -0.06742615 -0.06074225 0.00822928
v -0.06328885 -0.06208164 0.01500317
v -0.07010939 -0.06159875 -0.00868596
v -0.08899238 -0.04282351 -0.00512304
v -0.08650716 -0.04574773 -0.00313227
v -0.08567958 -0.04548209 0.00331839
v -0.07295028 -0.06931158 -0.08281904
v -0.08382957 -0.06100547 -0.08315933
v -0.09443769 -0.04929407 -0.08277980
v -0.09309059 -0.05089969 -0.08272294
v -0.08940701 -0.05523138 -0.08296949
v -0.09967100 -0.04140407 -0.08316476
v -0.10158137 -0.03803830 -0.08305952
v -0.10111192 -0.03648298 -0.10230439
v -0.09947789 -0.03915739 -0.10689138
v -0.10116294 -0.03566538 -0.10721005
v -0.09705607 -0.04321804 -0.10706140
v -0.09880985 -0.03899376 -0.10983339
v -0.09693792 -0.04253948 -0.10935834
v -0.10286453 -0.03180677 -0.10699470
v -0.10625871 -0.02834172 -0.08310102
v -0.10938703 -0.01784431 -0.08302292
v -0.11034292 -0.01291274 -0.08291288
v -0.10705175 -0.01876080 -0.10639570
v -0.10746485 -0.02522396 -0.08314133
v -0.10863374 -0.01285869 -0.10412042
v -0.10503974 -0.02604229 -0.10763399
v -0.11102903 -0.00535017 -0.08313700
v -0.09371373 -0.04864812 -0.10696414
v -0.09105132 -0.05175709 -0.10703996
v -0.09190307 -0.05004481 -0.10914930
v -0.08645066 -0.05619985 -0.10976622
v -0.08161685 -0.06298092 -0.08315453
v -0.07995539 -0.06304389 -0.10914799
v -0.07094308 -0.06971109 -0.10960160
v -0.07249755 -0.06034343 -0.01112884
v -0.03749429 -0.06845459 0.03152749
v -0.04062164 -0.06764389 0.03172423
v -0.04566067 -0.06800773 0.02241339
v -0.04220239 -0.06916565 0.02099161
v -0.03703861 -0.07045351 0.02084828
v -0.04602584 -0.06960088 0.01261164
v -0.03923685 -0.07126271 0.01249211
v -0.03663184 -0.07148023 0.01475950
v -0.03106341 -0.07191509 0.01490404
v -0.04584322 -0.06892020 0.01712389
v -0.04571585 -0.06634876 0.03142524
v -0.04645864 -0.07160904 -0.00058769
v -0.04966893 -0.06822468 0.01368216
v -0.02601541 -0.06926148 0.03188867
v -0.05353446 -0.06580110 0.01959024
v -0.10757913 -0.01598559 -0.10777334
v -0.02284306 -0.07268654 0.01194456
v -0.00617001 -0.06974094 0.01214718
v -0.04049117 -0.07296268 -0.00053187
v -0.10391867 -0.02918726 -0.10711587
v -0.10850871 -0.01262311 -0.10595496
v -0.01513378 -0.07206832 0.01142395
v -0.06205411 -0.05875687 0.03451317
v -0.06574889 -0.07362534 -0.08300662
v -0.08615680 -0.04753549 -0.01131794
v -0.02537760 -0.07152840 0.02015528
v -0.02291307 -0.07122602 0.02096135
v -0.05015371 -0.07041821 -0.00126544
v -0.04105534 -0.06566177 0.03989515
v -0.01069728 -0.06986157 0.01822279
v -0.01484451 -0.07056147 0.01978339
v -0.01898350 -0.07095321 0.02046323
v -0.00602037 -0.06909141 0.01597807
v -0.01508753 -0.06945721 0.02592016
v -0.00659620 -0.06676584 0.02932572
v -0.01176434 -0.06171575 0.05551189
v -0.01867463 -0.06878560 0.03150268
v -0.06259228 -0.05195392 0.05413049
v -0.10829124 -0.01244223 -0.10818125
v -0.01924960 -0.07235399 0.01239238
v -0.01851199 -0.06697673 0.03970250
v -0.10769869 0.00008855 0.08837986
v -0.10671874 -0.00231744 0.08859453
v -0.10578600 -0.00218681 0.08935532
v -0.10466138 -0.00510941 0.08848446
v -0.10582840 -0.00391146 0.08825195
v -0.10903966 -0.00350612 -0.10780130
v -0.10942044 -0.00375563 -0.10317319
v -0.09378876 -0.04758036 -0.10918014
v -0.04587044 -0.06530683 0.03593292
v -0.03694624 -0.06240506 0.05570943
v -0.05463893 -0.05065500 0.06990242
v -0.10797987 0.00948957 -0.10986709
v -0.05424233 -0.06801349 0.00496036
v -0.08081025 -0.06366557 -0.08268356
v -0.08027418 -0.04979526 0.01198125
v -0.06723538 -0.04777693 0.05571947
v -0.03695928 -0.07374509 -0.00099555
v -0.06994134 -0.05437710 0.03154118
v -0.00705718 -0.06510625 0.03725161
v -0.05512996 -0.07802962 -0.10690145
v -0.06236916 -0.07521649 -0.08303061
v -0.08648562 -0.05718993 -0.10680122
v -0.08612066 -0.05679026 -0.10954496
v -0.07875772 -0.06367466 -0.10976889
v -0.08702975 -0.05792324 -0.08312553
v -0.01914794 -0.06286090 0.05579905
v -0.01567428 -0.06240739 0.05618548
v -0.01221848 -0.06004345 0.06118457
v -0.01185815 -0.05801550 0.06688168
v -0.02349909 -0.06919278 0.03144595
v -0.01552189 -0.06835460 0.03186993
v -0.02595903 -0.06985569 0.02886998
v -0.03042193 -0.07090054 0.02146814
v -0.02541903 -0.07245510 0.01443400
v -0.01028943 -0.06665932 0.03409810
v -0.01561972 -0.06633403 0.04115590
v -0.03705890 -0.07453964 -0.00664801
v -0.02609047 -0.07456593 0.00019026
v -0.04567233 -0.06167631 0.05060863
v -0.05272915 -0.05892342 0.05044390
v -0.04880656 -0.05731162 0.05984368
v -0.03763977 -0.05594961 0.07327467
v -0.05374299 -0.06687386 0.01322264
v -0.04993321 -0.06480889 0.03187916
v -0.06906792 -0.05881255 0.01355029
v -0.07359093 -0.05806327 0.00058224
v -0.06938033 -0.06095666 -0.00085305
v -0.07603568 -0.05810962 -0.01306137
v -0.05515386 -0.05230060 0.06516129
v -0.05907267 -0.05233669 0.05913693
v -0.05833843 -0.05403630 0.05607109
v -0.06969088 -0.05360036 0.03465731
v -0.08315904 -0.04707949 0.00952251
v -0.08501767 -0.04720278 -0.00121304
v -0.08272208 -0.04984478 -0.00111176
v -0.07719954 -0.05156050 0.01713176
v -0.07409099 -0.05269662 0.02412298
v -0.07422471 -0.05065874 0.03148020
v -0.10359402 -0.03415330 -0.08309682
v -0.10500427 -0.03118639 -0.08287761
v -0.10851189 -0.02155310 -0.08279617
v -0.11062830 -0.01108366 -0.08317747
v -0.10403486 -0.00482923 0.08914724
v -0.09421980 -0.04641049 -0.10979342
v 0.00026938 0.06411849 0.03087429
v -0.00616919 0.05904401 0.05988651
v -0.00742841 0.05727259 0.06657745
v -0.01005599 0.05988628 0.06135654
v -0.01045671 0.05802906 0.06705072
v -0.01297558 0.05821482 0.06826155
v -0.01310507 0.06073490 0.06091165
v -0.01079620 0.06197744 0.05520431
v -0.01287175 0.05587596 0.07463739
v -0.01542743 0.05746543 0.07157619
v -0.01791498 0.05772818 0.07189639
v -0.01745661 0.05966986 0.06622855
v -0.02359639 0.05748390 0.07373554
v -0.02114976 0.05998206 0.06626898
v -0.00763860 0.06068864 0.05637409
v -0.01457058 0.06222157 0.05718308
v -0.01282137 0.06284537 0.05378701
v -0.00996327 0.06315954 0.04984822
v -0.01801720 0.06384045 0.05337492
v -0.01747104 0.06279933 0.05676163
v -0.02249588 0.06280654 0.05811223
v -0.01493853 0.06475628 0.04802720
v -0.01781408 0.06509868 0.04853963
v -0.01629224 0.06622864 0.04309733
v -0.02321197 0.06497671 0.05083778
v -0.02062268 0.06627166 0.04504151
v -0.02704707 0.06480326 0.05182349
v -0.02716706 0.06237810 0.05994433
v -0.01490458 0.05948674 0.06559662
v -0.01277846 0.06487496 0.04589826
v -0.03196242 0.06415324 0.05284947
v -0.03180583 0.06265373 0.05786729
v -0.02952890 0.06601557 0.04671447
v -0.02729600 0.06599337 0.04733054
v -0.03296070 0.06159294 0.06081732
v 0.01553648 0.07186067 -0.08413867
v 0.01198387 0.07376396 -0.08395200
v -0.00365440 0.07373685 -0.02482418
v -0.00551091 0.07327912 -0.01481363
v -0.00872895 0.07308885 -0.00544311
v -0.00152050 0.07196459 -0.01577036
v -0.01664968 0.07334857 0.00562999
v -0.01871656 0.07333411 0.00780749
v -0.02222654 0.07321476 0.01085075
v -0.02489313 0.07329244 0.01123503
v -0.03449361 0.07221936 0.01293021
v -0.03135360 0.07194822 0.01676441
v -0.01961723 0.07233407 0.01503007
v -0.01695735 0.07230265 0.01327838
v -0.02084653 0.07157641 0.02033177
v 0.00611132 0.06861260 -0.01435088
v 0.00741685 0.06628869 -0.00012830
v 0.00192034 0.06666107 0.01334170
v -0.00158380 0.06830718 0.01223595
v -0.00047601 0.06687081 0.01862666
v -0.00423024 0.06813756 0.01986087
v -0.00595157 0.06962065 0.01453143
v -0.00696495 0.06840304 0.02347999
v -0.00821992 0.06959743 0.01875520
v -0.00998356 0.06832525 0.02776720
v -0.00712789 0.06725279 0.02929760
v -0.01033463 0.06735715 0.03270695
v -0.02520082 0.07207723 0.01862995
v 0.00328795 0.07768491 -0.08379587
v 0.00669945 0.07622573 -0.08382928
v -0.03482898 0.07078168 0.02177237
v 0.00492189 0.07699413 -0.08404043
v 0.00176964 0.06579637 0.01924496
v -0.00587228 0.06267540 0.04654405
v -0.03139417 0.05962646 0.06697066
v -0.03206818 0.05808374 0.07110462
v -0.02750737 0.05751849 0.07407734
v -0.03187322 0.06984952 0.02860130
v -0.03558510 0.06860977 0.03254483
v -0.03239300 0.06824416 0.03599867
v -0.02680986 0.06934177 0.03284871
v -0.02568829 0.07087130 0.02523465
v -0.01261819 0.07316068 0.00160797
v -0.00888793 0.07221362 0.00205856
v -0.01040423 0.07169270 0.00850285
v -0.00609256 0.07212677 -0.00361677
v -0.01283796 0.08160434 -0.10954660
v -0.01840719 0.08235315 -0.10956299
v -0.01046192 0.08116601 -0.10924785
v 0.00538445 0.07593925 -0.10680567
v 0.01011091 0.07374500 -0.10835613
v 0.00620193 0.07543081 -0.10954379
v 0.00162133 0.07753491 -0.10736413
v -0.01732036 0.06703046 0.04010129
v -0.02254927 0.06775289 0.03927826
v -0.01394348 0.06718422 0.03691739
v 0.00190316 0.07035147 -0.01356499
v 0.00094253 0.06503210 0.02509208
v -0.01225009 0.06616941 0.04000981
v -0.02273420 0.06612316 0.04638116
v -0.02272184 0.05921145 0.06881705
v -0.00095515 0.06880488 0.00697876
v -0.02438881 0.06718281 0.04212381
v -0.01812535 0.06132901 0.06166285
v -0.00317916 0.06042102 0.05116297
v -0.02929970 0.07131804 0.02163500
v -0.02709241 0.06781315 0.03970586
v -0.00183771 0.07946335 -0.08409799
v -0.01668462 0.06847789 0.03328623
v -0.01065575 0.06471725 0.04446061
v 0.00126582 0.07166892 -0.02252248
v 0.00205704 0.06873406 -0.00137243
v -0.00176318 0.07019493 -0.00090333
v -0.00016319 0.07051078 -0.00838738
v -0.00577119 0.07147130 0.00073298
v -0.00651341 0.07055222 0.00901950
v -0.00649551 0.06630621 0.03255222
v -0.00187235 0.06453429 0.03284533
v -0.00288494 0.06632754 0.02656410
v -0.00426396 0.06459247 0.03639827
v -0.00761245 0.06449685 0.04169311
v -0.00927883 0.06623726 0.03646625
v -0.00767140 0.06168987 0.05283553
v 0.00943934 0.07499289 -0.08406516
v -0.00540980 0.05459993 0.07207328
v -0.00942417 0.05483670 0.07503478
v -0.00811896 0.07060262 0.01207812
v -0.01377018 0.07200723 0.01135252
v -0.01090216 0.07088461 0.01469086
v -0.01174578 0.06961198 0.02327266
v -0.01424903 0.07109870 0.01771474
v -0.01670893 0.07138753 0.01864335
v -0.01612829 0.06972553 0.02697123
v -0.01287859 0.06788019 0.03286138
v -0.01965083 0.06809722 0.03657840
v -0.01925800 0.06973011 0.02894641
v -0.02304538 0.06951359 0.03147974
v -0.02335672 0.06197558 0.06082682
v -0.02197347 0.07129822 0.02224530
v -0.02746786 0.05914250 0.06948621
v -0.03268750 0.06650177 0.04345426
f 226 1006 1056
f 1001 1056 1117
f 1117 1056 1006
f 494 482 488
f 1000 1056 1001
f 33 7 2
f 2 52 33
f 372 366 370
f 859 52 53
f 53 60 859
f 392 26 1203
f 25 26 24
f 1203 26 25
f 1057 1060 1059
f 990 1060 1057
f 488 482 484
f 485 484 478
f 478 484 482
f 682 52 2
f 682 70 52
f 53 52 65
f 52 70 65
f 331 333 344
f 632 594 631
f 619 632 848
f 72 37 41
f 1053 37 72
f 39 33 37
f 1062 1117 1006
f 983 1060 982
f 62 63 41
f 1003 1005 1034
f 1034 63 998
f 1034 1005 63
f 41 63 42
f 63 1005 42
f 42 72 41
f 1005 72 42
f 1116 1005 1003
f 1116 1003 1056
f 1056 1000 1116
f 1003 1034 999
f 999 1034 998
f 1056 1003 999
f 999 1057 1056
f 41 37 40
f 37 33 40
f 40 33 52
f 18 565 569
f 2 7 8
f 8 58 2
f 7 568 8
f 8 568 562
f 2 58 684
f 61 60 53
f 66 372 67
f 67 65 66
f 60 372 858
f 858 859 60
f 1183 1207 393
f 393 392 388
f 255 277 260
f 20 22 23
f 20 24 206
f 24 23 316
f 23 364 316
f 388 392 389
f 24 364 391
f 364 389 391
f 391 389 392
f 24 26 629
f 206 24 629
f 629 33 206
f 629 625 33
f 33 625 4
f 4 5 7
f 7 33 4
f 18 5 4
f 226 1056 225
f 1067 39 223
f 223 39 224
f 81 107 82
f 990 1057 991
f 991 1057 1114
f 284 706 705
f 211 250 203
f 485 523 487
f 495 494 488
f 588 572 848
f 482 494 483
f 483 492 480
f 480 478 483
f 483 478 482
f 1 682 2
f 69 65 70
f 344 333 345
f 333 346 345
f 531 346 333
f 350 357 344
f 344 345 350
f 350 345 346
f 502 523 485
f 502 346 523
f 822 739 821
f 821 739 738
f 738 739 754
f 674 673 338
f 1118 1057 1059
f 1183 1225 1184
f 586 835 594
f 632 631 633
f 633 631 9
f 594 835 630
f 630 631 594
f 9 631 630
f 585 594 632
f 632 619 585
f 585 619 848
f 38 37 1053
f 38 39 37
f 224 39 1061
f 1061 38 1053
f 39 38 1061
f 1117 1062 1061
f 869 986 1080
f 1080 1077 869
f 1005 1116 1002
f 1002 1116 1000
f 564 554 555
f 567 565 17
f 17 565 18
f 64 5 18
f 18 569 64
f 64 568 5
f 569 568 64
f 7 5 6
f 6 568 7
f 5 568 6
f 562 568 560
f 59 562 58
f 58 8 59
f 59 8 562
f 1092 369 370
f 373 372 60
f 60 61 373
f 373 61 53
f 53 65 54
f 65 67 54
f 54 373 53
f 372 373 54
f 240 250 211
f 211 216 240
f 257 20 206
f 22 20 257
f 250 240 257
f 21 23 24
f 24 20 21
f 21 20 23
f 74 364 24
f 24 316 74
f 74 316 364
f 390 389 364
f 23 22 390
f 390 364 23
f 388 389 390
f 22 260 390
f 24 391 1202
f 11 1206 1205
f 11 633 9
f 1205 633 11
f 12 1206 26
f 1207 1206 12
f 26 392 12
f 392 393 12
f 12 393 1207
f 835 586 836
f 26 1206 10
f 10 629 26
f 10 11 9
f 1206 11 10
f 9 630 10
f 10 630 835
f 10 836 592
f 835 836 10
f 13 618 14
f 14 629 13
f 18 4 16
f 16 4 625
f 16 17 18
f 16 625 567
f 567 17 16
f 625 629 627
f 632 633 1155
f 1205 1156 1155
f 1155 633 1205
f 226 225 215
f 215 1006 226
f 215 1062 1006
f 224 1061 215
f 215 1061 1062
f 307 39 1067
f 33 39 307
f 114 124 123
f 284 82 83
f 83 125 127
f 1057 1118 1058
f 706 781 774
f 127 125 126
f 150 36 146
f 244 240 216
f 516 504 505
f 512 513 509
f 488 484 486
f 486 484 485
f 485 487 486
f 480 492 500
f 492 519 500
f 404 425 412
f 3 1 2
f 514 513 512
f 511 499 514
f 499 513 514
f 332 70 334
f 332 69 70
f 334 333 332
f 65 69 329
f 366 372 329
f 329 372 66
f 66 65 329
f 329 679 336
f 69 679 329
f 516 531 347
f 347 531 333
f 334 349 347
f 346 502 479
f 479 478 480
f 485 478 479
f 479 502 485
f 822 821 823
f 796 817 795
f 673 674 677
f 878 1068 980
f 1099 971 1025
f 738 754 756
f 463 464 375
f 463 455 460
f 375 455 463
f 464 463 648
f 1186 1207 1183
f 1183 1184 1186
f 1204 1206 1207
f 1207 1186 1204
f 1204 1186 1184
f 1205 1206 1204
f 542 538 539
f 263 277 229
f 263 264 277
f 277 264 394
f 394 260 277
f 394 390 260
f 388 390 394
f 1035 1061 1053
f 1117 1061 1035
f 988 976 1039
f 989 976 988
f 988 1077 989
f 989 1077 1080
f 1007 1077 988
f 1114 1057 1115
f 1057 999 1115
f 882 985 864
f 882 981 985
f 867 869 1012
f 1069 986 1011
f 986 869 1011
f 1030 72 1005
f 1005 1002 1030
f 1053 72 1030
f 1030 1035 1053
f 1030 1002 1000
f 33 68 32
f 32 68 148
f 563 568 569
f 563 560 568
f 563 569 565
f 563 564 555
f 565 564 563
f 614 553 618
f 618 13 614
f 614 609 542
f 542 553 614
f 629 609 614
f 614 13 629
f 878 874 875
f 875 874 884
f 1026 369 1033
f 369 1092 1033
f 1033 1021 1026
f 970 1073 897
f 886 989 1080
f 976 989 886
f 372 54 73
f 73 54 67
f 371 858 372
f 371 372 370
f 370 369 371
f 1183 393 1222
f 1222 1157 1183
f 27 257 206
f 250 257 27
f 27 203 250
f 206 167 27
f 167 203 27
f 22 257 19
f 255 260 19
f 19 260 22
f 19 240 255
f 19 257 240
f 1201 1202 391
f 1201 392 1203
f 1201 391 392
f 1203 25 1201
f 1201 25 24
f 24 1202 1201
f 15 627 629
f 15 629 14
f 14 628 15
f 628 856 15
f 15 856 627
f 567 625 626
f 625 627 626
f 1238 1156 1205
f 1205 1204 1238
f 1238 1204 1184
f 81 82 689
f 132 131 133
f 159 156 160
f 160 156 225
f 1056 159 160
f 160 225 1056
f 225 156 214
f 214 156 223
f 214 215 225
f 214 223 224
f 224 215 214
f 148 68 71
f 71 152 148
f 152 153 134
f 1056 133 134
f 124 114 128
f 157 149 128
f 128 149 124
f 284 83 184
f 131 132 184
f 130 131 184
f 184 133 1056
f 184 132 133
f 184 129 130
f 127 129 184
f 184 83 127
f 114 83 84
f 125 83 122
f 122 83 114
f 122 126 125
f 122 114 123
f 123 126 122
f 118 107 81
f 118 117 107
f 222 204 196
f 796 707 820
f 624 707 781
f 624 820 707
f 624 184 1056
f 796 820 624
f 624 817 796
f 1056 1057 624
f 1057 1058 624
f 1058 814 624
f 166 176 189
f 166 203 167
f 166 175 176
f 172 175 166
f 189 176 177
f 154 166 167
f 172 166 154
f 123 124 137
f 137 126 123
f 150 146 137
f 28 146 36
f 255 240 247
f 240 244 247
f 247 244 229
f 504 487 503
f 503 505 504
f 503 487 523
f 523 505 503
f 346 531 515
f 515 531 516
f 516 505 515
f 491 513 499
f 491 509 513
f 491 487 504
f 334 70 355
f 355 349 334
f 488 486 489
f 341 433 343
f 343 655 341
f 352 387 338
f 343 433 432
f 1 3 683
f 682 1 681
f 681 680 682
f 55 681 1
f 680 681 55
f 562 560 558
f 546 547 550
f 546 548 541
f 76 3 2
f 76 683 3
f 527 529 511
f 69 332 330
f 331 679 330
f 330 679 69
f 333 331 330
f 330 332 333
f 649 679 650
f 650 679 342
f 342 341 652
f 516 347 348
f 348 347 349
f 349 355 348
f 335 333 334
f 334 347 335
f 335 347 333
f 356 350 346
f 357 350 481
f 480 500 481
f 481 479 480
f 350 356 481
f 346 479 481
f 481 356 346
f 938 941 942
f 939 941 938
f 939 938 934
f 1019 1021 1022
f 1021 1033 1022
f 1019 1022 1088
f 667 660 1032
f 1049 661 662
f 340 655 343
f 343 432 340
f 340 432 351
f 655 340 657
f 657 662 655
f 1048 661 1049
f 1049 662 668
f 662 657 668
f 668 1090 1049
f 338 673 671
f 673 1083 671
f 796 795 771
f 770 774 781
f 757 774 770
f 796 771 770
f 770 771 754
f 320 935 937
f 937 677 320
f 1038 874 977
f 981 882 977
f 878 980 977
f 977 874 878
f 902 900 901
f 901 971 902
f 971 901 972
f 1027 1068 1026
f 918 904 905
f 797 814 799
f 798 624 797
f 797 624 814
f 735 766 733
f 735 733 821
f 738 756 737
f 737 821 738
f 737 734 821
f 821 733 732
f 824 823 821
f 821 731 824
f 361 827 1059
f 803 789 799
f 830 950 831
f 318 674 338
f 318 677 674
f 762 648 647
f 637 761 647
f 647 761 762
f 950 941 1097
f 1097 939 940
f 1097 941 939
f 833 934 320
f 786 804 782
f 644 727 637
f 823 727 644
f 782 727 728
f 728 786 782
f 728 727 823
f 488 489 570
f 583 836 586
f 583 589 836
f 501 499 511
f 592 836 591
f 836 589 591
f 542 609 608
f 608 538 542
f 608 589 538
f 854 10 592
f 854 609 629
f 629 10 854
f 544 553 542
f 542 539 544
f 544 539 541
f 541 548 544
f 537 539 538
f 511 529 537
f 538 530 537
f 305 394 281
f 300 305 281
f 1001 1117 1004
f 1117 1035 1004
f 1004 1000 1001
f 1004 1030 1000
f 1035 1030 1004
f 990 1007 987
f 987 1007 988
f 987 1060 990
f 987 982 1060
f 983 982 987
f 987 1039 983
f 988 1039 987
f 990 991 993
f 993 991 1114
f 1114 992 993
f 52 50 1079
f 1079 40 52
f 870 867 1069
f 869 867 870
f 1069 1011 870
f 870 1011 869
f 51 50 52
f 1075 369 884
f 1075 371 369
f 862 882 864
f 1038 861 1076
f 1076 874 1038
f 566 856 564
f 566 565 567
f 566 564 565
f 567 626 566
f 627 856 566
f 566 626 627
f 853 856 628
f 14 618 853
f 853 628 14
f 618 553 853
f 853 553 554
f 554 564 853
f 564 856 853
f 554 553 552
f 555 554 552
f 553 544 552
f 552 544 548
f 550 558 551
f 551 546 550
f 548 546 551
f 555 552 551
f 551 552 548
f 878 875 1042
f 1042 1068 878
f 1026 1068 1042
f 884 369 876
f 876 875 884
f 899 900 970
f 895 897 1073
f 890 1101 892
f 1069 867 872
f 985 981 1014
f 981 1101 1014
f 1060 984 1108
f 1109 1060 983
f 1109 984 1060
f 983 1039 1109
f 1109 1039 976
f 56 67 372
f 372 73 56
f 56 73 67
f 696 82 284
f 130 129 139
f 139 131 130
f 139 129 127
f 133 131 139
f 223 156 158
f 1067 223 158
f 158 156 159
f 159 153 158
f 165 153 152
f 152 71 165
f 33 307 165
f 165 68 33
f 165 71 68
f 165 158 153
f 165 307 1067
f 1067 158 165
f 135 134 153
f 135 153 159
f 135 159 1056
f 1056 134 135
f 148 152 151
f 151 134 148
f 152 134 151
f 90 83 82
f 82 91 90
f 86 83 90
f 157 128 88
f 88 128 114
f 235 204 222
f 222 196 213
f 283 781 706
f 283 624 781
f 283 706 284
f 284 184 283
f 184 624 283
f 172 154 171
f 164 149 157
f 164 154 149
f 150 149 155
f 149 154 155
f 155 36 150
f 155 35 36
f 155 154 167
f 155 167 206
f 206 35 155
f 127 126 136
f 126 137 136
f 147 149 150
f 150 137 147
f 124 149 147
f 147 137 124
f 31 143 30
f 32 143 31
f 33 28 34
f 34 28 36
f 206 33 34
f 34 35 206
f 36 35 34
f 33 32 29
f 29 28 33
f 32 31 29
f 29 31 30
f 146 28 29
f 249 277 255
f 255 247 249
f 229 277 249
f 249 247 229
f 346 515 506
f 506 515 505
f 523 346 506
f 506 505 523
f 504 509 508
f 508 491 504
f 509 491 508
f 490 486 487
f 487 491 490
f 493 489 490
f 490 489 486
f 70 682 78
f 78 355 70
f 682 543 78
f 543 527 78
f 417 418 422
f 422 519 417
f 422 500 519
f 652 341 654
f 654 341 655
f 655 662 654
f 654 661 652
f 654 662 661
f 424 425 404
f 424 351 425
f 682 680 545
f 680 55 77
f 77 549 680
f 77 55 1
f 547 549 77
f 1 683 77
f 683 76 77
f 550 547 77
f 559 558 550
f 562 558 559
f 58 562 559
f 559 684 58
f 2 684 561
f 561 76 2
f 684 559 561
f 561 559 76
f 532 527 514
f 532 514 512
f 511 514 518
f 514 527 518
f 529 527 79
f 79 527 543
f 79 543 682
f 682 545 79
f 336 679 678
f 679 649 678
f 678 329 336
f 659 678 649
f 533 679 331
f 533 342 679
f 533 331 344
f 344 357 533
f 357 431 533
f 650 342 651
f 651 663 650
f 651 660 667
f 512 348 534
f 534 532 512
f 510 504 516
f 516 348 510
f 510 509 504
f 512 509 510
f 510 348 512
f 672 879 370
f 667 1032 672
f 370 663 672
f 650 663 664
f 665 659 664
f 664 649 650
f 664 659 649
f 365 663 370
f 365 659 665
f 665 664 365
f 365 664 663
f 329 678 365
f 370 366 365
f 366 329 365
f 917 912 1096
f 918 943 1096
f 968 923 930
f 906 904 902
f 906 905 904
f 940 939 936
f 939 934 936
f 936 834 940
f 370 1089 1093
f 1093 1022 370
f 1089 1022 1093
f 1072 1033 1092
f 1072 1022 1033
f 1072 1092 370
f 370 1022 1072
f 1031 1089 370
f 1041 1040 1031
f 1031 1040 1089
f 1023 1022 1089
f 1023 1088 1022
f 1089 1040 1023
f 1023 1040 1088
f 1087 1040 1041
f 1088 1040 1087
f 930 923 927
f 927 929 930
f 923 924 927
f 924 925 927
f 963 925 924
f 1090 676 1091
f 1047 1036 1032
f 652 661 1047
f 1047 1032 660
f 338 671 339
f 339 671 670
f 339 352 338
f 339 670 658
f 658 340 339
f 339 340 351
f 351 424 339
f 339 424 352
f 656 340 658
f 656 657 340
f 658 668 656
f 656 668 657
f 1085 1087 1041
f 1028 1087 1085
f 1085 963 1028
f 661 1048 1045
f 1045 1046 1036
f 1048 1046 1045
f 658 670 669
f 669 668 658
f 1050 671 1083
f 777 756 754
f 754 771 777
f 788 707 796
f 796 770 788
f 781 707 788
f 788 770 781
f 757 770 753
f 753 770 754
f 753 752 757
f 753 754 739
f 753 739 822
f 822 752 753
f 1084 935 944
f 1084 937 935
f 944 1083 1084
f 677 937 1084
f 1084 1083 673
f 673 677 1084
f 1019 1018 1024
f 1024 1025 971
f 971 1027 1024
f 1068 1027 1098
f 1098 980 1068
f 766 789 790
f 768 737 756
f 768 797 799
f 756 797 768
f 766 735 736
f 734 737 736
f 821 734 736
f 736 735 821
f 730 731 821
f 821 732 730
f 730 732 731
f 954 361 1059
f 1071 956 954
f 954 915 1071
f 813 814 1058
f 1058 803 813
f 799 814 813
f 813 803 799
f 951 956 953
f 953 956 1105
f 953 955 951
f 1105 955 953
f 910 912 917
f 358 955 949
f 358 363 828
f 828 955 358
f 829 363 358
f 358 949 829
f 950 830 829
f 970 900 903
f 903 900 902
f 902 904 903
f 1095 904 918
f 918 1096 1095
f 1095 1096 912
f 320 677 319
f 319 318 320
f 677 318 319
f 823 644 643
f 637 635 643
f 643 644 637
f 461 463 460
f 638 648 463
f 638 647 648
f 637 647 638
f 463 636 638
f 638 635 637
f 638 636 635
f 322 934 321
f 934 833 321
f 782 804 800
f 375 464 802
f 802 648 762
f 464 648 802
f 320 318 326
f 786 728 759
f 493 490 497
f 497 490 491
f 493 497 574
f 574 489 493
f 574 570 489
f 584 586 594
f 594 585 584
f 520 501 511
f 511 537 520
f 520 537 530
f 538 589 520
f 520 530 538
f 598 591 589
f 589 608 598
f 592 591 598
f 598 854 592
f 598 608 609
f 609 854 598
f 541 539 535
f 539 537 535
f 535 537 529
f 529 79 535
f 282 281 394
f 995 1007 990
f 990 993 995
f 994 993 992
f 994 999 998
f 994 1115 999
f 994 992 1114
f 1114 1115 994
f 46 1079 1012
f 1078 46 1012
f 1012 869 1078
f 1078 869 1077
f 63 62 57
f 998 63 57
f 57 994 998
f 867 866 865
f 865 872 867
f 48 50 49
f 48 1079 50
f 868 867 1012
f 868 866 867
f 1012 1079 868
f 1079 866 868
f 371 1075 857
f 858 371 857
f 857 51 52
f 52 859 857
f 859 858 857
f 50 51 857
f 857 1075 861
f 49 50 857
f 49 857 860
f 860 857 861
f 883 861 1038
f 883 862 861
f 882 862 883
f 1038 977 883
f 883 977 882
f 861 1075 881
f 881 1076 861
f 881 1075 884
f 884 874 881
f 874 1076 881
f 557 558 560
f 557 551 558
f 555 551 557
f 557 563 555
f 560 563 557
f 875 876 877
f 1026 1042 877
f 877 1042 875
f 877 369 1026
f 877 876 369
f 970 897 1037
f 1037 899 970
f 897 899 1037
f 896 899 897
f 897 895 896
f 1112 895 1073
f 914 954 1059
f 915 954 914
f 891 890 892
f 1103 986 1069
f 864 985 871
f 871 865 864
f 872 865 871
f 985 1014 873
f 873 871 985
f 872 871 873
f 975 1014 1101
f 872 873 975
f 975 873 1014
f 1101 890 975
f 1069 872 975
f 975 1103 1069
f 886 887 888
f 1110 1108 984
f 984 1109 1110
f 1110 888 974
f 886 888 1110
f 976 886 1110
f 1110 1109 976
f 81 689 193
f 693 689 82
f 82 696 693
f 694 696 284
f 689 693 701
f 701 693 696
f 1156 1238 850
f 745 709 778
f 488 570 578
f 379 439 378
f 379 323 380
f 378 323 379
f 379 468 439
f 376 377 378
f 460 455 454
f 133 139 144
f 106 82 107
f 106 98 82
f 107 117 106
f 97 91 82
f 82 98 97
f 114 84 87
f 87 88 114
f 232 236 251
f 234 263 229
f 229 228 234
f 251 265 234
f 228 232 234
f 231 235 236
f 236 232 231
f 231 232 228
f 743 749 822
f 170 171 154
f 154 164 170
f 141 137 146
f 141 136 137
f 146 29 141
f 420 418 411
f 411 418 417
f 423 353 431
f 431 521 423
f 423 418 420
f 423 422 418
f 423 521 422
f 420 412 426
f 426 412 425
f 425 351 426
f 429 432 433
f 433 353 429
f 351 432 429
f 429 426 351
f 420 426 429
f 550 77 556
f 556 77 76
f 556 559 550
f 76 559 556
f 526 527 511
f 511 518 526
f 526 518 527
f 80 79 545
f 680 549 80
f 80 545 680
f 80 549 547
f 541 535 80
f 80 535 79
f 80 546 541
f 547 546 80
f 536 533 431
f 536 353 433
f 431 353 536
f 342 533 536
f 433 341 536
f 341 342 536
f 653 342 652
f 653 651 342
f 660 651 653
f 652 1047 653
f 653 1047 660
f 666 651 667
f 663 651 666
f 667 672 666
f 666 672 663
f 354 348 355
f 355 534 354
f 354 534 348
f 527 532 540
f 532 534 540
f 540 78 527
f 355 78 540
f 540 534 355
f 1032 1036 880
f 880 672 1032
f 879 672 880
f 370 879 880
f 880 1036 370
f 678 659 328
f 328 365 678
f 659 365 328
f 946 941 950
f 942 941 946
f 930 929 931
f 931 1081 944
f 929 1081 931
f 932 934 938
f 938 968 932
f 932 968 930
f 930 931 932
f 942 943 967
f 1065 968 938
f 1065 938 942
f 942 967 1065
f 922 924 923
f 929 927 928
f 928 927 925
f 1090 1091 1086
f 1049 1090 1086
f 1086 1048 1049
f 1051 1085 1041
f 1041 1046 1051
f 1051 1046 1048
f 1048 1086 1051
f 1036 1046 1054
f 1041 1031 1054
f 1054 1046 1041
f 370 1036 1054
f 1054 1031 370
f 661 1045 1044
f 1044 1045 1036
f 1044 1047 661
f 1036 1047 1044
f 668 669 1074
f 1074 676 1090
f 1090 668 1074
f 1074 669 670
f 670 671 675
f 671 1050 675
f 1050 964 675
f 676 1074 675
f 675 1074 670
f 642 643 635
f 823 643 642
f 822 823 642
f 792 797 756
f 756 777 792
f 798 797 792
f 793 771 795
f 793 777 771
f 793 792 777
f 978 977 980
f 980 979 978
f 978 979 977
f 981 977 1102
f 977 979 1102
f 1102 1101 981
f 1102 979 1101
f 1020 1027 1026
f 1020 1024 1027
f 1026 1021 1020
f 1020 1021 1019
f 1019 1024 1020
f 1025 1024 1017
f 1029 1027 971
f 1029 1098 1027
f 971 972 1029
f 972 1098 1029
f 789 803 806
f 806 790 789
f 807 790 806
f 737 768 765
f 766 736 765
f 765 736 737
f 765 789 766
f 799 789 765
f 765 768 799
f 819 830 831
f 819 829 830
f 834 936 325
f 325 934 322
f 325 936 934
f 805 819 811
f 952 956 951
f 952 954 956
f 1118 362 825
f 825 1058 1118
f 825 803 1058
f 825 806 803
f 826 1118 1059
f 826 362 1118
f 1059 827 826
f 807 806 826
f 826 825 362
f 806 825 826
f 1104 955 1105
f 1104 910 917
f 360 828 363
f 951 955 360
f 955 828 360
f 950 829 948
f 948 829 949
f 909 913 911
f 913 914 911
f 911 1073 970
f 907 903 904
f 904 1095 907
f 907 910 909
f 912 910 907
f 907 1095 912
f 1052 956 1071
f 1105 956 1052
f 1052 913 909
f 338 383 384
f 384 318 338
f 317 318 384
f 317 384 337
f 337 384 383
f 634 461 462
f 462 639 634
f 463 461 634
f 634 642 635
f 634 636 463
f 635 636 634
f 640 639 646
f 712 742 640
f 640 742 645
f 640 634 639
f 815 800 804
f 784 727 782
f 782 800 784
f 637 727 784
f 784 761 637
f 374 375 367
f 375 802 367
f 786 759 785
f 785 811 786
f 805 811 785
f 785 787 805
f 729 759 728
f 729 728 823
f 731 759 729
f 823 824 729
f 729 824 731
f 499 501 498
f 498 491 499
f 498 497 491
f 271 394 264
f 271 282 394
f 281 282 271
f 264 263 271
f 263 234 271
f 271 234 265
f 997 995 993
f 1007 995 997
f 1077 1007 1008
f 1008 1078 1077
f 1007 1078 1008
f 1009 1078 1007
f 46 1078 1010
f 1079 46 1010
f 47 866 1079
f 1079 48 47
f 47 48 866
f 863 862 864
f 864 865 863
f 863 865 866
f 893 896 895
f 895 1112 893
f 899 896 898
f 900 899 898
f 898 901 900
f 898 972 901
f 1100 979 980
f 896 893 1100
f 1100 893 892
f 892 1101 1100
f 1101 979 1100
f 958 959 1111
f 1111 1112 958
f 1059 959 958
f 1107 914 1059
f 1059 969 1107
f 1107 969 1073
f 1073 911 1107
f 1107 911 914
f 974 891 1070
f 1111 959 1070
f 1070 891 1111
f 1070 1110 974
f 1108 1110 1070
f 1060 1108 1070
f 1059 1060 1070
f 1070 959 1059
f 890 891 889
f 889 975 890
f 887 975 889
f 889 891 974
f 974 888 889
f 889 888 887
f 885 887 886
f 1080 986 885
f 885 886 1080
f 986 1103 885
f 885 975 887
f 1103 975 885
f 81 193 194
f 699 776 775
f 700 775 769
f 700 699 775
f 700 701 696
f 696 699 700
f 763 640 646
f 712 640 763
f 388 394 395
f 395 393 388
f 395 396 393
f 1164 1163 395
f 301 395 394
f 1165 395 301
f 300 281 280
f 280 271 265
f 281 271 280
f 270 265 251
f 838 588 848
f 572 588 838
f 571 572 838
f 838 570 571
f 848 632 837
f 837 838 848
f 709 773 710
f 746 709 745
f 746 773 709
f 702 778 709
f 702 779 778
f 593 525 496
f 496 524 593
f 496 519 492
f 496 525 519
f 494 524 496
f 496 483 494
f 492 483 496
f 488 578 522
f 522 495 488
f 522 578 579
f 579 524 522
f 494 495 522
f 522 524 494
f 405 398 400
f 404 412 400
f 412 411 400
f 400 411 405
f 338 387 427
f 427 383 338
f 381 379 380
f 145 139 143
f 145 144 139
f 148 144 145
f 145 32 148
f 145 143 32
f 133 144 140
f 140 144 148
f 140 134 133
f 148 134 140
f 98 106 105
f 105 97 98
f 186 196 204
f 205 166 189
f 203 166 205
f 205 216 211
f 211 203 205
f 181 205 189
f 86 90 93
f 157 88 96
f 96 164 157
f 85 84 83
f 85 87 84
f 233 232 251
f 251 234 233
f 233 234 232
f 775 776 755
f 749 750 755
f 769 775 755
f 755 750 769
f 744 743 822
f 748 750 749
f 749 743 748
f 769 750 748
f 778 779 748
f 142 29 30
f 142 141 29
f 30 143 142
f 143 139 142
f 127 136 138
f 136 141 138
f 141 142 138
f 138 139 127
f 138 142 139
f 500 422 517
f 422 521 517
f 419 412 420
f 420 411 419
f 419 411 412
f 414 411 417
f 409 413 407
f 580 524 579
f 593 524 580
f 580 590 593
f 428 423 420
f 353 423 428
f 420 429 428
f 428 429 353
f 945 1096 943
f 945 943 942
f 942 946 945
f 934 932 933
f 933 932 931
f 933 931 944
f 944 935 933
f 933 935 320
f 320 934 933
f 1094 967 943
f 1094 943 918
f 918 905 1094
f 905 906 1094
f 966 906 902
f 902 971 966
f 1015 1018 1019
f 961 928 925
f 925 963 961
f 963 1085 961
f 965 1091 676
f 676 675 965
f 965 675 964
f 965 961 1091
f 1082 1050 1083
f 1082 964 1050
f 1082 1083 944
f 944 1081 1082
f 822 645 741
f 645 742 741
f 742 746 741
f 741 746 745
f 745 744 741
f 641 645 822
f 822 642 641
f 641 640 645
f 642 634 641
f 634 640 641
f 798 792 794
f 794 795 817
f 794 793 795
f 792 793 794
f 794 624 798
f 817 624 794
f 766 790 791
f 731 732 760
f 787 785 760
f 760 759 731
f 760 785 759
f 804 786 812
f 786 811 812
f 812 815 804
f 322 321 812
f 812 321 833
f 833 815 812
f 834 325 832
f 325 811 832
f 831 950 832
f 832 819 831
f 832 811 819
f 950 1097 832
f 940 834 832
f 832 1097 940
f 1106 1104 1105
f 910 1104 1106
f 909 910 1106
f 1105 1052 1106
f 1106 1052 909
f 1066 949 955
f 955 1104 1066
f 917 949 1066
f 1066 1104 917
f 359 952 951
f 951 360 359
f 954 952 359
f 361 954 359
f 359 360 361
f 947 946 950
f 950 948 947
f 1096 945 947
f 947 945 946
f 917 1096 947
f 947 949 917
f 947 948 949
f 970 903 908
f 903 907 908
f 908 911 970
f 909 911 908
f 908 907 909
f 913 1052 916
f 915 914 916
f 916 914 913
f 1071 915 916
f 916 1052 1071
f 800 815 816
f 816 815 326
f 320 326 327
f 326 815 327
f 327 833 320
f 327 815 833
f 810 784 800
f 810 816 323
f 800 816 810
f 810 367 802
f 573 575 585
f 573 572 571
f 574 575 573
f 848 572 573
f 573 585 848
f 571 570 573
f 570 574 573
f 576 584 585
f 585 575 576
f 587 583 586
f 586 581 587
f 589 583 587
f 587 520 589
f 501 520 587
f 587 498 501
f 587 581 498
f 996 997 993
f 993 994 996
f 994 57 996
f 996 57 62
f 1063 1009 1007
f 1007 997 1063
f 1078 1009 44
f 44 1010 1078
f 44 1063 1119
f 1009 1063 44
f 1119 996 44
f 44 996 62
f 44 62 41
f 41 40 44
f 40 1079 44
f 862 863 75
f 861 862 75
f 75 860 861
f 49 860 75
f 1111 891 894
f 894 1112 1111
f 894 893 1112
f 894 891 892
f 892 893 894
f 973 898 896
f 896 1100 973
f 973 1100 980
f 972 898 973
f 980 1098 973
f 973 1098 972
f 81 194 119
f 119 194 190
f 690 688 695
f 243 245 258
f 113 118 81
f 774 776 698
f 776 699 698
f 706 774 698
f 698 705 706
f 696 694 698
f 698 699 696
f 284 705 698
f 698 694 284
f 1164 395 1166
f 1166 395 1165
f 1166 1220 1164
f 308 394 305
f 308 301 394
f 1182 1220 1196
f 1164 1220 1182
f 1196 1220 1192
f 1152 1221 1194
f 393 1159 1158
f 1158 1222 393
f 1157 1222 1158
f 604 605 590
f 590 580 604
f 604 580 579
f 476 578 570
f 570 838 476
f 579 578 476
f 1215 1132 1130
f 1130 1132 721
f 717 721 710
f 717 719 714
f 717 710 719
f 772 710 773
f 764 746 742
f 773 746 764
f 764 772 773
f 466 847 764
f 779 702 725
f 723 702 709
f 709 710 723
f 710 721 723
f 399 398 409
f 399 407 401
f 409 407 399
f 387 352 386
f 386 427 387
f 450 323 317
f 317 443 450
f 116 105 106
f 116 106 117
f 117 168 116
f 195 213 196
f 196 168 195
f 213 195 187
f 210 243 242
f 210 188 191
f 162 161 191
f 81 161 162
f 216 219 220
f 229 244 220
f 220 244 216
f 220 228 229
f 189 177 173
f 173 181 189
f 216 205 198
f 198 219 216
f 110 174 178
f 178 174 186
f 92 90 91
f 92 93 90
f 112 109 110
f 110 178 112
f 178 180 112
f 97 105 104
f 104 105 110
f 110 109 104
f 89 96 88
f 89 83 86
f 89 85 83
f 88 87 89
f 87 85 89
f 96 89 94
f 86 93 94
f 94 89 86
f 101 170 164
f 164 96 101
f 171 170 101
f 252 270 251
f 251 236 252
f 253 221 242
f 222 213 239
f 213 221 239
f 221 253 239
f 239 253 248
f 758 776 774
f 758 755 776
f 758 774 757
f 822 749 751
f 749 755 751
f 755 758 751
f 751 752 822
f 757 752 751
f 751 758 757
f 747 748 743
f 747 744 745
f 743 744 747
f 745 778 747
f 778 748 747
f 507 517 521
f 357 481 507
f 507 481 500
f 500 517 507
f 507 431 357
f 507 521 431
f 405 411 410
f 411 414 410
f 409 398 410
f 410 398 405
f 410 413 409
f 410 414 413
f 413 414 600
f 600 596 599
f 600 525 593
f 593 596 600
f 590 605 595
f 593 590 595
f 595 596 593
f 921 922 923
f 923 968 921
f 968 1065 921
f 906 966 920
f 922 921 920
f 1064 971 1099
f 1064 966 971
f 1099 1025 1064
f 924 922 960
f 960 1015 924
f 922 1015 960
f 1019 1088 926
f 926 1015 1019
f 1088 1087 926
f 926 1087 1028
f 1028 963 926
f 926 963 924
f 924 1015 926
f 928 961 962
f 962 965 964
f 961 965 962
f 962 1081 929
f 929 928 962
f 962 1082 1081
f 964 1082 962
f 1085 1051 1055
f 1055 961 1085
f 1091 961 1055
f 1055 1086 1091
f 1055 1051 1086
f 740 744 822
f 822 741 740
f 740 741 744
f 808 790 807
f 808 791 790
f 361 360 808
f 827 361 808
f 807 826 808
f 808 826 827
f 767 760 732
f 787 760 767
f 767 791 787
f 766 791 767
f 733 766 767
f 767 732 733
f 818 811 325
f 818 812 811
f 818 325 322
f 322 812 818
f 323 816 324
f 324 816 326
f 317 323 324
f 324 318 317
f 324 326 318
f 368 810 323
f 367 810 368
f 377 376 368
f 368 376 374
f 374 367 368
f 368 323 378
f 378 377 368
f 761 784 783
f 784 810 783
f 783 810 802
f 762 761 783
f 783 802 762
f 584 576 582
f 586 584 582
f 582 581 586
f 498 581 577
f 577 575 574
f 577 576 575
f 581 582 577
f 577 582 576
f 577 574 497
f 497 498 577
f 43 996 1119
f 997 996 43
f 1119 1063 43
f 43 1063 997
f 1079 1010 45
f 45 44 1079
f 1010 44 45
f 49 75 1013
f 1013 48 49
f 866 48 1013
f 1013 863 866
f 1013 75 863
f 1113 958 1112
f 1113 1112 1073
f 1073 969 1113
f 1113 969 1059
f 685 194 193
f 685 193 689
f 689 701 685
f 769 748 703
f 703 748 779
f 688 241 687
f 687 695 688
f 254 241 688
f 258 245 246
f 241 254 246
f 246 254 688
f 712 763 456
f 456 445 712
f 456 639 462
f 462 445 456
f 459 466 712
f 712 445 459
f 445 473 444
f 462 461 446
f 446 445 462
f 299 308 305
f 301 308 299
f 299 305 300
f 300 280 299
f 1194 1221 1195
f 1195 1192 1194
f 1196 1192 1195
f 1140 1144 1146
f 1139 1138 1140
f 1140 1138 1144
f 1214 1145 1209
f 1144 1138 1214
f 1255 311 313
f 313 1152 1255
f 1194 311 1255
f 1255 1152 1194
f 1153 1152 1146
f 1221 1152 1153
f 1146 1144 1153
f 1144 1214 1153
f 1169 1163 1164
f 1164 1182 1169
f 1177 1176 1178
f 1170 850 1238
f 1170 1171 850
f 1170 1238 1184
f 1170 1211 1171
f 1170 1184 1225
f 1225 1211 1170
f 1172 1171 1216
f 1174 1187 1172
f 1216 1171 1226
f 1171 1211 1226
f 1160 1211 1225
f 1157 1158 1160
f 1160 1225 1183
f 1183 1157 1160
f 838 837 603
f 632 1155 603
f 603 837 632
f 849 1155 1156
f 1156 850 849
f 715 1130 721
f 721 717 715
f 715 717 714
f 714 1128 715
f 1191 1132 1215
f 721 1132 1191
f 1191 722 721
f 711 742 712
f 711 764 742
f 712 466 711
f 466 764 711
f 716 764 847
f 772 764 720
f 719 710 720
f 710 772 720
f 724 1190 726
f 726 725 724
f 779 725 697
f 697 703 779
f 695 703 697
f 725 726 697
f 690 695 697
f 697 726 690
f 702 723 708
f 724 725 708
f 708 725 702
f 708 723 721
f 721 722 708
f 708 1191 724
f 722 1191 708
f 714 719 713
f 719 720 713
f 617 1172 1187
f 850 1171 617
f 1171 1172 617
f 401 403 470
f 404 400 470
f 470 400 398
f 470 399 401
f 398 399 470
f 415 600 599
f 413 600 415
f 415 421 416
f 401 407 402
f 402 403 401
f 402 408 403
f 474 450 443
f 468 379 474
f 379 381 474
f 427 397 430
f 323 450 438
f 450 474 438
f 847 442 452
f 846 716 452
f 452 716 847
f 186 174 185
f 185 168 196
f 196 186 185
f 110 105 115
f 105 116 115
f 115 174 110
f 115 185 174
f 115 116 168
f 168 185 115
f 163 161 81
f 81 119 163
f 163 119 190
f 169 195 168
f 169 187 195
f 188 210 212
f 212 187 188
f 242 221 212
f 212 210 242
f 212 221 213
f 213 187 212
f 217 246 245
f 241 246 217
f 81 162 120
f 108 177 176
f 108 173 177
f 176 175 108
f 108 175 172
f 108 101 100
f 181 173 108
f 172 171 108
f 171 101 108
f 205 181 197
f 197 198 205
f 181 198 197
f 199 178 186
f 199 180 178
f 199 186 204
f 204 235 199
f 235 231 199
f 181 180 182
f 182 201 181
f 180 201 182
f 202 198 181
f 181 201 202
f 219 198 202
f 202 220 219
f 202 201 220
f 230 231 228
f 109 112 103
f 93 92 103
f 91 97 102
f 97 104 102
f 102 104 109
f 102 92 91
f 109 103 102
f 102 103 92
f 95 94 93
f 95 103 100
f 93 103 95
f 96 94 99
f 100 101 99
f 99 101 96
f 99 95 100
f 94 95 99
f 237 252 236
f 222 239 237
f 237 239 248
f 237 235 222
f 236 235 237
f 528 414 417
f 528 600 414
f 525 600 528
f 417 519 528
f 519 525 528
f 597 595 605
f 599 596 597
f 596 595 597
f 919 1065 967
f 919 921 1065
f 967 1094 919
f 919 1094 906
f 906 920 919
f 919 920 921
f 1043 920 966
f 1043 1015 922
f 922 920 1043
f 809 360 363
f 809 808 360
f 787 791 801
f 791 808 801
f 808 809 801
f 805 787 801
f 801 819 805
f 801 809 363
f 363 829 801
f 829 819 801
f 1059 958 957
f 957 1113 1059
f 958 1113 957
f 194 685 209
f 209 685 686
f 686 687 209
f 259 243 258
f 259 262 243
f 258 246 267
f 267 246 688
f 267 688 690
f 242 243 261
f 243 262 261
f 261 253 242
f 692 685 701
f 686 685 692
f 692 687 686
f 295 285 286
f 286 304 295
f 248 253 268
f 465 763 646
f 465 456 763
f 646 639 465
f 639 456 465
f 453 847 466
f 466 444 453
f 467 444 466
f 445 444 467
f 466 459 467
f 467 459 445
f 449 442 847
f 847 453 449
f 449 453 444
f 447 461 460
f 447 446 461
f 1185 1166 1165
f 1165 301 1185
f 1220 1166 1185
f 1185 1192 1220
f 1185 314 1192
f 297 291 298
f 297 290 291
f 1139 1140 1218
f 1217 1214 1209
f 1217 1195 1221
f 1221 1153 1217
f 1217 1153 1214
f 1142 1214 1138
f 1145 1214 1142
f 1143 1145 1142
f 1175 1176 1177
f 1216 1176 1173
f 1173 1172 1216
f 1174 1172 1173
f 1173 1175 1174
f 1176 1175 1173
f 1198 1159 393
f 1216 1226 1227
f 1227 1226 1211
f 396 1161 1197
f 1199 1198 1197
f 393 396 1197
f 1197 1198 393
f 1162 395 1163
f 1162 1168 1161
f 396 395 1162
f 1162 1161 396
f 1196 1195 1251
f 1251 1217 1209
f 1195 1217 1251
f 1208 1145 1143
f 1209 1145 1249
f 1249 1251 1209
f 1250 1251 1249
f 1145 1208 1249
f 1246 1169 1247
f 1247 1169 1250
f 1246 1168 1167
f 1167 1169 1246
f 1163 1169 1167
f 1167 1162 1163
f 1168 1162 1167
f 1253 1182 1196
f 1253 1169 1182
f 1196 1251 1253
f 1250 1169 1253
f 1253 1251 1250
f 1241 1178 1176
f 1241 1198 1199
f 1177 1178 1244
f 1244 1247 1248
f 1246 1247 1244
f 602 476 838
f 838 603 602
f 579 476 602
f 605 604 607
f 607 849 850
f 850 617 607
f 1122 842 1121
f 1122 1121 1123
f 1130 715 1129
f 1129 715 1128
f 312 1190 724
f 312 1191 1190
f 1147 1140 1146
f 302 1154 304
f 403 408 616
f 616 408 416
f 1239 842 1122
f 718 713 720
f 764 716 718
f 718 720 764
f 468 470 469
f 446 447 469
f 469 473 445
f 445 446 469
f 623 470 403
f 403 616 623
f 842 437 623
f 471 424 404
f 404 470 471
f 352 424 471
f 471 386 352
f 471 470 468
f 427 386 471
f 468 474 471
f 471 397 427
f 471 474 397
f 599 601 621
f 621 415 599
f 421 415 621
f 406 415 416
f 406 402 407
f 406 407 413
f 413 415 406
f 416 408 406
f 408 402 406
f 385 474 443
f 380 323 441
f 323 438 441
f 441 381 380
f 441 474 381
f 441 438 474
f 191 188 183
f 183 162 191
f 188 187 183
f 187 169 183
f 218 217 245
f 245 243 218
f 243 210 218
f 192 163 190
f 191 161 192
f 161 163 192
f 111 108 100
f 100 103 111
f 111 103 112
f 220 201 227
f 201 230 227
f 228 220 227
f 227 230 228
f 200 230 201
f 200 201 180
f 180 199 200
f 200 199 231
f 231 230 200
f 256 237 248
f 252 237 256
f 265 270 279
f 279 280 265
f 279 299 280
f 293 299 279
f 248 268 274
f 274 256 248
f 966 1064 1016
f 1016 1043 966
f 1015 1043 1016
f 1016 1064 1025
f 1018 1015 1016
f 1025 1017 1016
f 1016 1024 1018
f 1016 1017 1024
f 238 687 241
f 238 209 687
f 286 262 289
f 289 304 286
f 289 302 304
f 690 726 691
f 691 267 690
f 726 267 691
f 780 703 695
f 769 703 780
f 695 687 780
f 687 692 780
f 313 311 306
f 306 295 313
f 306 311 298
f 298 287 306
f 306 287 285
f 285 295 306
f 298 291 292
f 292 287 298
f 272 261 262
f 253 261 272
f 286 285 272
f 272 262 286
f 309 295 304
f 304 1154 309
f 313 295 309
f 1190 1191 1189
f 1189 1154 1190
f 439 468 440
f 468 469 440
f 378 439 440
f 440 376 378
f 374 376 440
f 440 375 374
f 296 1185 301
f 314 1185 296
f 301 299 296
f 296 299 293
f 293 290 296
f 290 297 296
f 1194 1192 1193
f 1192 314 1193
f 1193 311 1194
f 314 296 1193
f 1193 296 297
f 298 311 1193
f 1193 297 298
f 1252 1218 1140
f 1140 1147 1252
f 1229 1227 1160
f 1229 1176 1216
f 1216 1227 1229
f 1211 1160 1228
f 1228 1227 1211
f 1160 1227 1228
f 1223 1247 1250
f 1250 1249 1223
f 1223 1249 1208
f 1223 1208 1143
f 1248 1247 1223
f 1243 1244 1178
f 1243 1241 1199
f 1178 1241 1243
f 477 604 579
f 579 602 477
f 1122 1123 1124
f 1126 1123 1127
f 724 1191 315
f 315 312 724
f 1191 312 315
f 313 309 1150
f 1150 1147 1146
f 1146 1152 1150
f 1150 1152 313
f 1190 1154 310
f 1154 302 310
f 294 267 726
f 846 452 475
f 475 452 442
f 442 449 475
f 475 449 444
f 472 623 437
f 470 623 472
f 473 469 472
f 472 469 470
f 472 444 473
f 472 475 444
f 605 607 606
f 606 607 617
f 599 597 606
f 606 597 605
f 416 421 612
f 612 616 416
f 714 713 1240
f 713 1239 1240
f 1240 1128 714
f 1240 1124 1128
f 1240 1239 1122
f 1122 1124 1240
f 842 623 843
f 382 430 397
f 397 474 382
f 474 385 382
f 383 427 382
f 427 430 382
f 382 385 443
f 382 337 383
f 317 337 382
f 382 443 317
f 121 120 162
f 162 183 121
f 81 120 121
f 121 113 81
f 118 113 121
f 121 183 169
f 117 118 121
f 121 168 117
f 121 169 168
f 207 218 210
f 217 218 207
f 207 210 191
f 191 192 207
f 181 108 179
f 108 111 179
f 179 111 112
f 179 180 181
f 179 112 180
f 278 290 293
f 293 279 278
f 208 238 241
f 209 238 208
f 241 217 208
f 190 194 208
f 194 209 208
f 217 207 208
f 208 192 190
f 208 207 192
f 258 267 266
f 266 259 258
f 262 259 266
f 704 692 701
f 704 780 692
f 701 700 704
f 704 700 769
f 769 780 704
f 285 287 273
f 273 272 285
f 273 268 253
f 253 272 273
f 276 274 268
f 268 273 276
f 276 292 291
f 287 292 276
f 276 273 287
f 1254 1189 1191
f 1254 1191 1215
f 1254 1147 1154
f 1154 1189 1254
f 1215 1252 1254
f 1254 1252 1147
f 448 469 447
f 448 440 469
f 448 447 460
f 458 454 455
f 460 454 458
f 458 448 460
f 440 448 458
f 457 455 375
f 375 440 457
f 457 458 455
f 440 458 457
f 1133 1252 1215
f 1218 1252 1133
f 1215 1130 1133
f 1130 1218 1133
f 1141 1142 1138
f 1138 1136 1141
f 1143 1142 1141
f 1135 1138 1139
f 1135 1136 1138
f 1139 1218 1135
f 1127 1136 1135
f 1135 1126 1127
f 1176 1229 1230
f 1230 1229 1198
f 1230 1241 1176
f 1198 1241 1230
f 1159 1198 1200
f 1198 1229 1200
f 1200 1158 1159
f 1200 1160 1158
f 1200 1229 1160
f 1161 1168 1242
f 1242 1197 1161
f 1199 1197 1242
f 1242 1243 1199
f 1246 1244 1245
f 1244 1243 1245
f 1243 1242 1245
f 1245 1168 1246
f 1245 1242 1168
f 604 477 851
f 851 607 604
f 851 602 603
f 851 477 602
f 849 607 851
f 851 603 1155
f 1155 849 851
f 1143 1213 1210
f 1210 1213 1248
f 1210 1223 1143
f 1248 1223 1210
f 1148 1135 1218
f 1126 1135 1148
f 1154 1147 1151
f 1147 1150 1151
f 1151 309 1154
f 1151 1150 309
f 303 294 726
f 303 310 302
f 303 726 1190
f 1190 310 303
f 302 289 288
f 288 303 302
f 294 303 288
f 267 294 288
f 288 266 267
f 288 289 262
f 262 266 288
f 846 475 845
f 475 852 845
f 845 718 716
f 713 718 845
f 434 436 839
f 839 436 842
f 842 1239 839
f 839 1239 713
f 435 472 434
f 434 852 435
f 475 472 435
f 435 852 475
f 844 436 434
f 844 472 437
f 434 472 844
f 844 437 842
f 842 436 844
f 421 621 610
f 610 621 601
f 610 601 599
f 599 606 610
f 855 1187 1174
f 855 617 1187
f 622 623 616
f 622 843 623
f 622 1237 843
f 274 278 269
f 256 274 269
f 252 256 269
f 270 252 269
f 269 279 270
f 269 278 279
f 275 278 274
f 274 276 275
f 275 276 291
f 291 290 275
f 290 278 275
f 1149 1213 1143
f 1143 1141 1149
f 1224 1213 1149
f 1149 1141 1136
f 1236 1213 1224
f 1127 1237 1137
f 1224 1149 1137
f 1137 1136 1127
f 1137 1149 1136
f 1235 1237 1188
f 1235 1236 1224
f 1224 1137 1235
f 1235 1137 1237
f 1127 1123 1134
f 1134 1237 1127
f 1134 1123 1121
f 1134 1121 842
f 842 843 1134
f 843 1237 1134
f 1131 1218 1130
f 1131 1148 1218
f 1130 1129 1131
f 1129 1148 1131
f 1126 1148 1125
f 1125 1124 1123
f 1123 1126 1125
f 1128 1124 1125
f 1125 1129 1128
f 1125 1148 1129
f 451 716 846
f 846 845 451
f 451 845 716
f 841 839 713
f 713 845 841
f 841 845 852
f 840 852 434
f 434 839 840
f 840 841 852
f 839 841 840
f 613 612 421
f 421 610 613
f 613 610 612
f 612 610 611
f 611 610 606
f 611 606 617
f 617 855 611
f 612 611 620
f 620 611 855
f 622 620 1232
f 1188 1237 1219
f 1219 622 1188
f 1237 622 1219
f 1248 1213 1181
f 1213 1236 1181
f 1181 1236 1180
f 1180 1236 1231
f 1236 1235 1231
f 615 622 616
f 615 620 622
f 616 612 615
f 612 620 615
f 1188 622 1234
f 622 1232 1234
f 1234 1235 1188
f 1234 1231 1235
f 1232 1231 1234
f 1233 1175 1177
f 1177 1180 1233
f 1174 1175 1233
f 1180 1231 1233
f 1233 1231 1232
f 1233 620 855
f 1179 1180 1177
f 1179 1181 1180
f 1177 1244 1179
f 1179 1244 1248
f 1248 1181 1179
f 1120 1232 620
f 620 1233 1120
f 1120 1233 1232
f 1212 855 1174
f 1174 1233 1212
f 1212 1233 855

